<svg width="24" height="24" viewBox="0 0 24 24" fill="none" xmlns="http://www.w3.org/2000/svg">
<path d="M3.5 5.25C3.5 4.83579 3.16421 4.5 2.75 4.5C2.33579 4.5 2 4.83579 2 5.25V17.25C2 18.4926 3.00736 19.5 4.25 19.5H21.25C21.6642 19.5 22 19.1642 22 18.75C22 18.3358 21.6642 18 21.25 18H4.25C3.83579 18 3.5 17.6642 3.5 17.25V5.25Z" fill="#323544"/>
<path fill-rule="evenodd" clip-rule="evenodd" d="M7 10.2773C5.89543 10.2773 5 11.1728 5 12.2773V15.7501C5 16.1643 5.33579 16.5001 5.75 16.5001H8.25C8.66421 16.5001 9 16.1643 9 15.7501V12.2773C9 11.1728 8.10457 10.2773 7 10.2773ZM6.5 12.2773C6.5 12.0012 6.72386 11.7773 7 11.7773C7.27614 11.7773 7.5 12.0012 7.5 12.2773V15.0001H6.5V12.2773Z" fill="#323544"/>
<path fill-rule="evenodd" clip-rule="evenodd" d="M10.5 6.5C10.5 5.39543 11.3954 4.5 12.5 4.5C13.6046 4.5 14.5 5.39543 14.5 6.5V15.7501C14.5 16.1643 14.1642 16.5001 13.75 16.5001H11.25C10.8358 16.5001 10.5 16.1643 10.5 15.7501V6.5ZM12.5 6C12.2239 6 12 6.22386 12 6.5V15.0001H13V6.5C13 6.22386 12.7761 6 12.5 6Z" fill="#323544"/>
<path fill-rule="evenodd" clip-rule="evenodd" d="M18 8.05859C16.8954 8.05859 16 8.95402 16 10.0586V15.7501C16 16.1643 16.3358 16.5001 16.75 16.5001H19.25C19.6642 16.5001 20 16.1643 20 15.7501V10.0586C20 8.95402 19.1046 8.05859 18 8.05859ZM17.5 10.0586C17.5 9.78245 17.7239 9.55859 18 9.55859C18.2761 9.55859 18.5 9.78245 18.5 10.0586V15.0001H17.5V10.0586Z" fill="#323544"/>
</svg>
