<svg width="24" height="24" viewBox="0 0 24 24" fill="none" xmlns="http://www.w3.org/2000/svg">
<path fill-rule="evenodd" clip-rule="evenodd" d="M22 12C22 17.5228 17.5228 22 12 22C6.47715 22 2 17.5228 2 12C2 6.47715 6.47715 2 12 2C17.5228 2 22 6.47715 22 12ZM21.7037 12C21.7037 6.64079 17.3592 2.29628 12 2.29628C6.64079 2.29628 2.29628 6.64079 2.29628 12C2.29628 17.3592 6.64079 21.7037 12 21.7037C17.3592 21.7037 21.7037 17.3592 21.7037 12Z" fill="#323544"/>
<path d="M6.47487 11.9819C6.47474 11.2552 6.61777 10.5356 6.89581 9.86416C7.17385 9.19273 7.58145 8.58265 8.09532 8.06878C8.60919 7.55491 9.21926 7.14732 9.89069 6.86928C10.5621 6.59123 11.2818 6.4482 12.0085 6.44834V17.5145C12.7351 17.5146 13.4547 17.3716 14.126 17.0937C14.7974 16.8157 15.4074 16.4082 15.9213 15.8944C16.4351 15.3807 16.8427 14.7707 17.1208 14.0994C17.399 13.4281 17.5421 12.7086 17.5421 11.9819H6.47487Z" fill="#323544"/>
<path d="M7.21609 7.16407L6.47169 8.05183L6.00446 7.65998L6.75523 6.76586C6.83912 6.66497 7.02814 6.63524 7.15557 6.74249C7.29998 6.86249 7.31485 7.0462 7.21609 7.16407Z" fill="#323544"/>
<path d="M6.39311 6.55241L5.68694 7.39344L5.24519 7.02284L5.95879 6.17119C6.04162 6.07243 6.22852 6.07668 6.34851 6.17756C6.48125 6.28906 6.48125 6.44622 6.39311 6.55241Z" fill="#323544"/>
<path d="M21.2662 11.982C21.2662 17.0949 17.1214 21.2397 12.0085 21.2397C6.89559 21.2397 2.75077 17.0949 2.75077 11.982C2.75077 6.86905 6.89559 2.72423 12.0085 2.72423C17.1214 2.72423 21.2662 6.86905 21.2662 11.982ZM4.51035 7.23733L6.37931 8.80684L7.63343 7.31167C7.92014 6.96973 7.96474 6.63098 7.66316 6.33896C7.56123 6.23819 7.4275 6.1759 7.28478 6.16273C7.14205 6.14957 6.99918 6.18633 6.88053 6.26675C6.92336 6.14967 6.92449 6.02139 6.88372 5.90358C6.7698 5.69456 6.72426 5.6565 6.63677 5.58336L6.63667 5.58328C6.6304 5.57805 6.62392 5.57263 6.61718 5.56695C6.29011 5.29298 5.94605 5.52766 5.69969 5.82075L4.51035 7.23733ZM12.961 3.96453V5.66677H13.4484V3.22969H12.7157L12.052 4.96607L11.3883 3.22969H10.6556V5.66677H11.1441V3.96453L11.7855 5.66677H12.3186L12.961 3.96453ZM17.9594 7.98067L18.878 6.67983L18.4734 6.18073L17.0101 6.80832L17.9679 5.55633L17.5909 5.09122L16.0618 7.05681L16.5089 7.60475L17.9531 7.01009L17.9584 7.01646L17.077 8.30561L17.5187 8.85675L19.7604 7.77041L19.3835 7.30423L17.9594 7.98067ZM12.0085 17.8957C15.2746 17.8957 17.9223 15.248 17.9223 11.9819C17.9223 8.71586 15.2746 6.06818 12.0085 6.06818C8.7424 6.06818 6.09471 8.71586 6.09471 11.9819C6.09471 15.248 8.7424 17.8957 12.0085 17.8957Z" fill="#323544"/>
</svg>
