<svg width="25" height="24" viewBox="0 0 25 24" fill="none" xmlns="http://www.w3.org/2000/svg">
<path d="M15.0478 13.7803C15.3407 14.0732 15.8156 14.0732 16.1085 13.7803C16.4013 13.4874 16.4013 13.0126 16.1085 12.7197L12.8585 9.46967C12.5656 9.17678 12.0907 9.17678 11.7978 9.46967L8.5478 12.7197C8.2549 13.0126 8.2549 13.4874 8.5478 13.7803C8.84069 14.0732 9.31556 14.0732 9.60846 13.7803L12.3281 11.0607L15.0478 13.7803Z" fill="#323544"/>
<path fill-rule="evenodd" clip-rule="evenodd" d="M12.3281 2C6.80528 2 2.32812 6.47715 2.32812 12C2.32812 17.5228 6.80528 22 12.3281 22C17.851 22 22.3281 17.5228 22.3281 12C22.3281 6.47715 17.851 2 12.3281 2ZM3.82812 12C3.82812 7.30558 7.6337 3.5 12.3281 3.5C17.0225 3.5 20.8281 7.30558 20.8281 12C20.8281 16.6944 17.0225 20.5 12.3281 20.5C7.6337 20.5 3.82812 16.6944 3.82812 12Z" fill="#323544"/>
</svg>
