<svg width="24" height="24" viewBox="0 0 24 24" fill="none" xmlns="http://www.w3.org/2000/svg">
<path fill-rule="evenodd" clip-rule="evenodd" d="M9.75 20.5V22H6.75C5.50736 22 4.5 20.9926 4.5 19.75V9.62105C4.5 9.02455 4.73686 8.45247 5.15851 8.03055L10.5262 2.65951C10.9482 2.23725 11.5207 2 12.1177 2H17.25C18.4926 2 19.5 3.00736 19.5 4.25V9.75H18V4.25C18 3.83579 17.6642 3.5 17.25 3.5H12.248L12.2509 7.4984C12.2518 8.74166 11.2442 9.75 10.0009 9.75H6V19.75C6 20.1642 6.33579 20.5 6.75 20.5H9.75ZM10.7488 4.55876L7.05986 8.25H10.0009C10.4153 8.25 10.7512 7.91389 10.7509 7.49947L10.7488 4.55876Z" fill="#323544"/>
<path fill-rule="evenodd" clip-rule="evenodd" d="M20.2988 12.3389C19.6153 11.6555 18.5073 11.6555 17.8239 12.3389L12.6657 17.4971C12.3028 17.86 12.0749 18.3359 12.0197 18.8461L11.8307 20.593C11.8063 20.8188 11.8854 21.0434 12.046 21.204C12.2066 21.3646 12.4312 21.4437 12.657 21.4193L14.4039 21.2303C14.9141 21.1751 15.39 20.9472 15.7529 20.5843L20.9111 15.4261C21.5945 14.7427 21.5945 13.6347 20.9111 12.9512L20.2988 12.3389ZM18.0219 14.2622L18.9878 15.2281L14.6922 19.5237C14.5713 19.6446 14.4126 19.7206 14.2426 19.739L13.4222 19.8278L13.511 19.0074C13.5294 18.8374 13.6054 18.6787 13.7263 18.5578L18.0219 14.2622Z" fill="#323544"/>
</svg>
