<svg width="24" height="24" viewBox="0 0 24 24" fill="none" xmlns="http://www.w3.org/2000/svg">
<path d="M21.9411 9.43666C21.8411 9.68673 21.7625 9.94394 21.6625 10.194C21.591 9.14373 21.4196 8.10058 21.0838 7.10746C20.8551 6.49301 20.5908 5.87855 20.1335 5.39985C20.1978 5.98573 20.3478 6.55731 20.3335 7.15033C20.2049 6.70021 20.0549 6.24294 19.7834 5.85712C19.1975 4.94973 18.2473 4.33528 17.2327 4.00662C16.9683 3.92088 16.6897 3.87087 16.4539 3.72797C14.9964 2.87774 13.2959 2.4562 11.6098 2.49907C9.4163 2.52764 7.25857 3.39216 5.65099 4.87828C5.40092 5.11406 5.17229 5.37127 4.92222 5.6142C4.48639 5.10692 4.2649 4.46388 4.23632 3.79942C3.84336 4.13522 3.61472 4.62107 3.45039 5.09977C3.22176 5.77138 3.1003 6.48586 3.17175 7.1932C3.17889 7.35038 3.22176 7.52186 3.11459 7.65761C2.55729 8.47211 2.10717 9.40094 2 10.3941C2.17862 10.2726 2.3501 10.144 2.52871 10.0225C2.45727 10.3798 2.35724 10.737 2.30008 11.1014C2.05001 12.8519 2.37153 14.6738 3.20747 16.2385C4.122 17.9247 5.53667 19.3179 7.20141 20.2682C9.07335 21.3327 11.3097 21.7257 13.4388 21.3828C15.2965 21.0755 17.097 20.261 18.4259 18.9107C19.369 17.9533 20.1907 16.8744 20.7837 15.6669C21.7554 13.7521 22.1626 11.5587 21.9411 9.43666ZM18.4616 12.1803C18.2687 11.7873 18.1687 11.3229 17.7971 11.0514C17.89 12.0374 17.9329 13.0376 17.7114 14.0093C17.5757 14.6667 17.2827 15.3025 16.804 15.7812C16.8898 15.3097 16.9683 14.831 16.9398 14.3523C16.2467 15.2883 15.4108 16.1528 14.3462 16.6601C13.446 17.0959 12.3814 17.0744 11.4383 16.7815C10.5809 16.5029 9.83784 15.9741 9.18052 15.374H9.40915C10.0522 15.4169 10.7024 15.324 11.3168 15.1454C11.9313 14.9667 12.3885 14.5095 12.9244 14.188C13.1745 14.0379 13.4888 14.1022 13.7603 14.0236C13.9318 13.9307 13.989 13.6807 13.8318 13.5449C13.4317 13.1091 12.8529 12.759 12.2456 12.8304C11.6598 12.9162 11.1811 13.3163 10.6023 13.452C10.1879 13.5235 9.76639 13.3949 9.40201 13.2091C8.88044 12.9448 8.48747 12.5018 8.11595 12.0659L7.95161 11.9302C7.95161 11.8659 7.95161 11.7944 7.95876 11.7301C7.99448 11.5515 8.09451 11.3943 8.18025 11.23L8.28028 11.03C8.859 11.0728 9.43059 11.1657 9.99503 11.3086C9.98788 10.7727 9.95216 10.1654 9.6235 9.72245L9.73781 9.63672C10.1022 9.35092 10.438 9.01512 10.8453 8.79363C11.0096 8.70789 11.1596 8.59358 11.2811 8.45782L11.3097 8.2149H11.3025C11.3097 8.12202 11.2954 8.02199 11.2954 7.92911C11.0953 7.90768 10.8953 7.89339 10.6881 7.89339L10.1308 7.85766C10.0879 7.82908 10.045 7.8005 10.0022 7.77907C9.6235 7.54329 9.29484 7.22892 8.9376 6.96456L8.7947 6.83596L8.81614 6.64305C8.95189 5.74995 9.60921 5.04976 10.2951 4.5139C9.80926 4.58535 9.33056 4.7211 8.89473 4.94259C8.43746 5.16407 8.0445 5.49988 7.65868 5.82854C6.8799 5.62849 6.04395 5.74995 5.3009 6.03574C4.93651 6.20007 4.60785 6.44299 4.25061 6.62876C4.47924 6.40012 4.7436 6.2215 5.00081 6.02145C5.22945 5.84997 5.40092 5.6142 5.60098 5.41414C7.08709 3.88516 9.16623 2.96348 11.2882 2.8563C12.6958 2.78486 14.1462 3.00635 15.4179 3.62794C15.075 3.61365 14.7392 3.59222 14.3962 3.59936C15.1607 3.828 16.0538 4.07092 16.4825 4.81398C16.0895 4.82827 15.6894 4.83541 15.3108 4.96402C16.4039 5.38556 17.5042 5.90713 18.3187 6.7788C18.8046 7.30037 19.1404 7.97912 19.1261 8.70789C18.8689 8.51498 18.6045 8.33636 18.3187 8.19347C18.6259 9.48668 18.8188 10.8656 18.4616 12.1803Z" fill="#323544"/>
</svg>
