<svg width="24" height="24" viewBox="0 0 24 24" fill="none" xmlns="http://www.w3.org/2000/svg">
<path d="M3.50937 10.503C3.47042 10.503 3.46069 10.4832 3.48016 10.4535L3.68466 10.1865C3.70413 10.1568 3.75283 10.137 3.79178 10.137H7.26826C7.30718 10.137 7.31695 10.1667 7.29743 10.1964L7.13191 10.4535C7.11242 10.4832 7.06374 10.5128 7.03454 10.5128L3.50937 10.503Z" fill="#323544"/>
<path d="M2.03895 11.4126C2 11.4126 1.99026 11.3929 2.00974 11.3632L2.21424 11.0962C2.23371 11.0665 2.2824 11.0467 2.32135 11.0467H6.7619C6.80084 11.0467 6.8203 11.0764 6.81058 11.106L6.73266 11.3434C6.72292 11.383 6.68398 11.4027 6.64503 11.4027L2.03895 11.4126Z" fill="#323544"/>
<path d="M4.39584 12.3227C4.35689 12.3227 4.34716 12.293 4.36663 12.2633L4.50296 12.0161C4.52244 11.9864 4.56139 11.9567 4.60034 11.9567H6.54794C6.58692 11.9567 6.60637 11.9864 6.60637 12.026L6.58689 12.2633C6.58689 12.3029 6.54794 12.3326 6.51871 12.3326L4.39584 12.3227Z" fill="#323544"/>
<path d="M14.5038 10.325C13.8904 10.4832 13.4716 10.6019 12.8678 10.7601C12.7218 10.7997 12.712 10.8096 12.5854 10.6612C12.4394 10.4931 12.3323 10.3843 12.1277 10.2854C11.5143 9.97882 10.9203 10.0678 10.3652 10.4338C9.70299 10.8689 9.36217 11.5118 9.37192 12.3129C9.38163 13.1041 9.9172 13.7568 10.6865 13.8656C11.3487 13.9546 11.9038 13.7173 12.342 13.2129C12.4296 13.1041 12.5075 12.9854 12.6049 12.847C12.2544 12.847 11.8162 12.847 10.7255 12.847C10.521 12.847 10.4723 12.7184 10.5405 12.5502C10.667 12.2437 10.9008 11.7294 11.0371 11.4722C11.0663 11.4129 11.1345 11.314 11.2805 11.314C11.7772 11.314 13.6079 11.314 14.8252 11.314C14.8057 11.581 14.8057 11.848 14.7667 12.1151C14.6597 12.8272 14.3967 13.4799 13.9682 14.0536C13.2671 14.9931 12.3517 15.5766 11.1929 15.7349C10.2386 15.8634 9.35243 15.6755 8.57339 15.0821C7.85278 14.5283 7.44378 13.7964 7.33666 12.8865C7.21005 11.8085 7.52167 10.8393 8.16436 9.98872C8.85577 9.06891 9.77113 8.48539 10.891 8.27772C11.8064 8.10956 12.6828 8.21836 13.4716 8.76231C13.9877 9.10849 14.3577 9.58322 14.6012 10.1568C14.6596 10.2458 14.6207 10.2953 14.5038 10.325Z" fill="#323544"/>
<path d="M17.7262 15.7941C16.84 15.7743 16.0318 15.5171 15.3501 14.9237C14.7756 14.4193 14.4153 13.7765 14.2984 13.0149C14.1232 11.8973 14.425 10.9083 15.0872 10.0281C15.7981 9.07866 16.655 8.58413 17.8139 8.37646C18.8072 8.19843 19.742 8.29733 20.5892 8.88083C21.3585 9.4149 21.8357 10.1369 21.9622 11.0864C22.1278 12.4215 21.748 13.5094 20.8424 14.4391C20.1997 15.1017 19.4109 15.5171 18.5053 15.705C18.2424 15.7545 17.9794 15.7644 17.7262 15.7941ZM20.0439 11.7984C20.0341 11.6699 20.0341 11.571 20.0146 11.4721C19.8394 10.4929 18.9532 9.93908 18.0281 10.1567C17.1225 10.3644 16.5382 10.9479 16.3239 11.8776C16.1486 12.649 16.5187 13.4303 17.2198 13.7468C17.7554 13.9842 18.291 13.9545 18.8072 13.6875C19.5765 13.282 19.9952 12.649 20.0439 11.7984Z" fill="#323544"/>
</svg>
