<svg width="24" height="24" viewBox="0 0 24 24" fill="none" xmlns="http://www.w3.org/2000/svg">
<path d="M21.5939 11.0792H12.3209V13.8256H18.9768C18.6214 17.6382 15.5196 19.286 12.5148 19.286C8.70223 19.286 5.30969 16.3135 5.30969 12.0162C5.30969 7.88057 8.54068 4.74651 12.5148 4.74651C15.5519 4.74651 17.3936 6.71741 17.3936 6.71741L19.2676 4.74651C19.2676 4.74651 16.7474 2.00016 12.3856 2.00016C6.6344 1.96785 2.24023 6.78203 2.24023 11.9839C2.24023 17.0243 6.37592 22 12.4825 22C17.8783 22 21.7554 18.349 21.7554 12.8886C21.7877 11.7578 21.5939 11.0792 21.5939 11.0792Z" fill="#323544"/>
</svg>
