<svg width="24" height="24" viewBox="0 0 24 24" fill="none" xmlns="http://www.w3.org/2000/svg">
<path fill-rule="evenodd" clip-rule="evenodd" d="M12.45 4.90342C12.1833 4.70342 11.8167 4.70342 11.55 4.90342L5.05 9.77842C4.86115 9.92006 4.75 10.1423 4.75 10.3784V18.4998C4.75 18.9141 5.08579 19.2498 5.5 19.2498H9V16.9998C9 15.343 10.3431 13.9998 12 13.9998C13.6569 13.9998 15 15.343 15 16.9998V19.2498H18.5C18.9142 19.2498 19.25 18.9141 19.25 18.4998V10.3784C19.25 10.1423 19.1389 9.92006 18.95 9.77842L12.45 4.90342ZM10.65 3.70342C11.45 3.10342 12.55 3.10342 13.35 3.70342L19.85 8.57842C20.4166 9.00334 20.75 9.67021 20.75 10.3784V18.4998C20.75 19.7425 19.7426 20.7498 18.5 20.7498H14.25C13.8358 20.7498 13.5 20.4141 13.5 19.9998V16.9998C13.5 16.1714 12.8284 15.4998 12 15.4998C11.1716 15.4998 10.5 16.1714 10.5 16.9998V19.9998C10.5 20.4141 10.1642 20.7498 9.75 20.7498H5.5C4.25736 20.7498 3.25 19.7425 3.25 18.4998V10.3784C3.25 9.67021 3.58344 9.00334 4.15 8.57842L10.65 3.70342Z" fill="#323544"/>
</svg>
