<svg width="24" height="24" viewBox="0 0 24 24" fill="none" xmlns="http://www.w3.org/2000/svg">
<path d="M8.55814 11.25C8.14393 11.25 7.80814 11.5858 7.80814 12C7.80814 12.4142 8.14393 12.75 8.55814 12.75H15.4419C15.8561 12.75 16.1919 12.4142 16.1919 12C16.1919 11.5858 15.8561 11.25 15.4419 11.25H8.55814Z" fill="#323544"/>
<path fill-rule="evenodd" clip-rule="evenodd" d="M12 2C6.47715 2 2 6.47715 2 12C2 17.5228 6.47715 22 12 22C17.5228 22 22 17.5228 22 12C22 6.47715 17.5228 2 12 2ZM3.5 12C3.5 7.30558 7.30558 3.5 12 3.5C16.6944 3.5 20.5 7.30558 20.5 12C20.5 16.6944 16.6944 20.5 12 20.5C7.30558 20.5 3.5 16.6944 3.5 12Z" fill="#323544"/>
</svg>
