<svg width="24" height="24" viewBox="0 0 24 24" fill="none" xmlns="http://www.w3.org/2000/svg">
<path fill-rule="evenodd" clip-rule="evenodd" d="M20.8749 2.51272C20.1915 1.8293 19.0835 1.8293 18.4001 2.51272L13.2418 7.67095C12.879 8.03379 12.6511 8.50974 12.5959 9.0199L12.4069 10.7668C12.3824 10.9926 12.4616 11.2173 12.6222 11.3778C12.7827 11.5384 13.0074 11.6176 13.2332 11.5931L14.9801 11.4041C15.4903 11.3489 15.9662 11.121 16.3291 10.7582L21.4873 5.59994C22.1707 4.91652 22.1707 3.80848 21.4873 3.12506L20.8749 2.51272ZM18.5981 4.43601L19.564 5.40191L15.2684 9.69751C15.1474 9.81846 14.9888 9.89443 14.8187 9.91283L13.9984 10.0016L14.0872 9.18126C14.1056 9.01121 14.1815 8.85256 14.3025 8.73161L18.5981 4.43601Z" fill="#323544"/>
<path d="M5.5 3.25H15.5411L14.0411 4.75H5.5C5.08579 4.75 4.75 5.08579 4.75 5.5V18.5C4.75 18.9142 5.08579 19.25 5.5 19.25H18.5C18.9142 19.25 19.25 18.9142 19.25 18.5V9.95823L20.75 8.45823V18.5C20.75 19.7426 19.7426 20.75 18.5 20.75H5.5C4.25736 20.75 3.25 19.7426 3.25 18.5V5.5C3.25 4.25736 4.25736 3.25 5.5 3.25Z" fill="#323544"/>
</svg>
