<svg width="24" height="24" viewBox="0 0 24 24" fill="none" xmlns="http://www.w3.org/2000/svg">
<path d="M18.3226 9.00661C18.0968 8.97436 17.9032 8.87758 17.6774 8.81306C17.7097 8.68403 17.7097 8.555 17.7742 8.36145C18.2258 6.03887 17.9032 4.20017 16.871 3.55501C15.8387 2.97437 14.1613 3.58727 12.4839 5.03887C12.3548 5.1679 12.129 5.29694 12 5.49048C11.9032 5.39371 11.7742 5.29694 11.6774 5.1679C9.90323 3.58727 8.16129 2.94211 7.06452 3.55501C6.03226 4.13566 5.70968 5.90984 6.16129 8.07113C6.19355 8.29694 6.25806 8.52274 6.29032 8.71629C6.06452 8.74855 5.80645 8.84532 5.58065 8.9421C3.48387 9.68403 2 10.8776 2 12.0066C2 13.2324 3.58065 14.4582 5.74194 15.1679C5.93548 15.2002 6.09677 15.2969 6.29032 15.2969C6.25806 15.5227 6.16129 15.7485 6.16129 16.0066C5.74194 18.1356 6.06452 19.8453 7.09677 20.426C8.12903 21.0711 9.93548 20.426 11.6129 18.8776C11.7419 18.7486 11.871 18.6518 12.0323 18.5227C12.1613 18.6518 12.3871 18.8453 12.5806 18.9744C14.1935 20.426 15.871 21.0066 16.9355 20.426C17.9677 19.7808 18.3226 17.9744 17.871 15.7163C17.8387 15.5873 17.8387 15.3615 17.7419 15.1679C17.871 15.1356 17.9677 15.1356 18.0968 15.0389C20.3548 14.3615 22 13.1356 22 11.9098C21.9677 10.9098 20.4194 9.74855 18.3226 9.00661ZM13.0323 5.71629C14.4839 4.45824 15.8387 4.00663 16.4839 4.32921C17.129 4.68405 17.3871 6.23242 16.9677 8.26468C16.9355 8.39371 16.9355 8.49048 16.871 8.68403C16 8.49048 15.1613 8.32919 14.2581 8.26468C13.7742 7.555 13.2258 6.81306 12.6452 6.23242C12.7742 5.97436 12.9032 5.84532 13.0323 5.71629ZM8.54839 14.0711C8.74194 14.426 8.96774 14.7486 9.19355 15.0711C8.54839 15.0389 7.96774 14.9421 7.3871 14.8131C7.51613 14.2647 7.74194 13.684 8.03226 13.1034C8.16129 13.3937 8.3871 13.7808 8.54839 14.0711ZM7.3871 9.42597C7.93548 9.29694 8.51613 9.20016 9.16129 9.10339C8.93548 9.42597 8.74194 9.74855 8.58064 10.1034C8.41935 10.4582 8.22581 10.7485 8.03226 11.1356C7.74194 10.5227 7.58065 9.97436 7.3871 9.42597ZM8.41935 12.1034C8.64516 11.555 8.96774 11.0711 9.29032 10.5227C9.6129 9.97436 9.93548 9.49048 10.2258 8.97436C10.8065 8.9421 11.3871 8.9421 12 8.9421C12.5806 8.9421 13.2258 8.97436 13.7742 8.97436C14.129 9.45823 14.4194 9.97436 14.7097 10.4582C15.0323 10.9421 15.2903 11.4905 15.5806 12.0389C15.3548 12.5873 15.0323 13.0711 14.7097 13.6195C14.3871 14.1679 14.0645 14.6518 13.7742 15.1679C13.1935 15.2002 12.6129 15.2002 11.9677 15.2002C11.3226 15.2002 10.7419 15.1679 10.1935 15.1679C9.83871 14.684 9.54839 14.1679 9.25806 13.6195C8.96774 13.0711 8.70968 12.6518 8.41935 12.1034ZM15.4516 14.0711C15.6452 13.7163 15.8065 13.3937 16 13.0389C16.2258 13.5873 16.4516 14.1679 16.6452 14.7486C16.0645 14.8776 15.4194 14.9744 14.7742 15.0711C15.0323 14.7486 15.2581 14.3937 15.4516 14.0711ZM16.0323 11.1034C15.8387 10.7485 15.6774 10.426 15.4839 10.0711C15.2903 9.71629 15.0645 9.42597 14.9032 9.13565C15.5484 9.23242 16.129 9.32919 16.6774 9.45823C16.4839 10.0066 16.2581 10.555 16.0323 11.1034ZM12 6.74855C12.4194 7.20016 12.7742 7.65177 13.129 8.13565C12.3548 8.10339 11.5806 8.10339 10.8065 8.13565C11.2258 7.61952 11.6452 7.1679 12 6.74855ZM7.48387 4.36146C8.12903 4.00663 9.6129 4.4905 11.0968 5.90984C11.1935 6.00661 11.2903 6.10339 11.4194 6.1679C10.8387 6.81306 10.2903 7.52274 9.74194 8.20016C8.87097 8.29694 7.96774 8.42597 7.12903 8.61952C7.09677 8.42597 7.03226 8.20016 7 8.03887C6.64516 6.13565 6.87097 4.7163 7.48387 4.36146ZM6.58064 14.6195C6.45161 14.5873 6.25806 14.5227 6.09677 14.4905C5.22581 14.2647 4.32258 13.8131 3.6129 13.2647C3.16129 12.9421 2.93548 12.555 2.83871 12.1034C2.83871 11.3937 4.09677 10.4905 5.87097 9.84532C6.09677 9.74855 6.32258 9.71629 6.54839 9.61952C6.80645 10.4905 7.12903 11.2969 7.48387 12.1034C7.16129 12.9098 6.80645 13.7163 6.58064 14.6195ZM11.0645 18.3937C10.4194 18.9744 9.67742 19.426 8.83871 19.7486C8.3871 19.9744 7.90323 19.9744 7.48387 19.7808C6.83871 19.426 6.6129 18.0711 6.93548 16.2002C6.96774 15.9744 7.03226 15.7486 7.06452 15.555C7.93548 15.7486 8.83871 15.8776 9.67742 15.9098C10.1613 16.6195 10.7742 17.3615 11.3548 18.0066C11.3226 18.2002 11.1935 18.2969 11.0645 18.3937ZM12.0323 17.4905C11.6129 17.0389 11.2581 16.5873 10.871 16.1034C11.2258 16.1034 11.5806 16.1356 12 16.1356C12.4194 16.1356 12.8065 16.1356 13.1613 16.1034C12.8065 16.5227 12.4516 16.9744 12.0323 17.4905ZM17.129 18.6195C17.0968 19.0711 16.871 19.555 16.4839 19.8453C15.8387 20.2002 14.5484 19.7485 13.129 18.4905C13 18.3615 12.8065 18.2324 12.6452 18.0389C13.2258 17.3937 13.7742 16.684 14.2581 15.9421C15.1613 15.9098 16.0323 15.7163 16.871 15.5227C16.9032 15.6518 16.9032 15.8453 16.9677 15.9744C17.1935 16.8776 17.1935 17.7808 17.129 18.6195ZM17.8387 14.4582C17.7419 14.4905 17.6129 14.4905 17.4839 14.555C17.2258 13.684 16.8387 12.8776 16.4839 12.0711C16.8387 11.2969 17.1613 10.4582 17.4194 9.61952C17.6452 9.65177 17.8387 9.74855 18 9.81306C19.8065 10.4582 21.0645 11.3615 21.0645 12.0711C21.0968 12.8131 19.7742 13.8131 17.8387 14.4582ZM12 13.8453C13 13.8453 13.7742 13.0389 13.7742 12.0711C13.7742 11.1034 12.9677 10.2969 12 10.2969C11.0645 10.2969 10.2258 11.1034 10.2258 12.0711C10.2258 13.0389 11 13.8453 12 13.8453Z" fill="#323544"/>
</svg>
