<svg width="24" height="24" viewBox="0 0 24 24" fill="none" xmlns="http://www.w3.org/2000/svg">
<path d="M21.6471 11.4023C21.5179 11.3053 21.324 11.3053 21.1948 11.3699C21.0655 11.4023 20.9686 11.4992 20.7747 11.5961C20.7747 11.4992 20.7747 11.4669 20.7747 11.3699C20.7747 8.91438 20.7747 6.49111 20.7747 4.03554C20.7747 3.55089 20.6778 3.09855 20.3224 2.67851C20.0962 2.3231 19.6762 2.12924 19.2885 2.03231C19.2562 2.03231 19.2562 2 19.1915 2C14.345 2 9.59541 2 4.74887 2C4.5227 2.06462 4.29652 2.16155 4.07035 2.29079C3.55339 2.61389 3.29491 3.06624 3.19798 3.64782C3.19798 3.84168 3.19798 4.00323 3.19798 4.19709C3.19798 6.58804 3.19798 9.01131 3.19798 11.4023C3.19798 11.4346 3.19798 11.4992 3.19798 11.6284C3.16567 11.5961 3.10105 11.5961 3.00412 11.5315C2.90719 11.4669 2.77795 11.4023 2.68102 11.4023C2.42253 11.3053 2.19636 11.4992 2.22867 11.8223C2.26098 12.0162 2.3256 12.1777 2.42253 12.2746C2.87488 12.8239 3.45646 13.3086 4.10266 13.7286C4.81349 14.1809 5.55663 14.601 6.33208 14.9564C6.36439 14.9887 6.36439 14.9887 6.42901 14.9887C6.3967 15.2472 6.29977 15.538 6.23515 15.7964C6.10591 16.5073 5.97667 17.2504 6.04129 17.9612C6.0736 18.8659 6.36439 19.7383 6.91366 20.5137C7.46294 21.2892 8.23838 21.7738 9.17537 21.9031C9.20769 21.9031 9.2723 21.9354 9.30462 21.9354C9.49848 21.9354 9.72465 21.9354 9.8862 21.9354C10.0801 21.9031 10.2416 21.8384 10.4355 21.8061C11.1463 21.58 11.6956 20.8691 11.6956 20.0937C11.7279 18.8336 11.7279 17.5412 11.7279 16.3457C11.7279 16.3134 11.7279 16.2165 11.7279 16.1195C11.9217 16.1519 12.051 16.2165 12.1802 16.2488C12.2125 16.2811 12.2125 16.3457 12.2125 16.378C12.2125 17.412 12.2125 18.5105 12.2448 19.609C12.2448 19.9645 12.2448 20.2876 12.3418 20.643C12.5679 21.4184 13.1495 21.8061 13.8927 21.9677C13.925 21.9677 13.9896 22 14.0219 22C14.2158 22 14.4419 22 14.6035 22C14.9589 21.9031 15.3143 21.8061 15.6374 21.6446C16.4452 21.2892 16.9944 20.6107 17.3499 19.8352C17.8022 18.8336 17.8991 17.7997 17.7699 16.7011C17.7376 16.2165 17.576 15.6995 17.5114 15.2149C17.5114 15.1826 17.4791 15.1179 17.4791 15.0856C17.7376 14.9564 18.0284 14.8594 18.2868 14.7302C19.2238 14.2779 20.1931 13.6963 20.9686 13.0178C21.1948 12.7916 21.4209 12.4685 21.6471 12.2423C21.6794 12.21 21.6794 12.1131 21.6794 12.0485C21.841 11.6607 21.7763 11.4992 21.6471 11.4023ZM19.7085 12.3069C18.933 12.6624 18.2222 12.9855 17.4468 13.1793C16.3159 13.4055 15.1851 13.5024 14.0542 13.4055C13.7957 13.3732 13.4726 13.3732 13.1818 13.4378C12.7295 13.4701 12.4064 13.7609 12.3741 14.2456C12.3741 14.2779 12.3418 14.2779 12.3418 14.3425C12.0833 14.1163 11.7925 13.8901 11.534 13.664C11.3078 13.4701 11.0817 13.4378 10.8232 13.4378C10.177 13.4378 9.49848 13.4701 8.88458 13.4701C7.33369 13.4378 5.94436 13.1147 4.5227 12.4362C4.49039 12.4039 4.42577 12.3393 4.42577 12.2423C4.42577 9.68982 4.42576 7.10501 4.45808 4.58481C4.45808 4.32633 4.49039 4.10016 4.58732 3.80937C4.68425 3.38934 5.00736 3.22779 5.36277 3.13086C5.58894 3.09855 5.84743 3.09855 6.0736 3.09855C10.1124 3.09855 14.1835 3.09855 18.2222 3.09855C18.5453 3.09855 18.8684 3.09855 19.1592 3.22779C19.5793 3.42165 19.7408 3.71244 19.8377 4.13247C19.87 4.35864 19.87 4.68174 19.87 4.90791C19.87 7.29887 19.87 9.72213 19.87 12.1131C19.87 12.1777 19.8377 12.21 19.7085 12.3069Z" fill="#323544"/>
<path d="M7.43104 8.94662C6.94639 9.59282 6.84946 10.336 7.20487 11.0791C7.65721 11.9838 8.43266 12.4038 9.33734 12.4361C9.91892 12.4038 10.4359 12.2423 10.8882 11.9838C12.0191 11.2083 12.116 9.59282 11.1144 8.62352C10.0159 7.58959 8.27111 7.71883 7.43104 8.94662Z" fill="#323544"/>
<path d="M16.4765 8.4618C15.3456 7.65405 13.7947 7.88022 13.0193 8.91415C12.5347 9.59266 12.4377 10.3681 12.7931 11.1435C13.2455 12.0482 14.0209 12.4036 14.9256 12.4683C15.6041 12.436 16.1857 12.2421 16.638 11.8221C17.672 10.8851 17.575 9.20494 16.4765 8.4618Z" fill="#323544"/>
</svg>
