<svg width="24" height="24" viewBox="0 0 24 24" fill="none" xmlns="http://www.w3.org/2000/svg">
<path fill-rule="evenodd" clip-rule="evenodd" d="M4.26534 3.25728C5.54121 1.98143 7.69866 2.37266 8.4453 4.01527L10.0666 7.58207C10.4662 8.46115 10.3393 9.47941 9.7603 10.2298C9.57069 10.4755 9.33228 10.6266 9.14342 10.7234L6.34328 12.1589C7.02276 13.246 7.83521 14.2739 8.78072 15.2194C9.72626 16.1649 10.7541 16.9774 11.8412 17.6569L13.2768 14.8567C13.3736 14.6679 13.5247 14.4295 13.7704 14.2399C14.5208 13.6608 15.539 13.534 16.4181 13.9336L19.9849 15.5549C21.6275 16.3015 22.0187 18.459 20.7429 19.7348L19.6747 20.803C19.1484 21.3293 18.3886 21.603 17.6192 21.4643C13.993 20.8106 10.5219 19.0819 7.72006 16.28C4.91826 13.4782 3.18949 10.0071 2.53579 6.38098C2.39708 5.61151 2.6708 4.85172 3.19715 4.32541C3.19715 4.32541 3.19715 4.32541 3.19715 4.32541M4.26534 3.25728C4.26533 3.25729 4.26534 3.25728 4.26534 3.25728V3.25728ZM13.148 18.3959C14.656 19.1633 16.2534 19.694 17.8853 19.9881C18.1347 20.0331 18.4082 19.9481 18.614 19.7424L19.6822 18.6742C20.2175 18.1389 20.0534 17.2337 19.3642 16.9204L15.7974 15.2991C15.4288 15.1316 15.0014 15.1846 14.6867 15.4274C14.6868 15.4274 14.6869 15.4273 14.6867 15.4274C14.6855 15.4284 14.6781 15.4349 14.6657 15.4513C14.6513 15.4704 14.6332 15.499 14.6116 15.5411L13.148 18.3959ZM5.60427 10.8522L8.4591 9.38858C8.50118 9.367 8.52978 9.34884 8.54888 9.33445C8.56744 9.32046 8.57309 9.31298 8.57276 9.31341C8.81555 8.99879 8.86856 8.57137 8.70102 8.20278L7.07975 4.63597C6.76648 3.94679 5.86129 3.78265 5.32598 4.31796L4.25778 5.3861C4.05198 5.59188 3.96702 5.86538 4.01199 6.11487C4.30617 7.74671 4.83685 9.34411 5.60427 10.8522Z" fill="#323544"/>
<path d="M3.19715 4.32541L4.26534 3.25728L3.19715 4.32541Z" fill="#323544"/>
</svg>
