<svg width="24" height="24" viewBox="0 0 24 24" fill="none" xmlns="http://www.w3.org/2000/svg">
<path d="M6.21967 7.28033C5.92678 6.98744 5.92678 6.51256 6.21967 6.21967C6.51256 5.92678 6.98744 5.92678 7.28033 6.21967L11.999 10.9384L16.7176 6.2198C17.0105 5.92691 17.4854 5.92691 17.7782 6.2198C18.0711 6.51269 18.0711 6.98757 17.7782 7.28046L13.0597 11.999L17.7782 16.7176C18.0711 17.0105 18.0711 17.4854 17.7782 17.7782C17.4854 18.0711 17.0105 18.0711 16.7176 17.7782L11.999 13.0597L7.28033 17.7784C6.98744 18.0713 6.51256 18.0713 6.21967 17.7784C5.92678 17.4855 5.92678 17.0106 6.21967 16.7177L10.9384 11.999L6.21967 7.28033Z" fill="#323544"/>
</svg>
