<svg width="24" height="24" viewBox="0 0 24 24" fill="none" xmlns="http://www.w3.org/2000/svg">
<path d="M21.5806 7.19355C21.3548 6.32258 20.6774 5.64516 19.8065 5.41935C18.2581 5 12 5 12 5C12 5 5.74194 5 4.19355 5.41935C3.32258 5.64516 2.64516 6.32258 2.41935 7.19355C2 8.77419 2 12 2 12C2 12 2 15.2581 2.41935 16.8065C2.64516 17.6774 3.32258 18.3548 4.19355 18.5806C5.74194 19 12 19 12 19C12 19 18.2581 19 19.8065 18.5806C20.6774 18.3548 21.3548 17.6774 21.5806 16.8065C22 15.2581 22 12 22 12C22 12 22 8.77419 21.5806 7.19355ZM10 15V9L15.1935 12L10 15Z" fill="#323544"/>
</svg>
