<?xml version="1.0" encoding="utf-8"?>
<!-- Generator: Adobe Illustrator 22.0.0, SVG Export Plug-In . SVG Version: 6.00 Build 0)  -->
<svg version="1.1" id="lni_lni-bar-chart" xmlns="http://www.w3.org/2000/svg" xmlns:xlink="http://www.w3.org/1999/xlink" x="0px"
	 y="0px" viewBox="0 0 64 64" style="enable-background:new 0 0 64 64;" xml:space="preserve">
<path d="M60,55.2h-5.4V35.5c0-3.2-2.6-5.7-5.7-5.7h-5.8c-3.2,0-5.7,2.6-5.7,5.7v19.7h-6V20.4c0-3.2-2.6-5.7-5.7-5.7h-5.8
	c-3.2,0-5.7,2.6-5.7,5.7v34.8H6.3V6.5c0-1.2-1-2.3-2.3-2.3s-2.3,1-2.3,2.3v48.9c0,2.3,1.9,4.3,4.3,4.3h54c1.2,0,2.3-1,2.3-2.3
	S61.2,55.2,60,55.2z M18.7,55.2V20.4c0-0.7,0.6-1.2,1.2-1.2h5.8c0.7,0,1.2,0.6,1.2,1.2v34.8H18.7z M41.9,55.2V35.5
	c0-0.7,0.6-1.2,1.2-1.2h5.8c0.7,0,1.2,0.6,1.2,1.2v19.7H41.9z"/>
</svg>
