<?xml version="1.0" encoding="utf-8"?>
<!-- Generator: Adobe Illustrator 22.0.0, SVG Export Plug-In . SVG Version: 6.00 Build 0)  -->
<svg version="1.1" id="lni_lni-graph" xmlns="http://www.w3.org/2000/svg" xmlns:xlink="http://www.w3.org/1999/xlink" x="0px"
	 y="0px" viewBox="0 0 64 64" style="enable-background:new 0 0 64 64;" xml:space="preserve">
<g>
	<path d="M46.3,12.9c-3.6,0-6.5,2.9-6.5,6.5c0,0.2,0,0.5,0,0.7l-2.4,1.6l-2.7-0.9c-0.8-2.7-3.3-4.6-6.2-4.6c-3.6,0-6.5,2.9-6.5,6.5
		c0,0.6,0.1,1.1,0.2,1.6c-0.7,0.6-1.6,1.2-2.3,1.8c-1.1-0.7-2.3-1.2-3.7-1.2c-3.6,0-6.5,2.9-6.5,6.5s2.9,6.5,6.5,6.5
		s6.5-2.9,6.5-6.5c0-0.6-0.1-1.1-0.2-1.6c0.7-0.6,1.6-1.2,2.3-1.8c1.1,0.7,2.3,1.2,3.7,1.2c2.6,0,4.8-1.5,5.9-3.7l2,0.7
		c0.4,0.1,0.7,0.2,1.1,0.2c0.7,0,1.4-0.2,2-0.6l2.3-1.5c1.2,1.1,2.7,1.7,4.4,1.7c3.6,0,6.5-2.9,6.5-6.5S49.9,12.9,46.3,12.9z
		 M16.2,33.4c-1.1,0-2-0.9-2-2s0.9-2,2-2s2,0.9,2,2S17.3,33.4,16.2,33.4z M28.5,24.6c-1.1,0-2-0.9-2-2s0.9-2,2-2s2,0.9,2,2
		S29.6,24.6,28.5,24.6z M46.3,21.4c-1.1,0-2-0.9-2-2s0.9-2,2-2c1.1,0,2,0.9,2,2S47.4,21.4,46.3,21.4z"/>
	<path d="M57,5.9H7c-3.4,0-6.3,2.8-6.3,6.3v26.4c0,3.4,2.8,6.3,6.3,6.3h22.8v8.8H18.8c-1.2,0-2.3,1-2.3,2.3s1,2.3,2.3,2.3h26.4
		c1.2,0,2.3-1,2.3-2.3s-1-2.3-2.3-2.3H34.3v-8.8H57c3.4,0,6.3-2.8,6.3-6.3V12.1C63.3,8.7,60.4,5.9,57,5.9z M58.8,38.5
		c0,1-0.8,1.8-1.8,1.8H7c-1,0-1.8-0.8-1.8-1.8V12.1c0-1,0.8-1.8,1.8-1.8h50c1,0,1.8,0.8,1.8,1.8V38.5z"/>
</g>
</svg>
