<?xml version="1.0" encoding="utf-8"?>
<!-- Generator: Adobe Illustrator 22.0.0, SVG Export Plug-In . SVG Version: 6.00 Build 0)  -->
<svg version="1.1" id="lni_lni-keyword-research" xmlns="http://www.w3.org/2000/svg" xmlns:xlink="http://www.w3.org/1999/xlink"
	 x="0px" y="0px" viewBox="0 0 64 64" style="enable-background:new 0 0 64 64;" xml:space="preserve">
<g>
	<path d="M60.7,50.6L47.6,37.5c-1.9-1.9-5-2-7.1-0.3l-5.1-5.1c5.8-7.4,5.3-18.1-1.5-24.9c-7.3-7.3-19.3-7.3-26.6,0s-7.3,19.3,0,26.6
		c3.7,3.7,8.5,5.5,13.3,5.5c4.1,0,8.2-1.3,11.6-4l5.1,5.1c-1.8,2.1-1.7,5.2,0.3,7.1l13.1,13.1c1,1,2.4,1.5,3.7,1.5
		c1.3,0,2.7-0.5,3.7-1.5l2.6-2.6C62.7,56,62.7,52.7,60.7,50.6z M10.4,30.7c-5.6-5.6-5.6-14.7,0-20.3c2.8-2.8,6.5-4.2,10.1-4.2
		s7.3,1.4,10.1,4.2c5.6,5.6,5.6,14.7,0,20.3C25.1,36.3,16,36.3,10.4,30.7z M57.5,54.9l-2.6,2.6c-0.3,0.3-0.8,0.3-1.1,0L40.7,44.4
		c-0.3-0.3-0.3-0.8,0-1.1l2.6-2.6c0.1-0.1,0.3-0.2,0.5-0.2s0.4,0.1,0.5,0.2l13.1,13.1C57.8,54.1,57.8,54.6,57.5,54.9z"/>
	<path d="M15.6,19.2h4.9c1.2,0,2.3-1,2.3-2.3s-1-2.3-2.3-2.3h-4.9c-1.2,0-2.3,1-2.3,2.3S14.3,19.2,15.6,19.2z"/>
	<path d="M25.8,22.1H15.6c-1.2,0-2.3,1-2.3,2.3s1,2.3,2.3,2.3h10.2c1.2,0,2.3-1,2.3-2.3S27,22.1,25.8,22.1z"/>
</g>
</svg>
