<?xml version="1.0" encoding="utf-8"?>
<!-- Generator: Adobe Illustrator 22.0.0, SVG Export Plug-In . SVG Version: 6.00 Build 0)  -->
<svg version="1.1" id="lni_lni-network" xmlns="http://www.w3.org/2000/svg" xmlns:xlink="http://www.w3.org/1999/xlink" x="0px"
	 y="0px" viewBox="0 0 64 64" style="enable-background:new 0 0 64 64;" xml:space="preserve">
<g>
	<path d="M31.9,18.4c4.2,0,7.5-3.4,7.5-7.5s-3.4-7.5-7.5-7.5s-7.5,3.4-7.5,7.5S27.7,18.4,31.9,18.4z M31.9,7.8c1.7,0,3,1.4,3,3
		s-1.4,3-3,3s-3-1.4-3-3S30.2,7.8,31.9,7.8z"/>
	<path d="M23.6,28.5c2.1-2.3,5.2-3.7,8.4-3.7c3.2,0,6.3,1.3,8.4,3.7c0.4,0.5,1,0.7,1.7,0.7c0.5,0,1.1-0.2,1.5-0.6
		c0.9-0.8,1-2.3,0.1-3.2c-3-3.2-7.3-5.1-11.7-5.1s-8.7,1.9-11.7,5.1c-0.8,0.9-0.8,2.3,0.1,3.2C21.3,29.5,22.7,29.4,23.6,28.5z"/>
	<path d="M13.4,50.1c4.2,0,7.5-3.4,7.5-7.5c0-4.2-3.4-7.5-7.5-7.5s-7.5,3.4-7.5,7.5C5.8,46.8,9.2,50.1,13.4,50.1z M13.4,39.5
		c1.7,0,3,1.4,3,3c0,1.7-1.4,3-3,3s-3-1.4-3-3C10.3,40.9,11.7,39.5,13.4,39.5z"/>
	<path d="M13.1,51.8c-4.4,0-8.7,1.9-11.7,5.1c-0.8,0.9-0.8,2.3,0.1,3.2C2.4,61,3.8,60.9,4.7,60c2.1-2.3,5.2-3.7,8.4-3.7
		c3.2,0,6.3,1.3,8.4,3.7c0.4,0.5,1,0.7,1.7,0.7c0.5,0,1.1-0.2,1.5-0.6c0.9-0.8,1-2.3,0.1-3.2C21.8,53.7,17.5,51.8,13.1,51.8z"/>
	<path d="M50.4,50.1c4.2,0,7.5-3.4,7.5-7.5c0-4.2-3.4-7.5-7.5-7.5c-4.2,0-7.5,3.4-7.5,7.5C42.9,46.8,46.3,50.1,50.4,50.1z
		 M50.4,39.5c1.7,0,3,1.4,3,3c0,1.7-1.4,3-3,3c-1.7,0-3-1.4-3-3C47.4,40.9,48.8,39.5,50.4,39.5z"/>
	<path d="M62.7,57c-3-3.2-7.3-5.1-11.7-5.1s-8.7,1.9-11.7,5.1c-0.8,0.9-0.8,2.3,0.1,3.2c0.9,0.8,2.3,0.8,3.2-0.1
		c2.1-2.3,5.2-3.7,8.4-3.7c3.2,0,6.3,1.3,8.4,3.7c0.4,0.5,1,0.7,1.7,0.7c0.5,0,1.1-0.2,1.5-0.6C63.4,59.3,63.5,57.9,62.7,57z"/>
	<path d="M39.2,40.9c0.5-1.1,0-2.5-1.1-3l-3.9-1.8V32c0-1.2-1-2.3-2.2-2.3s-2.3,1-2.3,2.3v4l-4,1.9c-1.1,0.5-1.6,1.9-1.1,3
		c0.5,1.1,1.9,1.6,3,1.1l4.2-2l4.5,2c0.3,0.1,0.6,0.2,0.9,0.2C38,42.2,38.8,41.7,39.2,40.9z"/>
</g>
</svg>
