<?xml version="1.0" encoding="utf-8"?>
<!-- Generator: Adobe Illustrator 22.0.0, SVG Export Plug-In . SVG Version: 6.00 Build 0)  -->
<svg version="1.1" id="lni_lni-seo" xmlns="http://www.w3.org/2000/svg" xmlns:xlink="http://www.w3.org/1999/xlink" x="0px"
	 y="0px" viewBox="0 0 64 64" style="enable-background:new 0 0 64 64;" xml:space="preserve">
<g>
	<path d="M57,6.6H7c-3.4,0-6.3,2.8-6.3,6.3v26.4c0,3.4,2.8,6.3,6.3,6.3h22.8v7.4H18.8c-1.2,0-2.3,1-2.3,2.3s1,2.3,2.3,2.3h26.4
		c1.2,0,2.3-1,2.3-2.3s-1-2.3-2.3-2.3H34.3v-7.4H57c3.4,0,6.3-2.8,6.3-6.3V12.8C63.3,9.4,60.4,6.6,57,6.6z M58.8,39.2
		c0,1-0.8,1.8-1.8,1.8H7c-1,0-1.8-0.8-1.8-1.8V12.8c0-1,0.8-1.8,1.8-1.8h50c1,0,1.8,0.8,1.8,1.8V39.2z"/>
	<path d="M16.1,20.4h4c1.2,0,2.3-1,2.3-2.3s-1-2.3-2.3-2.3h-4c-3.4,0-6.2,2.8-6.2,6.2s2.8,6.2,6.2,6.2c0.9,0,1.7,0.8,1.7,1.7
		c0,0.9-0.8,1.7-1.7,1.7h-4c-1.2,0-2.3,1-2.3,2.3c0,1.2,1,2.3,2.3,2.3h4c3.4,0,6.2-2.8,6.2-6.2c0-3.4-2.8-6.2-6.2-6.2
		c-0.9,0-1.7-0.8-1.7-1.7S15.2,20.4,16.1,20.4z"/>
	<path d="M31.9,20.4h4c1.2,0,2.3-1,2.3-2.3s-1-2.3-2.3-2.3h-4c-3.4,0-6.2,2.8-6.2,6.2V30c0,3.4,2.8,6.2,6.2,6.2h4
		c1.2,0,2.3-1,2.3-2.3c0-1.2-1-2.3-2.3-2.3h-4c-0.9,0-1.7-0.8-1.7-1.7v-1.7h5.7c1.2,0,2.3-1,2.3-2.3s-1-2.3-2.3-2.3h-5.7v-1.7
		C30.2,21.1,31,20.4,31.9,20.4z"/>
	<path d="M48.9,15.9h-2.3c-2.8,0-5.1,2.3-5.1,5.1v10.2c0,2.8,2.3,5.1,5.1,5.1h2.3c2.8,0,5.1-2.3,5.1-5.1V20.9
		C53.9,18.1,51.7,15.9,48.9,15.9z M49.4,31.1c0,0.3-0.3,0.6-0.6,0.6h-2.3c-0.3,0-0.6-0.3-0.6-0.6V20.9c0-0.3,0.3-0.6,0.6-0.6h2.3
		c0.3,0,0.6,0.3,0.6,0.6V31.1z"/>
</g>
</svg>
