<?xml version="1.0" encoding="utf-8"?>
<!-- Generator: Adobe Illustrator 22.0.0, SVG Export Plug-In . SVG Version: 6.00 Build 0)  -->
<svg version="1.1" id="lni_lni-target-customer" xmlns="http://www.w3.org/2000/svg" xmlns:xlink="http://www.w3.org/1999/xlink"
	 x="0px" y="0px" viewBox="0 0 64 64" style="enable-background:new 0 0 64 64;" xml:space="preserve">
<g>
	<path d="M60,29.8h-5.9C53,19.3,44.7,11,34.3,9.9V4c0-1.2-1-2.3-2.3-2.3c-1.2,0-2.3,1-2.3,2.3v5.9C19.3,11,11,19.3,9.9,29.8H4
		c-1.2,0-2.3,1-2.3,2.3c0,1.2,1,2.3,2.3,2.3h5.9c1,10.6,9.4,19,19.9,20.1V60c0,1.2,1,2.3,2.3,2.3c1.2,0,2.3-1,2.3-2.3v-5.6
		c10.5-1.1,18.9-9.5,19.9-20.1H60c1.2,0,2.3-1,2.3-2.3C62.3,30.8,61.2,29.8,60,29.8z M34.2,49.8c0-1.2-1-2.2-2.2-2.2
		c-1.2,0-2.2,1-2.2,2.2c-8-1-14.4-7.5-15.3-15.6h2.3c1.2,0,2.3-1,2.3-2.3c0-1.2-1-2.3-2.3-2.3h-2.3c1.1-8,7.4-14.3,15.3-15.3
		c0.1,1.1,1.1,2,2.2,2c1.1,0,2.1-0.9,2.2-2c8,1,14.3,7.3,15.3,15.3c-1.1,0.1-2,1.1-2,2.2c0,1.2,0.9,2.1,2,2.2
		C48.7,42.3,42.3,48.8,34.2,49.8z"/>
	<path d="M38.1,36.1c1.3-1.4,2.1-3.3,2.1-5.4c0-4.5-3.7-8.2-8.2-8.2c-4.5,0-8.2,3.7-8.2,8.2c0,2.1,0.8,4,2.1,5.4
		c-1.6,0.7-3,1.6-4.3,2.7c-0.9,0.8-1,2.2-0.2,3.2c0.4,0.5,1.1,0.8,1.7,0.8c0.5,0,1.1-0.2,1.5-0.6c2.1-1.8,4.7-2.9,7.4-2.9
		c2.8,0,5.4,1,7.4,2.8c0.9,0.8,2.3,0.8,3.2-0.2c0.8-0.9,0.8-2.3-0.2-3.2C41.1,37.7,39.7,36.8,38.1,36.1z M32,27c2,0,3.7,1.7,3.7,3.7
		c0,2-1.7,3.7-3.7,3.7c-2,0-3.7-1.7-3.7-3.7C28.3,28.7,30,27,32,27z"/>
</g>
</svg>
