<?xml version="1.0" encoding="utf-8"?>
<!-- Generator: Adobe Illustrator 22.0.0, SVG Export Plug-In . SVG Version: 6.00 Build 0)  -->
<svg version="1.1" id="lni_lni-backward" xmlns="http://www.w3.org/2000/svg" xmlns:xlink="http://www.w3.org/1999/xlink" x="0px"
	 y="0px" viewBox="0 0 64 64" style="enable-background:new 0 0 64 64;" xml:space="preserve">
<path d="M54.6,4.2c-2.1-1.2-4.8-1.1-6.8,0.3L10.4,28.9V4c0-1.2-1-2.3-2.3-2.3S5.9,2.8,5.9,4v56c0,1.2,1,2.3,2.3,2.3s2.3-1,2.3-2.3
	V35.1l37.4,24.4c1.1,0.7,2.4,1.1,3.6,1.1c1.1,0,2.2-0.3,3.2-0.8c2.1-1.2,3.5-3.4,3.5-5.8V10C58.1,7.6,56.7,5.4,54.6,4.2z M53.6,54
	c0,1.1-0.8,1.6-1.1,1.8c-0.7,0.4-1.5,0.3-2.2-0.1L13.9,32L50.3,8.3c0.7-0.4,1.5-0.5,2.2-0.1c0.3,0.2,1.1,0.7,1.1,1.8V54z"/>
</svg>
