<?xml version="1.0" encoding="utf-8"?>
<!-- Generator: Adobe Illustrator 22.0.0, SVG Export Plug-In . SVG Version: 6.00 Build 0)  -->
<svg version="1.1" id="lni_lni-forward" xmlns="http://www.w3.org/2000/svg" xmlns:xlink="http://www.w3.org/1999/xlink" x="0px"
	 y="0px" viewBox="0 0 64 64" style="enable-background:new 0 0 64 64;" xml:space="preserve">
<path d="M58.1,4c0-1.2-1-2.3-2.3-2.3s-2.3,1-2.3,2.3v24.9L16.2,4.5c-2-1.3-4.6-1.4-6.8-0.3C7.3,5.4,5.9,7.6,5.9,10v44
	c0,2.4,1.3,4.6,3.5,5.8c1,0.5,2.1,0.8,3.2,0.8c1.3,0,2.5-0.4,3.6-1.1l37.4-24.4V60c0,1.2,1,2.3,2.3,2.3s2.3-1,2.3-2.3V4z M13.7,55.7
	c-0.7,0.4-1.5,0.5-2.2,0.1c-0.3-0.2-1.1-0.7-1.1-1.8V10c0-1.1,0.8-1.6,1.1-1.8c0.3-0.2,0.7-0.3,1-0.3c0.4,0,0.8,0.1,1.2,0.4L50.1,32
	L13.7,55.7z"/>
</svg>
