<?xml version="1.0" encoding="utf-8"?>
<!-- Generator: Adobe Illustrator 22.0.0, SVG Export Plug-In . SVG Version: 6.00 Build 0)  -->
<svg version="1.1" id="lni_lni-frame-expand" xmlns="http://www.w3.org/2000/svg" xmlns:xlink="http://www.w3.org/1999/xlink"
	 x="0px" y="0px" viewBox="0 0 64 64" style="enable-background:new 0 0 64 64;" xml:space="preserve">
<g>
	<path d="M19.3,1.8H7.9c-3.4,0-6.1,2.7-6.1,6.1v11.4c0,1.2,1,2.3,2.3,2.3s2.3-1,2.3-2.3V7.9C6.3,7,7,6.3,7.9,6.3h11.4
		c1.2,0,2.3-1,2.3-2.3S20.5,1.8,19.3,1.8z"/>
	<path d="M56.1,1.8H44.7c-1.2,0-2.3,1-2.3,2.3s1,2.3,2.3,2.3h11.4c0.9,0,1.6,0.7,1.6,1.6v11.4c0,1.2,1,2.3,2.3,2.3s2.3-1,2.3-2.3
		V7.9C62.3,4.5,59.5,1.8,56.1,1.8z"/>
	<path d="M60,42.5c-1.2,0-2.3,1-2.3,2.3v11.4c0,0.9-0.7,1.6-1.6,1.6H44.7c-1.2,0-2.3,1-2.3,2.3s1,2.3,2.3,2.3h11.4
		c3.4,0,6.1-2.7,6.1-6.1V44.7C62.3,43.5,61.2,42.5,60,42.5z"/>
	<path d="M19.3,57.8H7.9c-0.9,0-1.6-0.7-1.6-1.6V44.7c0-1.2-1-2.3-2.3-2.3s-2.3,1-2.3,2.3v11.4c0,3.4,2.7,6.1,6.1,6.1h11.4
		c1.2,0,2.3-1,2.3-2.3S20.5,57.8,19.3,57.8z"/>
</g>
</svg>
