<?xml version="1.0" encoding="utf-8"?>
<!-- Generator: Adobe Illustrator 22.0.0, SVG Export Plug-In . SVG Version: 6.00 Build 0)  -->
<svg version="1.1" id="lni_lni-full-screen" xmlns="http://www.w3.org/2000/svg" xmlns:xlink="http://www.w3.org/1999/xlink"
	 x="0px" y="0px" viewBox="0 0 64 64" style="enable-background:new 0 0 64 64;" xml:space="preserve">
<path d="M60,21.5c1.2,0,2.3-1,2.3-2.3V5c0-1.8-1.4-3.2-3.2-3.2H44.7c-1.2,0-2.3,1-2.3,2.3s1,2.3,2.3,2.3h9.8L32,28.8L9.4,6.3h9.8
	c1.2,0,2.3-1,2.3-2.3s-1-2.3-2.3-2.3H5C3.2,1.8,1.8,3.2,1.8,5v14.3c0,1.2,1,2.3,2.3,2.3s2.3-1,2.3-2.3V9.4L28.8,32L6.3,54.6v-9.8
	c0-1.2-1-2.3-2.3-2.3s-2.3,1-2.3,2.3V59c0,1.8,1.4,3.2,3.2,3.2h14.3c1.2,0,2.3-1,2.3-2.3s-1-2.3-2.3-2.3H9.4L32,35.2l22.6,22.6h-9.8
	c-1.2,0-2.3,1-2.3,2.3s1,2.3,2.3,2.3H59c1.8,0,3.2-1.4,3.2-3.2V44.7c0-1.2-1-2.3-2.3-2.3s-2.3,1-2.3,2.3v9.8L35.2,32L57.8,9.4v9.8
	C57.8,20.5,58.8,21.5,60,21.5z"/>
</svg>
