<?xml version="1.0" encoding="utf-8"?>
<!-- Generator: Adobe Illustrator 22.0.0, SVG Export Plug-In . SVG Version: 6.00 Build 0)  -->
<svg version="1.1" id="lni_lni-gallery" xmlns="http://www.w3.org/2000/svg" xmlns:xlink="http://www.w3.org/1999/xlink" x="0px"
	 y="0px" viewBox="0 0 64 64" style="enable-background:new 0 0 64 64;" xml:space="preserve">
<g>
	<path d="M23.1,41c3.4,0,6.2-2.8,6.2-6.1c0-3.4-2.8-6.1-6.2-6.1c-3.4,0-6.2,2.8-6.2,6.1C17,38.3,19.7,41,23.1,41z M23.1,33.2
		c0.9,0,1.7,0.7,1.7,1.6c0,0.9-0.7,1.6-1.7,1.6c-0.9,0-1.7-0.7-1.7-1.6C21.5,34,22.2,33.2,23.1,33.2z"/>
	<path d="M49.2,21.4c3.4,0,6.2-2.8,6.2-6.1s-2.8-6.1-6.2-6.1S43,11.9,43,15.3S45.8,21.4,49.2,21.4z M49.2,13.7
		c0.9,0,1.7,0.7,1.7,1.6c0,0.9-0.7,1.6-1.7,1.6s-1.7-0.7-1.7-1.6C47.5,14.4,48.3,13.7,49.2,13.7z"/>
	<path d="M63.3,7.2C63.3,3.8,60.4,1,57,1H33.5c-3.4,0-6.2,2.8-6.2,6.3v14.3H7.5c-3.4,0-6.3,2.8-6.3,6.3v29C1.2,60.2,4,63,7.5,63H31
		c3.4,0,6.3-2.8,6.3-6.3V42.5H57c3.4,0,6.3-2.8,6.3-6.3V7.2z M33.5,5.5H57c1,0,1.8,0.8,1.8,1.8v23.2l-7.9-5.5
		c-0.9-0.6-2.2-0.5-2.9,0.3L43.6,30l-6.7-5c-0.2-0.1-0.4-0.2-0.5-0.3c-1-1.7-2.7-2.8-4.6-3.1V7.2C31.7,6.3,32.5,5.5,33.5,5.5z
		 M7.5,26H31c1,0,1.8,0.8,1.8,1.8V48l-5.8-4.1c-0.9-0.6-2.2-0.5-2.9,0.3L19.6,49l-6.7-5c-0.8-0.6-2-0.6-2.8,0.1l-4.4,3.7v-20
		C5.7,26.8,6.5,26,7.5,26z M31.9,58.3l-8.7-6.6l2.7-3l6.8,4.7v3.3C32.7,57.4,32.4,58,31.9,58.3z M5.7,56.8v-3.1l5.9-5l13.1,9.9H7.5
		C6.5,58.5,5.7,57.7,5.7,56.8z M37.2,30.8l9.5,7.2h-9.5V30.8z M57,38h-2.8l-7-5.3l2.7-3l8.8,6.2v0.3C58.8,37.2,58,38,57,38z"/>
</g>
</svg>
