<?xml version="1.0" encoding="utf-8"?>
<!-- Generator: Adobe Illustrator 22.0.0, SVG Export Plug-In . SVG Version: 6.00 Build 0)  -->
<svg version="1.1" id="lni_lni-pause" xmlns="http://www.w3.org/2000/svg" xmlns:xlink="http://www.w3.org/1999/xlink" x="0px"
	 y="0px" viewBox="0 0 64 64" style="enable-background:new 0 0 64 64;" xml:space="preserve">
<g>
	<g>
		<path d="M20.5,58H10c-3.4,0-6.3-2.8-6.3-6.3V12.3C3.8,8.8,6.6,6,10,6h10.5c3.4,0,6.3,2.8,6.3,6.3v39.5C26.7,55.2,23.9,58,20.5,58z
			 M10,10.5c-1,0-1.8,0.8-1.8,1.8v39.5c0,1,0.8,1.8,1.8,1.8h10.5c1,0,1.8-0.8,1.8-1.8V12.3c0-1-0.8-1.8-1.8-1.8H10z"/>
	</g>
	<g>
		<path d="M54,58H43.5c-3.4,0-6.3-2.8-6.3-6.3V12.3c0-3.4,2.8-6.3,6.3-6.3H54c3.4,0,6.3,2.8,6.3,6.3v39.5C60.3,55.2,57.4,58,54,58z
			 M43.5,10.5c-1,0-1.8,0.8-1.8,1.8v39.5c0,1,0.8,1.8,1.8,1.8H54c1,0,1.8-0.8,1.8-1.8V12.3c0-1-0.8-1.8-1.8-1.8H43.5z"/>
	</g>
</g>
</svg>
