<?xml version="1.0" encoding="utf-8"?>
<!-- Generator: Adobe Illustrator 22.0.0, SVG Export Plug-In . SVG Version: 6.00 Build 0)  -->
<svg version="1.1" id="lni_lni-play" xmlns="http://www.w3.org/2000/svg" xmlns:xlink="http://www.w3.org/1999/xlink" x="0px"
	 y="0px" viewBox="0 0 64 64" style="enable-background:new 0 0 64 64;" xml:space="preserve">
<g>
	<path d="M9.7,62.3c-0.7,0-1.5-0.2-2.1-0.6c-1.4-0.8-2.2-2.1-2.2-3.7V6c0-1.5,0.8-2.9,2.2-3.7c1.4-0.8,3-0.7,4.4,0.1l44.8,26.1
		c1.3,0.8,2,2.1,2,3.6c0,1.4-0.7,2.8-2,3.5L11.9,61.6C11.2,62,10.4,62.3,9.7,62.3z M9.6,57.8C9.6,57.8,9.6,57.8,9.6,57.8L9.6,57.8z
		 M9.8,6.4v51.2l44-25.6L9.8,6.4z"/>
</g>
</svg>
