<?xml version="1.0" encoding="utf-8"?>
<!-- Generator: Adobe Illustrator 22.0.0, SVG Export Plug-In . SVG Version: 6.00 Build 0)  -->
<svg version="1.1" id="lni_lni-shuffle" xmlns="http://www.w3.org/2000/svg" xmlns:xlink="http://www.w3.org/1999/xlink" x="0px"
	 y="0px" viewBox="0 0 64 64" style="enable-background:new 0 0 64 64;" xml:space="preserve">
<path d="M61.4,45.1l-7.9-8.2c-0.9-0.9-2.3-0.9-3.2-0.1c-0.9,0.9-0.9,2.3-0.1,3.2l4.9,5H44.7L34.3,32l10.4-13.1h10.3l-4.9,5
	c-0.9,0.9-0.8,2.3,0.1,3.2c0.4,0.4,1,0.6,1.6,0.6c0.6,0,1.2-0.2,1.6-0.7l7.9-8.2c1.2-1.2,1.2-3.2,0-4.5l-7.9-8.2
	c-0.9-0.9-2.3-0.9-3.2-0.1c-0.9,0.9-0.9,2.3-0.1,3.2l4.9,5H44.1c-1,0-1.9,0.4-2.5,1.2L31.4,28.4L21.2,15.6c-0.6-0.8-1.5-1.2-2.5-1.2
	H4c-1.2,0-2.3,1-2.3,2.3s1,2.3,2.3,2.3h14.1L28.6,32L18.1,45.1H4c-1.2,0-2.3,1-2.3,2.3s1,2.3,2.3,2.3h14.7c1,0,1.9-0.4,2.5-1.2
	l10.2-12.7l10.2,12.7c0.6,0.8,1.5,1.2,2.5,1.2h10.9l-4.9,5c-0.9,0.9-0.8,2.3,0.1,3.2c0.4,0.4,1,0.6,1.6,0.6c0.6,0,1.2-0.2,1.6-0.7
	l7.9-8.2C62.5,48.3,62.5,46.3,61.4,45.1z"/>
</svg>
