<?xml version="1.0" encoding="utf-8"?>
<!-- Generator: Adobe Illustrator 22.0.0, SVG Export Plug-In . SVG Version: 6.00 Build 0)  -->
<svg version="1.1" id="lni_lni-stop" xmlns="http://www.w3.org/2000/svg" xmlns:xlink="http://www.w3.org/1999/xlink" x="0px"
	 y="0px" viewBox="0 0 64 64" style="enable-background:new 0 0 64 64;" xml:space="preserve">
<g>
	<g>
		<path d="M56,62.3H8c-3.4,0-6.3-2.8-6.3-6.3V8c0-3.4,2.8-6.3,6.3-6.3h48c3.4,0,6.3,2.8,6.3,6.3v48C62.3,59.4,59.4,62.3,56,62.3z
			 M8,6.3C7,6.3,6.3,7,6.3,8v48c0,1,0.8,1.8,1.8,1.8h48c1,0,1.8-0.8,1.8-1.8V8c0-1-0.8-1.8-1.8-1.8H8z"/>
	</g>
</g>
</svg>
