<?xml version="1.0" encoding="utf-8"?>
<!-- Generator: Adobe Illustrator 22.0.0, SVG Export Plug-In . SVG Version: 6.00 Build 0)  -->
<svg version="1.1" id="lni_lni-video" xmlns="http://www.w3.org/2000/svg" xmlns:xlink="http://www.w3.org/1999/xlink" x="0px"
	 y="0px" viewBox="0 0 64 64" style="enable-background:new 0 0 64 64;" xml:space="preserve">
<path d="M60.7,27.7c-1-0.8-2.3-1.1-3.6-0.8L47.6,29c-0.3-3.1-3-5.6-6.2-5.6h-2.7c0.7-1.3,1.1-2.7,1.1-4.3c0-4.8-3.9-8.8-8.7-8.8
	c-4.6,0-8.3,3.5-8.7,8c-1.1-2.3-3.4-4-6.1-4c-3.7,0-6.8,3-6.8,6.8c0,0.8,0.1,1.5,0.4,2.3H8c-3.4,0-6.3,2.8-6.3,6.3v17.7
	c0,3.4,2.8,6.3,6.3,6.3h33.4c3.4,0,6.3-2.8,6.3-6.3v-0.5l9.4,2.1c0.3,0.1,0.6,0.1,0.9,0.1c1,0,1.9-0.3,2.6-0.9c1-0.8,1.6-2,1.6-3.3
	V31C62.3,29.7,61.7,28.5,60.7,27.7z M31.1,14.9c2.3,0,4.2,1.9,4.2,4.3s-1.9,4.3-4.2,4.3s-4.3-1.9-4.3-4.3S28.8,14.9,31.1,14.9z
	 M23.5,23.4h-0.8c0.1-0.4,0.2-0.8,0.3-1.2C23.1,22.6,23.2,23,23.5,23.4z M14,21.2c0-1.2,1-2.3,2.3-2.3s2.3,1,2.3,2.3s-1,2.3-2.3,2.3
	S14,22.4,14,21.2z M43.2,47.3c0,1-0.8,1.8-1.8,1.8H8c-1,0-1.8-0.8-1.8-1.8V29.7c0-1,0.8-1.8,1.8-1.8h33.4c1,0,1.8,0.8,1.8,1.8V47.3z
	 M57.8,44.5l-10.1-2.2v-8.7l10.1-2.2V44.5z"/>
</svg>
