<?xml version="1.0" encoding="utf-8"?>
<!-- Generator: Adobe Illustrator 22.0.0, SVG Export Plug-In . SVG Version: 6.00 Build 0)  -->
<svg version="1.1" id="lni_lni-volume-low" xmlns="http://www.w3.org/2000/svg" xmlns:xlink="http://www.w3.org/1999/xlink" x="0px"
	 y="0px" viewBox="0 0 64 64" style="enable-background:new 0 0 64 64;" xml:space="preserve">
<g>
	<path d="M46.9,26.9c-0.8-0.9-2.3-1-3.2-0.1c-0.9,0.8-1,2.3-0.1,3.2c1,1.1,1,3,0,4.2c-0.8,0.9-0.8,2.3,0.1,3.2
		c0.4,0.4,1,0.6,1.5,0.6c0.6,0,1.2-0.2,1.7-0.7C49.5,34.3,49.5,29.7,46.9,26.9z"/>
	<path d="M34.4,12.3c-1.6-0.9-3.5-0.8-5,0.1l-10.8,6.7c-0.1,0-0.1,0.1-0.2,0.1H5.6c-2.7,0-4.9,2.2-4.9,4.9v15.8
		c0,2.7,2.2,4.9,4.9,4.9h12.8c0.1,0,0.1,0,0.2,0.1l10.8,6.7c0.8,0.5,1.7,0.7,2.6,0.7c0.8,0,1.6-0.2,2.4-0.6c1.6-0.9,2.5-2.5,2.5-4.3
		V16.5C36.9,14.8,35.9,13.1,34.4,12.3z M32.4,47.5c0,0.2-0.1,0.3-0.2,0.3c-0.1,0.1-0.3,0.1-0.4,0L21,41h0c-0.8-0.5-1.7-0.7-2.6-0.7
		H5.6c-0.2,0-0.4-0.2-0.4-0.4V24.1c0-0.2,0.2-0.4,0.4-0.4h12.8c0.9,0,1.8-0.3,2.6-0.7l10.8-6.7c0.1-0.1,0.3-0.1,0.4,0
		c0.1,0.1,0.2,0.2,0.2,0.3V47.5z"/>
</g>
</svg>
