<?xml version="1.0" encoding="utf-8"?>
<!-- Generator: Adobe Illustrator 22.0.0, SVG Export Plug-In . SVG Version: 6.00 Build 0)  -->
<svg version="1.1" id="lni_lni-volume-mute" xmlns="http://www.w3.org/2000/svg" xmlns:xlink="http://www.w3.org/1999/xlink"
	 x="0px" y="0px" viewBox="0 0 64 64" style="enable-background:new 0 0 64 64;" xml:space="preserve">
<g>
	<path d="M45.6,12.9c-0.9-0.9-2.3-0.9-3.2,0l-5,5v-1c0-1.8-1-3.4-2.5-4.3c-1.6-0.9-3.5-0.8-5,0.1l-10.8,6.7c-0.1,0-0.1,0.1-0.2,0.1
		H6.1c-2.7,0-4.9,2.2-4.9,4.9v15.8c0,2.7,2.2,4.9,4.9,4.9h4l-2.7,2.7c-0.9,0.9-0.9,2.3,0,3.2c0.4,0.4,1,0.7,1.6,0.7
		c0.6,0,1.2-0.2,1.6-0.7l34.9-35C46.5,15.2,46.5,13.8,45.6,12.9z M6.1,40.7c-0.2,0-0.4-0.2-0.4-0.4V24.5c0-0.2,0.2-0.4,0.4-0.4h12.8
		c0.9,0,1.8-0.3,2.6-0.7l10.8-6.7c0.1-0.1,0.3-0.1,0.4,0c0.1,0.1,0.2,0.2,0.2,0.3v5.4c0,0,0,0.1,0,0.1L14.7,40.7H6.1z"/>
	<path d="M35.1,31.1c-1.2,0-2.3,1-2.3,2.3v14.5c0,0.2-0.1,0.3-0.2,0.3c-0.1,0.1-0.3,0.1-0.4,0l-8.7-5.4c-1.1-0.7-2.4-0.3-3.1,0.7
		c-0.7,1.1-0.3,2.4,0.7,3.1l8.7,5.4c0.8,0.5,1.7,0.7,2.6,0.7c0.8,0,1.6-0.2,2.4-0.6c1.6-0.9,2.5-2.5,2.5-4.3V33.4
		C37.4,32.1,36.4,31.1,35.1,31.1z"/>
</g>
</svg>
