<?xml version="1.0" encoding="utf-8"?>
<!-- Generator: Adobe Illustrator 22.0.0, SVG Export Plug-In . SVG Version: 6.00 Build 0)  -->
<svg version="1.1" id="lni_lni-volume" xmlns="http://www.w3.org/2000/svg" xmlns:xlink="http://www.w3.org/1999/xlink" x="0px"
	 y="0px" viewBox="0 0 64 64" style="enable-background:new 0 0 64 64;" xml:space="preserve">
<g>
	<g>
		<path d="M32,52.3c-0.9,0-1.8-0.2-2.6-0.7l-10.8-6.7c-0.1,0-0.1-0.1-0.2-0.1H5.6c-2.7,0-4.9-2.2-4.9-4.9V24.1
			c0-2.7,2.2-4.9,4.9-4.9h12.8c0.1,0,0.1,0,0.2-0.1l10.8-6.7c1.5-0.9,3.4-1,5-0.1c1.6,0.9,2.5,2.5,2.5,4.3v30.9c0,1.8-1,3.4-2.5,4.3
			C33.6,52.1,32.8,52.3,32,52.3z M5.6,23.7c-0.2,0-0.4,0.2-0.4,0.4v15.8c0,0.2,0.2,0.4,0.4,0.4h12.8c0.9,0,1.8,0.3,2.6,0.7h0
			l10.8,6.7c0.1,0.1,0.3,0.1,0.4,0c0.1-0.1,0.2-0.2,0.2-0.3V16.5c0-0.2-0.1-0.3-0.2-0.3c-0.1-0.1-0.3-0.1-0.4,0L21,23
			c-0.8,0.5-1.7,0.7-2.6,0.7H5.6z"/>
	</g>
</g>
</svg>
