<svg width="65" height="64" viewBox="0 0 65 64" fill="none" xmlns="http://www.w3.org/2000/svg">
<path d="M32.6137 5.24268C31.4563 5.24268 30.2937 5.47202 29.2003 5.92802L5.37901 15.7787C4.03768 16.3333 4.07234 18.2 5.41101 18.7547L29.363 28.2427C31.4614 29.0933 33.8086 29.0933 35.907 28.2427L59.859 18.7547C61.2003 18.232 61.2003 16.3333 59.891 15.7787L36.0057 5.92802C34.9325 5.47422 33.7789 5.24114 32.6137 5.24268V5.24268ZM63.035 21.4827C62.8318 21.484 62.6307 21.5248 62.443 21.6027L35.7443 31.9414C35.4456 32.0637 35.1899 32.2719 35.0095 32.5396C34.8292 32.8074 34.7322 33.1225 34.731 33.4454V57.168C34.7335 57.4277 34.7992 57.6829 34.9224 57.9116C35.0456 58.1402 35.2227 58.3354 35.4382 58.4803C35.6537 58.6252 35.9013 58.7155 36.1595 58.7433C36.4178 58.7712 36.6789 58.7357 36.9203 58.64L63.6217 48.2667C63.921 48.1555 64.1789 47.9548 64.3602 47.6919C64.5415 47.429 64.6375 47.1167 64.635 46.7974V23.0747C64.6322 22.6522 64.4624 22.248 64.1626 21.9502C63.8629 21.6524 63.4575 21.4853 63.035 21.4854V21.4827ZM2.43768 21.5867C2.20091 21.5783 1.96497 21.619 1.74469 21.7061C1.5244 21.7933 1.32454 21.9252 1.15768 22.0933C0.864343 22.3893 0.63501 22.7467 0.63501 23.1733V45.4534C0.63501 46.632 2.00834 47.4187 3.05634 46.8933L19.7763 38.8774L20.595 38.4854L28.5123 34.656C29.755 34.0694 29.659 32.2347 28.3497 31.744L2.98968 21.7013C2.81461 21.6281 2.62739 21.5883 2.43768 21.584V21.5867Z" fill="black"/>
</svg>
