<?xml version="1.0" encoding="utf-8"?>
<!-- Generator: Adobe Illustrator 22.0.0, SVG Export Plug-In . SVG Version: 6.00 Build 0)  -->
<svg version="1.1" id="lni_lni-amazon" xmlns="http://www.w3.org/2000/svg" xmlns:xlink="http://www.w3.org/1999/xlink" x="0px"
	 y="0px" viewBox="0 0 64 64" style="enable-background:new 0 0 64 64;" xml:space="preserve">
<g>
	<path d="M25.9,35.5c1.1,1.2,2.5,1.9,4.1,1.9c0.2,0,0.5,0,0.9-0.1c0.1,0,0.2,0,0.3-0.1c1.8-0.5,3.3-1.7,4.2-3.5
		c0.4-0.8,0.7-1.6,0.9-2.4c0.2-0.7,0.3-1.4,0.3-2.1v-3.1c0-1.2-1-2.3-2.3-2.3c-2,0-3.4,0.1-4.4,0.4c-3.5,1-5.5,3.5-5.5,7
		C24.5,33,24.9,34.3,25.9,35.5C25.8,35.5,25.8,35.5,25.9,35.5z M29.9,32.9C29.9,32.9,30,32.9,29.9,32.9 M31.2,28.7
		c0.2-0.1,0.5-0.1,0.9-0.2v0.8c0,0.2-0.1,0.7-0.2,1.1c-0.1,0.4-0.3,0.8-0.5,1.3c-0.4,0.8-0.9,1.1-1.2,1.2c-0.1,0-0.2,0-0.4,0.1
		c-0.2,0-0.3-0.1-0.5-0.3c-0.2-0.3-0.3-0.7-0.3-1.3C29,30.1,29.3,29.2,31.2,28.7z"/>
	<path d="M15.6,24.6c-1.6,2.3-2.4,5.1-2.4,8.2c0,4.1,1.2,7.3,3.6,9.5c2.3,2.2,5.4,3.4,9,3.4c2.2,0,4-0.2,5.6-0.7
		c1.9-0.6,3.8-1.7,5.7-3.3c1.1,1.2,2.3,2.7,2.7,3c0.1,0.1,0.3,0.2,0.5,0.3c0.6,0.3,1.2,0.4,1.8,0.4c0.9,0,1.6-0.2,2.2-0.7
		c0.3-0.2,2-1.7,3.2-2.8c3.1-2.8,3.5-3.3,3.5-4.4c0-0.7-0.2-1.4-0.7-2.1c0-0.1-0.1-0.2-0.2-0.2c-0.6-0.8-1-1.4-1.4-1.8
		c0,0-0.2-0.3-0.5-1.1c-0.2-0.6-0.3-1.3-0.3-2.1V16c0-0.6,0-1.3-0.1-1.7c-0.1-1.2-0.2-1.6-0.3-1.9C46.7,7.4,42.2,2.1,32.3,1.8
		c-0.2,0-6.2-0.2-11.4,2.5c-3.1,1.6-5.4,5.2-6.4,9.6c-0.1,0.5-0.1,0.8-0.1,1c0,1.7,1.1,2.9,2.8,3.3c0.1,0,0.1,0,0.2,0l6,0.7
		c-0.5,0.2-0.9,0.3-1.4,0.5C19.3,20.6,17.1,22.3,15.6,24.6z M31,21.9c0.9-0.1,2.2-0.2,4-0.4l1.1-0.1c1.2-0.1,2.1-1.1,2.1-2.2v-1
		c0-3.1-0.4-5.1-1.2-6.3c-1.4-1.9-3.1-2.9-5.4-2.9c-0.6,0-3.1,0-5.5,1.9c-1.2,1-2.1,2.2-2.5,3.7l-4.3-0.5c0.7-2.7,2.1-4.8,3.8-5.7
		c4.2-2.2,9.1-2,9.2-2c9.2,0.3,10.8,5.4,11.1,6.9c0,0.1,0,0.2,0,0.2h0c0,0,0.1,0.3,0.1,1.3c0.1,0.7,0.1,1.2,0.1,1.3v14.2
		c0,1.3,0.2,2.5,0.5,3.5c0.4,1.2,0.8,2,1.3,2.6c0.2,0.2,0.4,0.5,0.7,0.9c-1.1,1-2.9,2.7-3.9,3.5c-1-1.1-2.8-3.2-3.1-3.6
		c-0.4-0.5-1-0.9-1.6-0.9c-0.7-0.1-1.4,0.2-1.8,0.7c-1.9,2-3.7,3.3-5.4,3.8c-1.2,0.3-2.6,0.5-4.3,0.5c-2.4,0-4.4-0.7-5.9-2.2
		c-1.5-1.4-2.2-3.4-2.2-6.2c0-2.2,0.5-4.1,1.6-5.6c1-1.5,2.5-2.6,4.5-3.4c0,0,0,0,0,0C25.7,22.8,28.2,22.2,31,21.9z M26.7,18.1
		c0.5-0.5,0.9-1.3,1.1-2.1c0.2-0.7,0.5-1.2,1-1.6c1.2-0.9,2.5-0.9,2.5-0.9c0,0,0,0,0,0c0.1,0,0.1,0,0.2,0c0.8,0,1.3,0.3,1.8,0.9
		c0,0,0.3,0.6,0.4,2.7c-1.4,0.1-2.4,0.2-3.2,0.3C29.1,17.6,27.8,17.8,26.7,18.1z"/>
	<path d="M53.1,51.8c-0.1,0.1-0.3,0.1-0.7,0.3c-0.3,0.1-0.5,0.2-0.7,0.3C45.4,54.8,39,56,32.6,56c-9.7,0-18.6-2.4-26.9-7.1
		c-0.3-0.2-0.6-0.2-0.8,0.1c-0.1,0.1-0.1,0.2-0.1,0.3c0,0.1,0.1,0.3,0.3,0.5c3.6,3.3,7.7,5.8,12.3,7.6C21.9,59,26.8,60,32,60
		c3.3,0,6.7-0.5,10.3-1.4c3.5-1,6.7-2.2,9.5-3.9c1-0.5,1.7-1.1,2.2-1.5c0.5-0.3,0.5-0.7,0.3-1.1C54,51.7,53.6,51.6,53.1,51.8z"/>
	<path d="M58.9,48.4c-0.3-0.3-1.2-0.6-2.7-0.7c-0.3-0.1-0.6-0.1-1-0.1c-1.2,0-2.4,0.2-3.7,0.5c-0.7,0.2-1.6,0.5-2.4,1.2
		c-0.1,0.1-0.2,0.3-0.3,0.4c0,0.1-0.1,0.1-0.1,0.1c0,0.1,0,0.1,0.1,0.2c0.1,0.1,0.2,0.1,0.4,0.1c0.7-0.1,1.4-0.2,2.2-0.3
		c0.7-0.1,1.4-0.1,2-0.1c1.5,0,2.4,0.2,2.8,0.6c0.1,0.1,0.2,0.4,0.2,0.8c0,1.1-0.6,3.1-1.8,6c-0.1,0.3-0.1,0.5,0.1,0.5
		c0.1,0,0.1,0.1,0.2,0.1c0.1,0,0.3-0.1,0.5-0.2c1.1-1,2-2.2,2.7-3.8c0.7-1.6,1-2.9,1-4.1v-0.3C59.1,48.9,59.1,48.7,58.9,48.4z"/>
</g>
</svg>
