<?xml version="1.0" encoding="utf-8"?>
<!-- Generator: Adobe Illustrator 22.0.1, SVG Export Plug-In . SVG Version: 6.00 Build 0)  -->
<svg version="1.1" id="lni_lni-amazon-original" xmlns="http://www.w3.org/2000/svg" xmlns:xlink="http://www.w3.org/1999/xlink"
	 x="0px" y="0px" viewBox="0 0 64 64" style="enable-background:new 0 0 64 64;" xml:space="preserve">
<g>
	<path d="M56,46.2c-7.6,3.2-15.9,4.8-23.4,4.8c-11,0.1-21.8-3-30.6-8.2c-0.7-0.4-1.4,0.3-0.7,1c8,7.3,18.7,11.7,30.6,11.7
		c8.5,0,18.3-2.7,25.1-7.6C58.2,47,57.2,45.7,56,46.2z"/>
	<path d="M62.7,42.4c-0.7-1-7-1.7-11,1c-0.6,0.4-0.4,1,0.1,1c2.1-0.3,7-0.8,7.9,0.3s-1,5.6-1.7,7.7c-0.3,0.6,0.3,0.8,0.8,0.4
		C62.6,49.7,63.6,43.3,62.7,42.4z"/>
	<path d="M35.1,20.7c-3.2,0.3-7.6,0.6-10.6,2c-3.5,1.5-6.1,4.6-6.1,9.2c0,5.9,3.7,8.9,8.5,8.9c3.9,0,6.2-1,9.3-4.1
		c1,1.4,1.4,2.3,3.2,3.8c0.4,0.1,1,0.1,1.4-0.1l0,0c1.1-1,3.2-2.8,4.4-3.7c0.4-0.4,0.4-1,0-1.4c-1-1.4-2.1-2.5-2.1-5.2v-8.9
		c0-3.7,0.3-7.2-2.5-9.7c-2.1-2.1-5.8-2.8-8.5-2.8c-5.4,0-11.3,2-12.5,8.6c-0.1,0.7,0.4,1.1,0.7,1.1l5.4,0.6c0.6,0,0.8-0.6,1-1
		c0.4-2.3,2.3-3.4,4.5-3.4c1.1,0,2.5,0.4,3.2,1.4c0.7,1.1,0.7,2.8,0.7,4.1V20.7L35.1,20.7z M34,32.4c-0.8,1.5-2.3,2.5-3.8,2.5
		c-2.1,0-3.5-1.7-3.5-4.1c0-4.8,4.4-5.6,8.3-5.6v1.3C35.1,28.5,35.1,30.4,34,32.4z"/>
</g>
</svg>
