<?xml version="1.0" encoding="utf-8"?>
<!-- Generator: Adobe Illustrator 22.0.0, SVG Export Plug-In . SVG Version: 6.00 Build 0)  -->
<svg version="1.1" id="lni_lni-amex" xmlns="http://www.w3.org/2000/svg" xmlns:xlink="http://www.w3.org/1999/xlink" x="0px"
	 y="0px" viewBox="0 0 64 64" style="enable-background:new 0 0 64 64;" xml:space="preserve">
<g>
	<path d="M56,14.7H8c-3.4,0-6.2,2.8-6.2,6.2v22.1c0,3.4,2.8,6.2,6.2,6.2h48c3.4,0,6.2-2.8,6.2-6.2V20.9C62.3,17.5,59.5,14.7,56,14.7
		z M57.8,43.1c0,1-0.8,1.7-1.7,1.7H8c-1,0-1.7-0.8-1.7-1.7V20.9c0-1,0.8-1.7,1.7-1.7h48c1,0,1.7,0.8,1.7,1.7V43.1z"/>
	<path d="M26.9,35.6l-3-10.3h-3.7v12.4l-3.1-12.4h-4.2L9.7,38.5h2.1l0.8-2.8l5,0l0.7,2.8h4.2V27.8h0.3l3.1,10.1h2.2l3-10.1h0.3v10.7
		h2.1V25.3h-3.6L26.9,35.6z M12.9,33.9l1.6-6.7h1l1.6,6.7H12.9z"/>
	<path d="M52,25.3l-2.9,5.1l-2.8-5.1H35.4v13.2h11l2.7-5l2.8,5h2.4L50.5,32l3.8-6.7H52z M45,36.6h-7.5v-3.8h0.1h4.9V31h-4.9v-3.6H45
		l2.8,4.9L45,36.6z"/>
</g>
</svg>
