<?xml version="1.0" encoding="utf-8"?>
<!-- Generator: Adobe Illustrator 22.0.0, SVG Export Plug-In . SVG Version: 6.00 Build 0)  -->
<svg version="1.1" id="lni_lni-android" xmlns="http://www.w3.org/2000/svg" xmlns:xlink="http://www.w3.org/1999/xlink" x="0px"
	 y="0px" viewBox="0 0 64 64" style="enable-background:new 0 0 64 64;" xml:space="preserve">
<g>
	<path d="M26.9,12.3c-0.9,0-1.6,0.7-1.6,1.6c0,0.9,0.7,1.6,1.6,1.6c0.9,0,1.6-0.7,1.6-1.6C28.5,13,27.8,12.3,26.9,12.3z"/>
	<path d="M36.5,12.3c-0.9,0-1.6,0.7-1.6,1.6c0,0.9,0.7,1.6,1.6,1.6c0.9,0,1.6-0.7,1.6-1.6C38.1,13,37.4,12.3,36.5,12.3z"/>
	<path d="M53.1,18.4c-0.7,0-1.4,0.1-2,0.3c0,0,0,0,0,0c-1.2-3.6-3.3-6.7-6-9.1l4-4.1c0.9-0.9,0.8-2.3,0-3.2c-0.9-0.9-2.3-0.9-3.2,0
		l-4.5,4.6c-2.8-1.5-6-2.3-9.3-2.3c-3.3,0-6.5,0.8-9.3,2.3l-4.5-4.6c-0.9-0.9-2.3-0.9-3.2,0c-0.9,0.9-0.9,2.3,0,3.2l3.9,4
		c-2.6,2.3-4.7,5.3-5.9,8.8c-0.7-0.2-1.4-0.4-2.1-0.4c-3.5,0-6.4,2.9-6.4,6.4V35c0,3.5,2.9,6.4,6.4,6.4c0.7,0,1.3-0.1,1.9-0.3V47
		c0,1.5,1.1,2.6,2.6,2.6h1.1v6.2c0,3.5,2.9,6.4,6.4,6.4c3.5,0,6.4-2.9,6.4-6.4v-6.2H34v6.2c0,3.5,2.9,6.4,6.4,6.4s6.4-2.9,6.4-6.4
		v-6.2h1.7c1.5,0,2.6-1.2,2.6-2.6v-5.5c0.6,0.2,1.2,0.3,1.9,0.3c3.5,0,6.4-2.9,6.4-6.4V24.8C59.5,21.3,56.6,18.4,53.1,18.4z M32,9.3
		c5.7,0,10.8,3.1,13.5,7.8h-27C21.2,12.3,26.3,9.3,32,9.3z M10.9,36.9C9.9,36.9,9,36.1,9,35V24.4c0-1.1,0.9-1.9,1.9-1.9
		s1.9,0.9,1.9,1.9V35C12.9,36.1,12,36.9,10.9,36.9z M24.9,55.8c0,1.1-0.9,1.9-1.9,1.9s-1.9-0.9-1.9-1.9v-6.2h3.8V55.8z M42.3,55.8
		c0,1.1-0.9,1.9-1.9,1.9s-1.9-0.9-1.9-1.9v-6.2h3.8V55.8z M17.4,45.2V21.6h29.3v23.5H17.4z M55,35.4c0,1.1-0.9,1.9-1.9,1.9
		s-1.9-0.9-1.9-1.9V24.8c0-1.1,0.9-1.9,1.9-1.9s1.9,0.9,1.9,1.9V35.4z"/>
</g>
</svg>
