<svg width="64" height="65" viewBox="0 0 64 65" fill="none" xmlns="http://www.w3.org/2000/svg">
<path d="M55.6275 22.6379C55.2678 22.9169 48.9184 26.4947 48.9184 34.4501C48.9184 43.6518 56.9978 46.9071 57.2396 46.9877C57.2024 47.1862 55.9561 51.446 52.9798 55.7864C50.3259 59.606 47.5543 63.4194 43.3378 63.4194C39.1214 63.4194 38.0363 60.9701 33.1688 60.9701C28.4253 60.9701 26.7388 63.5 22.882 63.5C19.0252 63.5 16.3341 59.9656 13.24 55.6252C9.65607 50.5283 6.76038 42.6101 6.76038 35.095C6.76038 23.041 14.598 16.6481 22.3115 16.6481C26.4101 16.6481 29.8267 19.3392 32.3999 19.3392C34.8492 19.3392 38.6688 16.4869 43.3316 16.4869C45.0988 16.4869 51.4482 16.6481 55.6275 22.6379V22.6379ZM41.118 11.3838C43.0464 9.09576 44.4105 5.92104 44.4105 2.74632C44.4105 2.30608 44.3733 1.85964 44.2927 1.5C41.1552 1.61781 37.4224 3.58961 35.1716 6.20007C33.4044 8.20907 31.7551 11.3838 31.7551 14.6019C31.7551 15.0856 31.8357 15.5692 31.8729 15.7242C32.0713 15.7614 32.3937 15.8048 32.7162 15.8048C35.5313 15.8048 39.0718 13.9198 41.118 11.3838Z" fill="black"/>
</svg>
