<?xml version="1.0" encoding="utf-8"?>
<!-- Generator: Adobe Illustrator 22.0.1, SVG Export Plug-In . SVG Version: 6.00 Build 0)  -->
<svg version="1.1" id="lni_lni-apple-music" xmlns="http://www.w3.org/2000/svg" xmlns:xlink="http://www.w3.org/1999/xlink"
	 x="0px" y="0px" viewBox="0 0 64 64" style="enable-background:new 0 0 64 64;" xml:space="preserve">
<g>
	<path d="M10.7,32.4c0-1.2,0.5-2.2,1.6-2.8c-0.6-0.9-1.4-1.3-2.6-1.4c-0.4,0-0.9,0-1.6,0.3c-0.6,0.3-1,0.4-1.2,0.4
		c-0.1,0-0.5-0.1-1-0.4C5.4,28.1,5,28,4.6,28c-0.6,0-1.2,0.1-1.7,0.5c-0.5,0.4-0.9,0.8-1.3,1.3C1.3,30.4,1,31.4,1,32.4
		c0,0.9,0.1,1.8,0.4,2.7c0.3,0.9,0.6,1.6,1,2.2c0.4,0.5,0.8,1,1,1.3c0.4,0.4,0.8,0.6,1.3,0.6c0.3,0,0.6-0.1,1-0.3
		c0.4-0.1,0.9-0.3,1.3-0.3c0.4,0,0.8,0.1,1.2,0.3c0.5,0.3,0.9,0.3,1.2,0.3c0.4,0,0.9-0.3,1.3-0.5c0.1-0.1,0.3-0.3,0.4-0.5
		c0.1-0.3,0.4-0.5,0.5-0.8c0.1-0.3,0.3-0.4,0.4-0.6c0.1-0.3,0.3-0.5,0.4-0.8c0-0.1,0.1-0.3,0.1-0.4c0-0.1,0.1-0.3,0.1-0.4
		c-0.4-0.1-0.6-0.4-0.9-0.6C11,34.2,10.7,33.4,10.7,32.4L10.7,32.4z M21.1,35.1L21.1,35.1l-3-6.7h-2.3v10.7h1.9v-7h0.1l2.5,5.6h1.4
		l2.5-5.6h0.1v7h2.1V28.4H24L21.1,35.1z M8.9,27c0.5-0.6,0.8-1.3,0.8-2.1v-0.1v-0.1c-0.4,0-0.8,0.1-1.2,0.4c-0.4,0.3-0.8,0.5-1,0.8
		c-0.5,0.6-0.8,1.3-0.8,1.9v0.1V28C7.5,28.1,8.2,27.7,8.9,27L8.9,27z M49.8,28.4H52v10.7h-2.2V28.4z M58.9,30.1c1.3,0,2.1,1,2.1,2.1
		H63V32c0-2.1-1.6-3.9-4.3-3.9c-2.8,0-4.5,1.8-4.5,5v1.2c0,3.1,1.7,4.9,4.5,4.9c2.7,0,4.3-1.8,4.3-3.8v-0.3h-2.2
		c0,1.2-0.6,2.1-2.1,2.1s-2.2-1-2.2-3.1V33C56.5,31.1,57.4,30.1,58.9,30.1L58.9,30.1z M34.9,35.2c0,1.4-0.9,2.2-2.1,2.2
		c-1.3,0-2.1-0.8-2.1-2.2v-6.9h-2.2v7.1c0,2.3,1.7,3.9,4.3,3.9c2.7,0,4.3-1.6,4.3-3.9v-7.1h-2.2V35.2L34.9,35.2z M44.6,32.9
		l-1.6-0.4c-0.9-0.3-1.4-0.6-1.4-1.3c0-0.8,0.6-1.3,1.8-1.3s1.8,0.6,1.9,1.4h2.1c0-1.9-1.6-3.2-4-3.2c-2.2,0-4,1.2-4,3.2
		c0,1.8,1.3,2.7,2.7,3l1.6,0.4c1,0.3,1.6,0.6,1.6,1.3c0,0.8-0.6,1.4-1.9,1.4c-1.3,0-2.1-0.6-2.1-1.6h-2.2c0,1.6,1,3.4,4.1,3.4
		c2.6,0,4.3-1.3,4.3-3.4C47.5,33.9,46.2,33.3,44.6,32.9L44.6,32.9z"/>
</g>
</svg>
