<svg width="65" height="64" viewBox="0 0 65 64" fill="none" xmlns="http://www.w3.org/2000/svg">
<path d="M42.1816 39.6841L44.8303 42.629C44.6 42.629 44.3861 42.629 44.1558 42.629C40.4706 42.629 37.4763 44.0274 37.4763 47.0545C37.4763 49.4894 40.4706 51.4801 44.1558 51.4801C47.841 51.4801 50.8353 49.4894 50.8353 47.0545C50.8353 44.6197 47.7917 41.609 46.2452 39.7005H42.1816V39.6841ZM47.3475 46.9558C47.3475 48.2226 45.9162 49.2427 44.1723 49.2427C42.4284 49.2427 40.9806 48.2226 40.9806 46.9558C40.9806 45.689 42.4119 44.669 44.1723 44.669C45.9326 44.669 47.3475 45.689 47.3475 46.9558Z" fill="black"/>
<path d="M33.2809 47.614C33.2809 50.0325 29.316 50.0325 29.316 47.614V42.8594H25.894V47.9266C25.894 52.8787 36.6207 52.928 36.6207 47.9266V42.8594H33.2809V47.614Z" fill="black"/>
<path fill-rule="evenodd" clip-rule="evenodd" d="M54.9675 42.8594V51.4309H51.9675V42.8594H54.9675Z" fill="black"/>
<path d="M14.1969 39.9803L15.3814 41.4281L8.78418 51.4473H12.7491L13.8185 49.6705H21.3534L22.4722 51.4473H26.6016L18.6882 39.9968H14.1969V39.9803ZM15.2333 47.3344L17.5037 43.5833L19.8728 47.3344H15.2333V47.3344Z" fill="black"/>
<path d="M53.7966 12.3575C51.1478 12.3246 48.6965 13.213 46.7387 14.7265C44.8632 13.2952 42.5435 12.4233 40.0099 12.3904C37.3611 12.3575 34.8933 13.2459 32.952 14.743C31.0764 13.3117 28.7567 12.4397 26.2067 12.4068C23.5744 12.3575 21.1395 13.2459 19.1817 14.7265C17.3226 13.2952 15.0029 12.4562 12.4858 12.4068C6.23404 12.3246 1.08457 17.3588 0.98586 23.5941C0.903601 29.8459 5.92144 34.9953 12.1732 35.0776C14.8055 35.1105 17.2568 34.2385 19.1981 32.7414C21.0572 34.1727 23.3934 35.0282 25.9105 35.0611C28.5593 35.094 31.0106 34.2221 32.9684 32.7085C34.8439 34.1398 37.1637 35.0282 39.6973 35.0447C42.346 35.094 44.7973 34.1892 46.7551 32.692C48.6142 34.1234 50.9504 34.9953 53.484 35.0282C59.7357 35.1105 64.8852 30.0926 64.9839 23.8409C65.0661 17.5892 60.0318 12.4397 53.7966 12.341M53.5169 33.7285C50.901 33.6956 48.5319 32.6591 46.7551 30.9975C44.8138 32.7578 42.4447 33.7943 39.7302 33.745C37.1143 33.7121 34.7452 32.6756 32.9849 31.0139C31.0929 32.7743 28.5264 33.7943 25.927 33.7614C23.4263 33.7285 21.0079 32.7414 19.1981 31.0633C18.9185 31.3265 18.573 31.6062 18.1946 31.8694C16.5 33.1033 14.4271 33.8108 12.1732 33.7779C8.07665 33.7285 4.55593 31.1949 3.05881 27.6248C2.66396 27.5919 2.31847 27.5261 2.02234 27.4274C1.59459 26.2264 1.36426 24.9267 1.38072 23.5777C1.46298 17.7372 6.15177 12.9991 11.9264 12.8017C12.0745 13.032 12.2554 13.3281 12.4035 13.6901H12.4529C15.0358 13.7394 17.5036 14.7594 19.3462 16.5691L19.264 15.1543C21.0408 13.7394 23.2618 12.8839 25.6802 12.8017C25.7625 12.9333 25.9928 13.2459 26.1902 13.6901C28.7238 13.723 31.3068 14.8417 33.0836 16.5527L33.0013 15.2036C34.7781 13.7559 37.0156 12.8675 39.4505 12.8017C39.615 13.032 39.7795 13.3281 39.9276 13.6736H39.9769C42.527 13.7065 45.0606 14.8746 46.8867 16.6021L46.788 15.1707C48.5813 13.7394 50.8188 12.851 53.2372 12.7523C53.3195 12.8839 53.6979 13.6407 53.7637 13.6407C59.1599 13.8875 63.4539 17.1285 63.6842 23.8245C63.8487 29.3523 59.0283 33.7943 53.5004 33.7285" fill="black"/>
<path d="M15.7764 27.4439C15.3322 26.2429 15.1019 24.9432 15.1348 23.5941C15.1677 21.0935 16.0396 18.8066 17.4874 16.9805C18.0468 16.9805 18.6061 16.9476 18.9352 16.9476C17.2077 15.2695 14.9045 14.2988 12.4696 14.2659C7.23786 14.2001 2.92746 18.3953 2.86165 23.6106C2.8123 28.1678 5.98752 32.0175 10.265 32.9882C10.4131 32.8072 10.5776 32.6098 10.7421 32.3959C11.2192 32.4782 11.7292 32.5275 12.2392 32.544C14.2299 32.5769 16.0561 31.9353 17.6355 30.7672L18.9516 30.8001C18.0632 29.8952 17.3393 28.8259 16.8293 27.6249C16.4345 27.592 16.1054 27.5262 15.8093 27.4439M12.2392 32.0998C7.63271 32.034 3.94747 28.25 3.99683 23.6435C4.06263 19.0534 7.86303 15.3517 12.4696 15.4011C14.1806 15.4175 15.76 15.9604 17.0761 16.8653C15.6448 18.7408 14.7728 21.0605 14.7564 23.5941C14.7235 26.2265 15.5954 28.6778 17.0761 30.6191C16.0561 31.2936 14.3286 32.1327 12.2392 32.0998" fill="black"/>
<path d="M20.6953 21.044C20.8763 20.5834 21.2053 20.3201 21.2053 20.3201C20.8927 19.2179 20.0043 18.0662 19.1982 17.2272C17.6188 18.9053 16.6317 21.1263 16.5659 23.6105C16.5165 25.2886 17.1582 27.9374 18.4414 29.4181C18.6882 29.6977 18.8692 30.0103 19.2147 30.3065L19.2475 29.1055C20.465 27.6577 21.0902 25.7822 21.1231 23.8738C21.1231 22.8866 20.9915 21.9324 20.6953 21.044ZM19.1982 28.4967C18.244 27.1148 17.6846 25.4367 17.7011 23.6434C17.7175 21.916 18.2604 20.3366 19.1817 19.0204C20.136 20.4024 20.6953 22.0805 20.6624 23.8902C20.646 25.6012 20.1031 27.197 19.1817 28.5132" fill="black"/>
<path d="M34.4327 21.0276C34.6137 20.5505 34.9427 20.3037 34.9427 20.3037C34.6795 19.366 33.7253 18.0004 32.9685 17.2437C31.3891 18.9053 30.4185 21.1428 30.3856 23.6105C30.3526 26.1935 31.3562 28.5461 33.0179 30.29L33.0508 29.1713C34.0708 27.5261 34.844 25.9467 34.8605 23.8738C34.8605 22.8867 34.7289 21.9325 34.4327 21.044M32.9685 28.4474C32.0308 27.0819 31.4878 25.4038 31.5207 23.627C31.5536 21.9325 32.0801 20.3531 32.9685 19.0534C33.8898 20.4189 34.4327 22.097 34.4163 23.8573C34.3834 25.5519 33.8569 27.1313 32.9685 28.4474Z" fill="black"/>
<path d="M43.3661 27.411C42.9219 26.21 42.7081 24.9103 42.7245 23.5612C42.7574 21.0606 43.6458 18.7737 45.0772 16.9476H46.492C44.7316 15.2859 42.4777 14.2824 39.9935 14.2495C37.427 14.2166 35.0744 15.2037 33.3469 16.8489C35.1402 18.7244 36.1437 21.2744 36.0944 23.8738C36.0615 26.3581 35.0744 28.8423 33.3798 30.6356C34.5808 31.7708 36.0944 32.5934 37.7725 32.9718C37.9206 32.7743 38.0851 32.5769 38.2496 32.3795C38.7267 32.4617 39.2367 32.5111 39.7467 32.5275C41.9019 32.5605 43.7116 31.7708 45.2417 30.7343L46.4426 30.7014C45.5871 29.813 44.8797 28.7601 44.3862 27.592C43.9913 27.5591 43.6623 27.4933 43.3661 27.411ZM39.7632 32.0669C38.0357 32.034 36.4399 31.5075 35.1073 30.5862C36.5221 28.7272 37.3776 26.4074 37.4106 23.8903C37.4599 21.258 36.5715 18.8395 35.0908 16.8818C36.4892 15.9111 38.1673 15.3517 39.9935 15.3682C41.7045 15.4011 43.3168 15.944 44.6329 16.8653C43.2181 18.7244 42.3626 21.0441 42.3297 23.5612C42.2968 26.1771 43.1687 28.6284 44.6494 30.5698C43.6294 31.2443 41.8855 32.0998 39.7632 32.0669" fill="black"/>
<path d="M62.5488 20.2709C61.792 17.5892 57.9916 14.2165 53.7799 14.2165C51.2134 14.1836 48.8772 15.1872 47.1333 16.8159C48.9266 18.6915 49.9301 21.258 49.9137 23.8574C49.8808 26.2758 48.8936 28.8752 47.1662 30.6191C48.3836 31.7379 49.8808 32.5604 51.5588 32.9388C51.7069 32.7579 51.8714 32.5604 52.036 32.3466C52.5131 32.4453 53.0231 32.4946 53.5331 32.4946C58.3864 32.5604 62.3842 28.6613 62.4665 23.8245C62.4665 22.8209 62.3184 21.8831 62.0223 20.9947C62.2032 20.5341 62.5488 20.2709 62.5488 20.2709M53.5495 32.0504C51.8221 32.034 50.2262 31.4911 48.9101 30.5698C50.3414 28.7107 51.1805 26.391 51.2134 23.8738C51.2463 21.2415 50.3743 18.8066 48.8936 16.8653C50.2756 15.8946 51.9537 15.3353 53.7799 15.3517C58.37 15.4175 62.0716 19.2179 62.0223 23.8245C61.9565 28.4146 58.1561 32.1162 53.5495 32.0504" fill="black"/>
<path d="M48.2359 21.0111C48.4333 20.534 48.7459 20.2872 48.7459 20.2872C48.4498 19.2014 47.5614 18.0333 46.7388 17.2107C45.1758 18.8723 44.2052 21.1098 44.1558 23.5776C44.1229 26.1934 45.1429 28.5625 46.8375 30.3064V29.1548C48.0714 27.4931 48.6143 26.0289 48.6636 23.8408C48.6636 22.8537 48.532 21.8995 48.2194 21.0111M46.7552 28.4309C45.801 27.0654 45.2745 25.3873 45.291 23.594C45.3074 21.8995 45.8504 20.3201 46.7388 19.0204C47.693 20.3859 48.2359 22.064 48.2194 23.8408C48.1865 25.5518 47.6601 27.1312 46.7552 28.4309" fill="black"/>
<path d="M29.5792 27.444C29.1515 26.243 28.9212 24.9433 28.9376 23.5942C28.9705 21.11 29.8589 18.8067 31.2903 16.9805L32.6558 16.9476C30.8625 15.286 28.7238 14.3153 26.2066 14.2824C23.6566 14.2495 21.3368 15.2366 19.6094 16.8654C21.4026 18.7738 22.4227 21.1758 22.3898 23.9068C22.3569 26.4404 21.3368 28.8753 19.6094 30.7014C20.8104 31.8366 22.3733 32.6428 24.002 33.0047C24.1501 32.8073 24.2982 32.6099 24.4792 32.396C24.9563 32.4947 25.4663 32.5441 25.9763 32.5441C27.7531 32.577 30.0728 31.9682 31.4219 30.7343H32.6887C31.8167 29.8459 31.1093 28.7766 30.6322 27.6085C30.2373 27.5756 29.8918 27.5098 29.5957 27.4275M25.9763 32.0834C24.2653 32.0669 22.6859 31.5405 21.3697 30.6192C22.8011 28.7437 23.673 26.4239 23.7059 23.9068C23.7388 21.258 22.8504 18.8231 21.3697 16.8654C22.7517 15.9112 24.4298 15.3682 26.2066 15.3847C27.9341 15.4176 29.5299 15.9605 30.8625 16.8818C29.4476 18.7409 28.5921 21.0606 28.5592 23.5778C28.5263 26.1936 29.3818 28.6285 30.8625 30.5698C29.8425 31.2444 28.0986 32.1163 25.9763 32.0834Z" fill="black"/>
</svg>
