<?xml version="1.0" encoding="utf-8"?>
<!-- Generator: Adobe Illustrator 22.0.1, SVG Export Plug-In . SVG Version: 6.00 Build 0)  -->
<svg version="1.1" id="lni_lni-behance-original" xmlns="http://www.w3.org/2000/svg" xmlns:xlink="http://www.w3.org/1999/xlink"
	 x="0px" y="0px" viewBox="0 0 64 64" style="enable-background:new 0 0 64 64;" xml:space="preserve">
<g>
	<path d="M26.1,29.8c1.7-0.7,3-1.8,3.8-3.1c0.8-1.3,1.3-3,1.3-4.8c0-1.7-0.3-3.2-0.8-4.5c-0.6-1.3-1.4-2.3-2.5-3
		c-1.1-0.7-2.3-1.3-3.8-1.6c-1.6-0.3-3.2-0.4-4.9-0.4H1v38h18.5c1.7,0,3.4-0.1,4.9-0.7c1.7-0.4,3.1-1.1,4.4-2c1.3-0.8,2.3-2,3-3.5
		c0.7-1.4,1.1-3.1,1.1-5.1c0-2.4-0.6-4.5-1.7-6.1C30,31.6,28.3,30.5,26.1,29.8z M9.5,19h7.9c0.7,0,1.4,0.1,2.1,0.1s1.4,0.4,1.8,0.7
		c0.6,0.3,1,0.7,1.3,1.4c0.3,0.6,0.4,1.3,0.4,2.3c0,1.5-0.4,2.8-1.4,3.5c-1,0.6-2.3,1-3.7,1H9.5C9.5,27.8,9.5,19,9.5,19z M24.1,41.5
		c-0.3,0.7-0.7,1.1-1.4,1.5c-0.6,0.4-1.3,0.7-2,0.7c-0.7,0.1-1.5,0.1-2.3,0.1h-9V33.5h9.2c1.8,0,3.2,0.4,4.4,1.3
		c1.1,0.8,1.7,2.3,1.7,4.2C24.5,40,24.5,40.8,24.1,41.5z"/>
	<path d="M62.4,32.5c-0.4-2-1.3-3.7-2.4-5.2c-1.1-1.5-2.5-2.7-4.2-3.7c-1.7-0.8-3.8-1.4-6.1-1.4c-2.1,0-4.1,0.4-5.6,1.1
		c-1.7,0.7-3.2,1.7-4.5,3.1c-1.3,1.3-2.3,2.8-3,4.6c-0.7,1.7-1.1,3.7-1.1,5.8c0,2.1,0.3,4.1,1,5.9c0.7,1.8,1.7,3.2,2.8,4.6
		c1.3,1.3,2.7,2.3,4.5,3c1.7,0.7,3.7,1.1,5.9,1.1c3.1,0,5.8-0.7,8-2.1c2.3-1.4,3.8-3.8,4.9-7.2H56c-0.3,0.8-1,1.7-2,2.4
		c-1,0.7-2.4,1.1-3.9,1.1c-2.1,0-3.8-0.6-4.9-1.7c-1.1-1.1-1.8-3.2-1.8-5.4H63C63,36.4,62.9,34.3,62.4,32.5z M43,33.8
		c0-0.7,0.3-1.4,0.5-2c0.3-0.7,0.6-1.4,1.1-1.9c0.6-0.6,1.4-1.2,2.2-1.6c0.8-0.4,1.8-0.4,2.7-0.4c1.8,0,3.4,0.6,4.2,1.5
		c0.8,1,1.5,2.4,1.7,4.4C55.4,33.8,43,33.8,43,33.8z"/>
	<rect x="41.4" y="15" width="15.5" height="3.8"/>
</g>
</svg>
