<?xml version="1.0" encoding="utf-8"?>
<!-- Generator: Adobe Illustrator 22.0.0, SVG Export Plug-In . SVG Version: 6.00 Build 0)  -->
<svg version="1.1" id="lni_lni-behance" xmlns="http://www.w3.org/2000/svg" xmlns:xlink="http://www.w3.org/1999/xlink" x="0px"
	 y="0px" viewBox="0 0 64 64" style="enable-background:new 0 0 64 64;" xml:space="preserve">
<g>
	<path d="M29.2,25.5c0.8-3.4,0-6.9-2.2-9.6c-2.2-2.7-5.4-4.2-8.8-4.2H7.7c-3.3,0-5.9,2.7-5.9,5.9v28.6c0,3.3,2.7,5.9,5.9,5.9h10.2
		c5.9,0,10.9-4.3,11.5-9.9c0.4-3.2-0.6-6.4-2.7-8.8c-0.6-0.6-1.2-1.2-1.8-1.7C27,30.2,28.7,28,29.2,25.5z M18.3,34.2
		c2,0,3.8,0.8,5.1,2.3c1.3,1.4,1.9,3.3,1.6,5.3c-0.4,3.3-3.5,5.9-7.1,5.9H7.7c-0.8,0-1.4-0.6-1.4-1.4v-12h11.7H18.3z M24.8,24.5
		c-0.6,2.7-3.9,5.2-6.9,5.2H6.3V17.6c0-0.8,0.6-1.4,1.4-1.4h10.6c2.1,0,4,0.9,5.3,2.6C24.8,20.4,25.3,22.4,24.8,24.5z"/>
	<path d="M39.1,17h19.7c1.2,0,2.3-1,2.3-2.3s-1-2.3-2.3-2.3H39.1c-1.2,0-2.3,1-2.3,2.3S37.8,17,39.1,17z"/>
	<path d="M48.2,24.2c-7.8,0-14.1,6.3-14.1,14.1c0,7.8,6.3,14.1,14.1,14.1c3.4,0,6.7-1.2,9.2-3.5c0.9-0.8,1-2.2,0.2-3.2
		c-0.8-0.9-2.2-1-3.2-0.2c-1.7,1.5-4,2.4-6.3,2.4c-4.5,0-8.3-3.1-9.3-7.3H60c1.2,0,2.3-1,2.3-2.3C62.3,30.5,55.9,24.2,48.2,24.2z
		 M48.2,28.7c4.5,0,8.3,3.1,9.3,7.3H38.9C39.9,31.8,43.7,28.7,48.2,28.7z"/>
</g>
</svg>
