<?xml version="1.0" encoding="utf-8"?>
<!-- Generator: Adobe Illustrator 22.0.0, SVG Export Plug-In . SVG Version: 6.00 Build 0)  -->
<svg version="1.1" id="lni_lni-bitbucket" xmlns="http://www.w3.org/2000/svg" xmlns:xlink="http://www.w3.org/1999/xlink" x="0px"
	 y="0px" viewBox="0 0 64 64" style="enable-background:new 0 0 64 64;" xml:space="preserve">
<g>
	<path d="M21.2,13.4c0,3.7,5.8,5.1,10.8,5.1s10.8-1.3,10.8-5.1S37,8.4,32,8.4S21.2,9.7,21.2,13.4z M32,14c-2.1,0-3.8-0.3-4.9-0.6
		c1.1-0.3,2.8-0.6,4.9-0.6c2.1,0,3.8,0.3,4.9,0.6C35.8,13.7,34.1,14,32,14z"/>
	<path d="M32,22.4c-3.5,0-6.4,2.9-6.4,6.4c0,3.5,2.9,6.4,6.4,6.4s6.4-2.9,6.4-6.4C38.4,25.3,35.5,22.4,32,22.4z M32,30.7
		c-1,0-1.9-0.9-1.9-1.9s0.8-1.9,1.9-1.9s1.9,0.9,1.9,1.9S33,30.7,32,30.7z"/>
	<path d="M51.2,5.1c-5-2.2-13.4-3.3-19.2-3.3S17.7,2.9,12.8,5.1c-1.1,0.5-1.8,1.6-1.6,2.8l2.5,26c0.1,0.9,0.7,1.8,1.5,2.2
		C17.5,37.3,25.5,41,32,41c7,0,13.5-1.9,17.4-5.2c0.6-0.5,0.9-1.1,1-1.9l2.5-26.1C53,6.7,52.3,5.5,51.2,5.1z M45.9,32.8
		c-3.1,2.3-8.4,3.7-13.9,3.7c-4.9,0-11.5-2.9-14-4L15.7,8.7c4-1.4,10.7-2.5,16.3-2.5s12.2,1,16.3,2.5L45.9,32.8z"/>
	<path d="M48.2,40.2c-0.8-0.6-1.8-0.7-2.7-0.3L45.2,40c-2.6,1.1-8,3.5-13.2,3.4c-5.8-0.1-11.2-2.5-13.5-3.5c-0.9-0.4-2-0.3-2.7,0.3
		c-0.8,0.6-1.2,1.6-1.1,2.6l1.6,14.1c0.1,1,0.7,1.9,1.7,2.4c3.8,1.9,8.8,3,14,3s10.2-1.1,14-3c0.9-0.5,1.5-1.4,1.7-2.4l1.6-14.1l0,0
		C49.4,41.8,49,40.8,48.2,40.2z M43.3,55.6c-3.1,1.4-7.1,2.2-11.3,2.2s-8.2-0.8-11.3-2.2l-1.2-10.4c3.1,1.2,7.6,2.6,12.4,2.7
		c4.7,0.1,9.3-1.4,12.5-2.7L43.3,55.6z"/>
</g>
</svg>
