<?xml version="1.0" encoding="utf-8"?>
<!-- Generator: Adobe Illustrator 22.0.0, SVG Export Plug-In . SVG Version: 6.00 Build 0)  -->
<svg version="1.1" id="lni_lni-bitcoin" xmlns="http://www.w3.org/2000/svg" xmlns:xlink="http://www.w3.org/1999/xlink" x="0px"
	 y="0px" viewBox="0 0 64 64" style="enable-background:new 0 0 64 64;" xml:space="preserve">
<path d="M47.9,31.9c3.8-2.4,6.3-6.4,6.5-11c0-0.3,0-0.7,0-1c-0.2-7.8-7-14.1-15.1-14.1h-3.5V4c0-1.2-1-2.3-2.3-2.3
	c-1.2,0-2.3,1-2.3,2.3v1.8h-3.9V4c0-1.2-1-2.3-2.3-2.3s-2.3,1-2.3,2.3v1.8H11.8c-1.2,0-2.3,1-2.3,2.3s1,2.3,2.3,2.3h1.8v43.3h-1.8
	c-1.2,0-2.3,1-2.3,2.3s1,2.3,2.3,2.3h11.1v2c0,1.2,1,2.3,2.3,2.3s2.3-1,2.3-2.3v-2h3.9v2c0,1.2,1,2.3,2.3,2.3c1.2,0,2.3-1,2.3-2.3
	v-2h3.4c8.1,0,14.9-6.3,15.1-14.1c0-0.4,0-0.7,0-1.1C54.2,38.3,51.6,34.3,47.9,31.9z M18.1,10.3h21.1c5.7,0,10.5,4.4,10.6,9.8
	c0,0.2,0,0.5,0,0.7c-0.2,4.9-4.5,8.9-9.7,8.9H18.1V10.3z M49.8,43.7L49.8,43.7c-0.2,5.4-4.9,9.8-10.6,9.8H18.1V34.2h22.1h0
	c5.1,0,9.5,3.9,9.6,8.8C49.8,43.2,49.8,43.5,49.8,43.7z"/>
</svg>
