<svg width="65" height="64" viewBox="0 0 65 64" fill="none" xmlns="http://www.w3.org/2000/svg">
<path d="M33.2783 3.93616H33.5175L32.7612 4.0103C37.4676 4.03626 42.1797 5.18182 46.3078 7.45998C51.6612 10.3795 56.0154 15.0952 58.479 20.6766C60.0898 24.3191 60.9388 28.3082 60.8535 32.2955C60.8758 38.7648 58.4493 45.1803 54.2748 50.1092C48.2467 50.8729 42.0036 51.3363 36.0644 49.757C32.5406 48.8802 29.4079 46.6076 27.4022 43.5899C25.365 39.9845 26.062 34.9944 29.1502 32.1916C31.3005 30.2416 34.4035 29.4056 37.2415 30.0395C39.7532 30.553 41.985 32.1898 43.2733 34.4012C44.532 33.7395 45.7813 33.061 47.0418 32.403C46.1539 30.9089 45.0584 29.5205 43.6885 28.4398C41.3844 26.6158 38.463 25.6259 35.5342 25.5444C32.7556 25.511 29.9695 26.3415 27.684 27.9282C23.0424 31.0831 20.7457 37.343 22.351 42.7353C23.376 46.3945 26.0639 49.4011 29.2003 51.4401C31.6953 53.0436 34.5852 53.9129 37.4825 54.4375C41.4641 55.1419 45.5292 54.8824 49.5332 54.5413C49.1309 54.9547 48.5266 54.9306 47.9983 55.0251C43.7256 55.6591 39.3194 55.6795 35.0968 54.6878C31.0465 53.7498 27.189 51.7516 24.3121 48.7171C20.0839 44.1515 19.0941 36.7313 22.4158 31.3872C24.1509 28.5418 26.696 26.0949 29.8602 24.9327C33.3154 23.6444 37.2507 23.6573 40.6875 25.0013C41.2528 23.6907 41.8682 22.4024 42.4225 21.0882C36.754 18.7711 29.9825 19.3717 24.8349 22.7009C22.0173 24.523 19.6983 27.0718 18.0115 29.9654C16.1319 33.2927 15.5239 37.2633 16.0985 41.0244C16.8567 46.096 19.6279 50.8433 23.6912 53.976C25.6672 55.5368 28.0028 56.5878 30.407 57.2977C33.5137 58.2209 36.7558 58.6231 39.9905 58.6973C40.4483 58.7047 40.908 58.7232 41.364 58.7807C40.7134 59.1181 39.959 59.0161 39.2527 59.0365C35.4101 59.1162 31.5377 58.5193 27.9342 57.1736C25.1926 56.1411 22.6049 54.6007 20.5714 52.4726C18.4379 50.3539 16.6435 47.8459 15.6036 45.0098C14.382 41.6528 14.0002 37.9621 14.6545 34.442C15.4479 30.2546 17.8391 26.4898 20.97 23.6462C24.7255 20.2151 29.8101 18.2669 34.9003 18.3503C34.9021 16.9118 34.8984 15.4715 34.904 14.0331C30.5108 14.035 26.1158 15.1824 22.3176 17.3994C17.2978 20.3189 13.3532 25.0105 11.2604 30.4195C9.72375 34.4717 9.14912 38.9872 10.1927 43.234C11.3865 48.4205 14.6805 53.0362 19.0922 55.9872C19.7799 56.4914 20.5659 56.8417 21.2406 57.3663C20.9292 57.3459 20.6122 57.3089 20.3323 57.1606C18.9105 56.4803 17.5815 55.622 16.3191 54.6804C14.0465 52.962 11.9037 51.0175 10.278 48.6615C8.24452 45.8384 6.6411 42.6779 5.75505 39.3023C4.91348 36.1807 4.72255 32.9146 4.94499 29.6985C5.4807 22.8028 8.72833 16.1741 13.8167 11.4936C17.9559 7.64535 23.2796 5.09285 28.8814 4.31245C30.3366 4.07889 31.8158 4.10113 33.2783 3.93616Z" fill="black"/>
</svg>
