<svg width="65" height="64" viewBox="0 0 65 64" fill="none" xmlns="http://www.w3.org/2000/svg">
<path d="M32.9849 0C15.3503 0 0.984863 14.3424 0.984863 32C0.984863 49.6575 15.3273 64 32.9849 64C50.6424 64 64.9849 49.6575 64.9849 32C64.9849 14.3424 50.6424 0 32.9849 0M32.9849 63.1022C15.8338 63.1022 1.8827 49.1511 1.8827 32C1.8827 14.8489 15.8338 0.897841 32.9849 0.897841C50.1359 0.897841 64.087 14.8489 64.087 32C64.087 49.1511 50.1359 63.1022 32.9849 63.1022Z" fill="black"/>
<path d="M14.7517 19.4302C14.7517 19.4302 14.8208 19.4763 14.8438 19.4993C14.8438 19.4993 14.8668 19.4993 14.8668 19.4763C15.4884 18.6935 16.11 17.9108 16.7316 17.1281C16.9618 16.8518 17.192 16.5525 17.4222 16.2763C17.6524 16 17.6985 15.6087 17.5604 15.2864C17.3762 14.941 17.0539 14.7108 16.6395 14.7108C16.3172 14.7108 16.064 14.895 15.8568 15.1482C15.5805 15.4935 15.3043 15.8389 15.028 16.1842C14.4525 16.8979 13.8999 17.5885 13.3474 18.3022C13.6467 18.5324 13.923 18.7626 14.2222 19.0159C14.4064 19.154 14.5676 19.2921 14.7287 19.4302" fill="black"/>
<path d="M32.9849 1.42737C16.1101 1.42737 2.4353 15.1022 2.4353 31.977C2.4353 48.8518 16.1101 62.5266 32.9849 62.5266C49.8598 62.5266 63.5346 48.8518 63.5346 31.977C63.5346 15.1022 49.8598 1.42737 32.9849 1.42737M28.0583 3.33816L30.913 3.01586L32.9849 9.07053L35.0569 3.01586L37.9116 3.33816L38.2339 11.9252L36.0008 11.6029L35.7936 5.87053L33.7907 11.6029H32.2022L30.1763 5.87053L29.9691 11.6029L27.736 11.9252L28.0583 3.33816V3.33816ZM8.76624 17.4964C8.53602 17.3123 8.30581 17.1281 8.07559 16.9439L8.00652 16.8748C8.05256 16.8288 8.07559 16.7828 8.12164 16.7367C8.7202 16 9.29573 15.2633 9.89429 14.5036C10.5849 13.6518 11.2756 12.777 11.9662 11.9022C12.1044 11.741 12.2195 11.5799 12.3576 11.3957C12.5878 11.0964 12.9101 10.8892 13.2554 10.7511C13.9921 10.4749 14.8439 10.659 15.4195 11.2115C15.6957 11.4878 15.9029 11.8331 15.995 12.2015C16.0871 12.5928 16.0641 12.9612 15.949 13.3525C15.995 13.3065 16.0411 13.2605 16.1101 13.2144C16.7777 12.754 17.6526 12.6159 18.4123 12.9612C19.172 13.3065 19.6554 13.9972 19.7705 14.8029C19.7936 15.1022 19.7706 15.4245 19.7015 15.7238C19.5173 16.2993 19.1259 16.7367 18.7576 17.1741C18.0439 18.072 17.3303 18.9468 16.6166 19.8446C16.018 20.5813 15.4195 21.318 14.8439 22.0547C14.7979 22.1238 14.7518 22.1698 14.7058 22.2159C14.7058 22.2159 14.6598 22.1698 14.6367 22.1698C14.4295 21.9856 14.1993 21.8245 13.9691 21.6403C13.0943 20.9497 12.2425 20.259 11.3677 19.5684C10.4929 18.8777 9.61803 18.1641 8.74321 17.4734M32.9619 51.0619C22.418 51.0619 13.877 42.5209 13.877 31.954C13.877 21.3871 22.418 12.8691 32.9619 12.8691C43.5058 12.8691 52.0468 21.4101 52.0468 31.954C52.0468 42.4979 43.5058 51.0619 32.9619 51.0619ZM51.149 22.1007L50.0439 20.213L53.8195 15.2633L48.1562 17.8648L46.5677 16.3914L51.7245 9.60003L53.313 11.0734L50.3202 14.9871L55.0857 12.8L56.49 14.5497L53.313 18.7166L57.7792 16.6677L58.8842 18.5554L51.1259 22.1238L51.149 22.1007Z" fill="black"/>
<path d="M14.6596 13.9741C14.7287 13.6518 14.6596 13.3295 14.4294 13.0993C14.1531 12.8 13.7387 12.7079 13.3474 12.8691C13.0711 12.9842 12.9099 13.2144 12.7488 13.4446C12.0581 14.2734 11.4135 15.1252 10.7229 15.9539C10.7229 15.9539 10.5617 16.1381 10.5848 16.1381C10.7229 16.2532 10.861 16.3453 10.9992 16.4604C11.3675 16.7597 11.7128 17.036 12.0582 17.3352C12.4265 16.8978 12.7718 16.4604 13.1171 16C13.4855 15.5626 13.8308 15.1252 14.1761 14.6878C14.3373 14.4575 14.5445 14.2734 14.6366 13.9971" fill="black"/>
<path d="M14.8438 31.977H32.9848V13.859C23.0855 14.1122 15.12 22.1007 14.8438 31.977Z" fill="black"/>
<path d="M32.9849 50.118C42.8841 49.8648 50.8496 41.8763 51.1259 31.977H32.9849V50.118Z" fill="black"/>
</svg>
