<svg width="65" height="64" viewBox="0 0 65 64" fill="none" xmlns="http://www.w3.org/2000/svg">
<path fill-rule="evenodd" clip-rule="evenodd" d="M13.3526 7C9.70082 7 6.9987 10.1346 7.1197 13.534C7.23582 16.8 7.08495 21.0298 5.9992 24.4792C4.90957 27.9384 3.06807 30.1304 0.0595703 30.4117V33.5883C3.06807 33.8702 4.90957 36.0612 5.99907 39.5208C7.08495 42.9702 7.2357 47.2 7.11957 50.466C6.99857 53.8649 9.7007 57 13.3531 57H50.7714C54.4232 57 57.1248 53.8654 57.0038 50.466C56.8877 47.2 57.0386 42.9702 58.1243 39.5208C59.2139 36.0612 61.0509 33.8694 64.0596 33.5883V30.4117C61.0511 30.1298 59.2141 27.9388 58.1243 24.4792C57.0384 21.0303 56.8877 16.8 57.0038 13.534C57.1248 10.1351 54.4232 7 50.7714 7H13.3521H13.3526ZM43.4494 37.7783C43.4494 42.4591 39.8893 45.2979 33.9812 45.2979H23.9239C23.6363 45.2979 23.3603 45.1859 23.1569 44.9863C22.9535 44.7868 22.8392 44.5162 22.8392 44.2341V19.766C22.8392 19.4839 22.9535 19.2133 23.1569 19.0138C23.3603 18.8143 23.6363 18.7022 23.9239 18.7022H33.9239C38.8503 18.7022 42.0834 21.3192 42.0834 25.3372C42.0834 28.1574 39.9084 30.6822 37.1376 31.1245V31.2716C40.9096 31.6773 43.4494 34.2395 43.4494 37.7783V37.7783ZM32.8846 22.0745H27.1501V30.0183H31.9799C35.7137 30.0183 37.7724 28.5438 37.7724 25.9083C37.7721 23.4383 36.0021 22.0745 32.8846 22.0745ZM27.1501 33.1702V41.9245H33.0956C36.9831 41.9245 39.0422 40.3947 39.0422 37.5197C39.0422 34.6448 36.9253 33.1698 32.8456 33.1698H27.1501V33.1702Z" fill="black"/>
</svg>
