<svg width="64" height="64" viewBox="0 0 64 64" fill="none" xmlns="http://www.w3.org/2000/svg">
<path fill-rule="evenodd" clip-rule="evenodd" d="M40.7836 2.85205L45.7853 8.6334C45.7853 8.6334 50.1771 7.3905 52.251 9.50343C54.3249 11.6164 56.0329 13.4807 56.0329 13.4807L54.6909 16.8365L56.3988 21.8081C56.3988 21.8081 51.3756 41.1918 50.7871 43.5589C49.6282 48.2198 48.8352 50.022 45.5413 52.3835C42.2475 54.745 36.2698 58.8466 35.2938 59.468C35.0836 59.6019 34.8621 59.756 34.6329 59.9155L34.6328 59.9156L34.6327 59.9156C33.7979 60.4964 32.8614 61.148 32 61.148C31.1385 61.148 30.202 60.4964 29.3672 59.9156C29.1379 59.7561 28.9164 59.6019 28.7061 59.468C27.7302 58.8466 21.7524 54.745 18.4586 52.3835C15.1647 50.022 14.3718 48.2198 13.2128 43.5589C12.6242 41.1918 7.60107 21.8081 7.60107 21.8081L9.309 16.8365L7.96706 13.4807C7.96706 13.4807 9.67498 11.6164 11.7489 9.50343C13.8228 7.3905 18.2146 8.6334 18.2146 8.6334L23.2164 2.85205H32H40.7836ZM19.6175 12.3C19.6175 12.3 13.184 20.2234 13.184 21.9169C13.184 23.3171 13.7372 23.8651 14.3888 24.5106L14.3888 24.5106C14.5253 24.6458 14.666 24.7852 14.8069 24.9376L19.6308 30.1565C19.6786 30.2081 19.7318 30.2626 19.7881 30.3203C20.2696 30.8135 20.9788 31.5399 20.4784 32.7463C20.445 32.8268 20.4107 32.9087 20.3758 32.9918L20.3756 32.9923L20.3756 32.9924C19.8272 34.2993 19.1502 35.9125 20.0121 37.5474C20.929 39.2864 22.4996 40.4472 23.5061 40.2553C24.5125 40.0632 26.8762 38.8048 27.7454 38.23C28.6146 37.6551 31.3694 35.3403 31.3694 34.4547C31.3694 33.7159 29.3877 32.4868 28.4252 31.8898L28.4251 31.8898L28.425 31.8897C28.2338 31.7711 28.0828 31.6775 27.9956 31.6176C27.8962 31.5494 27.73 31.4442 27.5254 31.3147L27.5252 31.3145L27.525 31.3144C26.6463 30.7582 25.0604 29.7543 25.0207 29.3092C24.9715 28.7602 24.9903 28.5992 25.6985 27.243C25.8491 26.9544 26.0254 26.6453 26.2076 26.3259C26.8819 25.1439 27.6368 23.8205 27.4697 22.8724C27.281 21.8022 25.635 21.1885 24.2407 20.6687C24.0663 20.6037 23.8959 20.5401 23.7328 20.4774C23.3258 20.3208 22.8143 20.1256 22.2802 19.9218L22.2791 19.9214L22.2786 19.9211L22.2775 19.9207C20.886 19.3897 19.3411 18.8001 19.0861 18.6804C18.7331 18.5145 18.8243 18.3565 19.8937 18.2532C20.0353 18.2395 20.2113 18.2205 20.4133 18.1986C21.7373 18.0553 24.1788 17.7909 25.3659 18.128C25.5993 18.1943 25.8609 18.2665 26.1353 18.3422L26.1358 18.3423L26.1358 18.3423C27.4696 18.7103 29.1039 19.1612 29.2609 19.4212C29.2884 19.4667 29.3154 19.5058 29.3409 19.5427C29.491 19.7602 29.589 19.9021 29.4228 20.8265C29.3735 21.1007 29.2724 21.6389 29.1472 22.3046C28.7789 24.2646 28.2027 27.3301 28.1302 28.018C28.1201 28.1139 28.1089 28.2065 28.0982 28.2955L28.0982 28.296L28.0981 28.2962C28.006 29.0626 27.9446 29.5726 28.8183 29.7761L29.0456 29.8292C30.0312 30.0597 31.4776 30.3978 32 30.3978C32.5221 30.3978 33.9673 30.0599 34.9531 29.8295L35.1816 29.7761C36.0552 29.5726 35.9938 29.0626 35.9017 28.2962C35.8909 28.207 35.8798 28.1142 35.8696 28.018C35.7972 27.3311 35.2226 24.2733 34.8542 22.3129L34.8542 22.3128L34.854 22.312C34.7282 21.6429 34.6265 21.1017 34.5771 20.8265C34.4108 19.9021 34.5088 19.7602 34.659 19.5427L34.659 19.5426L34.6591 19.5426C34.6845 19.5057 34.7115 19.4666 34.739 19.4212C34.896 19.1612 36.5305 18.7102 37.8642 18.3423L37.8645 18.3422C38.1389 18.2665 38.4005 18.1943 38.6339 18.128C39.821 17.7909 42.2628 18.0553 43.5867 18.1986C43.7887 18.2205 43.9646 18.2395 44.1061 18.2532C45.1756 18.3565 45.2668 18.5145 44.9137 18.6804C44.6586 18.8002 43.1123 19.3903 41.7203 19.9215L41.7198 19.9217L41.7196 19.9218C41.1854 20.1257 40.6741 20.3208 40.2671 20.4774C40.1047 20.5399 39.935 20.6031 39.7614 20.6679L39.76 20.6684L39.7595 20.6686C38.3651 21.1884 36.7189 21.8021 36.5302 22.8724C36.3631 23.8206 37.1182 25.1443 37.7925 26.3264C37.9746 26.6456 38.1509 26.9546 38.3015 27.243C39.0096 28.5992 39.0283 28.7602 38.9793 29.3092C38.9394 29.7544 37.3529 30.7586 36.4743 31.3147L36.4742 31.3148C36.2697 31.4442 36.1035 31.5494 36.0042 31.6176C35.9169 31.6776 35.7657 31.7713 35.5743 31.8901C34.6116 32.4872 32.6304 33.716 32.6304 34.4547C32.6304 35.3403 35.3853 37.6551 36.2545 38.23C37.1237 38.8048 39.4874 40.0632 40.4938 40.2553C41.5003 40.4472 43.0709 39.2864 43.9879 37.5474C44.8498 35.9124 44.1726 34.299 43.6241 32.9921C43.5892 32.9089 43.5548 32.8269 43.5214 32.7463C43.021 31.54 43.7301 30.8137 44.2116 30.3204C44.2679 30.2627 44.3212 30.2082 44.369 30.1565L49.1929 24.9376C49.3338 24.7852 49.4746 24.6457 49.6111 24.5105C50.2626 23.8651 50.8159 23.317 50.8159 21.9169C50.8159 20.2234 44.3824 12.3 44.3824 12.3C44.3824 12.3 38.9536 13.3564 38.2217 13.3564C37.6376 13.3564 36.5098 12.9607 35.3341 12.5482C35.0364 12.4438 34.7356 12.3383 34.4398 12.2378C32.9759 11.7407 32 11.737 32 11.737C32 11.737 32.0088 11.7371 32.0261 11.7376H31.9738C31.9897 11.7371 31.9984 11.7371 31.9998 11.737C31.9847 11.7371 31.0126 11.7445 29.5601 12.2378C29.2643 12.3383 28.9635 12.4438 28.6659 12.5482C27.4902 12.9607 26.3623 13.3564 25.7782 13.3564C25.0463 13.3564 19.6175 12.3 19.6175 12.3ZM36.1961 40.8075C34.4768 39.9012 32.3343 39.1306 31.9999 39.1306C31.6655 39.1306 29.523 39.9012 27.8039 40.8075C27.4149 41.0126 27.0501 41.2041 26.7139 41.3806L26.712 41.3817C25.5633 41.9847 24.7484 42.4125 24.4404 42.6089C24.0422 42.8629 24.285 43.3418 24.6478 43.6031C25.0106 43.8643 29.8855 47.7104 30.3587 48.1354C30.4191 48.1897 30.4831 48.2484 30.5498 48.3097C31.0057 48.7284 31.5875 49.2627 31.9999 49.2627C32.4122 49.2627 32.9936 48.7288 33.4495 48.3102C33.5164 48.2488 33.5806 48.1898 33.6411 48.1354C34.1142 47.7104 38.9892 43.8643 39.352 43.6031C39.7147 43.3418 39.9576 42.8629 39.5594 42.6089C39.2516 42.4126 38.4376 41.9852 37.2901 41.3828C36.9528 41.2057 36.5866 41.0135 36.1961 40.8075Z" fill="black"/>
</svg>
