<svg width="65" height="64" viewBox="0 0 65 64" fill="none" xmlns="http://www.w3.org/2000/svg">
<path fill-rule="evenodd" clip-rule="evenodd" d="M55.5175 1.1C52.0175 0 48.8175 0 42.4175 0H23.0175C16.6175 0 13.4175 0 9.91753 1.1C8.05948 1.7797 6.37211 2.8566 4.97312 4.25559C3.57413 5.65458 2.49723 7.34195 1.81753 9.2C0.717529 12.66 0.717529 15.88 0.717529 22.3V41.69C0.717529 48.1 0.717529 51.3 1.81753 54.8C2.49723 56.658 3.57413 58.3454 4.97312 59.7444C6.37211 61.1434 8.05948 62.2203 9.91753 62.9C13.3775 64 16.5975 64 23.0175 64H42.4175C48.8175 64 52.0175 64 55.5175 62.88C57.3756 62.2003 59.063 61.1234 60.4619 59.7244C61.8609 58.3254 62.9378 56.638 63.6175 54.78C64.7175 51.32 64.7175 48.1 64.7175 41.68V22.31C64.7175 15.9 64.7175 12.7 63.6175 9.2C62.9378 7.34195 61.8609 5.65458 60.4619 4.25559C59.063 2.8566 57.3756 1.7797 55.5175 1.1ZM44.9875 23.8C44.5175 24.3 43.6875 24.3 43.1875 23.8L43.2075 23.82C41.0975 21.92 37.8675 20.53 34.5075 20.53C31.8675 20.53 29.2375 21.49 29.2375 23.91C29.2375 26.2128 31.6494 27.0958 34.5906 28.1726C34.8298 28.2602 35.0724 28.349 35.3175 28.44C41.0175 30.41 45.7175 32.83 45.7175 38.57C45.7175 44.8 40.9975 49.07 33.2495 49.59L32.5495 52.98C32.4893 53.28 32.3267 53.5497 32.0895 53.743C31.8524 53.9364 31.5555 54.0414 31.2495 54.04L26.3995 54C25.5695 53.99 24.9595 53.22 25.1295 52.39L25.8695 48.82C22.8375 47.99 20.1775 46.49 18.0775 44.42C17.8235 44.1651 17.6809 43.8199 17.6809 43.46C17.6809 43.1001 17.8235 42.7549 18.0775 42.5L20.7775 39.8C20.8983 39.6791 21.0417 39.5831 21.1995 39.5176C21.3574 39.4522 21.5266 39.4185 21.6975 39.4185C21.8684 39.4185 22.0377 39.4522 22.1955 39.5176C22.3534 39.5831 22.4968 39.6791 22.6175 39.8C25.2175 42.41 28.5775 43.48 31.7775 43.48C35.2975 43.48 37.6775 42.02 37.6775 39.53C37.6775 37.3423 35.7244 36.6093 32.0177 35.2181C31.624 35.0703 31.2105 34.9151 30.7775 34.75C26.0075 33.04 21.4975 30.55 21.4975 24.75C21.4975 18.05 26.9575 14.78 33.3975 14.45L34.0975 11.07C34.1571 10.7734 34.3168 10.5062 34.5498 10.3133C34.7828 10.1203 35.075 10.0132 35.3775 10.01H40.2175C41.0475 10.01 41.6675 10.79 41.4975 11.62L40.7075 15.42C43.1791 16.2438 45.463 17.5489 47.4275 19.26C47.9875 19.8 48.0175 20.7 47.4875 21.2L44.9875 23.8Z" fill="black"/>
</svg>
