<?xml version="1.0" encoding="utf-8"?>
<!-- Generator: Adobe Illustrator 22.0.0, SVG Export Plug-In . SVG Version: 6.00 Build 0)  -->
<svg version="1.1" id="lni_lni-chrome" xmlns="http://www.w3.org/2000/svg" xmlns:xlink="http://www.w3.org/1999/xlink" x="0px"
	 y="0px" viewBox="0 0 64 64" style="enable-background:new 0 0 64 64;" xml:space="preserve">
<path d="M61.4,39c3.2-13.5-3.2-27.9-16.2-34.2c-3.1-1.5-6.4-2.4-9.7-2.8c-0.1,0-0.2,0-0.3,0C22.9,0.6,10.5,7,4.8,18.8
	c-5.1,10.4-3.6,22.3,2.8,31.1c0.1,0.1,0.1,0.2,0.2,0.3c2.8,3.7,6.5,6.9,11,9.1c4.2,2.1,8.7,3,13.2,3c11.2,0,22-6.3,27.3-17
	c1-2,1.7-4,2.2-6.1C61.4,39.1,61.4,39,61.4,39z M57.6,34.9L38.8,22.6c-0.3-0.2-0.6-0.4-0.9-0.6l-0.1,0c-0.1-0.1-0.2-0.1-0.2-0.1
	c-0.2-0.1-0.3-0.2-0.5-0.3c-2.3-1.1-4.9-1.4-7.4-0.9l6.8-14c2.3,0.4,4.6,1.1,6.8,2.2C53.3,13.7,58.8,24.3,57.6,34.9z M38.4,35.1
	c-1.7,3.5-6,5-9.5,3.3c-3.5-1.7-5-6-3.3-9.5c1.2-2.5,3.8-4,6.4-4c1,0,2.1,0.2,3.1,0.7c0.1,0.1,0.2,0.1,0.4,0.2l0.9,0.6
	C38.9,28.4,39.9,32,38.4,35.1z M8.8,20.8c3-6.2,8.2-10.8,14.7-13.1c2.6-0.9,5.3-1.4,8.1-1.4l-10,20.7c-2.5,5.2-0.8,11.3,3.7,14.5
	L10.4,46C5.7,38.7,4.8,29.2,8.8,20.8z M20.8,55.2c-2.8-1.4-5.3-3.2-7.3-5.3L35.7,43c0.2,0,0.3-0.1,0.4-0.2c2.6-1,4.9-3,6.3-5.7
	c0.9-1.9,1.3-4,1.1-6l13.1,8.5c-0.4,1.2-0.9,2.4-1.4,3.6C49,56,33.5,61.4,20.8,55.2z"/>
</svg>
