<svg width="64" height="64" viewBox="0 0 64 64" fill="none" xmlns="http://www.w3.org/2000/svg">
<path d="M43.5493 48.3285V45.3659L43.4907 45.3925C42.824 45.7152 42.0987 45.8992 41.3547 45.9339C40.5851 45.9925 39.8207 45.7677 39.2053 45.3019C38.7665 44.9632 38.4395 44.5005 38.2667 43.9739C38.0799 43.3985 38.0586 42.7821 38.2053 42.1952C38.344 41.5952 38.68 41.0592 39.1573 40.6779C39.584 40.3205 40.104 40.0965 40.656 40.0325C41.6306 39.9234 42.6157 40.1072 43.4853 40.5605L43.5493 40.5952V37.6165L43.4133 37.5792C42.543 37.3015 41.6298 37.1822 40.7173 37.2272C39.8861 37.248 39.0674 37.4348 38.3093 37.7765C37.544 38.1285 36.8693 38.6485 36.3387 39.2992C35.529 40.322 35.0797 41.5834 35.0604 42.8878C35.0411 44.1921 35.4529 45.4663 36.232 46.5125C37.0187 47.5205 38.1227 48.2325 39.3653 48.5285C40.6747 48.8485 42.048 48.8005 43.3307 48.3899L43.5493 48.3285M14.2293 48.3285V45.3659L14.1707 45.3925C13.504 45.7152 12.7787 45.8992 12.0347 45.9339C11.265 45.9933 10.5003 45.7684 9.88533 45.3019C9.44655 44.9637 9.12028 44.5008 8.94933 43.9739C8.76052 43.3989 8.73833 42.7822 8.88533 42.1952C9.024 41.5952 9.35733 41.0592 9.83733 40.6779C10.264 40.3205 10.784 40.0965 11.336 40.0325C12.3106 39.9234 13.2957 40.1072 14.1653 40.5605L14.2293 40.5952V37.6165L14.0933 37.5792C13.223 37.3015 12.3098 37.1822 11.3973 37.2272C10.5661 37.2483 9.74747 37.4351 8.98933 37.7765C8.22456 38.1278 7.54974 38.6485 7.016 39.2992C6.20722 40.3223 5.7582 41.5834 5.73844 42.8873C5.71867 44.1913 6.12927 45.4654 6.90667 46.5125C7.69253 47.5214 8.79861 48.2324 10.0427 48.5285C11.352 48.8485 12.7227 48.8005 14.008 48.3899L14.2293 48.3285M24.6933 45.8699L24.6827 48.4219L24.8693 48.4539C25.456 48.5632 26.0453 48.6379 26.64 48.6805C27.16 48.7312 27.6827 48.7392 28.2053 48.7125C28.704 48.6752 29.1973 48.5819 29.6747 48.4352C30.2347 48.2752 30.7547 48.0005 31.1973 47.6219C31.5969 47.2794 31.9026 46.8407 32.0853 46.3472C32.4033 45.5223 32.3966 44.6074 32.0667 43.7872C31.8948 43.3604 31.6222 42.9816 31.272 42.6832C30.9327 42.3798 30.5353 42.1485 30.104 42.0032L28.1787 41.2885C27.9487 41.1904 27.7621 41.0123 27.6533 40.7872C27.6113 40.6949 27.5914 40.594 27.5951 40.4927C27.5988 40.3913 27.626 40.2922 27.6747 40.2032C27.7736 40.0412 27.9158 39.91 28.0853 39.8245C28.3011 39.7207 28.5327 39.654 28.7707 39.6272C29.1787 39.5685 29.592 39.5712 29.9973 39.6405C30.4773 39.6939 30.952 39.7765 31.4187 39.8965L31.52 39.9179V37.5632L31.336 37.5232C30.8588 37.409 30.3753 37.3226 29.888 37.2645C29.2562 37.1819 28.6165 37.1792 27.984 37.2565C27.184 37.3285 26.424 37.6379 25.7947 38.1365C25.368 38.4725 25.0453 38.9179 24.8587 39.4272C24.5813 40.2005 24.5787 41.0485 24.8587 41.8245C25.0027 42.2112 25.232 42.5552 25.5307 42.8405C25.7893 43.0885 26.0827 43.3019 26.4027 43.4699C26.8213 43.6939 27.2667 43.8672 27.728 43.9899C27.88 44.0352 28.032 44.0832 28.1813 44.1339L28.408 44.2165L28.472 44.2432C28.696 44.3232 28.904 44.4512 29.0747 44.6165C29.1947 44.7285 29.288 44.8672 29.344 45.0192C29.3809 45.1598 29.3818 45.3075 29.3467 45.4485C29.2746 45.6761 29.1155 45.8659 28.904 45.9765C28.6743 46.0939 28.4263 46.1714 28.1707 46.2059C27.7941 46.2645 27.4125 46.2833 27.032 46.2619C26.5337 46.2229 26.0379 46.157 25.5467 46.0645C25.2906 46.0091 25.0355 45.9495 24.7813 45.8859L24.6933 45.8699V45.8699ZM18.0933 48.5232H20.8933V37.4112H18.0933V48.5232ZM50.5253 40.6939C50.8228 40.4516 51.165 40.2703 51.5326 40.1603C51.9001 40.0504 52.2857 40.0139 52.6673 40.0531C53.0489 40.0922 53.4191 40.2061 53.7567 40.3884C54.0942 40.5706 54.3926 40.8176 54.6347 41.1152C54.8774 41.4123 55.0592 41.7544 55.1696 42.1219C55.2799 42.4894 55.3167 42.875 55.2778 43.2567C55.2389 43.6384 55.1251 44.0087 54.9429 44.3464C54.7607 44.6841 54.5137 44.9825 54.216 45.2245L54.1707 45.2619C53.5633 45.7276 52.7976 45.9364 52.0379 45.8436C51.2782 45.7508 50.5852 45.3637 50.1079 44.7655C49.6305 44.1673 49.4068 43.4058 49.4849 42.6444C49.5629 41.8831 49.9365 41.1827 50.5253 40.6939M46.4587 42.9712C46.4722 43.8385 46.6786 44.692 47.0628 45.4697C47.4469 46.2474 47.9993 46.9299 48.6799 47.4678C49.3604 48.0056 50.1521 48.3853 50.9975 48.5794C51.843 48.7735 52.721 48.7771 53.568 48.5899C54.7047 48.3748 55.7491 47.8192 56.5626 46.9968C57.3762 46.1744 57.9205 45.1241 58.1233 43.9852C58.3261 42.8463 58.1778 41.6726 57.6981 40.62C57.2183 39.5673 56.4299 38.6854 55.4373 38.0912C54.5549 37.5457 53.544 37.2431 52.507 37.2142C51.4699 37.1852 50.4437 37.4309 49.5322 37.9263C48.6207 38.4217 47.8564 39.1492 47.3166 40.0352C46.7769 40.9211 46.4809 41.934 46.4587 42.9712ZM61.2293 28.4805C61.245 28.8374 61.3978 29.1745 61.6559 29.4215C61.914 29.6685 62.2574 29.8064 62.6147 29.8064C62.9719 29.8064 63.3154 29.6685 63.5735 29.4215C63.8315 29.1745 63.9843 28.8374 64 28.4805V25.4005C63.9843 25.0436 63.8315 24.7066 63.5735 24.4595C63.3154 24.2125 62.9719 24.0747 62.6147 24.0747C62.2574 24.0747 61.914 24.2125 61.6559 24.4595C61.3978 24.7066 61.245 25.0436 61.2293 25.4005V28.4805ZM53.6453 28.4805C53.6719 28.8305 53.8297 29.1574 54.0871 29.396C54.3444 29.6345 54.6824 29.7671 55.0333 29.7671C55.3843 29.7671 55.7222 29.6345 55.9796 29.396C56.237 29.1574 56.3948 28.8305 56.4213 28.4805V21.5765C56.3994 21.2236 56.2438 20.8924 55.9862 20.6502C55.7285 20.4081 55.3882 20.2732 55.0347 20.2732C54.6811 20.2732 54.3408 20.4081 54.0832 20.6502C53.8255 20.8924 53.6699 21.2236 53.648 21.5765V28.4805M45.9493 31.2619C45.9759 31.6111 46.1334 31.9374 46.3902 32.1755C46.6471 32.4136 46.9844 32.5459 47.3347 32.5459C47.6849 32.5459 48.0222 32.4136 48.2791 32.1755C48.536 31.9374 48.6934 31.6111 48.72 31.2619V16.3259C48.7043 15.969 48.5515 15.6319 48.2935 15.3849C48.0354 15.1379 47.6919 15 47.3347 15C46.9774 15 46.634 15.1379 46.3759 15.3849C46.1178 15.6319 45.965 15.969 45.9493 16.3259V31.2619ZM38.3813 28.4805C38.4032 28.8334 38.5589 29.1647 38.8165 29.4069C39.0741 29.649 39.4144 29.7838 39.768 29.7838C40.1216 29.7838 40.4619 29.649 40.7195 29.4069C40.9771 29.1647 41.1328 28.8334 41.1547 28.4805V21.5765C41.139 21.2196 40.9862 20.8826 40.7281 20.6355C40.47 20.3885 40.1266 20.2507 39.7693 20.2507C39.4121 20.2507 39.0686 20.3885 38.8105 20.6355C38.5525 20.8826 38.3997 21.2196 38.384 21.5765V28.4805M30.6507 28.4805C30.6845 28.8245 30.845 29.1436 31.1011 29.3757C31.3571 29.6079 31.6904 29.7365 32.036 29.7365C32.3816 29.7365 32.7149 29.6079 32.9709 29.3757C33.227 29.1436 33.3875 28.8245 33.4213 28.4805V25.4005C33.4057 25.0436 33.2529 24.7066 32.9948 24.4595C32.7367 24.2125 32.3932 24.0747 32.036 24.0747C31.6788 24.0747 31.3353 24.2125 31.0772 24.4595C30.8191 24.7066 30.6663 25.0436 30.6507 25.4005V28.4805ZM22.9973 28.4805C23.013 28.8374 23.1658 29.1745 23.4239 29.4215C23.682 29.6685 24.0254 29.8064 24.3827 29.8064C24.7399 29.8064 25.0834 29.6685 25.3415 29.4215C25.5995 29.1745 25.7523 28.8374 25.768 28.4805V21.5765C25.7523 21.2196 25.5995 20.8826 25.3415 20.6355C25.0834 20.3885 24.7399 20.2507 24.3827 20.2507C24.0254 20.2507 23.682 20.3885 23.4239 20.6355C23.1658 20.8826 23.013 21.2196 22.9973 21.5765V28.4805ZM15.2987 31.2619C15.3143 31.6188 15.4671 31.9559 15.7252 32.2029C15.9833 32.4499 16.3268 32.5877 16.684 32.5877C17.0412 32.5877 17.3847 32.4499 17.6428 32.2029C17.9009 31.9559 18.0537 31.6188 18.0693 31.2619V16.3259C18.0537 15.969 17.9009 15.6319 17.6428 15.3849C17.3847 15.1379 17.0412 15 16.684 15C16.3268 15 15.9833 15.1379 15.7252 15.3849C15.4671 15.6319 15.3143 15.969 15.2987 16.3259V31.2619ZM7.66933 28.4805C7.69978 28.8273 7.85905 29.1501 8.11573 29.3852C8.37242 29.6204 8.70789 29.7508 9.056 29.7508C9.40411 29.7508 9.73958 29.6204 9.99627 29.3852C10.253 29.1501 10.4122 28.8273 10.4427 28.4805V21.5765C10.427 21.2196 10.2742 20.8826 10.0161 20.6355C9.75803 20.3885 9.41458 20.2507 9.05733 20.2507C8.70009 20.2507 8.35663 20.3885 8.09855 20.6355C7.84046 20.8826 7.68766 21.2196 7.672 21.5765V28.4805M0 28.4805C0.0265578 28.8298 0.184034 29.1561 0.440907 29.3942C0.697781 29.6322 1.0351 29.7645 1.38533 29.7645C1.73557 29.7645 2.07289 29.6322 2.32976 29.3942C2.58663 29.1561 2.74411 28.8298 2.77067 28.4805V25.4005C2.755 25.0436 2.60221 24.7066 2.34412 24.4595C2.08603 24.2125 1.74257 24.0747 1.38533 24.0747C1.02809 24.0747 0.684633 24.2125 0.426547 24.4595C0.168461 24.7066 0.0156623 25.0436 0 25.4005L0 28.4805Z" fill="black"/>
</svg>
