<svg width="65" height="64" viewBox="0 0 65 64" fill="none" xmlns="http://www.w3.org/2000/svg">
<path d="M7.64021 38.2903C5.74709 38.2903 3.89404 36.928 3.89404 33.853C3.89404 30.7679 5.74709 29.4257 7.64021 29.4257C8.57174 29.4257 9.30294 29.6661 9.8238 30.0066L9.25286 31.2587C8.90228 31.0083 8.38143 30.848 7.86057 30.848C6.71869 30.848 5.67698 31.7495 5.67698 33.8329C5.67698 35.9164 6.74874 36.8379 7.86057 36.8379C8.38143 36.8379 8.90228 36.6776 9.25286 36.4272L9.8238 37.7093C9.28291 38.0699 8.57174 38.2903 7.64021 38.2903Z" fill="black"/>
<path d="M14.161 38.2903C11.747 38.2903 10.4148 36.3771 10.4148 33.853C10.4148 31.3288 11.737 29.4257 14.161 29.4257C16.5749 29.4257 17.9071 31.3188 17.9071 33.853C17.9071 36.3771 16.5749 38.2903 14.161 38.2903ZM14.161 30.7979C12.8187 30.7979 12.1577 31.9999 12.1577 33.8329C12.1577 35.666 12.8187 36.878 14.161 36.878C15.5032 36.878 16.1642 35.666 16.1642 33.8329C16.1642 31.9999 15.5032 30.7979 14.161 30.7979Z" fill="black"/>
<path d="M20.231 28.0534C19.66 28.0534 19.1992 27.6127 19.1992 27.0718C19.1992 26.5309 19.66 26.0902 20.231 26.0902C20.8019 26.0902 21.2627 26.5309 21.2627 27.0718C21.2627 27.6127 20.7919 28.0534 20.231 28.0534ZM19.3595 29.596H21.1024V38.11H19.3595V29.596Z" fill="black"/>
<path d="M27.9338 38.11V32.4306C27.9338 31.439 27.3328 30.818 26.1508 30.818C25.5198 30.818 24.9388 30.9281 24.5882 31.0684V38.12H22.8654V30.0266C23.7168 29.6761 24.8086 29.4257 26.1408 29.4257C28.5248 29.4257 29.6767 30.4674 29.6767 32.2703V38.12H27.9338" fill="black"/>
<path d="M34.2541 38.2903C33.1523 38.2903 32.0605 38.0199 31.3894 37.6893V25.7096H33.1122V29.8164C33.5229 29.626 34.184 29.4658 34.7749 29.4658C36.9685 29.4658 38.4609 31.0484 38.4609 33.6527C38.4609 36.868 36.7982 38.2903 34.2541 38.2903ZM34.4744 30.818C34.0037 30.818 33.4428 30.9282 33.1122 31.0985V36.6877C33.3626 36.7979 33.8534 36.908 34.3442 36.908C35.7165 36.908 36.7281 35.9565 36.7281 33.7829C36.7381 31.9198 35.8567 30.818 34.4744 30.818Z" fill="black"/>
<path d="M43.1487 38.2903C40.7047 38.2903 39.4626 37.2987 39.4626 35.6159C39.4626 33.242 41.9868 32.8213 44.5611 32.681V32.1401C44.5611 31.0684 43.8499 30.6877 42.7581 30.6877C41.9568 30.6877 40.9751 30.9382 40.4042 31.2086L39.9635 30.0267C40.6446 29.7262 41.7965 29.4257 42.9384 29.4257C44.9717 29.4257 46.2138 30.217 46.2138 32.3204V37.6893C45.6028 38.0199 44.3507 38.2903 43.1487 38.2903ZM44.5711 33.8329C42.8282 33.9231 41.0953 34.0733 41.0953 35.5858C41.0953 36.4873 41.7865 37.0382 43.0986 37.0382C43.6495 37.0382 44.3006 36.9481 44.5711 36.8179V33.8329Z" fill="black"/>
<path d="M50.1003 38.2903C49.1087 38.2903 48.0669 38.0199 47.4459 37.6893L48.0269 36.3671C48.4676 36.6376 49.3991 36.918 50.0502 36.918C50.9818 36.918 51.6028 36.4573 51.6028 35.7461C51.6028 34.9748 50.9517 34.6743 50.0903 34.3538C48.9484 33.9231 47.6763 33.4022 47.6763 31.8096C47.6763 30.4073 48.7681 29.4257 50.6612 29.4257C51.6929 29.4257 52.5443 29.6761 53.1453 30.0267L52.6044 31.2286C52.2238 30.9882 51.4625 30.7278 50.8515 30.7278C49.95 30.7278 49.4492 31.1986 49.4492 31.8196C49.4492 32.5909 50.0803 32.8613 50.9216 33.1819C52.1036 33.6226 53.4158 34.1134 53.4158 35.7761C53.4057 37.2886 52.2338 38.2903 50.1003 38.2903Z" fill="black"/>
<path d="M61.8095 33.8129L56.1501 34.6042C56.3204 36.1367 57.322 36.908 58.7544 36.908C59.6058 36.908 60.5274 36.6977 61.1083 36.3872L61.6092 37.6793C60.9481 38.0299 59.8062 38.2803 58.6342 38.2803C55.9498 38.2803 54.4473 36.5574 54.4473 33.843C54.4473 31.2387 55.8997 29.4156 58.2837 29.4156C60.4973 29.4156 61.8095 30.868 61.8095 33.1618C61.8296 33.3722 61.8296 33.5925 61.8095 33.8129ZM58.2736 30.6878C56.9514 30.6878 56.08 31.6994 56.0499 33.4723L60.1768 32.9014C60.1568 31.419 59.4055 30.6878 58.2736 30.6878Z" fill="black"/>
</svg>
