<svg width="65" height="64" viewBox="0 0 65 64" fill="none" xmlns="http://www.w3.org/2000/svg">
<path d="M56.7234 35.0143C56.1179 35.0192 55.5246 34.8438 55.019 34.5104C54.5135 34.177 54.1186 33.7008 53.8846 33.1422C53.6506 32.5837 53.5881 31.9682 53.705 31.374C53.8219 30.7798 54.113 30.2339 54.5412 29.8057C54.9694 29.3775 55.5154 29.0864 56.1095 28.9695C56.7037 28.8525 57.3192 28.915 57.8778 29.149C58.4363 29.383 58.9125 29.7779 59.2459 30.2835C59.5793 30.789 59.7547 31.3823 59.7498 31.9879C59.7433 32.7885 59.4224 33.5545 58.8562 34.1207C58.2901 34.6868 57.5241 35.0078 56.7234 35.0143M27.2041 20.9243C27.8086 20.9194 28.4009 21.0942 28.9059 21.4264C29.4109 21.7587 29.8058 22.2335 30.0406 22.7906C30.2753 23.3476 30.3393 23.9619 30.2244 24.5554C30.1095 25.1489 29.8209 25.6949 29.3952 26.1241C28.9694 26.5533 28.4258 26.8463 27.8333 26.9661C27.2408 27.0858 26.626 27.0269 26.067 26.7967C25.5081 26.5665 25.0301 26.1755 24.6937 25.6732C24.3573 25.1709 24.1777 24.58 24.1777 23.9755C24.1777 23.1706 24.4957 22.3982 25.0626 21.8267C25.6294 21.2552 26.3991 20.9309 27.2041 20.9243M8.69864 12.9119C9.29611 12.9168 9.87877 13.0985 10.3732 13.434C10.8676 13.7695 11.2516 14.2438 11.4769 14.7972C11.7021 15.3506 11.7585 15.9583 11.639 16.5438C11.5194 17.1292 11.2293 17.6661 10.805 18.0869C10.3808 18.5076 9.84155 18.7934 9.25518 18.9082C8.66881 19.023 8.06159 18.9616 7.51004 18.7318C6.95849 18.5021 6.48729 18.1142 6.15584 17.617C5.82438 17.1199 5.6475 16.5358 5.64748 15.9383C5.64746 15.5388 5.72656 15.1432 5.88019 14.7744C6.03383 14.4056 6.25897 14.0709 6.54263 13.7895C6.82628 13.5082 7.16284 13.2858 7.53288 13.1351C7.90293 12.9845 8.29913 12.9087 8.69864 12.9119ZM43.2289 4.92434C43.8334 4.91942 44.4257 5.09418 44.9307 5.42645C45.4357 5.75871 45.8306 6.2335 46.0654 6.79058C46.3001 7.34765 46.3641 7.96191 46.2492 8.5554C46.1343 9.14889 45.8457 9.69487 45.42 10.1241C44.9942 10.5533 44.4506 10.8463 43.8581 10.9661C43.2656 11.0858 42.6508 11.0269 42.0918 10.7967C41.5329 10.5665 41.0549 10.1755 40.7185 9.67318C40.3821 9.1709 40.2025 8.58001 40.2025 7.9755C40.2025 7.17056 40.5205 6.39822 41.0874 5.82672C41.6542 5.25523 42.4239 4.93088 43.2289 4.92434M64.6862 31.9879C64.6908 30.5159 64.2872 29.0715 63.5204 27.815C62.7535 26.5585 61.6534 25.5392 60.3422 24.8703C59.031 24.2013 57.5601 23.9089 56.0927 24.0255C54.6253 24.1421 53.219 24.6632 52.0299 25.5308C50.8408 26.3984 49.9155 27.5787 49.3567 28.9405C48.7979 30.3023 48.6276 31.7924 48.8645 33.2451C49.1015 34.6979 49.7365 36.0566 50.6991 37.1703C51.6616 38.2839 52.9141 39.109 54.3172 39.5538V43.622C54.3172 44.3517 54.1735 45.0743 53.8943 45.7484C53.615 46.4226 53.2057 47.0351 52.6897 47.5511C52.1738 48.0671 51.5612 48.4764 50.8871 48.7556C50.2129 49.0349 49.4903 49.1786 48.7606 49.1786H45.8087C42.6433 49.1738 39.5841 50.3199 37.201 52.4034C36.5151 49.6218 35.1321 47.0606 33.1824 44.9615V44.9615C36.5517 44.8647 39.7505 43.4578 42.099 41.0398C44.4474 38.6219 45.7605 35.3834 45.7591 32.0127V15.5662C47.559 14.9761 49.0896 13.7637 50.0761 12.1468C51.0626 10.5298 51.4404 8.61406 51.1416 6.74362C50.8428 4.87317 49.887 3.1705 48.4459 1.94129C47.0048 0.712084 45.1726 0.0368652 43.2785 0.0368652C41.3843 0.0368652 39.5522 0.712084 38.1111 1.94129C36.6699 3.1705 35.7142 4.87317 35.4154 6.74362C35.1166 8.61406 35.4944 10.5298 36.4809 12.1468C37.4674 13.7637 38.998 14.9761 40.7979 15.5662V31.9383C40.7979 34.0699 39.9511 36.1142 38.4438 37.6214C36.9365 39.1287 34.8922 39.9755 32.7606 39.9755H28.0723C29.1204 38.3217 29.6715 36.4016 29.6599 34.4437V31.5414C31.4598 30.9513 32.9904 29.7389 33.9769 28.1219C34.9634 26.5049 35.3411 24.5893 35.0424 22.7188C34.7436 20.8484 33.7878 19.1457 32.3467 17.9165C30.9055 16.6873 29.0734 16.0121 27.1793 16.0121C25.2851 16.0121 23.453 16.6873 22.0118 17.9165C20.5707 19.1457 19.6149 20.8484 19.3161 22.7188C19.0174 24.5893 19.3951 26.5049 20.3816 28.1219C21.3681 29.7389 22.8987 30.9513 24.6986 31.5414V34.4437C24.6996 35.8771 24.1441 37.2549 23.1492 38.2867C22.1543 39.3186 20.7978 39.9241 19.3653 39.9755C17.2226 39.9624 15.1721 39.102 13.6616 37.5822C12.151 36.0624 11.3032 34.0066 11.3033 31.8639V23.5042C13.1032 22.9141 14.6338 21.7017 15.6203 20.0847C16.6068 18.4677 16.9846 16.552 16.6858 14.6816C16.387 12.8112 15.4312 11.1085 13.9901 9.87927C12.5489 8.65007 10.7168 7.97485 8.82267 7.97485C6.92851 7.97485 5.09639 8.65007 3.65525 9.87927C2.21411 11.1085 1.25835 12.8112 0.959567 14.6816C0.660787 16.552 1.03856 18.4677 2.02505 20.0847C3.01155 21.7017 4.54215 22.9141 6.34205 23.5042V31.8391C6.34843 35.2805 7.71159 38.5806 10.1358 41.0234C12.5599 43.4662 15.8496 44.8545 19.2909 44.8871H22.2428C23.6539 44.9045 25.0455 45.2182 26.3275 45.808C27.6095 46.3977 28.7533 47.2503 29.6847 48.3104C31.7033 50.4452 32.8455 53.2609 32.8847 56.1987V63.9631H37.8459V62.2018C37.8459 60.0439 38.7031 57.9744 40.229 56.4485C41.7549 54.9226 43.8244 54.0654 45.9823 54.0654H48.9343C51.7106 54.0654 54.3733 52.9625 56.3364 50.9993C58.2996 49.0362 59.4025 46.3735 59.4025 43.5972V39.529C60.9723 39.0088 62.3412 38.0128 63.3192 36.6792C64.2971 35.3457 64.8356 33.7407 64.8599 32.0871" fill="black"/>
</svg>
