<?xml version="1.0" encoding="utf-8"?>
<!-- Generator: Adobe Illustrator 22.0.0, SVG Export Plug-In . SVG Version: 6.00 Build 0)  -->
<svg version="1.1" id="lni_lni-css-3" xmlns="http://www.w3.org/2000/svg" xmlns:xlink="http://www.w3.org/1999/xlink" x="0px"
	 y="0px" viewBox="0 0 64 64" style="enable-background:new 0 0 64 64;" xml:space="preserve">
<g>
	<path d="M48.5,15.8c-0.8-0.9-1.9-1.3-3.1-1.3H16.7c-1.2,0-2.3,1-2.3,2.3s1,2.3,2.3,2.3h28.2l-1.1,6H19.3c-1.2,0-2.3,1-2.3,2.3
		s1,2.3,2.3,2.3h23.8l-1.9,10.7l-8.6,3.1L24,40.2l-1.1-5.5c-0.2-1.2-1.4-2-2.7-1.8c-1.2,0.2-2,1.4-1.8,2.7l1.2,6
		c0.2,1.2,1.1,2.2,2.3,2.6l9.4,3.4c0.4,0.1,0.8,0.2,1.2,0.2c0.4,0,0.8-0.1,1.2-0.2l9.4-3.4c1.2-0.4,2.1-1.5,2.3-2.7l4-22.3
		c0.2-1.2-0.1-2.3-0.9-3.3L48.5,15.8z"/>
	<path d="M58.5,4.3c-1.5-1.6-3.6-2.6-5.8-2.6H11.3C9.1,1.8,7,2.7,5.5,4.3c-1.5,1.6-2.2,3.9-1.9,6l4.9,41.3c0.4,3.2,2.8,5.9,5.9,6.6
		L30.2,62c0.6,0.1,1.2,0.2,1.8,0.2s1.2-0.1,1.8-0.2l15.8-3.7h0c3.1-0.7,5.5-3.4,5.9-6.6l4.9-41.3C60.6,8.2,59.9,6,58.5,4.3z
		 M55.9,9.9L51,51.2c-0.2,1.3-1.1,2.4-2.5,2.8l-15.8,3.7c-0.5,0.1-1,0.1-1.5,0L15.5,54c-1.3-0.3-2.3-1.4-2.5-2.8L8.1,9.9
		C8,8.9,8.3,8,8.9,7.3c0.6-0.7,1.5-1.1,2.4-1.1h41.4c0.9,0,1.8,0.4,2.4,1.1C55.7,8,56,8.9,55.9,9.9z"/>
</g>
</svg>
