<svg width="64" height="64" viewBox="0 0 64 64" fill="none" xmlns="http://www.w3.org/2000/svg">
<path fill-rule="evenodd" clip-rule="evenodd" d="M12.88 24H9.1C4.8 24 1.23 27.11 1.01 31.65C1 31.8 1 31.95 1 32.1C1 32.24 1 32.37 1.01 32.51C1.23 36.7 4.8 40.08 9.1 40.06H12.88C17.27 40.08 21.28 36.48 21.28 32.1C21.28 27.31 17.27 24 12.88 24ZM9.12 39.37C5.06 39.37 1.77 36.08 1.77 32.02C1.77 27.96 5.06 24.66 9.12 24.66C13.18 24.66 16.47 27.95 16.47 32.02C16.47 36.09 13.18 39.37 9.12 39.37V39.37Z" fill="black"/>
<path d="M36.1505 30.0791C36.1305 30.1591 36.1305 30.2791 36.1505 30.5691C36.2005 31.3691 36.7205 32.0291 37.3905 32.0291C37.8605 32.0291 38.2205 31.7791 38.5305 31.4591L38.6505 31.5791C38.2605 32.0991 37.7805 32.5291 37.0905 32.5291C35.7505 32.5291 35.4805 31.2291 35.4805 30.6891C35.4805 29.0291 36.6005 28.5391 37.1905 28.5391C37.8705 28.5391 38.6105 28.9691 38.6205 29.8691C38.6205 29.9191 38.6205 29.9691 38.6205 30.0191L38.5405 30.0691H36.1705L36.1505 30.0791ZM37.6505 29.8091C37.8605 29.8091 37.8905 29.6991 37.8905 29.5991C37.8905 29.1691 37.6305 28.8191 37.1505 28.8191C36.6405 28.8191 36.2805 29.1991 36.1805 29.8091H37.6505Z" fill="black"/>
<path d="M38.8013 32.1908H39.0312C39.2712 32.1908 39.4313 32.1908 39.4313 31.9108V29.5408C39.4313 29.2808 39.1213 29.2308 38.9913 29.1608V29.0308C39.6113 28.7708 39.9513 28.5508 40.0213 28.5508C40.0713 28.5508 40.0913 28.5808 40.0913 28.6608V29.4208H40.1113C40.3213 29.0908 40.6812 28.5508 41.1912 28.5508C41.4012 28.5508 41.6712 28.6908 41.6712 29.0008C41.6712 29.2308 41.5113 29.4308 41.2713 29.4308C41.0113 29.4308 41.0113 29.2308 40.7113 29.2308C40.5713 29.2308 40.0913 29.4208 40.0913 29.9308V31.9108C40.0913 32.1908 40.2613 32.1908 40.5013 32.1908H40.9713V32.4108C40.5113 32.4108 40.1513 32.3908 39.7913 32.3908C39.4313 32.3908 39.0913 32.3908 38.7812 32.4108V32.1908H38.8013Z" fill="black"/>
<path d="M42.0484 31.2408C42.1584 31.8008 42.4984 32.2708 43.1084 32.2708C43.6084 32.2708 43.7884 31.9708 43.7884 31.6708C43.7884 30.6708 41.9484 30.9908 41.9484 29.6308C41.9484 29.1608 42.3284 28.5508 43.2584 28.5508C43.5284 28.5508 43.8884 28.6308 44.2184 28.8008L44.2784 29.6608H44.0884C44.0084 29.1308 43.7084 28.8208 43.1684 28.8208C42.8284 28.8208 42.5084 29.0108 42.5084 29.3808C42.5084 30.3708 44.4684 30.0608 44.4684 31.3908C44.4684 31.9508 44.0184 32.5408 43.0184 32.5408C42.6784 32.5408 42.2884 32.4208 41.9884 32.2508L41.8984 31.2808L42.0484 31.2408V31.2408Z" fill="black"/>
<path d="M52.4102 32.1909H52.5702C52.8102 32.1909 52.9802 32.1909 52.9802 31.9109V27.2109C52.9802 26.6609 52.8502 26.6409 52.5302 26.5509V26.4109C52.8702 26.3009 53.2202 26.1509 53.4002 26.0509C53.4902 26.0009 53.5602 25.9609 53.5902 25.9609C53.6402 25.9609 53.6602 26.0109 53.6602 26.0809V31.9109C53.6602 32.1909 53.8502 32.1909 54.0802 32.1909H54.2202V32.4109C53.9302 32.4109 53.6402 32.3909 53.3302 32.3909C53.0202 32.3909 52.7202 32.3909 52.4102 32.4109V32.1909V32.1909Z" fill="black"/>
<path d="M57.8309 31.9492C57.8309 32.0992 57.9209 32.1092 58.0709 32.1092C58.1709 32.1092 58.3009 32.1092 58.4109 32.1092V32.2892C58.0509 32.3192 57.3509 32.4992 57.1909 32.5492L57.1509 32.5192V31.8392C56.6409 32.2492 56.2509 32.5492 55.6509 32.5492C55.1909 32.5492 54.7209 32.2492 54.7209 31.5492V29.3892C54.7209 29.1692 54.6909 28.9592 54.2109 28.9192V28.7592C54.5109 28.7592 55.1909 28.6992 55.3009 28.6992C55.3909 28.6992 55.3909 28.7592 55.3909 28.9392V31.1192C55.3909 31.3692 55.3909 32.0992 56.1209 32.0992C56.4109 32.0992 56.7909 31.8792 57.1409 31.5892V29.3192C57.1409 29.1492 56.7309 29.0592 56.4309 28.9692V28.8192C57.1909 28.7692 57.6609 28.6992 57.7509 28.6992C57.8209 28.6992 57.8209 28.7592 57.8209 28.8492V31.9692L57.8309 31.9492Z" fill="black"/>
<path d="M59.5106 29.1609C59.8506 28.8709 60.3006 28.5509 60.7706 28.5509C61.7506 28.5509 62.3406 29.4009 62.3406 30.3209C62.3406 31.4309 61.5306 32.5309 60.3206 32.5309C59.7006 32.5309 59.3706 32.3309 59.1506 32.2309L58.9006 32.4209L58.7206 32.3309C58.7906 31.8309 58.8406 31.3409 58.8406 30.8309V27.2109C58.8406 26.6609 58.7106 26.6409 58.3906 26.5509V26.4109C58.7306 26.3009 59.0806 26.1509 59.2606 26.0509C59.3506 26.0009 59.4206 25.9609 59.4506 25.9609C59.5006 25.9609 59.5206 26.0109 59.5206 26.0809V29.1609H59.5106ZM59.5106 31.4609C59.5106 31.7809 59.8106 32.3209 60.3806 32.3209C61.2806 32.3209 61.6606 31.4309 61.6606 30.6809C61.6606 29.7709 60.9706 29.0109 60.3106 29.0109C60.0006 29.0109 59.7406 29.2109 59.5106 29.4109V31.4609V31.4609Z" fill="black"/>
<path d="M47.6697 34.1101V34.1301C47.6497 34.2601 47.6297 34.3801 47.6097 34.5001C47.5997 34.6301 47.5997 34.7501 47.5997 34.8801L47.4397 34.9401V34.9201C47.4297 34.7401 47.4097 34.4901 47.1197 34.4901H46.3797V36.9201C46.3897 37.2701 46.5297 37.2901 46.7397 37.3001H46.8497V37.4701H46.8297C46.6497 37.4701 46.3297 37.4601 46.0797 37.4601C45.8097 37.4601 45.4897 37.4701 45.3097 37.4701H45.2897V37.3001H45.3897C45.6497 37.2901 45.7497 37.2901 45.7497 36.9301V34.4901H45.0197C44.6797 34.5001 44.6897 34.5601 44.6097 34.9001L44.4297 34.9101V34.8901C44.4497 34.7601 44.4797 34.6301 44.4897 34.5001C44.5097 34.3701 44.5197 34.2401 44.5197 34.1101V34.0901H44.6597V34.1101C44.6997 34.2201 44.7797 34.2201 44.8997 34.2201H44.9197L47.2997 34.2301C47.4197 34.2201 47.5197 34.2201 47.5197 34.1001V34.0801H47.5497L47.6797 34.1001L47.6697 34.1101Z" fill="black"/>
<path d="M51.0481 34.1699C50.0781 34.1699 49.3281 34.9199 49.3281 35.8799C49.3281 36.8399 50.0881 37.5499 51.0681 37.5499C52.0481 37.5499 52.8281 36.8399 52.8281 35.7699C52.8281 34.7799 52.0381 34.1699 51.0481 34.1699ZM51.1181 37.3099C50.3881 37.3099 50.0181 36.5399 50.0181 35.7199C50.0181 35.1099 50.2481 34.4099 51.0381 34.4099C51.8281 34.4099 52.1481 35.2099 52.1481 35.8699C52.1381 36.5399 51.9881 37.3099 51.1181 37.3099Z" fill="black"/>
<path d="M62.5191 34.1309C62.7991 34.1309 62.9991 34.3409 62.9991 34.6209C62.9991 34.9009 62.7891 35.1009 62.5191 35.1009C62.2491 35.1009 62.0391 34.8909 62.0391 34.6209C62.0391 34.3509 62.2491 34.1309 62.5191 34.1309ZM62.5191 35.0109C62.7391 35.0109 62.8991 34.8309 62.8991 34.6209C62.8991 34.4109 62.7391 34.2209 62.5191 34.2209C62.2991 34.2209 62.1391 34.4109 62.1391 34.6209C62.1391 34.8309 62.3091 35.0109 62.5191 35.0109ZM62.2791 34.8709V34.8509C62.3391 34.8509 62.3491 34.8509 62.3491 34.8109V34.4509C62.3491 34.4009 62.3491 34.3809 62.2791 34.3809V34.3609H62.5291C62.6191 34.3609 62.6891 34.4009 62.6891 34.4909C62.6891 34.5609 62.6391 34.6209 62.5791 34.6409L62.6591 34.7509C62.6991 34.8009 62.7391 34.8509 62.7691 34.8609V34.8809H62.6791C62.6791 34.8809 62.5991 34.7809 62.5091 34.6609H62.4591V34.8209C62.4591 34.8209 62.4691 34.8509 62.5291 34.8609V34.8809H62.2991L62.2791 34.8709ZM62.4391 34.6109H62.4991C62.5591 34.6109 62.5891 34.5609 62.5891 34.4909C62.5891 34.4209 62.5391 34.3909 62.4991 34.3909H62.4491V34.6209L62.4391 34.6109Z" fill="black"/>
<path d="M35.5095 32.1908V32.4108C35.2095 32.4108 34.9095 32.4008 34.6095 32.4008C34.3095 32.4008 33.9995 32.4008 33.6995 32.4108V32.1908H33.8495C34.0895 32.1908 34.2595 32.1908 34.2595 31.9108V29.7308C34.2595 29.2408 33.9595 29.0108 33.4795 29.0108C33.2095 29.0108 32.7795 29.2308 32.4995 29.4108V31.9108C32.4995 32.1908 32.6795 32.1908 32.9195 32.1908H33.0695V32.4108C32.7795 32.4108 32.4795 32.4008 32.1795 32.4008C31.8795 32.4008 31.5695 32.4008 31.2695 32.4108V32.1908H31.4195C31.6495 32.1908 31.8195 32.1908 31.8195 31.9108V29.6808C31.8195 29.3608 31.7295 29.2808 31.3295 29.1208V28.9608C31.6995 28.8408 32.0395 28.7308 32.4495 28.5508C32.4695 28.5508 32.4995 28.5708 32.4995 28.6408V29.1908C32.9795 28.8408 33.3895 28.5508 33.9595 28.5508C34.6795 28.5508 34.9295 29.0808 34.9295 29.7308V31.9108C34.9295 32.1908 35.1195 32.1908 35.3495 32.1908H35.5095V32.1908Z" fill="black"/>
<path d="M25.5381 26.5195C24.9081 26.5195 24.4281 26.5295 24.0681 26.5295C23.7381 26.5295 23.4081 26.5295 23.0781 26.5195V26.7395C23.4581 26.7395 23.8481 26.6895 23.8481 27.4495V31.5495C23.8281 32.1295 23.5781 32.1395 23.0781 32.1895V32.4095C23.4581 32.4095 23.8281 32.3995 24.2081 32.3995C24.6081 32.3995 24.9981 32.4095 25.4281 32.4095C28.4281 32.4095 28.9181 30.3095 28.9181 29.4695C28.9181 27.9795 27.7181 26.5195 25.5381 26.5195V26.5195ZM25.5581 32.1395C25.1481 32.1395 24.6781 32.0695 24.6781 31.4195V26.8195C24.8381 26.8095 24.9881 26.7895 25.3381 26.7895C26.9681 26.7895 27.9881 27.9295 27.9881 29.5095C27.9881 30.7695 27.3881 32.1395 25.5581 32.1395Z" fill="black"/>
<path d="M30.8709 32.1908H31.0209V32.4108C30.7309 32.4108 30.4309 32.4008 30.1309 32.4008C29.8309 32.4008 29.5209 32.4108 29.2109 32.4108V32.1908H29.3709C29.6109 32.1908 29.7809 32.1908 29.7809 31.9208V29.6308C29.7809 29.2508 29.6509 29.2008 29.3409 29.0308V28.9008C29.7309 28.7808 30.2109 28.6208 30.2409 28.6008C30.3009 28.5608 30.3509 28.5508 30.3909 28.5508C30.4409 28.5508 30.4509 28.6008 30.4509 28.6708V31.9208C30.4509 32.1908 30.6409 32.1908 30.8709 32.1908V32.1908Z" fill="black"/>
<path d="M29.6992 26.8299C29.6992 26.6199 29.8992 26.4199 30.1092 26.4199C30.3192 26.4199 30.5292 26.5999 30.5292 26.8299C30.5292 27.0599 30.3392 27.2499 30.1092 27.2499C29.8792 27.2499 29.6992 27.0499 29.6992 26.8299Z" fill="black"/>
<path d="M36.1505 30.0791C36.1305 30.1591 36.1305 30.2791 36.1505 30.5691C36.2005 31.3691 36.7205 32.0291 37.3905 32.0291C37.8605 32.0291 38.2205 31.7791 38.5305 31.4591L38.6505 31.5791C38.2605 32.0991 37.7805 32.5291 37.0905 32.5291C35.7505 32.5291 35.4805 31.2291 35.4805 30.6891C35.4805 29.0291 36.6005 28.5391 37.1905 28.5391C37.8705 28.5391 38.6105 28.9691 38.6205 29.8691C38.6205 29.9191 38.6205 29.9691 38.6205 30.0191L38.5405 30.0691H36.1705L36.1505 30.0791ZM37.6505 29.8091C37.8605 29.8091 37.8905 29.6991 37.8905 29.5991C37.8905 29.1691 37.6305 28.8191 37.1505 28.8191C36.6405 28.8191 36.2805 29.1991 36.1805 29.8091H37.6505Z" fill="black"/>
<path d="M38.8013 32.1908H39.0312C39.2712 32.1908 39.4313 32.1908 39.4313 31.9108V29.5408C39.4313 29.2808 39.1213 29.2308 38.9913 29.1608V29.0308C39.6113 28.7708 39.9513 28.5508 40.0213 28.5508C40.0713 28.5508 40.0913 28.5808 40.0913 28.6608V29.4208H40.1113C40.3213 29.0908 40.6812 28.5508 41.1912 28.5508C41.4012 28.5508 41.6712 28.6908 41.6712 29.0008C41.6712 29.2308 41.5113 29.4308 41.2713 29.4308C41.0113 29.4308 41.0113 29.2308 40.7113 29.2308C40.5713 29.2308 40.0913 29.4208 40.0913 29.9308V31.9108C40.0913 32.1908 40.2613 32.1908 40.5013 32.1908H40.9713V32.4108C40.5113 32.4108 40.1513 32.3908 39.7913 32.3908C39.4313 32.3908 39.0913 32.3908 38.7812 32.4108V32.1908H38.8013Z" fill="black"/>
<path d="M42.0484 31.2408C42.1584 31.8008 42.4984 32.2708 43.1084 32.2708C43.6084 32.2708 43.7884 31.9708 43.7884 31.6708C43.7884 30.6708 41.9484 30.9908 41.9484 29.6308C41.9484 29.1608 42.3284 28.5508 43.2584 28.5508C43.5284 28.5508 43.8884 28.6308 44.2184 28.8008L44.2784 29.6608H44.0884C44.0084 29.1308 43.7084 28.8208 43.1684 28.8208C42.8284 28.8208 42.5084 29.0108 42.5084 29.3808C42.5084 30.3708 44.4684 30.0608 44.4684 31.3908C44.4684 31.9508 44.0184 32.5408 43.0184 32.5408C42.6784 32.5408 42.2884 32.4208 41.9884 32.2508L41.8984 31.2808L42.0484 31.2408V31.2408Z" fill="black"/>
<path d="M52.1103 30.8606L51.9203 32.0906C51.5603 32.3106 50.6103 32.5406 50.0503 32.5406C48.0703 32.5406 46.8203 31.2606 46.8203 29.3606C46.8203 27.6306 48.3703 26.3906 50.0303 26.3906C50.7103 26.3906 51.3703 26.6106 52.0203 26.8406L52.1003 28.0406H51.8903C51.7303 27.0606 51.0303 26.6606 50.0803 26.6606C49.1303 26.6606 47.7003 27.3106 47.7003 29.3406C47.7003 31.0406 48.9203 32.2706 50.2203 32.2706C51.0603 32.2706 51.7503 31.6906 51.9203 30.8106L52.1103 30.8606V30.8606Z" fill="black"/>
<path d="M52.4102 32.1909H52.5702C52.8102 32.1909 52.9802 32.1909 52.9802 31.9109V27.2109C52.9802 26.6609 52.8502 26.6409 52.5302 26.5509V26.4109C52.8702 26.3009 53.2202 26.1509 53.4002 26.0509C53.4902 26.0009 53.5602 25.9609 53.5902 25.9609C53.6402 25.9609 53.6602 26.0109 53.6602 26.0809V31.9109C53.6602 32.1909 53.8502 32.1909 54.0802 32.1909H54.2202V32.4109C53.9302 32.4109 53.6402 32.3909 53.3302 32.3909C53.0202 32.3909 52.7202 32.3909 52.4102 32.4109V32.1909V32.1909Z" fill="black"/>
<path d="M57.8309 31.9492C57.8309 32.0992 57.9209 32.1092 58.0709 32.1092C58.1709 32.1092 58.3009 32.1092 58.4109 32.1092V32.2892C58.0509 32.3192 57.3509 32.4992 57.1909 32.5492L57.1509 32.5192V31.8392C56.6409 32.2492 56.2509 32.5492 55.6509 32.5492C55.1909 32.5492 54.7209 32.2492 54.7209 31.5492V29.3892C54.7209 29.1692 54.6909 28.9592 54.2109 28.9192V28.7592C54.5109 28.7592 55.1909 28.6992 55.3009 28.6992C55.3909 28.6992 55.3909 28.7592 55.3909 28.9392V31.1192C55.3909 31.3692 55.3909 32.0992 56.1209 32.0992C56.4109 32.0992 56.7909 31.8792 57.1409 31.5892V29.3192C57.1409 29.1492 56.7309 29.0592 56.4309 28.9692V28.8192C57.1909 28.7692 57.6609 28.6992 57.7509 28.6992C57.8209 28.6992 57.8209 28.7592 57.8209 28.8492V31.9692L57.8309 31.9492Z" fill="black"/>
<path d="M59.5106 29.1609C59.8506 28.8709 60.3006 28.5509 60.7706 28.5509C61.7506 28.5509 62.3406 29.4009 62.3406 30.3209C62.3406 31.4309 61.5306 32.5309 60.3206 32.5309C59.7006 32.5309 59.3706 32.3309 59.1506 32.2309L58.9006 32.4209L58.7206 32.3309C58.7906 31.8309 58.8406 31.3409 58.8406 30.8309V27.2109C58.8406 26.6609 58.7106 26.6409 58.3906 26.5509V26.4109C58.7306 26.3009 59.0806 26.1509 59.2606 26.0509C59.3506 26.0009 59.4206 25.9609 59.4506 25.9609C59.5006 25.9609 59.5206 26.0109 59.5206 26.0809V29.1609H59.5106ZM59.5106 31.4609C59.5106 31.7809 59.8106 32.3209 60.3806 32.3209C61.2806 32.3209 61.6606 31.4309 61.6606 30.6809C61.6606 29.7709 60.9706 29.0109 60.3106 29.0109C60.0006 29.0109 59.7406 29.2109 59.5106 29.4109V31.4609V31.4609Z" fill="black"/>
<path d="M31.5592 34.0901L31.6892 34.1101V34.1301C31.6692 34.2601 31.6492 34.3801 31.6392 34.5001C31.6292 34.6301 31.6292 34.7501 31.6292 34.8801H31.6192L31.4492 34.9401V34.9201C31.4392 34.7401 31.4192 34.4901 31.1292 34.4901H30.3992V36.9201C30.3992 37.2701 30.5392 37.2901 30.7592 37.3001H30.8592V37.4701H30.8492C30.6592 37.4701 30.3392 37.4601 30.0992 37.4601C29.8192 37.4601 29.4992 37.4701 29.3192 37.4701H29.2992V37.3001H29.4092C29.6592 37.2901 29.7592 37.2901 29.7692 36.9301V34.4901H29.0292C28.6892 34.5001 28.6992 34.5601 28.6292 34.9001H28.6192L28.4492 34.9101V34.8901C28.4692 34.7601 28.4892 34.6301 28.4992 34.5001C28.5192 34.3701 28.5292 34.2401 28.5292 34.1101V34.0901H28.6792V34.1101C28.7092 34.2201 28.7992 34.2201 28.9092 34.2201H31.3092C31.4392 34.2201 31.5292 34.2201 31.5392 34.1001V34.0801H31.5592V34.0901Z" fill="black"/>
<path d="M24.4708 34.2402H24.4908V34.4102H24.4008C24.3008 34.4202 24.2008 34.4202 24.1408 34.4802C24.1008 34.5202 24.0808 34.5702 24.0808 34.6602V37.0602C24.0808 37.2902 24.2408 37.3002 24.4008 37.3102H24.4908V37.4802H24.4708C24.2508 37.4802 23.9708 37.4702 23.7408 37.4702C23.5108 37.4702 23.2508 37.4802 23.0708 37.4802H23.0508V37.3102H23.1308C23.3008 37.3002 23.4508 37.2902 23.4508 37.0602V34.6602C23.4508 34.5702 23.4308 34.5202 23.3908 34.4802C23.3308 34.4202 23.2408 34.4202 23.1308 34.4102H23.0508V34.2402H23.0708C23.2508 34.2402 23.5208 34.2502 23.7508 34.2502C23.9808 34.2502 24.2508 34.2402 24.4708 34.2402V34.2402Z" fill="black"/>
<path d="M34.4586 36.7202V36.7402C34.3886 36.9802 34.3386 37.2202 34.2986 37.4702H34.2886V37.4802C33.9886 37.4802 33.4586 37.4602 33.0486 37.4602C32.6386 37.4602 32.0886 37.4802 31.8286 37.4802H31.8086V37.3102H31.8886C32.0586 37.3002 32.2086 37.2902 32.2086 37.0602V34.6602C32.2086 34.5702 32.1886 34.5202 32.1486 34.4802C32.0886 34.4202 31.9986 34.4202 31.8886 34.4102H31.8086V34.2402H31.8286C32.1086 34.2402 32.5886 34.2502 32.9686 34.2502C33.3486 34.2502 33.8286 34.2402 34.1486 34.2402H34.1686V34.2602C34.1686 34.3202 34.1686 34.4102 34.1686 34.4902C34.1686 34.6502 34.1686 34.8302 34.1886 34.9602L34.1686 34.9802L34.0086 35.0202V35.0002C33.9786 34.7002 33.9386 34.4802 33.4686 34.4802H32.8486V35.6402H33.3786C33.6386 35.6402 33.6886 35.5002 33.7186 35.2602V35.2402H33.8986V35.2602C33.8886 35.4402 33.8786 35.6202 33.8786 35.8002C33.8786 35.9702 33.8886 36.1402 33.8986 36.3202V36.3402H33.8786L33.7186 36.3702V36.3502C33.6886 36.0702 33.6886 35.9102 33.3786 35.9102H32.8486V36.9602C32.8486 37.2402 33.0886 37.2402 33.3886 37.2402C33.9386 37.2402 34.1686 37.2102 34.2986 36.7002V36.6802H34.3286L34.4786 36.7202H34.4586Z" fill="black"/>
<path d="M28.3511 34.2402H28.3711V34.4102H28.2811C28.0911 34.4202 27.8911 34.4302 27.8911 34.9802V37.0702C27.8911 37.2302 27.8911 37.3902 27.9111 37.5302V37.5502H27.7111L25.3711 34.9502V36.7902C25.3811 37.1902 25.4411 37.3002 25.7911 37.3102H25.8811V37.4802H25.8611C25.6611 37.4802 25.4711 37.4702 25.2711 37.4702C25.0611 37.4702 24.8511 37.4802 24.6511 37.4802H24.6211V37.3102H24.7111C25.0111 37.3002 25.1011 37.1102 25.1011 36.7402V34.8102C25.1011 34.5602 24.9011 34.4102 24.7111 34.4102H24.6211V34.2402H24.6511C24.8211 34.2402 25.0011 34.2502 25.1711 34.2502C25.3111 34.2502 25.4411 34.2402 25.6011 34.2402L27.6211 36.5202V34.8302C27.6211 34.4602 27.3711 34.4202 27.2411 34.4102H27.1211V34.2402H27.1411C27.3511 34.2402 27.5711 34.2502 27.7811 34.2502C27.9711 34.2502 28.1611 34.2402 28.3511 34.2402Z" fill="black"/>
<path d="M37.7811 37.3102C37.5611 37.2802 37.4811 37.2302 37.3511 37.0402L36.5811 35.8802C36.9311 35.7402 37.2111 35.4802 37.2111 35.0602C37.2111 34.6402 37.0011 34.4302 36.7011 34.3302H36.6911C36.5111 34.2602 36.3011 34.2402 36.0911 34.2402C35.8511 34.2402 35.6311 34.2502 35.3511 34.2502C35.0711 34.2502 34.7911 34.2402 34.6411 34.2402H34.6211V34.4102H34.7211C34.8711 34.4202 35.0311 34.4202 35.0311 34.7402V37.0802C35.0311 37.2302 34.8911 37.3102 34.7211 37.3102H34.6211V37.4802H34.6411C34.8711 37.4802 35.0911 37.4702 35.3111 37.4702C35.5711 37.4702 35.8311 37.4802 36.1011 37.4802H36.1211V37.3102H36.0211C35.8011 37.3002 35.6611 37.3002 35.6611 36.9602V36.0002H35.9311C36.2311 36.5202 36.5311 37.0102 36.8811 37.4802C37.0411 37.4802 37.1911 37.4702 37.3311 37.4702C37.4811 37.4702 37.6311 37.4802 37.7811 37.4802H37.8011V37.3102H37.7811V37.3102ZM35.8611 35.7902H35.6611V34.4602C35.7211 34.4602 35.7811 34.4402 35.9011 34.4402C36.3011 34.4402 36.5511 34.6902 36.5511 35.0902C36.5511 35.6302 36.3211 35.7902 35.8611 35.7902Z" fill="black"/>
<path d="M41.6384 34.2402V34.4102H41.5484C41.3584 34.4202 41.1684 34.4402 41.1584 34.9802V37.0702C41.1584 37.2302 41.1684 37.3902 41.1884 37.5302V37.5502H40.9784L38.6484 34.9502V36.7902C38.6484 37.1902 38.7084 37.3002 39.0584 37.3102H39.1584V37.4802H39.1384C38.9384 37.4802 38.7384 37.4702 38.5384 37.4702C38.3384 37.4702 38.1284 37.4802 37.9184 37.4802H37.8984V37.3102H37.9784C38.2884 37.3102 38.3684 37.1102 38.3784 36.7402V34.8102C38.3784 34.5602 38.1784 34.4102 37.9784 34.4102H37.8984V34.2402H37.9184C38.0884 34.2402 38.2684 34.2502 38.4484 34.2502C38.5784 34.2502 38.7184 34.2402 38.8684 34.2402L40.8884 36.5202V34.8302C40.8884 34.4602 40.6384 34.4202 40.5084 34.4102H40.3884V34.2402H40.4084C40.6284 34.2402 40.8384 34.2502 41.0484 34.2502C41.2384 34.2502 41.4284 34.2402 41.6184 34.2402H41.6384V34.2402Z" fill="black"/>
<path d="M44.7781 37.3091C44.6281 37.3091 44.5481 37.2591 44.4881 37.1291C44.4281 36.9991 44.3781 36.8291 44.3281 36.6691L43.4781 34.2591C43.4781 34.2591 43.4481 34.1791 43.4381 34.1491C43.4181 34.1191 43.3981 34.1191 43.3881 34.1191C43.3681 34.1191 43.3481 34.1291 43.3381 34.1291C43.2481 34.1891 43.0681 34.2791 42.9181 34.3291C42.8881 34.5091 42.7981 34.7391 42.7381 34.9091L42.0081 37.0191C41.9381 37.2091 41.7981 37.3091 41.6281 37.3091H41.5781V37.4891H41.5981C41.7581 37.4791 41.9281 37.4691 42.0881 37.4691C42.2781 37.4691 42.4681 37.4791 42.6481 37.4791H42.6681V37.3091H42.5981C42.4481 37.3091 42.2781 37.2791 42.2681 37.1691C42.2681 37.0891 42.3281 36.9691 42.3781 36.8091L42.5181 36.3491H43.5281L43.7081 36.8691C43.7581 37.0091 43.7981 37.1391 43.7981 37.1891C43.7981 37.2791 43.6381 37.3091 43.5281 37.3091H43.4581V37.4891H43.4781C43.7181 37.4791 43.9481 37.4691 44.1681 37.4691C44.3881 37.4691 44.5981 37.4791 44.8081 37.4791H44.8281V37.3091H44.7781V37.3091ZM42.6181 36.0491L43.0181 34.8191L43.4181 36.0491H42.6181Z" fill="black"/>
<path d="M48.8291 34.6602V37.0602C48.8291 37.2902 48.9791 37.3002 49.1491 37.3102H49.2291V37.4802H49.2191C48.9891 37.4802 48.7191 37.4602 48.4891 37.4602C48.2591 37.4602 47.9891 37.4802 47.8091 37.4802H47.7891V37.3102H47.8791C48.0391 37.3002 48.1991 37.2902 48.1991 37.0602V34.6602C48.1991 34.5702 48.1791 34.5202 48.1391 34.4802C48.0791 34.4202 47.9791 34.4202 47.8791 34.4102H47.7891V34.2402H47.8091C47.9891 34.2402 48.2691 34.2502 48.4891 34.2502C48.7091 34.2502 48.9991 34.2402 49.2191 34.2402H49.2291V34.4102H49.1491C49.0391 34.4202 48.9491 34.4202 48.8891 34.4802C48.8491 34.5202 48.8291 34.5702 48.8291 34.6602Z" fill="black"/>
<path d="M56.6502 34.2402V34.4102H56.5602C56.3702 34.4202 56.1702 34.4402 56.1702 34.9802V37.0702C56.1702 37.2302 56.1702 37.3902 56.1902 37.5302V37.5502H55.9902L53.6502 34.9502V36.7902C53.6502 37.1902 53.7202 37.3002 54.0702 37.3102H54.1602V37.4802H54.1402C53.9502 37.4802 53.7502 37.4702 53.5502 37.4702C53.3502 37.4702 53.1302 37.4802 52.9302 37.4802H52.9102V37.3102H52.9902C53.2902 37.3002 53.3802 37.1102 53.3802 36.7402V34.8102C53.3802 34.5602 53.1802 34.4102 52.9902 34.4102H52.9102V34.2402H52.9302C53.1002 34.2402 53.2802 34.2502 53.4502 34.2502C53.5902 34.2502 53.7202 34.2402 53.8802 34.2402L55.9002 36.5202V34.8302C55.9002 34.4602 55.6502 34.4202 55.5202 34.4102H55.4002V34.2402H55.4202C55.6302 34.2402 55.8502 34.2502 56.0602 34.2502C56.2502 34.2502 56.4402 34.2402 56.6302 34.2402H56.6502V34.2402Z" fill="black"/>
<path d="M59.7898 37.3091C59.6398 37.2991 59.5598 37.2591 59.4998 37.1291C59.4398 36.9991 59.3898 36.8291 59.3298 36.6691L58.4898 34.2591C58.4898 34.2591 58.4598 34.1791 58.4398 34.1491C58.4298 34.1191 58.4098 34.1191 58.3898 34.1191C58.3698 34.1191 58.3598 34.1291 58.3498 34.1291C58.2598 34.1891 58.0798 34.2791 57.9298 34.3291C57.8898 34.5091 57.8098 34.7391 57.7498 34.9091L57.0098 37.0191C56.9498 37.2091 56.7998 37.3091 56.6298 37.3091H56.5898V37.4791H56.6098C56.7698 37.4791 56.9398 37.4691 57.0998 37.4691C57.2798 37.4691 57.4698 37.4791 57.6598 37.4791H57.6798V37.3091H57.6098C57.4498 37.3091 57.2798 37.2791 57.2798 37.1591C57.2798 37.0891 57.3398 36.9691 57.3798 36.8091L57.5198 36.3491H58.5398L58.7098 36.8691C58.7698 37.0091 58.8098 37.1391 58.8098 37.1891C58.8098 37.2791 58.6498 37.3091 58.5398 37.3091H58.4698V37.4791H58.4898C58.7298 37.4791 58.9598 37.4691 59.1798 37.4691C59.3998 37.4691 59.6098 37.4791 59.8098 37.4791H59.8298V37.3091H59.7898V37.3091ZM57.6298 36.0491L58.0298 34.8191L58.4298 36.0491H57.6298Z" fill="black"/>
<path d="M62.5892 36.6602V36.6902C62.5392 36.9502 62.4792 37.2102 62.4192 37.4702L62.3992 37.4802C61.9892 37.4802 61.5892 37.4702 61.1892 37.4702C60.7892 37.4702 60.3792 37.4802 59.9692 37.4802H59.9492V37.3102H60.0392C60.1992 37.3002 60.3592 37.2902 60.3592 37.0202V34.6502C60.3592 34.4302 60.1992 34.4202 60.0392 34.4102H59.9492V34.2402H59.9692C60.2192 34.2402 60.4592 34.2502 60.6992 34.2502C60.9392 34.2502 61.1592 34.2402 61.3992 34.2402H61.4192V34.4102H61.2792C61.0992 34.4202 60.9892 34.4102 60.9892 34.6402V37.0102C60.9892 37.1802 61.0992 37.2302 61.2492 37.2502C61.3292 37.2602 61.4092 37.2602 61.4992 37.2602C61.6092 37.2602 61.7292 37.2502 61.8492 37.2402C62.0392 37.2202 62.1992 37.1102 62.2792 37.0002C62.3492 36.9002 62.3892 36.7802 62.4192 36.6802V36.6602H62.5892V36.6602Z" fill="black"/>
<path d="M62.5191 34.1309C62.7991 34.1309 62.9991 34.3409 62.9991 34.6209C62.9991 34.9009 62.7891 35.1009 62.5191 35.1009C62.2491 35.1009 62.0391 34.8909 62.0391 34.6209C62.0391 34.3509 62.2491 34.1309 62.5191 34.1309ZM62.5191 35.0109C62.7391 35.0109 62.8991 34.8309 62.8991 34.6209C62.8991 34.4109 62.7391 34.2209 62.5191 34.2209C62.2991 34.2209 62.1391 34.4109 62.1391 34.6209C62.1391 34.8309 62.3091 35.0109 62.5191 35.0109ZM62.2791 34.8709V34.8509C62.3391 34.8509 62.3491 34.8509 62.3491 34.8109V34.4509C62.3491 34.4009 62.3491 34.3809 62.2791 34.3809V34.3609H62.5291C62.6191 34.3609 62.6891 34.4009 62.6891 34.4909C62.6891 34.5609 62.6391 34.6209 62.5791 34.6409L62.6591 34.7509C62.6991 34.8009 62.7391 34.8509 62.7691 34.8609V34.8809H62.6791C62.6791 34.8809 62.5991 34.7809 62.5091 34.6609H62.4591V34.8209C62.4591 34.8209 62.4691 34.8509 62.5291 34.8609V34.8809H62.2991L62.2791 34.8709ZM62.4391 34.6109H62.4991C62.5591 34.6109 62.5891 34.5609 62.5891 34.4909C62.5891 34.4209 62.5391 34.3909 62.4991 34.3909H62.4491V34.6209L62.4391 34.6109Z" fill="black"/>
<path fill-rule="evenodd" clip-rule="evenodd" d="M13.7791 32.0199C13.7791 33.9999 12.5391 35.6899 10.7891 36.3699V27.6699C12.5391 28.3399 13.7791 30.0299 13.7791 32.0199Z" fill="black"/>
<path fill-rule="evenodd" clip-rule="evenodd" d="M12.8817 24H9.10172C4.80172 24 1.23172 27.11 1.01172 31.65V32.51C1.23172 36.7 4.80172 40.08 9.10172 40.06H12.8817C17.2717 40.08 21.2817 36.48 21.2817 32.1C21.2817 27.31 17.2717 24 12.8817 24ZM9.12172 39.37C5.06172 39.37 1.77172 36.08 1.77172 32.02C1.77172 27.96 5.06172 24.66 9.12172 24.66C13.1817 24.66 16.4717 27.95 16.4717 32.02C16.4717 36.09 13.1817 39.37 9.12172 39.37V39.37Z" fill="black"/>
<path fill-rule="evenodd" clip-rule="evenodd" d="M7.45094 27.6699V36.3599C5.70094 35.6899 4.46094 33.9999 4.46094 32.0199C4.46094 30.0399 5.70094 28.3399 7.45094 27.6699Z" fill="black"/>
</svg>
