<svg width="64" height="64" viewBox="0 0 64 64" fill="none" xmlns="http://www.w3.org/2000/svg">
<path d="M54.2141 11.2742C50.0713 9.33582 45.6415 7.92712 41.0104 7.125C40.4416 8.1533 39.7772 9.53637 39.319 10.6366C34.396 9.89625 29.5182 9.89625 24.6858 10.6366C24.2277 9.53637 23.5481 8.1533 22.9743 7.125C18.3382 7.92712 13.9033 9.341 9.76051 11.2844C1.40438 23.9116 -0.86083 36.2252 0.271778 48.3639C5.814 52.5027 11.1851 55.0169 16.4655 56.6621C17.7693 54.8678 18.9321 52.9603 19.9338 50.9501C18.026 50.2251 16.1987 49.3306 14.4722 48.292C14.9302 47.9526 15.3783 47.5979 15.8111 47.2328C26.3419 52.1583 37.7837 52.1583 48.1886 47.2328C48.6266 47.5979 49.0745 47.9526 49.5276 48.292C47.7959 49.3356 45.9637 50.2302 44.0559 50.9552C45.0576 52.9603 46.2154 54.873 47.5242 56.6672C52.8097 55.022 58.1858 52.5079 63.728 48.3639C65.0569 34.292 61.4578 22.0916 54.2141 11.2742ZM21.3685 40.8987C18.2073 40.8987 15.6148 37.9475 15.6148 34.3537C15.6148 30.7599 18.1519 27.8036 21.3685 27.8036C24.5851 27.8036 27.1775 30.7547 27.1221 34.3537C27.1271 37.9475 24.5851 40.8987 21.3685 40.8987ZM42.6313 40.8987C39.4701 40.8987 36.8776 37.9475 36.8776 34.3537C36.8776 30.7599 39.4147 27.8036 42.6313 27.8036C45.8479 27.8036 48.4403 30.7547 48.385 34.3537C48.385 37.9475 45.8479 40.8987 42.6313 40.8987Z" fill="black"/>
</svg>
