<svg width="64" height="64" viewBox="0 0 64 64" fill="none" xmlns="http://www.w3.org/2000/svg">
<path fill-rule="evenodd" clip-rule="evenodd" d="M63.0002 29.75V48.1175H11.6758C44.8748 42.4406 63.0002 29.75 63.0002 29.75Z" fill="black"/>
<path fill-rule="evenodd" clip-rule="evenodd" d="M19.9597 28.8111V32.1339L17.5475 29.6345V31.9498H17.1406V28.6367C17.1406 28.6367 19.4462 31.0295 19.5528 31.1458V28.8111H19.9597Z" fill="black"/>
<path fill-rule="evenodd" clip-rule="evenodd" d="M21.9733 29.198V30.0409H23.2036V30.4187H21.9733V31.5618H23.2327V31.9493H21.5664V28.8105H23.2327V29.198H21.9733Z" fill="black"/>
<path fill-rule="evenodd" clip-rule="evenodd" d="M26.4298 28.8105V29.198H25.6742V31.9493H25.2577V29.198H24.5117V28.8105H26.4298Z" fill="black"/>
<path fill-rule="evenodd" clip-rule="evenodd" d="M31.9308 28.8108L30.7005 32.1627C30.7005 32.1627 29.7608 29.828 29.7027 29.6923C29.6445 29.828 28.6952 32.1627 28.6952 32.1627L27.4648 28.8108H27.9105L28.7048 31.0583C28.763 30.913 29.6736 28.6752 29.6736 28.6752L29.7027 28.5977C29.7027 28.5977 30.6423 30.913 30.7005 31.0583L31.4948 28.8108H31.9308V28.8108Z" fill="black"/>
<path fill-rule="evenodd" clip-rule="evenodd" d="M34.7328 28.7617C33.8319 28.7617 33.0859 29.4883 33.0859 30.3795C33.0859 31.2708 33.8319 31.9973 34.7328 31.9973C35.6338 31.9973 36.3797 31.2708 36.3797 30.3795C36.3797 29.4883 35.6434 28.7617 34.7328 28.7617ZM34.7328 31.6195C34.0547 31.6195 33.5025 31.0577 33.5025 30.3795C33.5025 29.7014 34.0547 29.1395 34.7328 29.1395C35.4109 29.1395 35.9728 29.7014 35.9728 30.3795C35.9728 31.0577 35.4206 31.6195 34.7328 31.6195Z" fill="black"/>
<path fill-rule="evenodd" clip-rule="evenodd" d="M38.7037 30.5543C39.1591 30.4962 39.4497 30.1668 39.4497 29.6921C39.4497 29.1012 39.0719 28.8105 38.2872 28.8105H37.8125V31.9493H38.2194V30.6027H38.2775L39.1784 31.9299L39.6338 31.9493H39.6919C39.6919 31.9493 38.7522 30.6318 38.7037 30.5543ZM38.2194 30.2346V29.198H38.2872C38.6844 29.198 39.0428 29.2368 39.0428 29.7115C39.0428 30.1862 38.665 30.2346 38.2969 30.2346H38.2194Z" fill="black"/>
<path fill-rule="evenodd" clip-rule="evenodd" d="M43.3448 31.9493H42.7733C42.7733 31.9493 41.5623 30.6027 41.5236 30.5543H41.5139L41.4752 30.593V31.9493H41.0586V28.8105H41.4752V30.0796L42.7442 28.8105H43.2964C43.2964 28.8105 41.853 30.2346 41.8142 30.2734C41.853 30.3218 43.3448 31.9493 43.3448 31.9493Z" fill="black"/>
<path fill-rule="evenodd" clip-rule="evenodd" d="M59.1916 17.2539C58.7944 17.2539 58.4844 17.5736 58.4844 17.9611C58.4844 18.3486 58.8041 18.6683 59.1916 18.6683C59.5791 18.6683 59.8987 18.3486 59.8987 17.9611C59.8987 17.5736 59.5791 17.2539 59.1916 17.2539V17.2539ZM59.1916 18.5423C58.8816 18.5423 58.62 18.2808 58.62 17.9611C58.62 17.6414 58.8719 17.3895 59.1916 17.3895C59.5112 17.3895 59.7534 17.6511 59.7534 17.9611C59.7534 18.2711 59.5016 18.5423 59.1916 18.5423Z" fill="black"/>
<path fill-rule="evenodd" clip-rule="evenodd" d="M59.2878 18.0372C59.3944 18.0081 59.4622 17.9209 59.4622 17.8047C59.4622 17.6497 59.3556 17.5625 59.1522 17.5625H58.8906V18.3666H59.0844V18.0566L59.3169 18.3666H59.5591L59.2878 18.0372ZM59.1231 17.9209H59.0844V17.7078H59.1231C59.22 17.7078 59.2684 17.7466 59.2684 17.8144C59.2684 17.8822 59.22 17.9209 59.1231 17.9209Z" fill="black"/>
<path fill-rule="evenodd" clip-rule="evenodd" d="M56.0842 22.4357C57.4405 22.1645 58.1961 21.2345 58.1961 19.8298C58.1961 18.1151 57.0045 17.127 54.9217 17.127H52.2383V26.301H54.0498V22.6101H54.2823L56.7817 26.301H59.0002L56.0842 22.4357V22.4357ZM54.573 21.3507H54.0498V18.5704H54.602C55.7258 18.5704 56.3361 19.0354 56.3361 19.9266C56.3361 20.8179 55.7258 21.3507 54.573 21.3507Z" fill="black"/>
<path fill-rule="evenodd" clip-rule="evenodd" d="M47.7316 18.677V20.7113H50.9187V22.271H47.7316V24.751H51.0447V26.301H45.9297V17.127H51.0447V18.677H47.7316Z" fill="black"/>
<path fill-rule="evenodd" clip-rule="evenodd" d="M45.1061 17.127L41.1148 26.5335H40.1461L36.2227 17.127H38.1892L40.6595 23.2882L43.1589 17.127H45.1061Z" fill="black"/>
<path d="M34.9674 25.2131C36.8477 23.3328 36.8477 20.2843 34.9674 18.4041C33.0871 16.5238 30.0387 16.5238 28.1584 18.4041C26.2782 20.2843 26.2782 23.3328 28.1584 25.2131C30.0387 27.0933 33.0871 27.0933 34.9674 25.2131Z" fill="black"/>
<path fill-rule="evenodd" clip-rule="evenodd" d="M3.65438 17.127H1V26.301H3.635C5.03969 26.301 6.04719 25.9716 6.93844 25.2451C7.99438 24.3732 8.61438 23.0654 8.61438 21.7188C8.61438 19.0063 6.58 17.127 3.65438 17.127ZM5.75656 24.0148C5.19469 24.5282 4.45844 24.751 3.28625 24.751H2.80188V18.677H3.28625C4.45844 18.677 5.16563 18.8901 5.75656 19.4229C6.38625 19.9751 6.75438 20.8276 6.75438 21.7091C6.75438 22.5907 6.38625 23.4723 5.75656 24.0148V24.0148Z" fill="black"/>
<path d="M11.2511 17.127H9.44922V26.301H11.2511V17.127Z" fill="black"/>
<path fill-rule="evenodd" clip-rule="evenodd" d="M18.3216 23.5117C18.3216 25.2845 17.0138 26.5245 15.1344 26.5245C13.7588 26.5245 12.7609 25.982 11.9375 24.7808L13.1 23.657C13.5166 24.4611 14.2044 24.8873 15.0666 24.8873C15.8706 24.8873 16.4713 24.3352 16.4713 23.5892C16.4713 23.2017 16.2872 22.882 15.9287 22.6398C15.7447 22.5333 15.3862 22.3686 14.6791 22.1167C12.9837 21.5161 12.4025 20.867 12.4025 19.598C12.4025 18.1061 13.6522 16.9727 15.2894 16.9727C16.2969 16.9727 17.2269 17.3214 18.0116 17.9898L17.0622 19.2105C16.5972 18.697 16.1516 18.4742 15.6091 18.4742C14.8341 18.4742 14.2625 18.9102 14.2625 19.4914C14.2625 19.9855 14.5822 20.247 15.6672 20.6442C17.7209 21.3902 18.3216 22.0489 18.3216 23.5117V23.5117Z" fill="black"/>
<path fill-rule="evenodd" clip-rule="evenodd" d="M20.7545 21.7094C20.7545 23.5597 22.043 24.8675 23.8642 24.8675C24.678 24.8675 25.3173 24.5866 26.0439 23.8697V25.9719C25.2205 26.3594 24.552 26.5047 23.777 26.5047C21.0355 26.5047 18.8945 24.4219 18.8945 21.7191C18.8945 19.0163 21.0839 16.9141 23.8158 16.9141C24.6005 16.9141 25.2495 17.0788 26.0439 17.4759V19.5878C25.2883 18.8613 24.6392 18.5513 23.777 18.5513C22.0817 18.5513 20.7545 19.9463 20.7545 21.7094V21.7094Z" fill="black"/>
</svg>
