<?xml version="1.0" encoding="utf-8"?>
<!-- Generator: Adobe Illustrator 22.0.0, SVG Export Plug-In . SVG Version: 6.00 Build 0)  -->
<svg version="1.1" id="lni_lni-dribbble" xmlns="http://www.w3.org/2000/svg" xmlns:xlink="http://www.w3.org/1999/xlink" x="0px"
	 y="0px" viewBox="0 0 64 64" style="enable-background:new 0 0 64 64;" xml:space="preserve">
<path d="M32,1.8C15.3,1.8,1.8,15.3,1.8,32S15.3,62.3,32,62.3S62.3,48.7,62.3,32S48.7,1.8,32,1.8z M57.7,32.9
	c-5.9-0.4-12.1,0.2-18.2,1.7c-0.9-2.4-1.8-4.7-2.8-7c6.3-2.1,12.2-5.2,17.3-8.9c2.4,3.9,3.7,8.5,3.7,13.4
	C57.8,32.3,57.7,32.6,57.7,32.9z M51.3,15c-4.8,3.6-10.5,6.5-16.6,8.4c-3.2-6.4-6.8-11.8-10.6-16c2.5-0.8,5.1-1.2,7.9-1.2
	C39.7,6.3,46.6,9.7,51.3,15z M19.7,9.4c3.8,3.8,7.4,9,10.6,15.3c-7.9,1.9-16,2.2-23.3,0.9C8.9,18.6,13.5,12.8,19.7,9.4z M6.3,30
	C9.6,30.7,13,31,16.4,31c5.2,0,10.6-0.7,15.9-2.1c1,2.2,2,4.5,2.8,6.9c-8.8,2.8-16.6,7.2-22.8,12.9C8.6,44.1,6.3,38.3,6.3,32
	C6.3,31.3,6.3,30.7,6.3,30z M15.5,51.8c5.7-5.2,13-9.3,21.1-11.8c0.3,1,0.6,2,0.9,2.9c1.3,4.5,2.3,9,3,13.3
	c-2.7,0.9-5.5,1.5-8.5,1.5C25.7,57.8,20,55.5,15.5,51.8z M44.8,54.3c-0.7-4.1-1.7-8.4-2.9-12.7c-0.3-1-0.6-1.9-0.9-2.9
	c5.4-1.3,11-1.8,16.2-1.5C55.7,44.6,51,50.7,44.8,54.3z"/>
</svg>
