<?xml version="1.0" encoding="utf-8"?>
<!-- Generator: Adobe Illustrator 22.0.0, SVG Export Plug-In . SVG Version: 6.00 Build 0)  -->
<svg version="1.1" id="lni_lni-dropbox" xmlns="http://www.w3.org/2000/svg" xmlns:xlink="http://www.w3.org/1999/xlink" x="0px"
	 y="0px" viewBox="0 0 64 64" style="enable-background:new 0 0 64 64;" xml:space="preserve">
<path d="M60.9,30.5l-9.3-6.2l9.4-6.2l0,0c0.8-0.6,1.3-1.5,1.3-2.5c0-1-0.6-1.8-1.4-2.3L46.6,3.8c-0.9-0.6-2.3-0.6-3.2,0L32,11.4l0,0
	l0,0L20.7,3.9c-1-0.8-2.5-0.8-3.4,0L3,13.3c-0.8,0.5-1.3,1.4-1.3,2.4c0,1,0.5,1.9,1.3,2.4l9.3,6.2L3,30.5c-0.8,0.5-1.3,1.4-1.3,2.4
	s0.5,1.9,1.3,2.4l8.4,5.6v5.8c0,1,0.5,1.9,1.4,2.5l17.6,10.8c0.5,0.3,1,0.5,1.6,0.5c0.5,0,1-0.1,1.5-0.4l17.6-10.8
	c0.8-0.6,1.3-1.5,1.3-2.4v-6l8.4-5.6c0.8-0.5,1.3-1.4,1.3-2.4C62.2,32,61.7,31.1,60.9,30.5z M32,31.9l-11.4-7.6L32,16.8l11.4,7.6
	L32,31.9z M45,8.2l11.4,7.6l-8.9,5.9l-11.4-7.6L45,8.2z M7.5,15.7L19,8.2l8.9,5.9l-11.4,7.5l0,0l-0.1,0L7.5,15.7z M16.5,27l11.5,7.6
	L19,40.5L7.5,32.9L16.5,27z M16,44l1.4,0.9c0.5,0.3,1,0.5,1.6,0.5c0.6,0,1.1-0.2,1.6-0.5l9.2-6.1v15.6L16,45.9V44z M48,46l-13.8,8.4
	V38.8l9.2,6c0.5,0.3,1,0.5,1.6,0.5c0.6,0,1.1-0.2,1.6-0.5l1.4-0.9V46z M45,40.5l-8.9-5.8l11.4-7.6l8.9,5.9L45,40.5z"/>
</svg>
