<?xml version="1.0" encoding="utf-8"?>
<!-- Generator: Adobe Illustrator 22.0.0, SVG Export Plug-In . SVG Version: 6.00 Build 0)  -->
<svg version="1.1" id="lni_lni-drupal" xmlns="http://www.w3.org/2000/svg" xmlns:xlink="http://www.w3.org/1999/xlink" x="0px"
	 y="0px" viewBox="0 0 64 64" style="enable-background:new 0 0 64 64;" xml:space="preserve">
<g>
	<path d="M39.4,12.8L39.4,12.8c-0.7-0.2-1.4-0.7-1.9-1.4c-0.3-0.4-0.7-1-1.2-1.7l-4.3-6.3c-0.8-1.3-2.4-1.9-4-1.7
		c-1.6,0.3-2.8,1.5-3.1,3l-1.4,6.8c-0.3,1.1-1.1,1.9-2.1,2.4c-9.2,4-15.1,13-15.1,23c0,13.9,11.5,25.3,25.7,25.3
		c14.2,0,25.7-11.3,25.7-25.3C57.7,26.1,50.2,16.1,39.4,12.8z M32,57.8c-11.7,0-21.2-9.3-21.2-20.8c0-8.2,4.9-15.6,12.4-18.9
		c2.4-1,4.1-3,4.7-5.4l1.2-5.6l3.5,5.1c0.5,0.7,0.9,1.4,1.3,1.8c1,1.4,2.6,2.6,4.2,3C47,19.8,53.2,28,53.2,37
		C53.2,48.4,43.7,57.8,32,57.8z"/>
	<path d="M48,32c-0.4-1.7-1.4-3.2-2.9-4c-1.1-0.7-2.4-1-3.8-0.9c-1,0.1-1.9,0.3-2.8,0.6c-0.9,0.4-1.7,0.9-2.3,1.3l-0.5,0.3
		c-0.1,0-0.1,0.1-0.2,0.1c-0.1,0-0.1-0.1-0.2-0.1L35.1,29c-0.5-0.3-1-0.8-1.8-1.1c-3.1-1.5-6.5-1.9-9.4-1.1c-2.1,0.6-3.9,2-5,3.9
		c-0.9,1.8-1.2,4-0.7,6.1c0.6,2.3,2,4.2,3.9,5.4c1.2,0.7,2.6,1.1,4,1.1c0.7,0,1.4-0.1,2.3-0.3c2.9-0.8,5.1-2.5,7-4.3
		c0.2,0.3,0.4,0.6,0.6,0.9c1.8,2.3,5.3,3.8,8.4,2.2c1.4-0.7,3.3-2.3,3.7-6C48.3,34.2,48.3,33.1,48,32z M34,33.9l-1.1,1
		c-1.7,1.6-3.5,3.1-5.6,3.7c-0.5,0.1-0.9,0.2-1.2,0.2c-0.6,0-1.2-0.2-1.7-0.5c-0.9-0.5-1.5-1.5-1.8-2.6c-0.2-1-0.1-2.1,0.3-2.8
		c0.5-0.9,1.4-1.5,2.3-1.8c0.6-0.2,1.3-0.3,1.9-0.3c1.4,0,2.9,0.4,4.2,1.1l0.1,0.1c0.3,0.1,0.6,0.4,1,0.6l0.3,0.2
		c0.2,0.2,0.4,0.3,0.7,0.5c0.3,0.2,0.5,0.3,0.8,0.5C34.1,33.8,34.1,33.8,34,33.9z M43.7,35.1c-0.1,0.9-0.4,2.1-1.3,2.6
		c-0.9,0.5-2.2-0.2-2.8-1c-0.2-0.2-0.3-0.5-0.5-0.8l-0.3-0.5c-0.5-0.8-0.9-1.4-1.4-1.8c0.3-0.2,0.6-0.3,0.9-0.5l0.4-0.3
		c0.5-0.4,1.1-0.7,1.6-0.9c0.4-0.2,0.9-0.3,1.3-0.3c0.5,0,0.9,0.1,1.1,0.2l0.1,0.1c0.4,0.2,0.7,0.7,0.8,1.3l0,0.1
		C43.8,33.7,43.8,34.3,43.7,35.1z"/>
	<path d="M36.5,50.5c-0.4,0.2-0.8,0.4-1.2,0.6c-0.9,0.3-1.8,0.4-2.7,0.4c-0.9-0.1-1.8-0.3-2.8-0.7c-1.1-0.5-2.5,0-3,1.2
		c-0.5,1.1,0,2.5,1.2,3c1.4,0.6,2.8,1,4.2,1.1c0.3,0,0.6,0,0.8,0c1.2,0,2.5-0.2,3.7-0.6c0.7-0.3,1.4-0.6,2.1-1
		c1.1-0.6,1.4-2,0.8-3.1C38.9,50.2,37.6,49.8,36.5,50.5z"/>
	<path d="M37.6,43.1c-2,0-3.9,0.9-5.2,2.3c-0.9,0.9-0.8,2.3,0.1,3.2c0.4,0.4,1,0.6,1.5,0.6c0.6,0,1.2-0.2,1.6-0.7
		c0.5-0.5,1.3-0.9,2-0.9c0.5,0,0.9,0.1,1.1,0.3c0.9,0.9,2.3,0.9,3.2,0c0.9-0.9,0.9-2.3,0-3.2C40.9,43.7,39.4,43.2,37.6,43.1z"/>
</g>
</svg>
