<?xml version="1.0" encoding="utf-8"?>
<!-- Generator: Adobe Illustrator 22.0.1, SVG Export Plug-In . SVG Version: 6.00 Build 0)  -->
<svg version="1.1" id="lni_lni-drupal-original" xmlns="http://www.w3.org/2000/svg" xmlns:xlink="http://www.w3.org/1999/xlink"
	 x="0px" y="0px" viewBox="0 0 64 64" style="enable-background:new 0 0 64 64;" xml:space="preserve">
<path d="M45.9,12.9C45.7,12.9,45.7,12.8,45.9,12.9c-2.8-1.8-5.4-2.7-8.1-4.1c-0.4-0.1-0.7-0.4-1.1-0.7c-1.8-1.4-4.5-4.4-6.7-6.9
	c-0.1,1.3-0.3,2.3-0.6,3.3C29,6.1,28,7.3,27.2,8C27,8.1,27,8.1,26.9,8.1c-3.1,2.4-5,3.1-7.6,4.5c-0.1,0.1-0.6,0.3-1,0.6
	c-1.6,1-4.4,3-6.9,5.9C4.6,27,2.9,38.8,7.7,48c1.8,3.4,4.3,6.6,7.4,9c3.2,2.5,7.5,4,11.4,4.9c5.6,1.3,11,1.3,16.3-0.8
	c4.1-1.6,7.7-4.3,10.5-7.7c3.8-4.7,5.7-10.7,5.7-16.7C59.5,21.4,47.7,14.2,45.9,12.9z M11,23c-0.1-0.1-1.1-0.7-0.1-2
	c3-4.5,8.5-7.6,10.2-8.4c0.6-0.3,3.3-1.6,5.9-3.5c1.7-1.3,2.8-2.5,3.3-6.4c0.4,1.4,0.4,2.5,0.4,4c-0.1,1.6-1.6,2.5-1.7,2.7
	c-0.3,0.3-1.6,0.8-1.8,1.1c-0.3,0.1-0.3,0.3,0,0.3c0.4,0.1,0.7,0.3,0.7,0.7c0,0.3-0.1,1.1-1.6,2.5c-2.5,2.5-4.4,4.2-8.8,6.8
	C13.3,23.3,11.2,23,11,23z M46.2,57.9c-0.3,0.3-3.1,2.3-6.4,2.5s-7.6,0.4-10.2-2c-0.4-0.4-0.3-1.1,0-1.3c0.3-0.3,0.4-0.4,0.8-0.4
	c0.3,0,0.3,0,0.4,0.1c1.1,1,3,1.7,6.8,1.7s6.7-1.1,7.8-2c0.4-0.4,0.7-0.1,0.8,0.1C46.4,57.2,46.6,57.7,46.2,57.9z M35.5,52.6
	c0.7-0.6,1.7-1.6,2.7-2c1.1-0.4,1.6-0.3,2.5-0.3c1,0,2,0.1,2.7,0.4c0.7,0.4,1.1,1.6,1.4,2.1c0.3,0.6,0,1-0.4,1.1
	c-0.4,0.3-0.4,0.1-0.8-0.7c-0.4-0.7-0.7-1.6-3-1.6c-2.1,0-2.7,0.7-3.8,1.6c-1.1,0.8-1.4,1.1-1.7,0.7C34.8,53.6,35,53.1,35.5,52.6z
	 M51.5,53c-2.1-0.1-6.5-6.9-9.2-6.9c-3.5-0.1-11,7.2-17,7.2c-3.5,0-4.7-0.4-5.9-1.4c-1.7-1.3-2.7-3.3-2.7-5.8
	c0.1-4.7,4.5-9.1,10.1-9.2c6.9-0.1,11.9,6.9,15.4,6.9c3-0.1,8.8-5.9,11.6-5.9c3,0,3.8,3.1,3.8,5c0,1.8-0.6,5.2-2,7.4
	C54.1,52.4,53.2,53.1,51.5,53z"/>
</svg>
