<?xml version="1.0" encoding="utf-8"?>
<!-- Generator: Adobe Illustrator 22.0.1, SVG Export Plug-In . SVG Version: 6.00 Build 0)  -->
<svg version="1.1" id="lni_lni-facebook-filled" xmlns="http://www.w3.org/2000/svg" xmlns:xlink="http://www.w3.org/1999/xlink"
	 x="0px" y="0px" viewBox="0 0 64 64" style="enable-background:new 0 0 64 64;" xml:space="preserve">
<path d="M47.4,25.8L47.4,25.8h-5.6h-2v-2v-6.2v-2h2H46c1.1,0,2-0.8,2-2V3c0-1.1-0.8-2-2-2h-7.3c-7.9,0-13.4,5.6-13.4,13.9v8.7v2h-2
	h-6.8c-1.4,0-2.7,1.1-2.7,2.7v7.2c0,1.4,1.1,2.7,2.7,2.7h6.6h2v2v20.1c0,1.4,1.1,2.7,2.7,2.7h9.4c0.6,0,1.1-0.3,1.5-0.7
	s0.7-1.1,0.7-1.7l0,0l0,0V40.3v-2h2.1H46c1.3,0,2.3-0.8,2.5-2v-0.1v-0.1l1.4-6.9c0.1-0.7,0-1.5-0.6-2.3
	C49.1,26.4,48.2,25.9,47.4,25.8z"/>
</svg>
