<svg width="64" height="64" viewBox="0 0 64 64" fill="none" xmlns="http://www.w3.org/2000/svg">
<path d="M3 21.842V42.158C3 46.5938 6.60153 50.1815 11.0235 50.1815H35.4694C39.9053 50.1815 43.4929 46.5799 43.4929 42.158V21.842C43.4929 17.4061 39.8914 13.8185 35.4694 13.8185H11.0374C6.60153 13.8046 3 17.4061 3 21.842V21.842ZM55.7437 16.4049L46.5382 23.9974C45.7178 24.6787 45.245 25.6799 45.245 26.7368V37.2493C45.245 38.3062 45.7039 39.2935 46.5104 39.9748L55.7159 47.7063C57.8156 49.4584 61 47.9705 61 45.245V18.8801C61.0139 16.1686 57.8434 14.6668 55.7437 16.4049V16.4049Z" fill="black"/>
</svg>
