<?xml version="1.0" encoding="utf-8"?>
<!-- Generator: Adobe Illustrator 22.0.0, SVG Export Plug-In . SVG Version: 6.00 Build 0)  -->
<svg version="1.1" id="lni_lni-facebook-line" xmlns="http://www.w3.org/2000/svg" xmlns:xlink="http://www.w3.org/1999/xlink"
	 x="0px" y="0px" viewBox="0 0 64 64" style="enable-background:new 0 0 64 64;" xml:space="preserve">
<g>
	<path d="M35.9,62.3h-7.3c-2.2,0-4-1.9-4-4.2V36.6h-5.3c-2.2,0-4-1.9-4-4.2V26c0-2.3,1.8-4.2,4-4.2h5.2v-5.3
		c0-8.7,5.4-14.8,13.2-14.8h5.5c2.2,0,4,1.9,4,4.2v7.5c0,2.3-1.8,4.2-4,4.2h-3.4v4.1h4.7c0,0,0.1,0,0.1,0c1.2,0.1,2.3,0.6,3.1,1.5
		c0.8,1,1.1,2.2,0.9,3.5c0,0,0,0,0,0L47.4,33c-0.3,2-1.9,3.4-3.9,3.4h-3.7v21.6C39.8,60.4,38.1,62.3,35.9,62.3z M29.1,57.8h6.2V34.2
		c0-1.2,1-2.3,2.3-2.3H43l1.1-5.7h-6.5c-1.2,0-2.3-1-2.3-2.3v-6.7c0-1.9,0.5-4.2,4.1-4.2h3.3V6.3h-5c-5.3,0-8.7,4-8.7,10.3v7.5
		c0,1.2-1,2.3-2.3,2.3h-6.9v5.7h7c1.2,0,2.3,1,2.3,2.3V57.8z M44.1,25.9L44.1,25.9L44.1,25.9z"/>
</g>
</svg>
