<?xml version="1.0" encoding="utf-8"?>
<!-- Generator: Adobe Illustrator 22.0.0, SVG Export Plug-In . SVG Version: 6.00 Build 0)  -->
<svg version="1.1" id="lni_lni-firefox" xmlns="http://www.w3.org/2000/svg" xmlns:xlink="http://www.w3.org/1999/xlink" x="0px"
	 y="0px" viewBox="0 0 64 64" style="enable-background:new 0 0 64 64;" xml:space="preserve">
<path d="M43.5,3.7L43.5,3.7c-1.8-0.5-3.7,0.5-4.2,2.3l0,0.1c-0.3,1.3,0.1,2.7,1.2,3.6l0.2,0.1c2.4,1.6,4.3,5.1,5.4,8.8
	c-0.7-0.4-1.4-0.5-2.2-0.4c-0.9,0.2-1.7,0.7-2.1,1.3c-0.9,1.2-0.9,2.8,0,4.1c1.7,2.2,2.3,4.9,1.9,7.6c-0.4,2.7-1.9,5.1-4.1,6.7
	c-1.9,1.3-4.1,2-6.3,2h-0.1c0.2-0.4,0.4-0.8,0.6-1c0.2-0.3,0.7-0.5,1.2-0.8c0.5-0.2,1-0.5,1.4-0.9c0.4-0.3,0.7-0.5,1-0.8
	c0.3-0.3,0.6-0.5,0.8-0.6c0.1,0,0.2,0,0.2-0.1c0.3-0.1,0.8-0.2,1.3-0.5l0.1-0.1c1.2-0.8,1.7-2.3,1.3-3.7c-0.3-1.1-1-2-2-2.5
	c-1.1-0.6-2.3-0.8-3.4-0.9c-1.5-0.1-2.7,0.1-3.7,0.5c-0.8,0.3-1.4,0.8-2,1.2c-0.2,0.1-0.4,0.2-0.5,0.3c-0.5,0.3-1.2,0.3-2.3,0.3
	l-0.3,0c-0.4,0-0.9,0-1.3,0c0.3-0.2,0.5-0.3,0.6-0.5c0.6-0.6,1-1.2,1.2-2.1c0.2-0.7,0.6-1.2,1-1.5l4.2-2.8c1.2-0.9,1.8-2.3,1.5-3.6
	c-0.3-1.5-1.7-2.6-3.3-2.6h-2.5c-1.1,0-1.8-0.1-2.3-0.2c0.3-0.7,1.1-1.8,2.3-3c1-1,1.3-2.4,0.8-3.6c-0.5-1.3-1.8-2.2-3.2-2.2l-0.2,0
	c-3.3,0.3-6.3,1.8-8.4,4.3c-1,0-2,0-3.1,0l-0.1-0.1c-0.6-1-1-2.2-1.2-3.4c-0.1-1.8-1.6-3.2-3.4-3.2c-1,0-1.9,0.4-2.5,1.1
	c-2.8,3-3.8,7.2-2.6,11.1c-3.3,6.7-3.9,14.3-1.7,21.4c2.4,7.6,7.7,13.9,14.9,17.6c4.3,2.2,9.2,3.4,14,3.4c17,0,30.3-12.5,30.3-28.4
	v-2.3C62.3,14.6,52.6,6.4,43.5,3.7z M57.8,32.1c0,13.4-11.3,23.9-25.8,23.9c-4.1,0-8.3-1-12-2.9c-6.1-3.1-10.6-8.4-12.7-14.9
	c-2-6.3-1.3-13,1.8-18.9l0.5-1l-0.4-1c-0.8-1.8-0.7-3.7,0-5.4c0.3,0.9,0.7,1.8,1.1,2.6c0.4,0.8,0.9,1.4,1.2,1.9l0.8,0.9l1.2-0.1
	c1.8-0.2,3.4-0.2,4.8-0.1l1.3,0.1l0.8-1.1c0.6-0.9,1.5-1.7,2.4-2.3c-1.1,1.6-1.8,3.6-1.1,5.3c0.7,1.6,2.5,2.5,5.5,2.6l-1.1,0.7
	c-1.3,0.9-2.3,2.3-2.8,3.8c-1,0-1.9,0.3-2.6,0.7c-0.2,0.1-0.4,0.2-0.6,0.4c-1,0.8-1.7,2-1.8,3.2c-0.1,0.9,0.2,1.9,0.8,2.5
	c1.1,1.2,2.8,1.5,4.2,1.6c1.3,0.1,2.5,0.1,3.8,0.1l0.3,0c1.4,0,3,0,4.7-1c0.2-0.2,0.5-0.3,0.7-0.5c0.4-0.3,0.7-0.5,1.1-0.6l0.1-0.1
	c0.2-0.1,0.6-0.2,1.3-0.2c-0.2,0.2-0.4,0.3-0.6,0.5c-0.2,0.2-0.4,0.3-0.7,0.5c-0.3,0.2-0.6,0.4-1,0.6c-0.7,0.4-1.7,0.9-2.4,1.7
	c-0.7,0.8-1.2,1.8-1.6,2.6c-0.2,0.4-0.4,0.8-0.6,1.1c-0.5,0.8-0.6,1.9-0.2,2.8c0.4,0.9,1.2,1.6,2.2,1.8l0.1,0
	c0.9,0.1,1.9,0.3,2.9,0.2c3.2,0,6.2-1,8.9-2.8c3.2-2.3,5.4-5.8,5.9-9.7c0.3-1.8,0.2-3.5-0.2-5.2c0.6,0.3,1.2,0.3,1.8,0.2
	c1.1-0.3,1.9-1.3,1.9-2.5l0-0.2c-0.4-4.6-1.9-10-4.6-14c5.7,3.3,10.6,9.7,10.6,19.6V32.1z"/>
</svg>
