<?xml version="1.0" encoding="utf-8"?>
<!-- Generator: Adobe Illustrator 22.0.1, SVG Export Plug-In . SVG Version: 6.00 Build 0)  -->
<svg version="1.1" id="lni_lni-firefox-original" xmlns="http://www.w3.org/2000/svg" xmlns:xlink="http://www.w3.org/1999/xlink"
	 x="0px" y="0px" viewBox="0 0 64 64" style="enable-background:new 0 0 64 64;" xml:space="preserve">
<path d="M61.6,29.2c-0.1-0.6-0.1-0.8-0.1-0.8s-0.1,0.3-0.6,0.8c-0.1-1.4-0.4-2.7-0.7-4c-0.4-1.7-1.1-3.2-1.8-4.7
	c-0.4-1-1.1-2-1.7-2.8c-0.1-0.3-0.4-0.7-0.7-1c-1.1-1.8-2.4-3-4-5.1c-1-1.7-1.7-3.4-2-5.2c-0.4,1.1-0.7,2.3-1,3.4
	c-1.6-1.6-2.8-2.7-3.5-3.4C41.5,3,42,1,42,1s-7.3,8.2-4.2,16.7c1.1,3,3,5.5,5.5,7.3c3.1,2.5,6.4,4.5,8.2,9.6
	c-1.4-2.7-3.5-4.9-6.1-6.5c0.8,1.8,1.1,4,1.1,5.8c0,7.6-6.2,13.8-13.8,13.8c-1.1,0-2-0.1-3.1-0.4c-1.1-0.1-2.4-0.6-3.4-1.1
	c-1.7-1-3-2.3-4.1-3.8l0,0l0.3,0.1c0.6,0.1,1.1,0.4,1.7,0.4c2.4,0.4,4.8,0.1,7.1-0.8c2.3-1.3,3.5-2.1,4.5-1.7l0,0
	c1.1,0.3,1.8-0.7,1.1-1.7c-1.3-1.7-3.4-2.5-5.5-2.1C29,36.9,27,38.4,24.2,37c-0.1-0.1-0.4-0.1-0.6-0.3c-0.1-0.1,0.6,0.1,0.4,0
	c-0.6-0.3-1.3-0.7-1.8-1.1l0.4,0.1c-0.8-0.4-1.4-1.1-1.8-2c-0.4-1-0.6-2-0.1-3c0.3-0.4,0.7-0.8,1.1-1.1c0.4,0.1,0.6,0.3,0.6,0.3
	s-0.1-0.3-0.3-0.4h0.1c0.3,0.1,1.1,0.4,1.4,0.7c0.3,0.1,0.4,0.3,0.7,0.6c0,0,0.1-0.1,0-0.3c-0.1-0.3-0.4-0.6-0.7-0.8l0,0
	c0.3,0.1,0.6,0.3,0.8,0.4c0.1-0.6,0.4-1.1,0.3-1.7c0-0.3,0-0.7-0.1-1c-0.1-0.1,0.1-0.3,0.1-0.1c0-0.1-0.1-0.3-0.1-0.4l0,0l0.1-0.1
	c0.1-0.1,0.3-0.1,0.4-0.3C26,25.9,27,25.3,28,25c0.8-0.4,1.4-0.6,1.7-0.7c0.1-0.1,0.4-0.3,0.6-0.4c0.7-0.6,1.1-1.4,1.3-2.3
	c0-0.1,0-0.1,0-0.4v-0.6c-0.1-0.4-0.8-0.8-4.8-1.1c-1.4-0.1-2.5-1.3-2.8-2.7l0,0c0.8-2,2.1-3.7,4-4.8c0.1-0.1-0.4,0-0.3-0.1
	c0.3-0.1,0.7-0.3,1.1-0.4c0.1-0.1-0.8-0.4-1.6-0.3c-0.4,0-1,0.1-1.4,0.4c0.1-0.1,0.8-0.4,0.7-0.4c-1.1,0.1-2,0.6-3,1.1
	c0-0.1,0-0.1,0.1-0.3c-0.8,0.3-1.4,0.8-1.8,1.4c0-0.1,0-0.1,0-0.3c-0.3,0.3-0.7,0.6-0.8,0.8l0,0c-2.1-0.8-4.5-1.1-6.9-0.6l0,0l0,0
	c-0.4-0.4-0.8-0.8-1.3-1.4l0,0h-0.1c-0.1-0.1-0.3-0.4-0.4-0.8C12,11,12,10.7,11.9,10.5l0,0c-0.1,0-0.1,0.1-0.1,0.1l0,0
	c-0.4-1.1-0.6-2.1-0.6-3.2l0,0C10.5,7.8,10,8.5,9.8,9.2C9.6,9.5,9.6,9.6,9.5,9.8V9.6c0-0.1,0.1-0.4,0.1-0.4s0,0,0,0.1
	C9.3,9.5,9.2,9.8,9.1,10c-0.1,0.3-0.1,0.4-0.3,0.8c0,0,0,0,0-0.1s0-0.3,0-0.1v0.1c-0.8,1.8-1.4,4-1.6,5.9c-0.1,0.4-0.1,0.7-0.1,1.1
	l0,0c-0.6,0.7-1.1,1.4-1.6,2.1c-1.6,2.5-2.7,5.4-3.4,8.3c0.4-1.1,1.1-2.1,1.7-3.1c-1.3,3.2-2,6.9-2,10.6c0.1-1.1,0.4-2.1,0.8-3.2
	c-0.1,4.4,0.6,8.6,2.4,12.7c2.4,5.5,6.5,10,11.6,13.1c2,1.4,4.4,2.5,6.8,3.2c0.3,0.1,0.7,0.1,1,0.3c-0.1,0-0.1-0.1-0.3-0.1
	C27,62.6,30,63,32.9,63c10.5,0,14-4,14.3-4.4c0.4-0.4,1-1.1,1.3-1.7c0.1-0.1,0.4-0.1,0.6-0.3l0.1-0.1l0.1-0.1
	c1.6-0.8,3.1-1.7,4.5-2.8c2-1.4,3.5-3.5,4.2-6.1c0.4-0.8,0.4-1.8,0.1-2.8c0.1-0.1,0.1-0.4,0.3-0.6c2.3-3.5,3.5-7.8,3.7-12v-0.1
	C61.7,31.1,61.7,30.1,61.6,29.2L61.6,29.2z M24,17c-0.1,0.1-0.1,0.3-0.1,0.4C23.9,17.2,24,17.1,24,17z"/>
</svg>
