<svg width="65" height="64" viewBox="0 0 65 64" fill="none" xmlns="http://www.w3.org/2000/svg">
<path d="M35.7681 4.864C35.7681 7.47 33.6101 9.624 31.0081 9.624C28.4141 9.624 26.2481 7.47 26.2481 4.864C26.2481 2.272 28.4141 0.104004 31.0081 0.104004C33.6101 0.104004 35.7681 2.272 35.7681 4.864V4.864ZM31.0081 13.51C28.2061 13.51 26.0381 15.678 26.0381 18.492C26.0381 21.302 28.2061 23.47 31.0201 23.47C33.8201 23.47 35.9881 21.302 35.9881 18.492C35.9881 15.678 33.7901 13.51 30.9881 13.51H31.0081ZM31.0081 26.928C28.2061 26.928 25.8181 29.302 25.8181 32.114C25.8181 34.926 28.2041 37.3 31.0181 37.3C33.8181 37.3 36.2041 34.926 36.2041 32.114C36.2041 29.302 33.8181 26.928 31.0181 26.928H31.0081ZM31.0081 40.542C28.2061 40.542 26.0381 42.71 26.0381 45.51C26.0381 48.324 28.2061 50.492 31.0201 50.492C33.8201 50.492 35.9881 48.324 35.9881 45.51C35.9881 42.928 33.7901 40.542 30.9881 40.542H31.0081ZM31.0081 54.386C28.4141 54.386 26.2481 56.54 26.2481 59.146C26.2481 61.728 28.4141 63.896 31.0081 63.896C33.6101 63.896 35.7681 61.738 35.7681 59.136C35.7681 56.542 33.6101 54.386 31.0081 54.386ZM44.2061 12.864C41.1741 12.864 38.5821 15.47 38.5821 18.49C38.5821 21.508 41.1741 24.104 44.2061 24.104C47.2281 24.104 49.8201 21.51 49.8201 18.49C49.8201 15.468 47.2281 12.864 44.2061 12.864ZM44.2061 26.272C40.9561 26.272 38.3641 28.864 38.3641 32.114C38.3641 35.354 40.9661 37.946 44.2061 37.946C47.4461 37.946 50.0381 35.354 50.0381 32.104C50.0381 28.864 47.4461 26.272 44.2061 26.272ZM44.2061 39.896C41.1741 39.896 38.5821 42.502 38.5821 45.51C38.5821 48.542 41.1741 51.136 44.2061 51.136C47.2281 51.136 49.8201 48.53 49.8201 45.51C49.8201 42.492 47.2281 39.896 44.2061 39.896ZM57.8201 25.624C54.3641 25.624 51.3421 28.438 51.3421 32.114C51.3421 35.572 54.1441 38.604 57.8201 38.604C61.4981 38.604 64.3101 35.758 64.3101 32.082C64.0921 28.394 61.2781 25.604 57.8201 25.604V25.624ZM17.6001 14.166C15.2261 14.166 13.2881 16.116 13.2881 18.492C13.2881 20.866 15.2261 22.814 17.6001 22.814C19.9861 22.814 21.9221 20.864 21.9221 18.492C21.9221 16.116 19.9861 14.178 17.6001 14.178V14.166ZM17.6001 27.574C15.0081 27.574 13.0581 29.51 13.0581 32.116C13.0581 34.71 14.9861 36.658 17.5801 36.658C20.1821 36.658 22.1001 34.712 22.1001 32.116C22.1001 29.51 20.1421 27.574 17.5481 27.574H17.6001ZM17.6001 41.186C15.2261 41.186 13.2881 43.136 13.2881 45.508C13.2881 47.894 15.2261 49.834 17.6001 49.834C19.9861 49.834 21.9221 47.874 21.9221 45.48C21.9221 43.072 19.9861 41.158 17.6001 41.158V41.186ZM4.20606 28.218C2.03806 28.218 0.310059 29.946 0.310059 32.114C0.310059 34.272 2.03806 36 4.20606 36C6.36406 36 8.09206 34.272 8.09206 32.114C8.09206 29.946 6.36406 28.218 4.20606 28.218V28.218Z" fill="black"/>
</svg>
