<svg width="65" height="64" viewBox="0 0 65 64" fill="none" xmlns="http://www.w3.org/2000/svg">
<path fill-rule="evenodd" clip-rule="evenodd" d="M32.87 19.85C15.12 19.85 0.75 25.3 0.75 32.01C0.75 38.72 15.12 44.15 32.87 44.15C50.62 44.15 64.97 38.72 64.97 32.01C64.97 25.3 50.6 19.85 32.87 19.85V19.85ZM32.87 42.9C15.85 42.9 2.01001 38.05 2.01001 32.01C2.01001 25.97 15.84 21.08 32.87 21.08C49.9 21.08 63.75 25.99 63.75 32.01C63.75 38.03 49.94 42.9 32.87 42.9V42.9ZM45.7 31.44C44.97 31.36 44.06 31.98 43.32 32.89C42.95 33.35 42.55 34.22 42.49 34.73C42.41 35.25 42.55 35.77 42.74 35.91C42.93 36.06 43.75 36.49 45.04 35.19C45.77 34.47 46.47 33.28 46.47 33.28L46.24 33.22C46.68 32.41 46.59 31.54 45.7 31.44V31.44ZM32.87 21.98C16.34 21.98 2.98999 26.47 2.98999 32C2.98999 37.53 16.35 42.05 32.87 42.05C49.39 42.05 62.78 37.55 62.78 32C62.78 26.45 49.38 21.98 32.87 21.98ZM18.91 37.32C17.11 37.32 15.51 36.14 15.47 34.03C15.45 32.75 16.48 31.17 18.41 30.7C18.64 30.7 18.72 30.78 18.72 30.91C18.72 30.99 18.64 31.09 18.45 31.18C17.89 31.39 16.92 32.49 16.92 33.5C16.92 34.27 17.4 35.12 18.21 35.3C18.43 35.36 18.64 35.34 18.85 35.34C20.86 35.34 23.12 33.08 25.56 29.64C25.17 29.66 23.49 29.85 23.07 30.32C22.88 30.47 22.76 30.38 22.72 30.22C22.72 30.18 22.78 30.03 22.85 29.95C23.51 29.2 25.5 29.04 25.98 28.98C27.76 26.24 30.04 24.5 30.66 24.37C30.65 24.37 30.63 24.37 30.61 24.36C29.02 23.99 27.57 23.68 26.43 23.68C22.43 23.68 20.65 25.4 20.73 26.97C20.77 27.61 21.29 28.03 22.05 27.88C22.88 27.73 24.04 26.95 24.33 26.26C24.39 26.12 24.56 26.09 24.62 26.14C24.74 26.24 24.7 26.39 24.7 26.39C24.6 27.2 23.35 29.43 21.2 29.43C20 29.43 19.19 28.31 19.21 27.21C19.23 25.16 21.32 23.09 26.48 23.09C27.45 23.09 28.55 23.17 29.75 23.38C31.14 23.63 34.6 24.21 37.41 24.25C38.45 24.25 39.77 24.29 40.85 24.13C41.99 23.94 41.74 23.9 42.19 23.9C42.6 23.9 42.6 24.07 42.6 24.23C42.6 24.89 40.28 26.16 38.31 26.16C35.41 26.16 32.4 24.85 30.84 24.42C30.9 24.48 30.94 24.57 30.89 24.69C30.87 24.73 30.66 24.96 30.58 25.02C30.17 25.39 28.76 26.31 27.22 28.89C28.46 28.83 29.91 28.58 29.91 28.58C29.91 28.58 29.83 28.31 29.83 28.08C29.89 27.19 30.41 26.65 31.07 26.75C31.44 26.81 31.69 27.12 31.69 27.46C31.69 27.81 31.42 28.33 31.15 28.58C30.96 28.72 30.76 28.87 30.51 28.99C30.51 29.22 30.82 29.4 31.09 29.43C31.03 29.66 31.05 29.76 30.95 29.74C30.33 29.74 30.08 29.14 30.08 29.14C29.25 29.29 28.45 29.39 26.81 29.55C22.69 36.22 21.4 37.32 18.88 37.32H18.91ZM47.31 36.22C48.2 36.18 49.84 34.48 50.23 34.07C50.31 33.97 50.46 33.78 50.54 33.78C50.62 33.78 50.79 33.86 50.79 33.99C50.79 34.07 50.6 34.38 50.46 34.57C49.63 35.61 48.26 37.2 46.71 37.24C45.94 37.24 45.65 36.93 45.55 36.33C45.2 36.64 44 37.18 42.77 37.18C41.76 37.16 41.34 36.56 41.14 36.08C40.95 35.69 40.87 35.11 41.02 34.53C40.46 34.82 39.94 34.86 39.2 34.84C38.33 34.82 37.79 34.43 37.52 33.41C36.52 35.23 36.48 35.29 35.47 37.2H33.71L35.97 33.37C36.26 32.85 36.41 32.44 36.51 32C36.57 31.75 36.39 31.52 36.12 31.5C35.83 31.5 35.36 31.79 34.9 32.22C34.9 32.22 33.74 33.46 32.89 34.72C32.08 35.92 30.69 37.29 29.18 37.29C28.08 37.29 27.09 36.69 26.88 35.53C26.88 35.53 26.77 35.8 25.8 36.36C25.72 36.4 25.51 36.52 25.45 36.48C25.26 36.32 25.16 36.11 25.14 35.96C25.2 35.98 25.33 35.88 25.72 35.57C26.49 34.99 26.65 34.53 26.65 34.53C26.84 34.14 27.17 33.52 27.4 33.08C28.02 31.84 29.1 30.57 30.86 30.51C31.15 30.51 31.23 30.63 31.29 30.74C31.46 30.86 31.4 31.11 31.4 31.11C30.16 31.3 29.31 32.02 28.79 32.73C28.48 33.19 28.15 33.93 28.09 34.47C27.97 35.4 28.4 36.02 29.04 36.17C30.24 36.36 31.24 35.49 32.02 34.14C32.22 33.79 32.37 32.88 32.37 32.38C32.37 31.88 32.1 31.37 31.89 31.16C31.89 30.81 32.12 30.58 32.39 30.58C32.47 30.58 32.55 30.58 32.64 30.66C33.05 31.07 33.28 31.86 33.28 32.46C33.28 32.67 33.28 32.87 33.24 33.08C34.11 32.02 35.21 30.66 36.06 30.39C36.23 30.31 36.39 30.31 36.56 30.31C38.11 30.27 37.9 31.68 37.9 31.68C38.73 30.73 39.31 30.38 40.07 30.42C40.9 30.46 41.19 31.04 41.19 31.5C41.17 32.04 40.77 32.66 40.09 32.68C39.49 32.68 39.14 32.39 38.95 31.85C38.56 31.99 38.37 32.26 38.29 32.8C38.17 33.48 38.68 34.02 39.35 34.02C40.49 34.02 40.99 33.52 41.4 33.15C42.81 31.82 43.6 30.44 45.63 30.46C46.85 30.48 47.16 31.45 47.37 31.87L50.04 27.36H51.68L47.25 35.21C47.17 35.38 46.96 35.69 46.98 35.93C47.02 36.32 47.52 36.22 47.33 36.22H47.31ZM30.97 28.21C31.09 28.09 31.3 27.71 31.26 27.46C31.24 27.34 31.18 27.19 31.03 27.21C30.72 27.27 30.53 27.42 30.45 27.73C30.34 28.06 30.39 28.29 30.45 28.54C30.45 28.54 30.65 28.56 30.97 28.21Z" fill="black"/>
</svg>
