<?xml version="1.0" encoding="utf-8"?>
<!-- Generator: Adobe Illustrator 22.0.0, SVG Export Plug-In . SVG Version: 6.00 Build 0)  -->
<svg version="1.1" id="lni_lni-github" xmlns="http://www.w3.org/2000/svg" xmlns:xlink="http://www.w3.org/1999/xlink" x="0px"
	 y="0px" viewBox="0 0 64 64" style="enable-background:new 0 0 64 64;" xml:space="preserve">
<path d="M62.2,31C61.6,15.5,48.9,2.8,33.3,2.2C24.9,1.9,17.1,4.9,11,10.6c-6,5.8-9.3,13.5-9.3,21.8c0,13.7,9.2,25.7,22.4,29.2
	c0,0,0,0,0,0c0.4,0.1,0.7,0.1,1.1,0.1c0.9,0,1.8-0.3,2.5-0.9c1-0.8,1.6-2,1.6-3.3v-3.2c0-0.9,0.1-4.7,0.1-5.4
	c0.1-0.5,0.2-0.9,0.5-1.2c0.6-0.8,0.7-1.9,0.3-2.8c-0.4-0.8-1.2-1.4-2.1-1.4c-0.6-0.1-1.3-0.2-1.8-0.4c-0.8-0.2-1.5-0.5-2.3-0.9
	c-0.6-0.3-1.1-0.8-1.6-1.4c-0.3-0.3-0.7-1-1.1-2.3c-0.4-1.2-0.5-2.4-0.5-3.7c0-1.8,0.5-3.2,1.6-4.4c0.6-0.7,0.8-1.6,0.4-2.4
	c-0.3-0.7-0.4-1.5-0.2-2.5c0,0,0,0,0,0c1.4,0.5,1.8,0.8,1.9,0.9c0,0,0.1,0.1,0.1,0.1c0.4,0.2,0.7,0.4,1,0.6l0.3,0.2
	c0.5,0.3,1.2,0.4,1.8,0.2c1.6-0.4,3.3-0.7,4.9-0.7c1.7,0,3.3,0.2,4.9,0.7c0.6,0.2,1.2,0.1,1.8-0.2l1.1-0.7c0.7-0.4,1.5-0.8,2.2-1.1
	c0.2,0.9,0.1,1.8-0.2,2.6c-0.3,0.8-0.1,1.7,0.4,2.3c1.1,1.2,1.6,2.6,1.6,4.4c0,1.4-0.2,2.6-0.5,3.6c-0.4,1-0.7,1.8-1.2,2.4
	c-0.4,0.5-1,0.9-1.8,1.4c-0.8,0.4-1.5,0.7-2.3,0.9c-0.5,0.1-1.2,0.3-1.9,0.4c0,0-0.1,0-0.1,0c-0.9,0.2-1.6,0.8-2,1.6
	c-0.3,0.8-0.3,1.7,0.3,2.5c0.4,0.5,0.6,1.3,0.6,2.2v7.5c0,1.3,0.6,2.6,1.7,3.3c1.1,0.8,2.4,1,3.6,0.6C54.2,57.4,62.9,44.8,62.2,31z
	 M40.2,57v-7c0-0.9-0.1-1.7-0.3-2.4c0,0,0.1,0,0.1,0c1-0.3,2.1-0.7,3.2-1.3c0,0,0.1,0,0.1-0.1c1.2-0.7,2.2-1.5,2.9-2.4
	c1-1.1,1.5-2.5,2-3.8c0.5-1.5,0.7-3.1,0.7-5.1c0-2.4-0.7-4.6-2-6.4c0.4-1.9,0.2-4-0.7-6.2c-0.2-0.6-0.8-1.1-1.4-1.3
	c-1.1-0.4-2.3-0.2-3.9,0.3c-1,0.4-2,0.9-3,1.4L37.7,23c-3.4-0.8-7-0.8-10.4,0c-0.1-0.1-0.2-0.1-0.4-0.2c-0.6-0.4-1.4-0.8-2.7-1.3
	c-1.6-0.7-2.9-0.9-4.1-0.5c-0.6,0.2-1.2,0.7-1.4,1.4c-0.8,2.3-1,4.3-0.6,6.2c-1.3,1.8-2,4-2,6.4c0,1.8,0.2,3.4,0.7,5
	c0.5,1.6,1.1,2.9,1.9,3.8c0.9,1.1,1.9,1.9,3,2.5c1,0.6,2.1,1,3.2,1.3c0.1,0,0.1,0,0.2,0c-0.1,0.3-0.1,0.7-0.2,1c0,0.1,0,0.2,0,0.2
	c0,0,0,1.3,0,2.7c-2.2-0.8-4-1.9-5.6-3.5c-1.2-1.4-2.6-2.7-3.3-3.1c-1.4-0.7-2.3,0.7-2.1,1.5c0.3,1,1.7,1.6,2.6,2.4
	c0.9,0.9,1.1,2.1,1.7,3.1c0.9,1.3,4,3,6.6,3v2.3C13.9,54.1,6.3,44,6.3,32.5c0-7.1,2.8-13.7,7.9-18.6C19,9.2,25.4,6.7,32.1,6.7
	c0.3,0,0.7,0,1,0C46.4,7.2,57.2,18,57.7,31.2C58.3,42.8,51.1,53.4,40.2,57z"/>
</svg>
