<svg width="65" height="64" viewBox="0 0 65 64" fill="none" xmlns="http://www.w3.org/2000/svg">
<path d="M5.68958 27.2845C5.56494 27.2845 5.53378 27.2222 5.5961 27.1287L6.25047 26.2873C6.31279 26.1939 6.4686 26.1315 6.59324 26.1315H17.7176C17.8422 26.1315 17.8734 26.225 17.811 26.3185L17.2813 27.1287C17.219 27.2222 17.0632 27.3156 16.9697 27.3156L5.68958 27.2845Z" fill="black"/>
<path d="M0.984506 30.1513C0.859863 30.1513 0.828703 30.089 0.891024 29.9955L1.5454 29.1542C1.60772 29.0607 1.76352 28.9984 1.88816 28.9984H16.0974C16.222 28.9984 16.2843 29.0918 16.2532 29.1853L16.0039 29.9332C15.9727 30.0578 15.8481 30.1201 15.7235 30.1201L0.984506 30.1513Z" fill="black"/>
<path d="M8.52552 33.0181C8.40088 33.0181 8.36972 32.9246 8.43204 32.8311L8.86829 32.0521C8.93061 31.9586 9.05525 31.8651 9.17989 31.8651H15.412C15.5367 31.8651 15.599 31.9586 15.599 32.0832L15.5366 32.8311C15.5366 32.9557 15.412 33.0492 15.3185 33.0492L8.52552 33.0181Z" fill="black"/>
<path d="M40.8702 26.7236C38.9071 27.2222 37.5672 27.5961 35.6352 28.0947C35.1678 28.2193 35.1366 28.2505 34.7315 27.7831C34.2641 27.2533 33.9214 26.9106 33.267 26.599C31.3039 25.633 29.4031 25.9134 27.6269 27.0664C25.508 28.4374 24.4174 30.4629 24.4486 32.9869C24.4797 35.4797 26.1935 37.5363 28.6552 37.8791C30.7742 38.1595 32.5503 37.4117 33.9525 35.8225C34.233 35.4797 34.4823 35.1058 34.7939 34.6696C33.6721 34.6696 32.2699 34.6696 28.7799 34.6696C28.1255 34.6696 27.9697 34.2645 28.1878 33.7347C28.5929 32.7688 29.3408 31.1484 29.777 30.3382C29.8705 30.1513 30.0886 29.8397 30.556 29.8397C32.1452 29.8397 38.0034 29.8397 41.8985 29.8397C41.8362 30.681 41.8362 31.5223 41.7115 32.3637C41.3688 34.6072 40.5274 36.6638 39.1563 38.4712C36.9128 41.4314 33.9837 43.2699 30.2756 43.7684C27.2218 44.1735 24.3862 43.5815 21.8934 41.7118C19.5875 39.9669 18.2788 37.661 17.936 34.7942C17.5309 31.3977 18.528 28.344 20.5846 25.6642C22.797 22.7662 25.7261 20.9277 29.3096 20.2734C32.2387 19.7436 35.0432 20.0864 37.5672 21.8002C39.2187 22.8909 40.4028 24.3866 41.1818 26.1939C41.3687 26.4743 41.2441 26.6301 40.8702 26.7236Z" fill="black"/>
<path d="M51.184 43.9554C48.3484 43.8931 45.7621 43.0829 43.5809 41.2133C41.7424 39.6241 40.5895 37.5986 40.2155 35.1993C39.6546 31.6781 40.6206 28.5621 42.7395 25.7888C45.0142 22.7974 47.7564 21.2393 51.4645 20.585C54.6429 20.0241 57.6343 20.3357 60.3453 22.1741C62.8069 23.8568 64.3338 26.1315 64.7389 29.123C65.2686 33.3296 64.0534 36.7573 61.1554 39.6864C59.0988 41.7741 56.5748 43.0829 53.6769 43.6749C52.8356 43.8307 51.9942 43.8619 51.184 43.9554ZM58.6003 31.3665C58.5691 30.9614 58.5691 30.6498 58.5068 30.3382C57.9459 27.2533 55.1103 25.5083 52.15 26.1939C49.2521 26.8482 47.3825 28.6867 46.6969 31.6158C46.136 34.0463 47.3201 36.508 49.5637 37.5051C51.2775 38.253 52.9914 38.1595 54.6429 37.3182C57.1046 36.0406 58.4445 34.0463 58.6003 31.3665Z" fill="black"/>
</svg>
