<svg width="64" height="64" viewBox="0 0 64 64" fill="none" xmlns="http://www.w3.org/2000/svg">
<path fill-rule="evenodd" clip-rule="evenodd" d="M15.1658 25.5892C14.1092 24.5813 12.6983 24.0296 11.2382 24.0534C8.56757 24.0534 6.30086 25.8537 5.4903 28.2797C5.06179 29.5509 5.06179 30.9276 5.4903 32.1988C6.30086 34.6248 8.56757 36.4251 11.2382 36.4251C12.6218 36.4251 13.805 36.0696 14.7236 35.4467V35.4453C15.2568 35.0916 15.7129 34.6336 16.0643 34.0988C16.4158 33.5641 16.6553 32.9637 16.7685 32.3339H11.2382V28.3906H20.8938C21.012 29.0783 21.071 29.7748 21.0701 30.4725C21.0701 33.5882 19.9567 36.2232 18.0241 38.005H18.0223L18.0241 38.0064C16.3276 39.5706 14.0012 40.4779 11.2382 40.4779C9.34032 40.4778 7.47987 39.9502 5.86449 38.9541C4.24912 37.958 2.9424 36.5324 2.09023 34.8367C1.37335 33.4102 1 31.8358 1 30.2393C1 28.6428 1.37335 27.0684 2.09023 25.6419C2.9424 23.9461 4.24912 22.5206 5.86449 21.5245C7.47987 20.5283 9.34032 20.0008 11.2382 20.0007C13.7802 19.971 16.2351 20.9265 18.0881 22.667L15.1658 25.5892ZM30.3218 32.0282V39.245H28.0324V21.4227H34.1044C34.8292 21.4076 35.5498 21.5361 36.2247 21.8009C36.8995 22.0657 37.5153 22.4616 38.0363 22.9656C38.5627 23.439 38.9815 24.0196 39.2648 24.6684C39.5481 25.3171 39.6893 26.019 39.6788 26.7269C39.6939 27.4385 39.5549 28.145 39.2714 28.7979C38.9879 29.4507 38.5666 30.0346 38.0363 30.5095C36.9746 31.5219 35.6639 32.0277 34.1044 32.0268H30.3218V32.0282ZM30.3218 23.6169V29.8383H34.1613C34.5822 29.8507 35.0011 29.7752 35.3912 29.6166C35.7812 29.4579 36.1339 29.2195 36.4266 28.9168C36.7178 28.6337 36.9492 28.2951 37.1072 27.9211C37.2653 27.547 37.3467 27.145 37.3467 26.739C37.3467 26.3329 37.2653 25.9309 37.1072 25.5568C36.9492 25.1828 36.7178 24.8442 36.4266 24.5611C36.1376 24.252 35.7861 24.0078 35.3956 23.8448C35.0051 23.6817 34.5843 23.6036 34.1613 23.6155H30.3218V23.6169ZM44.9545 26.6529C46.6467 26.6529 47.9825 27.1051 48.9618 28.0095C49.9411 28.9139 50.4303 30.154 50.4293 31.7296V39.245H48.2394V37.5528H48.1399C47.1918 38.9464 45.931 39.6432 44.3573 39.6432C43.0139 39.6432 41.89 39.245 40.9856 38.4487C40.5516 38.0832 40.2046 37.6254 39.9699 37.1088C39.7352 36.5922 39.6187 36.0297 39.629 35.4624C39.629 34.2006 40.1059 33.1971 41.0596 32.452C42.0133 31.7068 43.2865 31.3333 44.8791 31.3314C46.2386 31.3314 47.3582 31.5802 48.238 32.078V31.5547C48.2406 31.1679 48.157 30.7854 47.9935 30.4349C47.8299 30.0844 47.5904 29.7747 47.2923 29.5283C46.6869 28.982 45.8979 28.684 45.0825 28.6935C43.8036 28.6935 42.7916 29.233 42.0465 30.3118L40.03 29.0419C41.1392 27.4493 42.7807 26.6529 44.9545 26.6529ZM41.9924 35.5122C41.9909 35.8035 42.059 36.0911 42.1911 36.3508C42.3232 36.6105 42.5154 36.8349 42.7518 37.0053C43.2581 37.4036 43.8866 37.6146 44.5307 37.6025C45.4969 37.6009 46.4229 37.2164 47.106 36.5332C47.8645 35.8193 48.2437 34.9817 48.2437 34.0205C47.5298 33.4516 46.5344 33.1672 45.2574 33.1672C44.3274 33.1672 43.5519 33.3914 42.931 33.8399C42.3038 34.2949 41.9924 34.8481 41.9924 35.5122ZM55.3552 44.6203L63.0001 27.0511H60.5072L56.9735 35.8108H56.9237L53.2904 27.0511H50.8019L55.8288 38.4728L52.9918 44.6203H55.3552Z" fill="black"/>
</svg>
