<svg width="64" height="64" viewBox="0 0 64 64" fill="none" xmlns="http://www.w3.org/2000/svg">
<path d="M35.8077 32L42.0651 37.3751L49.0633 43.3867V32V20.9467L42.4355 26.4767L35.8077 32Z" fill="black"/>
<path d="M3 42.3333V52C3 54.21 4.77957 56 6.97669 56H16.587V48.66V42.3333H9.79351H3Z" fill="black"/>
<path d="M16.587 8L3 21.6667H9.79351H16.587V15.3229V8Z" fill="black"/>
<path d="M16.587 21.6667H3V42.3333H16.587V21.6667Z" fill="black"/>
<path d="M57.7457 13.7867L49.0633 20.9467V43.3867L57.7855 50.58C59.0912 51.6067 61 50.67 61 49V15.3333C61 13.6433 59.0481 12.7167 57.7457 13.7867ZM35.8077 32V42.3333H16.587V56H45.0866C47.2837 56 49.0633 54.21 49.0633 52V43.3867L35.8077 32Z" fill="black"/>
<path d="M45.0866 8H16.587V21.6667H35.8077V32L49.0633 20.9533V12C49.0633 9.79 47.2837 8 45.0866 8Z" fill="black"/>
</svg>
