<svg width="64" height="64" viewBox="0 0 64 64" fill="none" xmlns="http://www.w3.org/2000/svg">
<path d="M61.9973 33.5845C60.7494 30.0297 58.4048 26.9666 55.2849 24.8678C54.0559 20.3109 51.5033 16.2078 47.9674 13.0691L47.854 13.1825V13.0502C44.7909 10.3274 41.066 8.43656 37.0385 7.54788C33.0111 6.6781 28.8323 6.82937 24.8805 8.00168C20.9476 9.19289 17.374 11.3673 14.4999 14.317C11.6259 17.2667 9.54598 20.8971 8.46821 24.8678C8.60057 24.8111 8.75183 24.7733 8.88419 24.7354C8.65729 24.8678 8.4493 25.0191 8.24131 25.1703C5.29163 27.3069 3.07937 30.3134 1.90706 33.7736C0.753663 37.2148 0.696938 40.9587 1.7558 44.4378C2.81466 47.9358 4.93238 50.9989 7.82533 53.2301H7.84424L7.82533 53.2868C10.8696 55.5936 14.5756 56.8227 18.395 56.8037H31.8009L31.8766 56.8794H45.3392C49.1019 56.9172 52.7701 55.726 55.8144 53.5137C58.8397 51.3015 61.0897 48.1627 62.2053 44.5701C63.3209 40.9776 63.2453 37.1203 61.9973 33.5845V33.5845ZM51.56 41.9419C51.2197 42.7549 50.728 43.5113 50.1041 44.1352C49.4801 44.7592 48.7427 45.2508 47.9107 45.5912C47.0977 45.9315 46.2279 46.1017 45.3392 46.1017H31.8577V46.0261H18.395C17.4307 46.0261 16.5042 45.8181 15.6344 45.421C14.6512 44.9672 13.8003 44.2865 13.1196 43.4356C12.4578 42.5848 12.004 41.5637 11.815 40.5049C11.607 39.4271 11.6826 38.3304 12.004 37.2905C12.3255 36.2505 12.8927 35.3051 13.668 34.5299C14.4432 33.7546 15.3886 33.1874 16.4286 32.866C17.4685 32.5445 18.5652 32.4689 19.643 32.658C20.7018 32.866 21.7229 33.3198 22.5737 33.9815C23.4246 34.6622 24.1053 35.532 24.5591 36.5152L32.3682 28.7062C30.7232 26.5695 28.6244 24.83 26.2041 23.6388C24.8238 22.9581 23.349 22.4664 21.8363 22.1828C21.893 22.1261 21.9309 22.1072 21.9876 22.1261C24.2944 19.5924 27.4899 18.0419 30.9122 17.7772C34.3346 17.5125 37.7192 18.5714 40.3853 20.7269H40.5365C42.0681 21.9937 43.2782 23.582 44.1291 25.3972C44.98 27.2502 45.3959 29.2545 45.3581 31.2966V32.6391C46.2468 32.6391 47.1166 32.8092 47.9296 33.1496C48.7616 33.4899 49.499 33.9815 50.123 34.6055C50.747 35.2295 51.2386 35.9858 51.5789 36.7989C51.9193 37.6119 52.0894 38.4817 52.0894 39.3704C52.0894 40.2591 51.9193 41.1288 51.5789 41.9419H51.56Z" fill="black"/>
</svg>
