<svg width="64" height="64" viewBox="0 0 64 64" fill="none" xmlns="http://www.w3.org/2000/svg">
<path fill-rule="evenodd" clip-rule="evenodd" d="M32 63C49.1203 63 63 49.1204 63 32C63 14.8796 49.1203 1 32 1C14.8797 1 1 14.8796 1 32C1 49.1204 14.8797 63 32 63ZM38.6106 40.2681C37.57 40.2681 36.6083 39.5817 36.4243 38.5812C36.3669 38.281 36.3777 37.9721 36.4558 37.6764C36.5339 37.3808 36.6775 37.1058 36.8762 36.8709C37.075 36.636 37.3241 36.4471 37.6057 36.3176C37.8873 36.1881 38.1945 36.1212 38.5054 36.1217H50V47.9263C49.9989 48.2316 49.9295 48.5329 49.7966 48.8089C49.6637 49.0849 49.4706 49.3287 49.231 49.5232C48.9915 49.7177 48.7112 49.858 48.4103 49.9342C48.1093 50.0104 47.7949 50.0205 47.4895 49.964C46.4664 49.7833 45.7654 48.8408 45.7654 47.8252V45.8541L46.1641 43.6723C44.4481 45.613 42.3261 47.1673 39.9428 48.229C37.5594 49.2907 34.9709 49.8348 32.354 49.8242C21.8584 49.8242 13.422 41.3247 14.031 30.9101C14.5568 21.963 21.9504 14.6448 31.0856 14.0445C34.3705 13.8174 37.6571 14.4627 40.6008 15.9127C43.5444 17.3627 46.0365 19.564 47.8159 22.2858C48.0816 22.7335 48.1643 23.2637 48.0471 23.769C47.93 24.2744 47.6218 24.7171 47.185 25.0078C46.2233 25.6598 44.9001 25.3155 44.2341 24.3751C41.7236 20.9216 37.3466 18.0618 32.354 18.0618C22.7741 18.0618 15.4243 27.4672 19.2843 37.3202C20.9865 41.6603 25.0173 44.7697 29.7098 45.4905C35.4735 46.3749 40.7443 44.3694 43.7806 40.0099L41.8835 40.2681H38.6106Z" fill="black"/>
</svg>
