<?xml version="1.0" encoding="utf-8"?>
<!-- Generator: Adobe Illustrator 22.0.0, SVG Export Plug-In . SVG Version: 6.00 Build 0)  -->
<svg version="1.1" id="lni_lni-instagram" xmlns="http://www.w3.org/2000/svg" xmlns:xlink="http://www.w3.org/1999/xlink" x="0px"
	 y="0px" viewBox="0 0 64 64" style="enable-background:new 0 0 64 64;" xml:space="preserve">
<g>
	<path d="M32,17.6c-7.9,0-14.4,6.4-14.4,14.4c0,7.9,6.4,14.4,14.4,14.4c7.9,0,14.3-6.4,14.3-14.4C46.3,24.1,39.9,17.6,32,17.6z
		 M32,41.9c-5.4,0-9.9-4.4-9.9-9.9c0-5.4,4.4-9.9,9.9-9.9c5.4,0,9.8,4.4,9.8,9.9C41.8,37.4,37.4,41.9,32,41.9z"/>
	<path d="M47,11.6c-2,0-3.5,1.6-3.5,3.5c0,1.9,1.6,3.5,3.5,3.5c1.9,0,3.5-1.6,3.5-3.5C50.5,13.2,49,11.6,47,11.6z"/>
	<path d="M46.9,1.8H17.1C8.6,1.8,1.8,8.6,1.8,17.1V47c0,8.4,6.9,15.3,15.3,15.3H47c8.4,0,15.3-6.9,15.3-15.3V17.1
		C62.3,8.6,55.4,1.8,46.9,1.8z M57.8,46.9c0,6-4.8,10.8-10.8,10.8H17.1c-6,0-10.8-4.8-10.8-10.8V17.1c0-6,4.9-10.8,10.8-10.8h29.8
		c6,0,10.8,4.9,10.8,10.8V46.9z"/>
</g>
</svg>
