<?xml version="1.0" encoding="utf-8"?>
<!-- Generator: Adobe Illustrator 22.0.1, SVG Export Plug-In . SVG Version: 6.00 Build 0)  -->
<svg version="1.1" id="lni_lni-instagram-filled" xmlns="http://www.w3.org/2000/svg" xmlns:xlink="http://www.w3.org/1999/xlink"
	 x="0px" y="0px" viewBox="0 0 64 64" style="enable-background:new 0 0 64 64;" xml:space="preserve">
<g>
	<ellipse cx="32.1" cy="32" rx="11.6" ry="11.6"/>
	<path d="M44.7,1H19.3C9.2,1,1,9.2,1,19.3v25.2C1,54.8,9.2,63,19.3,63h25.2C54.8,63,63,54.8,63,44.7V19.3C63,9.2,54.8,1,44.7,1z
		 M32.1,47.2c-8.5,0-15.2-6.9-15.2-15.2s6.8-15.2,15.2-15.2c8.3,0,15.1,6.9,15.1,15.2S40.5,47.2,32.1,47.2z M53.1,18.2
		c-1,1.1-2.5,1.7-4.2,1.7c-1.5,0-3-0.6-4.2-1.7C43.6,17.1,43,15.7,43,14s0.6-3,1.7-4.2C45.8,8.6,47.2,8,48.9,8
		c1.5,0,3.1,0.6,4.2,1.7c1,1.3,1.7,2.8,1.7,4.4C54.7,15.7,54.1,17.1,53.1,18.2z"/>
	<path d="M49,11.6c-1.3,0-2.4,1.1-2.4,2.4s1.1,2.4,2.4,2.4c1.3,0,2.4-1.1,2.4-2.4S50.4,11.6,49,11.6z"/>
</g>
</svg>
