<?xml version="1.0" encoding="utf-8"?>
<!-- Generator: Adobe Illustrator 22.0.1, SVG Export Plug-In . SVG Version: 6.00 Build 0)  -->
<svg version="1.1" id="lni_lni-instagram-original" xmlns="http://www.w3.org/2000/svg" xmlns:xlink="http://www.w3.org/1999/xlink"
	 x="0px" y="0px" viewBox="0 0 64 64" style="enable-background:new 0 0 64 64;" xml:space="preserve">
<g>
	<path d="M62.9,19.2c-0.1-3.2-0.7-5.5-1.4-7.6S59.7,7.8,58,6.1s-3.4-2.7-5.4-3.5c-2-0.8-4.2-1.3-7.6-1.4C41.5,1,40.5,1,32,1
		s-9.4,0-12.8,0.1s-5.5,0.7-7.6,1.4S7.8,4.4,6.1,6.1s-2.8,3.4-3.5,5.5c-0.8,2-1.3,4.2-1.4,7.6S1,23.5,1,32s0,9.4,0.1,12.8
		c0.1,3.4,0.7,5.5,1.4,7.6c0.7,2.1,1.8,3.8,3.5,5.5s3.5,2.8,5.5,3.5c2,0.7,4.2,1.3,7.6,1.4C22.5,63,23.4,63,31.9,63s9.4,0,12.8-0.1
		s5.5-0.7,7.6-1.4c2.1-0.7,3.8-1.8,5.5-3.5s2.8-3.5,3.5-5.5c0.7-2,1.3-4.2,1.4-7.6c0.1-3.2,0.1-4.2,0.1-12.7S63,22.6,62.9,19.2z
		 M57.3,44.5c-0.1,3-0.7,4.6-1.1,5.8c-0.6,1.4-1.3,2.5-2.4,3.5c-1.1,1.1-2.1,1.7-3.5,2.4c-1.1,0.4-2.7,1-5.8,1.1
		c-3.2,0-4.2,0-12.4,0s-9.3,0-12.5-0.1c-3-0.1-4.6-0.7-5.8-1.1c-1.4-0.6-2.5-1.3-3.5-2.4c-1.1-1.1-1.7-2.1-2.4-3.5
		c-0.4-1.1-1-2.7-1.1-5.8c0-3.1,0-4.1,0-12.4s0-9.3,0.1-12.5c0.1-3,0.7-4.6,1.1-5.8c0.6-1.4,1.3-2.5,2.3-3.5
		c1.1-1.1,2.1-1.7,3.5-2.3c1.1-0.4,2.7-1,5.8-1.1c3.2-0.1,4.2-0.1,12.5-0.1s9.3,0,12.5,0.1c3,0.1,4.6,0.7,5.8,1.1
		c1.4,0.6,2.5,1.3,3.5,2.3c1.1,1.1,1.7,2.1,2.4,3.5c0.4,1.1,1,2.7,1.1,5.8c0.1,3.2,0.1,4.2,0.1,12.5S57.4,41.3,57.3,44.5z"/>
	<path d="M32,16.1c-8.9,0-15.9,7.2-15.9,15.9c0,8.9,7.2,15.9,15.9,15.9S48,40.9,48,32S40.9,16.1,32,16.1z M32,42.4
		c-5.8,0-10.4-4.7-10.4-10.4S26.3,21.6,32,21.6c5.8,0,10.4,4.6,10.4,10.4S37.8,42.4,32,42.4z"/>
	<ellipse cx="48.7" cy="15.4" rx="3.7" ry="3.7"/>
</g>
</svg>
