<svg width="64" height="64" viewBox="0 0 64 64" fill="none" xmlns="http://www.w3.org/2000/svg">
<path d="M62.72 8.52C62.12 6.94 60.68 4.72 58.64 3.14C57.44 2.24 56.08 1.36 54.16 0.8C52.08 0.2 49.52 0 46.4 0H17.6C14.46 0 11.92 0.2 9.86 0.82C7.94 1.4 6.52 2.26 5.36 3.16C3.32 4.72 1.88 6.96 1.26 8.54C0.0199999 11.72 0 15.32 0 17.6V46.4C0 48.68 0.0199999 52.28 1.26 55.48C1.88 57.06 3.32 59.28 5.36 60.86C6.54 61.76 7.94 62.64 9.86 63.2C11.92 63.8 14.46 64 17.6 64H46.4C49.54 64 52.08 63.8 54.14 63.18C56.06 62.6 57.48 61.74 58.64 60.84C60.68 59.28 62.12 57.04 62.74 55.46C64 52.28 64 48.66 64 46.38V17.58C64 15.3 63.98 11.7 62.74 8.5L62.72 8.52ZM12.68 44H10.3V29.78H12.68V44ZM11.5 27.38C10.7 27.38 10.02 26.72 10.02 25.9C10.02 25.08 10.68 24.42 11.5 24.42C12.32 24.42 13 25.08 13 25.9C12.98 26.72 12.32 27.38 11.5 27.38ZM25.8 44.36C19.52 44.36 15.56 39.88 15.56 32.74C15.56 25.6 19.52 21.1 25.8 21.1C32.08 21.1 36.04 25.6 36.04 32.74C36.04 39.88 32.08 44.36 25.8 44.36V44.36ZM46.52 44.36C41.8 44.36 38.48 41.76 38.26 37.88H40.4C40.64 40.58 43.18 42.42 46.72 42.42C50.1 42.42 52.52 40.58 52.52 38.04C52.52 35.94 51.06 34.68 47.72 33.84L44.92 33.12C40.74 32.06 38.88 30.3 38.88 27.32C38.88 23.68 42.16 21.08 46.6 21.08C51 21.08 54.2 23.68 54.34 27.26H52.2C52 24.72 49.74 23.02 46.54 23.02C43.42 23.02 41.1 24.76 41.1 27.24C41.1 29.18 42.5 30.32 45.82 31.16L48.26 31.78C52.8 32.92 54.7 34.66 54.7 37.8C54.7 41.76 51.52 44.36 46.52 44.36V44.36ZM33.86 32.74C33.86 38.64 30.74 42.38 25.8 42.38C20.86 42.38 17.76 38.64 17.76 32.74C17.76 26.82 20.86 23.08 25.8 23.08C30.74 23.08 33.86 26.82 33.86 32.74Z" fill="black"/>
</svg>
