<svg width="65" height="64" viewBox="0 0 65 64" fill="none" xmlns="http://www.w3.org/2000/svg">
<path fill-rule="evenodd" clip-rule="evenodd" d="M8.24719 18.1364C8.23286 18.1619 8.19966 18.2788 8.19966 18.2788C8.27947 18.281 8.47776 18.2518 8.48874 18.2502L8.48922 18.2501C9.01674 18.1951 9.14564 17.8627 9.14564 17.8627C8.92168 17.7934 8.72726 17.8107 8.72726 17.8107C8.37388 17.8376 8.27712 18.0663 8.25233 18.1248C8.25006 18.1302 8.24839 18.1341 8.24719 18.1364ZM58.5037 34.221C59.1632 34.0004 59.7248 33.5879 59.8559 33.264C59.9598 33.0474 59.9493 32.8185 59.7723 32.6426C59.4861 32.3596 58.8311 32.638 58.3483 32.8431C58.245 32.887 58.1496 32.9275 58.0673 32.9585C58.0673 32.9585 56.6074 33.3837 54.5994 32.4557C54.5994 32.4557 52.5605 31.46 50.3445 30.0845C50.3445 30.0845 47.38 28.62 46.6684 28.2265C42.9852 26.1879 37.3168 23.8474 34.4895 22.6799C34.2571 22.584 34.0439 22.496 33.8526 22.4167C32.1769 21.7217 29.1039 20.6446 29.1039 20.6446C25.0044 19.1448 23.2384 18.8545 23.2384 18.8545C22.7545 18.7573 22.7182 18.8787 22.7182 18.8787C22.6693 18.9397 22.7545 19.0233 22.7545 19.0233C23.1781 19.7251 23.2745 20.209 23.2745 20.209C20.4932 17.3064 15.5456 17.0523 15.5456 17.0523C14.0494 16.9724 13.2015 17.7322 13.2015 17.7322C13.0809 17.8536 13.2136 17.938 13.2136 17.938C15.0053 18.5222 16.0416 20.4389 16.0416 20.4389C13.904 18.7218 12.5948 18.443 12.5948 18.443C11.1431 18.177 11.1671 17.6448 11.1671 17.6448C12.4983 17.9787 13.3281 17.2884 13.5935 16.977C13.6929 16.8595 13.6176 16.7916 13.54 16.7833C11.4303 16.5519 10.2423 16.7871 10.2423 16.7871C8.11572 17.1063 7.69464 17.6308 7.57308 17.7822C7.56663 17.7903 7.56103 17.7972 7.55605 17.8031C7.4309 17.9214 7.40152 18.3707 7.98645 18.2847C7.98651 18.2847 7.98693 18.2833 7.98772 18.2806C8.00468 18.2223 8.19584 17.5659 8.84119 17.5227C8.84119 17.5227 9.53456 17.4232 9.92268 17.6108C9.92268 17.6108 9.32111 18.4912 8.40021 18.5582C8.40021 18.5582 8.02403 18.5862 7.91257 18.5929C7.80174 18.5998 6.98633 18.6819 6.51358 19.517C6.51358 19.517 6.26646 19.8893 6.55355 20.1977C6.55825 20.2027 6.56275 20.208 6.56733 20.2134C6.57515 20.2226 6.58317 20.2321 6.59272 20.2406C6.59272 20.2406 6.87312 20.5843 7.26053 20.5594C7.26053 20.5594 7.57476 20.6447 7.92602 20.0642C7.92602 20.0642 8.32481 19.3852 8.50721 19.1681C8.50721 19.1681 8.7408 18.8078 9.21347 18.8078C9.21347 18.8078 10.2189 18.7158 10.4006 19.9626C10.491 20.5867 10.3343 21.0442 9.22024 21.9389C9.22024 21.9389 9.03776 22.0964 8.84485 22.217C8.84485 22.217 8.72424 22.3142 8.79669 22.4228C8.79669 22.4228 8.96165 22.6542 9.18481 22.6384C9.1925 22.6378 9.20017 22.6373 9.20785 22.6368C9.42276 22.622 9.64554 22.6068 10.7489 21.5101C10.7489 21.5101 12.2766 21.1159 12.2766 19.9279C12.2766 19.9279 12.3128 19.2834 11.9692 18.8124C11.9692 18.8124 12.6671 18.8659 13.2837 20.001C13.2837 20.001 13.4744 20.4992 13.9553 20.5814C13.9553 20.5814 15.6197 20.8783 16.7661 21.7972C17.2146 22.1568 17.7173 22.6323 18.0701 23.1954C17.8312 22.6836 17.4776 21.6872 17.7633 20.7013C17.7633 20.7013 18.4332 22.7122 19.1501 23.3107C19.6823 23.7546 20.3154 24.0802 22.1772 24.5242C22.1772 24.5242 19.5745 23.9281 17.0916 24.176C17.0916 24.176 14.7581 24.3916 14.0941 25.8772C14.0911 25.8839 14.0881 25.8906 14.0851 25.8973C13.9937 26.1027 13.8998 26.3135 13.8815 26.6113C13.8815 26.6113 13.8032 27.4789 14.8599 27.5309C15.1764 27.3727 15.4954 27.0923 15.7252 26.7297C15.8647 26.5105 15.5693 26.426 15.5693 26.426C15.3031 26.3054 15.3696 26.0514 15.3696 26.0514C15.4916 25.52 16.5113 25.4778 16.5113 25.4778C17.8658 25.4778 19.6078 26.1554 19.6078 26.1554C23.3954 27.3599 24.134 25.5547 24.134 25.5547C24.6821 24.5605 23.9886 22.193 23.9886 22.193C26.7992 24.433 31.305 24.6531 31.305 24.6531C28.5133 25.0043 25.0045 23.7652 25.0045 23.7652C25.4395 24.6358 25.3173 25.6834 25.3173 25.6834C26.4124 26.1877 27.5392 26.5223 28.2116 26.6573C28.2468 26.6643 28.2825 26.6716 28.3192 26.6791C28.9848 26.815 29.989 27.0202 34.0176 26.9022C34.1179 26.8994 34.2131 26.8959 34.3037 26.8926C34.4992 26.8854 34.6736 26.8791 34.8333 26.8811C34.9425 26.3656 33.8534 25.4234 33.8534 25.4234C34.9879 25.9171 36.0467 27.2994 36.2435 27.5647C36.3717 27.7283 36.5066 27.9281 36.6521 28.176C36.6829 28.2282 36.7199 28.2949 36.7635 28.3736C37.3141 29.3677 38.9265 32.2787 42.8366 32.2214L45.0029 32.235C45.0029 32.235 47.959 32.1627 49.217 33.0353C49.836 33.4654 50.0766 33.6724 50.3384 33.8976C50.4263 33.9732 50.5165 34.0509 50.6243 34.1398C50.7214 34.2197 50.8208 34.3035 50.9223 34.3893C51.6359 34.9916 52.4598 35.6871 53.3982 35.77C54.1075 35.8703 54.7149 35.698 54.8837 35.2169C54.8837 35.2169 55.1272 34.6131 54.5385 34.2673C54.2754 34.1728 53.9896 34.0395 53.6656 33.8361L53.6351 33.817C53.0235 33.4333 53.0008 33.4191 52.4574 32.9414C52.2501 32.7584 51.9985 32.4428 51.7527 32.1344C51.5087 31.8282 51.2702 31.5291 51.0863 31.3737C50.6845 31.0367 50.135 30.6387 48.85 30.5889C47.5429 30.5378 46.0196 30.4706 45.5734 30.3801C45.1069 30.2859 44.84 30.2128 44.427 29.8812C44.0939 29.6137 43.8803 29.3204 43.6959 28.9909C43.6151 28.8467 43.5387 28.6801 43.4498 28.486C43.3371 28.2401 43.2043 27.9502 43.0168 27.6063C42.7846 27.1827 42.3428 26.8338 42.3428 26.8338C42.3721 26.8524 42.4007 26.8706 42.4286 26.8884C42.9527 27.2219 43.2458 27.4084 43.6265 27.9787C44.463 29.2299 45.1294 29.609 45.6917 29.8087C46.2483 30.0055 47.4408 30.1481 48.4485 30.2686C48.954 30.3291 49.413 30.384 49.7219 30.4374C50.6082 30.5911 51.1125 31.0962 51.3198 31.3102C51.4105 31.4037 51.5018 31.4984 51.5932 31.5932C51.9709 31.985 52.3508 32.3791 52.7021 32.7061C53.3195 33.2813 53.7129 33.5308 54.9294 33.8886C55.4526 34.0423 55.6094 34.2128 55.6094 34.2128C56.3531 34.4599 57.8073 34.4538 58.5037 34.221ZM59.2482 32.024C59.2482 32.024 60.093 31.8741 60.3555 32.4853C60.4488 32.7047 60.3947 33.0551 60.0858 33.4373C58.9804 34.8888 56.616 34.7366 56.0583 34.7007C55.9572 34.6942 55.9155 34.6915 55.9513 34.7029C56.1406 35.1541 56.2016 35.9601 55.4245 36.413C55.4245 36.413 54.1056 37.1282 51.8224 35.5897C51.393 35.3559 50.8143 34.8667 50.3039 34.4353C49.898 34.0922 49.5353 33.7856 49.3253 33.6731C48.2399 33.0927 47.1343 33.0814 45.7768 33.0814L43.5434 33.1427C39.1555 33.2559 37.7164 30.7244 36.7412 29.0089C36.6196 28.795 36.5053 28.5939 36.3933 28.4121C36.1461 28.0104 35.519 27.497 34.5323 27.3787C34.5323 27.3787 33.82 27.3282 33.2134 27.3742C30.1312 27.6063 28.2311 27.4096 28.2311 27.4096C26.2812 27.1865 24.9486 26.6415 24.9486 26.6415C24.3886 27.8973 22.0692 27.6621 22.0692 27.6621C20.0297 27.4804 18.4574 26.5639 18.4574 26.5639C17.01 25.9246 16.2934 26.1062 16.2934 26.1062C16.0756 26.1553 16.1237 26.3972 16.1237 26.3972C16.2028 26.698 16.0831 27.0138 15.9639 27.1427C15.7852 27.3997 15.4152 27.6416 15.2079 27.7638C15.1182 27.8256 14.942 27.8852 14.7814 27.9025C14.559 27.9274 14.323 27.9221 14.036 27.797C13.8369 27.7096 13.5249 27.4827 13.414 27.1715C13.414 27.1715 12.821 25.7409 14.3442 24.5552C14.3442 24.5552 15.4357 23.5173 18.1401 23.5467C17.4294 23.007 14.8197 21.1369 12.9935 21.2614C12.9935 21.2614 11.3459 21.431 10.1767 22.692C10.1767 22.692 9.72308 23.2091 9.17804 23.1909C8.56151 23.1909 8.34066 22.3603 8.34066 22.3603C8.24034 22.0973 8.46724 21.9148 8.46724 21.9148L8.54192 21.8545C8.51398 21.7664 8.48078 21.6517 8.45745 21.5486C8.41756 21.3669 8.43261 21.3239 8.43261 21.3239C8.43261 21.3239 8.79207 21.522 8.95345 21.5251L9.03171 21.5213C9.31362 21.4626 9.61887 20.935 9.61887 20.935C9.89011 20.2672 9.64984 19.7599 9.42357 19.6016C9.14166 19.4041 8.76412 19.5277 8.6119 19.6468C8.44073 19.781 8.27258 20.0501 8.18286 20.2672C8.18286 20.2672 8.10603 20.4504 8.12187 20.6478C8.13083 20.758 8.19838 20.9177 8.25828 21.0594C8.29422 21.1444 8.3274 21.2228 8.34352 21.2802C8.34352 21.2802 7.91313 21.2651 7.66664 21.0164C7.66664 21.0164 7.65987 21.0759 7.42246 21.1C6.88586 21.1535 6.53468 20.7932 6.35905 20.5874C6.18485 20.3808 5.90899 19.9 5.90899 19.9C5.68607 19.4771 5.96329 19.1937 5.96329 19.1937C6.48046 18.5945 7.11587 18.177 7.11587 18.177C7.16937 18.131 7.15201 18.0594 7.15201 18.0594C7.02773 17.7993 7.2825 17.5883 7.2825 17.5883C8.72734 15.9466 12.9935 16.0001 12.9935 16.0001C21.2295 16.0001 32.6804 21.1957 32.6804 21.1957C38.6154 23.6492 42.6269 25.7054 42.6269 25.7054C46.1288 27.4653 49.6299 29.3045 50.5758 29.8457C50.8278 29.9898 51.1159 30.17 51.4435 30.3749C52.3457 30.939 53.5481 31.6908 55.1238 32.3964C55.1238 32.3964 56.2386 32.8922 57.6963 32.5914C58.0465 32.5194 58.3459 32.3766 58.6068 32.2521C58.851 32.1357 59.0614 32.0353 59.2482 32.024ZM11.9345 17.3329C12.484 17.3495 12.9558 17.1444 12.9574 17.1151C12.9589 17.0857 12.3491 17.0276 12.3491 17.0276C11.7906 17.051 11.5629 17.2582 11.5599 17.2824C11.5561 17.3057 11.7054 17.3252 11.9345 17.3329ZM25.9586 46.8743C23.316 46.8743 20.8044 45.9651 20.8044 42.8921C20.8044 41.8934 21.2477 40.8698 21.9171 40.1371C22.9663 38.9981 24.5595 38.5439 26.0641 38.5439C26.9739 38.5439 28.0277 38.7503 28.8477 39.1672V40.1176C28.1045 39.5634 27.1262 39.1813 26.1721 39.1813C23.9982 39.1813 22.499 40.5412 22.499 42.7911C22.499 44.8275 23.8219 46.2214 25.8569 46.2214C26.3748 46.2214 27.0916 46.1293 27.5846 45.9403V43.0188H29.1138V46.281C29.0017 46.3315 28.8837 46.3786 28.7611 46.4224C27.9029 46.7293 26.8205 46.8743 25.9586 46.8743ZM12.8609 40.2127L11.091 43.9061H14.547L12.8609 40.2127ZM15.8072 46.6977L14.8003 44.4502H10.8302L9.74867 46.6977H8.77856L12.7704 38.6953H13.7209L17.6284 46.6977H15.8072ZM49.2914 40.2127L47.5202 43.9061H50.9753L49.2914 40.2127ZM52.2363 46.6977L51.2279 44.4502H47.2587L46.1786 46.6977H45.208L49.1998 38.6953H50.151L54.0568 46.6977H52.2363ZM37.9438 46.875C39.9563 46.875 41.1585 46.2037 41.5428 44.61C41.6416 44.2016 41.6876 43.7522 41.6875 42.9565V38.6955H40.7463V43.2767C40.7463 43.8298 40.6994 44.188 40.6391 44.4804C40.3782 45.7498 39.4172 46.2171 37.9746 46.2171C37.2925 46.2171 36.4838 46.0581 36.0156 45.5146C35.6033 45.0511 35.5165 44.4218 35.5165 43.3666V38.6956H33.9873V43.4478C33.9873 43.5084 33.9877 43.5687 33.9886 43.6288C34.0021 44.5293 34.1301 45.3648 34.7584 45.981C35.3765 46.6007 36.578 46.875 37.9438 46.875ZM62.8138 41.1151C62.8136 39.7627 61.8308 39.251 60.6044 39.251H59.4798V43.0792H60.4634C61.288 43.0792 61.7812 42.9253 62.1655 42.6156C62.5711 42.2899 62.8138 41.7904 62.8138 41.1151ZM63.2034 46.6977L61.0829 43.6248H59.4798V46.6977H57.9497V38.6955H60.844C62.0183 38.6955 63.1935 38.8658 63.8478 39.5887C64.19 39.9664 64.3761 40.4918 64.3761 41.1678C64.3761 42.4046 63.4437 43.1538 62.6131 43.4485L64.9648 46.6978L63.2034 46.6977ZM2.31513 48.3427C1.91124 48.5326 1.46874 48.6584 1.01343 48.6584C2.06187 47.9003 2.50509 47.1291 2.65659 45.8523C2.74552 45.1438 2.74552 44.4352 2.74552 43.7274V38.6956H4.27563V44.7518C4.27579 46.2306 3.70663 47.6605 2.31513 48.3427Z" fill="black"/>
</svg>
