<svg width="65" height="64" viewBox="0 0 65 64" fill="none" xmlns="http://www.w3.org/2000/svg">
<path d="M25.6915 2.24117C27.7298 1.77311 29.8122 1.49581 31.8999 1.39161C39.44 1.38454 46.9801 1.38807 54.5202 1.38984C57.2225 1.41633 59.932 1.30683 62.6325 1.44812C62.6343 11.6411 62.6378 21.8359 62.6308 32.0289C62.6255 37.7657 61.0235 43.5024 57.9909 48.3755C54.529 53.9657 49.2126 58.4184 43.0378 60.7074C39.9946 61.8926 36.7429 62.4595 33.4913 62.6203C30.1372 62.6838 26.7636 62.2087 23.5667 61.1914C17.6533 59.2962 12.3882 55.474 8.70555 50.4791C6.07031 46.9731 4.24225 42.8701 3.33263 38.5834C1.9426 32.1578 2.6385 25.2854 5.34262 19.289C9.03937 10.894 16.7402 4.34123 25.6915 2.24117ZM33.2546 9.2408C33.244 16.606 33.244 23.9713 33.2546 31.3365C40.4715 31.3436 47.6866 31.3454 54.9035 31.3365C54.9088 23.9713 54.9123 16.606 54.9017 9.24256C47.6866 9.23903 40.4697 9.2408 33.2546 9.2408M10.3552 32.6276C10.2899 33.4366 10.3923 34.2455 10.4859 35.0474C11.2101 40.5634 14.0061 45.795 18.2503 49.4017C22.0301 52.6781 26.9562 54.6298 31.9652 54.7287C31.9723 47.3723 31.9652 40.0141 31.9688 32.6577C24.7643 32.6135 17.5597 32.6753 10.3552 32.6276M33.2599 32.6877C33.2422 40.0565 33.2369 47.427 33.2634 54.7958C34.5139 54.7181 35.7662 54.6139 36.9937 54.3542C42.0788 53.3369 46.7222 50.3978 49.9421 46.3514C53.0312 42.501 54.7922 37.6226 54.8964 32.6895C47.6848 32.6859 40.4732 32.6877 33.2599 32.6877V32.6877Z" fill="black"/>
</svg>
