<svg width="64" height="65" viewBox="0 0 64 65" fill="none" xmlns="http://www.w3.org/2000/svg">
<path d="M10.6 8.69995C5.4 8.69995 1 12.9 1 18.2V56.4H53.4C58.8 56.4 63 51.9999 63 46.7999V8.69995H10.6ZM21.4 46.2999C21.4 50.1999 18.3 53.2 14.5 53.2H4.4V38.5C4.4 38.5 7.5 39.2999 11.4 39.2999C18 39.2999 20 36.8 20 33.7V25.7H14.1V33.9C14.1 35.9 12.8 37.2999 10.4 37.2999C8.4 37.2999 6.5 36.6999 4.5 35.7999V18.8C4.5 14.9 7.6 11.9 11.4 11.9H21.4V46.2999ZM40.5 46.2999C40.5 50.1999 37.4 53.2 33.6 53.2H23.6V37.4C25.3 38.8 28.4 39.8 33.3 39.7C36 39.6 38.7 38.9 38.7 38.9V35.9C37.3 36.6 35.6 37.3 33.5 37.4C29.8 37.7 27.6 35.8999 27.6 32.5999C27.6 29.3999 29.9 27.4999 33.5 27.7999C35.6 27.8999 37.4 28.5 38.7 29.4V26.4C38.7 26.4 35.9 25.7 33.3 25.6C28.5 25.5 25.4 26.3 23.6 27.9V18.9C23.6 15 26.7 12 30.5 12H40.5V46.2999ZM59.5 46.2999C59.5 50.1999 56.4 53.2 52.6 53.2H42.4V39.2H53.1C55.6 39.2 57.5 37.8 57.5 35.7C57.5 33.7 55.8 32.5 53.6 32.5V32.4C55.6 32.1 56.7 30.8999 56.7 29.2999C56.7 27.2999 55 26.2 52.8 26.1C52.7 26.1 52.4 26.1 52.1 26.1H42.5V18.9C42.5 15 45.6 12 49.4 12H59.5V46.2999ZM49.9 33C50 33 50.3 33 50.3 33C51 33.1 51.7 34.1 51.7 35C51.7 36 51 36.7 50.3 36.7C50.2 36.7 49.9 36.7 49.9 36.7H46V33H49.9ZM46 31.4V28H49.5C49.6 28 49.8 28 49.9 28C50.6 28.1 51.3 28.7 51.3 29.7C51.3 30.5 50.6 31.3 49.9 31.4C49.9 31.4 49.6 31.4 49.5 31.4C49.1366 31.4 46 31.4 46 31.4Z" fill="black"/>
</svg>
