<svg viewBox="0 0 64 64"  xmlns="http://www.w3.org/2000/svg">
<path d="M12.2 32.1L11.1 31C7.39998 27.3 6.29998 22.1 7.59998 17.3C3.89998 16.5 1.09998 13.1 1.09998 9.10002C1.09998 4.60002 4.79998 0.900024 9.29998 0.900024C13.5 0.900024 16.9 3.90002 17.5 7.80002C22 6.70002 26.8 7.90002 30.3 11.5L30.7 11.9L24.6 18L24.2 17.6C22.2 15.6 19 15.6 17 17.6C15 19.6 15 22.8 17 24.8L30.7 38.5L24.6 44.6L18.1 38.4L12.2 32.1Z" fill="black"/>
<path d="M19.1 25.4001L25.6 18.9001L31.7 12.8001L32.8 11.7001C36.5 8.00007 41.7 6.90007 46.3 8.20007C46.9 4.10007 50.4 1.20007 54.5 1.20007C59 1.20007 62.7 4.90007 62.7 9.40007C62.7 13.6001 59.6 17.0001 55.5 17.6001C56.9 22.2001 55.6 27.5001 52 31.0001L51.6 31.4001L45.7 25.3001L46.1 24.9001C48.1 22.9001 48.1 19.7001 46.1 17.7001C44.1 15.7001 40.9 15.7001 38.9 17.7001L37.9 19.0001L31.8 25.0001L25.3 31.5001L19.1 25.4001Z" fill="black"/>
<path d="M46.5999 56.2C41.7999 57.6 36.5999 56.5 32.8999 52.8L32.4999 52.4L38.5999 46.3L38.9999 46.7C40.9999 48.7 44.1999 48.7 46.1999 46.7C48.1999 44.7 48.1999 41.5 46.1999 39.5L44.8999 38.4L38.7999 32.2L32.2999 25.7L38.3999 19.6L52.1999 33.4C55.6999 36.9 56.9999 41.9 55.8999 46.4C59.9999 47 62.8999 50.5 62.8999 54.6C62.8999 59.1 59.1999 62.8 54.6999 62.8C50.7999 62.9 47.3999 59.9 46.5999 56.2Z" fill="black"/>
<path d="M44.3 39L37.8 45.5L31.6999 51.6L30.5999 52.7C27.0999 56.2 22.0999 57.5 17.5999 56.4C16.5999 60.2 13.4 63 9.39995 63C4.89995 63 1.19995 59.3 1.19995 54.8C1.19995 51 3.89995 47.6 7.49995 46.8C6.39995 42.1 7.49995 37.2 11 33.7L11.4 33.3L17.5 39.4L17.0999 39.8C15.0999 41.8 15.0999 45 17.0999 47C19.0999 49 22.2999 49 24.2999 47L25.4 45.9L31.5 39.8L38 33.3L44.3 39Z" fill="black"/>
</svg>
