<svg width="64" height="64" viewBox="0 0 64 64" fill="none" xmlns="http://www.w3.org/2000/svg">
<path d="M24.8206 33.2689L17.9414 35.2519C17.7308 32.2756 18.4398 29.2256 19.9981 26.6038L25.2453 31.2823C25.7402 31.707 25.8104 32.416 25.3857 32.9144C25.2453 33.125 25.1014 33.1987 24.8206 33.2689Z" fill="black"/>
<path d="M27.0177 38.3019C27.0879 38.516 27.0879 38.7968 26.9475 39.0109L24.252 45.5322C21.7706 43.9036 19.784 41.4222 18.7943 38.5862L25.8104 37.3789C26.379 37.3789 26.9475 37.7334 27.0177 38.3019Z" fill="black"/>
<path d="M27.9373 28.1621L22.0549 23.9784C23.8975 22.206 26.1649 20.9319 28.6463 20.3633L30.0643 20.079L29.7098 27.1723C29.7098 27.8076 29.1447 28.306 28.5059 28.306C28.2918 28.306 28.1514 28.2358 27.9373 28.1621Z" fill="black"/>
<path d="M29.429 33.3391L30.7732 31.6368H32.9002L34.2479 33.3391L33.7531 35.3958L31.8367 36.3154L29.9239 35.3958L29.429 33.3391Z" fill="black"/>
<path d="M32.83 40.9238L36.2345 47.094C35.8098 47.1642 35.3816 47.2344 34.8867 47.3783C33.8935 47.5889 32.9002 47.7328 31.8367 47.7328C30.3485 47.7328 28.7902 47.4485 27.3722 47.0238L30.8469 40.7132C31.2014 40.2885 31.7665 40.1446 32.2649 40.4289C32.4755 40.5693 32.6194 40.7132 32.83 40.9238Z" fill="black"/>
<path d="M33.8935 27.3127L33.4688 20.1527C36.589 20.5072 39.3547 21.8515 41.4817 23.9784L35.6659 28.0919C35.171 28.3762 34.462 28.306 34.1076 27.8076C33.9637 27.6672 33.8935 27.5268 33.8935 27.3127Z" fill="black"/>
<path d="M37.7928 37.3087L44.8827 38.516C44.5282 39.5058 44.1035 40.4289 43.5384 41.2081C42.4749 42.9103 40.9833 44.3985 39.281 45.462L36.5188 38.7968C36.3749 38.2317 36.6592 37.6632 37.1541 37.4526C37.3682 37.3789 37.5823 37.3087 37.7928 37.3087Z" fill="black"/>
<path d="M45.3073 30.7874C45.6618 32.2756 45.7355 33.7638 45.5916 35.2519L38.8563 33.3391C38.2175 33.1987 37.863 32.5599 38.0069 31.9211C38.0771 31.707 38.1473 31.5666 38.2912 31.4262L43.6086 26.6038C44.3878 27.8813 44.9564 29.2993 45.3073 30.7874Z" fill="black"/>
<path d="M62.9652 38.516L57.5776 15.3303C57.2196 14.1966 56.3703 13.2735 55.3068 12.7084L33.6829 2.35449C33.1143 2.07371 32.479 2 31.9104 2C31.3418 2 30.7065 2 30.138 2.1439L8.51403 12.5645C7.45056 13.0629 6.67138 13.9825 6.38709 15.1899L1.06973 38.516C0.855629 39.7199 1.13992 40.9238 1.8489 41.917L16.8077 60.4208C17.6606 61.2736 18.8645 61.8422 20.0718 61.9124H43.8929C45.167 62.0528 46.3743 61.4877 47.1535 60.4208L62.1123 41.917C62.8213 40.9238 63.1056 39.7199 62.9652 38.516ZM54.0994 40.0744C53.959 40.0744 53.8888 40.0744 53.7449 40.0042C53.6981 39.9574 53.6513 39.934 53.6045 39.934C53.4641 39.934 53.3904 39.8603 53.3202 39.8603C53.0359 39.7901 52.8254 39.6497 52.5411 39.5058C52.4007 39.5058 52.2568 39.4356 52.1164 39.3654H52.0427C51.3372 39.0811 50.5545 38.8705 49.7753 38.7266H49.7051C49.491 38.7266 49.2804 38.7968 49.1365 38.9407C49.1365 38.9407 49.1365 39.0109 49.0664 39.0109L48.5013 38.9407C47.2237 42.9805 44.458 46.385 40.8429 48.5822L41.057 49.1508C41.057 49.1508 40.9833 49.1508 40.9833 49.221C40.8429 49.4315 40.8429 49.7158 40.9131 49.9299C41.1974 50.6389 41.5519 51.3479 42.0467 51.9867V52.1271C42.1906 52.2675 42.2608 52.3412 42.331 52.4816C42.5451 52.6957 42.6855 52.9063 42.8259 53.1906C42.8996 53.2608 42.9698 53.3309 42.9698 53.4047C42.9698 53.4047 43.04 53.4047 43.04 53.4748C43.1839 53.8293 43.1839 54.1838 43.1102 54.5383C43.04 54.8928 42.7557 55.1771 42.4749 55.3175C42.2608 55.3877 42.1204 55.4614 41.9063 55.4614C41.3378 55.4614 40.8429 55.1069 40.5586 54.6085C40.4884 54.6085 40.4884 54.5383 40.4884 54.5383C40.4182 54.4681 40.4182 54.3979 40.3445 54.3242C40.2041 54.1136 40.1339 53.8293 40.0637 53.545L39.9198 53.1204V53.0502C39.7092 52.2675 39.3547 51.5585 39.0002 50.8495C38.8563 50.6389 38.6457 50.495 38.4316 50.4248C38.4316 50.378 38.4082 50.3546 38.3614 50.3546L38.0771 49.8597C37.3682 50.0703 36.589 50.3546 35.8098 50.495C34.5322 50.8495 33.2547 50.9934 31.9806 50.9934C29.8537 50.9934 27.7969 50.6389 25.8104 49.8597L25.5296 50.4248C25.5296 50.4716 25.505 50.495 25.4559 50.495C25.2453 50.5687 25.0312 50.7091 24.8908 50.9232C24.5363 51.6322 24.1818 52.3412 23.9677 53.1204L23.8273 53.545C23.7571 53.8293 23.6132 54.0434 23.543 54.3242C23.4728 54.3979 23.4026 54.4681 23.4026 54.5383C23.3289 54.5383 23.3289 54.6085 23.3289 54.6085C23.0481 55.1069 22.5498 55.4614 21.9847 55.4614C21.8408 55.4614 21.6302 55.3877 21.4863 55.3175C20.8475 54.963 20.5667 54.1136 20.9212 53.4047C20.9914 53.4047 20.9914 53.3309 20.9914 53.3309C21.0616 53.2607 21.0616 53.1906 21.1318 53.1204C21.3459 52.8361 21.4863 52.5518 21.6302 52.4114C21.7706 52.2675 21.8408 52.1973 21.911 52.0569V51.9867C22.3392 51.3479 22.7639 50.6389 23.0481 49.9299C23.1183 49.7158 23.1183 49.4315 22.9744 49.221C22.9744 49.221 22.9042 49.221 22.9042 49.1508L23.2587 48.6524C22.5498 48.2979 21.9847 47.8732 21.3459 47.3783C18.5802 45.2514 16.5936 42.3417 15.5301 39.0811L14.8949 39.1513C14.8949 39.1513 14.8949 39.0811 14.8212 39.0811C14.6808 38.9407 14.4667 38.8705 14.2561 38.8705H14.1859C13.333 39.0109 12.624 39.225 11.8448 39.5058H11.7746C11.6307 39.5058 11.4903 39.5795 11.3464 39.6497C11.1359 39.7199 10.8516 39.8603 10.5673 39.934C10.4971 39.934 10.283 39.8603 10.283 39.934C10.283 40.0077 10.283 40.0042 10.2128 40.0042C10.0724 40.0744 10.0022 40.0744 9.85829 40.0744C9.2195 40.1446 8.58423 39.7199 8.44032 39.0811C8.29993 38.3019 8.79481 37.593 9.57399 37.4526C9.62313 37.4034 9.6711 37.3789 9.71789 37.3789C9.85829 37.3789 9.92848 37.3087 10.0022 37.3087C10.283 37.3087 10.5673 37.2385 10.8516 37.2385C10.992 37.1683 11.1359 37.1683 11.2762 37.1683C12.1291 37.0981 12.9083 36.9542 13.6875 36.7436C13.9016 36.5997 14.1122 36.4593 14.1859 36.2452C14.1859 36.2452 14.2561 36.2452 14.2561 36.175L14.8212 36.0346C14.1859 31.9913 15.1055 27.8813 17.3026 24.4066C17.3763 24.2627 17.4465 24.1925 17.5167 24.0521L17.106 23.638C17.1376 23.4344 17.0078 23.1852 16.8779 23.0588C16.3128 22.4903 15.6038 22.0656 14.8949 21.6409C14.751 21.5707 14.6106 21.497 14.4667 21.4268C14.1859 21.2864 13.9016 21.1425 13.6875 21.0021C13.6173 21.0021 13.4769 20.8617 13.4769 20.8617C13.4769 20.8617 13.4769 20.788 13.4032 20.788C12.8381 20.2931 12.6942 19.4437 13.1189 18.805C13.333 18.4505 13.6875 18.3066 14.1122 18.3066C14.4667 18.3066 14.8212 18.4505 15.1054 18.6611L15.1756 18.7348C15.2494 18.805 15.3195 18.805 15.3897 18.8752C15.6038 19.0893 15.7442 19.2998 15.9583 19.5139C16.0285 19.5841 16.1689 19.6543 16.2391 19.7982C16.7375 20.3633 17.3763 20.9319 18.0116 21.4268C18.1555 21.497 18.2959 21.5707 18.4398 21.5707C18.5837 21.5707 18.6504 21.497 18.7206 21.497H18.7943L19.2189 21.7813C21.5565 19.2998 24.6065 17.5274 27.9373 16.8184C28.7902 16.678 29.5694 16.5341 30.3485 16.4639L30.4187 15.8988V15.7549C30.6328 15.6145 30.703 15.4004 30.7732 15.1899C30.7732 14.337 30.7732 13.5578 30.6328 12.7786V12.7084C30.6328 12.5645 30.6328 12.4241 30.5626 12.2802C30.4925 11.9994 30.4187 11.7151 30.4187 11.4309V11.0764C30.4187 10.7219 30.5626 10.3674 30.8469 10.0831C31.2014 9.7286 31.6261 9.51801 32.0508 9.58821C32.7598 9.6584 33.3284 10.3674 33.2547 11.0764V11.5011C33.1845 11.7853 33.1845 12.0696 33.1143 12.3539C33.1143 12.4943 33.0441 12.6347 33.0441 12.7786V12.8488C32.9002 13.6982 32.9002 14.4809 32.9002 15.2601C32.9739 15.4706 33.0441 15.6847 33.2547 15.8251V15.7549L33.3284 16.3235C36.6592 16.678 39.9198 17.9521 42.5451 20.0088C43.1102 20.5774 43.749 21.1425 44.3176 21.7111L44.8827 21.3566H44.9564C45.0266 21.4268 45.167 21.4268 45.2372 21.4268C45.3811 21.4268 45.5214 21.3566 45.6618 21.2864C46.3006 20.8617 46.9394 20.2931 47.4378 19.7245C47.508 19.6543 47.6484 19.5841 47.7186 19.4437C47.8625 19.2296 48.0731 19.0156 48.2872 18.805C48.3574 18.805 48.4276 18.7348 48.5013 18.6611L48.5715 18.5909C48.8523 18.3803 49.2103 18.2364 49.5647 18.2364C49.9192 18.2364 50.3439 18.4505 50.5545 18.7348C51.0529 19.37 50.909 20.2229 50.2737 20.7178C50.2737 20.788 50.3439 20.788 50.2737 20.8617C50.2 20.9319 50.1298 20.9319 50.0596 21.0021C49.7753 21.1425 49.5647 21.2864 49.2804 21.4268C49.1365 21.497 48.9962 21.5707 48.8523 21.6409C48.1468 22.0656 47.508 22.4903 46.8692 23.0588C46.7253 23.1992 46.6551 23.4835 46.6551 23.6976V23.7678L46.2304 24.1925C47.3641 25.965 48.217 27.9515 48.7119 30.0083C49.1365 32.0615 49.2805 34.1885 48.9962 36.2452L49.5647 36.3891C49.6349 36.5997 49.8455 36.8138 50.0596 36.884C50.8388 37.0981 51.6882 37.2385 52.4709 37.3087H52.5411C52.6815 37.3789 52.8254 37.3789 52.9657 37.3789C53.25 37.3789 53.5343 37.3789 53.8151 37.4526C53.959 37.4526 54.0994 37.4526 54.0994 37.5228C54.0994 37.593 54.1731 37.593 54.2433 37.593C54.8786 37.7334 55.4472 38.3019 55.5174 39.0811C55.3068 39.6497 54.7382 40.0744 54.0994 40.0744Z" fill="black"/>
</svg>
