<svg width="64" height="64" viewBox="0 0 64 64" fill="none" xmlns="http://www.w3.org/2000/svg">
<path d="M15.7949 27.7752H14.3328V36.1227H19.2928V34.7772H15.7949V27.7752Z" fill="black"/>
<path d="M20.9724 29.3508C21.4293 29.3508 21.8074 28.9727 21.8074 28.5031C21.8074 28.0336 21.4293 27.6712 20.9724 27.6712C20.4934 27.6712 20.1152 28.0367 20.1152 28.5063C20.1152 28.9758 20.4965 29.3508 20.9724 29.3508ZM20.2791 36.1259H21.6719V30.4789H20.2791V36.1259Z" fill="black"/>
<path d="M24.5049 36.1227V33.085C24.5049 32.1711 25.028 31.5756 25.8882 31.5756C26.6099 31.5756 27.0762 32.0325 27.0762 32.981V36.1227H28.4691V32.647C28.4691 31.1848 27.738 30.3056 26.3199 30.3056C25.5542 30.3056 24.8704 30.6365 24.5175 31.21L24.4009 30.4789H23.1089V36.1259H24.5017L24.5049 36.1227Z" fill="black"/>
<path d="M32.364 36.274C33.8356 36.274 34.866 35.5335 35.1055 34.295H33.8135C33.6528 34.8308 33.1518 35.1301 32.3829 35.1301C31.4564 35.1301 30.9333 34.6259 30.8293 33.6333L35.0772 33.6207V33.1984C35.0772 31.4369 34.0026 30.3056 32.3104 30.3056C30.6182 30.3056 29.4995 31.5283 29.4995 33.2993C29.4995 35.0702 30.6781 36.2709 32.3577 36.2709L32.364 36.274ZM32.3293 31.4527C33.1644 31.4527 33.7001 31.9663 33.7001 32.7447H30.8671C31.0026 31.9001 31.5068 31.4527 32.3293 31.4527Z" fill="black"/>
<path d="M36.8922 29.3508C37.3492 29.3508 37.7273 28.9727 37.7273 28.5031C37.7273 28.0336 37.3492 27.6712 36.8922 27.6712C36.4133 27.6712 36.0383 28.0367 36.0383 28.5063C36.0383 28.9758 36.4101 29.3508 36.8922 29.3508ZM36.1927 36.1259H37.5855V30.4789H36.1927V36.1259Z" fill="black"/>
<path d="M38.6979 33.293C38.6979 35.086 39.8166 36.274 41.5308 36.274C43.0024 36.274 44.1022 35.3696 44.2724 34.0556H42.8669C42.7188 34.6732 42.2272 35.0167 41.5308 35.0167C40.639 35.0167 40.0907 34.3549 40.0907 33.293C40.0907 32.231 40.6863 31.5566 41.5749 31.5566C42.2367 31.5566 42.7062 31.8875 42.8669 32.5304H44.2598C44.1117 31.169 43.0592 30.3119 41.5182 30.3119C39.8544 30.3119 38.6979 31.5472 38.6979 33.293Z" fill="black"/>
<path d="M44.9782 33.293C44.9782 35.0545 46.245 36.2646 47.9971 36.2646C49.7492 36.2646 51.0128 35.0545 51.0128 33.293C51.0128 31.5314 49.746 30.3214 47.9971 30.3214C46.2513 30.3214 44.9782 31.5314 44.9782 33.293ZM46.3742 33.293C46.3742 32.2625 47.036 31.5693 47.9971 31.5693C48.9582 31.5693 49.62 32.2657 49.62 33.293C49.62 34.3203 48.9582 35.0167 47.9971 35.0167C47.036 35.0167 46.3742 34.3203 46.3742 33.293Z" fill="black"/>
<path d="M53.5054 36.1227V33.085C53.5054 32.1711 54.0285 31.5756 54.8888 31.5756C55.6104 31.5756 56.0768 32.0325 56.0768 32.981V36.1227H57.4696V32.647C57.4696 31.1848 56.7386 30.3056 55.3205 30.3056C54.5548 30.3056 53.871 30.6365 53.518 31.21L53.4014 30.4789H52.1094V36.1259H53.5023L53.5054 36.1227Z" fill="black"/>
<path d="M63 34.4242C63 35.565 62.0294 36.2772 60.6366 36.2772C59.2438 36.2772 58.3425 35.5209 58.3394 34.4179H59.6597C59.6692 34.9095 60.0379 35.2183 60.6744 35.2183C61.3109 35.2183 61.6796 34.9536 61.6796 34.544C61.6796 34.2572 61.5347 34.0524 61.0305 33.939L60.0127 33.6963C58.998 33.4694 58.5064 32.9873 58.5064 32.086C58.5064 30.9768 59.4391 30.3119 60.7437 30.3119C62.0483 30.3119 62.8645 31.0462 62.8771 32.1428H61.5536C61.5473 31.6638 61.2227 31.355 60.687 31.355C60.1513 31.355 59.8204 31.6071 59.8204 32.0262C59.8204 32.3476 60.0757 32.5493 60.5515 32.6659L61.5694 32.9085C62.4454 33.107 62.9244 33.4946 62.9874 34.2383L62.9937 34.4274L63 34.4242Z" fill="black"/>
<path d="M8.97255 35.8927C9.33809 35.5272 9.33809 34.9316 8.97255 34.566L2.60081 28.1943C2.23527 27.8288 1.6397 27.8288 1.27416 28.1943C0.908615 28.5598 0.908615 29.1523 1.27416 29.521L7.6459 35.8927C8.01144 36.2582 8.60701 36.2582 8.97255 35.8927Z" fill="black"/>
<path d="M8.80239 31.188C9.16793 30.8224 9.16793 30.2268 8.80239 29.8613L6.2184 27.2742C5.85286 26.9086 5.25728 26.9086 4.89174 27.2742C4.5262 27.6397 4.5262 28.2353 4.89174 28.6008L7.47888 31.188C7.84442 31.5535 8.44 31.5535 8.80554 31.188H8.80239Z" fill="black"/>
<path d="M5.35812 36.8097C5.72366 36.4442 5.72366 35.8486 5.35812 35.4831L2.77098 32.8959C2.40544 32.5304 1.80986 32.5304 1.44432 32.8959C1.07878 33.2614 1.07878 33.857 1.44432 34.2226L4.03146 36.8097C4.397 37.1752 4.99258 37.1752 5.35812 36.8097Z" fill="black"/>
</svg>
