<svg width="64" height="64" viewBox="0 0 64 64" fill="none" xmlns="http://www.w3.org/2000/svg">
<path d="M53 1H11C5.48 1 1 5.48 1 11V53C1 58.52 5.48 63 11 63H53C58.52 63 63 58.52 63 53V11C63 5.48 58.52 1 53 1ZM31.52 14.03C32.88 12.66 35.1 12.66 36.47 14.03L46.1 23.78C47.47 25.16 47.49 27.4 46.12 28.78C44.75 30.16 42.53 30.16 41.17 28.78L31.52 19.03C30.15 17.66 30.15 15.41 31.52 14.03ZM33.26 49.97C31.89 51.34 29.67 51.34 28.31 49.97L18.66 40.22C17.29 38.84 17.29 36.6 18.66 35.22C20.02 33.84 22.24 33.84 23.61 35.22L33.26 44.97C34.62 46.35 34.62 48.59 33.26 49.97ZM46.74 46.51C45.38 47.89 43.15 47.89 41.79 46.51L18.02 22.5C16.66 21.11 16.66 18.88 18.02 17.5C19.39 16.12 21.61 16.12 22.97 17.5L46.74 41.51C48.1 42.89 48.1 45.13 46.74 46.51Z" fill="black"/>
</svg>
