<svg width="64" height="64" viewBox="0 0 64 64" fill="none" xmlns="http://www.w3.org/2000/svg">
<path d="M3.80264 40.1282H2V50.4196H8.115V48.7607H3.80264V40.1282Z" fill="black"/>
<path d="M10.1857 42.0707C10.749 42.0707 11.2152 41.6045 11.2152 41.0256C11.2152 40.4468 10.749 40 10.1857 40C9.59518 40 9.12898 40.4507 9.12898 41.0295C9.12898 41.6084 9.59907 42.0707 10.1857 42.0707ZM9.331 50.4235H11.0482V43.4615H9.331V50.4235Z" fill="black"/>
<path d="M14.5408 50.4196V46.6744C14.5408 45.5478 15.1857 44.8135 16.2463 44.8135C17.136 44.8135 17.711 45.3768 17.711 46.5462V50.4196H19.4281V46.1344C19.4281 44.3318 18.5268 43.2479 16.7786 43.2479C15.8345 43.2479 14.9915 43.6558 14.5563 44.3629L14.4126 43.4615H12.8197V50.4235H14.5369L14.5408 50.4196Z" fill="black"/>
<path d="M24.23 50.6061C26.0443 50.6061 27.3147 49.6931 27.6099 48.1663H26.0171C25.819 48.8267 25.2012 49.1958 24.2533 49.1958C23.1111 49.1958 22.4662 48.5742 22.338 47.3504L27.575 47.3349V46.8143C27.575 44.6426 26.2502 43.2479 24.1639 43.2479C22.0777 43.2479 20.6985 44.7552 20.6985 46.9386C20.6985 49.122 22.1515 50.6022 24.2222 50.6022L24.23 50.6061ZM24.1873 44.662C25.2168 44.662 25.8772 45.2953 25.8772 46.2549H22.3846C22.5517 45.2137 23.1733 44.662 24.1873 44.662Z" fill="black"/>
<path d="M29.8127 42.0707C30.3761 42.0707 30.8423 41.6045 30.8423 41.0256C30.8423 40.4468 30.3761 40 29.8127 40C29.2222 40 28.7599 40.4507 28.7599 41.0295C28.7599 41.6084 29.2183 42.0707 29.8127 42.0707ZM28.9503 50.4235H30.6674V43.4615H28.9503V50.4235Z" fill="black"/>
<path d="M32.0388 46.9308C32.0388 49.1414 33.418 50.6061 35.5315 50.6061C37.3458 50.6061 38.7016 49.4911 38.9114 47.871H37.1787C36.9961 48.6325 36.3901 49.0559 35.5315 49.0559C34.432 49.0559 33.756 48.2401 33.756 46.9308C33.756 45.6216 34.4903 44.7902 35.5859 44.7902C36.4017 44.7902 36.9806 45.1981 37.1787 45.9907H38.8959C38.7133 44.3124 37.4157 43.2556 35.5159 43.2556C33.4646 43.2556 32.0388 44.7786 32.0388 46.9308Z" fill="black"/>
<path d="M39.7817 46.9308C39.7817 49.1026 41.3434 50.5944 43.5035 50.5944C45.6636 50.5944 47.2215 49.1026 47.2215 46.9308C47.2215 44.7591 45.6597 43.2673 43.5035 43.2673C41.3512 43.2673 39.7817 44.7591 39.7817 46.9308ZM41.5027 46.9308C41.5027 45.6605 42.3186 44.8057 43.5035 44.8057C44.6884 44.8057 45.5043 45.6643 45.5043 46.9308C45.5043 48.1974 44.6884 49.0559 43.5035 49.0559C42.3186 49.0559 41.5027 48.1974 41.5027 46.9308Z" fill="black"/>
<path d="M50.2945 50.4196V46.6744C50.2945 45.5478 50.9394 44.8135 52 44.8135C52.8897 44.8135 53.4646 45.3768 53.4646 46.5462V50.4196H55.1818V46.1344C55.1818 44.3318 54.2805 43.2479 52.5322 43.2479C51.5882 43.2479 50.7451 43.6558 50.31 44.3629L50.1663 43.4615H48.5734V50.4235H50.2906L50.2945 50.4196Z" fill="black"/>
<path d="M62 48.3256C62 49.7319 60.8034 50.6099 59.0863 50.6099C57.3691 50.6099 56.258 49.6775 56.2541 48.3178H57.8819C57.8936 48.9239 58.3481 49.3046 59.1329 49.3046C59.9176 49.3046 60.3722 48.9782 60.3722 48.4732C60.3722 48.1197 60.1935 47.8671 59.5719 47.7273L58.317 47.4281C57.066 47.1484 56.46 46.554 56.46 45.4429C56.46 44.0754 57.6099 43.2556 59.2183 43.2556C60.8267 43.2556 61.8329 44.1608 61.8485 45.5128H60.2168C60.209 44.9223 59.8089 44.5416 59.1484 44.5416C58.488 44.5416 58.08 44.8524 58.08 45.3691C58.08 45.7653 58.3947 46.014 58.9814 46.1577L60.2362 46.4569C61.3162 46.7016 61.9068 47.1795 61.9845 48.0963L61.9922 48.3294L62 48.3256Z" fill="black"/>
<path d="M39.4681 31.43C40.1773 30.7135 40.1773 29.5462 39.4681 28.8297L27.1058 16.3409C26.3966 15.6244 25.2411 15.6244 24.5319 16.3409C23.8227 17.0574 23.8227 18.2185 24.5319 18.9412L36.8942 31.43C37.6034 32.1465 38.7589 32.1465 39.4681 31.43Z" fill="black"/>
<path d="M39.1379 22.2085C39.8472 21.4921 39.8472 20.3247 39.1379 19.6082L34.1246 14.5374C33.4154 13.8209 32.2598 13.8209 31.5506 14.5374C30.8414 15.2538 30.8414 16.4212 31.5506 17.1376L36.5701 22.2085C37.2793 22.925 38.4348 22.925 39.1441 22.2085H39.1379Z" fill="black"/>
<path d="M32.4555 33.2274C33.1647 32.5109 33.1647 31.3435 32.4555 30.6271L27.436 25.5562C26.7268 24.8397 25.5713 24.8397 24.8621 25.5562C24.1528 26.2726 24.1528 27.44 24.8621 28.1565L29.8815 33.2274C30.5908 33.9438 31.7463 33.9438 32.4555 33.2274Z" fill="black"/>
</svg>
