<svg width="64" height="64" viewBox="0 0 64 64" fill="none" xmlns="http://www.w3.org/2000/svg">
<path d="M55.5219 55.6763C57.7467 53.4288 57.7467 49.7669 55.5219 47.5194L16.7427 8.34313C14.518 6.09563 10.8933 6.09563 8.66854 8.34313C6.44382 10.5906 6.44382 14.2331 8.66854 16.5L47.4477 55.6763C49.6724 57.9238 53.2972 57.9238 55.5219 55.6763Z" fill="black"/>
<path d="M54.4863 26.7494C56.711 24.5019 56.711 20.84 54.4863 18.5925L38.7598 2.68562C36.5351 0.438125 32.9103 0.438125 30.6856 2.68562C28.4609 4.93312 28.4609 8.595 30.6856 10.8425L46.4313 26.7494C48.656 28.9969 52.2807 28.9969 54.5055 26.7494H54.4863Z" fill="black"/>
<path d="M33.524 61.3144C35.7488 59.0669 35.7488 55.405 33.524 53.1575L17.7784 37.2506C15.5537 35.0031 11.9289 35.0031 9.70419 37.2506C7.47946 39.4981 7.47946 43.16 9.70419 45.4075L25.4498 61.3144C27.6746 63.5619 31.2993 63.5619 33.524 61.3144Z" fill="black"/>
</svg>
