<svg width="64" height="64" viewBox="0 0 64 64" fill="none" xmlns="http://www.w3.org/2000/svg">
<path d="M32 1C23.44 1 15.69 4.47 10.08 10.08C4.47 15.69 1 23.44 1 32C1 40.56 4.47 48.31 10.08 53.92C15.69 59.53 23.44 63 32 63C40.56 63 48.31 59.53 53.92 53.92C59.53 48.31 63 40.56 63 32C63 14.88 49.12 1 32 1ZM31.46 17.82C32.54 16.73 34.29 16.73 35.37 17.82L42.98 25.51C44.05 26.6 44.05 28.37 42.98 29.46C41.9 30.55 40.16 30.55 39.08 29.46L31.46 21.76C30.38 20.68 30.38 18.9 31.46 17.82ZM32.83 46.18C31.76 47.27 30 47.27 28.93 46.18L21.31 38.49C20.23 37.4 20.23 35.63 21.31 34.54C22.39 33.45 24.14 33.45 25.22 34.54L32.83 42.24C33.91 43.33 33.91 45.1 32.83 46.18ZM43.48 43.46C42.4 44.54 40.65 44.54 39.57 43.46L20.81 24.5C19.73 23.4 19.73 21.64 20.81 20.55C21.88 19.47 23.64 19.47 24.71 20.55L43.48 39.51C44.55 40.6 44.55 42.37 43.48 43.46Z" fill="black"/>
</svg>
