<?xml version="1.0" encoding="utf-8"?>
<!-- Generator: Adobe Illustrator 22.0.1, SVG Export Plug-In . SVG Version: 6.00 Build 0)  -->
<svg version="1.1" id="lni_lni-linkedin" xmlns="http://www.w3.org/2000/svg" xmlns:xlink="http://www.w3.org/1999/xlink" x="0px"
	 y="0px" viewBox="0 0 64 64" style="enable-background:new 0 0 64 64;" xml:space="preserve">
<g>
	<g>
		<path d="M14.6,63H5.7C2.6,63,0,60.5,0,57.5V28c0-3.1,2.5-5.5,5.7-5.5h8.9c3.1,0,5.7,2.5,5.7,5.5v29.5C20.4,60.5,17.8,63,14.6,63z
			 M5.7,27.4c-0.3,0-0.6,0.1-0.6,0.4v29.5c0,0.1,0.1,0.4,0.6,0.4h8.9c0.3,0,0.6-0.1,0.6-0.4V28c0-0.1-0.3-0.4-0.6-0.4H5.7V27.4z"/>
	</g>
	<g>
		<path d="M58.8,63h-9c-3.1,0-5.7-2.5-5.7-5.5V45.3c0-0.6-0.4-1-1.2-1c-0.6,0-1.2,0.4-1.2,1v12.1c0,3.1-2.5,5.5-5.7,5.5h-8.9
			c-3.1,0-5.7-2.5-5.7-5.5V28c0-3.1,2.5-5.5,5.7-5.5H36c1.9,0,3.5,0.9,4.5,2.3c0.4-0.1,0.9-0.4,1.2-0.6c3.1-1.5,6.6-1.9,9.8-1.5l0,0
			c7,0.9,12.4,6.7,12.5,13.7v21.3C64.3,60.5,61.8,63,58.8,63z M43,39.4c3.4,0,6.1,2.8,6.1,6v12.1c0,0.1,0.1,0.4,0.6,0.4h8.9
			c0.3,0,0.6-0.1,0.6-0.4V36.3c-0.1-4.4-3.6-8.2-8.2-8.6c-2.3-0.3-5,0.1-7.3,1.2c-1.2,0.4-2.2,1.2-3.2,1.8l-3.9,2.8V28
			c0-0.1-0.1-0.4-0.6-0.4h-8.9c-0.3,0-0.6,0.1-0.6,0.4v29.5c0,0.1,0.1,0.4,0.6,0.4h9c0.3,0,0.6-0.1,0.6-0.4V45.3
			C36.9,42,39.5,39.4,43,39.4z"/>
	</g>
	<g>
		<path d="M10.8,21.9c-5.8,0-10.6-4.7-10.6-10.5S4.8,1,10.8,1s10.6,4.7,10.6,10.5S16.6,21.9,10.8,21.9z M10.8,6.1
			c-3.1,0-5.7,2.5-5.7,5.4c0,3.1,2.5,5.4,5.7,5.4s5.7-2.5,5.7-5.4C16.5,8.4,14,6.1,10.8,6.1z"/>
	</g>
</g>
</svg>
