<?xml version="1.0" encoding="utf-8"?>
<!-- Generator: Adobe Illustrator 22.0.0, SVG Export Plug-In . SVG Version: 6.00 Build 0)  -->
<svg version="1.1" id="lni_lni-mastercard" xmlns="http://www.w3.org/2000/svg" xmlns:xlink="http://www.w3.org/1999/xlink" x="0px"
	 y="0px" viewBox="0 0 64 64" style="enable-background:new 0 0 64 64;" xml:space="preserve">
<g>
	<path d="M54.5,13.2h-45c-4.3,0-7.7,3.5-7.7,7.7v22.2c0,4.3,3.5,7.7,7.7,7.7h45c4.3,0,7.7-3.5,7.7-7.7V20.9
		C62.3,16.6,58.8,13.2,54.5,13.2z M57.8,43.1c0,1.8-1.5,3.2-3.2,3.2h-45c-1.8,0-3.2-1.5-3.2-3.2V20.9c0-1.8,1.5-3.2,3.2-3.2h45
		c1.8,0,3.2,1.5,3.2,3.2V43.1z"/>
	<path d="M36.9,22.4c-2,0-3.9,0.6-5.4,1.7c-1.4-1-3.1-1.4-4.9-1.4c-5.1,0-9.3,4.2-9.3,9.3s4.2,9.3,9.3,9.3c1.7,0,3.4-0.5,4.9-1.4
		c1.6,1.1,3.4,1.7,5.4,1.7c5.3,0,9.6-4.3,9.6-9.6S42.2,22.4,36.9,22.4z M37.1,39.2c-1.3,0-2.5-0.4-3.5-0.9c1.5-1.7,2.5-3.8,2.5-6.3
		c-0.1-2.5-1-4.7-2.5-6.3c1.1-0.6,2.2-0.9,3.5-0.9c3.9,0,7.2,3.2,7.2,7.2C44.2,36,41,39.2,37.1,39.2z"/>
</g>
</svg>
