<?xml version="1.0" encoding="utf-8"?>
<!-- Generator: Adobe Illustrator 22.0.1, SVG Export Plug-In . SVG Version: 6.00 Build 0)  -->
<svg version="1.1" id="lni_lni-medium" xmlns="http://www.w3.org/2000/svg" xmlns:xlink="http://www.w3.org/1999/xlink" x="0px"
	 y="0px" viewBox="0 0 64 64" style="enable-background:new 0 0 64 64;" xml:space="preserve">
<g>
	<path d="M18.5,14.4c9.7,0,17.5,7.9,17.5,17.6s-7.9,17.6-17.5,17.6S1,41.7,1,32S8.9,14.4,18.5,14.4z M46.4,15.4
		c4.8,0,8.7,7.5,8.7,16.6l0,0c0,9.2-3.9,16.6-8.7,16.6s-8.7-7.5-8.7-16.6S41.6,15.4,46.4,15.4z M59.9,17.2c1.7,0,3.1,6.6,3.1,14.8
		s-1.4,14.8-3.1,14.8s-3.1-6.6-3.1-14.8S58.2,17.2,59.9,17.2z"/>
</g>
</svg>
