<svg width="64" height="64" viewBox="0 0 64 64" fill="none" xmlns="http://www.w3.org/2000/svg">
<path fill-rule="evenodd" clip-rule="evenodd" d="M64 31.9992C64 14.3384 49.6616 0 32.0008 0H31.9992C14.3384 0 0 14.3384 0 31.9992C0 49.6601 14.3384 63.9985 31.9992 63.9985H32.0008C49.6616 63.9985 64 49.6601 64 31.9992ZM35.213 31.9995C35.213 39.8655 28.8797 46.242 21.0676 46.242C13.2554 46.242 6.92163 39.864 6.92163 31.9995C6.92163 24.1349 13.2549 17.7565 21.0676 17.7565C28.8802 17.7565 35.213 24.1335 35.213 31.9995ZM50.7312 31.9995C50.7312 39.4036 47.5644 45.4082 43.6582 45.4082C39.7518 45.4082 36.5852 39.4036 36.5852 31.9995C36.5852 24.5954 39.7513 18.5907 43.6577 18.5907C47.564 18.5907 50.7312 24.5935 50.7312 31.9995ZM57.0784 31.9995C57.0784 38.6317 55.9648 44.0115 54.5908 44.0115C53.2168 44.0115 52.1037 38.6332 52.1037 31.9995C52.1037 25.3658 53.2172 19.9875 54.5908 19.9875C55.9644 19.9875 57.0784 25.3653 57.0784 31.9995Z" fill="black"/>
</svg>
