<svg width="65" height="64" viewBox="0 0 65 64" fill="none" xmlns="http://www.w3.org/2000/svg">
<path d="M32.9849 0C15.3336 0 0.984863 14.3246 0.984863 31.9885C0.984863 49.6524 15.3108 64 32.9849 64C50.6589 64 64.9849 49.6754 64.9849 31.9885C64.9849 14.3015 50.6589 0 32.9849 0M32.9849 62.7794C20.9592 62.7794 11.5301 56.4692 7.04323 47.7639L7.7265 47.5106C8.88807 49.4451 10.414 51.1263 12.4639 53.4063C14.992 56.2159 22.9863 61.6279 32.9621 61.6279C43.5984 61.6279 52.9592 56.0547 58.1977 47.5336C58.6076 47.4185 58.7443 47.2343 58.5849 46.8888C60.9763 42.6053 62.6162 37.2393 62.6162 31.9885C62.6162 28.6722 62.1379 25.9777 61.3635 23.5826C60.7941 21.7632 59.997 19.9669 59.6553 19.253C59.5642 19.0918 59.5414 18.9996 59.5414 18.8384C59.6781 18.9536 59.7237 19.0227 59.8375 19.1839C60.293 20.036 61.3407 22.1317 61.819 23.5135C62.4795 25.3329 63.6639 27.8661 63.6639 31.9885C63.6639 48.8233 50.0212 62.7794 32.9621 62.7794M7.29376 47.05L29.7051 30.7449L27.792 29.6394L7.8176 46.4282C5.5628 42.3059 4.01404 37.032 4.01404 32.0115C4.01404 16.1209 16.518 3.24721 32.3699 3.15509L28.293 28.8564L30.2062 29.9849L32.7799 3.15509C32.8254 2.80964 33.0532 2.80964 33.0532 3.15509L33.2126 31.4358L37.7678 28.7413L33.4176 3.15509C48.9962 3.56963 61.9101 16.2821 61.9101 31.9655C61.9101 37.032 60.3842 42.3059 58.1066 46.4512L38.155 29.6394L36.2418 30.7449L57.6966 46.4743C58.2205 46.8428 58.061 47.004 57.4916 46.7046L33.4176 32.6564V37.9302L57.56 47.2573C52.5037 55.5941 43.3706 60.937 32.9165 60.937C22.4624 60.937 13.466 55.6171 8.40977 47.2573L32.5977 37.9302V32.6564L7.56707 47.2803C6.9749 47.6027 6.81547 47.4185 7.36209 47.027M6.79269 47.3034C5.72223 45.0925 4.60622 41.9604 4.1507 39.4962C4.1507 39.358 4.12792 39.2429 4.1507 39.1047C4.2418 39.1968 4.26458 39.312 4.33291 39.4962C5.06173 41.7762 5.69945 43.8028 7.33931 46.8658L6.76992 47.3264L6.79269 47.3034ZM63.6866 26.5304C63.6866 26.5304 63.5728 26.3231 63.5044 26.1619C61.1585 18.8615 59.177 16.0058 55.3279 11.7452C50.2717 6.12595 42.0041 1.79633 33.2126 1.7733C16.4041 1.7733 2.78415 15.5682 2.78415 32.5412C2.78415 37.5847 3.87739 41.9604 4.74287 44.1483C5.76778 46.6815 7.54429 50.113 7.6354 50.2742C7.70372 50.4584 7.7265 50.5275 7.7265 50.6887C7.58984 50.5966 7.54429 50.5045 7.43041 50.3433C6.92935 49.6063 4.83397 45.7834 4.17347 44.1252C2.76138 40.5095 1.71369 36.5714 1.71369 32.4261C1.71369 14.9234 15.7208 0.713926 33.0532 0.713926C48.518 0.713926 60.9991 11.584 63.6411 26.1389C63.6411 26.2771 63.6866 26.3922 63.6411 26.5074" fill="black"/>
</svg>
