<svg width="65" height="64" viewBox="0 0 65 64" fill="none" xmlns="http://www.w3.org/2000/svg">
<path d="M25.504 27.0387H27.4983L30.8892 33.1728L34.2801 27.0387H36.2312V37.1182H34.6041V29.393L31.6308 34.7424H30.1045L27.1311 29.393V37.1182H25.504V27.0387Z" fill="black"/>
<path d="M41.4796 37.2983C40.726 37.2983 40.0636 37.1315 39.4925 36.7979C38.9213 36.4643 38.4761 36.0023 38.157 35.4119C37.8377 34.8215 37.6781 34.1448 37.6782 33.3816C37.6782 32.6089 37.8342 31.9249 38.1462 31.3297C38.4581 30.7346 38.8913 30.2691 39.4457 29.933C40.0001 29.5971 40.6373 29.4291 41.3572 29.429C42.0723 29.429 42.6879 29.5982 43.2039 29.9365C43.7198 30.275 44.117 30.749 44.3954 31.3585C44.6738 31.9681 44.813 32.6833 44.813 33.504V33.9503H39.2909C39.3917 34.5648 39.6401 35.0484 40.0361 35.4011C40.4321 35.7539 40.9324 35.9303 41.5372 35.9302C42.0219 35.9302 42.4395 35.8583 42.7899 35.7143C43.1403 35.5703 43.469 35.3519 43.7763 35.0591L44.6402 36.1175C43.781 36.9047 42.7274 37.2983 41.4796 37.2983ZM42.6675 31.3189C42.3267 30.971 41.8803 30.797 41.3284 30.7969C40.7908 30.7969 40.3408 30.9745 39.9785 31.3297C39.616 31.6849 39.3868 32.1625 39.2909 32.7625H43.2507C43.2027 32.1481 43.0083 31.6669 42.6675 31.3189Z" fill="black"/>
<path d="M46.7864 30.941H45.2889V29.609H46.7864V27.406H48.3559V29.609H50.631V30.941H48.3559V34.3176C48.3559 34.8791 48.4519 35.2799 48.6439 35.5199C48.8358 35.76 49.1646 35.88 49.6303 35.8799C49.8366 35.8799 50.0118 35.8715 50.1559 35.8547C50.2999 35.8379 50.4582 35.8151 50.631 35.7863V37.1038C50.4339 37.1608 50.233 37.2041 50.0299 37.2334C49.7974 37.2676 49.5628 37.2845 49.3279 37.2838C47.6335 37.2838 46.7864 36.3575 46.7864 34.5048V30.941Z" fill="black"/>
<path d="M58.81 37.1181H57.2693V36.0669C56.9957 36.4606 56.6477 36.7641 56.2254 36.9777C55.8029 37.1912 55.323 37.298 54.7854 37.2981C54.1231 37.2981 53.5363 37.1289 53.0251 36.7905C52.5139 36.4521 52.1119 35.9865 51.8192 35.3938C51.5264 34.801 51.38 34.123 51.38 33.3599C51.38 32.592 51.5288 31.9128 51.8264 31.3223C52.1239 30.732 52.5355 30.2689 53.0611 29.9328C53.5867 29.5969 54.1902 29.4289 54.8718 29.4289C55.3854 29.4289 55.8461 29.5285 56.2541 29.7277C56.6566 29.9224 57.0052 30.2128 57.2693 30.5736V29.6089H58.81V37.1181ZM57.2405 32.2368C57.0724 31.8096 56.8072 31.4724 56.4449 31.2251C56.0825 30.978 55.6637 30.8544 55.1886 30.8544C54.5166 30.8544 53.9814 31.08 53.5831 31.5311C53.1846 31.9823 52.9855 32.5919 52.9855 33.3599C52.9855 34.1327 53.1775 34.7447 53.5615 35.1958C53.9454 35.647 54.4662 35.8726 55.1238 35.8726C55.6085 35.8726 56.0405 35.7478 56.4197 35.4981C56.7988 35.2487 57.0724 34.9127 57.2405 34.4902V32.2368Z" fill="black"/>
<path d="M17.642 26.698C16.3336 26.698 15.3108 27.6835 14.3849 28.9353C13.1126 27.3153 12.0485 26.698 10.7752 26.698C8.17911 26.698 6.19 30.0766 6.19 33.6526C6.19 35.8903 7.27259 37.3017 9.08591 37.3017C10.391 37.3017 11.3297 36.6864 12.9983 33.7696C12.9983 33.7696 13.6939 32.5412 14.1724 31.6951C14.3401 31.9658 14.5167 32.2575 14.7022 32.5703L15.4847 33.8866C17.009 36.4373 17.8582 37.3017 19.3971 37.3017C21.1636 37.3017 22.1467 35.871 22.1467 33.5868C22.1467 29.8425 20.1128 26.698 17.642 26.698ZM11.7259 32.9798C10.373 35.1005 9.90496 35.5759 9.15173 35.5759C8.37656 35.5759 7.91585 34.8953 7.91585 33.6818C7.91585 31.0857 9.21023 28.4312 10.7533 28.4312C11.5888 28.4312 12.2871 28.9137 13.3567 30.4449C12.3411 32.0027 11.7259 32.9798 11.7259 32.9798ZM16.8319 32.7128L15.8963 31.1525C15.6431 30.7407 15.3998 30.3617 15.1663 30.0154C16.0096 28.714 16.7051 28.0655 17.5323 28.0655C19.2508 28.0655 20.6257 30.5958 20.6257 33.7038C20.6257 34.8885 20.2376 35.5759 19.4337 35.5759C18.6631 35.5759 18.295 35.0669 16.8319 32.7128Z" fill="black"/>
</svg>
