<svg width="64" height="64" viewBox="0 0 64 64" fill="none" xmlns="http://www.w3.org/2000/svg">
<path d="M44.626 12.7285C39.8702 12.7285 36.1525 16.3105 32.7871 20.8607C28.1625 14.9723 24.2948 12.7285 19.6664 12.7285C10.2301 12.7285 3 25.009 3 38.0072C3 46.141 6.93503 51.2712 13.5261 51.2712C18.27 51.2712 21.6817 49.0347 27.747 38.4325C27.747 38.4325 30.2753 33.9676 32.0147 30.892C32.6241 31.8761 33.2661 32.9365 33.9404 34.0732L36.7846 38.8578C42.325 48.1291 45.4119 51.2712 51.0055 51.2712C57.4266 51.2712 61 46.0709 61 37.7679C61 24.1584 53.6069 12.7285 44.626 12.7285ZM23.1219 35.5617C18.2044 43.2702 16.5032 44.998 13.7654 44.998C10.9478 44.998 9.27314 42.5244 9.27314 38.1135C9.27314 28.6772 13.978 19.0282 19.5866 19.0282C22.6238 19.0282 25.162 20.7823 29.0497 26.348C25.3581 32.0103 23.1219 35.5617 23.1219 35.5617ZM41.6813 34.5913L38.2807 28.9198C37.3604 27.4231 36.476 26.0455 35.6275 24.7869C38.6924 20.0563 41.2205 17.6992 44.2273 17.6992C50.4739 17.6992 55.4711 26.8963 55.4711 38.1932C55.4711 42.4994 54.0607 44.998 51.1384 44.998C48.3375 44.998 46.9994 43.1482 41.6813 34.5913Z" fill="black"/>
</svg>
