<svg width="65" height="64" viewBox="0 0 65 64" fill="none" xmlns="http://www.w3.org/2000/svg">
<path d="M4.90149 23.6353H8.15338L13.6828 33.6378L19.2121 23.6353H22.3936V40.0713H19.7405V27.4743L14.892 36.1971H12.4032L7.55465 27.4743V40.0713H4.90149V23.6353Z" fill="black"/>
<path d="M30.9519 40.3648C29.723 40.3648 28.6429 40.0929 27.7116 39.5489C26.7802 39.0049 26.0542 38.2516 25.5339 37.289C25.0133 36.3262 24.753 35.2227 24.7531 33.9783C24.7531 32.7182 25.0075 31.6029 25.5162 30.6324C26.025 29.662 26.7313 28.9028 27.6353 28.3547C28.5394 27.807 29.5783 27.5331 30.7523 27.5329C31.9184 27.5329 32.9222 27.8088 33.7636 28.3606C34.6048 28.9125 35.2525 29.6854 35.7065 30.6793C36.1604 31.6733 36.3874 32.8395 36.3875 34.1778V34.9056H27.3829C27.5473 35.9076 27.9523 36.6962 28.598 37.2713C29.2437 37.8465 30.0596 38.1342 31.0458 38.1341C31.8362 38.1341 32.5172 38.0167 33.0885 37.7819C33.6598 37.5471 34.1959 37.191 34.697 36.7137L36.1057 38.4394C34.7046 39.7231 32.9866 40.3649 30.9519 40.3648ZM32.889 30.6147C32.3332 30.0473 31.6053 29.7636 30.7054 29.7635C29.8287 29.7635 29.0949 30.0531 28.5041 30.6324C27.9131 31.2115 27.5393 31.9903 27.3829 32.9686H33.8399C33.7616 31.9668 33.4446 31.1821 32.889 30.6147Z" fill="black"/>
<path d="M39.6054 29.9984H37.1635V27.8265H39.6054V24.2341H42.1647V27.8265H45.8745V29.9984H42.1647V35.5044C42.1647 36.4201 42.3212 37.0736 42.6343 37.465C42.9472 37.8565 43.4834 38.0521 44.2427 38.052C44.5791 38.052 44.8648 38.0383 45.0997 38.0109C45.3345 37.9836 45.5928 37.9464 45.8745 37.8993V40.0477C45.553 40.1407 45.2255 40.2114 44.8943 40.2591C44.5153 40.3149 44.1327 40.3424 43.7496 40.3413C40.9867 40.3413 39.6053 38.8308 39.6054 35.8097V29.9984Z" fill="black"/>
<path d="M59.2115 40.071H56.6991V38.357C56.253 38.9989 55.6856 39.4939 54.9969 39.8421C54.3081 40.1902 53.5254 40.3644 52.6488 40.3646C51.5688 40.3646 50.612 40.0887 49.7784 39.5368C48.9449 38.9851 48.2894 38.2259 47.812 37.2594C47.3345 36.2927 47.0958 35.1872 47.0958 33.9428C47.0958 32.6906 47.3385 31.5831 47.8237 30.6203C48.3089 29.6577 48.98 28.9025 49.8371 28.3545C50.6941 27.8068 51.6783 27.5329 52.7897 27.5327C53.6271 27.5327 54.3785 27.6951 55.0438 28.02C55.7001 28.3375 56.2685 28.8111 56.6991 29.3994V27.8263H59.2115V40.071ZM56.6522 32.1114C56.3781 31.4148 55.9457 30.8649 55.3549 30.4618C54.7639 30.0588 54.081 29.8573 53.3063 29.8573C52.2104 29.8573 51.3378 30.2251 50.6883 30.9608C50.0386 31.6965 49.7138 32.6905 49.7139 33.9428C49.7139 35.203 50.0269 36.2009 50.6531 36.9365C51.2791 37.6723 52.1283 38.0401 53.2007 38.0401C53.991 38.0401 54.6954 37.8365 55.3138 37.4295C55.932 37.0227 56.3781 36.4749 56.6522 35.7859V32.1114Z" fill="black"/>
</svg>
