<svg width="64" height="64" viewBox="0 0 64 64" fill="none" xmlns="http://www.w3.org/2000/svg">
<path d="M61.559 15.2542C61.559 18.8387 58.6526 21.745 55.0682 21.745C51.4837 21.745 48.5871 18.8387 48.5871 15.2542C48.5871 11.6697 51.4934 8.76343 55.0682 8.76343C58.643 8.76343 61.559 11.6697 61.559 15.2542Z" fill="black"/>
<path d="M44.2564 12.368C44.2564 17.5509 40.0616 21.7457 34.8884 21.7457H34.6462V18.1322C34.6462 15.7878 32.7474 13.889 30.403 13.889H25.6366C25.5494 13.3949 25.5107 12.8815 25.5107 12.368C25.5107 7.19478 29.7055 3 34.8884 3C40.0713 3 44.2564 7.19478 44.2564 12.368Z" fill="black"/>
<path d="M63 27.3647V41.9544C63 47.5151 58.4952 52.0296 52.9345 52.0296H52.886C51.3554 52.0296 49.9022 51.6905 48.5944 51.0705C46.1143 56.6022 40.6214 60.516 34.1597 60.6807C27.2233 60.5063 21.401 56.0112 19.2212 49.8305H30.4008C32.7453 49.8305 34.6441 47.9317 34.6441 45.5873V24.6327H60.2584C61.7793 24.6327 63 25.8534 63 27.3647Z" fill="black"/>
<path d="M32.6691 18.1128C32.6498 18.0256 32.6304 17.9384 32.6013 17.8512C32.5723 17.7543 32.5335 17.6574 32.4851 17.5606C32.4657 17.5121 32.4366 17.454 32.4076 17.4056C32.3979 17.3862 32.3979 17.3765 32.3882 17.3571C32.2719 17.1537 32.1266 16.9599 31.9716 16.7952C31.4872 16.3108 30.8188 16.0008 30.0825 16.0008H3.64475C2.1819 16.0008 1 17.1827 1 18.6456V45.0737C1 46.5365 2.1819 47.7184 3.64475 47.7184H30.0825C31.5357 47.7184 32.7176 46.5365 32.7176 45.0737V18.6456C32.7176 18.4615 32.6982 18.2871 32.6691 18.1128ZM23.8146 26.0373H18.4379V40.4332H15.1634V26.0373H9.90301V23.2472H23.8146V26.0373Z" fill="black"/>
</svg>
