<svg width="64" height="64" viewBox="0 0 64 64" fill="none" xmlns="http://www.w3.org/2000/svg">
<path d="M37.57 7.13889C34.8777 3.96174 32.5579 0.712429 32.0869 0.0456474C32.0771 0.0315614 32.0641 0.0200504 32.0489 0.0121008C32.0337 0.0041513 32.0168 -1.4679e-06 31.9997 3.89215e-10C31.9826 1.46867e-06 31.9657 0.0041563 31.9505 0.0121084C31.9353 0.0200606 31.9223 0.031573 31.9125 0.0456607C31.4416 0.712457 29.1224 3.96175 26.4301 7.13889C3.35427 36.5365 30.0723 56.3707 30.0723 56.3707L30.2888 56.5212C30.4914 59.5899 30.9946 64 30.9946 64H33.0054C33.0054 64 33.5065 59.6088 33.7099 56.5411L33.9279 56.3707C33.9279 56.3707 60.6456 36.5366 37.57 7.13889ZM32.0001 55.9396H31.9999C31.9999 55.9396 30.8022 54.918 30.4789 54.4061L30.4759 54.351L31.9247 22.3454C31.9256 22.326 31.9339 22.3077 31.9479 22.2943C31.962 22.2809 31.9806 22.2734 32 22.2734C32.0194 22.2734 32.0381 22.2809 32.0521 22.2943C32.0661 22.3077 32.0744 22.326 32.0753 22.3454L33.5241 54.3509L33.5213 54.4059C33.1982 54.9177 32.0001 55.9396 32.0001 55.9396Z" fill="black"/>
</svg>
