<svg width="64" height="64" viewBox="0 0 64 64" fill="none" xmlns="http://www.w3.org/2000/svg">
<path fill-rule="evenodd" clip-rule="evenodd" d="M58.9515 49.8526C55.4707 49.7556 52.7703 50.1124 50.507 51.0645C49.8553 51.3262 48.8095 51.3262 48.7236 52.1464C49.0719 52.4906 49.1138 53.0539 49.4192 53.5309C49.9411 54.3967 50.8562 55.5631 51.6825 56.168L54.4678 58.1585C56.1653 59.1959 58.0803 59.8018 59.7339 60.8402C60.6919 61.4461 61.649 62.2247 62.607 62.8742C63.0948 63.2204 63.3904 63.7837 64.0001 63.9989V63.868C63.6957 63.4802 63.6079 62.9179 63.3045 62.4835L61.9972 61.2299C60.7358 59.543 59.1681 58.0712 57.4706 56.8612C56.0775 55.9092 53.0317 54.6119 52.4659 53.0122L52.38 52.9153C53.3361 52.8183 54.4678 52.4819 55.3829 52.2221C56.8638 51.8343 58.212 51.9196 59.7339 51.5308L61.8246 50.9248V50.537C61.0412 49.7585 60.4754 48.7201 59.649 47.9852C57.4296 46.0821 54.9907 44.2216 52.4659 42.6645C51.1167 41.7997 49.3753 41.2364 47.9392 40.5024C47.4154 40.2426 46.5461 40.1127 46.2418 39.6803C45.4564 38.7302 45.0223 37.4746 44.4565 36.349L40.8878 28.8226C40.1044 27.1356 39.6244 25.4486 38.6684 23.8916C34.1847 16.5377 29.3087 12.0828 21.8222 7.71312C20.2125 6.80467 18.2975 6.41395 16.2614 5.93889L12.9972 5.76437C12.2996 5.46188 11.604 4.63972 10.9943 4.24997C8.51343 2.69292 2.11466 -0.681032 0.285459 3.76521C-0.890106 6.57683 2.02685 9.34483 3.01706 10.7729C3.75849 11.7677 4.71455 12.8923 5.23844 14.017C5.53111 14.7519 5.62867 15.5314 5.93402 16.3099C6.62961 18.2131 7.28324 20.3334 8.19735 22.1077C8.68514 23.0161 9.19732 23.9691 9.80705 24.7903C10.1553 25.2751 10.7651 25.4826 10.8948 26.2611C10.2851 27.1269 10.2431 28.4231 9.89485 29.5061C8.3271 34.3944 8.93683 40.4501 11.1563 44.049C11.8538 45.13 13.4976 47.5102 15.7278 46.6008C17.6867 45.8222 17.2497 43.3567 17.8155 41.1937C17.9472 40.675 17.8594 40.3289 18.1199 39.9818V40.0788L19.9052 43.6689C21.2544 45.7883 23.6055 47.9949 25.5635 49.4667C26.6074 50.2452 27.4347 51.587 28.74 52.0621V51.9312H28.6541C28.3927 51.5434 28.0005 51.3689 27.6522 51.0664C26.8688 50.2879 25.9986 49.3358 25.3889 48.471C23.5616 46.0491 21.9519 43.3664 20.5149 40.5984C19.8174 39.2576 19.2077 37.7868 18.6438 36.446C18.3804 35.9263 18.3804 35.1468 17.9463 34.8889C17.2926 35.839 16.3366 36.6631 15.8556 37.8304C15.0283 39.69 14.9425 41.9829 14.6381 44.3621C14.4625 44.4058 14.5405 44.3621 14.4625 44.4591C13.0713 44.1139 12.5913 42.6849 12.0694 41.4749C10.7641 38.4034 10.5455 33.4724 11.6772 29.9249C11.9816 29.0165 13.2889 26.1612 12.7669 25.2964C12.5035 24.4743 11.6353 23.9992 11.1553 23.3496C10.5894 22.5275 9.98167 21.4901 9.58949 20.5816C8.54563 18.1578 8.0237 15.4771 6.89106 13.0542C6.36717 11.9296 5.45404 10.7613 4.71358 9.72391C3.8863 8.55563 2.97414 7.73348 2.3205 6.34996C2.10295 5.8652 1.79857 5.0954 2.14685 4.57574C2.2327 4.22961 2.4083 4.09097 2.75463 4.01341C3.32046 3.52865 4.93211 4.14333 5.49794 4.40122C7.10763 5.0508 8.45685 5.65579 9.80607 6.56326C10.4158 6.99567 11.0694 7.81783 11.8528 8.035H12.7679C14.161 8.33749 15.7268 8.13195 17.0312 8.51976C19.3384 9.2566 21.4271 10.3367 23.3002 11.5059C29.0014 15.096 33.7037 20.2006 36.8802 26.3009C37.4021 27.2956 37.6196 28.204 38.0996 29.2424C39.0147 31.3627 40.1464 33.5248 41.0585 35.6025C41.9736 37.6356 42.8438 39.7133 44.1491 41.4002C44.8028 42.3087 47.4134 42.7837 48.588 43.2598C49.4592 43.6476 50.8074 43.9966 51.5928 44.4717C53.0717 45.3801 54.5517 46.4185 55.9438 47.4132C56.6394 47.931 58.8169 49.0129 58.9466 49.8758L58.9515 49.8526ZM14.563 12.2621C13.9616 12.2568 13.3621 12.3295 12.7796 12.4783V12.5753H12.8655C13.2137 13.2675 13.8235 13.7436 14.2586 14.3495L15.2605 16.4262L15.3463 16.3293C15.9561 15.8969 16.2614 15.2046 16.2614 14.1672C16 13.8648 15.9571 13.5613 15.7395 13.2588C15.478 12.8264 14.9122 12.6092 14.563 12.2641V12.2621Z" fill="black"/>
</svg>
