<svg width="65" height="64" viewBox="0 0 65 64" fill="none" xmlns="http://www.w3.org/2000/svg">
<path d="M9.60024 39.1815C8.63749 39.3506 7.6578 39.4012 6.64436 39.5362L3.55324 30.4827V39.9248C2.59049 40.0261 1.71217 40.1613 0.800049 40.2964V23H3.36755L6.8808 32.8138V23H9.60024V39.1815ZM14.9209 29.3341C15.9682 29.3341 17.5729 29.2834 18.5356 29.2834V31.9859C17.3363 31.9859 15.9344 31.9859 14.9209 32.0366V36.0568C16.5087 35.9554 18.0965 35.8202 19.701 35.7695V38.3706L12.2183 38.9619V23H19.701V25.7026H14.9209V29.3341V29.3341ZM29.7512 25.7026H26.9473V38.1344C26.0352 38.1344 25.123 38.1344 24.2449 38.1681V25.7026H21.441V23H29.7513L29.7512 25.7026V25.7026ZM34.1428 29.1484H37.842V31.8509H34.1428V37.9824H31.4907V23H39.0412V25.7026H34.1428V29.1484V29.1484ZM43.4329 35.6176C44.97 35.6512 46.5239 35.7697 48.0272 35.854V38.5228C45.6119 38.3707 43.1964 38.2189 40.7304 38.1681V23H43.4329V35.6176ZM50.3075 38.7086C51.1689 38.7594 52.081 38.8101 52.9594 38.9113V23H50.3075V38.7086V38.7086ZM64.8 23L61.3711 31.2259L64.8 40.2964C63.7865 40.1613 62.773 39.9754 61.7595 39.8065L59.8172 34.8069L57.8411 39.4013C56.8612 39.2322 55.9154 39.1815 54.9359 39.0464L58.4154 31.1245L55.2735 23H58.1787L59.9522 27.5437L61.8441 23H64.8V23Z" fill="black"/>
</svg>
