<svg width="65" height="64" viewBox="0 0 65 64" fill="none" xmlns="http://www.w3.org/2000/svg">
<path d="M46.6566 22.2097L46.6333 22.1999C46.6199 22.1947 46.6066 22.1901 46.595 22.1781C46.5562 22.1364 46.539 22.0791 46.5483 22.0229L47.8367 14.1345L53.8787 20.1868L47.595 22.8641C47.5779 22.8712 47.5589 22.8747 47.54 22.8739H47.515C47.5067 22.8687 47.4985 22.8622 47.4817 22.8455C47.2479 22.5848 46.9682 22.3692 46.6567 22.2096L46.6566 22.2097ZM55.4203 21.729L61.8806 28.1985C63.2223 29.5439 63.894 30.2149 64.139 30.9927C64.1757 31.1079 64.2057 31.223 64.229 31.3415L48.79 24.7935C48.7817 24.79 48.7734 24.7866 48.765 24.7837C48.7033 24.7587 48.6316 24.7303 48.6316 24.6669C48.6316 24.6034 48.705 24.5734 48.7666 24.5484L48.7867 24.5401L55.4203 21.729ZM63.9657 33.4179C63.6323 34.0455 62.9823 34.6965 61.8823 35.7998L54.5986 43.0923L45.1782 41.1277L45.1282 41.1179C45.0448 41.1044 44.9565 41.0895 44.9565 41.0144C44.8841 40.2277 44.4888 39.5065 43.8648 39.0231C43.8264 38.9847 43.8364 38.9247 43.8482 38.8696C43.8482 38.8613 43.8482 38.853 43.8515 38.8461L45.6233 27.9533L45.6298 27.9166C45.6396 27.8331 45.6548 27.7363 45.7298 27.7363C46.4968 27.6408 47.1933 27.2409 47.6632 26.6263C47.6782 26.6098 47.6882 26.5913 47.7082 26.5812C47.7615 26.5562 47.8249 26.5812 47.8799 26.6047L63.964 33.4181L63.9657 33.4179ZM52.9235 44.7697L40.9463 56.7642L42.9964 44.1455L42.9997 44.129C43.0014 44.1124 43.0049 44.0956 43.0095 44.0805C43.026 44.0405 43.0695 44.0238 43.1112 44.0071L43.1312 43.9988C43.5801 43.807 43.9771 43.5112 44.2896 43.1358C44.3296 43.0891 44.3779 43.044 44.4396 43.0357C44.4555 43.033 44.4719 43.033 44.4879 43.0357L52.9216 44.7716L52.9235 44.7697ZM38.4112 59.3029L37.0611 60.6549L22.1354 39.0529C22.13 39.045 22.1245 39.0374 22.1189 39.0295C22.0957 38.9977 22.0706 38.9661 22.0755 38.9293C22.0755 38.9026 22.094 38.8793 22.1122 38.8592L22.1288 38.8375C22.1738 38.7707 22.2121 38.704 22.2538 38.6322L22.2871 38.5738L22.2923 38.5686C22.3158 38.5285 22.3373 38.4901 22.3773 38.4684C22.4123 38.4519 22.4606 38.4586 22.499 38.4667L39.0347 41.8818C39.081 41.8889 39.1246 41.9079 39.1614 41.9368C39.1831 41.9586 39.1881 41.9819 39.1931 42.0086C39.4269 42.8945 40.0607 43.6201 40.9065 43.9699C40.9531 43.9933 40.9332 44.045 40.9117 44.1001C40.9009 44.1242 40.8924 44.1494 40.8867 44.1752C40.6783 45.4437 38.8916 56.3565 38.4116 59.3026L38.4112 59.3029ZM35.591 62.1255C34.596 63.1119 34.0093 63.6343 33.3459 63.8447C32.6919 64.0518 31.9899 64.0518 31.3359 63.8447C30.5592 63.5976 29.8875 62.9266 28.5457 61.5813L13.5567 46.5707L17.4719 40.4901C17.4904 40.46 17.5086 40.4333 17.5386 40.4116C17.5802 40.3816 17.6402 40.3951 17.6902 40.4116C18.5889 40.6831 19.5537 40.6341 20.4203 40.2731C20.4654 40.2565 20.5104 40.2447 20.5453 40.2764C20.563 40.2921 20.5785 40.3103 20.592 40.3298L35.591 62.127L35.591 62.1255ZM12.1116 45.1236L8.67316 41.6802L15.4635 38.7792C15.4808 38.7715 15.4995 38.7677 15.5185 38.7675C15.5751 38.7675 15.6085 38.8242 15.6385 38.876C15.7067 38.9811 15.779 39.0835 15.8552 39.1831L15.8769 39.2098C15.8969 39.2382 15.8834 39.2665 15.8634 39.2933L12.1133 45.1236L12.1116 45.1236ZM7.15142 40.1562L2.80122 35.7998C2.06119 35.0587 1.5245 34.5212 1.15115 34.0589L14.3784 36.8063C14.395 36.8094 14.4117 36.8123 14.4284 36.8146C14.5101 36.828 14.6001 36.843 14.6001 36.9198C14.6001 37.0032 14.5017 37.0416 14.4184 37.0733L14.3801 37.0899L7.15142 40.1562ZM0.391113 31.8189C0.40625 31.5383 0.456595 31.2607 0.54111 30.9927C0.787788 30.2149 1.45782 29.5439 2.80121 28.1985L8.36813 22.6236C10.9313 26.3489 13.5014 30.0694 16.0785 33.7851C16.1235 33.8452 16.1735 33.912 16.1218 33.9621C15.8785 34.2308 15.6351 34.5246 15.4635 34.8434C15.4448 34.8843 15.4162 34.92 15.3801 34.9469C15.3584 34.9603 15.3351 34.9552 15.3101 34.9502H15.3068L0.391113 31.8172V31.8189ZM9.85821 21.1314L17.3402 13.6353C18.0452 13.9441 20.607 15.0274 22.8955 15.9955C24.6289 16.7299 26.209 17.3975 26.7056 17.6145C26.7556 17.6346 26.8006 17.6546 26.8223 17.7047C26.8358 17.7347 26.8288 17.7731 26.8223 17.8048C26.5816 18.904 26.9092 20.0507 27.694 20.856C27.744 20.9061 27.694 20.9778 27.6507 21.0396L27.6275 21.0747L20.0271 32.8638C20.0071 32.8972 19.9888 32.9256 19.9554 32.9473C19.9154 32.9723 19.8587 32.9607 19.8121 32.949C19.5165 32.8714 19.2126 32.83 18.907 32.8255C18.6337 32.8255 18.337 32.8756 18.037 32.9306H18.0353C18.002 32.9358 17.972 32.9424 17.9453 32.9223C17.9158 32.8981 17.8905 32.8695 17.8703 32.8372L9.85663 21.1315L9.85821 21.1314ZM18.8553 12.1214L28.5457 2.41703C29.8875 1.07337 30.5592 0.400706 31.3359 0.155341C31.9899 -0.0517803 32.6919 -0.0517803 33.3459 0.155341C34.1226 0.400706 34.7943 1.07337 36.1361 2.41703L38.2362 4.52014L31.3442 15.2093C31.3273 15.2404 31.3039 15.2677 31.2759 15.2894C31.2342 15.3178 31.1758 15.306 31.1258 15.2894C30.0227 14.9542 28.8254 15.1852 27.9257 15.907C27.8807 15.9537 27.814 15.927 27.7574 15.9018C26.8573 15.5095 19.857 12.5468 18.8553 12.1212L18.8553 12.1214ZM39.6996 5.98564L46.0632 12.3584L44.5298 21.8692V21.8942C44.5285 21.9159 44.5238 21.9372 44.5163 21.9576C44.4998 21.991 44.4663 21.9977 44.433 22.0077C44.1051 22.1072 43.7963 22.2612 43.5196 22.4634C43.5077 22.4721 43.4966 22.4815 43.4863 22.4918C43.4678 22.5118 43.4496 22.5301 43.4196 22.5335C43.3952 22.5342 43.3708 22.5304 43.3479 22.5217L33.6508 18.3956L33.6324 18.3873C33.5707 18.3623 33.4973 18.3322 33.4973 18.2688C33.4403 17.7277 33.2639 17.206 32.9806 16.7416C32.934 16.6648 32.8823 16.5847 32.9223 16.5062L39.6996 5.98564ZM33.1459 20.3502L42.2364 24.206C42.2863 24.2294 42.3414 24.251 42.363 24.3028C42.3718 24.3339 42.3718 24.3668 42.363 24.3979C42.3363 24.5314 42.313 24.6833 42.313 24.8369V25.0923C42.313 25.1557 42.248 25.1824 42.188 25.2075L42.1696 25.214C40.7295 25.8299 21.952 33.8484 21.9236 33.8484C21.8953 33.8484 21.8653 33.8484 21.837 33.8201C21.787 33.77 21.837 33.6999 21.882 33.6365C21.8901 33.6255 21.8976 33.6142 21.9052 33.6031L29.3756 22.0193L29.389 21.9992C29.4324 21.9292 29.4824 21.8507 29.5623 21.8507L29.6374 21.8624C29.8074 21.8859 29.9574 21.9075 30.109 21.9075C31.2424 21.9075 32.2925 21.355 32.9258 20.4102C32.941 20.385 32.9601 20.3624 32.9825 20.3434C33.0275 20.3101 33.0942 20.3269 33.1458 20.3499L33.1459 20.3502ZM22.7355 35.6813L43.2031 26.94C43.2031 26.94 43.233 26.94 43.2614 26.9684C43.3731 27.0802 43.4681 27.1553 43.5597 27.2254L43.6047 27.2538C43.6464 27.2773 43.6881 27.3039 43.6914 27.3473C43.6914 27.3638 43.6914 27.374 43.6879 27.389L41.9345 38.175L41.928 38.2184C41.9162 38.3019 41.9048 38.397 41.8263 38.397C40.8773 38.4612 40.0209 38.9902 39.5379 39.8108L39.5296 39.8242C39.5064 39.8626 39.4846 39.8993 39.4462 39.9194C39.4112 39.9359 39.3662 39.9292 39.3295 39.9211L23.0072 36.5494C22.9906 36.5461 22.7538 35.6831 22.7355 35.6814L22.7355 35.6813Z" fill="black"/>
</svg>
