<svg width="64" height="64" viewBox="0 0 64 64" fill="none" xmlns="http://www.w3.org/2000/svg">
<path d="M29.9042 0.0172226C29.7666 0.029733 29.3286 0.0735193 28.9345 0.104795C19.8444 0.924225 11.3298 5.82829 5.93705 13.3658C2.93412 17.5568 1.01349 22.3107 0.287781 27.3461C0.0312805 29.1039 0 29.623 0 32.0063C0 34.3895 0.0312805 34.9087 0.287781 36.6664C2.02698 48.6826 10.5791 58.7785 22.1779 62.5191C24.2549 63.1884 26.4446 63.645 28.9345 63.9202C29.9042 64.0266 34.0958 64.0266 35.0655 63.9202C39.3634 63.4449 43.0045 62.3815 46.5955 60.5487C47.146 60.2672 47.2524 60.1922 47.1773 60.1296C47.1273 60.0921 44.7812 56.9457 41.966 53.1426L36.8485 46.2306L30.436 36.7414C26.9075 31.5246 24.0047 27.2586 23.9797 27.2586C23.9546 27.2523 23.9296 31.4683 23.9171 36.6163C23.8983 45.6301 23.8921 45.9929 23.7795 46.2055C23.6168 46.5121 23.4917 46.6372 23.2289 46.7748C23.0287 46.8749 22.8536 46.8936 21.9089 46.8936H20.8266L20.5388 46.7122C20.3511 46.5934 20.2135 46.437 20.1196 46.2556L19.9883 45.9741L20.0008 33.4324L20.0196 20.8845L20.2135 20.6406C20.3136 20.5092 20.5263 20.3403 20.6764 20.259C20.9329 20.1339 21.033 20.1214 22.1153 20.1214C23.3916 20.1214 23.6043 20.1714 23.9359 20.5342C24.0297 20.6343 27.5019 25.8637 31.6559 32.1626C35.81 38.4616 41.4905 47.0625 44.2807 51.2848L49.3482 58.9599L49.6047 58.791C51.8757 57.3148 54.278 55.213 56.1799 53.0237C60.2276 48.3761 62.8364 42.7089 63.7122 36.6664C63.9687 34.9087 64 34.3895 64 32.0063C64 29.623 63.9687 29.1039 63.7122 27.3461C61.973 15.3299 53.4209 5.23405 41.8221 1.49345C39.7763 0.830397 37.5992 0.373768 35.1593 0.0985401C34.5587 0.0359882 30.4235 -0.0328189 29.9042 0.0172226ZM43.0045 19.3708C43.3048 19.5209 43.5488 19.8086 43.6364 20.1089C43.6864 20.2715 43.6989 23.7494 43.6864 31.5872L43.6676 42.834L41.6845 39.794L39.695 36.754V28.5784C39.695 23.2928 39.72 20.3216 39.7576 20.1777C39.8577 19.8274 40.0766 19.5522 40.3769 19.3895C40.6334 19.2582 40.7273 19.2457 41.7095 19.2457C42.6354 19.2457 42.798 19.2582 43.0045 19.3708Z" fill="black"/>
</svg>
