<svg width="65" height="64" viewBox="0 0 65 64" fill="none" xmlns="http://www.w3.org/2000/svg">
<path d="M62.831 22.3448H55.259C54.2626 22.3448 53.3931 21.5115 52.9402 20.805C48.9187 14.2836 41.238 10.2078 32.8689 10.2078C24.4998 10.2078 16.3844 14.4829 12.4534 21.3666L12.4172 21.439C12.3447 21.7107 12.073 22.3629 11.0948 22.3629H2.87062C1.76561 22.3629 0.859863 23.2686 0.859863 24.3917V37.9417C0.859863 39.0648 1.76561 39.9525 2.87062 39.9525H9.71806C10.2434 39.9525 10.7144 40.2604 11.131 40.8582C11.2216 41.0031 11.3846 41.2024 11.5658 41.4379C11.8737 41.8545 12.2723 42.3799 12.544 42.7965C16.7104 49.5715 24.518 53.7922 32.9414 53.7922C41.3648 53.7922 48.4296 50.2598 52.6142 44.3181C52.7229 44.1551 52.8678 43.9377 53.0489 43.7022C53.5924 42.9414 54.317 41.9089 54.8967 40.7495C55.259 40.0974 55.5126 39.9706 56.0198 39.9706H62.831C63.9541 39.9706 64.8599 39.0648 64.8599 37.9598V24.4099C64.8599 23.3048 63.9541 22.381 62.831 22.381M11.5295 22.9426V22.9063C12.2541 22.7795 12.7795 22.3266 12.9606 21.6383C16.801 14.9539 24.4093 10.8056 32.8508 10.8056C41.2924 10.8056 48.5202 14.7546 52.433 21.1311C52.9946 22.0187 54.0271 22.9426 55.2408 22.9426H62.8129C63.1389 22.9426 63.4107 23.0512 63.6462 23.2143L61.7622 24.9714C61.5811 24.8627 61.3637 24.7903 61.1282 24.7903H4.53719C4.3017 24.7903 4.0662 24.8627 3.88505 24.9895L2.3453 23.0512C2.50833 22.9969 2.67137 22.9607 2.85252 22.9607H11.4933L11.5295 22.9426ZM17.0003 47.2165C16.4206 46.7818 15.7141 46.0391 15.0257 45.1877C14.5185 44.5718 14.0294 43.9015 13.5584 43.2675C13.0693 42.5972 12.6346 41.9632 12.2904 41.4379C11.8918 40.8039 11.602 40.351 11.5477 40.2242C11.2941 39.7351 11.0586 39.1373 11.4752 38.5757C11.8737 38.0142 12.9244 37.3801 13.5584 37.1446L17.5256 39.4634L17.3444 39.7713L13.9569 37.8874C16.5836 45.3688 24.1013 50.7489 32.9414 50.7489C41.7815 50.7489 48.5564 45.4594 51.2918 38.1953L48.3209 39.7532L48.2304 39.6083C48.2304 39.6083 48.1941 39.5177 48.1579 39.4634C48.1579 39.4634 48.1579 39.4634 48.1579 39.4452L52.2519 37.0903L54.8604 39.1735C54.0271 41.293 51.6903 44.9159 48.5021 44.5355C44.2994 49.1911 39.4446 51.4373 32.9414 51.4373C26.4381 51.4373 20.6957 48.8288 16.7648 44.6986L14.8265 44.0645C15.4605 45.3507 16.3481 46.4919 16.9822 47.1803M47.6507 40.0974C45.4407 46.3651 38.5389 48.7382 32.8327 48.8469C27.1265 48.7382 20.2428 46.3832 18.0147 40.0974C17.9422 39.9162 17.9604 39.8075 17.9966 39.7713C17.9966 39.7713 18.0509 39.7532 18.069 39.7532H47.6145C47.6145 39.7532 47.6869 39.7532 47.6869 39.7713C47.7232 39.8075 47.7232 39.9162 47.6507 40.0974M61.7622 25.9496V35.1701C61.7622 35.5324 61.4724 35.8041 61.1282 35.8041H4.53719C4.17489 35.8041 3.90318 35.5143 3.90318 35.1701V25.9496C3.90318 25.6054 4.19301 25.3156 4.53719 25.3156H61.1282C61.4724 25.3156 61.7622 25.6054 61.7622 25.9496Z" fill="black"/>
<path d="M18.2139 24.3192H48.1217C49.1723 24.3192 48.7376 23.4316 48.484 22.9606C49.6977 23.1599 50.6215 23.6852 51.4005 24.3555C48.7738 16.3124 41.5097 12.4359 32.9595 12.4359C24.4092 12.4359 17.1452 17.1457 14.5366 24.5728C15.1706 24.0837 16.4206 23.3773 17.3444 23.2142C17.3082 23.7396 17.5437 24.3373 18.2321 24.3373M18.3045 22.7251C20.8406 16.1494 26.5649 13.9213 32.887 13.9213C39.2091 13.9213 46.0385 16.0588 48.1398 22.7251C48.1398 22.7251 48.1579 22.8338 48.176 22.87C48.176 22.8519 48.176 22.7976 48.1398 22.7251C48.2304 23.1237 48.1941 23.2867 47.7413 23.2867H18.8117C18.5219 23.2867 18.1415 23.2142 18.3226 22.7251" fill="black"/>
<path d="M14.6092 32.4347L12.1999 26.4024H8.5769V34.3549H10.7869V28.0509L13.3411 34.3549H16.8373V26.4024H14.6092V32.4347Z" fill="black"/>
<path fill-rule="evenodd" clip-rule="evenodd" d="M20.9855 26.4024V34.3549H18.5581V26.4024H20.9855Z" fill="black"/>
<path d="M41.4556 26.4024L38.6116 34.3549H40.8941L41.4013 32.9238H44.6982L44.1004 31.1666H42.0172L43.0497 28.1777L45.2235 34.3549H47.506L44.6982 26.4024H41.4556Z" fill="black"/>
<path d="M27.0175 29.4638H24.6445V28.1777H29.1189V26.4024H24.5539C23.3583 26.4024 22.3801 26.9821 22.3801 28.6849C22.3801 29.4819 22.5069 31.2572 25.0611 31.2572H27.4704V32.5434H22.5975V34.3549H27.5429C28.7022 34.3549 29.8254 33.4129 29.8254 31.8912C29.8254 30.3696 28.9921 29.4819 27.0175 29.4819" fill="black"/>
<path d="M54.3711 32.4347L51.9619 26.4024H48.3389V34.3549H50.5489V28.0509L53.1031 34.3549H56.6174V26.4024H54.3711V32.4347Z" fill="black"/>
<path d="M35.4051 29.4638H33.032V28.1777H37.5064V26.4024H32.9414C31.7458 26.4024 30.7495 26.9821 30.7495 28.6849C30.7495 29.4819 30.8944 31.2572 33.4305 31.2572H35.8579V32.5434H30.985V34.3549H35.9304C37.0897 34.3549 38.2128 33.4129 38.2128 31.8912C38.2128 30.3696 37.3796 29.4819 35.3869 29.4819" fill="black"/>
</svg>
