<svg width="64" height="64" viewBox="0 0 64 64" fill="none" xmlns="http://www.w3.org/2000/svg">
<path fill-rule="evenodd" clip-rule="evenodd" d="M13.3649 24.4573C13.5946 24.5896 13.7348 24.8341 13.7348 25.1003L13.723 34.5953C13.723 34.7269 13.6519 34.85 13.5395 34.9151C13.4258 34.983 13.2835 34.983 13.1692 34.9151L9.52861 32.8303C9.29975 32.6943 9.15752 32.4513 9.15752 32.1879V27.7517C9.15752 27.487 9.01661 27.2425 8.78709 27.1108L7.23694 26.2179C7.12497 26.1513 6.99563 26.1185 6.86889 26.1185C6.74013 26.1185 6.61368 26.1515 6.49853 26.218L4.94761 27.1113C4.71829 27.2429 4.57796 27.4874 4.57796 27.7521V32.1887C4.57796 32.4523 4.43763 32.6942 4.20759 32.831L0.564668 34.9173C0.451818 34.9867 0.310036 34.9867 0.197197 34.9173C0.0814565 34.8522 0.0134511 34.7291 0.0134511 34.5975L0 25.101C0 24.8349 0.142356 24.5903 0.370659 24.4573L6.49824 20.9315C6.60341 20.8707 6.71929 20.8389 6.83678 20.8345H6.90014C7.01762 20.8389 7.13351 20.8707 7.23694 20.9315L13.3649 24.4573ZM42.5582 30.2048C42.6157 30.172 42.6508 30.1109 42.6508 30.0447L42.6502 27.6148C42.6502 27.5485 42.6154 27.4874 42.5576 27.4542L40.4525 26.2389C40.3946 26.2057 40.3238 26.2057 40.2659 26.2389L38.1623 27.4542C38.1058 27.4874 38.0712 27.5485 38.0712 27.6148V30.0447C38.0712 30.1107 38.1059 30.1719 38.1638 30.2048L40.2688 31.418C40.3257 31.4508 40.3964 31.4508 40.4535 31.418L42.5582 30.2048ZM42.8514 12.0507C42.9647 11.9846 43.1046 11.9829 43.2194 12.0469L46.866 14.0823C47.1004 14.2135 47.2465 14.4605 47.2465 14.7289V32.3678C47.2465 32.6325 47.1047 32.8756 46.8761 33.0086L40.7462 36.5504C40.5166 36.682 40.2348 36.682 40.0058 36.5504L33.876 33.0101C33.647 32.877 33.5057 32.634 33.5057 32.3692V25.2917C33.5057 25.0284 33.647 24.7839 33.876 24.6522L40.0058 21.1145C40.2354 20.9823 40.5169 20.9823 40.7455 21.1145L42.2805 21.9987C42.3608 22.0449 42.4599 22.0449 42.5395 21.9987C42.6196 21.9523 42.6688 21.8669 42.6688 21.7743V12.3704C42.6688 12.2388 42.7385 12.1173 42.8514 12.0507ZM64 26.9111C64 27.1744 63.8599 27.4186 63.6321 27.5508L59.9553 29.6864C59.841 29.7529 59.6992 29.7529 59.585 29.6878C59.4707 29.6213 59.3997 29.4982 59.3997 29.3666V27.6218C59.3997 27.4902 59.3289 27.3673 59.2146 27.3022L57.2948 26.1953C57.1805 26.1288 57.0401 26.1288 56.9258 26.1953L55.0074 27.3022C54.8917 27.368 54.8223 27.4902 54.8223 27.6227V29.8421C54.8223 29.9737 54.8931 30.0966 55.0089 30.1617L61.175 33.7005C61.2907 33.7656 61.3615 33.8901 61.3615 34.0232C61.3615 34.1562 61.2877 34.2793 61.1721 34.3444L57.4886 36.3915C57.2615 36.5174 56.9866 36.516 56.7624 36.3872L50.673 32.9164C50.4429 32.7848 50.2997 32.5388 50.2997 32.2725V25.198C50.2997 24.9332 50.4401 24.6902 50.67 24.557L56.7985 21.0197C57.0285 20.8866 57.3107 20.8866 57.5406 21.0197L63.6316 24.5556C63.8596 24.6884 64 24.9318 64 25.1958V26.9111ZM31.6329 51.1967C31.4217 51.1967 31.2118 51.1413 31.0266 51.0346L29.0972 49.8923C28.8089 49.7311 28.9495 49.674 29.0446 49.6413C29.4289 49.5067 29.5069 49.4763 29.917 49.2434C29.9602 49.2187 30.0166 49.2275 30.0607 49.2535L31.5431 50.1332C31.5966 50.1621 31.6725 50.1621 31.7222 50.1332L37.5019 46.7969C37.5554 46.7665 37.5902 46.7043 37.5902 46.6406V39.9712C37.5902 39.9045 37.5554 39.8453 37.5008 39.812L31.7233 36.4787C31.6697 36.4469 31.5989 36.4469 31.5454 36.4787L25.769 39.812C25.713 39.8438 25.6775 39.9061 25.6775 39.9696V46.6392C25.6775 46.7029 25.7122 46.7637 25.7672 46.794L27.3498 47.7083C28.2092 48.138 28.7345 47.6317 28.7345 47.1224V40.5397C28.7345 40.4457 28.8083 40.3733 28.9023 40.3733H29.6343C29.7255 40.3733 29.8007 40.4457 29.8007 40.5397V47.1253C29.8007 48.2712 29.1757 48.9294 28.0892 48.9294C27.755 48.9294 27.4916 48.9294 26.7567 48.5677L25.2405 47.6939C24.8658 47.477 24.6344 47.0718 24.6344 46.6392V39.9696C24.6344 39.5357 24.8658 39.1306 25.2405 38.9164L31.0261 35.5788C31.3921 35.3719 31.8782 35.3719 32.2413 35.5788L38.0196 38.9179C38.3929 39.1334 38.6259 39.5371 38.6259 39.9712V46.6406C38.6259 47.0732 38.3929 47.477 38.0196 47.6939L32.2413 51.0316C32.0562 51.1386 31.8464 51.1936 31.6323 51.1936L31.6329 51.1967ZM33.4181 46.6008C30.8892 46.6008 30.359 45.44 30.359 44.4663C30.359 44.3737 30.4337 44.2999 30.5263 44.2999H31.2728C31.3554 44.2999 31.4248 44.3599 31.4378 44.4414C31.5507 45.2021 31.8863 45.5857 33.4155 45.5857C34.6337 45.5857 35.1517 45.3105 35.1517 44.6646C35.1517 44.2928 35.004 44.0164 33.1117 43.8313C31.5289 43.675 30.551 43.3263 30.551 42.0605C30.551 40.8944 31.5348 40.1999 33.1826 40.1999C35.0329 40.1999 35.9502 40.8424 36.066 42.2225C36.0703 42.2702 36.053 42.3166 36.0211 42.3513C35.9893 42.3845 35.9445 42.4048 35.8982 42.4048H35.1473C35.0691 42.4048 35.0012 42.3498 34.9853 42.2746C34.8044 41.4745 34.3674 41.2185 33.1797 41.2185C31.8502 41.2185 31.6953 41.6814 31.6953 42.0287C31.6953 42.4496 31.8776 42.5727 33.6716 42.8099C35.4482 43.0457 36.2916 43.3784 36.2916 44.627C36.2916 45.8857 35.2413 46.6077 33.4098 46.6077L33.4181 46.6008ZM40.4497 39.5344H40.6435C40.8026 39.5344 40.833 39.4231 40.833 39.358C40.833 39.1872 40.7158 39.1873 40.6507 39.1873H40.4511L40.4497 39.5344ZM40.2139 38.9876H40.6435C40.7911 38.9876 41.0804 38.9876 41.0804 39.3175C41.0804 39.5468 40.9336 39.5949 40.8454 39.6239L40.8446 39.6242C41.0121 39.6354 41.0276 39.7425 41.0496 39.8949L41.0515 39.9077L41.0528 39.9191V39.9192V39.9193C41.0645 40.0204 41.0831 40.1819 41.1166 40.2376H40.8519L40.8469 40.1981V40.1979C40.8338 40.0941 40.8041 39.859 40.8041 39.8441C40.7868 39.7732 40.7622 39.7385 40.6739 39.7385H40.4554V40.239H40.2139V38.9876ZM39.6973 39.6097C39.6973 40.1277 40.1154 40.5472 40.6291 40.5472C41.1469 40.5472 41.5651 40.1189 41.5651 39.6097C41.5651 39.0903 41.1412 38.6779 40.6275 38.6779C40.1213 38.6779 39.6959 39.0846 39.6959 39.6083L39.6973 39.6097ZM41.7444 39.6126C41.7444 40.226 41.2425 40.7266 40.6305 40.7266C40.0228 40.7266 39.5165 40.2318 39.5165 39.6126C39.5165 38.9818 40.0344 38.4986 40.6305 38.4986C41.2309 38.4986 41.743 38.9833 41.743 39.6126H41.7444ZM57.0799 27.2195C57.1234 27.1939 57.1778 27.1939 57.2217 27.2195L58.398 27.898C58.4419 27.9235 58.4689 27.9704 58.4689 28.0211V29.3795C58.4689 29.4302 58.4419 29.4771 58.398 29.5025L57.2217 30.1811C57.1778 30.2067 57.1234 30.2067 57.0799 30.1811L55.9046 29.5025C55.8596 29.4771 55.8322 29.4302 55.8322 29.3795V28.0211C55.8322 27.9704 55.8582 27.9235 55.9031 27.898L57.0799 27.2195ZM24.1441 21.2171C23.9089 21.08 23.6178 21.08 23.3856 21.2171L17.0893 24.8493C16.8493 24.9857 16.71 25.2366 16.71 25.5076V32.7799C16.71 33.0509 16.857 33.3018 17.097 33.4382L23.3856 37.0704C23.6178 37.2075 23.9089 37.2075 24.1441 37.0704L30.4366 33.4382C30.6719 33.3018 30.8159 33.0509 30.8159 32.7799V25.5076C30.8159 25.2366 30.6719 24.9857 30.4366 24.8493L24.1441 21.2171Z" fill="black"/>
</svg>
