<svg width="64" height="64" viewBox="0 0 64 64" fill="none" xmlns="http://www.w3.org/2000/svg">
<path d="M31.9742 64C31.1484 64 30.2194 63.8968 29.4968 63.2774L21.6516 58.6323C20.5162 57.9097 21.0323 57.8064 21.5484 57.6C23.0968 57.1871 23.4065 56.8774 25.0581 56.0516C25.1613 55.9484 25.471 55.9484 25.6774 56.1548L31.6645 59.7677C31.7678 59.871 32.0774 59.871 32.3871 59.7677L55.8194 46.2452C55.9226 46.1419 56.2323 45.8323 56.2323 45.6258V18.4774C56.2323 18.1677 56.1291 18.0645 55.8194 17.8581L32.2839 4.54194C32.1807 4.43871 31.871 4.43871 31.5613 4.54194L8.23226 18.0645C8.12903 18.1677 7.81936 18.4774 7.81936 18.6839V45.6258C7.81936 45.9355 7.92258 46.0387 8.23226 46.2452L14.6323 49.8581C18.142 51.6129 20.3097 49.5484 20.3097 47.3806V20.9548C20.3097 20.5419 20.6194 20.2323 21.0323 20.2323H24.0258C24.4387 20.2323 24.7484 20.5419 24.7484 20.9548V47.5871C24.7484 52.2323 22.271 54.8129 17.9355 54.8129C16.4903 54.8129 15.6645 54.8129 12.5678 53.3677L6.47742 49.9613C5.03226 49.1355 4 47.4839 4 45.6258V18.4774C4 16.7226 4.82581 15.1742 6.47742 14.1419L29.7032 0.619355C31.1484 -0.206452 33.2129 -0.206452 34.6581 0.619355L58.0903 14.2452C59.5355 15.071 60.5678 16.7226 60.5678 18.5806V45.5226C60.5678 47.2774 59.742 48.8258 58.0903 49.8581L34.7613 63.2774C33.7291 63.8968 32.9033 64 31.9742 64ZM50.8645 37.3677C50.8645 32.3097 47.5613 30.9677 40.2323 29.9355C32.9033 28.9032 32.2839 28.4903 32.2839 26.7355C32.2839 25.2903 32.9032 23.4323 38.271 23.4323C43.0194 23.4323 44.7742 24.4645 45.4968 27.7677C45.6 28.0774 45.8065 28.1806 46.2194 28.1806H49.2129C49.3162 28.1806 49.6258 28.0774 49.6258 28.0774C49.6258 28.0774 49.7291 27.7677 49.7291 27.6645C49.3162 21.9871 45.4968 19.5097 38.1678 19.5097C31.4581 19.5097 27.4323 22.2968 27.4323 27.0452C27.4323 32.1032 31.4581 33.5484 37.7549 34.1677C45.3936 34.8903 46.0129 36.0258 46.0129 37.471C46.0129 40.0516 43.9484 41.0839 39.0968 41.0839C32.9032 41.0839 31.5613 39.5355 31.1484 36.4387C31.0452 36.129 30.8387 35.8194 30.4258 35.8194H27.6387C27.2258 35.8194 26.9162 36.129 26.9162 36.5419C26.9162 40.4645 28.9807 45.2129 39.2 45.2129C46.6323 45.4194 50.8645 42.529 50.8645 37.3677Z" fill="black"/>
</svg>
