<svg width="64" height="64" viewBox="0 0 64 64" fill="none" xmlns="http://www.w3.org/2000/svg">
<path fill-rule="evenodd" clip-rule="evenodd" d="M11.993 11.3895C13.9734 12.9985 14.7163 12.8757 18.4351 12.6276L53.4936 10.5225C54.2372 10.5225 53.6189 9.78071 53.3709 9.65746L47.5485 5.44825C46.4328 4.58209 44.9464 3.59016 42.0977 3.8383L8.15047 6.31429C6.91241 6.43705 6.66515 7.05608 7.15817 7.55223L11.993 11.3895ZM14.0979 19.5599V56.4476C14.0979 58.4301 15.0886 59.1717 17.3183 59.0491L55.8476 56.8196C58.0785 56.697 58.327 55.3334 58.327 53.723V17.0828C58.327 15.475 57.7085 14.6079 56.3429 14.7317L16.0794 17.0828C14.5934 17.2077 14.0978 17.951 14.0978 19.5599H14.0979ZM52.1339 21.5387C52.381 22.6538 52.1339 23.768 51.0166 23.8934L49.1603 24.2633V51.4961C47.5485 52.3624 46.0621 52.8577 44.8236 52.8577C42.8406 52.8577 42.3439 52.2383 40.8586 50.3826L28.7155 31.3194V49.7635L32.5581 50.6306C32.5581 50.6306 32.5581 52.8577 29.4579 52.8577L20.9115 53.3535C20.6632 52.8577 20.9115 51.6209 21.7784 51.3731L24.0086 50.755V26.3683L20.9121 26.1201C20.6637 25.005 21.2823 23.397 23.018 23.2722L32.1863 22.6542L44.8236 41.9655V24.8822L41.6015 24.5124C41.3543 23.1491 42.3439 22.1592 43.583 22.0364L52.1339 21.5387ZM5.3002 2.97226L40.6107 0.371878C44.947 -1.64805e-05 46.0626 0.249124 48.788 2.22884L60.0596 10.1511C61.9194 11.5134 62.5393 11.8843 62.5393 13.3694V56.8196C62.5393 59.5428 61.5473 61.1532 58.0791 61.3996L17.0729 63.8759C14.4694 64 13.2304 63.629 11.8669 61.8949L3.56636 51.1254C2.07916 49.1429 1.46063 47.6598 1.46063 45.9247V7.30321C1.46063 5.07636 2.45293 3.21877 5.3002 2.97226V2.97226Z" fill="black"/>
</svg>
