<svg width="65" height="64" viewBox="0 0 65 64" fill="none" xmlns="http://www.w3.org/2000/svg">
<path d="M11.1303 34.187C10.9461 34.3023 10.7482 34.3733 10.5286 34.4046C10.3099 34.4369 10.0982 34.4304 9.87955 34.4304H5.42412C5.20549 34.4304 4.99374 34.4369 4.77511 34.4046C4.55647 34.3724 4.35852 34.3023 4.17337 34.187C3.81095 33.9501 3.59231 33.5656 3.59231 33.1553C3.59231 32.7386 3.81095 32.3541 4.17337 32.1236C4.35754 32.0083 4.55549 31.9383 4.77511 31.906C4.99374 31.8737 5.20549 31.8802 5.42412 31.8802H9.88053C10.0992 31.8802 10.3109 31.8737 10.5295 31.906C10.7482 31.9383 10.9461 32.0083 11.1313 32.1236C11.4937 32.3605 11.7123 32.745 11.7123 33.1553C11.7114 33.5721 11.4927 33.9565 11.1303 34.187ZM12.9207 30.1809C12.4421 29.8223 11.8955 29.5724 11.3017 29.4378C10.9599 29.3613 10.6182 29.329 10.2695 29.3161C10.0095 29.3096 9.75054 29.3096 9.49054 29.3096H5.81412C5.55412 29.3096 5.29511 29.3096 5.03511 29.3161C4.68647 29.329 4.34473 29.3613 4.00299 29.4378C3.40815 29.5724 2.86156 29.8223 2.38293 30.1809C1.41975 30.9056 0.859375 32.001 0.859375 33.1553C0.859375 34.3152 1.41975 35.405 2.38293 36.1288C2.86156 36.4874 3.40815 36.7382 4.00201 36.8719C4.34375 36.9484 4.68549 36.9807 5.03412 36.9936C5.29412 37.0001 5.55314 37.0001 5.81313 37.0001H9.48955C9.74955 37.0001 10.0095 37.0001 10.2686 36.9936C10.6172 36.9807 10.9589 36.9484 11.3007 36.8719C11.8955 36.7373 12.4421 36.4874 12.9198 36.1288C13.8839 35.4041 14.4433 34.3087 14.4443 33.1544C14.4453 31.9945 13.8849 30.9056 12.9207 30.1809Z" fill="black"/>
<path d="M59.2783 34.3291L58.1053 35.4548C58.9533 36.3556 60.1971 36.8065 61.5956 36.8065C63.4471 36.8065 64.8594 35.9453 64.8594 34.5402C64.8594 33.2282 63.8706 32.5127 62.3017 32.367L61.4252 32.2877C60.7043 32.2214 60.2385 31.9964 60.2385 31.599C60.2385 31.1749 60.7191 30.9361 61.5385 30.9361C62.4288 30.9361 63.0926 31.2809 63.5308 31.7843L64.69 30.6715C63.9691 29.8629 62.867 29.4784 61.6232 29.4784C59.687 29.4784 58.4579 30.3792 58.4579 31.705C58.4579 32.911 59.3905 33.7058 61.0579 33.8524L61.9482 33.9317C62.6691 33.9981 63.0502 34.2369 63.0502 34.6342C63.0502 35.1248 62.4564 35.3497 61.6941 35.3497C60.7191 35.3488 59.8721 34.9782 59.2783 34.3291ZM54.8691 36.6875H56.6921V29.5844H54.7992V33.6661C54.7992 34.5937 54.0931 35.2031 53.1742 35.2031C52.2701 35.2031 51.6625 34.5669 51.6625 33.6661V29.5844H49.7686V33.9446C49.7686 35.6807 51.1533 36.7936 52.736 36.7936C53.6263 36.7936 54.3895 36.4091 54.8701 35.9186L54.8691 36.6875ZM47.663 27.0001H45.7692V36.6875H47.663V27.0001ZM41.7707 36.6875H43.5937V29.5844H41.6998V33.6661C41.6998 34.5937 40.9937 35.2031 40.0748 35.2031C39.1707 35.2031 38.5631 34.5669 38.5631 33.6661V29.5844H36.6692V33.9446C36.6692 35.6807 38.0539 36.7936 39.6366 36.7936C40.5269 36.7936 41.2901 36.4091 41.7707 35.9186V36.6875ZM34.084 34.4876C33.7167 34.885 33.1799 35.1635 32.4728 35.1635C31.2152 35.1635 30.4096 34.3023 30.4096 33.1489C30.4096 31.9697 31.2152 31.1076 32.4728 31.1076C33.179 31.1076 33.7167 31.386 34.084 31.8101L35.384 30.5913C34.7055 29.9025 33.6881 29.4646 32.4876 29.4646C30.1988 29.4646 28.5167 31.0412 28.5167 33.1351C28.5167 35.2289 30.1978 36.8056 32.4876 36.8056C33.6743 36.8056 34.7064 36.3685 35.384 35.6927L34.084 34.4876ZM23.3443 35.1635C22.0867 35.1635 21.2673 34.3023 21.2673 33.1489C21.2673 31.9697 22.0867 31.1076 23.3443 31.1076C24.602 31.1076 25.4214 31.9687 25.4214 33.1489C25.4223 34.3023 24.602 35.1635 23.3443 35.1635ZM23.3443 36.8065C25.6331 36.8065 27.3152 35.2299 27.3152 33.136C27.3152 31.0421 25.6341 29.4655 23.3443 29.4655C21.0546 29.4655 19.3744 31.0421 19.3744 33.136C19.3744 35.2299 21.0555 36.8065 23.3443 36.8065Z" fill="black"/>
</svg>
