<svg width="64" height="64" viewBox="0 0 64 64" fill="none" xmlns="http://www.w3.org/2000/svg">
<path d="M6.48376 23.3416V21.0776C9.25694 21.0769 11.9163 19.975 13.8773 18.0141C15.8382 16.0531 16.9401 13.3937 16.9408 10.6205H19.0337C19.0321 11.995 19.3013 13.3562 19.8261 14.6265C20.3508 15.8968 21.1208 17.0513 22.0919 18.0238C23.0631 18.9964 24.2164 19.768 25.4859 20.2946C26.7555 20.8211 28.1163 21.0924 29.4908 21.0927V23.3567C26.7176 23.3573 24.0582 24.4593 22.0973 26.4202C20.1363 28.3811 19.0344 31.0405 19.0337 33.8137H16.9408C16.9425 32.4393 16.6732 31.078 16.1485 29.8077C15.6237 28.5374 14.8538 27.383 13.8826 26.4104C12.9115 25.4379 11.7581 24.6662 10.4886 24.1397C9.21906 23.6131 7.85818 23.3419 6.48376 23.3416V23.3416ZM16.9408 6.69381H34.9268C43.711 6.69381 49.9873 12.9675 49.9873 22.1718C49.9873 31.3761 43.7135 37.6474 34.9268 37.6474H16.9408V64H24.4698V44.3412H34.9268C47.5598 44.3412 57.5162 34.3847 57.5162 22.1718C57.5162 9.95896 47.5598 0 34.9268 0H16.9408V6.69381Z" fill="black"/>
</svg>
