<?xml version="1.0" encoding="utf-8"?>
<!-- Generator: Adobe Illustrator 22.0.1, SVG Export Plug-In . SVG Version: 6.00 Build 0)  -->
<svg version="1.1" id="lni_lni-paypal-original" xmlns="http://www.w3.org/2000/svg" xmlns:xlink="http://www.w3.org/1999/xlink"
	 x="0px" y="0px" viewBox="0 0 64 64" style="enable-background:new 0 0 64 64;" xml:space="preserve">
<g>
	<path d="M55.7,18.9c-0.1-0.1-0.1-0.1-0.1-0.1c-2.7,12.8-11.2,19.7-25,19.7H25l-3.2,20.7h-3l-0.4,2.2c-0.1,0.8,0.6,1.7,1.4,1.7h10
		c1.1,0,2.2-0.8,2.4-2l0.1-0.4l1.8-12l0.1-0.7c0.1-1.1,1.1-2,2.4-2h1.5c9.7,0,17.3-3.9,19.5-15.3C58.7,25.7,58.1,21.8,55.7,18.9z"/>
	<path d="M25,38.3L25,38.3L25,38.3L25,38.3z"/>
	<path d="M22.3,37.3l-0.1,0.6c0.1-1.4,1.4-2.4,2.7-2.4h5.6c11.1,0,19.7-4.5,22.4-17.6c0.1-0.4,0.1-0.7,0.1-1.1l0,0
		c0.7-4.8,0-8.2-2.7-11.1c-0.7-0.8-1.7-1.5-2.7-2.2c-1.4-0.8-2.8-1.4-4.5-1.7c-1.1-0.3-2.5-0.4-3.9-0.6C38,1.1,36.9,1,35.6,1H16.5
		c-1.4,0-2.5,1-2.7,2.2l-8,50.9c-0.1,1.1,0.6,2,1.7,2h11.8L22.3,37.3z"/>
</g>
</svg>
