<?xml version="1.0" encoding="utf-8"?>
<!-- Generator: Adobe Illustrator 22.0.0, SVG Export Plug-In . SVG Version: 6.00 Build 0)  -->
<svg version="1.1" id="lni_lni-paypal" xmlns="http://www.w3.org/2000/svg" xmlns:xlink="http://www.w3.org/1999/xlink" x="0px"
	 y="0px" viewBox="0 0 64 64" style="enable-background:new 0 0 64 64;" xml:space="preserve">
<path d="M51.9,11.9c-1-6.1-5.8-10.1-12.2-10.1H19.4c-1,0-1.9,0.7-2.2,1.7L5.6,50.8c-0.2,0.7,0,1.4,0.4,1.9c0.4,0.5,1.1,0.9,1.8,0.9
	h5.6L12,59.5c-0.2,0.7,0,1.4,0.4,1.9c0.4,0.5,1.1,0.9,1.8,0.9h14.4c1,0,2-0.7,2.2-1.7l4.3-18.6h4.5c4.1,0,8.2-1.6,11.6-4.5
	c3.4-2.8,5.8-6.7,6.8-10.8C59.5,20.3,57,14.4,51.9,11.9z M21.2,6.3h18.6c4.4,0,7.5,2.9,7.8,7.2c0.1,1.4,0,2.5-0.3,3.5c0,0,0,0,0,0
	c-0.7,3-2.6,6.1-5.3,8.3c-2.6,2.2-5.7,3.4-8.7,3.4h-6.2c-1,0-1.9,0.7-2.2,1.7l-4.5,18.6h-9.7L21.2,6.3z M53.7,25.7
	c-0.7,3.1-2.6,6.1-5.3,8.3c-2.6,2.2-5.7,3.4-8.7,3.4h-6.3c-1,0-2,0.7-2.2,1.7l-4.3,18.6H17l1-4.2h4.1c1,0,1.9-0.7,2.2-1.7l4.5-18.6
	h4.4c4.1,0,8.2-1.6,11.7-4.5c3.4-2.9,5.8-6.7,6.8-10.7c0.1-0.3,0.1-0.5,0.2-0.8C53.7,19.3,54.5,22.3,53.7,25.7z"/>
</svg>
