<?xml version="1.0" encoding="utf-8"?>
<!-- Generator: Adobe Illustrator 22.0.1, SVG Export Plug-In . SVG Version: 6.00 Build 0)  -->
<svg version="1.1" id="lni_lni-pinterest" xmlns="http://www.w3.org/2000/svg" xmlns:xlink="http://www.w3.org/1999/xlink" x="0px"
	 y="0px" viewBox="0 0 64 64" style="enable-background:new 0 0 64 64;" xml:space="preserve">
<path d="M1.8,32.1C2,41.4,6.3,50.7,13.6,56.3c2.3,1.7,4.8,2.7,7.4,3.8c-1.1-7.1,1.6-14.2,3.1-21.2c0.2-0.7,0.3-1.5,0.3-2.3
	c0-1.1-0.4-2.2-0.7-3.3c-0.3-1.8-0.1-3.7,0.7-5.4c1.1-2.3,3.7-4.1,6-3.2c2.1,0.8,2.9,3.6,2.5,5.8c-0.4,2.3-1.6,4.3-2.2,6.5
	c-0.7,2.2-0.6,4.9,1,6.4c1.5,1.4,3.9,1.5,5.8,0.7c2.8-1.2,4.6-4,5.7-6.8c2-5.2,1.6-11.8-2.5-15.6C39,20,36.6,18.9,34,18.5
	c-4.4-0.7-9.2,0.6-12.3,3.8s-4.5,8.1-3.2,12.3c0.4,1.4,1.2,2.8,1.5,4.2s0.2,3.2-0.8,4.2c-0.1,0.1-0.2,0.2-0.4,0.3
	c-0.2,0.1-0.5-0.1-0.7-0.2c-1.9-1.2-3.4-3.1-4.3-5.1c-2.8-6.1-1.4-13.7,3-18.7s11.5-7.4,18.1-6.5c6.2,0.8,12.3,4.5,14.9,10.2
	c1.6,3.4,1.9,7.3,1.3,11c-0.6,3.8-2.1,7.4-4.6,10.3s-6.1,4.9-9.9,5.1c-3.1,0.2-6.4-0.9-8-3.5c-1,5.4-2.9,10.7-5.7,15.4
	c-0.1,0.2,6.4,1.6,7,1.6c7.4,0.6,15.3-2.3,21.1-6.9C67,43.3,65.3,19,49.5,7c-8.2-6.3-17.9-7.5-27.5-4.1c-2.9,1-5.6,2.7-8.1,4.5
	c-4,3-7.2,6.9-9.3,11.4C2.5,22.9,1.7,27.5,1.8,32.1z"/>
</svg>
