<svg width="64" height="64" viewBox="0 0 64 64" fill="none" xmlns="http://www.w3.org/2000/svg">
<path fill-rule="evenodd" clip-rule="evenodd" d="M59.1394 30.2026C58.7939 29.7386 58.3496 29.3832 57.8856 29.1364C57.4216 28.8895 54.4007 27.1619 51.5773 25.5231C50.1655 24.7136 48.7933 23.9139 47.7764 23.3117C47.2631 23.0156 46.8485 22.7688 46.5523 22.6009L46.0883 22.3245L33.827 15.256L22.5134 8.72055C16.7677 5.41334 10.8641 1.99755 10.2125 1.6224H10.2027C9.71893 1.33611 9.13647 1.09917 8.56388 1.03007C8.28746 1.00045 8.00116 0.980705 7.705 1.03007H7.67538L7.64576 1.04981C7.62602 1.04981 7.60627 1.05968 7.5964 1.06955H7.53717C7.20151 1.11892 6.8856 1.24726 6.61905 1.47432C5.61208 2.04691 5 3.17234 5 4.37676V59.9575C5 60.8756 5.39489 61.853 6.16493 62.4552C6.55981 62.8797 7.14228 63.0673 7.705 62.9784H7.82346C8.45529 62.9784 9.10685 62.8303 9.66957 62.5045C10.2323 62.1788 16.2741 58.684 22.1678 55.2781L33.827 48.5353L45.8217 41.605C45.8217 41.605 45.881 41.5754 45.9106 41.5556L46.0685 41.4767H46.0982L46.1475 41.4372H46.2166L46.3351 41.3187H46.345C47.1446 40.8547 56.5331 35.4546 57.856 34.6944C58.8531 34.112 59.7317 33.1247 59.712 31.8512C59.7021 31.2194 59.4751 30.6567 59.1394 30.2026V30.2026ZM25.6725 14.5156L32.0993 18.2275L42.3763 24.1607L37.0354 29.472L16.8171 9.40173C19.6899 11.0603 22.928 12.9261 25.6725 14.5156ZM8.45529 5.94645L34.6069 31.9006L8.45529 57.8448V5.94645ZM32.0993 45.5638L25.791 49.2066C23.0465 50.7862 19.7886 52.6619 16.8368 54.3698L37.0354 34.2798L42.4158 39.6306L32.0993 45.5638V45.5638ZM46.187 37.4488C45.9106 37.6067 45.6737 37.745 45.496 37.8437L39.464 31.9006L45.4565 25.9476C46.2166 26.3919 47.737 27.2705 49.8496 28.4947C52.219 29.8669 54.6377 31.2589 55.7631 31.8907C54.0453 32.8779 48.5761 36.0667 46.187 37.4488Z" fill="black"/>
</svg>
