<svg width="64" height="64" viewBox="0 0 64 64" fill="none" xmlns="http://www.w3.org/2000/svg">
<path d="M10.2732 1L37.5939 28.3156L44.6439 21.2656C35.0104 15.4207 22.1078 7.57985 16.3051 4.05449L12.4175 1.69934C11.7304 1.28073 10.9946 1.05529 10.2732 1ZM6.10284 4.27047C6.04756 4.57061 6 4.87223 6 5.19607V59.1793C6 59.4057 6.04554 59.6165 6.07713 59.8324L33.871 32.0386L6.10284 4.27047ZM49.2771 24.0784L41.3169 32.0386L49.1383 39.8599C53.2823 37.3482 56.1525 35.6041 56.4711 35.4119C57.8797 34.5509 58.6751 33.252 58.6514 31.8329C58.6304 30.4401 57.8347 29.1949 56.4814 28.4287C56.1786 28.2549 53.3475 26.5453 49.2771 24.0784ZM37.5939 35.7616L10.3555 63C10.8847 62.9079 11.4132 62.75 11.9187 62.4446C12.6191 62.0181 31.5384 50.5396 44.5051 42.6727L37.5939 35.7616Z" fill="black"/>
</svg>
