<svg width="64" height="64" viewBox="0 0 64 64" fill="none" xmlns="http://www.w3.org/2000/svg">
<path d="M59.1494 30.009C58.7982 29.531 58.33 29.131 57.7935 28.8481C57.3447 28.6043 54.3793 26.9167 51.5698 25.2778C50.1749 24.4877 48.819 23.6975 47.8142 23.1025L47.1899 22.7416C46.9655 22.605 46.7607 22.4879 46.6046 22.4001L22.8514 8.67502C18.6276 6.24605 14.3159 3.75855 12.1211 2.49042L10.6969 1.66125L10.6091 1.62223C10.053 1.31008 9.45798 1.09547 8.92147 1.03694C8.62882 0.99792 8.30691 0.97841 7.97524 1.03694L7.8972 1.05645C7.8972 1.05645 7.85818 1.0662 7.84843 1.0662H7.81916C7.38995 1.13449 7.02902 1.30032 6.77539 1.51493C5.68284 2.149 5 3.36836 5 4.70478V59.6248C5 60.7174 5.47799 61.7514 6.24863 62.3464C6.63882 62.7659 7.19485 63 7.73137 63C7.83867 63 7.93622 62.9902 8.03377 62.9805H8.15083C8.88245 62.9805 9.57504 62.7951 10.1603 62.4537C10.7164 62.1318 16.6864 58.6786 22.51 55.3131L45.8145 41.8416C45.8827 41.8124 45.9413 41.7831 45.951 41.7636L46.0486 41.7246L46.2339 41.6856L46.4193 41.51C47.307 40.993 56.4766 35.7253 57.774 34.9742C59.0714 34.2231 59.803 33.0818 59.7835 31.8429C59.7737 31.1893 59.5591 30.5552 59.1494 30.009V30.009ZM45.434 37.3154L39.9323 31.9014L45.395 26.4777C45.9315 26.7898 46.7412 27.2581 47.7752 27.8531L49.4921 28.8481C51.5016 30.009 53.5403 31.1893 54.7792 31.8917C53.6769 32.5355 51.882 33.5793 50.1066 34.6133C48.4873 35.5497 46.8973 36.4765 45.873 37.0715L45.434 37.3154V37.3154ZM19.4372 11.4747C21.5345 12.6843 23.6904 13.9329 25.6023 15.0352L41.6979 24.3316L37.0155 28.9847L19.2909 11.3966L19.4372 11.4747ZM9.14583 56.6593V7.13375L34.0988 31.9014L9.14583 56.6593ZM25.7194 48.6798C23.7489 49.8211 21.5053 51.1088 19.3104 52.3769L37.0155 34.7693L41.7369 39.4614L25.7194 48.6798V48.6798Z" fill="black"/>
</svg>
