<svg width="64" height="64" viewBox="0 0 64 64" fill="none" xmlns="http://www.w3.org/2000/svg">
<path d="M57.3255 12.4422H57.3265C46.525 -1.54495 26.4295 -4.12727 12.4421 6.67394C-1.54509 17.4755 -4.12745 37.5705 6.67398 51.5574C17.4757 65.5446 37.5709 68.1269 51.5584 57.3257C51.5607 57.3237 51.5633 57.3218 51.5656 57.3198C65.5452 46.5163 68.1253 26.4265 57.3255 12.4422V12.4422ZM49.1362 20.4261L46.6378 17.968L46.0998 17.43L46.2498 17.28L50.0366 13.7038C50.7164 14.5258 51.0887 15.5606 51.0867 16.63C51.0841 17.8808 50.5854 19.0796 49.6996 19.9627C49.5231 20.1307 49.3352 20.2853 49.1362 20.4261V20.4261ZM15.0339 47.1615L15.4771 47.5766L17.7977 49.8971L12.6339 49.5611L15.0339 47.1615V47.1615ZM46.3668 11.9353V11.9343C47.4088 11.9409 48.4197 12.2873 49.2466 12.921L45.0869 17.1078L45.0859 17.1088C45.0611 17.1287 45.0389 17.1509 45.0189 17.1758C45.0153 17.1803 45.0118 17.1849 45.0085 17.1898C45.0016 17.1993 44.9951 17.2091 44.9889 17.2189C44.983 17.2287 44.9774 17.2385 44.9722 17.2487C44.9722 17.2487 44.9719 17.2487 44.9719 17.249C44.964 17.2643 44.9572 17.2797 44.9516 17.2957C44.9493 17.3016 44.9474 17.3075 44.9457 17.3134C44.9438 17.3193 44.9421 17.3251 44.9405 17.331C44.9405 17.331 44.9404 17.3312 44.9402 17.3317C44.8974 17.4905 44.9493 17.6667 45.0859 17.7758L48.2324 20.9223C46.4698 21.6903 44.4166 21.2981 43.0608 19.9349C41.729 18.5929 41.341 16.5819 42.0538 14.835C42.767 13.0881 44.4669 11.9451 46.3668 11.9353V11.9353ZM43.4599 22.3878C43.4478 22.7986 43.2628 23.1846 42.953 23.4546L30.4909 34.2996L30.4487 34.3365L29.9941 33.8819L29.7963 33.6842L29.6993 33.5871L29.4208 33.3086L29.3139 33.2018L29.1005 32.9883L40.9001 21.2949C41.105 21.0906 41.3547 20.9582 41.6175 20.8981C41.6999 20.8791 41.7835 20.867 41.8672 20.8625C42.0084 20.8543 42.1503 20.8661 42.2888 20.8978C42.4013 20.9236 42.5114 20.9625 42.6167 21.0148C42.6699 21.0409 42.7219 21.0707 42.7719 21.1037C42.8245 21.1383 42.8752 21.1762 42.9236 21.2181C42.952 21.2422 42.9798 21.2681 43.0069 21.2949C43.0491 21.3338 43.0883 21.3749 43.1246 21.4181C43.2282 21.5704 43.3171 21.7315 43.3906 21.8989C43.441 22.0551 43.4648 22.2208 43.4599 22.3878V22.3878ZM29.0658 34.3529C29.0714 34.3741 29.0789 34.3954 29.0874 34.4159L29.1959 34.5222L29.6633 34.9797L29.4898 35.001L26.9031 35.3183L27.2205 35.001L28.4733 33.7482L29.0658 34.3529V34.3529ZM41.644 19.9597C41.1279 20.0277 40.6298 20.2598 40.233 20.6559L28.4743 32.3628L26.1664 30.0553C32.2656 23.9841 35.9949 20.8151 38.3132 19.7757C39.3682 19.1106 40.705 19.2103 41.644 19.9597V19.9597ZM25.4876 30.7361L25.5363 30.7842L27.4392 32.687L22.4744 33.7492L25.4876 30.7361V30.7361ZM18.9808 46.2803C18.6615 46.4333 18.4942 46.7902 18.5808 47.1334L19.1135 49.4533C19.1537 49.5091 19.1537 49.5843 19.1135 49.6402C19.0531 49.6945 18.9612 49.6945 18.9008 49.6402L15.7549 46.4673L25.4487 36.628L30.469 35.8494L32.3133 37.6938C28.2331 41.085 23.756 43.9683 18.9808 46.2803V46.2803ZM33.1932 37.0009L31.2462 35.0546L43.4998 24.3102C42.6307 27.7675 38.0092 32.4494 33.1932 37.0009ZM50.0729 16.042V16.043C49.9686 15.8688 49.7509 15.8001 49.5656 15.8831C49.4767 15.9282 49.4094 16.0077 49.3797 16.1031C49.3499 16.1982 49.3594 16.3015 49.4058 16.3901C49.5928 16.7829 49.5408 17.248 49.2728 17.5899C49.2054 17.6565 49.1692 17.7484 49.1728 17.8428C49.1737 17.9366 49.2094 18.0268 49.2728 18.0958C49.3411 18.1229 49.4172 18.1229 49.4859 18.0958C49.6124 18.1278 49.746 18.0863 49.8327 17.9889C50.2808 17.4402 50.3742 16.6829 50.0729 16.042V16.042Z" fill="black"/>
</svg>
