<svg width="64" height="64" viewBox="0 0 64 64" fill="none" xmlns="http://www.w3.org/2000/svg">
<path d="M45.6747 0C43.188 0.0184972 40.7158 0.380132 38.328 1.07467L38.16 1.128C36.654 0.861834 35.1292 0.714712 33.6 0.688C30.4587 0.634667 27.76 1.39733 25.584 2.66667C23.44 1.92267 18.992 0.64 14.304 0.896C11.04 1.07467 7.47737 2.06667 4.83737 4.85333C2.20537 7.64 0.813372 11.952 1.10671 17.8187C1.18671 19.4373 1.64804 22.0773 2.41337 25.496C3.17871 28.9147 4.25337 32.9173 5.59471 36.568C6.93604 40.2213 8.40537 43.5013 10.7014 45.7307C11.848 46.848 13.4267 47.7867 15.288 47.7093C16.5947 47.656 17.776 47.0827 18.7947 46.2373C19.2907 46.8907 19.8214 47.176 20.304 47.44C20.912 47.7733 21.504 48 22.1174 48.1493C23.2187 48.424 25.104 48.792 27.312 48.416C28.064 48.2907 28.856 48.0453 29.6454 47.696C29.6747 48.576 29.7094 49.4373 29.744 50.3093C29.8534 53.072 29.9227 55.624 30.752 57.8613C30.8854 58.2267 31.2507 60.1093 32.6907 61.7707C34.1307 63.4347 36.952 64.472 40.1654 63.784C42.432 63.2987 45.3147 62.424 47.2294 59.6987C49.1227 57.0053 49.976 53.1413 50.144 46.8747C50.1867 46.536 50.2374 46.248 50.2907 45.9787L50.7414 46.0187H50.7947C53.2134 46.128 55.8374 45.784 58.0294 44.7653C59.9707 43.8667 61.44 42.9573 62.5094 41.344C62.776 40.944 63.0694 40.4613 63.1494 39.6293C63.2294 38.7973 62.752 37.496 61.96 36.896C60.3734 35.6907 59.376 36.1493 58.3067 36.3707C57.2533 36.6035 56.1799 36.7339 55.1014 36.76C58.184 31.568 60.3947 26.0533 61.656 21.1733C62.4027 18.2933 62.8214 15.6373 62.856 13.3147C62.8907 10.992 62.7014 8.936 61.3094 7.15733C56.96 1.6 50.8454 0.064 46.1147 0.0106667C45.968 0.008 45.8214 0.00533333 45.6747 0.008V0ZM45.5494 1.70667C50.024 1.664 55.7414 2.92 59.8454 8.16533C60.768 9.344 61.0427 11.0667 61.0107 13.1893C60.976 15.3093 60.584 17.848 59.8667 20.6293C58.4747 26.016 55.8454 32.296 52.1414 37.9307C52.2722 38.0236 52.4136 38.1006 52.5627 38.16C53.336 38.48 55.0987 38.7547 58.616 38.032C59.5014 37.8453 60.1494 37.72 60.8214 38.232C60.9847 38.3704 61.1137 38.5448 61.1984 38.7414C61.283 38.938 61.321 39.1516 61.3094 39.3653C61.2735 39.689 61.154 39.9978 60.9627 40.2613C60.2827 41.2827 58.9414 42.2507 57.2214 43.048C55.6987 43.7573 53.5147 44.128 51.5787 44.1493C50.608 44.16 49.712 44.0853 48.952 43.848L48.904 43.8293C48.6107 46.656 47.936 52.2373 47.496 54.784C47.144 56.8373 46.528 58.4693 45.352 59.6907C44.1787 60.912 42.5174 61.648 40.2827 62.128C37.5147 62.7227 35.496 62.0827 34.1947 60.9867C32.896 59.8933 32.3014 58.4427 31.944 57.5547C31.6987 56.9413 31.5707 56.1467 31.448 55.0853C31.3254 54.024 31.2347 52.7253 31.1734 51.2613C31.0917 49.0197 31.065 46.7763 31.0934 44.5333C29.9371 45.5924 28.5003 46.296 26.9547 46.56C25.1174 46.872 23.4774 46.5653 22.4987 46.32C22.0163 46.1988 21.5505 46.0188 21.112 45.784C20.6587 45.5413 20.2267 45.2667 19.9387 44.7253C19.7695 44.4153 19.7156 44.0553 19.7867 43.7093C19.8768 43.3586 20.0814 43.048 20.368 42.8267C20.896 42.3973 21.5947 42.1573 22.648 41.9387C24.5654 41.544 25.2347 41.2747 25.6427 40.952C25.9894 40.6747 26.3814 40.1147 27.0747 39.2933C27.0714 39.2569 27.0687 39.2205 27.0667 39.184C25.8259 39.1491 24.6107 38.822 23.52 38.2293C23.12 38.6507 21.0774 40.8107 18.5867 43.808C17.5387 45.0613 16.3814 45.7813 15.16 45.832C13.9387 45.8853 12.8347 45.2693 11.896 44.36C10.0214 42.5387 8.52537 39.4053 7.22137 35.864C5.92004 32.3227 4.86137 28.3787 4.10937 25.0187C3.35471 21.6587 2.90937 18.9493 2.84537 17.6427C2.56537 12.0907 3.86404 8.34933 6.09071 5.98933C8.32004 3.62933 11.376 2.736 14.3547 2.56533C19.7014 2.25867 24.7787 4.12267 25.8054 4.52267C27.784 3.17867 30.3334 2.34133 33.5174 2.39467C35.0289 2.41587 36.5331 2.61093 38 2.976L38.0534 2.952C38.6991 2.72503 39.357 2.53451 40.024 2.38133C41.8352 1.95881 43.687 1.73438 45.5467 1.712L45.5494 1.70667ZM45.9547 3.49333H45.5654C44.0376 3.51464 42.5156 3.68613 41.0214 4.00533C44.344 5.47733 46.8534 7.744 48.6214 10.0053C49.8495 11.571 50.8646 13.2927 51.64 15.1253C51.9334 15.8293 52.1307 16.424 52.2427 16.8853C52.2987 17.1173 52.336 17.312 52.3494 17.5147C52.3547 17.616 52.36 17.72 52.3174 17.8987C52.3174 17.9067 52.304 17.9253 52.3014 17.9333C52.3814 20.2693 51.8027 21.8533 51.7334 24.0827C51.68 25.6987 52.0934 27.5973 52.1947 29.6693C52.2907 31.616 52.056 33.7547 50.792 35.8533C50.8987 35.9813 50.9947 36.1093 51.096 36.2373C54.44 30.9707 56.8507 25.144 58.136 20.176C58.824 17.5013 59.1894 15.0773 59.2214 13.1573C59.248 11.2373 58.8907 9.84533 58.4347 9.264C54.856 4.688 50.0134 3.52267 45.9547 3.49067V3.49333ZM33.1814 4.176C30.0294 4.184 27.768 5.136 26.0534 6.56267C24.2854 8.03733 23.0987 10.056 22.32 12.1227C21.3947 14.576 21.0774 16.9493 20.952 18.56L20.9867 18.5387C21.9387 18.0053 23.1894 17.472 24.528 17.1627C25.8667 16.856 27.3094 16.76 28.616 17.2667C29.9227 17.7733 31.0027 18.9653 31.3947 20.7733C33.272 29.4587 30.8107 32.688 29.904 35.1253C29.5601 36.0088 29.2654 36.9106 29.0214 37.8267C29.136 37.8 29.2507 37.768 29.3654 37.7573C30.0054 37.704 30.5067 37.9173 30.8054 38.0453C31.7174 38.424 32.344 39.2187 32.6827 40.1253C32.7707 40.3627 32.8347 40.6187 32.872 40.8827C32.9114 40.9911 32.9296 41.1061 32.9254 41.2213C32.8243 44.5434 32.8358 47.868 32.96 51.1893C33.0214 52.624 33.112 53.888 33.2267 54.8853C33.3414 55.88 33.504 56.6373 33.608 56.8933C33.9494 57.7467 34.448 58.864 35.3494 59.624C36.2507 60.3813 37.544 60.888 39.9067 60.3813C41.9547 59.9413 43.2187 59.3307 44.064 58.4533C44.9067 57.576 45.4107 56.3547 45.7334 54.4853C46.216 51.6853 47.1867 43.5653 47.304 42.0373C47.2507 40.8853 47.4214 40 47.7894 39.3253C48.168 38.632 48.7547 38.208 49.2614 37.9787C49.5147 37.864 49.752 37.7867 49.9467 37.7307C49.7406 37.4345 49.5245 37.1454 49.2987 36.864C48.5682 35.9781 47.97 34.9909 47.5227 33.9333C47.3085 33.4966 47.0799 33.067 46.8374 32.6453C46.4827 32.0053 46.0347 31.2053 45.5654 30.3067C44.6267 28.5067 43.6054 26.3253 43.0747 24.2C42.5467 22.0773 42.4694 19.88 43.824 18.3307C45.024 16.9547 47.1307 16.384 50.2934 16.704C50.2 16.424 50.144 16.192 49.9867 15.8187C49.2717 14.1357 48.3384 12.5541 47.2107 11.1147C44.5307 7.688 40.192 4.29067 33.488 4.18133H33.1814V4.176ZM15.4694 4.31467C15.1307 4.31467 14.792 4.32533 14.456 4.344C11.7627 4.49867 9.21604 5.28 7.39471 7.21067C5.5707 9.14133 4.37071 12.3067 4.63204 17.5467C4.68271 18.5387 5.11471 21.3173 5.85604 24.6187C6.59471 27.92 7.64271 31.8053 8.90137 35.2373C10.1627 38.6693 11.6907 41.656 13.1414 43.0693C13.872 43.776 14.5067 44.0613 15.0827 44.0373C15.6614 44.0107 16.3574 43.6773 17.208 42.656C18.759 40.7852 20.3687 38.9638 22.0347 37.1947C20.8526 36.1683 19.9479 34.8608 19.404 33.3928C18.8602 31.9248 18.6946 30.3435 18.9227 28.7947C19.1974 26.824 19.2347 24.9813 19.2027 23.5253C19.1707 22.1067 19.0694 21.1627 19.0694 20.5733C19.0689 20.5564 19.0689 20.5396 19.0694 20.5227V20.5093L19.0667 20.4933V20.4907C19.0651 17.4208 19.5994 14.3742 20.6454 11.488C21.392 9.504 22.504 7.488 24.1707 5.856C22.5334 5.31733 19.6267 4.496 16.48 4.34133C16.1425 4.324 15.8047 4.31511 15.4667 4.31467H15.4694ZM48.5307 18.4C46.72 18.424 45.704 18.8907 45.1707 19.5013C44.416 20.368 44.344 21.888 44.8134 23.76C45.28 25.6347 46.2454 27.7307 47.152 29.472C47.6054 30.344 48.0454 31.128 48.4 31.7653C48.7574 32.4053 49.0187 32.8587 49.1787 33.2453C49.3254 33.6027 49.488 33.9173 49.6534 34.2107C50.3547 32.7307 50.48 31.2773 50.408 29.7627C50.3147 27.888 49.88 25.9707 49.944 24.0293C50.016 21.76 50.464 20.2827 50.504 18.528C49.8497 18.4432 49.1905 18.4005 48.5307 18.4V18.4ZM26.5734 18.7067C26.0202 18.7118 25.4693 18.778 24.9307 18.904C23.8572 19.1648 22.8232 19.5675 21.856 20.1013C21.5289 20.2768 21.2175 20.4802 20.9254 20.7093L20.8667 20.7627C20.8827 21.152 20.96 22.096 20.992 23.4853C21.024 25.0053 20.9867 26.944 20.6934 29.0427C20.056 33.6027 23.3654 37.3787 27.2534 37.384C27.48 36.448 27.8534 35.4987 28.2267 34.4987C29.3094 31.5813 31.44 29.4533 29.6454 21.1493C29.352 19.7893 28.7707 19.24 27.9707 18.9307C27.5223 18.7721 27.0489 18.6962 26.5734 18.7067V18.7067ZM47.6854 19.2507H47.8187C47.9947 19.256 48.1574 19.2747 48.2987 19.3093C48.4427 19.3413 48.5654 19.3893 48.6667 19.456C48.7187 19.4882 48.7634 19.5309 48.7978 19.5815C48.8323 19.632 48.8557 19.6892 48.8667 19.7493L48.864 19.7707H48.8667H48.864C48.8692 19.8973 48.8368 20.0225 48.7707 20.1307C48.6921 20.277 48.5933 20.4117 48.4774 20.5307C48.2069 20.8286 47.8446 21.0275 47.448 21.096C47.0622 21.1426 46.6727 21.0448 46.3547 20.8213C46.2245 20.7338 46.1078 20.6278 46.008 20.5067C45.9218 20.4115 45.8636 20.2943 45.84 20.168C45.8345 20.1065 45.8415 20.0445 45.8608 19.9858C45.8801 19.9271 45.9111 19.8729 45.952 19.8267C46.0395 19.7272 46.1455 19.6457 46.264 19.5867C46.52 19.4427 46.8667 19.336 47.2587 19.2773C47.4054 19.256 47.5494 19.2453 47.6854 19.2427V19.2507ZM26.832 19.6987C26.9734 19.6987 27.1227 19.712 27.2747 19.7333C27.6827 19.7893 28.0454 19.8987 28.3227 20.0587C28.458 20.1293 28.5784 20.2252 28.6774 20.3413C28.7313 20.4029 28.7719 20.475 28.7967 20.553C28.8215 20.631 28.8299 20.7133 28.8214 20.7947C28.7957 20.948 28.7263 21.0906 28.6214 21.2053C28.5123 21.3393 28.3837 21.4561 28.24 21.552C27.8932 21.7977 27.4672 21.9051 27.0454 21.8533C26.6143 21.7825 26.2197 21.5683 25.9254 21.2453C25.8002 21.1153 25.6942 20.968 25.6107 20.808C25.5228 20.6672 25.4843 20.5011 25.5014 20.336C25.5414 20.048 25.7787 19.8987 26.0107 19.816C26.275 19.7316 26.5523 19.6954 26.8294 19.7093L26.832 19.6987ZM50.992 39.28L50.984 39.2827C50.592 39.424 50.2694 39.4827 49.9974 39.6027C49.7223 39.7086 49.4956 39.9116 49.36 40.1733C49.192 40.48 49.048 41.024 49.0907 41.9493C49.2114 42.0324 49.3446 42.0954 49.4854 42.136C49.9414 42.2747 50.7067 42.3653 51.56 42.352C53.2614 42.3333 55.3547 41.936 56.4667 41.4187C57.3789 40.9949 58.2258 40.4426 58.9814 39.7787H58.9787C55.264 40.5467 53.1654 40.3413 51.8774 39.8107C51.5575 39.6776 51.2592 39.4979 50.992 39.2773V39.28ZM29.576 39.5307H29.52C29.3787 39.544 29.1734 39.592 28.776 40.032C27.848 41.072 27.5227 41.7253 26.7574 42.336C25.992 42.944 24.9974 43.2693 23.0107 43.6773C22.3814 43.8053 22.0214 43.9467 21.7814 44.0613C21.8587 44.1253 21.8507 44.1413 21.968 44.2027C22.2587 44.3627 22.632 44.504 22.9334 44.5813C23.7867 44.7947 25.1894 45.0427 26.6534 44.7947C28.1174 44.544 29.64 43.8427 30.9387 42.0213C31.1627 41.7067 31.1867 41.2427 31.0027 40.744C30.816 40.2453 30.408 39.816 30.12 39.696C29.9487 39.6133 29.7649 39.5593 29.576 39.536V39.5307Z" fill="black"/>
</svg>
