<?xml version="1.0" encoding="utf-8"?>
<!-- Generator: Adobe Illustrator 22.0.0, SVG Export Plug-In . SVG Version: 6.00 Build 0)  -->
<svg version="1.1" id="lni_lni-quora" xmlns="http://www.w3.org/2000/svg" xmlns:xlink="http://www.w3.org/1999/xlink" x="0px"
	 y="0px" viewBox="0 0 64 64" style="enable-background:new 0 0 64 64;" xml:space="preserve">
<g>
	<g>
		<path d="M51.1,62.3c-4,0-7.2-1.4-9.7-4.2c-3,1-6.2,1.6-9.5,1.6c-15.9,0-28.9-13-28.9-29C3.1,14.7,16,1.8,32,1.8
			c16,0,29,13,29,28.9c0,8.6-2.6,15.1-8.2,20.1c1,0.6,2.3,1.3,3.4,1.7c0.8,0.3,1.4,1.2,1.4,2.1v5.1c0,1.2-0.9,2.2-2.1,2.2
			C54.9,62,52,62.3,51.1,62.3z M42.1,53.1c0.7,0,1.4,0.3,1.8,0.9c1.3,1.8,3.2,3.7,7.2,3.7c0.3,0,1,0,1.9-0.1v-1.6
			c-1.8-0.8-4.3-2.3-5.4-4c-0.2-0.3-0.3-0.6-0.4-0.9c-0.2-1.3,0.7-2.1,1.9-3.2c0,0,0,0,0,0c5-4.3,7.3-9.6,7.3-17.3
			c0-13.5-11-24.4-24.5-24.4C18.5,6.3,7.6,17.2,7.6,30.7c0,13.5,10.9,24.5,24.4,24.5c3.3,0,6.4-0.6,9.3-1.8
			C41.6,53.2,41.9,53.1,42.1,53.1z"/>
	</g>
	<g>
		<path d="M32.3,52.1c-7.5,0-13.6-6.1-13.6-13.6V22.8c0-7.5,6.1-13.6,13.6-13.6c3.6,0,7.1,1.5,9.6,4c2.5,2.5,3.9,5.9,3.9,9.6
			c-0.1,17.9-0.3,18.7-0.4,19c-0.2,0.8-0.7,1.4-1.4,1.6c-0.7,0.3-1.5,0.1-2.2-0.3c-0.9-0.7-4.1-1.6-7.3-2.3v1.6
			c1.7,0.9,4.6,2.5,6,3.7c0.5,0.5,0.8,1.1,0.7,1.8c0,0.7-0.4,1.3-0.9,1.7C38,51.2,35.1,52.1,32.3,52.1z M32.3,13.7
			c-5,0-9.1,4.1-9.1,9.1v15.7c0,5,4.1,9.1,9.1,9.1c0.8,0,1.5-0.1,2.2-0.3c-1.1-0.6-2.3-1.3-3.2-1.7c-0.8-0.4-1.3-1.2-1.3-2V38
			c0-0.7,0.3-1.3,0.8-1.7c0.5-0.4,1.2-0.6,1.8-0.5c1.5,0.3,5.3,1,8.4,2c0.1-3.9,0.1-10.5,0.2-15.1c0-2.4-0.9-4.7-2.7-6.4
			C37,14.6,34.7,13.7,32.3,13.7z"/>
	</g>
</g>
</svg>
