<svg width="64" height="64" viewBox="0 0 64 64" fill="none" xmlns="http://www.w3.org/2000/svg">
<path d="M32 1C14.8804 1 1 14.8804 1 32C1 49.1196 14.8804 63 32 63C49.1196 63 63 49.1196 63 32C63 14.8804 49.1196 1 32 1ZM54.7882 17.2782L54.3516 16.6265C54.4971 16.8416 54.6427 17.0567 54.7882 17.2782ZM53.1053 14.9627L52.8396 14.6337C52.9345 14.7412 53.0231 14.8551 53.1053 14.9627ZM49.3537 11.1478L49.0247 10.882C49.1449 10.9769 49.2461 11.0655 49.3537 11.1478ZM47.3798 9.64837L46.7282 9.21184C46.9433 9.35735 47.1584 9.50286 47.3798 9.64837ZM35.0178 5.04265L34.3661 4.97939C34.5812 4.99837 34.7963 5.01735 35.0178 5.04265ZM29.6276 4.97306L28.9759 5.03633C29.191 5.01735 29.4061 4.99837 29.6276 4.97306ZM17.2782 9.21184L16.6265 9.64837C16.8416 9.50286 17.0567 9.35735 17.2782 9.21184ZM14.9627 10.8947L14.6463 11.1478C14.7539 11.0655 14.8551 10.9769 14.9627 10.8947ZM11.1478 14.6463L10.882 14.9753C10.9769 14.8678 11.0655 14.7602 11.1478 14.6463ZM9.64837 16.6202L9.21184 17.2718C9.35735 17.0567 9.50286 16.8416 9.64837 16.6202ZM5.04265 28.9822L4.97939 29.6339C4.99837 29.4188 5.01735 29.2037 5.04265 28.9822ZM4.97306 34.3725L5.03633 35.0241C5.01735 34.809 4.99837 34.5939 4.97306 34.3725ZM9.21184 46.7155L9.64837 47.3671C9.50286 47.1647 9.35735 46.9433 9.21184 46.7155ZM9.71796 47.4747L14.5514 44.2418L14.02 43.432L9.18653 46.6649C6.99122 43.2612 5.5551 39.3514 5.06796 35.138L7.95918 34.8469L7.86429 33.879L4.97306 34.17C4.92245 33.6133 4.90347 33.0439 4.89082 32.4745H10.7049V31.5065H4.88449C4.89714 30.9371 4.92245 30.3804 4.96673 29.811L7.85796 30.0894L7.95286 29.1214L5.06163 28.8431C5.54878 24.6296 6.99755 20.7198 9.19286 17.3161L14.0263 20.549L14.5578 19.7392L9.71163 16.5316C10.0406 16.0698 10.3633 15.6143 10.7176 15.1778L12.9571 17.0188L13.5771 16.2659L11.3376 14.4249C11.6982 13.9884 12.0904 13.5771 12.4763 13.1659L16.5822 17.2718L17.2718 16.5822L13.1659 12.4763C13.5771 12.0904 13.9884 11.6982 14.4122 11.3376L16.2533 13.5898L17.0061 12.9698L15.1651 10.7302C15.6143 10.3759 16.0635 10.0406 16.519 9.71163L19.7518 14.5451L20.5616 14.0137L17.3288 9.1802C20.7325 6.9849 24.6422 5.54878 28.8557 5.06163L29.1467 7.95286L30.1147 7.85796L29.8237 4.96673C30.3804 4.91612 30.9498 4.89714 31.5192 4.88449V10.6986H32.4871V4.87816C33.0565 4.89082 33.6133 4.91612 34.1827 4.96041L33.9043 7.85163L34.8722 7.94653L35.1506 5.05531C39.3641 5.54245 43.2739 6.99122 46.6776 9.18653L43.451 14.02L44.2608 14.5514L47.4937 9.71796C47.9555 10.0469 48.411 10.3696 48.8476 10.7239L47.0065 12.9635L47.7594 13.5835L49.6004 11.3439C50.0369 11.7045 50.4482 12.0967 50.8594 12.4827L49.3094 13.9947L28.1155 28.1282L13.982 49.322L12.47 50.8341C12.0841 50.4229 11.6982 50.0116 11.3312 49.5878L13.5708 47.7467L12.9571 46.9939L10.7176 48.8349C10.3696 48.3984 10.0406 47.9365 9.71796 47.4747ZM11.1478 49.3537C11.0655 49.2461 10.9769 49.1512 10.8947 49.0373L11.1478 49.3537ZM14.6463 52.8522L14.9627 53.1053C14.8551 53.0231 14.7539 52.9345 14.6463 52.8522ZM16.6202 54.3453L17.2718 54.7818C17.0567 54.6427 16.8416 54.4971 16.6202 54.3453ZM28.9822 58.9573L29.6339 59.0206C29.4188 59.0016 29.2037 58.9827 28.9822 58.9573ZM34.3725 59.0269L35.0178 58.9637C34.7963 58.9827 34.5939 59.0016 34.3725 59.0269ZM46.7282 54.7882L47.3798 54.3516C47.1584 54.4971 46.9433 54.6427 46.7282 54.7882ZM49.0373 53.1053L49.3663 52.8396C49.2525 52.9345 49.1449 53.0231 49.0373 53.1053ZM51.1567 51.2073L51.2073 51.1567C51.1947 51.1694 51.1694 51.1947 51.1567 51.2073ZM52.8522 49.3537L53.118 49.0247C53.0231 49.1322 52.9345 49.2461 52.8522 49.3537ZM53.2761 48.8349L51.0365 46.9939L50.4165 47.7467L52.6561 49.5878C52.2955 50.0243 51.9033 50.4355 51.5173 50.8467L47.4114 46.7408L46.7218 47.4304L50.8278 51.5363C50.4165 51.9222 50.0053 52.3145 49.5814 52.6751L47.7404 50.4229L46.9876 51.0429L48.8286 53.2825C48.3794 53.6304 47.9302 53.972 47.4747 54.301L44.2418 49.4612L43.432 49.9927L46.6649 54.8261C43.2612 57.0214 39.3514 58.4576 35.138 58.9447L34.8469 56.0535L33.879 56.1484L34.17 59.0396C33.6133 59.0902 33.0439 59.1092 32.4745 59.1218V53.3078H31.5065V59.1218C30.9371 59.1092 30.3804 59.0839 29.811 59.0396L30.0894 56.1484L29.1214 56.0535L28.8431 58.9447C24.6296 58.4576 20.7198 57.0088 17.3161 54.8135L20.549 49.98L19.7392 49.4486L16.5316 54.282C16.0698 53.9531 15.6143 53.6304 15.1778 53.2761L17.0188 51.0365L16.2659 50.4165L14.4249 52.6561C13.9884 52.2955 13.5771 51.9033 13.1659 51.5173L14.6906 50.0053L35.8845 35.8718L50.018 14.678L51.53 13.1659C51.9159 13.5771 52.3082 13.9884 52.6688 14.4122L50.4292 16.2533L51.0492 17.0061L53.2888 15.1651C53.6367 15.6143 53.9784 16.0635 54.3073 16.519L49.4612 19.7518L49.9927 20.5616L54.8261 17.3288C57.0214 20.7325 58.4576 24.6422 58.9447 28.8557L56.0535 29.1467L56.1484 30.1147L59.0396 29.8237C59.0902 30.3804 59.1092 30.9498 59.1218 31.5192H53.3078V32.4871H59.1218C59.1092 33.0565 59.0839 33.6133 59.0396 34.1827L56.1484 33.9043L56.0535 34.8722L58.9447 35.1506C58.4576 39.3641 57.0088 43.2739 54.8135 46.6776L49.98 43.451L49.4486 44.2608L54.282 47.4937C53.9657 47.9302 53.6241 48.3794 53.2761 48.8349ZM59.0269 34.3598C59.0016 34.5749 58.989 34.7963 58.9637 35.0114L59.0269 34.3598ZM54.7882 46.7282C54.6427 46.9433 54.4971 47.1647 54.3516 47.3798L54.7882 46.7282Z" fill="black"/>
<path d="M27.1834 5.30469L28.3158 11.0049L27.3668 11.1947L26.2344 5.49448L27.1834 5.30469Z" fill="black"/>
<path d="M36.82 58.6986L35.6875 52.9984L36.6365 52.8086L37.7689 58.5088L36.82 58.6986Z" fill="black"/>
<path d="M24.5902 5.89648L25.4316 8.68016L24.5016 8.95853L23.6602 6.17485L24.5902 5.89648Z" fill="black"/>
<path d="M39.4117 58.0894L38.5703 55.3057L39.5003 55.0273L40.3417 57.811L39.4117 58.0894Z" fill="black"/>
<path d="M22.0717 6.75781L24.2987 12.129L23.4066 12.5023L21.1797 7.13108L22.0717 6.75781Z" fill="black"/>
<path d="M41.9379 57.2425L39.7109 51.8713L40.603 51.498L42.8299 56.8693L41.9379 57.2425Z" fill="black"/>
<path d="M18.7773 8.30903L19.6314 7.85352L21.0043 10.4158L20.1502 10.8713L18.7773 8.30903Z" fill="black"/>
<path d="M45.2035 55.6912L44.3494 56.1467L42.9766 53.5844L43.8306 53.1289L45.2035 55.6912Z" fill="black"/>
<path d="M8.29926 18.7891L10.8615 20.1619L10.406 21.016L7.84375 19.6431L8.29926 18.7891Z" fill="black"/>
<path d="M55.6872 45.2094L53.125 43.8365L53.5805 42.9824L56.1428 44.3553L55.6872 45.2094Z" fill="black"/>
<path d="M12.129 24.2889L6.75781 22.062L7.13108 21.1699L12.5023 23.3969L12.129 24.2889Z" fill="black"/>
<path d="M51.8811 39.707L57.2523 41.934L56.879 42.826L51.5078 40.6054L51.8811 39.707Z" fill="black"/>
<path d="M6.18071 23.668L8.96438 24.5094L8.68602 25.4394L5.90234 24.598L6.18071 23.668Z" fill="black"/>
<path d="M57.8149 40.33L55.0312 39.4886L55.3096 38.5586L58.0933 39.4L57.8149 40.33Z" fill="black"/>
<path d="M5.48667 26.2363L11.1869 27.3688L10.9971 28.3178L5.29688 27.1853L5.48667 26.2363Z" fill="black"/>
<path d="M58.501 37.7689L52.8008 36.6365L52.9906 35.6875L58.6908 36.82L58.501 37.7689Z" fill="black"/>
<path d="M5.29688 36.8141L10.9971 35.6816L11.1869 36.6306L5.48667 37.7631L5.29688 36.8141Z" fill="black"/>
<path d="M58.6908 27.1853L52.9906 28.3178L52.8008 27.3688L58.501 26.2363L58.6908 27.1853Z" fill="black"/>
<path d="M5.90234 39.4137L8.68602 38.5723L8.96438 39.5023L6.18071 40.3437L5.90234 39.4137Z" fill="black"/>
<path d="M58.0972 24.598L55.3135 25.4394L55.0352 24.5094L57.8188 23.668L58.0972 24.598Z" fill="black"/>
<path d="M7.12717 42.8319L6.75391 41.9398L12.1251 39.7129L12.4984 40.6049L7.12717 42.8319Z" fill="black"/>
<path d="M56.8712 21.1758L57.2445 22.0678L51.8733 24.2948L51.5 23.4027L56.8712 21.1758Z" fill="black"/>
<path d="M8.31489 45.2152L7.85938 44.3611L10.4216 42.9883L10.8771 43.8424L8.31489 45.2152Z" fill="black"/>
<path d="M55.699 18.7891L56.1545 19.6431L53.5922 21.016L53.1367 20.1619L55.699 18.7891Z" fill="black"/>
<path d="M19.6392 56.1467L18.7852 55.6912L20.158 53.1289L21.0121 53.5844L19.6392 56.1467Z" fill="black"/>
<path d="M44.3572 7.84766L45.2113 8.30317L43.8385 10.8654L42.9844 10.4099L44.3572 7.84766Z" fill="black"/>
<path d="M21.1758 56.8693L23.4027 51.498L24.2948 51.8713L22.0742 57.2425L21.1758 56.8693Z" fill="black"/>
<path d="M42.8299 7.12178L40.603 12.4867L39.7109 12.1134L41.9379 6.74219L42.8299 7.12178Z" fill="black"/>
<path d="M24.5902 58.0972L23.6602 57.8188L24.5016 55.0352L25.4316 55.3135L24.5902 58.0972Z" fill="black"/>
<path d="M39.4078 5.89648L40.3378 6.17485L39.4964 8.95853L38.5664 8.68016L39.4078 5.89648Z" fill="black"/>
<path d="M27.1834 58.6927L26.2344 58.5029L27.3668 52.8027L28.3158 52.9925L27.1834 58.6927Z" fill="black"/>
<path d="M36.8121 5.29492L37.7611 5.48472L36.6287 11.1849L35.6797 10.9951L36.8121 5.29492Z" fill="black"/>
</svg>
