<svg width="64" height="64" viewBox="0 0 64 64" fill="none" xmlns="http://www.w3.org/2000/svg">
<path fill-rule="evenodd" clip-rule="evenodd" d="M40.401 7.99573C41.5957 7.59467 42.3978 7.59467 42.3978 7.59467L40.0085 64L4.00635 57.1989C4.00635 57.1989 8.80208 20.8043 8.80208 19.6011C8.80208 18.0053 8.80208 18.0053 10.7989 17.2032C10.973 17.2032 11.4481 17.0519 12.192 16.8151C13.1611 16.5065 14.5864 16.0527 16.3967 15.5989C17.5999 10.4021 21.6021 0 29.9989 0C31.2021 0 32.3968 0.392533 33.1989 1.9968H33.6C37.201 1.9968 39.1978 4.79573 40.401 7.99573ZM29.0646 11.6338C30.467 11.2066 31.9173 10.7648 33.1989 9.99253C33.1989 7.59468 32.7978 5.99042 32.3968 4.38616L32.3967 4.38613C30.3999 5.18827 28.0021 7.58613 26.7989 12.3904C27.5141 12.1061 28.2819 11.8722 29.0646 11.6338ZM30.801 2.79893C30.3999 2.39787 29.9989 2.39787 29.5978 2.39787C23.9914 2.39787 20.3989 9.99253 19.1957 14.8053C19.9978 14.6048 20.7978 14.304 21.5978 14.0032C22.3978 13.7024 23.1978 13.4016 24 13.2011C25.2032 6.80107 28.4031 4.00213 30.801 2.79893ZM26.3978 28.7915C28.7957 28.7915 31.1936 29.9947 31.1936 29.9947L32.7893 22.8011C32.7893 22.8011 31.1936 21.9989 27.9935 21.9989C19.1957 21.9989 15.1935 27.5968 15.1935 33.5957C15.1935 37.6317 17.4606 39.4033 19.4509 40.9586C21.008 42.1754 22.3957 43.2598 22.3957 45.1925C22.3957 45.9861 21.9946 47.5904 19.9978 47.5904C17.1989 47.5904 13.9989 44.7915 13.9989 44.7915L12.3946 50.3893C12.3946 50.3893 15.5946 54.3915 21.9946 54.3915C27.1914 54.3915 31.1936 50.3893 31.1936 44.3904C31.1936 39.4929 27.8929 37.1438 25.3349 35.3233C23.7167 34.1716 22.3957 33.2314 22.3957 31.9915C22.3957 31.1893 22.3957 28.7915 26.3978 28.7915ZM34.3936 4.38613C34.7946 5.58933 35.1957 7.1936 35.1957 9.1904V9.59147C35.7973 9.59147 36.2965 9.4912 36.7957 9.39093C37.2949 9.29067 37.7941 9.1904 38.3957 9.1904C37.5935 6.784 36.3904 4.38613 34.3936 4.38613ZM52.3904 11.9893C52.7914 11.9893 53.1925 11.9893 53.1925 12.3904C53.1925 12.592 54.9111 24.5198 56.6205 36.3834C58.3116 48.1202 59.9936 59.7941 59.9936 59.9893L40.7936 63.9915L43.1914 7.99573H43.5925C43.9936 8.39679 47.1936 11.5883 47.1936 11.5883C47.1936 11.5883 51.9893 11.9893 52.3904 11.9893Z" fill="black"/>
</svg>
