<svg width="65" height="64" viewBox="0 0 65 64" fill="none" xmlns="http://www.w3.org/2000/svg">
<path d="M26.1394 4.81591L26.7694 7.36216C24.2911 7.97165 21.9192 8.95254 19.7344 10.2715L18.3869 8.02279C20.7946 6.56912 23.4083 5.48793 26.1394 4.81591V4.81591ZM39.5794 4.81591L38.9494 7.36216C41.4277 7.97165 43.7995 8.95254 45.9844 10.2715L47.3406 8.02279C44.9302 6.56831 42.3135 5.4871 39.5794 4.81591V4.81591ZM8.88436 17.5253C7.43069 19.933 6.34951 22.5467 5.67748 25.2778L8.22374 25.9078C8.83322 23.4295 9.81411 21.0577 11.1331 18.8728L8.88436 17.5253ZM7.48436 31.9978C7.48351 30.7252 7.57858 29.4543 7.76874 28.1959L5.17436 27.8022C4.75438 30.5835 4.75438 33.4121 5.17436 36.1934L7.76874 35.7997C7.57858 34.5413 7.48351 33.2704 7.48436 31.9978V31.9978ZM47.3319 55.9728L45.9844 53.7241C43.8022 55.0423 41.4334 56.0231 38.9581 56.6334L39.5881 59.1797C42.3162 58.5068 44.9269 57.4257 47.3319 55.9728V55.9728ZM58.2344 31.9978C58.2352 33.2704 58.1402 34.5413 57.95 35.7997L60.5444 36.1934C60.9644 33.4121 60.9644 30.5835 60.5444 27.8022L57.95 28.1959C58.1402 29.4543 58.2352 30.7252 58.2344 31.9978V31.9978ZM60.0413 38.7178L57.495 38.0878C56.8855 40.5661 55.9046 42.9379 54.5856 45.1228L56.8344 46.4791C58.2889 44.0686 59.3701 41.4519 60.0413 38.7178V38.7178ZM36.6613 57.0928C34.1409 57.472 31.5779 57.472 29.0575 57.0928L28.6637 59.6872C31.4451 60.1072 34.2737 60.1072 37.055 59.6872L36.6613 57.0928ZM53.2863 47.0522C51.7728 49.1019 49.9603 50.9129 47.9094 52.4247L49.4669 54.5378C51.7294 52.8743 53.7292 50.8804 55.3994 48.6228L53.2863 47.0522ZM47.9094 11.5709C49.9607 13.084 51.7732 14.8965 53.2863 16.9478L55.3994 15.3728C53.7345 13.1165 51.7407 11.1227 49.4844 9.45779L47.9094 11.5709ZM12.4325 16.9478C13.9456 14.8965 15.7581 13.084 17.8094 11.5709L16.2344 9.45779C13.9781 11.1227 11.9842 13.1165 10.3194 15.3728L12.4325 16.9478ZM56.8344 17.5253L54.5856 18.8728C55.9038 21.055 56.8847 23.4238 57.495 25.8991L60.0413 25.269C59.3684 22.541 58.2873 19.9303 56.8344 17.5253V17.5253ZM29.0575 6.90716C31.5779 6.52797 34.1409 6.52797 36.6613 6.90716L37.055 4.31279C34.2737 3.89281 31.4451 3.89281 28.6637 4.31279L29.0575 6.90716ZM13.78 55.2334L8.35936 56.4978L9.62374 51.0772L7.06874 50.4778L5.80436 55.8984C5.70252 56.3333 5.71333 56.787 5.83577 57.2166C5.95821 57.6461 6.18823 58.0373 6.50406 58.3531C6.81989 58.6689 7.21109 58.899 7.64063 59.0214C8.07017 59.1438 8.52385 59.1547 8.95874 59.0528L14.375 57.8103L13.78 55.2334ZM7.61561 48.1372L10.1706 48.7322L11.0456 44.9741C9.77023 42.8305 8.81929 40.5099 8.22374 38.0878L5.67748 38.7178C6.24829 41.0377 7.11586 43.2742 8.25874 45.3722L7.61561 48.1372ZM19.8656 53.8247L16.1075 54.6997L16.7025 57.2547L19.4675 56.6116C21.5654 57.7544 23.802 58.622 26.1219 59.1928L26.7519 56.6466C24.3348 56.0439 22.0202 55.0871 19.8831 53.8072L19.8656 53.8247ZM32.8594 9.24779C28.7946 9.24989 24.8046 10.341 21.3043 12.4077C17.8041 14.4744 14.9216 17.4411 12.9564 20.9993C10.9913 24.5575 10.0154 28.5773 10.1302 32.6405C10.2451 36.7037 11.4464 40.6619 13.6094 44.1034L11.4219 53.4353L20.7537 51.2478C23.7384 53.1277 27.1193 54.2877 30.6293 54.6364C34.1394 54.9851 37.6824 54.5128 40.9785 53.2568C44.2747 52.0009 47.2336 49.9957 49.6216 47.3996C52.0096 44.8036 53.7613 41.6879 54.7382 38.2985C55.7151 34.9092 55.8905 31.3391 55.2506 27.8703C54.6106 24.4015 53.1728 21.1291 51.0508 18.3115C48.9288 15.4939 46.1807 13.2083 43.0235 11.6352C39.8664 10.0622 36.3867 9.24489 32.8594 9.24779V9.24779Z" fill="black"/>
</svg>
