<?xml version="1.0" encoding="utf-8"?>
<!-- Generator: Adobe Illustrator 22.0.0, SVG Export Plug-In . SVG Version: 6.00 Build 0)  -->
<svg version="1.1" id="lni_lni-slack-line" xmlns="http://www.w3.org/2000/svg" xmlns:xlink="http://www.w3.org/1999/xlink" x="0px"
	 y="0px" viewBox="0 0 64 64" style="enable-background:new 0 0 64 64;" xml:space="preserve">
<g>
	<g>
		<path d="M25.3,15.5H21c-3.3,0-6.1-2.2-6.8-5.2l0,0c-0.5-2.3,0.2-4.7,1.8-6.4c1.7-1.7,4-2.3,6.3-1.8c3,0.7,5.2,3.6,5.2,6.9v4.3
			C27.5,14.4,26.5,15.5,25.3,15.5z M18.6,9.2c0.2,1,1.3,1.7,2.5,1.7h2V8.9c0-1.2-0.7-2.3-1.7-2.5c-0.8-0.2-1.6,0-2.1,0.6
			C18.6,7.6,18.4,8.4,18.6,9.2L18.6,9.2z"/>
	</g>
	<g>
		<path d="M21.6,33.3H11.1c-4.7,0-8.5-3.8-8.5-8.5s3.8-8.5,8.5-8.5h10.4c4.7,0,8.5,3.8,8.5,8.5S26.2,33.3,21.6,33.3z M11.1,20.8
			c-2.2,0-4,1.8-4,4c0,2.2,1.8,4,4,4h10.4c2.2,0,4-1.8,4-4c0-2.2-1.8-4-4-4H11.1z"/>
	</g>
	<g>
		<path d="M39,29.4c-4.6,0-8.4-3.8-8.4-8.6V10.3c0-4.7,3.8-8.6,8.4-8.6s8.4,3.8,8.4,8.6v10.5C47.4,25.6,43.7,29.4,39,29.4z M39,6.3
			c-2.2,0-3.9,1.8-3.9,4.1v10.5c0,2.2,1.8,4.1,3.9,4.1c2.2,0,3.9-1.8,3.9-4.1V10.3C42.9,8.1,41.2,6.3,39,6.3z"/>
	</g>
	<g>
		<path d="M52.1,46.8H44c-4.6,0-8.4-3.7-8.4-8.3s3.8-8.3,8.4-8.3h8.1c4.6,0,8.4,3.7,8.4,8.3S56.7,46.8,52.1,46.8z M44,34.7
			c-2.1,0-3.9,1.7-3.9,3.8s1.7,3.8,3.9,3.8h8.1c2.1,0,3.9-1.7,3.9-3.8s-1.7-3.8-3.9-3.8H44z"/>
	</g>
	<g>
		<path d="M26.5,60.8c-4.4,0-8-3.7-8-8.3v-8.3c0-4.6,3.6-8.3,8-8.3c4.4,0,8,3.7,8,8.3v8.3C34.5,57.1,30.9,60.8,26.5,60.8z
			 M26.5,40.5c-1.9,0-3.5,1.7-3.5,3.8v8.3c0,2.1,1.6,3.8,3.5,3.8c1.9,0,3.5-1.7,3.5-3.8v-8.3C30,42.2,28.5,40.5,26.5,40.5z"/>
	</g>
	<g>
		<path d="M54.6,28.1h-4.1c-1.2,0-2.3-1-2.3-2.3v-4.1c0-3.2,2.1-6,5-6.7c0,0,0,0,0,0c2.2-0.5,4.5,0.1,6.1,1.7
			c1.6,1.6,2.3,3.9,1.8,6.2C60.5,26,57.7,28.1,54.6,28.1z M52.8,23.6h1.8c1.1,0,2-0.7,2.2-1.6c0.2-0.8,0-1.5-0.6-2
			c-0.5-0.5-1.2-0.7-1.9-0.5c-0.9,0.2-1.5,1.2-1.5,2.3V23.6z"/>
	</g>
	<g>
		<path d="M9.7,48.4c-1.7,0-3.4-0.7-4.6-1.9c-1.6-1.6-2.3-3.9-1.8-6.2c0.7-2.9,3.4-5.1,6.6-5.1H14c1.2,0,2.3,1,2.3,2.3v4.1
			c0,3.2-2.1,6-5,6.7C10.7,48.3,10.2,48.4,9.7,48.4z M9.9,39.7c-1.1,0-2,0.7-2.2,1.6c-0.2,0.8,0,1.5,0.6,2c0.5,0.5,1.2,0.7,1.9,0.5
			h0c0.9-0.2,1.5-1.2,1.5-2.3v-1.8H9.9z"/>
	</g>
	<g>
		<path d="M43.3,62.2c-0.5,0-1-0.1-1.5-0.2c-2.9-0.7-5-3.5-5-6.7v-4.1c0-1.2,1-2.3,2.3-2.3h4.1c3.2,0,5.9,2.1,6.6,5.1l0,0
			c0.5,2.3-0.1,4.6-1.8,6.2C46.7,61.6,45,62.2,43.3,62.2z M41.3,53.6v1.8c0,1.1,0.7,2.1,1.5,2.3c0.7,0.2,1.4,0,1.9-0.5
			c0.5-0.5,0.7-1.3,0.6-2l0,0c-0.2-0.9-1.2-1.6-2.2-1.6H41.3z"/>
	</g>
</g>
</svg>
