<?xml version="1.0" encoding="utf-8"?>
<!-- Generator: Adobe Illustrator 22.0.1, SVG Export Plug-In . SVG Version: 6.00 Build 0)  -->
<svg version="1.1" id="lni_lni-snapchat" xmlns="http://www.w3.org/2000/svg" xmlns:xlink="http://www.w3.org/1999/xlink" x="0px"
	 y="0px" viewBox="0 0 64 64" style="enable-background:new 0 0 64 64;" xml:space="preserve">
<path d="M32.5,4.2c2.4,0,10.4,0.7,14.2,9.1c1.3,2.8,0.8,7.9,0.7,11.9c-0.1,0.7-0.1,1.3-0.1,2v0.3l0.1,0.1c0.1,0.1,0.7,0.8,2.1,0.8
	l0,0l0,0c1-0.1,2-0.3,3.2-0.8c0.1-0.1,0.4-0.1,0.7-0.1s0.6,0.1,0.8,0.1l0,0c0.6,0.1,1.1,0.6,1.1,1c0,0.1-0.1,1-2.4,1.8
	c-0.1,0.1-0.4,0.1-0.8,0.3c-1.4,0.4-3.5,1.1-4.2,2.8c-0.4,1-0.3,2.1,0.3,3.2c0.3,0.6,4.3,9.7,13.3,11.1c0,0.1,0,0.1-0.1,0.1
	c-0.1,0.4-1.1,1.7-7.2,2.5c-1,0.1-1.1,1.3-1.4,2.5c-0.1,0.4-0.1,0.8-0.3,1.4c-0.1,0.1-0.1,0.1-0.1,0.1h-0.1l0,0
	c-0.3,0-0.7-0.1-1.1-0.1c-0.8-0.1-2-0.4-3.5-0.4c-0.8,0-1.7,0.1-2.7,0.1c-1.8,0.3-3.4,1.4-4.9,2.5c-2.1,1.5-4.3,3.1-7.7,3.1
	c-0.1,0-0.3,0-0.4,0h-0.1h-0.1c-0.1,0-0.1,0-0.3,0c-3.4,0-5.6-1.5-7.7-3.1c-1.7-1.1-3.1-2.2-4.9-2.5C17.9,54,17.1,54,16.1,54
	c-1.5,0-2.7,0.3-3.5,0.4c-0.4,0.1-0.8,0.1-1.1,0.1c-0.1,0-0.1,0-0.3-0.1c-0.1-0.4-0.3-0.8-0.3-1.4c-0.3-1.3-0.4-2.4-1.4-2.5
	c-6-0.8-7-2.2-7.2-2.5c0-0.1-0.1-0.1-0.1-0.1c9.1-1.5,13.2-10.5,13.3-11.1c0.7-1.3,0.7-2.4,0.3-3.2c-0.7-1.7-2.9-2.4-4.2-2.8
	c-0.3-0.1-0.6-0.1-0.8-0.3c-1.8-0.7-2.4-1.4-2.4-2c0.1-0.4,1-1.1,1.7-1.1c0.1,0,0.3,0,0.4,0.1c1.3,0.6,2.4,0.8,3.4,0.8
	c1.5,0,2.4-0.7,2.4-0.8l0.1-0.1v-0.3c0-0.6-0.1-1.3-0.1-2C16,21.1,15.7,16,17,13.2c3.8-8.6,11.6-9.1,14.2-9.1
	C31.5,4.1,32.5,4.1,32.5,4.2L32.5,4.2 M32.5,3L32.5,3L32.5,3L32.5,3c-0.1,0-1.1,0-1.1,0c-2.5,0-11.2,0.7-15.3,9.8
	c-1.4,3.1-1.1,8.3-0.8,12.5c0,0.4,0.1,1.1,0.1,1.5c-0.1,0.1-0.6,0.3-1.1,0.3c-0.8,0-1.7-0.3-2.9-0.8c-0.3-0.1-0.6-0.1-1-0.1
	c-1.3,0-2.8,0.8-2.9,2.1c-0.1,0.8,0.3,2.2,3.1,3.2c0.3,0.1,0.6,0.1,0.8,0.3c1.1,0.4,2.9,0.8,3.5,2.1c0.3,0.6,0.1,1.4-0.3,2.4v0.1
	c-0.1,0.4-3.9,9-12.3,10.4c-0.7,0.1-1.1,0.7-1.1,1.4c0,0.1,0.1,0.4,0.1,0.6c0.7,1.5,3.2,2.5,8.1,3.2c0.1,0.1,0.3,1,0.4,1.4
	c0.1,0.4,0.1,1,0.3,1.4c0.1,0.4,0.4,1.1,1.5,1.1c0.4,0,0.8-0.1,1.4-0.1c0.8-0.1,2-0.4,3.2-0.4c0.8,0,1.5,0.1,2.4,0.1
	c1.5,0.3,2.9,1.1,4.5,2.4c2.2,1.5,4.8,3.2,8.6,3.2c0.1,0,0.1,0,0.3,0s0.3,0,0.4,0c3.8,0,6.3-1.7,8.6-3.2c1.5-1.1,2.9-2,4.5-2.4
	c0.8-0.1,1.7-0.1,2.4-0.1c1.3,0,2.4,0.1,3.2,0.3c0.6,0.1,1.1,0.1,1.4,0.1h0.1h0.1c0.7,0,1.3-0.4,1.4-1.1c0.1-0.4,0.3-1,0.3-1.4
	c0.1-0.4,0.3-1.3,0.4-1.4c4.8-0.8,7.6-1.8,8.1-3.2c0.1-0.1,0.1-0.4,0.1-0.6c0.1-0.7-0.4-1.3-1.1-1.4c-8.4-1.4-12.2-10.1-12.3-10.4
	l0,0c-0.4-0.8-0.4-1.7-0.3-2.4c0.4-1.1,2.4-1.7,3.5-2.1c0.3-0.1,0.7-0.1,0.8-0.3c2.1-0.8,3.1-1.8,3.1-2.9c0-0.8-0.7-1.7-2-2.1l0,0
	c-0.4-0.1-0.8-0.3-1.3-0.3c-0.3,0-0.8,0.1-1.1,0.3c-1,0.4-2,0.7-2.7,0.8c-0.4,0-0.8-0.1-1.1-0.3c0-0.4,0.1-0.8,0.1-1.3v-0.1
	c0.3-4.2,0.6-9.4-0.8-12.5C43.7,3.7,35,3,32.5,3L32.5,3z"/>
</svg>
