<?xml version="1.0" encoding="utf-8"?>
<!-- Generator: Adobe Illustrator 22.0.0, SVG Export Plug-In . SVG Version: 6.00 Build 0)  -->
<svg version="1.1" id="lni_lni-soundcloud" xmlns="http://www.w3.org/2000/svg" xmlns:xlink="http://www.w3.org/1999/xlink" x="0px"
	 y="0px" viewBox="0 0 64 64" style="enable-background:new 0 0 64 64;" xml:space="preserve">
<g>
	<g>
		<path d="M48.3,48.8h-9c-1.6,0-2.9-1.3-2.9-2.9V18.1c0-1.6,1.3-2.9,2.8-2.9h0.6c1.2,0,2.7,0.2,4.2,0.7l0.1,0c2.8,1,5.2,2.8,6.8,5.2
			c3,0.6,5.7,2,7.5,4.2c2.4,2.5,3.7,5.9,3.7,9.5C62.3,42.5,56,48.8,48.3,48.8z M40.9,44.3h7.4c5.3,0,9.5-4.2,9.5-9.4
			c0-2.5-0.9-4.7-2.5-6.4l-0.1-0.1c-1.4-1.6-3.5-2.6-5.8-2.9l-1.1-0.1l-0.6-1c-1.1-1.9-2.9-3.4-5-4.2c-0.7-0.2-1.3-0.3-1.8-0.4V44.3
			z"/>
	</g>
	<g>
		<path d="M26.5,47.4c-1.2,0-2.3-1-2.3-2.3V18.8c0-1.2,1-2.3,2.3-2.3s2.3,1,2.3,2.3v26.3C28.7,46.4,27.7,47.4,26.5,47.4z"/>
	</g>
	<g>
		<path d="M14.8,45.8c-1.2,0-2.3-1-2.3-2.3V20.5c0-1.2,1-2.3,2.3-2.3s2.3,1,2.3,2.3v23.1C17.1,44.8,16.1,45.8,14.8,45.8z"/>
	</g>
	<g>
		<path d="M4,42.4c-1.2,0-2.3-1-2.3-2.3V23.8c0-1.2,1-2.3,2.3-2.3s2.3,1,2.3,2.3v16.3C6.3,41.4,5.2,42.4,4,42.4z"/>
	</g>
</g>
</svg>
