<svg width="64" height="64" viewBox="0 0 64 64" fill="none" xmlns="http://www.w3.org/2000/svg">
<path d="M1.70216 30.1039C1.57279 30.1039 1.47011 30.204 1.45338 30.3466L1 33.7905L1.45338 37.1751C1.47011 37.3177 1.57273 37.4171 1.70216 37.4171C1.82746 37.4171 1.92951 37.3184 1.94949 37.1764L2.48689 33.7905L1.94949 30.346C1.93014 30.2039 1.82683 30.1039 1.70216 30.1039ZM4.25187 28.2223C4.23051 28.0743 4.12451 27.9723 3.99383 27.9723C3.86245 27.9723 3.75376 28.0777 3.73578 28.2223L3.12634 33.7905L3.73578 39.2354C3.75313 39.3814 3.86183 39.4868 3.99383 39.4868C4.12382 39.4868 4.22989 39.3841 4.25119 39.2368L4.94457 33.7905L4.25187 28.2223ZM13.8561 23.0862C13.6061 23.0862 13.3993 23.2908 13.3873 23.5509L12.9019 33.7952L13.3873 40.4156C13.4 40.6742 13.6061 40.8783 13.8561 40.8783C14.1048 40.8783 14.3108 40.6736 14.3255 40.4143V40.4163L14.8742 33.7952L14.3255 23.5509C14.3108 23.2908 14.1047 23.0862 13.8561 23.0862ZM8.88527 26.6467C8.69325 26.6467 8.53657 26.8001 8.52115 27.0047L7.97443 33.7925L8.52115 40.3595C8.53581 40.5629 8.69319 40.7162 8.88527 40.7162C9.07528 40.7162 9.23196 40.5629 9.24869 40.3595L9.87009 33.7925L9.24869 27.0034C9.23196 26.8001 9.07528 26.6467 8.88527 26.6467ZM18.9076 40.8777C19.2176 40.8777 19.4697 40.6276 19.4823 40.3075L19.9584 33.7985L19.483 20.1596C19.4703 19.8396 19.2183 19.5895 18.9083 19.5895C18.5955 19.5895 18.3429 19.8402 18.3328 20.1603L17.9107 33.7978L18.3328 40.3095C18.3428 40.6269 18.5955 40.8777 18.9076 40.8777ZM29.2492 40.9084C29.676 40.9084 30.0281 40.557 30.036 40.1249L30.3681 33.8025L30.036 18.0506C30.0286 17.6192 29.6759 17.2672 29.2492 17.2672C28.8218 17.2672 28.4691 17.6186 28.4624 18.0513L28.1657 33.7972C28.1657 33.8072 28.4624 40.1288 28.4624 40.1288C28.4691 40.5569 28.8225 40.9084 29.2492 40.9084ZM24.039 40.8837C24.4105 40.8837 24.7098 40.5856 24.7198 40.2056V40.2102L25.1238 33.7999L24.7191 20.0623C24.7091 19.6822 24.4098 19.3849 24.0383 19.3849C23.6643 19.3849 23.3649 19.6823 23.3569 20.0623L22.9976 33.8006L23.3576 40.2096C23.3656 40.5856 23.665 40.8837 24.039 40.8837ZM11.361 40.8237C11.5817 40.8237 11.7604 40.6469 11.7771 40.4143L12.3625 33.7925L11.7771 27.4935C11.7611 27.2608 11.5825 27.0854 11.361 27.0854C11.137 27.0854 10.9583 27.2621 10.9443 27.4962L10.4289 33.7925L10.9443 40.4136C10.959 40.6469 11.137 40.8237 11.361 40.8237ZM6.42959 40.4609C6.5909 40.4609 6.72159 40.3336 6.74026 40.1575L7.39769 33.7912L6.74088 27.1848C6.72153 27.0081 6.59084 26.8807 6.42952 26.8807C6.26614 26.8807 6.13545 27.0088 6.11879 27.1848L5.54005 33.7912L6.11879 40.1562C6.13483 40.3329 6.26551 40.4609 6.42959 40.4609ZM26.6342 19.8336C26.2308 19.8336 25.9073 20.1544 25.8994 20.5651L25.5713 33.8012L25.8994 40.1702C25.9074 40.5756 26.2301 40.8963 26.6342 40.8963C27.0369 40.8963 27.3583 40.5763 27.3676 40.1655V40.1709L27.7356 33.8019L27.3676 20.5637C27.3582 20.1544 27.0368 19.8336 26.6342 19.8336ZM16.3725 40.891C16.6512 40.891 16.8812 40.6636 16.8946 40.3735L17.4067 33.7971L16.8946 21.2098C16.8805 20.919 16.6512 20.6924 16.3725 20.6924C16.0911 20.6924 15.8618 20.9197 15.8497 21.2098L15.3963 33.7971L15.8504 40.3762C15.8617 40.6636 16.091 40.891 16.3725 40.891ZM22.0907 40.2668L22.5308 33.7992L22.0907 19.7009C22.08 19.3509 21.804 19.0762 21.4633 19.0762C21.1205 19.0762 20.8445 19.3502 20.8352 19.7009L20.4445 33.7985L20.8358 40.2695C20.8452 40.6162 21.1213 40.8903 21.4633 40.8903C21.8047 40.8903 22.0793 40.6155 22.0907 40.2668ZM55.3747 25.6725C54.3298 25.6725 53.333 25.8839 52.4249 26.2646C51.8181 19.3916 46.0545 14 39.0241 14C37.3038 14 35.6269 14.3387 34.146 14.9115C33.5706 15.1342 33.4172 15.3635 33.4119 15.8083V40.0121C33.4179 40.4788 33.7799 40.8676 34.2354 40.9136C34.2547 40.9156 55.238 40.9263 55.3741 40.9263C59.5854 40.9263 63 37.5117 63 33.2997C62.9999 29.0877 59.5861 25.6725 55.3747 25.6725ZM31.8529 15.787C31.3949 15.787 31.0188 16.1631 31.0121 16.6251L30.6681 33.8045L31.0128 40.0395C31.0188 40.4949 31.3949 40.8703 31.8529 40.8703C32.3096 40.8703 32.6857 40.4949 32.6924 40.0329V40.0402L33.0664 33.8045L32.6924 16.6238C32.6857 16.1631 32.3096 15.787 31.8529 15.787ZM7.15837 45.7744C6.25624 45.5624 6.01216 45.449 6.01216 45.0916C6.01216 44.8397 6.21552 44.5789 6.82496 44.5789C7.34569 44.5789 7.75246 44.7902 8.11789 45.1643L8.9387 44.3682C8.402 43.8075 7.75184 43.474 6.86637 43.474C5.74353 43.474 4.83337 44.1082 4.83337 45.141C4.83337 46.2625 5.56554 46.5959 6.61371 46.8393C7.68649 47.0826 7.88189 47.246 7.88189 47.612C7.88189 48.0428 7.56383 48.2301 6.89036 48.2301C6.34564 48.2301 5.83355 48.0434 5.43486 47.5787L4.61392 48.3109C5.04462 48.945 5.87477 49.3431 6.82489 49.3431C8.37851 49.3431 9.06124 48.6116 9.06124 47.5308C9.06131 46.2945 8.06113 45.9858 7.15837 45.7744ZM12.3951 43.474C10.8429 43.474 9.92472 44.677 9.92472 46.4086C9.92472 48.1402 10.8428 49.3424 12.3951 49.3424C13.9474 49.3424 14.8668 48.1402 14.8668 46.4086C14.8668 44.677 13.9474 43.474 12.3951 43.474ZM12.3951 48.2135C11.477 48.2135 11.0942 47.4247 11.0942 46.4092C11.0942 45.393 11.477 44.6042 12.3951 44.6042C13.3146 44.6042 13.696 45.393 13.696 46.4092C13.696 47.4247 13.3146 48.2135 12.3951 48.2135ZM19.4603 46.7586C19.4603 47.6687 19.0123 48.2301 18.2895 48.2301C17.566 48.2301 17.1272 47.6527 17.1272 46.7426V43.5628H15.9884V46.7586C15.9884 48.4162 16.9159 49.3431 18.2894 49.3431C19.7364 49.3431 20.5985 48.3916 20.5985 46.7427V43.5628H19.4603V46.7586ZM25.5079 45.9698C25.5079 46.2872 25.5239 47.002 25.5239 47.2134C25.4506 47.0667 25.2639 46.7826 25.1258 46.5706L23.1089 43.5621H22.02V49.2538H23.1422V46.7493C23.1422 46.432 23.1262 45.7171 23.1262 45.5057C23.1989 45.6518 23.3869 45.9365 23.5242 46.1486L25.6139 49.2537H26.63V43.5621H25.5079L25.5079 45.9698ZM29.8733 43.5628H28.093V49.2543H29.7912C31.2548 49.2543 32.7024 48.4082 32.7024 46.4086C32.7024 44.3269 31.4989 43.5628 29.8733 43.5628ZM29.7912 48.1488H29.2312V44.6689H29.8327C31.0362 44.6689 31.5323 45.2457 31.5323 46.4086C31.5322 47.4494 30.9868 48.1488 29.7912 48.1488ZM36.2223 44.6036C36.7344 44.6036 37.0597 44.8316 37.2631 45.2217L38.3199 44.7343C37.9619 43.9948 37.3111 43.474 36.2382 43.474C34.752 43.474 33.7105 44.677 33.7105 46.4086C33.7105 48.2049 34.7099 49.3424 36.1975 49.3424C37.2303 49.3424 37.9131 48.863 38.3032 48.0581L37.3444 47.4887C37.0436 47.9935 36.7422 48.2129 36.2302 48.2129C35.3767 48.2129 34.8807 47.432 34.8807 46.4086C34.8801 45.3524 35.3695 44.6036 36.2223 44.6036ZM40.4436 43.5628H39.3054V49.2543H42.726V48.1315H40.4436V43.5628ZM45.7245 43.474C44.1709 43.474 43.2528 44.677 43.2528 46.4086C43.2528 48.1402 44.1709 49.3424 45.7245 49.3424C47.2767 49.3424 48.1955 48.1402 48.1955 46.4086C48.1956 44.677 47.2767 43.474 45.7245 43.474ZM45.7245 48.2135C44.805 48.2135 44.4236 47.4247 44.4236 46.4092C44.4236 45.393 44.805 44.6042 45.7245 44.6042C46.642 44.6042 47.024 45.393 47.024 46.4092C47.024 47.4247 46.642 48.2135 45.7245 48.2135ZM52.7883 46.7586C52.7883 47.6687 52.3422 48.2301 51.6188 48.2301C50.894 48.2301 50.4559 47.6527 50.4559 46.7426V43.5628H49.3178V46.7586C49.3178 48.4162 50.2446 49.3431 51.6188 49.3431C53.0657 49.3431 53.9272 48.3916 53.9272 46.7427V43.5628H52.7883V46.7586ZM57.1297 43.5628H55.35V49.2543H57.0483C58.5125 49.2543 59.9588 48.4082 59.9588 46.4086C59.9588 44.3269 58.7559 43.5628 57.1297 43.5628ZM57.0483 48.1488H56.4875V44.6689H57.0897C58.2918 44.6689 58.7879 45.2457 58.7879 46.4086C58.7879 47.4494 58.2431 48.1488 57.0483 48.1488Z" fill="black"/>
</svg>
