<?xml version="1.0" encoding="utf-8"?>
<!-- Generator: Adobe Illustrator 22.0.1, SVG Export Plug-In . SVG Version: 6.00 Build 0)  -->
<svg version="1.1" id="lni_lni-spotify-original" xmlns="http://www.w3.org/2000/svg" xmlns:xlink="http://www.w3.org/1999/xlink"
	 x="0px" y="0px" viewBox="0 0 64 64" style="enable-background:new 0 0 64 64;" xml:space="preserve">
<g>
	<g>
		<path d="M32,1C14.8,1,1,14.8,1,32s13.8,31,31,31s31-13.8,31-31S49.2,1,32,1z M46.2,45.7c-0.6,0.8-1.7,1.1-2.7,0.7
			c-7.3-4.5-16.5-5.5-27.2-3.1c-1.1,0.3-2.1-0.4-2.3-1.4c-0.3-1.1,0.4-2.1,1.4-2.4c11.8-2.7,21.8-1.5,30.2,3.5
			C46.5,43.7,46.8,44.8,46.2,45.7z M50,37.4c-0.7,1.1-2.3,1.4-3.2,0.7c-8.3-5.1-21-6.6-30.9-3.5c-1.3,0.4-2.7-0.3-3-1.7
			c-0.4-1.3,0.3-2.7,1.7-3c11.3-3.5,25.2-1.7,34.8,4.1C50.3,34.7,50.7,36.1,50,37.4z M50.3,28.5c-10-5.9-26.5-6.5-36.1-3.5
			c-1.4,0.4-3.1-0.4-3.5-2c-0.4-1.4,0.4-3.1,2-3.5c11-3.2,29-2.7,40.6,4.2c1.4,0.8,1.8,2.7,1.1,3.9C53.6,28.9,51.7,29.3,50.3,28.5z"
			/>
	</g>
</g>
</svg>
