<?xml version="1.0" encoding="utf-8"?>
<!-- Generator: Adobe Illustrator 22.0.0, SVG Export Plug-In . SVG Version: 6.00 Build 0)  -->
<svg version="1.1" id="lni_lni-spotify" xmlns="http://www.w3.org/2000/svg" xmlns:xlink="http://www.w3.org/1999/xlink" x="0px"
	 y="0px" viewBox="0 0 64 64" style="enable-background:new 0 0 64 64;" xml:space="preserve">
<g>
	<g>
		<path d="M42.2,48.7c-0.3,0-0.7-0.1-1-0.2c-6.5-3.2-14-3.9-20.9-2.1c-1.2,0.3-2.4-0.4-2.7-1.6c-0.3-1.2,0.4-2.4,1.6-2.8
			c8-2.1,16.5-1.3,24,2.4c1.1,0.5,1.6,1.9,1,3C43.8,48.2,43,48.7,42.2,48.7z"/>
	</g>
	<g>
		<path d="M45.3,38c-0.3,0-0.6-0.1-0.9-0.2c-5.2-2.4-10.9-3.7-16.4-3.7c-3.3,0-6.1,0.3-8.8,1.1c-1.2,0.3-2.4-0.4-2.8-1.6
			c-0.3-1.2,0.4-2.4,1.6-2.8c3.1-0.8,6.3-1.2,9.9-1.2c6.2,0,12.5,1.4,18.3,4.1c1.1,0.5,1.6,1.9,1.1,3C46.9,37.5,46.1,38,45.3,38z"/>
	</g>
	<g>
		<path d="M48.5,26.8c-0.3,0-0.6-0.1-1-0.2c-6.1-2.9-12.7-4.3-19.7-4.3c-3.1,0-6.5,0.4-10,1.1c-1.2,0.3-2.4-0.5-2.7-1.7
			C15,20.4,15.8,19.2,17,19c3.8-0.8,7.5-1.2,10.9-1.2c7.6,0,14.8,1.6,21.6,4.7c1.1,0.5,1.6,1.9,1.1,3C50.2,26.3,49.4,26.8,48.5,26.8
			z"/>
	</g>
	<g>
		<path d="M32,62.3C15.3,62.3,1.8,48.7,1.8,32C1.8,15.3,15.3,1.8,32,1.8c16.7,0,30.3,13.6,30.3,30.2C62.3,48.7,48.7,62.3,32,62.3z
			 M32,6.3C17.8,6.3,6.3,17.8,6.3,32c0,14.2,11.5,25.8,25.7,25.8c14.2,0,25.8-11.6,25.8-25.8C57.8,17.8,46.2,6.3,32,6.3z"/>
	</g>
</g>
</svg>
