<svg width="64" height="65" viewBox="0 0 64 65" fill="none" xmlns="http://www.w3.org/2000/svg">
<path fill-rule="evenodd" clip-rule="evenodd" d="M63 32.9305C63 28.5216 60.8644 25.0427 56.7827 25.0427C52.6839 25.0427 50.2039 28.5216 50.2039 32.8961C50.2039 38.0799 53.1316 40.6977 57.3339 40.6977C59.3833 40.6977 60.9333 40.2327 62.1044 39.5783V36.1338C60.9333 36.7194 59.59 37.0811 57.885 37.0811C56.2144 37.0811 54.7333 36.4955 54.5439 34.4633H62.9655C62.9655 34.2394 63 33.3438 63 32.9305ZM54.4922 31.2944C54.4922 29.3483 55.6805 28.5388 56.7655 28.5388C57.8161 28.5388 58.9355 29.3483 58.9355 31.2944H54.4922Z" fill="black"/>
<path fill-rule="evenodd" clip-rule="evenodd" d="M43.5562 25.0427C41.8684 25.0427 40.7834 25.8349 40.1806 26.3861L39.9567 25.3183H36.1678V45.3994L40.4734 44.4866L40.4906 39.6127C41.1106 40.0605 42.0234 40.6977 43.539 40.6977C46.6217 40.6977 49.429 38.2177 49.429 32.7583C49.4117 27.7638 46.5701 25.0427 43.5562 25.0427ZM42.5228 36.9088C41.5067 36.9088 40.904 36.5472 40.4906 36.0994L40.4734 29.7099C40.9212 29.2105 41.5412 28.8661 42.5228 28.8661C44.0901 28.8661 45.1751 30.6227 45.1751 32.8788C45.1751 35.1866 44.1073 36.9088 42.5228 36.9088Z" fill="black"/>
<path fill-rule="evenodd" clip-rule="evenodd" d="M30.2433 24.0267L34.5661 23.0967V19.6006L30.2433 20.5134V24.0267Z" fill="black"/>
<path d="M34.5661 25.3357H30.2433V40.4051H34.5661V25.3357Z" fill="black"/>
<path fill-rule="evenodd" clip-rule="evenodd" d="M25.6105 26.6102L25.335 25.3357H21.615V40.4052H25.9205V30.1924C26.9367 28.8663 28.6589 29.1074 29.1928 29.2968V25.3357C28.6417 25.1291 26.6267 24.7502 25.6105 26.6102Z" fill="black"/>
<path fill-rule="evenodd" clip-rule="evenodd" d="M16.9995 21.5984L12.7973 22.4939L12.78 36.2889C12.78 38.8378 14.6917 40.7151 17.2406 40.7151C18.6528 40.7151 19.6861 40.4567 20.2545 40.1467V36.6506C19.7034 36.8745 16.9823 37.6667 16.9823 35.1178V29.0039H20.2545V25.3356H16.9823L16.9995 21.5984Z" fill="black"/>
<path fill-rule="evenodd" clip-rule="evenodd" d="M5.35722 29.7099C5.35722 29.0383 5.90833 28.7799 6.82111 28.7799C8.13 28.7799 9.78333 29.1761 11.0922 29.8822V25.8349C9.66278 25.2666 8.25056 25.0427 6.82111 25.0427C3.325 25.0427 1 26.8683 1 29.9166C1 34.6699 7.54444 33.9122 7.54444 35.9616C7.54444 36.7538 6.85556 37.0122 5.89111 37.0122C4.46167 37.0122 2.63611 36.4266 1.18944 35.6344V39.7333C2.79111 40.4222 4.41 40.7149 5.89111 40.7149C9.47333 40.7149 11.9361 38.9411 11.9361 35.8583C11.9189 30.7261 5.35722 31.6388 5.35722 29.7099Z" fill="black"/>
</svg>
