<svg width="65" height="64" viewBox="0 0 65 64" fill="none" xmlns="http://www.w3.org/2000/svg">
<path fill-rule="evenodd" clip-rule="evenodd" d="M29.4927 2.84894C37.9771 -2.55731 49.7167 -0.0364804 55.6594 8.46873V8.47914C57.8687 11.5677 59.0561 15.2703 59.0552 19.0677C59.0528 20.138 58.9587 21.2061 58.774 22.2604C58.3605 24.5394 57.4907 26.7114 56.2167 28.6458C57.5646 31.2245 58.2703 34.0903 58.274 37C58.275 38.0707 58.1791 39.1393 57.9875 40.1927C57.5703 42.5356 56.6676 44.7654 55.3374 46.7388C54.0072 48.7121 52.2789 50.3854 50.2636 51.651L35.3729 61.151C26.9146 66.5573 15.149 64.0364 9.20627 55.5312C7.79437 53.5577 6.79068 51.3222 6.25406 48.9557C5.71745 46.5892 5.6587 44.1395 6.08127 41.75C6.49406 39.4691 7.36393 37.2953 8.63856 35.3593C7.27942 32.7801 6.56464 29.9102 6.55523 26.9948C6.55682 25.9225 6.65268 24.8524 6.84169 23.7969C7.26481 21.4547 8.17221 19.2268 9.50583 17.2555C10.8395 15.2842 12.5699 13.613 14.5865 12.3489L29.4927 2.84894ZM25.0552 56.7135C26.0603 56.7126 27.0613 56.5849 28.0344 56.3333C29.1066 56.0453 30.1288 55.5957 31.0657 55L45.9459 45.5052C47.1563 44.7422 48.1945 43.7355 48.9944 42.5491C49.7943 41.3628 50.3383 40.0228 50.5917 38.6146C50.7074 37.9753 50.7649 37.3268 50.7636 36.6771C50.7632 34.393 50.0494 32.166 48.7219 30.3073C47.6314 28.7368 46.1768 27.4537 44.4826 26.5675C42.7883 25.6814 40.9047 25.2186 38.9927 25.2188C37.9877 25.22 36.9867 25.3477 36.0136 25.599C34.9433 25.8853 33.9229 26.3332 32.9875 26.9271L27.3 30.5729C27.018 30.755 26.7085 30.8904 26.3834 30.974C26.091 31.0511 25.7899 31.0896 25.4875 31.0885C24.9123 31.0886 24.3455 30.9494 23.8358 30.6827C23.326 30.416 22.8885 30.0299 22.5604 29.5573C22.1604 28.9963 21.9455 28.3244 21.9459 27.6354C21.9542 27.4499 21.9768 27.2653 22.0136 27.0833C22.0904 26.6581 22.2545 26.2534 22.4957 25.8948C22.7368 25.5362 23.0497 25.2315 23.4146 25L38.3209 15.5052C38.6024 15.3223 38.9121 15.1868 39.2375 15.1042C39.5256 15.0209 39.8232 14.9754 40.1229 14.9687C40.6981 14.9691 41.2647 15.1086 41.7744 15.3752C42.2841 15.6418 42.7217 16.0277 43.05 16.5C43.45 17.065 43.6647 17.7401 43.6646 18.4323V18.7187L43.6125 19.2708L44.1646 19.4427C46.261 20.0755 48.2339 21.0619 49.998 22.3594L50.7584 22.9167L51.0396 22.0625C51.1905 21.6075 51.3105 21.1429 51.399 20.6719C51.5092 20.0372 51.5649 19.3942 51.5657 18.75C51.5739 16.467 50.8693 14.2383 49.55 12.375C48.4564 10.8018 46.9975 9.51747 45.2984 8.63209C43.5993 7.74671 41.7108 7.28675 39.7948 7.29167C38.79 7.29122 37.7891 7.41721 36.8157 7.66667C35.7452 7.95518 34.7249 8.40476 33.7896 9L18.8834 18.4948C17.6738 19.2587 16.6362 20.2657 15.8364 21.4519C15.0366 22.6381 14.4922 23.9776 14.2375 25.3854C14.1273 26.0184 14.0716 26.6596 14.0709 27.3021C14.0713 29.5862 14.7851 31.8131 16.1125 33.6719C17.2022 35.242 18.6559 36.5249 20.3492 37.411C22.0426 38.2972 23.9253 38.7601 25.8365 38.7604C26.8415 38.7588 27.8424 38.6311 28.8157 38.3802C29.8856 38.0929 30.9059 37.6451 31.8417 37.0521L37.5188 33.4271C37.7992 33.2455 38.1069 33.1101 38.4302 33.026C38.7226 32.9489 39.0237 32.9104 39.3261 32.9115C39.9022 32.911 40.4698 33.05 40.9804 33.3167C41.4911 33.5834 41.9295 33.9697 42.2584 34.4427C42.664 35.0018 42.8843 35.6739 42.8886 36.3646C42.8904 36.8933 42.7581 37.4139 42.5039 37.8775C42.2498 38.3412 41.8822 38.7328 41.4354 39.0156L26.5448 48.5625C26.2616 48.7424 25.9525 48.8777 25.6282 48.9635C25.3358 49.0407 25.0347 49.0792 24.7323 49.0781C24.1541 49.0756 23.5852 48.9319 23.0751 48.6597C22.565 48.3874 22.1291 47.9946 21.8052 47.5156C21.4045 46.9531 21.1896 46.2793 21.1907 45.5885V45.3021L21.2427 44.75L20.6907 44.5833C18.5951 43.9484 16.6226 42.9621 14.8573 41.6667L14.0969 41.0885L13.8157 41.9427C13.6648 42.3977 13.5448 42.8623 13.4563 43.3333C13.3461 43.9663 13.2903 44.6075 13.2896 45.25C13.2883 47.5344 14.0022 49.7618 15.3313 51.6198C16.4195 53.1918 17.8726 54.4765 19.5662 55.3636C21.2599 56.2508 23.1433 56.714 25.0552 56.7135Z" fill="black"/>
</svg>
