<svg width="65" height="64" viewBox="0 0 65 64" fill="none" xmlns="http://www.w3.org/2000/svg">
<path fill-rule="evenodd" clip-rule="evenodd" d="M17.8594 26C19.8591 18.0003 24.8597 14 32.8594 14C44.8594 14 46.3594 23 52.3594 24.5C56.3597 25.5003 59.8594 24.0003 62.8594 20C60.8597 27.9997 55.8591 32 47.8594 32C35.8594 32 34.3594 23 28.3594 21.5C24.3591 20.4997 20.8594 21.9997 17.8594 26ZM2.85938 44C4.85906 36.0003 9.85969 32 17.8594 32C29.8594 32 31.3594 41 37.3594 42.5C41.3597 43.5003 44.8594 42.0003 47.8594 38C45.8597 45.9997 40.8591 50 32.8594 50C20.8594 50 19.3594 41 13.3594 39.5C9.35906 38.4997 5.85938 39.9997 2.85938 44Z" fill="black"/>
</svg>
