<svg width="65" height="64" viewBox="0 0 65 64" fill="none" xmlns="http://www.w3.org/2000/svg">
<path fill-rule="evenodd" clip-rule="evenodd" d="M62.5942 10.4164C52.0883 5.83744 41.8255 4.38184 32.8594 4.45041H32.8581C23.8917 4.38184 13.6273 5.83744 3.12329 10.4164C1.87165 8.14792 1.35938 6.77207 1.35938 6.77207C12.8424 2.22863 23.5971 0.673404 32.8581 0.634399C42.1197 0.673404 52.8748 2.22838 64.3594 6.77207C64.3594 6.77207 63.9984 7.88905 62.5942 10.4164ZM41.6765 13.7974L32.8629 63.3656L23.9782 13.7902C15.6337 13.7961 12.9871 14.7173 12.6022 18.4777C12.6022 18.4777 6.96441 16.3764 4.12451 12.1087C15.2148 6.96904 26.3597 6.737 26.3597 6.737L32.8559 14.6495L39.3513 6.73824C39.3513 6.73824 50.496 6.97003 61.5878 12.1097C58.7454 16.3774 53.1099 18.4787 53.1099 18.4787C52.7273 14.7186 50.0774 13.7974 41.6765 13.7974Z" fill="black"/>
</svg>
