<svg width="65" height="64" viewBox="0 0 65 64" fill="none" xmlns="http://www.w3.org/2000/svg">
<path d="M44.3037 52.6909C44.2467 49.5383 41.7019 46.9935 38.6064 46.9935C35.4349 46.9935 32.8901 49.5383 32.909 52.6909C32.909 55.8054 35.4349 58.3502 38.6064 58.3882C41.7019 58.3502 44.2467 55.8054 44.3037 52.6909ZM35.4538 52.6909C35.3969 50.6968 36.8212 49.0825 38.6064 49.1015C40.3156 49.1015 41.7209 50.6968 41.7399 52.6909C41.7209 54.6469 40.3156 56.2612 38.6064 56.2992C36.8212 56.2802 35.3969 54.6659 35.4538 52.6909Z" fill="black"/>
<path d="M50.7414 49.3864H54.0458V47.4493H44.9111V49.3864H48.3485V58.0844H50.7414V49.3864Z" fill="black"/>
<path d="M56.8946 55.6915H61.2435L62.1361 58.0844H64.9848L60.6358 47.4493H57.6542L53.1533 58.0844H56.002L56.8946 55.6915ZM59.1545 49.9941L60.6358 53.8873H57.6352L59.1355 49.9941H59.1545Z" fill="black"/>
<path d="M4.27032 58.0844H6.68219V49.3864H9.96765V47.4493H0.984863V49.3864H4.27032V58.0844Z" fill="black"/>
<path d="M21.9701 52.6909C21.9321 49.5383 19.3873 46.9935 16.2728 46.9935C13.1202 46.9935 10.5944 49.5383 10.5754 52.6909C10.5754 55.8054 13.1202 58.3502 16.2728 58.3882C19.3873 58.3502 21.9321 55.8054 21.9701 52.6909ZM13.1392 52.6909C13.1012 50.6968 14.5066 49.0825 16.2917 49.1015C18.0199 49.1015 19.4443 50.6968 19.4443 52.6909C19.4443 54.6849 18.0389 56.2612 16.2917 56.2992C14.5256 56.2802 13.1012 54.6659 13.1392 52.6909Z" fill="black"/>
<path d="M27.3637 58.0844H28.5601V54.0393L32.7571 47.4493H30.0604L27.3637 51.9502L24.8189 47.4493H21.9702L26.1672 54.0393V58.0844H27.3637Z" fill="black"/>
<path d="M32.3393 42.4356C48.5577 42.4356 61.7755 34.1745 61.7755 24.0332C61.7755 13.892 48.5767 5.61188 32.3393 5.61188C16.1019 5.61188 2.90308 13.873 2.90308 24.0332C2.90308 34.1935 16.1019 42.4356 32.3393 42.4356ZM32.3393 6.52345C48.0639 6.52345 60.8639 14.3858 60.8639 24.0332C60.8639 33.6807 48.0639 41.543 32.3393 41.543C16.6147 41.543 3.81467 33.6997 3.81467 24.0332C3.81467 14.3668 16.6147 6.52345 32.3393 6.52345" fill="black"/>
<path d="M25.1795 19.2474L25.6162 19.3233L25.6922 18.8676C26.3949 14.6325 27.9141 11.3091 29.8702 9.75184L30.9907 8.85925L29.5664 8.93522C22.6726 9.35302 17.678 11.1762 16.8234 13.588C16.7474 13.8349 16.6904 14.1008 16.6904 14.3477C16.6904 14.7465 16.8044 15.1643 17.0323 15.5441C17.9818 17.1774 20.9444 18.5067 25.1795 19.2284M17.6779 13.8919C18.3236 12.0498 22.7486 10.4545 28.4079 9.92276C26.7937 11.7459 25.5592 14.6895 24.9136 18.2598C21.2293 17.5762 18.6085 16.3987 17.8299 15.0883C17.6779 14.8414 17.602 14.5946 17.602 14.3477C17.602 14.1958 17.621 14.0438 17.6779 13.8919Z" fill="black"/>
<path d="M28.3132 19.1526L28.2183 19.6464L28.712 19.6844C29.8895 19.7793 31.1239 19.8173 32.3393 19.8173C33.5548 19.8173 34.7892 19.7603 35.9666 19.6844L36.4604 19.6464L36.3844 19.1526C35.7008 15.3354 34.2005 13.0565 32.3393 13.0565C30.4782 13.0565 28.9779 15.3354 28.2942 19.1526M32.3393 13.949C33.5927 13.949 34.7702 15.8482 35.3969 18.7918C34.3904 18.8487 33.3838 18.9057 32.3393 18.9057C31.2948 18.9057 30.2883 18.8677 29.2818 18.7918C29.8895 15.8292 31.0669 13.949 32.3393 13.949" fill="black"/>
<path d="M38.986 18.8866L39.062 19.3424L39.4988 19.2664C43.7338 18.5448 46.6964 17.1964 47.6459 15.5822C48.0068 14.9554 48.0827 14.2718 47.8548 13.6261C47.0002 11.2332 42.0056 9.39106 35.1118 8.97325L33.6875 8.8783L34.808 9.77088C36.7641 11.3281 38.2833 14.6706 38.986 18.8866M47.0193 13.9109C47.0762 14.0629 47.0952 14.2148 47.0952 14.3667C47.0952 14.6136 47.0193 14.8605 46.8673 15.1074C46.0887 16.4178 43.4489 17.5952 39.7646 18.2789C39.1189 14.7086 37.8845 11.7649 36.2703 9.9418C41.9106 10.4546 46.3356 12.0688 47.0003 13.9109" fill="black"/>
<path d="M29.3196 39.2641L30.687 39.3591L29.6425 38.4665C26.9458 36.1686 25.2745 30.6802 25.2745 24.1852V22.6469L24.9137 22.571C18.4377 21.4125 13.8419 18.6778 13.1772 15.6392L13.0253 14.9175L12.4366 15.3923C9.34101 17.9941 7.70776 21.0707 7.70776 24.2991C7.70776 31.9146 16.9944 38.3336 29.3007 39.2641M12.5125 16.5318C13.69 19.6083 18.1149 22.1721 24.363 23.3686C24.363 23.7294 24.363 24.1662 24.363 24.1662C24.363 30.2054 25.7873 35.4089 28.1612 38.2196C16.9374 37.0232 8.61936 31.1549 8.61936 24.2802C8.61936 21.5075 9.9677 18.8487 12.5125 16.5318" fill="black"/>
<path d="M36.764 23.6345V22.9698L36.2703 23.0078C34.9979 23.1217 33.6685 23.1787 32.3581 23.1787C31.0477 23.1787 29.7183 23.1217 28.4459 23.0078L27.9521 22.9698V23.4636V23.6345C27.9521 29.6736 29.8513 34.2505 32.3581 34.2505C34.8649 34.2505 36.764 29.6926 36.764 23.6345ZM32.3581 33.3389C30.6869 33.3389 28.9207 29.5787 28.8447 23.9573C30.0032 24.0333 31.1806 24.0903 32.3581 24.0903C33.5355 24.0903 34.713 24.0333 35.8525 23.9573C35.7955 29.5787 34.0103 33.3389 32.3581 33.3389Z" fill="black"/>
<path d="M39.3847 22.6279V24.1662C39.4037 30.6802 37.7324 36.1496 35.0357 38.4475L33.9912 39.3401L35.3585 39.2452C47.6838 38.3146 56.9514 31.8956 56.9514 24.2802C56.9514 21.0517 55.3182 17.9561 52.2226 15.3733L51.6529 14.8986L51.482 15.6202C50.8363 18.6778 46.2215 21.3935 39.7455 22.552L39.3657 22.6279H39.3847ZM52.1657 16.5318C54.7105 18.8487 56.0589 21.5075 56.0589 24.2802C56.0589 31.1549 47.7407 37.0232 36.517 38.2196C38.8719 35.4089 40.3152 30.2054 40.3152 24.1662C40.3152 24.1662 40.3152 23.7294 40.3152 23.3686C46.5633 22.1722 50.9882 19.6084 52.1847 16.5318" fill="black"/>
</svg>
