<?xml version="1.0" encoding="utf-8"?>
<!-- Generator: Adobe Illustrator 22.0.0, SVG Export Plug-In . SVG Version: 6.00 Build 0)  -->
<svg version="1.1" id="lni_lni-twitter" xmlns="http://www.w3.org/2000/svg" xmlns:xlink="http://www.w3.org/1999/xlink" x="0px"
	 y="0px" viewBox="0 0 64 64" style="enable-background:new 0 0 64 64;" xml:space="preserve">
<g>
	<path d="M21.4,56.8c-6.7,0-13.2-1.9-18.6-5.6c-0.9-0.6-1.2-1.7-0.9-2.7c0.4-1,1.4-1.6,2.4-1.4c0.8,0.1,1.6,0.2,2.4,0.2
		c2.9,0,5.7-0.6,8.3-1.7c-3.2-1.6-5.8-4.4-6.9-8c-0.2-0.7-0.1-1.4,0.3-2C5.6,33,4,29.4,4,25.5v-0.1c0-0.8,0.4-1.5,1.1-1.9
		c0.1-0.1,0.2-0.1,0.3-0.2C4.5,21.5,4,19.4,4,17.4c0-2.5,0.6-4.8,1.8-6.8c0.4-0.6,1-1,1.8-1.1c0.7-0.1,1.5,0.3,1.9,0.8
		c4.8,5.9,11.7,9.7,19.1,10.7c0,0,0-0.1,0-0.1c0-7.5,6.1-13.6,13.6-13.6c3.3,0,6.4,1.2,8.9,3.4c1.1-0.4,2.3-1.2,3.5-1.9
		c0.6-0.4,1.2-0.8,1.8-1.1c0.7-0.4,1.6-0.4,2.4,0.1s1.1,1.3,1,2.1c-0.1,0.6-0.3,2-0.7,3.5c0.2,0,0.3,0,0.4,0c0.9-0.2,1.8,0.2,2.3,1
		c0.5,0.8,0.5,1.7,0,2.5c-1.4,2.1-3.5,3.5-5.4,4.8c-0.2,0.1-0.4,0.3-0.5,0.4c0,0.1,0,0.2,0,0.3C56,39.2,43,56.8,21.4,56.8z M12.8,51
		c2.7,0.8,5.6,1.2,8.6,1.2c18.8,0,30.1-15.3,30.1-30.1c0-0.4,0-0.8,0-1.2c-0.1-0.8,0.2-1.6,0.9-2.1c0.5-0.4,1.1-0.8,1.6-1.2
		c0.3-0.2,0.6-0.4,0.9-0.6c-0.5-0.2-0.9-0.7-1.1-1.2c-0.2-0.5-0.2-1.1,0-1.6c-0.9,0.4-1.8,0.7-2.7,0.9c-0.7,0.1-1.5-0.1-2-0.7
		c-1.8-1.9-4.1-2.9-6.6-2.9c-5,0-9.1,4.1-9.1,9.1c0,0.6,0.1,1.3,0.2,2.1c0.1,0.7,0,1.4-0.5,1.9c-0.5,0.5-1.1,0.8-1.8,0.8
		c-8.5-0.4-16.5-3.9-22.5-9.8c-0.1,0.5-0.1,1-0.1,1.5c0,3.1,1.5,5.9,4.1,7.6c0.8,0.6,1.2,1.6,0.9,2.6c-0.3,1-1.2,1.6-2.2,1.6
		c-0.7,0-1.5-0.1-2.2-0.3c1.1,2.8,3.6,5,6.7,5.6c1,0.2,1.8,1.1,1.8,2.2c0,1.1-0.7,2-1.7,2.2c-0.6,0.2-1.3,0.3-1.8,0.4
		c1.7,2,4.1,3.2,6.8,3.2c1,0,1.8,0.6,2.1,1.5c0.3,0.9,0,1.9-0.8,2.5C19.3,48.6,16.2,50.2,12.8,51z"/>
</g>
</svg>
