<?xml version="1.0" encoding="utf-8"?>
<!-- Generator: Adobe Illustrator 22.0.1, SVG Export Plug-In . SVG Version: 6.00 Build 0)  -->
<svg version="1.1" id="lni_lni-twitter-original" xmlns="http://www.w3.org/2000/svg" xmlns:xlink="http://www.w3.org/1999/xlink"
	 x="0px" y="0px" viewBox="0 0 64 64" style="enable-background:new 0 0 64 64;" xml:space="preserve">
<path d="M20.3,57.4c23.6,0,36.4-19.5,36.4-36.4c0-0.4,0-1.1-0.1-1.7c2.5-1.8,4.7-4.1,6.4-6.6c-2.4,1.1-4.8,1.7-7.3,2
	c2.7-1.6,4.7-4.1,5.6-7.1c-2.5,1.4-5.1,2.5-8.2,3.1c-2.4-2.5-5.6-4.1-9.3-4.1c-7.1,0-12.9,5.8-12.9,12.9c0,1,0.1,2,0.3,3
	C20.9,21.8,11.5,16.7,5.1,9c-1.1,2-1.7,4.1-1.7,6.4c0,4.5,2.3,8.3,5.8,10.6c-2.1-0.1-4.1-0.7-5.8-1.6c0,0.1,0,0.1,0,0.1
	c0,6.1,4.4,11.4,10.2,12.6c-1.1,0.3-2.3,0.4-3.2,0.4c-0.8,0-1.7-0.1-2.4-0.3c1.7,5.1,6.4,8.8,12,8.9c-4.4,3.4-9.9,5.5-15.8,5.5
	C3,51.8,2,51.6,1,51.5C6.4,55.3,13.1,57.4,20.3,57.4"/>
</svg>
