<?xml version="1.0" encoding="utf-8"?>
<!-- Generator: Adobe Illustrator 22.0.1, SVG Export Plug-In . SVG Version: 6.00 Build 0)  -->
<svg version="1.1" id="lni_lni-twitter-filled" xmlns="http://www.w3.org/2000/svg" xmlns:xlink="http://www.w3.org/1999/xlink"
	 x="0px" y="0px" viewBox="0 0 64 64" style="enable-background:new 0 0 64 64;" xml:space="preserve">
<path d="M56.1,15.3l3.8-4.8c1.1-1.3,1.4-2.3,1.5-2.8c-3,1.8-5.8,2.4-7.6,2.4h-0.7l-0.4-0.4c-2.4-2.1-5.4-3.2-8.6-3.2
	c-7,0-12.5,5.8-12.5,12.5c0,0.4,0,1,0.1,1.4l0.3,2l-2.1-0.1C17.1,21.9,6.6,10.9,4.9,9C2.1,14,3.7,18.8,5.4,21.8l3.4,5.6l-5.4-3
	c0.1,4.2,1.7,7.5,4.8,9.9l2.7,2l-2.7,1.1c1.7,5.1,5.5,7.2,8.3,8l3.7,1l-3.5,2.4C11.1,52.8,4.1,52.5,1,52.2c6.3,4.4,13.8,5.4,19,5.4
	c3.9,0,6.8-0.4,7.5-0.7c28-6.6,29.3-31.6,29.3-36.6v-0.7l0.6-0.4c3.4-3.2,4.8-4.9,5.6-5.9c-0.3,0.1-0.7,0.3-1.1,0.4L56.1,15.3z"/>
</svg>
