<svg width="65" height="64" viewBox="0 0 65 64" fill="none" xmlns="http://www.w3.org/2000/svg">
<path d="M58.55 0H7.05005C3.5988 0 0.800049 2.79875 0.800049 6.25V57.75C0.800049 61.2013 3.5988 64 7.05005 64H58.55C62.0013 64 64.8 61.2013 64.8 57.75V6.25C64.8 2.79875 62.0013 0 58.55 0ZM37.925 35.5H29.925V58.375H23.55V35.5H15.55V30.375H37.925V35.5ZM58.55 54.2625C58.05 55.3875 57.1875 56.225 56.175 56.8875C55.175 57.5 54.05 57.975 52.675 58.2625C51.3 58.55 49.925 58.6875 48.425 58.6875C46.925 58.6875 45.425 58.5625 44.05 58.3C42.675 58.0375 41.4375 57.65 40.425 57.125V51.1188C40.3463 51.0563 40.265 50.995 40.1875 50.93L40.425 50.875V51.1188C41.4875 51.9625 42.6575 52.6125 43.9375 53.055C45.1875 53.53 46.5625 53.7675 47.9375 53.7675C48.8125 53.7675 49.475 53.6925 50.0625 53.555C50.675 53.405 51.1625 53.205 51.5625 52.955C51.9625 52.705 52.2601 52.405 52.4501 52.055C52.6401 51.705 52.7375 51.33 52.7375 50.93C52.7375 50.355 52.5751 49.855 52.2626 49.43C51.9751 49.005 51.5501 48.605 51.0126 48.2425C50.5126 47.88 49.8876 47.53 49.1376 47.1925C48.3876 46.855 47.6251 46.505 46.7626 46.155C44.6376 45.155 42.9626 44.155 41.8876 42.78C40.8001 41.53 40.2626 39.905 40.2626 38.03C40.2626 36.53 40.5501 35.33 41.1376 34.28C41.7626 33.155 42.5001 32.33 43.5126 31.655C44.5126 30.9675 45.6376 30.4675 47.0126 30.155C48.3876 29.8425 49.7626 29.68 51.2626 29.68C52.7626 29.68 54.0126 29.7675 55.1376 29.9425C56.2626 30.1175 57.3126 30.3925 58.2626 30.755V36.63C57.8251 36.305 57.3126 36.0175 56.7626 35.7675C56.1751 35.5175 55.6001 35.3175 55.0126 35.155C54.4251 34.9925 53.8376 34.8712 53.2626 34.7925C52.7126 34.7137 52.1626 34.675 51.6376 34.675C50.8751 34.675 50.2251 34.7375 49.6376 34.875C49.0376 35.0125 48.5376 35.2 48.1376 35.45C47.7376 35.7 47.4263 35.9875 47.2001 36.3375C46.9738 36.6875 46.8625 37.075 46.8625 37.5C46.8625 37.9625 46.9875 38.375 47.2375 38.75C47.4875 39.1125 47.8375 39.4625 48.3 39.8C48.7125 40.125 49.275 40.45 49.925 40.775C50.675 41.1 51.35 41.425 52.175 41.7625C53.3 42.2375 54.3 42.7625 55.175 43.2625C56.05 43.7625 56.7875 44.35 57.425 45.0125C58.1 45.6375 58.5875 46.3875 58.925 47.2625C59.2625 48.1375 59.4375 49.125 59.4375 50.2625C59.4375 51.8875 59.05 53.1375 58.55 54.2625V54.2625Z" fill="black"/>
</svg>
