<?xml version="1.0" encoding="utf-8"?>
<!-- Generator: Adobe Illustrator 22.0.0, SVG Export Plug-In . SVG Version: 6.00 Build 0)  -->
<svg version="1.1" id="lni_lni-visa" xmlns="http://www.w3.org/2000/svg" xmlns:xlink="http://www.w3.org/1999/xlink" x="0px"
	 y="0px" viewBox="0 0 64 64" style="enable-background:new 0 0 64 64;" xml:space="preserve">
<g>
	<polygon points="24.8,39.6 28.8,39.6 31.2,24.4 27.3,24.4 	"/>
	<path d="M39.2,30.5c-1.4-0.7-2.2-1.2-2.2-1.9c0-0.6,0.7-1.3,2.3-1.3c1.3,0,2.2,0.3,3,0.6l0.4,0.1l0.5-3.2c-0.8-0.3-2-0.6-3.5-0.6
		c-3.9,0-6.7,2-6.7,5c0,2.2,1.9,3.5,3.5,4.2c1.5,0.7,2.1,1.2,2.1,1.9c0,1-1.2,1.5-2.4,1.5c-1.6,0-2.5-0.2-3.8-0.8l-0.5-0.2l-0.6,3.5
		c0.9,0.3,2.6,0.7,4.3,0.7c4.2,0.1,6.9-2,6.9-5.2C42.4,33,41.4,31.6,39.2,30.5z"/>
	<path d="M50.2,24.4c-0.9,0-1.7,0.3-2.1,1.3l-5.9,13.9h4v0.1c0,0,0.6-1.9,0.9-2.3c0.4,0,4.5,0,5,0c0.1,0.5,0.5,2.3,0.5,2.3h3.7
		l-3.2-15.2H50.2z M48.2,34.3c0.3-0.9,1.6-4.2,1.6-4.2c0,0.1,0.4-0.9,0.5-1.4l0.3,1.3c0,0,0.8,3.7,0.9,4.4
		C50.9,34.3,49,34.3,48.2,34.3z"/>
	<polygon points="21.6,24.4 17.7,34.9 15.6,24.4 7.7,24.4 12.1,27.7 15.3,39.6 19.4,39.6 25.8,24.4 	"/>
	<path d="M54.6,13.3H9.4c-4.2,0-7.7,3.4-7.7,7.7v22c0,4.2,3.4,7.7,7.7,7.7h45.1c4.2,0,7.7-3.4,7.7-7.7V21
		C62.3,16.8,58.8,13.3,54.6,13.3z M57.8,43c0,1.8-1.4,3.2-3.2,3.2H9.4c-1.8,0-3.2-1.4-3.2-3.2V21c0-1.8,1.4-3.2,3.2-3.2h45.1
		c1.8,0,3.2,1.4,3.2,3.2V43z"/>
</g>
</svg>
