<svg width="65" height="64" viewBox="0 0 65 64" fill="none" xmlns="http://www.w3.org/2000/svg">
<path d="M34.7893 26.1515C36.3998 26.6539 37.4538 27.732 37.9513 29.3855V38.6297H45.1054V38.6202H46.2061V38.6011H46.3087V22.9175C45.4879 20.189 43.7498 18.4082 41.0946 17.5751H9.07343C6.41765 18.4051 4.67963 20.1859 3.85938 22.9175V55.8875C4.68019 58.6159 6.45552 60.3426 9.18536 61.0677H40.9827C43.7125 60.3426 45.4879 58.6159 46.3087 55.8875V47.292H37.9513V49.3622C37.4538 51.0158 36.378 52.062 34.724 52.5008H15.4534C13.7993 52.062 12.7236 51.0158 12.2261 49.3622V29.3855C12.7236 27.732 13.7776 26.6539 15.3881 26.1515H34.7893Z" fill="black"/>
<path d="M61.8594 8.27468C61.0386 5.54626 59.3005 3.76547 56.6453 2.93231H24.6241C21.9689 3.76547 20.2309 5.54626 19.41 8.27468V16.6603H27.7675V14.7428C28.2649 13.0892 29.3189 12.0112 30.9295 11.5087H50.3306C51.9412 12.0112 52.9952 13.0892 53.4926 14.7428V34.7194C52.9952 36.373 51.9194 37.4192 50.2653 37.858H30.9948C29.3407 37.4192 28.2649 36.373 27.7675 34.7194V25.2367H19.41V41.2447C20.2309 43.9731 22.0062 45.6999 24.736 46.4249H56.5334C59.2632 45.6999 61.0386 43.9731 61.8594 41.2447V8.27468Z" fill="black"/>
</svg>
