<svg width="65" height="64" viewBox="0 0 65 64" fill="none" xmlns="http://www.w3.org/2000/svg">
<path d="M39.1223 8.79736C37.1648 8.26767 35.0921 8.01434 32.9964 8.01434C30.9007 8.01434 28.9201 8.2907 26.9856 8.77433L33.0655 25.5401L39.1223 8.79736V8.79736Z" fill="black"/>
<path d="M56.9703 32.0114C56.9703 29.0176 56.4636 26.1619 55.4503 23.5134L44.0505 53.268C51.6965 49.2608 56.9703 41.2464 56.9703 32.0114Z" fill="black"/>
<path d="M45.0642 11.2616L38.0401 30.6066H28.1373L21.0901 11.1694C18.4877 12.6664 16.2078 14.6239 14.3193 16.973L24.3373 42.9506L27.9991 33.4623H37.6255L41.2873 42.9506L51.3974 16.6505C49.6241 14.4857 47.4593 12.6664 45.0412 11.2385" fill="black"/>
<path d="M32.9964 0C15.3785 0 0.984863 14.3706 0.984863 32.0115C0.984863 49.6524 15.3785 64 32.9964 64C50.6142 64 64.9849 49.6063 64.9849 32.0115C64.9849 14.4167 50.6373 0 32.9964 0M32.9964 59.9237C17.6355 59.9237 5.06114 47.3955 5.06114 32.0345C5.06114 16.6736 17.6124 4.07629 32.9964 4.07629C48.3803 4.07629 60.9316 16.6276 60.9316 32.0345C60.9316 47.4415 48.3803 59.9237 32.9964 59.9237Z" fill="black"/>
<path d="M32.7893 38.575L26.5942 54.6268V55.1335C28.6209 55.7092 30.7627 55.9856 32.9966 55.9856C35.0923 55.9856 37.1189 55.7323 39.0534 55.2256L38.9843 54.6268L32.7893 38.575Z" fill="black"/>
<path d="M9.02222 32.0114C9.02222 41.0391 14.0427 48.9383 21.5044 53.0146L10.381 24.043C9.48282 26.5303 9.02222 29.2017 9.02222 32.0114" fill="black"/>
</svg>
