<svg width="64" height="64" viewBox="0 0 64 64" fill="none" xmlns="http://www.w3.org/2000/svg">
<path d="M62.845 9.99913C62.7966 9.82471 62.7384 9.65029 62.6609 9.48556C62.5931 9.31114 62.5059 9.14642 62.4091 8.99138C62.3122 8.83634 62.2056 8.69099 62.0894 8.55533C61.9731 8.41968 61.8375 8.28402 61.7019 8.16774C61.5662 8.04177 61.4306 7.93518 61.2756 7.82859C61.1206 7.722 60.9656 7.63479 60.8009 7.55728L48.0328 1.37513C47.3062 1.03599 46.4925 0.919708 45.7078 1.05537C45.0297 1.17164 44.4 1.47203 43.8769 1.90808C43.7897 1.9759 43.7025 2.05342 43.625 2.13094L23.0294 25.0281L11.0072 15.1154L9.96094 14.2433C9.59281 13.9332 9.15687 13.72 8.68219 13.6522C8.61437 13.6425 8.54656 13.6328 8.47875 13.6328C8.42062 13.6231 8.35281 13.6231 8.29469 13.6231C8.19781 13.6231 8.11062 13.6231 8.01375 13.6328C7.92656 13.6328 7.84906 13.6522 7.77156 13.6716C7.60687 13.7007 7.44219 13.7491 7.28719 13.8169L2.58875 15.7646C2.12375 15.9681 1.71687 16.2975 1.43594 16.7142C1.155 17.1406 1 17.6444 1 18.1483V45.8517C1 46.3556 1.155 46.8594 1.43594 47.2858C1.71687 47.7025 2.12375 48.0319 2.58875 48.2354L7.28719 50.2121C7.72312 50.3962 8.2075 50.4544 8.68219 50.3866C9.15687 50.309 9.59281 50.1055 9.96094 49.7955L11.0072 48.8846L23.0294 38.9719L43.625 61.8691C43.6928 61.9369 43.7703 62.0047 43.8478 62.0725C43.8575 62.0822 43.8672 62.0919 43.8769 62.0919C44.4 62.528 45.0297 62.8284 45.7078 62.9446C46.4925 63.0803 47.3062 62.964 48.0328 62.6249L60.8009 56.4427C60.9656 56.3652 61.1206 56.278 61.2756 56.1714C61.5759 55.9679 61.8569 55.716 62.0894 55.4544C62.2056 55.309 62.3122 55.1637 62.4091 55.0086C62.7966 54.3885 63 53.6714 63 52.935V11.065C63 10.7065 62.9516 10.348 62.845 9.99913V9.99913ZM8.75 40.9098V23.0902L16.7616 32.0048L8.75 40.9098ZM31.4866 32.0048L47.5 18.7975V45.2025L31.4866 32.0048Z" fill="black"/>
</svg>
