<svg width="65" height="64" viewBox="0 0 65 64" fill="none" xmlns="http://www.w3.org/2000/svg">
<path fill-rule="evenodd" clip-rule="evenodd" d="M30.7185 27.2L30.7184 27.2002C24.5397 24.1022 22.2785 19.991 23.7725 14.9585C25.0887 10.524 29.5245 7.62153 34.0425 8.30403C36.296 8.64403 38.278 9.56678 39.8225 11.3273C42.1602 13.9938 42.688 17.1063 41.9745 20.5725L44.1088 21.1516C45.2049 21.449 46.2598 21.7353 47.3102 22.02C49.5827 15.7858 46.9167 8.50178 41.0957 4.76228C35.0347 0.86928 27.1817 1.69053 22.0342 6.76253C19.3467 9.41103 17.8762 12.6425 17.5342 16.3818C17.0505 21.6718 19.2365 25.9405 22.9092 29.5925L17.0697 39.3845C16.8789 39.3988 16.7144 39.4087 16.5674 39.4176C16.2981 39.4338 16.0872 39.4465 15.8792 39.4763C12.0402 40.0205 9.33824 43.4338 9.98424 46.9155C10.7132 50.8493 14.293 53.264 17.9672 52.3013C21.8632 51.2808 23.9362 47.521 22.4667 43.6575C21.9345 42.259 22.2642 41.3628 22.9305 40.2625C24.8074 37.162 26.6566 34.0444 28.5403 30.8688L28.5407 30.8681C29.2604 29.6547 29.9851 28.4329 30.7184 27.2002L30.7185 27.2003V27.2ZM43.9406 31.8858C42.0601 28.5701 40.1626 25.2236 38.2939 21.9269C38.3873 21.6927 38.4784 21.4723 38.5658 21.2606L38.5661 21.26C38.7513 20.8116 38.9205 20.4022 39.0614 19.9835C39.8079 17.7728 39.3571 15.7553 37.9386 13.9628C36.2029 11.7688 33.1746 10.972 30.5941 11.9593C27.9891 12.9555 26.3224 15.5128 26.4356 18.3418C26.5509 21.2023 28.4704 23.7555 31.4436 24.271C33.2241 24.5793 34.0961 25.4248 34.8861 26.8818C36.5654 29.9806 38.3056 33.0459 40.0476 36.1142L40.0481 36.1152C40.7362 37.3271 41.4244 38.5394 42.1094 39.7545C47.9414 35.8675 52.7661 35.991 56.3681 40.0403C59.4894 43.5493 59.5551 48.8935 56.5219 52.4778C52.9649 56.6793 48.1736 56.8463 42.6956 53.2983C41.1779 54.568 39.7574 55.7565 38.3439 56.9398C43.8901 62.4758 51.8069 63.212 58.0669 58.9025C64.1656 54.7043 66.2886 46.6448 63.1831 39.84C60.6121 34.2068 53.4456 28.945 43.9406 31.8858ZM31.3177 48.8768H42.7602C42.9199 49.0895 43.069 49.2998 43.2146 49.5051C43.5184 49.9336 43.8068 50.3403 44.1435 50.7013C46.567 53.2928 50.6592 53.4213 53.2495 51.0163C55.9342 48.5238 56.0557 44.3368 53.5187 41.7346C51.0362 39.1883 46.7935 38.9451 44.4885 41.6411C43.0885 43.2796 41.6537 43.4723 39.7952 43.4431C36.3984 43.3906 32.9999 43.4007 29.6022 43.4107C28.2392 43.4148 26.8763 43.4188 25.5137 43.4188C25.8227 50.1143 23.2917 54.2863 18.2717 55.2768C13.356 56.2468 8.82873 53.7386 7.23498 49.1626C5.42448 43.9626 7.66348 39.8041 14.1325 36.5036C13.6457 34.7401 13.1537 32.9553 12.667 31.1876C5.61623 32.7241 0.326481 39.5648 0.872481 47.2608C1.35498 54.0543 6.83498 60.0876 13.537 61.1683C17.177 61.7561 20.597 61.1458 23.7702 59.3458C27.852 57.0298 30.221 53.3878 31.3177 48.8768Z" fill="black"/>
</svg>
