<?xml version="1.0" encoding="utf-8"?>
<!-- Generator: Adobe Illustrator 22.0.1, SVG Export Plug-In . SVG Version: 6.00 Build 0)  -->
<svg version="1.1" id="lni_lni-whatsapp" xmlns="http://www.w3.org/2000/svg" xmlns:xlink="http://www.w3.org/1999/xlink" x="0px"
	 y="0px" viewBox="0 0 64 64" style="enable-background:new 0 0 64 64;" xml:space="preserve">
<g id="WA_Logo">
	<g>
		<path d="M54,9.9c-5.8-5.8-13.7-9-21.8-9C15.2,0.9,1.3,14.7,1.3,31.7c0,5.5,1.4,10.7,4.1,15.5L1,63.1l16.5-4.2
			c4.5,2.4,9.6,3.8,14.8,3.8l0,0l0,0C49.2,62.6,63,48.8,63,31.7C63,23.5,59.8,15.8,54,9.9z M32.1,57.4L32.1,57.4
			c-4.5,0-9.2-1.3-13.1-3.7l-1-0.6l-9.7,2.5l2.7-9.4l-0.6-1c-2.5-4.1-3.9-8.9-3.9-13.7c0-14.1,11.4-25.5,25.6-25.5
			c6.8,0,13.2,2.7,18,7.5s7.5,11.3,7.5,18.2C57.8,46,46.2,57.4,32.1,57.4z M46.2,38.2c-0.8-0.4-4.5-2.3-5.4-2.4
			c-0.7-0.3-1.3-0.4-1.7,0.4c-0.4,0.8-2,2.4-2.4,3c-0.4,0.4-0.8,0.6-1.7,0.1c-0.8-0.4-3.2-1.1-6.2-3.9c-2.3-2-3.9-4.5-4.2-5.4
			c-0.4-0.8-0.1-1.1,0.4-1.6c0.4-0.4,0.8-0.8,1.1-1.4c0.4-0.4,0.4-0.8,0.8-1.3c0.4-0.4,0.1-1-0.1-1.4c-0.3-0.4-1.7-4.2-2.4-5.8
			c-0.6-1.6-1.3-1.3-1.7-1.3c-0.4,0-1,0-1.4,0s-1.4,0.1-2,1c-0.7,0.8-2.7,2.7-2.7,6.5s2.7,7.3,3.2,8c0.4,0.4,5.5,8.3,13.1,11.7
			c1.8,0.8,3.2,1.3,4.4,1.7c1.8,0.6,3.5,0.4,4.8,0.3c1.5-0.1,4.5-1.8,5.2-3.7c0.6-1.7,0.6-3.4,0.4-3.7
			C47.5,38.8,46.9,38.5,46.2,38.2z"/>
	</g>
</g>
</svg>
