<?xml version="1.0" encoding="utf-8"?>
<!-- Generator: Adobe Illustrator 22.0.0, SVG Export Plug-In . SVG Version: 6.00 Build 0)  -->
<svg version="1.1" id="Layer_1" xmlns="http://www.w3.org/2000/svg" xmlns:xlink="http://www.w3.org/1999/xlink" x="0px" y="0px"
	 viewBox="0 0 65 65" style="enable-background:new 0 0 65 65;" xml:space="preserve">
<g>
	<path d="M46.9,62.7c-5.1,0-10-2.6-12.7-7.2c-2.2-3.7-2.6-8-1.1-12c0.4-1.2,0.3-2.8-0.6-3.4c-1-0.6-2.5,0.1-3.3,1.1
		c-2.8,3.1-6.8,4.9-11,4.9c-8.1,0-14.7-6.5-14.7-14.4S10,17.3,18.1,17.3c4.6,0,9,2.2,11.8,5.8c0.5,0.7,1.5,1.3,2.3,1
		c0.9-0.4,1.2-1.9,0.8-3.1c-1.3-3.9-0.8-8.1,1.3-11.7c4-6.9,13-9.2,20-5.3c3.4,1.9,5.9,5.1,6.9,8.8c1,3.7,0.5,7.6-1.5,10.9
		c-2.3,3.9-6.2,6.4-10.7,7C48,31,47,31.7,47,32.5c0,0.8,1,1.5,1.9,1.6c4.5,0.6,8.4,3.2,10.7,7c2,3.3,2.5,7.2,1.5,10.9
		c-1,3.8-3.4,6.9-6.9,8.8C51.9,62.1,49.4,62.7,46.9,62.7z M31.7,35.4c1.1,0,2.1,0.3,3.1,0.9c3,1.9,3.6,5.8,2.5,8.7
		c-1,2.7-0.7,5.7,0.8,8.2c2.8,4.8,9.1,6.4,13.9,3.6c2.4-1.3,4-3.5,4.7-6.1c0.7-2.5,0.3-5.2-1-7.4c-1.6-2.7-4.3-4.5-7.4-4.9
		c-3.3-0.4-5.8-3-5.8-6c0-3,2.5-5.6,5.8-6c3.1-0.4,5.9-2.2,7.4-4.9c1.3-2.3,1.7-4.9,1-7.4c-0.7-2.6-2.4-4.7-4.7-6.1
		C47.1,5.3,40.9,7,38.1,11.7c-1.4,2.4-1.7,5.3-0.9,8c1,3.2,0.1,7.3-3.3,8.7c-2.6,1.1-5.7,0-7.6-2.5c-1.9-2.5-5-4-8.2-4
		c-5.6,0-10.2,4.4-10.2,9.9s4.6,9.9,10.2,9.9c2.9,0,5.7-1.2,7.7-3.4C27.2,36.6,29.4,35.4,31.7,35.4z"/>
</g>
</svg>
