<svg width="65" height="64" viewBox="0 0 65 64" fill="none" xmlns="http://www.w3.org/2000/svg">
<path d="M40.1427 32.0148C40.1429 34.2735 39.7351 36.5136 38.9389 38.6273C36.8245 39.4235 34.5837 39.8317 32.3244 39.8321H32.2968C30.0375 39.8324 27.7967 39.4246 25.6823 38.6283C24.8848 36.5142 24.4763 34.2733 24.4765 32.0138V31.9842C24.4765 29.6564 24.9037 27.4269 25.6774 25.3697C27.7921 24.5723 30.0338 24.1645 32.2939 24.1659H32.3195C34.6483 24.1659 36.8768 24.5931 38.934 25.3697C39.731 27.4839 40.1389 29.7248 40.1378 31.9842V32.0138H40.1408L40.1427 32.0148ZM63.2011 26.7783H44.9166L57.8444 13.8494C55.8115 10.9944 53.3157 8.49929 50.4602 6.46713L37.5304 19.396V1.11055C35.8111 0.821344 34.0707 0.675493 32.3273 0.6745H32.2939C30.5201 0.6745 28.7829 0.826082 27.0899 1.11055V19.396L14.1571 6.46615C12.7328 7.47986 11.396 8.61118 10.1608 9.84822L10.1549 9.85413C8.9197 11.0903 7.78942 12.427 6.77577 13.8504L19.7086 26.7783H1.42016C1.42016 26.7783 0.985107 30.2135 0.985107 31.9892V32.0108C0.985107 33.7865 1.1357 35.5268 1.42115 37.2208H19.7095L6.77478 50.1476C8.80917 53.0023 11.3051 55.4979 14.16 57.5319L27.0908 44.604V62.8904C28.7819 63.1739 30.5162 63.3235 32.288 63.3255H32.3322C34.0737 63.3239 35.8119 63.1784 37.5294 62.8904V44.604L50.4612 57.5348C51.8856 56.5202 53.2233 55.3889 54.4604 54.1528H54.4634C55.698 52.9153 56.8279 51.5777 57.8415 50.1535L44.9136 37.2217H63.202C63.4855 35.5287 63.6351 33.7944 63.6351 32.0226V31.9774C63.6351 30.2351 63.4894 28.4978 63.202 26.7802L63.2011 26.7783Z" fill="black"/>
</svg>
