<?xml version="1.0" encoding="utf-8"?>
<!-- Generator: Adobe Illustrator 22.0.0, SVG Export Plug-In . SVG Version: 6.00 Build 0)  -->
<svg version="1.1" id="Layer_1" xmlns="http://www.w3.org/2000/svg" xmlns:xlink="http://www.w3.org/1999/xlink" x="0px" y="0px"
	 viewBox="0 0 65 64" style="enable-background:new 0 0 65 64;" xml:space="preserve">
<g>
	<path d="M61.6,18.4C60.9,18,60,18,59.3,18.5l-10.7,6.9c-0.9,0.6-1.4,1.5-1.4,2.6V36c0,1,0.5,2,1.4,2.6l10.7,6.9
		c0.4,0.2,0.8,0.4,1.2,0.4c0.4,0,0.7-0.1,1.1-0.3c0.7-0.4,1.2-1.2,1.2-2V20.4C62.8,19.5,62.3,18.8,61.6,18.4z M58.3,39.5l-6.6-4.3
		v-6.5l6.6-4.3V39.5z"/>
	<path d="M31.1,15.9H4.5c-1.2,0-2.3,1-2.3,2.3V37c0,6.1,5.1,11.1,11.4,11.1h26.6c1.2,0,2.3-1,2.3-2.3V27
		C42.5,20.9,37.4,15.9,31.1,15.9z M38,43.6H13.6c-3.8,0-6.9-3-6.9-6.6V20.4h24.4c3.8,0,6.9,3,6.9,6.6V43.6z"/>
</g>
</svg>
