<?xml version="1.0" encoding="utf-8"?>
<!-- Generator: Adobe Illustrator 22.0.0, SVG Export Plug-In . SVG Version: 6.00 Build 0)  -->
<svg version="1.1" id="lni_lni-bolt" xmlns="http://www.w3.org/2000/svg" xmlns:xlink="http://www.w3.org/1999/xlink" x="0px"
	 y="0px" viewBox="0 0 64 64" style="enable-background:new 0 0 64 64;" xml:space="preserve">
<g>
	<path d="M28.4,62.3c-0.7,0-1.3-0.1-2-0.4c-1.9-0.9-2.9-2.9-2.5-5l3-15.9H8.6c-1.7,0-3.3-1-4.1-2.5c-0.8-1.5-0.6-3.4,0.4-4.8
		L27.4,3.6C28.6,2,30.6,1.4,32.5,2c1.9,0.6,3.1,2.3,3.1,4.3v14.1h19.8c1.8,0,3.4,1,4.1,2.6c0.8,1.6,0.5,3.5-0.6,4.8L31.9,60.6
		C31,61.7,29.7,62.3,28.4,62.3z M31,6.3L8.5,36.4l21.1,0.1c0.7,0,1.3,0.3,1.7,0.8c0.4,0.5,0.6,1.2,0.5,1.9l-3.5,18.6
		c0,0,0.1,0.1,0.1,0.1L55.5,25l-22.1-0.1c-1.2,0-2.3-1-2.3-2.3L31,6.3L31,6.3z"/>
</g>
</svg>
