<?xml version="1.0" encoding="utf-8"?>
<!-- Generator: Adobe Illustrator 22.0.0, SVG Export Plug-In . SVG Version: 6.00 Build 0)  -->
<svg version="1.1" id="lni_lni-bolt-alt" xmlns="http://www.w3.org/2000/svg" xmlns:xlink="http://www.w3.org/1999/xlink" x="0px"
	 y="0px" viewBox="0 0 64 64" style="enable-background:new 0 0 64 64;" xml:space="preserve">
<g>
	<path d="M23.8,62.3c-1.2,0-2.3-0.5-3.1-1.4c-1.5-1.7-1-3.7-0.8-4.6l5.3-22.7l-10.3,0c-0.7,0-2.1,0-3.3-0.9c-2-1.6-1.4-4.3-1.3-5.2
		l4.2-20.5c0.2-1.1,0.6-2.8,2.1-4C18.3,1.7,20,1.7,21,1.8l13.7,0c1.2,0,3.7,0,5.2,1.9c1.5,1.9,1,4.4,0.8,5.6L39.5,15l8.8,0.1
		c3.5,0,4.8,1.6,5.2,2.9c0.7,2-0.5,3.8-1,4.5L28,59.4c-0.5,0.7-1.2,1.8-2.5,2.5c-0.5,0.2-1,0.4-1.5,0.4c0,0,0,0,0,0
		C24,62.2,23.9,62.3,23.8,62.3z M23.9,60L23.9,60L23.9,60z M14.8,29c0.1,0,0.2,0,0.2,0l13.1,0c0.7,0,1.3,0.3,1.8,0.9
		c0.4,0.5,0.6,1.2,0.4,1.9l-5.8,24.8L48.7,20c0.1-0.1,0.2-0.3,0.2-0.4c-0.2,0-0.4,0-0.8,0l-11.5-0.1c-0.7,0-1.3-0.3-1.7-0.8
		c-0.4-0.5-0.6-1.2-0.4-1.9l1.8-8.5c0.3-1.4,0.2-1.7,0.1-1.8c-0.1-0.1-0.4-0.2-1.8-0.2L21,6.3c0,0,0,0,0,0c-0.8,0-1.3,0-1.4,0.1
		c-0.1,0.1-0.3,0.6-0.5,1.4l-4.2,20.5C14.9,28.6,14.8,28.8,14.8,29z"/>
</g>
</svg>
