<?xml version="1.0" encoding="utf-8"?>
<!-- Generator: Adobe Illustrator 22.0.0, SVG Export Plug-In . SVG Version: 6.00 Build 0)  -->
<svg version="1.1" id="lni_lni-check-box" xmlns="http://www.w3.org/2000/svg" xmlns:xlink="http://www.w3.org/1999/xlink" x="0px"
	 y="0px" viewBox="0 0 64 64" style="enable-background:new 0 0 64 64;" xml:space="preserve">
<g id="Layer_2_1_">
</g>
<path d="M61.6,8.8c-0.9-0.9-2.3-0.9-3.2,0l-3.6,3.6v-0.7c0-3.4-2.8-6.3-6.3-6.3H8c-3.4,0-6.3,2.8-6.3,6.3v40.6
	c0,3.4,2.8,6.3,6.3,6.3h40.6c3.4,0,6.3-2.8,6.3-6.3V18.8l6.8-6.8C62.5,11.1,62.5,9.7,61.6,8.8z M50.3,52.3c0,1-0.8,1.8-1.8,1.8H8
	c-1,0-1.8-0.8-1.8-1.8V11.7C6.3,10.8,7,10,8,10h40.6c1,0,1.8,0.8,1.8,1.8v5.2L40.1,27.2L33.9,21c-0.9-0.9-2.3-0.9-3.2,0
	c-0.9,0.9-0.9,2.3,0,3.2l7.8,7.8c0,0,0,0,0,0c0,0,0,0,0,0c0,0,0.1,0.1,0.2,0.1c0.1,0.1,0.1,0.1,0.2,0.2c0.1,0,0.1,0.1,0.2,0.1
	c0.1,0,0.1,0.1,0.2,0.1c0.1,0,0.2,0.1,0.3,0.1c0.1,0,0.1,0,0.2,0c0.1,0,0.3,0,0.4,0c0.1,0,0.3,0,0.4,0c0,0,0,0,0,0
	c0.1,0,0.2-0.1,0.4-0.1c0,0,0,0,0.1,0c0.1,0,0.2-0.1,0.3-0.2c0,0,0.1,0,0.1-0.1c0.1-0.1,0.2-0.1,0.3-0.2c0,0,0,0,0,0c0,0,0,0,0,0
	l8.6-8.6V52.3z"/>
</svg>
