<?xml version="1.0" encoding="utf-8"?>
<!-- Generator: Adobe Illustrator 22.0.0, SVG Export Plug-In . SVG Version: 6.00 Build 0)  -->
<svg version="1.1" id="lni_lni-circle-plus" xmlns="http://www.w3.org/2000/svg" xmlns:xlink="http://www.w3.org/1999/xlink"
	 x="0px" y="0px" viewBox="0 0 64 64" style="enable-background:new 0 0 64 64;" xml:space="preserve">
<g>
	<path d="M42.2,29.7C42.2,29.7,42.2,29.7,42.2,29.7l-8,0l0-7.9c0-1.2-1-2.2-2.3-2.2c0,0,0,0,0,0c-1.2,0-2.2,1-2.2,2.3l0,7.9l-7.9,0
		c-1.2,0-2.2,1-2.2,2.3c0,1.2,1,2.2,2.3,2.2c0,0,0,0,0,0l7.9,0l0,7.9c0,1.2,1,2.2,2.3,2.2c0,0,0,0,0,0c1.2,0,2.2-1,2.2-2.3l0-7.9
		l7.9,0c1.2,0,2.2-1,2.2-2.3C44.4,30.7,43.4,29.7,42.2,29.7z"/>
	<path d="M32,1.8C15.3,1.8,1.8,15.3,1.8,32c0,16.7,13.6,30.3,30.3,30.3c16.7,0,30.3-13.6,30.3-30.3C62.3,15.3,48.7,1.8,32,1.8z
		 M32,57.8C17.8,57.8,6.3,46.2,6.3,32S17.8,6.3,32,6.3S57.8,17.8,57.8,32S46.2,57.8,32,57.8z"/>
</g>
</svg>
