<?xml version="1.0" encoding="utf-8"?>
<!-- Generator: Adobe Illustrator 22.0.0, SVG Export Plug-In . SVG Version: 6.00 Build 0)  -->
<svg version="1.1" id="lni_lni-flag" xmlns="http://www.w3.org/2000/svg" xmlns:xlink="http://www.w3.org/1999/xlink" x="0px"
	 y="0px" viewBox="0 0 64 64" style="enable-background:new 0 0 64 64;" xml:space="preserve">
<path d="M50.7,11.5c-1.2-1.3-2.8-2.1-4.6-2.1H16.3V4c0-1.2-1-2.3-2.3-2.3s-2.3,1-2.3,2.3v56c0,1.2,1,2.3,2.3,2.3s2.3-1,2.3-2.3V36.8
	h27.7c3.1,0,5.7-2.3,6.1-5.3l2-15.2C52.3,14.5,51.8,12.8,50.7,11.5z M45.7,30.9c-0.1,0.8-0.8,1.4-1.6,1.4H16.3V13.9h29.7
	c0.6,0,1,0.3,1.2,0.5c0.2,0.2,0.5,0.6,0.4,1.3L45.7,30.9z"/>
</svg>
