<?xml version="1.0" encoding="utf-8"?>
<!-- Generator: Adobe Illustrator 22.0.0, SVG Export Plug-In . SVG Version: 6.00 Build 0)  -->
<svg version="1.1" id="lni_lni-flag-alt" xmlns="http://www.w3.org/2000/svg" xmlns:xlink="http://www.w3.org/1999/xlink" x="0px"
	 y="0px" viewBox="0 0 64 64" style="enable-background:new 0 0 64 64;" xml:space="preserve">
<path d="M51.9,33.7l-3.4-8l3.4-8c0.1-0.1,0.1-0.3,0.1-0.4c0-0.1,0-0.3,0-0.5c0-1.2-1-2.3-2.3-2.3H34.3v-2.8c0-1.2-1-2.3-2.3-2.3
	H16.4V4c0-1.2-1-2.3-2.3-2.3s-2.3,1-2.3,2.3v56c0,1.2,1,2.3,2.3,2.3s2.3-1,2.3-2.3V31.7h13.3v1.8c0,1.8,1.5,3.3,3.3,3.3h16.7
	c1.2,0,2.3-1,2.3-2.3C52.1,34.2,52,33.9,51.9,33.7C51.9,33.7,51.9,33.7,51.9,33.7z M16.4,27.2V13.9h13.3v13.3H16.4z M34.3,19h12.2
	l-2.8,6.7l2.8,6.7H34.3V19z"/>
</svg>
