<?xml version="1.0" encoding="utf-8"?>
<!-- Generator: Adobe Illustrator 22.0.0, SVG Export Plug-In . SVG Version: 6.00 Build 0)  -->
<svg version="1.1" id="lni_lni-funnel" xmlns="http://www.w3.org/2000/svg" xmlns:xlink="http://www.w3.org/1999/xlink" x="0px"
	 y="0px" viewBox="0 0 64 64" style="enable-background:new 0 0 64 64;" xml:space="preserve">
<g>
	<path d="M26.2,62.2c-0.6,0-1.2-0.2-1.8-0.5c-1-0.6-1.5-1.6-1.5-2.7V27.2L5.4,6.9C4.7,5.9,4.5,4.6,5,3.5c0.5-1.1,1.7-1.8,3-1.8H56
		c1.3,0,2.5,0.8,3,2c0.5,1.2,0.3,2.4-0.6,3.4l-17.2,20v23.3c0,0.6-0.2,1.5-1.1,2.4L39.9,53l-12,8.9C27.4,62.1,26.8,62.2,26.2,62.2z
		 M26.7,24.6c0.5,0.6,0.8,1.5,0.8,2.1v29.9l9.3-6.9v-23c0-0.5,0-1.4,0.8-2.2L53.2,6.3H10.8L26.7,24.6z M23.2,27.5
		c0,0,0.1,0.1,0.1,0.1L23.2,27.5z M55.1,4.1C55.1,4.1,55.1,4.1,55.1,4.1L55.1,4.1z"/>
</g>
</svg>
