<?xml version="1.0" encoding="utf-8"?>
<!-- Generator: Adobe Illustrator 22.0.0, SVG Export Plug-In . SVG Version: 6.00 Build 0)  -->
<svg version="1.1" id="lni_lni-hand" xmlns="http://www.w3.org/2000/svg" xmlns:xlink="http://www.w3.org/1999/xlink" x="0px"
	 y="0px" viewBox="0 0 64 64" style="enable-background:new 0 0 64 64;" xml:space="preserve">
<style type="text/css">
	.st0{fill:#030104;}
</style>
<path class="st0" d="M57.3,45.8l0-30.6c0-3.2-2.8-5.7-6.2-5.7c-0.6,0-1.2,0.1-1.7,0.2V8.5c0-3.2-2.8-5.7-6.2-5.7
	c-1.2,0-2.4,0.3-3.3,0.9c-1.1-1.2-2.8-1.9-4.6-1.9c-2.6,0-4.9,1.5-5.8,3.6C28.8,5.1,28.1,5,27.3,5c-3.4,0-6.2,2.6-6.2,5.7v21.6
	l-1.3-1.6c-2.3-3-6.5-4-9.8-2.2c-1.6,0.9-2.8,2.4-3.2,4.2c-0.4,1.8,0,3.7,1.2,5.3l9,11.9c0.5,0.6,0.9,1.3,1.4,1.9
	c1.4,2,2.9,4.2,5,5.9c4,3.3,9.4,4.5,14.5,4.5c2.5,0,4.8-0.3,7-0.7C57.4,58.8,57.4,49.4,57.3,45.8z M43.9,57.1
	c-5.2,1.1-13,1.1-17.6-2.8c-1.6-1.4-2.9-3.2-4.2-5.1c-0.5-0.7-1-1.4-1.5-2.1l-9-11.9c-0.4-0.5-0.5-1.1-0.4-1.6
	c0.1-0.5,0.4-0.9,0.9-1.2c1.3-0.7,3.2-0.2,4.1,1c0,0,0.1,0.1,0.1,0.1l5.4,6.4c0.6,0.7,1.6,1,2.5,0.7c0.9-0.3,1.5-1.2,1.5-2.1V10.7
	c0-0.6,0.8-1.2,1.7-1.2c0.9,0,1.7,0.6,1.7,1.2l0,17.6c0,1.2,1,2.3,2.3,2.3s2.2-1,2.2-2.3l0-20.9c0-0.7,0.8-1.2,1.7-1.2
	S37,6.8,37,7.5v21.6c0,1.2,1,2.3,2.3,2.3s2.3-1,2.3-2.3V8.5c0-0.6,0.8-1.2,1.7-1.2s1.7,0.6,1.7,1.2v22.6c0,1.2,1,2.3,2.3,2.3
	s2.3-1,2.3-2.3V15.1c0.1-0.6,0.8-1.1,1.7-1.1c0.9,0,1.7,0.6,1.7,1.2v30.3l0,0.4C52.9,50.4,52.2,55.3,43.9,57.1z"/>
</svg>
