<?xml version="1.0" encoding="utf-8"?>
<!-- Generator: Adobe Illustrator 22.0.0, SVG Export Plug-In . SVG Version: 6.00 Build 0)  -->
<svg version="1.1" id="lni_lni-heart-filled" xmlns="http://www.w3.org/2000/svg" xmlns:xlink="http://www.w3.org/1999/xlink"
	 x="0px" y="0px" viewBox="0 0 64 64" style="enable-background:new 0 0 64 64;" xml:space="preserve">
<path d="M32,57.6c-0.8,0-1.6-0.3-2.2-0.8c-2.3-2-4.6-3.9-6.6-5.6l0,0c-5.8-4.9-10.9-9.2-14.4-13.4C4.8,33,3,28.6,3,23.7
	c0-4.7,1.6-9.1,4.6-12.3c3-3.2,7.1-5,11.6-5c3.3,0,6.4,1.1,9.1,3.1c1.1,0.8,2,1.8,2.9,2.9c0.4,0.5,1.1,0.5,1.5,0
	c0.9-1.1,1.9-2,2.9-2.9c2.7-2.1,5.8-3.1,9.1-3.1c4.5,0,8.6,1.8,11.6,5c3,3.2,4.6,7.6,4.6,12.3c0,4.9-1.8,9.3-5.8,14
	c-3.5,4.2-8.6,8.5-14.4,13.4c-2,1.7-4.3,3.6-6.6,5.6C33.6,57.3,32.8,57.6,32,57.6z"/>
</svg>
