<?xml version="1.0" encoding="utf-8"?>
<!-- Generator: Adobe Illustrator 22.0.0, SVG Export Plug-In . SVG Version: 6.00 Build 0)  -->
<svg version="1.1" id="lni_lni-heart" xmlns="http://www.w3.org/2000/svg" xmlns:xlink="http://www.w3.org/1999/xlink" x="0px"
	 y="0px" viewBox="0 0 64 64" style="enable-background:new 0 0 64 64;" xml:space="preserve">
<g>
	<path d="M32,59c-1.3,0-2.6-0.5-3.6-1.4c-2.3-2-4.4-3.8-6.3-5.4c-5.7-4.9-10.7-9-14.2-13.2c-4.1-5-6.1-9.7-6.1-15
		c0-5.1,1.8-9.9,5-13.4C10.1,7,14.7,5,19.6,5c3.7,0,7.2,1.2,10.2,3.5c0.8,0.6,1.5,1.2,2.2,2c0.7-0.7,1.4-1.4,2.2-2
		c3-2.3,6.4-3.5,10.2-3.5c5,0,9.5,2,12.8,5.6c3.3,3.5,5,8.3,5,13.4c0,5.3-1.9,10-6.1,15c-3.5,4.2-8.5,8.4-14.2,13.2
		c-1.9,1.6-4.1,3.5-6.4,5.4C34.6,58.5,33.3,59,32,59z M19.6,9.5c-3.7,0-7.1,1.5-9.6,4.1C7.6,16.3,6.3,20,6.3,24c0,4.1,1.6,8,5,12.1
		c3.3,3.9,8.1,8,13.6,12.7c1.9,1.6,4.1,3.5,6.4,5.5c0.4,0.3,1,0.3,1.4,0c2.3-2,4.5-3.8,6.4-5.5C44.7,44,49.5,40,52.7,36.1
		c3.4-4.1,5-8,5-12.1c0-4-1.4-7.7-3.8-10.3C51.4,11,48,9.5,44.4,9.5c-2.7,0-5.2,0.9-7.4,2.5c-0.9,0.7-1.7,1.5-2.5,2.4
		c-0.6,0.7-1.5,1.2-2.5,1.2s-1.8-0.4-2.5-1.2c-0.8-0.9-1.6-1.7-2.5-2.4C24.9,10.4,22.4,9.5,19.6,9.5z"/>
</g>
</svg>
