<?xml version="1.0" encoding="utf-8"?>
<!-- Generator: Adobe Illustrator 22.0.0, SVG Export Plug-In . SVG Version: 6.00 Build 0)  -->
<svg version="1.1" id="lni_lni-help" xmlns="http://www.w3.org/2000/svg" xmlns:xlink="http://www.w3.org/1999/xlink" x="0px"
	 y="0px" viewBox="0 0 64 64" style="enable-background:new 0 0 64 64;" xml:space="preserve">
<g>
	<path d="M45.9,16.7c-0.7-6.6-6.1-12-12.9-12.9c-6.2-0.7-12,2.4-14.8,7.8c-0.6,1.1-0.1,2.5,1,3c1.1,0.6,2.5,0.1,3-1
		c2-3.8,6-5.9,10.3-5.5c4.7,0.6,8.4,4.4,8.9,8.9c0.5,4.3-1.8,8.4-5.7,10.2c-4.1,2-6.7,6.2-6.7,10.9v9.9c0,1.2,1,2.3,2.3,2.3
		s2.3-1,2.3-2.3v-9.9c0-2.9,1.7-5.6,4.2-6.8C43.3,28.9,46.6,22.9,45.9,16.7z"/>
	<path d="M31.3,55.2c-1.2,0-2.3,1-2.3,2.3V58c0,1.2,1,2.3,2.3,2.3s2.3-1,2.3-2.3v-0.5C33.5,56.2,32.5,55.2,31.3,55.2z"/>
</g>
</svg>
