<?xml version="1.0" encoding="utf-8"?>
<!-- Generator: Adobe Illustrator 22.0.0, SVG Export Plug-In . SVG Version: 6.00 Build 0)  -->
<svg version="1.1" id="lni_lni-infinite" xmlns="http://www.w3.org/2000/svg" xmlns:xlink="http://www.w3.org/1999/xlink" x="0px"
	 y="0px" viewBox="0 0 64 64" style="enable-background:new 0 0 64 64;" xml:space="preserve">
<path d="M48,17.8c-5.8,0-12.8,7-16,10.7c-3.3-3.7-10.2-10.7-16-10.7C8.1,17.8,1.8,24.2,1.8,32S8.1,46.2,16,46.2
	c5.8,0,12.8-7,16-10.7c3.3,3.7,10.2,10.7,16,10.7c7.8,0,14.2-6.4,14.2-14.2S55.9,17.8,48,17.8z M16,41.7c-5.4,0-9.7-4.4-9.7-9.7
	s4.4-9.7,9.7-9.7c3.6,0,9.5,5.5,13.1,9.7C25.5,36.2,19.6,41.7,16,41.7z M48,41.7c-3.6,0-9.5-5.5-13.1-9.7c3.6-4.2,9.5-9.7,13.1-9.7
	c5.4,0,9.7,4.4,9.7,9.7S53.4,41.7,48,41.7z"/>
</svg>
