<?xml version="1.0" encoding="utf-8"?>
<!-- Generator: Adobe Illustrator 22.0.0, SVG Export Plug-In . SVG Version: 6.00 Build 0)  -->
<svg version="1.1" id="lni_lni-invention" xmlns="http://www.w3.org/2000/svg" xmlns:xlink="http://www.w3.org/1999/xlink" x="0px"
	 y="0px" viewBox="0 0 64 64" style="enable-background:new 0 0 64 64;" xml:space="preserve">
<g>
	<path d="M43.6,21.9c-3.4-3.2-7.8-4.8-12.6-4.5c-8.7,0.5-15.6,7.7-15.7,16.3c-0.1,5.5,2.5,10.5,6.8,13.6v7.2c0,3.7,3,6.6,6.7,6.6
		h6.2c3.7,0,6.7-3,6.7-6.6v-7.1c4.4-3.1,7-8.1,7-13.5C48.8,29.4,46.9,25.1,43.6,21.9L43.6,21.9z M35.1,56.7h-6.2
		c-1.2,0-2.2-1-2.2-2.1v-6.1h10.7v6.1C37.3,55.7,36.3,56.7,35.1,56.7z M38.9,43.9h-4.7v-2.7c0-1.2-1-2.3-2.3-2.3
		c-1.2,0-2.3,1-2.3,2.3v2.7h-4.6c-3.4-2.3-5.4-6-5.3-10.2c0.1-6.3,5.1-11.5,11.5-11.9c0.2,0,0.5,0,0.7,0c3.3,0,6.2,1.1,8.5,3.3
		c2.4,2.3,3.8,5.5,3.8,8.8C44.3,38,42.3,41.7,38.9,43.9z"/>
	<path d="M32,13.1c1.2,0,2.3-1,2.3-2.3V5.1c0-1.2-1-2.3-2.3-2.3c-1.2,0-2.3,1-2.3,2.3v5.8C29.8,12.1,30.8,13.1,32,13.1z"/>
	<path d="M58,16.4c0.9-0.9,0.9-2.3,0-3.2s-2.3-0.9-3.2,0l-4,3.9c-0.9,0.9-0.9,2.3,0,3.2c0.4,0.4,1,0.7,1.6,0.7
		c0.6,0,1.1-0.2,1.6-0.6L58,16.4z"/>
	<path d="M9.2,13.2c-0.9-0.9-2.3-0.9-3.2,0c-0.9,0.9-0.9,2.3,0,3.2l3.9,3.9c0.4,0.4,1,0.7,1.6,0.7s1.2-0.2,1.6-0.7
		c0.9-0.9,0.9-2.3,0-3.2L9.2,13.2z"/>
	<path d="M8.8,35.9H3c-1.2,0-2.3,1-2.3,2.3s1,2.3,2.3,2.3h5.8c1.2,0,2.3-1,2.3-2.3S10,35.9,8.8,35.9z"/>
	<path d="M61,35.9h-5.8c-1.2,0-2.3,1-2.3,2.3s1,2.3,2.3,2.3H61c1.2,0,2.3-1,2.3-2.3S62.2,35.9,61,35.9z"/>
</g>
</svg>
