<?xml version="1.0" encoding="utf-8"?>
<!-- Generator: Adobe Illustrator 22.0.0, SVG Export Plug-In . SVG Version: 6.00 Build 0)  -->
<svg version="1.1" id="lni_lni-key" xmlns="http://www.w3.org/2000/svg" xmlns:xlink="http://www.w3.org/1999/xlink" x="0px"
	 y="0px" viewBox="0 0 64 64" style="enable-background:new 0 0 64 64;" xml:space="preserve">
<path d="M60.1,43.3L48.6,31.9c-3-2.9-7.5-2.9-10.4,0l-1.5,1.5L7,2.4C6.2,1.5,4.7,1.5,3.8,2.4C2.9,3.2,2.9,4.7,3.8,5.6l3.4,3.6
	l-4.8,5c-0.9,0.9-0.8,2.3,0.1,3.2c0.4,0.4,1,0.6,1.6,0.6c0.6,0,1.2-0.2,1.6-0.7l4.7-4.9l5.6,5.9l-7,7.4c-0.9,0.9-0.8,2.3,0.1,3.2
	c0.4,0.4,1,0.6,1.6,0.6c0.6,0,1.2-0.2,1.6-0.7l6.9-7.2l14.5,15.1l-1.5,1.5c-2.9,3-2.9,7.5,0,10.4l11.4,11.6c1.5,1.4,3.4,2.1,5.2,2.1
	c1.9,0,3.8-0.7,5.2-2.2l6.2-6.2h0c1.4-1.4,2.2-3.3,2.2-5.3C62.2,46.6,61.5,44.7,60.1,43.3z M56.9,50.7l-6.2,6.2
	c-1.2,1.2-2.9,1.2-4.1,0L35.1,45.4c-1.2-1.2-1.2-2.9,0-4.1l3-3c0,0,0,0,0.1-0.1c0,0,0.1-0.1,0.1-0.1l3.1-3.1c0.6-0.6,1.3-0.9,2-0.9
	c0.7,0,1.5,0.3,2.1,0.9l11.4,11.5c0.6,0.6,0.9,1.3,0.9,2.1C57.7,49.4,57.4,50.1,56.9,50.7z"/>
</svg>
