<?xml version="1.0" encoding="utf-8"?>
<!-- Generator: Adobe Illustrator 22.0.0, SVG Export Plug-In . SVG Version: 6.00 Build 0)  -->
<svg version="1.1" id="lni_lni-lifering" xmlns="http://www.w3.org/2000/svg" xmlns:xlink="http://www.w3.org/1999/xlink" x="0px"
	 y="0px" viewBox="0 0 64 64" style="enable-background:new 0 0 64 64;" xml:space="preserve">
<g>
	<path d="M32,62.2c-7.7,0-15.5-2.9-21.4-8.8C4.9,47.7,1.8,40.1,1.8,32s3.1-15.7,8.9-21.4C16.3,4.9,23.9,1.8,32,1.8
		s15.7,3.1,21.4,8.9c11.8,11.8,11.8,31,0,42.8C47.5,59.3,39.7,62.2,32,62.2z M21.2,55.4c6.8,3.1,14.7,3.1,21.6,0L32,44.6L21.2,55.4z
		 M10.9,46.8c0.8,1.2,1.8,2.3,2.9,3.4c1.1,1.1,2.2,2,3.4,2.9l10.9-10.9c-1.4-0.5-2.7-1.4-3.8-2.5s-1.9-2.4-2.5-3.8L10.9,46.8z
		 M35.9,42.2l10.9,10.9c1.2-0.8,2.3-1.8,3.4-2.9c1.1-1.1,2-2.2,2.9-3.4L42.2,35.9c-0.5,1.4-1.4,2.7-2.5,3.8S37.3,41.6,35.9,42.2z
		 M8.6,21.2c-1.5,3.3-2.4,7-2.4,10.8s0.8,7.4,2.4,10.8L19.4,32L8.6,21.2z M44.6,32l10.8,10.8c3.1-6.8,3.1-14.7,0-21.6L44.6,32z
		 M32,25.6c-1.7,0-3.3,0.7-4.5,1.9c-1.2,1.2-1.9,2.8-1.9,4.5s0.7,3.3,1.9,4.5c1.2,1.2,2.8,1.9,4.5,1.9s3.3-0.7,4.5-1.9
		s1.9-2.8,1.9-4.5s-0.7-3.3-1.9-4.5l0,0C35.3,26.3,33.7,25.6,32,25.6z M10.9,17.2l10.9,10.9c0.5-1.4,1.4-2.7,2.5-3.8
		c1.1-1.1,2.4-1.9,3.8-2.5L17.2,10.9c-1.2,0.8-2.3,1.8-3.4,2.9C12.7,14.9,11.8,16,10.9,17.2z M39.7,24.3c1.1,1.1,1.9,2.4,2.5,3.8
		l10.9-10.9c-0.8-1.2-1.8-2.3-2.9-3.4c-1.1-1.1-2.2-2-3.4-2.9L35.9,21.8C37.3,22.4,38.6,23.2,39.7,24.3L39.7,24.3L39.7,24.3
		L39.7,24.3z M21.2,8.6L32,19.4L42.8,8.6c-3.3-1.5-7-2.4-10.8-2.4S24.6,7.1,21.2,8.6z"/>
</g>
</svg>
