<?xml version="1.0" encoding="utf-8"?>
<!-- Generator: Adobe Illustrator 22.0.0, SVG Export Plug-In . SVG Version: 6.00 Build 0)  -->
<svg version="1.1" id="lni_lni-list" xmlns="http://www.w3.org/2000/svg" xmlns:xlink="http://www.w3.org/1999/xlink" x="0px"
	 y="0px" viewBox="0 0 64 64" style="enable-background:new 0 0 64 64;" xml:space="preserve">
<g>
	<path d="M16.1,14.5h44.5c1.2,0,2.3-1,2.3-2.3s-1-2.3-2.3-2.3H16.1c-1.2,0-2.3,1-2.3,2.3S14.8,14.5,16.1,14.5z"/>
	<path d="M60.5,29.8H16.1c-1.2,0-2.3,1-2.3,2.3c0,1.2,1,2.3,2.3,2.3h44.5c1.2,0,2.3-1,2.3-2.3C62.8,30.8,61.8,29.8,60.5,29.8z"/>
	<path d="M60.5,49.5H16.1c-1.2,0-2.3,1-2.3,2.3s1,2.3,2.3,2.3h44.5c1.2,0,2.3-1,2.3-2.3S61.8,49.5,60.5,49.5z"/>
	<circle cx="6.2" cy="12.2" r="2.7"/>
	<circle cx="6.2" cy="32" r="2.7"/>
	<circle cx="6.2" cy="51.8" r="2.7"/>
</g>
</svg>
