<?xml version="1.0" encoding="utf-8"?>
<!-- Generator: Adobe Illustrator 22.0.0, SVG Export Plug-In . SVG Version: 6.00 Build 0)  -->
<svg version="1.1" id="lni_lni-lock-alt" xmlns="http://www.w3.org/2000/svg" xmlns:xlink="http://www.w3.org/1999/xlink" x="0px"
	 y="0px" viewBox="0 0 64 64" style="enable-background:new 0 0 64 64;" xml:space="preserve">
<g>
	<path d="M47,19.8v-2.6c0-8-6-14.8-13.6-15.4c-4.2-0.4-8.4,1.1-11.5,3.9C18.8,8.5,17,12.5,17,16.6v3.2C11.2,20.9,6.8,26,6.8,32.2
		v18.1c0,6.6,5.4,11.9,11.9,11.9h26.4c6.6,0,12-5.4,12-12V32C57.2,26,52.8,21,47,19.8z M24.9,9c2.2-2,5.1-3,8.1-2.7
		c5.3,0.5,9.5,5.3,9.5,10.9v2.3H21.5v-3C21.5,13.7,22.7,11,24.9,9z M52.7,50.3c0,4.1-3.4,7.5-7.5,7.5H18.8c-4.1,0-7.4-3.3-7.4-7.4
		V32.2c0-4.5,3.6-8.1,8.1-8.1h25c4.5,0,8.2,3.6,8.2,7.9V50.3z"/>
	<path d="M32,34.5c-1.2,0-2.3,1-2.3,2.3v10.5c0,1.2,1,2.3,2.3,2.3c1.2,0,2.3-1,2.3-2.3V36.7C34.3,35.5,33.2,34.5,32,34.5z"/>
</g>
</svg>
