<?xml version="1.0" encoding="utf-8"?>
<!-- Generator: Adobe Illustrator 22.0.0, SVG Export Plug-In . SVG Version: 6.00 Build 0)  -->
<svg version="1.1" id="lni_lni-lock" xmlns="http://www.w3.org/2000/svg" xmlns:xlink="http://www.w3.org/1999/xlink" x="0px"
	 y="0px" viewBox="0 0 64 64" style="enable-background:new 0 0 64 64;" xml:space="preserve">
<g>
	<path d="M50.4,21.9h-6.1v-7.4c0-6.8-5.5-12.3-12.3-12.3S19.8,7.7,19.8,14.5v7.4h-6.1c-3.8,0-6.9,3-6.9,6.6V43
		c0,10.3,8.9,18.7,19.8,18.7h11c10.9,0,19.7-8.5,19.7-19V28.5C57.3,24.9,54.2,21.9,50.4,21.9z M24.3,14.5c0-4.3,3.5-7.8,7.8-7.8
		s7.8,3.5,7.8,7.8v7.4H24.3V14.5z M52.8,42.7c0,8-6.8,14.5-15.2,14.5h-11c-8.4,0-15.3-6.4-15.3-14.2V28.5c0-1.2,1.1-2.1,2.4-2.1
		h36.7c1.3,0,2.4,0.9,2.4,2.1V42.7z"/>
	<path d="M36.1,39.4h-8.2c-1.8,0-3.3,1.5-3.3,3.3v8.2c0,1.8,1.5,3.3,3.3,3.3h8.2c1.8,0,3.3-1.5,3.3-3.3v-8.2
		C39.4,40.9,37.9,39.4,36.1,39.4z M34.9,49.6h-5.7v-5.7h5.7V49.6z"/>
</g>
</svg>
