<?xml version="1.0" encoding="utf-8"?>
<!-- Generator: Adobe Illustrator 22.0.0, SVG Export Plug-In . SVG Version: 6.00 Build 0)  -->
<svg version="1.1" id="lni_lni-plus" xmlns="http://www.w3.org/2000/svg" xmlns:xlink="http://www.w3.org/1999/xlink" x="0px"
	 y="0px" viewBox="0 0 64 64" style="enable-background:new 0 0 64 64;" xml:space="preserve">
<path d="M60,29.8H34.3V4c0-1.2-1-2.3-2.3-2.3c-1.2,0-2.3,1-2.3,2.3v25.8H4c-1.2,0-2.3,1-2.3,2.3c0,1.2,1,2.3,2.3,2.3h25.8V60
	c0,1.2,1,2.3,2.3,2.3c1.2,0,2.3-1,2.3-2.3V34.3H60c1.2,0,2.3-1,2.3-2.3C62.3,30.8,61.2,29.8,60,29.8z"/>
</svg>
