<?xml version="1.0" encoding="utf-8"?>
<!-- Generator: Adobe Illustrator 22.0.0, SVG Export Plug-In . SVG Version: 6.00 Build 0)  -->
<svg version="1.1" id="lni_lni-power-switch" xmlns="http://www.w3.org/2000/svg" xmlns:xlink="http://www.w3.org/1999/xlink"
	 x="0px" y="0px" viewBox="0 0 64 64" style="enable-background:new 0 0 64 64;" xml:space="preserve">
<g>
	<path d="M32,37.9c1.2,0,2.3-1,2.3-2.3V5c0-1.2-1-2.3-2.3-2.3c-1.2,0-2.3,1-2.3,2.3v30.7C29.8,36.9,30.8,37.9,32,37.9z"/>
	<path d="M43.1,9.7c-1.1-0.5-2.5,0-3,1.1c-0.5,1.1,0,2.5,1.1,3c8,3.6,13.2,11.7,13.2,20.5c0,12.4-10.1,22.5-22.5,22.5
		S9.5,46.7,9.5,34.3c0-8.8,5.2-16.8,13.2-20.5c1.1-0.5,1.6-1.8,1.1-3c-0.5-1.1-1.8-1.6-3-1.1C11.3,14.1,5,23.7,5,34.3
		c0,14.9,12.1,27,27,27s27-12.1,27-27C59,23.7,52.7,14.1,43.1,9.7z"/>
</g>
</svg>
