<?xml version="1.0" encoding="utf-8"?>
<!-- Generator: Adobe Illustrator 22.0.0, SVG Export Plug-In . SVG Version: 6.00 Build 0)  -->
<svg version="1.1" id="lni_lni-protection" xmlns="http://www.w3.org/2000/svg" xmlns:xlink="http://www.w3.org/1999/xlink" x="0px"
	 y="0px" viewBox="0 0 64 64" style="enable-background:new 0 0 64 64;" xml:space="preserve">
<g>
	<path d="M53.6,7.5L33.3,1.9c-0.8-0.2-1.7-0.2-2.5,0L10.4,7.5C8.3,8.1,6.8,10,6.8,12.2V27c0,15.5,9.2,29.2,23.4,34.9
		c0.6,0.2,1.2,0.4,1.8,0.4s1.2-0.1,1.8-0.4c14.2-5.7,23.4-19.5,23.4-35V12.2C57.2,10,55.7,8.1,53.6,7.5z M52.7,26.9
		c0,13.4-8.3,25.8-20.5,30.8c-0.1,0-0.2,0-0.3,0C19.4,52.7,11.3,40.6,11.3,27V12.2c0-0.1,0.1-0.3,0.2-0.3l20.4-5.6c0,0,0.1,0,0.1,0
		c0,0,0,0,0.1,0l20.4,5.6c0.1,0,0.2,0.2,0.2,0.3V26.9z"/>
	<path d="M43.3,22.6L29.5,34.2L23.3,29c-1-0.8-2.4-0.7-3.2,0.3c-0.8,1-0.7,2.4,0.3,3.2l7.6,6.4c0.4,0.4,0.9,0.5,1.4,0.5
		s1-0.2,1.4-0.5L46.2,26c1-0.8,1.1-2.2,0.3-3.2C45.7,21.9,44.2,21.8,43.3,22.6z"/>
</g>
</svg>
