<?xml version="1.0" encoding="utf-8"?>
<!-- Generator: Adobe Illustrator 22.0.0, SVG Export Plug-In . SVG Version: 6.00 Build 0)  -->
<svg version="1.1" id="lni_lni-question-circle" xmlns="http://www.w3.org/2000/svg" xmlns:xlink="http://www.w3.org/1999/xlink"
	 x="0px" y="0px" viewBox="0 0 64 64" style="enable-background:new 0 0 64 64;" xml:space="preserve">
<g>
	<path d="M32,1.8C15.3,1.8,1.8,15.3,1.8,32S15.3,62.3,32,62.3S62.3,48.7,62.3,32S48.7,1.8,32,1.8z M32,57.8
		C17.8,57.8,6.3,46.2,6.3,32C6.3,17.8,17.8,6.3,32,6.3c14.2,0,25.8,11.6,25.8,25.8C57.8,46.2,46.2,57.8,32,57.8z"/>
	<path d="M33.8,12.1c-2.9-0.5-5.9,0.3-8.1,2.2c-2.2,1.9-3.5,4.6-3.5,7.6c0,1.1,0.2,2.2,0.6,3.3c0.4,1.2,1.7,1.8,2.9,1.4
		c1.2-0.4,1.8-1.7,1.4-2.9c-0.2-0.6-0.3-1.2-0.3-1.8c0-1.6,0.7-3.1,1.9-4.1c1.2-1,2.8-1.5,4.5-1.2c2.1,0.4,3.9,2.2,4.3,4.3
		c0.4,2.5-0.9,5-3.2,6c-2.6,1.1-4.3,3.7-4.3,6.7v6.2c0,1.2,1,2.3,2.3,2.3c1.2,0,2.3-1,2.3-2.3v-6.2c0-1.1,0.6-2.1,1.5-2.5
		c4.3-1.8,6.8-6.3,6-10.9C41,16.1,37.8,12.8,33.8,12.1z"/>
	<path d="M32.1,45.8h-0.3c-1.2,0-2.3,1-2.3,2.3s1,2.3,2.3,2.3h0.3c1.2,0,2.2-1,2.2-2.3S33.4,45.8,32.1,45.8z"/>
</g>
</svg>
