<?xml version="1.0" encoding="utf-8"?>
<!-- Generator: Adobe Illustrator 22.0.0, SVG Export Plug-In . SVG Version: 6.00 Build 0)  -->
<svg version="1.1" id="lni_lni-radio-button" xmlns="http://www.w3.org/2000/svg" xmlns:xlink="http://www.w3.org/1999/xlink"
	 x="0px" y="0px" viewBox="0 0 64 64" style="enable-background:new 0 0 64 64;" xml:space="preserve">
<g>
	<path d="M9.1,4.3c-4,0-7.3,3.3-7.3,7.3S5,19,9.1,19s7.3-3.3,7.3-7.3S13.1,4.3,9.1,4.3z M9.1,14.5c-1.6,0-2.8-1.3-2.8-2.8
		s1.3-2.8,2.8-2.8s2.8,1.3,2.8,2.8S10.7,14.5,9.1,14.5z"/>
	<path d="M9.1,24.7c-4,0-7.3,3.3-7.3,7.3s3.3,7.3,7.3,7.3s7.3-3.3,7.3-7.3S13.1,24.7,9.1,24.7z M9.1,34.8c-1.6,0-2.8-1.3-2.8-2.8
		s1.3-2.8,2.8-2.8s2.8,1.3,2.8,2.8S10.7,34.8,9.1,34.8z"/>
	<path d="M9.1,45c-4,0-7.3,3.3-7.3,7.3s3.3,7.3,7.3,7.3s7.3-3.3,7.3-7.3S13.1,45,9.1,45z M9.1,55.2c-1.6,0-2.8-1.3-2.8-2.8
		s1.3-2.8,2.8-2.8s2.8,1.3,2.8,2.8S10.7,55.2,9.1,55.2z"/>
	<path d="M24.4,13.9H60c1.2,0,2.3-1,2.3-2.3s-1-2.3-2.3-2.3H24.4c-1.2,0-2.3,1-2.3,2.3S23.1,13.9,24.4,13.9z"/>
	<path d="M60,29.8H24.4c-1.2,0-2.3,1-2.3,2.3c0,1.2,1,2.3,2.3,2.3H60c1.2,0,2.3-1,2.3-2.3C62.3,30.8,61.2,29.8,60,29.8z"/>
	<path d="M60,50.1H24.4c-1.2,0-2.3,1-2.3,2.3s1,2.3,2.3,2.3H60c1.2,0,2.3-1,2.3-2.3S61.2,50.1,60,50.1z"/>
</g>
</svg>
