<?xml version="1.0" encoding="utf-8"?>
<!-- Generator: Adobe Illustrator 22.0.0, SVG Export Plug-In . SVG Version: 6.00 Build 0)  -->
<svg version="1.1" id="shield" xmlns="http://www.w3.org/2000/svg" xmlns:xlink="http://www.w3.org/1999/xlink" x="0px" y="0px"
	 viewBox="0 0 64 64" style="enable-background:new 0 0 64 64;" xml:space="preserve">
<path d="M52,7.1L33.9,2c-1.3-0.4-2.7-0.4-4,0L12,7.1C8.8,8,6.6,10.9,6.6,14.2v14.6c0,14.6,8.9,27.5,22.8,33c0.8,0.3,1.7,0.5,2.6,0.5
	c0.9,0,1.8-0.2,2.6-0.5c13.8-5.5,22.7-18.4,22.7-33V14.2C57.4,10.9,55.2,8,52,7.1z M52.9,28.8c0,12.7-7.8,24-19.9,28.8
	c-0.6,0.2-1.3,0.2-1.9,0c-12.1-4.8-19.9-16.1-19.9-28.8V14.2c0-1.3,0.9-2.4,2.1-2.8l17.9-5c0.3-0.1,0.5-0.1,0.8-0.1
	c0.3,0,0.5,0,0.8,0.1l18.1,5.1c1.2,0.3,2.1,1.5,2.1,2.8V28.8z"/>
</svg>
