<?xml version="1.0" encoding="utf-8"?>
<!-- Generator: Adobe Illustrator 22.0.0, SVG Export Plug-In . SVG Version: 6.00 Build 0)  -->
<svg version="1.1" id="lni_lni-teabag" xmlns="http://www.w3.org/2000/svg" xmlns:xlink="http://www.w3.org/1999/xlink" x="0px"
	 y="0px" viewBox="0 0 64 64" style="enable-background:new 0 0 64 64;" xml:space="preserve">
<g>
	<path d="M15.5,31.7h5.1c1.2,0,2.3-1,2.3-2.3s-1-2.3-2.3-2.3h-5.1c-1.2,0-2.3,1-2.3,2.3S14.2,31.7,15.5,31.7z"/>
	<path d="M59.7,42.7l-3.8-1.9V22.2c0-11.3-9-20.5-20.1-20.5c-11,0-18.6,6-19.9,15.3H8.3c-1.7,0-3.1,1.2-3.5,2.9l-1.6,6.9
		C3,27.3,3,27.7,3,27.9v28.2c0,1.6,0.6,3.2,1.8,4.3c1.2,1.1,2.7,1.8,4.3,1.8c0,0,0,0,0,0l17.7-0.1c3.4,0,6.1-2.8,6.1-6.1V27.8
		c0-0.2,0-0.4-0.1-0.5l-1.8-7.4c-0.3-1.7-1.8-2.9-3.5-2.9h-7.2c1.4-7.9,8.8-10.8,15.3-10.8c8.6,0,15.6,7.2,15.6,16v18.6l-3.8,1.9
		c-0.8,0.4-1.2,1.2-1.2,2v13.3c0,2.3,1.9,4.2,4.2,4.2h6.3c2.3,0,4.2-1.9,4.2-4.2V44.7C61,43.9,60.5,43.1,59.7,42.7z M28.4,27.9
		c0,0.1,0,0.1,0,0.2V56c0,0.9-0.7,1.6-1.6,1.6L9.1,57.7c0,0,0,0,0,0c-0.4,0-0.8-0.2-1.1-0.5c-0.3-0.3-0.5-0.7-0.5-1.1v-28l1.5-6.6
		h17.8L28.4,27.9z M56.5,57.8h-5.7V46.1l2.8-1.4l2.8,1.4V57.8z"/>
</g>
</svg>
