<?xml version="1.0" encoding="utf-8"?>
<!-- Generator: Adobe Illustrator 22.0.0, SVG Export Plug-In . SVG Version: 6.00 Build 0)  -->
<svg version="1.1" id="lni_lni-thumbs-down" xmlns="http://www.w3.org/2000/svg" xmlns:xlink="http://www.w3.org/1999/xlink"
	 x="0px" y="0px" viewBox="0 0 64 64" style="enable-background:new 0 0 64 64;" xml:space="preserve">
<path d="M53.5,8.1c-4.5-3-10.9-4.7-17.7-4.7c-1.2,0-2.2,0-3.5,0.1c-8.1,0.7-13.5,2-16.2,3.8c0,0-0.1,0-0.1,0.1l-0.5,0.3H6.6
	c-2.7,0-4.8,2.2-4.8,4.8v22.9c0,2.6,2.2,4.8,4.8,4.8h11.9c0.1,0,0.2,0.1,0.2,0.1c2.1,2.1,7.5,8.1,13.2,17c1.3,2.1,3.4,3.3,5.9,3.3
	c0.2,0,0.4,0,0.6,0c2.6-0.2,4.8-1.6,5.9-3.8c1.4-2.6,0.3-10.2-0.3-13.9c5.3,0.1,14,0.3,16.6-5.4C64.3,28.8,61.9,13.6,53.5,8.1z
	 M6.3,35.5V12.6c0-0.2,0.2-0.3,0.3-0.3h5.4v23.5H6.5C6.4,35.8,6.3,35.6,6.3,35.5z M56.4,35.6c-1.4,3.1-8.6,2.9-12.5,2.8h-2.8
	c-0.7,0-1.3,0.3-1.8,0.8c-0.4,0.5-0.6,1.2-0.4,1.9l0.3,1.4c1.4,7.4,1.2,11.5,0.9,12.2c-0.5,1-1.5,1.3-2.2,1.4
	c-1,0.1-1.7-0.3-2.3-1.2c-5.9-9.2-11.6-15.4-13.8-17.7c-0.9-0.9-2.1-1.5-3.5-1.5h-2V12.2c0.4,0,0.8-0.2,1.1-0.4l1-0.7
	c1-0.6,4.3-2.2,14.2-3.1c1-0.1,1.9-0.1,3-0.1c5.9,0,11.5,1.4,15.3,3.9C57.4,16,59.4,28.8,56.4,35.6z"/>
</svg>
