<?xml version="1.0" encoding="utf-8"?>
<!-- Generator: Adobe Illustrator 22.0.0, SVG Export Plug-In . SVG Version: 6.00 Build 0)  -->
<svg version="1.1" id="lni_lni-ticket-alt" xmlns="http://www.w3.org/2000/svg" xmlns:xlink="http://www.w3.org/1999/xlink" x="0px"
	 y="0px" viewBox="0 0 64 64" style="enable-background:new 0 0 64 64;" xml:space="preserve">
<g>
	<path d="M46.8,1.8H17.2c-4.4,0-8,3.6-8,8v49c0,1.3,0.9,2.5,2.2,2.8c1.3,0.4,2.6-0.2,3.3-1.3l3.5-5.8l4.5,6.5
		c0.5,0.8,1.5,1.3,2.4,1.3c0,0,0,0,0,0c1,0,1.9-0.5,2.4-1.3l4.6-6.7l4.6,6.7c0.5,0.8,1.5,1.3,2.4,1.3s1.9-0.5,2.4-1.3l4.4-6.5
		l3.5,5.9c0,0,0,0,0,0c0.7,1.1,2,1.7,3.3,1.3c1.3-0.4,2.2-1.5,2.2-2.8V9.8C54.8,5.4,51.2,1.8,46.8,1.8z M50.3,53.2L48.4,50
		c-0.5-0.9-1.4-1.4-2.4-1.4c-1,0-1.9,0.5-2.5,1.3L39,56.5l-4.6-6.7C33.9,49,33,48.5,32,48.5s-1.9,0.5-2.4,1.3L25,56.5l-4.5-6.7
		c-0.6-0.8-1.5-1.3-2.4-1.3c0,0-0.1,0-0.1,0c-1,0-1.9,0.6-2.4,1.4l-1.8,3.1V9.8c0-2,1.6-3.5,3.5-3.5h29.5c2,0,3.5,1.6,3.5,3.5V53.2z
		"/>
	<path d="M42.3,19.7H21.7c-1.2,0-2.3,1-2.3,2.3s1,2.3,2.3,2.3h20.6c1.2,0,2.3-1,2.3-2.3S43.5,19.7,42.3,19.7z"/>
	<path d="M42.3,30H21.7c-1.2,0-2.3,1-2.3,2.3c0,1.2,1,2.3,2.3,2.3h20.6c1.2,0,2.3-1,2.3-2.3C44.5,31,43.5,30,42.3,30z"/>
</g>
</svg>
