<?xml version="1.0" encoding="utf-8"?>
<!-- Generator: Adobe Illustrator 22.0.0, SVG Export Plug-In . SVG Version: 6.00 Build 0)  -->
<svg version="1.1" id="lni_lni-ticket" xmlns="http://www.w3.org/2000/svg" xmlns:xlink="http://www.w3.org/1999/xlink" x="0px"
	 y="0px" viewBox="0 0 64 64" style="enable-background:new 0 0 64 64;" xml:space="preserve">
<g>
	<path d="M59.6,26.4c1.5-0.1,2.7-1.3,2.7-2.9V18c0-3.4-2.7-6.1-6.1-6.1H7.9c-3.4,0-6.1,2.7-6.1,6.1v5.6c0,1.5,1.2,2.8,2.7,2.9
		c2.8,0.3,4.9,2.7,4.9,5.6c0,2.9-2.1,5.3-4.9,5.5C3,37.7,1.8,39,1.8,40.5V46c0,3.4,2.7,6.1,6.1,6.1h48.3c3.4,0,6.1-2.7,6.1-6.1v-5.5
		c0-1.5-1.2-2.8-2.7-2.9c-2.8-0.3-4.9-2.7-4.9-5.6C54.7,29,56.8,26.6,59.6,26.4z M57.8,41.8V46c0,0.9-0.7,1.6-1.6,1.6H31.7v-5.4
		c0-1.2-1-2.3-2.3-2.3s-2.3,1-2.3,2.3v5.4H7.9c-0.9,0-1.6-0.7-1.6-1.6v-4c4.4-1,7.6-5,7.6-9.8c0-4.7-3.2-8.8-7.6-9.9V18
		c0-0.9,0.7-1.6,1.6-1.6h19.3v5.4c0,1.2,1,2.3,2.3,2.3s2.3-1,2.3-2.3v-5.4h24.4c0.9,0,1.6,0.7,1.6,1.6v4.1c-4.4,1.1-7.6,5.1-7.6,9.9
		C50.2,36.7,53.4,40.7,57.8,41.8z"/>
	<path d="M29.5,27.2c-1.2,0-2.3,1-2.3,2.3v5.1c0,1.2,1,2.3,2.3,2.3s2.3-1,2.3-2.3v-5.1C31.7,28.2,30.7,27.2,29.5,27.2z"/>
</g>
</svg>
