<?xml version="1.0" encoding="utf-8"?>
<!-- Generator: Adobe Illustrator 22.0.0, SVG Export Plug-In . SVG Version: 6.00 Build 0)  -->
<svg version="1.1" id="lni_lni-warning" xmlns="http://www.w3.org/2000/svg" xmlns:xlink="http://www.w3.org/1999/xlink" x="0px"
	 y="0px" viewBox="0 0 64 64" style="enable-background:new 0 0 64 64;" xml:space="preserve">
<g>
	<path d="M60.5,41.3L39.1,12.2c-1.7-2.3-4.3-3.6-7.1-3.6c-2.9,0-5.5,1.3-7.1,3.6L3.5,41.3c-2,2.7-2.3,6.2-0.8,9.2s4.5,4.9,7.9,4.9
		h42.8c3.4,0,6.4-1.9,7.9-4.9C62.8,47.6,62.5,44,60.5,41.3z M57.3,48.5c-0.8,1.5-2.2,2.4-3.9,2.4H10.6c-1.7,0-3.1-0.9-3.9-2.4
		C6,47,6.1,45.3,7.1,44l21.4-29.1c0.8-1.1,2.1-1.8,3.5-1.8c1.4,0,2.7,0.6,3.5,1.8L56.9,44C57.9,45.3,58,47,57.3,48.5z"/>
	<path d="M32,23c-1.2,0-2.3,1-2.3,2.3v10.9c0,1.2,1,2.3,2.3,2.3s2.3-1,2.3-2.3V25.2C34.3,24,33.2,23,32,23z"/>
	<path d="M32,40.8c-1.2,0-2.3,1-2.3,2.3v0.5c0,1.2,1,2.3,2.3,2.3s2.3-1,2.3-2.3V43C34.3,41.8,33.2,40.8,32,40.8z"/>
</g>
</svg>
