<?xml version="1.0" encoding="utf-8"?>
<!-- Generator: Adobe Illustrator 22.0.0, SVG Export Plug-In . SVG Version: 6.00 Build 0)  -->
<svg version="1.1" id="lni_lni-blackboard" xmlns="http://www.w3.org/2000/svg" xmlns:xlink="http://www.w3.org/1999/xlink" x="0px"
	 y="0px" viewBox="0 0 64 64" style="enable-background:new 0 0 64 64;" xml:space="preserve">
<path d="M56.1,9.4H34.3V6.5c0-1.2-1-2.3-2.3-2.3c-1.2,0-2.3,1-2.3,2.3v2.8H7.9c-3.4,0-6.1,2.7-6.1,6.1v20.3c0,3.4,2.7,6.1,6.1,6.1
	h8.6L8.3,56.3c-0.6,1.1-0.2,2.5,0.9,3.1c0.3,0.2,0.7,0.3,1.1,0.3c0.8,0,1.6-0.4,2-1.2l9.3-16.7h8.1v15.6c0,1.2,1,2.3,2.3,2.3
	c1.2,0,2.3-1,2.3-2.3V41.9h8.3l9.4,16.7c0.4,0.7,1.2,1.1,2,1.1c0.4,0,0.8-0.1,1.1-0.3c1.1-0.6,1.5-2,0.9-3.1l-8.2-14.5h8.5
	c3.4,0,6.1-2.7,6.1-6.1V15.5C62.3,12.1,59.5,9.4,56.1,9.4z M57.8,35.8c0,0.9-0.7,1.6-1.6,1.6H7.9c-0.9,0-1.6-0.7-1.6-1.6V15.5
	c0-0.9,0.7-1.6,1.6-1.6h48.3c0.9,0,1.6,0.7,1.6,1.6V35.8z"/>
</svg>
