<?xml version="1.0" encoding="utf-8"?>
<!-- Generator: Adobe Illustrator 22.0.0, SVG Export Plug-In . SVG Version: 6.00 Build 0)  -->
<svg version="1.1" id="lni_lni-book" xmlns="http://www.w3.org/2000/svg" xmlns:xlink="http://www.w3.org/1999/xlink" x="0px"
	 y="0px" viewBox="0 0 64 64" style="enable-background:new 0 0 64 64;" xml:space="preserve">
<g>
	<path d="M39.6,50.1H24.4c-1.2,0-2.3,1-2.3,2.3s1,2.3,2.3,2.3h15.3c1.2,0,2.3-1,2.3-2.3S40.9,50.1,39.6,50.1z"/>
	<path d="M24.1,34.3h15.8c2.3,0,4.3-1.9,4.3-4.3v-5.9c0-2.3-1.9-4.3-4.3-4.3H24.1c-2.3,0-4.3,1.9-4.3,4.3V30
		C19.9,32.3,21.8,34.3,24.1,34.3z M24.4,24.4h15.3v5.4H24.4V24.4z"/>
	<path d="M17,6.3h35.4c1.2,0,2.3-1,2.3-2.3s-1-2.3-2.3-2.3H17c-4,0-7.2,3.1-7.5,7c0,0.1,0,0.2,0,0.3v47c0,3.4,2.9,6.1,6.5,6.1h32.9
		c2.8,0,5.1-2.3,5.1-5.1V17c0-2.8-2.3-5.1-5.1-5.1H16.7c0,0,0,0,0,0c0,0,0,0,0,0c-1.7,0-2.7-1-2.7-2.6C13.9,7.6,15.3,6.3,17,6.3z
		 M16.6,16.4C16.6,16.4,16.7,16.4,16.6,16.4C16.7,16.4,16.7,16.4,16.6,16.4h32.2c0.3,0,0.6,0.3,0.6,0.6v40.2c0,0.3-0.3,0.6-0.6,0.6
		H15.9c-1.1,0-2-0.7-2-1.6V16C14.7,16.3,15.6,16.4,16.6,16.4z"/>
</g>
</svg>
