<?xml version="1.0" encoding="utf-8"?>
<!-- Generator: Adobe Illustrator 22.0.0, SVG Export Plug-In . SVG Version: 6.00 Build 0)  -->
<svg version="1.1" id="lni_lni-certificate" xmlns="http://www.w3.org/2000/svg" xmlns:xlink="http://www.w3.org/1999/xlink"
	 x="0px" y="0px" viewBox="0 0 64 64" style="enable-background:new 0 0 64 64;" xml:space="preserve">
<path d="M56,34.8h-3.9V9.6c0-4.2-3.3-7.6-7.3-7.8l-31.6,0C6.9,1.7,1.8,7,1.8,13.5v4.3c0,2,1.7,3.7,3.7,3.7h6.5v26.7
	c0,3.5,2.9,6.4,6.5,6.4h3.7v5.1c0,1,0.5,1.8,1.4,2.3c0.4,0.2,0.8,0.3,1.2,0.3c0.5,0,1-0.1,1.4-0.4l4.6-3l4.5,2.9l0.2,0.1
	c0.9,0.4,1.8,0.4,2.6-0.1c0.8-0.5,1.2-1.3,1.2-2.2v-5H56c3.4,0,6.3-2.8,6.3-6.3v-7.3C62.3,37.6,59.4,34.8,56,34.8z M6.3,13.5
	c0-4,3.1-7.3,6.9-7.3h22.7c-0.6,1.2-1,2.6-1,4.1V17H6.3V13.5z M30.7,44.5c-3.7,0-6.6-2.9-6.6-6.5c0-3.6,3-6.5,6.6-6.5
	s6.6,2.9,6.6,6.5C37.3,41.6,34.4,44.5,30.7,44.5z M32.4,54.6c-1-0.7-2.3-0.7-3.4,0l-2.4,1.6v-8c1.3,0.5,2.7,0.8,4.1,0.8
	c1.5,0,2.9-0.3,4.1-0.8v8L32.4,54.6z M39.3,50.1v-5.2c1.6-1.9,2.5-4.3,2.5-6.9c0-6.1-5-11-11.1-11c-6.1,0-11.1,4.9-11.1,11
	c0,2.6,0.9,5.1,2.5,7v5.1h-3.7c-1.1,0-2-0.8-2-1.9V21.5h19.2c2,0,3.7-1.7,3.7-3.7v-7.4c0-2.2,1.5-3.9,3.5-4.1h1.5
	c1.8,0,3.2,1.5,3.2,3.3v40.5H39.3z M57.8,48.3c0,1-0.8,1.8-1.8,1.8h-3.9V39.3H56c1,0,1.8,0.8,1.8,1.8V48.3z"/>
</svg>
