<?xml version="1.0" encoding="utf-8"?>
<!-- Generator: Adobe Illustrator 22.0.0, SVG Export Plug-In . SVG Version: 6.00 Build 0)  -->
<svg version="1.1" id="lni_lni-clipboard" xmlns="http://www.w3.org/2000/svg" xmlns:xlink="http://www.w3.org/1999/xlink" x="0px"
	 y="0px" viewBox="0 0 64 64" style="enable-background:new 0 0 64 64;" xml:space="preserve">
<path d="M45.5,9.4H44v-1c0-2.3-1.8-4.1-4-4.1h-5.7V4c0-1.2-1-2.3-2.3-2.3c-1.2,0-2.3,1-2.3,2.3v0.3H24c-2.2,0-4,1.8-4,4.1v1h-1.5
	c-3.2,0-5.8,2.7-5.8,5.9v41c0,3.3,2.6,5.9,5.8,5.9h27.1c3.2,0,5.8-2.7,5.8-5.9v-41C51.3,12,48.7,9.4,45.5,9.4z M24.5,8.8h15v2.8
	c0,0,0,0,0,0s0,0,0,0v2.8h-15V8.8z M46.8,56.3c0,0.8-0.6,1.4-1.3,1.4H18.5c-0.7,0-1.3-0.6-1.3-1.4v-41c0-0.8,0.6-1.4,1.3-1.4H20v1
	c0,2.3,1.8,4.1,4,4.1h16c2.2,0,4-1.8,4-4.1v-1h1.6c0.7,0,1.3,0.6,1.3,1.4V56.3z"/>
</svg>
