<?xml version="1.0" encoding="utf-8"?>
<!-- Generator: Adobe Illustrator 22.0.0, SVG Export Plug-In . SVG Version: 6.00 Build 0)  -->
<svg version="1.1" id="lni_lni-compass" xmlns="http://www.w3.org/2000/svg" xmlns:xlink="http://www.w3.org/1999/xlink" x="0px"
	 y="0px" viewBox="0 0 64 64" style="enable-background:new 0 0 64 64;" xml:space="preserve">
<path d="M56.2,59L45.5,37c3.1-2.4,5.6-5.6,7.1-9.3c0.5-1.2-0.1-2.5-1.3-2.9c-1.2-0.5-2.5,0.1-2.9,1.3c-1,2.7-2.8,5-4.9,6.8l-4.2-8.7
	C41,22.4,42,20,42,17.3c0-4.7-3.3-8.7-7.8-9.7V4c0-1.2-1-2.3-2.3-2.3c-1.2,0-2.3,1-2.3,2.3v3.6c-4.4,1-7.8,5-7.8,9.7
	c0,2.7,1.1,5.1,2.8,6.9l-4.2,8.7c-2.1-1.8-3.9-4.1-4.9-6.8c-0.5-1.2-1.8-1.7-2.9-1.3c-1.2,0.5-1.7,1.8-1.3,2.9c1.5,3.8,4,7,7.1,9.3
	L7.8,59c-0.5,1.1-0.1,2.5,1,3c0.3,0.2,0.7,0.2,1,0.2c0.8,0,1.6-0.5,2-1.3l10.5-21.6c3,1.4,6.2,2.2,9.6,2.2s6.7-0.8,9.6-2.2L52.1,61
	c0.4,0.8,1.2,1.3,2,1.3c0.3,0,0.7-0.1,1-0.2C56.3,61.5,56.7,60.1,56.2,59z M32,11.8c3,0,5.5,2.4,5.5,5.4S35,22.7,32,22.7
	s-5.5-2.4-5.5-5.4S29,11.8,32,11.8z M32,37.1c-2.7,0-5.3-0.6-7.7-1.8l4.2-8.7c1.1,0.4,2.2,0.6,3.4,0.6c1.2,0,2.4-0.2,3.4-0.6
	l4.2,8.7C37.3,36.5,34.7,37.1,32,37.1z"/>
</svg>
