<?xml version="1.0" encoding="utf-8"?>
<!-- Generator: Adobe Illustrator 22.0.0, SVG Export Plug-In . SVG Version: 6.00 Build 0)  -->
<svg version="1.1" id="lni_lni-eraser" xmlns="http://www.w3.org/2000/svg" xmlns:xlink="http://www.w3.org/1999/xlink" x="0px"
	 y="0px" viewBox="0 0 64 64" style="enable-background:new 0 0 64 64;" xml:space="preserve">
<path d="M59.2,57.8l-27.4-0.1l28.6-28.6c2.4-2.4,2.4-6.4,0-8.8L43.7,3.5c-1.2-1.2-2.7-1.8-4.4-1.8S36,2.4,34.9,3.5L6,32.4
	c-2.7,2.7-4.2,6.3-4.2,10s1.5,7.4,4.2,10l5.4,5.4c2.8,2.8,6.4,4.2,10,4.2c0.1,0,0.1,0,0.2,0c0,0,0.1,0,0.1,0l37.5,0.2c0,0,0,0,0,0
	c1.2,0,2.2-1,2.3-2.2C61.5,58.8,60.5,57.8,59.2,57.8z M38,6.7c0.3-0.3,0.8-0.5,1.2-0.5s0.9,0.2,1.2,0.5l16.7,16.7
	c0.7,0.7,0.7,1.8,0,2.5L35.5,47.6L16.3,28.4L38,6.7z M9.1,49.4c-1.8-1.8-2.8-4.3-2.8-6.9s1-5,2.8-6.9l4-4l19.1,19.1l-4,4
	c-3.8,3.8-9.9,3.8-13.7,0L9.1,49.4z"/>
</svg>
