<?xml version="1.0" encoding="utf-8"?>
<!-- Generator: Adobe Illustrator 22.0.0, SVG Export Plug-In . SVG Version: 6.00 Build 0)  -->
<svg version="1.1" id="lni_lni-graduation" xmlns="http://www.w3.org/2000/svg" xmlns:xlink="http://www.w3.org/1999/xlink" x="0px"
	 y="0px" viewBox="0 0 64 64" style="enable-background:new 0 0 64 64;" xml:space="preserve">
<path d="M61.5,34l-4.2-4.3v-3.8c0.6-0.7,1-1.6,1-2.6c0-1.5-0.8-2.8-2.2-3.4L31.6,8.9c-0.9-0.4-2-0.4-3,0L4,19.8
	c-1.3,0.6-2.2,1.9-2.2,3.4c0,1.5,0.9,2.8,2.2,3.4l8.4,3.8v11.8c0,7.3,5.9,13.2,13.1,13.2h9.1c7.3,0,13.1-5.9,13.1-13.2V30.6l4.8-2.2
	l0.3-0.1v1.6l-4,4.1c-1.1,1.1-1.1,2.8,0,3.9l4.3,4.5c0.5,0.5,1.2,0.8,2,0.8c0,0,0,0,0,0c0.7,0,1.5-0.3,2-0.8l4.3-4.5
	C62.5,36.8,62.5,35.1,61.5,34z M43.2,42.2c0,4.8-3.9,8.7-8.6,8.7h-9.1c-4.8,0-8.6-3.9-8.6-8.7v-9.7l11.9,5.4c0.5,0.2,1,0.3,1.5,0.3
	s1-0.1,1.5-0.3l11.4-5.1V42.2z M30.3,33.5L7.4,23.2l22.7-10l22.6,10.2L30.3,33.5z M55.1,38l-2-2l2-2l2,2L55.1,38z"/>
</svg>
