<?xml version="1.0" encoding="utf-8"?>
<!-- Generator: Adobe Illustrator 22.0.0, SVG Export Plug-In . SVG Version: 6.00 Build 0)  -->
<svg version="1.1" id="lni_lni-library" xmlns="http://www.w3.org/2000/svg" xmlns:xlink="http://www.w3.org/1999/xlink" x="0px"
	 y="0px" viewBox="0 0 64 64" style="enable-background:new 0 0 64 64;" xml:space="preserve">
<g>
	<path d="M57.2,9.4H35.2c-1.2,0-2.3,0.4-3.2,1c-0.9-0.6-2-1-3.2-1H6.8c-2.8,0-5,2.3-5,5V47c0,2.8,2.3,5,5,5h23v0.3
		c0,1.2,1,2.3,2.3,2.3c1.2,0,2.3-1,2.3-2.3v-0.3h23c2.8,0,5-2.3,5-5V14.4C62.3,11.6,60,9.4,57.2,9.4z M6.8,47.6
		c-0.3,0-0.5-0.2-0.5-0.5V14.4c0-0.3,0.2-0.5,0.5-0.5h22.1c0.5,0,0.9,0.4,0.9,0.9v0v32.8H6.8z M57.8,47c0,0.3-0.2,0.5-0.5,0.5h-23
		V14.8c0-0.5,0.4-0.9,0.9-0.9h22.1c0.3,0,0.5,0.2,0.5,0.5V47z"/>
	<path d="M14.3,23.7h7.4c1.2,0,2.3-1,2.3-2.3s-1-2.3-2.3-2.3h-7.4c-1.2,0-2.3,1-2.3,2.3S13,23.7,14.3,23.7z"/>
	<path d="M42,23.7h7.4c1.2,0,2.3-1,2.3-2.3s-1-2.3-2.3-2.3H42c-1.2,0-2.3,1-2.3,2.3S40.8,23.7,42,23.7z"/>
	<path d="M49.6,27.4h-7.4c-1.2,0-2.3,1-2.3,2.3s1,2.3,2.3,2.3h7.4c1.2,0,2.3-1,2.3-2.3S50.8,27.4,49.6,27.4z"/>
	<path d="M21.8,27.4h-7.4c-1.2,0-2.3,1-2.3,2.3s1,2.3,2.3,2.3h7.4c1.2,0,2.3-1,2.3-2.3S23.1,27.4,21.8,27.4z"/>
	<path d="M21.8,36.2h-7.4c-1.2,0-2.3,1-2.3,2.3s1,2.3,2.3,2.3h7.4c1.2,0,2.3-1,2.3-2.3S23.1,36.2,21.8,36.2z"/>
	<path d="M49.6,36.2h-7.4c-1.2,0-2.3,1-2.3,2.3s1,2.3,2.3,2.3h7.4c1.2,0,2.3-1,2.3-2.3S50.8,36.2,49.6,36.2z"/>
</g>
</svg>
