<?xml version="1.0" encoding="utf-8"?>
<!-- Generator: Adobe Illustrator 22.0.0, SVG Export Plug-In . SVG Version: 6.00 Build 0)  -->
<svg version="1.1" id="lni_lni-pencil" xmlns="http://www.w3.org/2000/svg" xmlns:xlink="http://www.w3.org/1999/xlink" x="0px"
	 y="0px" viewBox="0 0 64 64" style="enable-background:new 0 0 64 64;" xml:space="preserve">
<path d="M61.2,13c-3.2-3.4-6.6-6.8-10-10.1c-0.7-0.7-1.5-1.1-2.4-1.1c-0.9,0-1.8,0.3-2.4,1L8.7,40.2c-0.6,0.6-1,1.3-1.3,2L1.9,59
	c-0.3,0.8-0.1,1.6,0.3,2.2c0.5,0.6,1.2,1,2.1,1h0.4l17.1-5.7c0.8-0.3,1.5-0.7,2-1.3l37.5-37.4c0.6-0.6,1-1.5,1-2.4
	S61.9,13.7,61.2,13z M20.6,52.1c-0.1,0.1-0.2,0.1-0.3,0.2L7.4,56.6l4.3-12.9c0-0.1,0.1-0.2,0.2-0.3L39.4,16l8.7,8.7L20.6,52.1z
	 M51.2,21.5l-8.7-8.7l6.1-6.1c2.9,2.8,5.8,5.8,8.6,8.7L51.2,21.5z"/>
</svg>
