<?xml version="1.0" encoding="utf-8"?>
<!-- Generator: Adobe Illustrator 22.0.0, SVG Export Plug-In . SVG Version: 6.00 Build 0)  -->
<svg version="1.1" id="lni_lni-school-bench-alt" xmlns="http://www.w3.org/2000/svg" xmlns:xlink="http://www.w3.org/1999/xlink"
	 x="0px" y="0px" viewBox="0 0 64 64" style="enable-background:new 0 0 64 64;" xml:space="preserve">
<g>
	<path d="M60,16.7c-1.2,0-2.3,1-2.3,2.3v7.9H42.2c-2.6,0-4.8,2.2-4.8,4.8v5.1c0,1.8,1,3.4,2.5,4.2v8.5c0,1.2,1,2.3,2.3,2.3
		s2.3-1,2.3-2.3v-7.9h13.3v7.9c0,1.2,1,2.3,2.3,2.3s2.3-1,2.3-2.3V18.9C62.3,17.7,61.2,16.7,60,16.7z M41.9,31.6
		c0-0.2,0.1-0.3,0.3-0.3h15.6V37H42.2c-0.2,0-0.3-0.1-0.3-0.3V31.6z"/>
	<path d="M30.8,18.8L7.5,12.4c-1.3-0.4-2.7-0.1-3.9,0.8c-1.2,0.9-1.9,2.3-1.9,3.9V22c0,2.2,1.4,4.1,3.4,4.6l1.7,0.5v22.4
		c0,1.2,1,2.3,2.3,2.3s2.3-1,2.3-2.3V28.3L24.7,32v17.5c0,1.2,1,2.3,2.3,2.3s2.3-1,2.3-2.3V33.1c0.2,0,0.3,0,0.5,0
		c1,0,1.9-0.3,2.7-0.9c1.2-0.9,1.9-2.3,1.9-3.9v-4.9C34.3,21.3,32.8,19.4,30.8,18.8z M29.8,28.4c0,0.2-0.1,0.3-0.1,0.3L6.4,22.3
		c0,0-0.1-0.1-0.1-0.3v-4.9c0-0.2,0.1-0.3,0.1-0.3l23.3,6.4c0,0,0.1,0.1,0.1,0.3V28.4z"/>
</g>
</svg>
