<?xml version="1.0" encoding="utf-8"?>
<!-- Generator: Adobe Illustrator 22.0.0, SVG Export Plug-In . SVG Version: 6.00 Build 0)  -->
<svg version="1.1" id="lni_lni-school-bench" xmlns="http://www.w3.org/2000/svg" xmlns:xlink="http://www.w3.org/1999/xlink"
	 x="0px" y="0px" viewBox="0 0 64 64" style="enable-background:new 0 0 64 64;" xml:space="preserve">
<g>
	<path d="M32.8,26.1l-28-10.2c-1.2-0.4-2.5,0.2-2.9,1.3c-0.4,1.2,0.2,2.5,1.3,2.9l3.6,1.3V46c0,1.2,1,2.3,2.3,2.3s2.3-1,2.3-2.3
		V23.1l13.3,4.8V46c0,1.2,1,2.3,2.3,2.3s2.3-1,2.3-2.3V29.5l2.1,0.8c0.3,0.1,0.5,0.1,0.8,0.1c0.9,0,1.8-0.6,2.1-1.5
		C34.5,27.8,33.9,26.5,32.8,26.1z"/>
	<path d="M60,15.8c-1.2,0-2.3,1-2.3,2.3v15.6H47.4c-2.7,0-5,2.2-5,5V46c0,1.2,1,2.3,2.3,2.3s2.3-1,2.3-2.3v-7.5
		c0-0.3,0.2-0.5,0.5-0.5h10.3V46c0,1.2,1,2.3,2.3,2.3s2.3-1,2.3-2.3V18C62.3,16.8,61.2,15.8,60,15.8z"/>
</g>
</svg>
