<?xml version="1.0" encoding="utf-8"?>
<!-- Generator: Adobe Illustrator 22.0.0, SVG Export Plug-In . SVG Version: 6.00 Build 0)  -->
<svg version="1.1" id="lni_lni-world-alt" xmlns="http://www.w3.org/2000/svg" xmlns:xlink="http://www.w3.org/1999/xlink" x="0px"
	 y="0px" viewBox="0 0 64 64" style="enable-background:new 0 0 64 64;" xml:space="preserve">
<path d="M51.2,19.2c-1.4-3.8-4.1-6.8-7.7-8.5c-3.1-1.4-6.5-1.8-9.8-1l-2-5.5c-0.4-1-1.2-1.9-2.2-2.3c-1-0.4-2.1-0.4-3,0
	c-11.7,5.3-17.4,19-13,31.1c3.1,8.5,10.5,14.4,18.9,15.9v8.6h-5.4c-1.2,0-2.3,1-2.3,2.3s1,2.3,2.3,2.3h15.2c1.2,0,2.3-1,2.3-2.3
	s-1-2.3-2.3-2.3h-5.3v-8.2c2.2,0,4.3-0.3,6.5-0.9c1-0.3,1.9-1,2.4-1.9c0.5-1,0.6-2.1,0.2-3.1l-2.1-5.8
	C50.5,34.4,53.8,26.5,51.2,19.2z M17.7,31.7C14.1,22,18.5,11,27.7,6.5l1.8,5c-2.6,1.5-4.7,3.8-6,6.6c-1.7,3.6-1.9,7.7-0.5,11.5
	c1.4,3.8,4.1,6.8,7.7,8.5c2,0.9,4.2,1.4,6.3,1.4c0.8,0,1.6-0.1,2.4-0.2l1.9,5.3C31.5,46.9,21.2,41.4,17.7,31.7z M40.7,34.2
	c-2.6,1-5.5,0.8-8-0.3c-2.5-1.2-4.5-3.3-5.4-5.9s-0.8-5.5,0.3-8c1.2-2.5,3.3-4.5,5.9-5.4c1.2-0.4,2.4-0.6,3.6-0.6c1.5,0,3,0.3,4.4,1
	c2.5,1.2,4.5,3.3,5.4,5.9C48.9,26.2,46.1,32.2,40.7,34.2z"/>
</svg>
