<?xml version="1.0" encoding="utf-8"?>
<!-- Generator: Adobe Illustrator 22.0.0, SVG Export Plug-In . SVG Version: 6.00 Build 0)  -->
<svg version="1.1" id="lni_lni-world" xmlns="http://www.w3.org/2000/svg" xmlns:xlink="http://www.w3.org/1999/xlink" x="0px"
	 y="0px" viewBox="0 0 64 64" style="enable-background:new 0 0 64 64;" xml:space="preserve">
<style type="text/css">
	.st0{fill:none;stroke:#000000;stroke-width:4;stroke-miterlimit:10;}
</style>
<path class="st0" d="M32,3.3"/>
<path d="M58.4,17.1c-4.1-7.1-11-12.4-19-14.4c-2.6-0.6-5-0.9-7.4-0.9c-2.5,0-5.1,0.3-7.6,1C16.5,4.8,9.7,10,5.7,17.2
	C3.1,21.8,1.8,26.8,1.8,32l0,0.7c0.1,5.5,1.8,10.9,4.7,15.6c4.8,7.6,12.7,12.6,21.5,13.6c1.2,0.2,2.5,0.3,4,0.3
	c1.2,0,2.5-0.1,3.7-0.2c9-1.1,16.9-6.1,21.8-13.7c3-4.6,4.6-10,4.8-15.6V32C62.3,27,60.9,21.8,58.4,17.1z M51.3,30.6
	c-0.3-3.3-1.1-6.5-2.4-9.5h6.4c1.4,3,2.2,6.3,2.4,9.5H51.3z M6.3,30.6c0.2-3.3,1-6.5,2.4-9.5h5.8c-1.3,3-2,6.2-2.3,9.5H6.3z
	 M19.5,21.1h10.2v9.5H16.8C17.1,27.2,18,24,19.5,21.1z M41.2,16.6h-7V8.3C36.5,10.1,38.8,12.9,41.2,16.6z M29.8,8.2v8.4h-7.5
	C24.8,12.8,27.3,10,29.8,8.2z M29.8,35.1v9.5h-10c-1.6-2.9-2.6-6.2-2.9-9.5H29.8z M29.8,49.1V56c-2.5-1.7-5-4.1-7.2-6.9H29.8z
	 M34.3,56v-7h7.6C39.8,51.9,37.2,54.3,34.3,56z M34.3,44.6v-9.5h12.6c-0.2,3.3-1,6.5-2.4,9.5H34.3z M34.3,30.6v-9.5h9.7
	c1.5,2.9,2.5,6.2,2.8,9.5H34.3z M52.6,16.6h-6.1c-2.2-3.7-4.4-6.7-6.6-9C45,9.2,49.5,12.4,52.6,16.6z M23.5,7.7
	c-2.2,2.3-4.4,5.3-6.6,8.8h-5.4C14.5,12.5,18.7,9.4,23.5,7.7z M6.4,35.1h5.9c0.3,3.3,1.1,6.5,2.4,9.5H9.5
	C7.8,41.6,6.8,38.4,6.4,35.1z M12.7,49.1h4.5c1.6,2.6,3.6,5,5.6,7C18.9,54.6,15.4,52.2,12.7,49.1z M41.9,55.8c2-1.9,3.8-4.2,5.2-6.6
	c0,0,0-0.1,0.1-0.1h4.1C48.7,52,45.5,54.3,41.9,55.8z M54.5,44.6h-5.2c1.2-3,1.9-6.2,2-9.5h6.2C57.2,38.4,56.1,41.6,54.5,44.6z"/>
</svg>
