<?xml version="1.0" encoding="utf-8"?>
<!-- Generator: Adobe Illustrator 22.0.0, SVG Export Plug-In . SVG Version: 6.00 Build 0)  -->
<svg version="1.1" id="lni_lni-write" xmlns="http://www.w3.org/2000/svg" xmlns:xlink="http://www.w3.org/1999/xlink" x="0px"
	 y="0px" viewBox="0 0 64 64" style="enable-background:new 0 0 64 64;" xml:space="preserve">
<path d="M53.1,10.3l-0.2,0c-0.7,0-1.4,0-2.1,0V8c0-3.4-2.8-6.3-6.3-6.3H14.3C10.8,1.8,8,4.6,8,8v34.2c0,1.3,0.5,2.5,1.4,3.5l14.6,15
	c0.9,1,2.2,1.5,3.6,1.5h18.3c2.7,0,5-2.2,5-5v-0.9l4.8-9.7c0.2-0.3,0.2-0.6,0.2-1L56,13.2C56,11.7,54.7,10.4,53.1,10.3z M51.5,18.4
	h-5.6l0-3.7c1.9,0,3.7,0,5.6,0L51.5,18.4z M44.4,14.8C44.5,14.8,44.5,14.8,44.4,14.8C44.5,14.8,44.5,14.8,44.4,14.8L44.4,14.8z
	 M23.8,54l-8.2-8.4h8.2V54z M45.9,57.8H28.3V43.9c0-1.6-1.3-2.8-2.8-2.8H12.5V8c0-1,0.8-1.8,1.8-1.8h30.4c1,0,1.8,0.8,1.8,1.8v2.2
	c-0.7,0-1.3,0-2,0c-1.7,0-3,1.3-3,2.9l-0.1,32.5c0,0.4,0.1,0.7,0.2,1l4.9,9.7v0.9C46.4,57.5,46.2,57.8,45.9,57.8z M48.6,50.8
	l-2.8-5.7l0-22.2h5.6l0,22.2L48.6,50.8z"/>
</svg>
