<?xml version="1.0" encoding="utf-8"?>
<!-- Generator: Adobe Illustrator 25.2.1, SVG Export Plug-In . SVG Version: 6.00 Build 0)  -->
<svg version="1.1" id="lni_lni-brush-alt" xmlns="http://www.w3.org/2000/svg" xmlns:xlink="http://www.w3.org/1999/xlink" x="0px"
	 y="0px" viewBox="0 0 64 64" style="enable-background:new 0 0 64 64;" xml:space="preserve">
<path d="M60.4,5.8c-1.3-1.3-2.9-2-4.7-2c-1.7,0-3.3,0.7-4.5,1.8L15.5,38.7c-1.2,0-2.5,0.2-3.9,0.8c-2.3,1-3.3,2.8-4.3,4.5
	c-0.9,1.6-1.9,3.3-4.2,5c-1,0.8-1.5,2-1.4,3.2c0.1,1.2,0.8,2.3,1.9,2.9c4.6,2.5,10.3,4.9,15.1,4.9c2.1,0,4-0.5,5.6-1.7
	c2.3-1.8,3.5-4.1,3.5-6.8c0-0.2,0-0.3,0-0.5l32.7-36.1C62.9,12.5,62.8,8.3,60.4,5.8z M21.6,54.9c-2.2,1.6-7.9,0.4-14.7-3.1
	c2.3-2,3.4-4,4.3-5.5c0.9-1.5,1.3-2.2,2.2-2.6c2.3-1,4.2-0.1,4.4,0.1c2.7,1.9,5.4,5.2,5.4,8C23.3,53,22.8,54,21.6,54.9z M57.2,12
	l-31,34.2c-1.4-2.5-3.6-4.7-5.6-6.1L54.3,8.9c0.8-0.8,2.1-0.8,2.9,0C57.9,9.8,58,11.2,57.2,12z"/>
</svg>
