<?xml version="1.0" encoding="utf-8"?>
<!-- Generator: Adobe Illustrator 25.2.1, SVG Export Plug-In . SVG Version: 6.00 Build 0)  -->
<svg version="1.1" id="lni_lni-brush" xmlns="http://www.w3.org/2000/svg" xmlns:xlink="http://www.w3.org/1999/xlink" x="0px"
	 y="0px" viewBox="0 0 64 64" style="enable-background:new 0 0 64 64;" xml:space="preserve">
<g>
	<path d="M60.1,19.1L45,4c-2.9-2.9-7.5-2.9-10.4,0L20.1,18.5c-2.4,2.4-3.8,5.6-3.8,9.1c0,2.7,0.8,5.2,2.3,7.3L3.9,49.6
		c-1.4,1.4-2.2,3.2-2.2,5.1c0,2,0.8,3.9,2.2,5.3l0,0c1.4,1.4,3.3,2.1,5.2,2.1c1.9,0,3.8-0.7,5.2-2.1L29,45.3
		c2.2,1.6,4.8,2.4,7.4,2.4c3.3,0,6.6-1.2,9.1-3.7l14.5-14.5c1.4-1.4,2.1-3.2,2.1-5.2S61.5,20.5,60.1,19.1z M11.1,56.8
		c-1.1,1.1-2.9,1.1-4,0c-0.5-0.5-0.8-1.3-0.8-2c0-0.7,0.3-1.4,0.8-2l14.5-14.5l4,4L11.1,56.8z M30.6,40.8l-7.3-7.3
		c-1.6-1.6-2.4-3.7-2.4-5.9c0-2.2,0.9-4.3,2.4-5.9l2.5-2.5l19.1,19.1l-2.5,2.5C39.1,44,33.8,44,30.6,40.8z M56.9,26.3l-8.9,8.9
		L29,16.1l8.9-8.9c1.1-1.1,2.9-1.1,4,0l15.1,15.1c0.5,0.5,0.8,1.2,0.8,2S57.5,25.7,56.9,26.3z"/>
	<path d="M36.4,35.2c-0.9-0.9-2.3-0.9-3.2,0c-0.9,0.9-0.9,2.3,0,3.2c0.4,0.4,1,0.7,1.6,0.7s1.2-0.2,1.6-0.7
		C37.3,37.6,37.3,36.1,36.4,35.2L36.4,35.2z"/>
	<path d="M28.7,26.5c-0.9-0.9-2.3-0.9-3.2,0c-0.9,0.9-0.9,2.3,0,3.2c0.4,0.4,1,0.7,1.6,0.7s1.2-0.2,1.6-0.7
		C29.6,28.9,29.6,27.4,28.7,26.5L28.7,26.5z"/>
</g>
</svg>
