<?xml version="1.0" encoding="utf-8"?>
<!-- Generator: Adobe Illustrator 25.2.1, SVG Export Plug-In . SVG Version: 6.00 Build 0)  -->
<svg version="1.1" id="lni_lni-crop" xmlns="http://www.w3.org/2000/svg" xmlns:xlink="http://www.w3.org/1999/xlink" x="0px"
	 y="0px" viewBox="0 0 64 64" style="enable-background:new 0 0 64 64;" xml:space="preserve">
<path d="M57.7,50.4h-5.1V12.2l4.4-5c0.8-0.9,0.7-2.4-0.2-3.2s-2.4-0.7-3.2,0.2l-4.3,4.9H15.9V4c0-1.2-1-2.2-2.2-2.2s-2.2,1-2.2,2.2
	v5.1H6.3C5,9.1,4,10.1,4,11.4s1,2.2,2.2,2.2h5.1v36.8H6.3c-1.2,0-2.2,1-2.2,2.2s1,2.2,2.2,2.2h5.1V60c0,1.2,1,2.2,2.2,2.2
	s2.2-1,2.2-2.2v-5.1h32.2V60c0,1.2,1,2.2,2.2,2.2s2.2-1,2.2-2.2v-5.1h5.1c1.2,0,2.2-1,2.2-2.2S59,50.4,57.7,50.4z M15.9,13.6h29.4
	L15.9,46.7V13.6z M18.7,50.4l29.4-33.1v33.1H18.7z"/>
</svg>
