<?xml version="1.0" encoding="utf-8"?>
<!-- Generator: Adobe Illustrator 25.2.1, SVG Export Plug-In . SVG Version: 6.00 Build 0)  -->
<svg version="1.1" id="lni_lni-grid" xmlns="http://www.w3.org/2000/svg" xmlns:xlink="http://www.w3.org/1999/xlink" x="0px"
	 y="0px" viewBox="0 0 64 64" style="enable-background:new 0 0 64 64;" xml:space="preserve">
<path d="M60,34.2c1.2,0,2.2-1,2.2-2.2c0-1.2-1-2.2-2.2-2.2h-7V18.6h7c1.2,0,2.2-1,2.2-2.2s-1-2.2-2.2-2.2h-7V7.3
	c0-1.2-1-2.2-2.2-2.2s-2.2,1-2.2,2.2v6.8H34.2V7.3c0-1.2-1-2.2-2.2-2.2c-1.2,0-2.2,1-2.2,2.2v6.8H15.5V7.3c0-1.2-1-2.2-2.2-2.2
	S11,6.1,11,7.3v6.8H4c-1.2,0-2.2,1-2.2,2.2s1,2.2,2.2,2.2h7v11.1H4c-1.2,0-2.2,1-2.2,2.2c0,1.2,1,2.2,2.2,2.2h7v11.1H4
	c-1.2,0-2.2,1-2.2,2.2s1,2.2,2.2,2.2h7v6.8c0,1.2,1,2.2,2.2,2.2s2.2-1,2.2-2.2v-6.8h14.3v6.8c0,1.2,1,2.2,2.2,2.2
	c1.2,0,2.2-1,2.2-2.2v-6.8h14.3v6.8c0,1.2,1,2.2,2.2,2.2s2.2-1,2.2-2.2v-6.8h7c1.2,0,2.2-1,2.2-2.2s-1-2.2-2.2-2.2h-7V34.2H60z
	 M48.5,18.6v11.1H34.2V18.6H48.5z M15.5,18.6h14.3v11.1H15.5V18.6z M15.5,45.4V34.2h14.3v11.1H15.5z M48.5,45.4H34.2V34.2h14.3V45.4
	z"/>
</svg>
