<?xml version="1.0" encoding="utf-8"?>
<!-- Generator: Adobe Illustrator 25.2.1, SVG Export Plug-In . SVG Version: 6.00 Build 0)  -->
<svg version="1.1" id="lni_lni-highlight" xmlns="http://www.w3.org/2000/svg" xmlns:xlink="http://www.w3.org/1999/xlink" x="0px"
	 y="0px" viewBox="0 0 64 64" style="enable-background:new 0 0 64 64;" xml:space="preserve">
<path d="M35.3,1.8h-6.6c-3.8,0-7,3.1-7,7V43c0,1.4,1.2,2.6,2.6,2.6h0.1v4.6c0,1.2,0.4,2.2,1.1,3.1v6c0,0.9,0.4,1.8,1.2,2.4
	c0.5,0.4,1.1,0.6,1.8,0.6c0.3,0,0.6,0,0.8-0.1l7.1-2.1c1.3-0.4,2.2-1.6,2.2-3v-3.8c0.6-0.8,1-1.9,1-3v-4.6h0c1.5,0,2.6-1.2,2.6-2.6
	V8.7C42.3,4.9,39.2,1.8,35.3,1.8z M26.2,8.7c0-1.4,1.1-2.5,2.5-2.5h6.6c1.4,0,2.5,1.1,2.5,2.5v32.4H26.2V8.7z M30,57.2v-2.1h4.1V56
	L30,57.2z M35.1,50.2c0,0.2-0.2,0.4-0.4,0.4h-5.4c-0.2,0-0.4-0.2-0.4-0.4v-4.6h6.2V50.2z"/>
</svg>
