<?xml version="1.0" encoding="utf-8"?>
<!-- Generator: Adobe Illustrator 25.2.1, SVG Export Plug-In . SVG Version: 6.00 Build 0)  -->
<svg version="1.1" id="lni_lni-highlight-alt" xmlns="http://www.w3.org/2000/svg" xmlns:xlink="http://www.w3.org/1999/xlink"
	 x="0px" y="0px" viewBox="0 0 64 64" style="enable-background:new 0 0 64 64;" xml:space="preserve">
<path d="M60,10.2l-5.3-5.3c-3-3-7.8-3-10.8,0L13.7,35.1c-1,1-1,2.7,0,3.8l0.3,0.3L9.1,44c-0.9,0.9-1.4,2.1-1.5,3.2l-4.9,4.9
	c-0.7,0.7-1,1.7-0.9,2.6c0.1,0.9,0.7,1.8,1.6,2.2l7.4,4c0.5,0.3,1,0.4,1.5,0.4c0.8,0,1.7-0.3,2.3-1l3.1-3.1c1.1-0.1,2.3-0.6,3.1-1.5
	l4.9-4.9l0.2,0.2c0.5,0.5,1.2,0.8,1.9,0.8c0.7,0,1.4-0.3,1.9-0.8L60,20.9c1.4-1.4,2.2-3.3,2.2-5.4C62.2,13.5,61.5,11.6,60,10.2z
	 M12,56.6L7.2,54l2.2-2.2l3.7,3.7L12,56.6z M22.5,47.8l-4.9,4.9c-0.3,0.3-0.8,0.3-1.1,0l-4.3-4.3C12,48.1,12,47.9,12,47.8
	s0-0.4,0.2-0.6l4.9-4.9l2.7,2.7L22.5,47.8z M56.8,17.7l-29,29L23,41.9L18.1,37l29-29c1.2-1.2,3.2-1.2,4.4,0l5.3,5.3
	C58.1,14.6,58.1,16.5,56.8,17.7z"/>
</svg>
