<?xml version="1.0" encoding="utf-8"?>
<!-- Generator: Adobe Illustrator 25.2.1, SVG Export Plug-In . SVG Version: 6.00 Build 0)  -->
<svg version="1.1" id="lni_lni-layers" xmlns="http://www.w3.org/2000/svg" xmlns:xlink="http://www.w3.org/1999/xlink" x="0px"
	 y="0px" viewBox="0 0 64 64" style="enable-background:new 0 0 64 64;" xml:space="preserve">
<path d="M53.5,38.8l-0.8-0.4l1-0.6c2-1.2,3.1-3.3,3.1-5.7c0-2.3-1.3-4.4-3.3-5.6l-2.1-1.2l2.3-1.4c2-1.2,3.1-3.3,3.1-5.7
	c0-2.3-1.3-4.4-3.3-5.5L35.4,2.6c-2-1.1-4.5-1.1-6.4,0L10.4,13.4c-2,1.2-3.2,3.3-3.2,5.6s1.2,4.5,3.2,5.6l2.2,1.3l-2.2,1.3
	c-2,1.2-3.2,3.3-3.2,5.6s1.2,4.5,3.2,5.6l0.9,0.5l-0.9,0.5c-2,1.2-3.3,3.3-3.3,5.6c0,2.4,1.2,4.5,3.2,5.6l18.4,10.7
	c1,0.6,2.1,0.9,3.3,0.9c1.2,0,2.4-0.3,3.4-1L53.8,50c2-1.2,3.1-3.3,3.1-5.7C56.8,42,55.6,39.9,53.5,38.8z M11.6,19
	c0-0.3,0.1-1.2,1-1.7L31.2,6.5c0.6-0.4,1.4-0.4,2,0l18.2,10.1c0.9,0.5,1,1.4,1,1.7c0,0.3-0.1,1.2-1,1.8L33.1,31.4
	c-0.6,0.4-1.4,0.4-2.1,0L12.6,20.7C11.7,20.2,11.6,19.3,11.6,19z M12.6,31.1l4.4-2.6l11.7,6.8c1,0.6,2.1,0.9,3.3,0.9
	c1.2,0,2.4-0.3,3.4-1l11.6-7.1l4.3,2.4c0.9,0.5,1,1.4,1,1.7c0,0.3-0.1,1.2-1,1.8L33.1,45.2c-0.6,0.4-1.4,0.4-2.1,0L12.6,34.5
	c-0.9-0.5-1-1.4-1-1.7C11.6,32.5,11.7,31.6,12.6,31.1z M51.4,46.2L33.1,57.5c-0.6,0.4-1.4,0.4-2.1,0L12.6,46.8c-0.9-0.5-1-1.4-1-1.7
	c0-0.3,0.1-1.2,1-1.7l3.1-1.8l13.1,7.6c1,0.6,2.1,0.9,3.3,0.9c1.2,0,2.4-0.3,3.4-1l12.9-7.9l3,1.6c0.9,0.5,1,1.4,1,1.7
	C52.4,44.8,52.3,45.7,51.4,46.2z"/>
</svg>
