<?xml version="1.0" encoding="utf-8"?>
<!-- Generator: Adobe Illustrator 25.2.1, SVG Export Plug-In . SVG Version: 6.00 Build 0)  -->
<svg version="1.1" id="lni_lni-layout" xmlns="http://www.w3.org/2000/svg" xmlns:xlink="http://www.w3.org/1999/xlink" x="0px"
	 y="0px" viewBox="0 0 64 64" style="enable-background:new 0 0 64 64;" xml:space="preserve">
<path d="M55.8,1.9H8.1c-3.4,0-6.2,2.8-6.2,6.2v47.6c0,3.4,2.8,6.2,6.2,6.2h47.6c3.4,0,6.2-2.8,6.2-6.2V8.1C62,4.7,59.2,1.9,55.8,1.9
	z M8.1,6.4h47.6c1,0,1.8,0.8,1.8,1.8v8.8H6.4V8.1C6.4,7.1,7.2,6.4,8.1,6.4z M21.5,21.4h36v15.9h-36V21.4z M6.4,55.8V21.4H17v36.1
	H8.1C7.2,57.5,6.4,56.7,6.4,55.8z M55.8,57.5H21.5V41.8h36v14C57.5,56.7,56.8,57.5,55.8,57.5z"/>
</svg>
