<?xml version="1.0" encoding="utf-8"?>
<!-- Generator: Adobe Illustrator 25.2.1, SVG Export Plug-In . SVG Version: 6.00 Build 0)  -->
<svg version="1.1" id="lni_lni-move" xmlns="http://www.w3.org/2000/svg" xmlns:xlink="http://www.w3.org/1999/xlink" x="0px"
	 y="0px" viewBox="0 0 64 64" style="enable-background:new 0 0 64 64;" xml:space="preserve">
<path d="M61.3,29.7l-8.1-8.1c-0.9-0.9-2.3-0.9-3.2,0c-0.9,0.9-0.9,2.3,0,3.2l5,5H34.3V9l4.9,5c0.4,0.4,1,0.7,1.6,0.7
	c0.6,0,1.1-0.2,1.6-0.7c0.9-0.9,0.9-2.3,0-3.2l-8.1-8.1c-0.6-0.6-1.4-1-2.3-1h0c-0.9,0-1.7,0.3-2.3,1l-8.1,8.1
	c-0.9,0.9-0.9,2.3,0,3.2c0.9,0.9,2.3,0.9,3.2,0l5-5v20.8H9l5-5c0.9-0.9,0.9-2.3,0-3.2c-0.9-0.9-2.3-0.9-3.2,0l-8.1,8.1
	c-1.3,1.3-1.3,3.3,0,4.6l8.1,8.1c0.4,0.4,1,0.7,1.6,0.7c0.6,0,1.1-0.2,1.6-0.7c0.9-0.9,0.9-2.3,0-3.2l-5-5h20.8v20.8l-5-5
	c-0.9-0.9-2.3-0.9-3.2,0s-0.9,2.3,0,3.2l8.1,8.1c0.6,0.6,1.4,1,2.3,1h0c0.9,0,1.7-0.3,2.3-1l8.1-8.1c0.9-0.9,0.9-2.3,0-3.2
	c-0.9-0.9-2.3-0.9-3.2,0l-4.9,5V34.2H55l-5,5c-0.9,0.9-0.9,2.3,0,3.2c0.4,0.4,1,0.7,1.6,0.7c0.6,0,1.2-0.2,1.6-0.7l8.1-8.1
	C62.5,33,62.5,31,61.3,29.7z"/>
</svg>
