<?xml version="1.0" encoding="utf-8"?>
<!-- Generator: Adobe Illustrator 25.2.1, SVG Export Plug-In . SVG Version: 6.00 Build 0)  -->
<svg version="1.1" id="lni_lni-pallet" xmlns="http://www.w3.org/2000/svg" xmlns:xlink="http://www.w3.org/1999/xlink" x="0px"
	 y="0px" viewBox="0 0 64 64" style="enable-background:new 0 0 64 64;" xml:space="preserve">
<g>
	<path d="M55.9,43.9l-0.3-0.2c-0.8-0.5-1.7-0.9-3.8-1.5l-0.1,0c-0.7-0.1-1.5-0.4-1.8-0.6l-0.1-0.1c-0.4-0.4-0.7-1.1-0.7-1.9
		c0-0.7,0.3-1.4,0.7-1.9l3.9-3.9c6.9-6.9,6.9-17.8,0-24.8c-4.6-4.7-11-7.2-18.1-7.2c-7.9,0-15.9,3.4-22,9.4C8,16.9,5,24.3,5,32.4
		c0,8.1,3.1,15.6,8.8,21.1c5.7,5.7,13.2,8.8,21.2,8.8c7.9,0,15.4-3.2,21.1-8.9c1.2-1.2,1.9-3,1.9-4.7C58,46.8,57.2,45,55.9,43.9z
		 M52.9,50.2c-4.8,4.9-11.2,7.6-17.9,7.6c-6.9,0-13.1-2.6-18-7.5c-4.8-4.7-7.5-11-7.5-17.9c0-6.9,2.6-13.1,7.4-18
		C22.2,9.2,29,6.2,35.8,6.2c5.9,0,11.1,2,14.9,5.9c5.2,5.3,5.2,13.3,0,18.5l-4,4c-1.2,1.3-1.9,3.1-1.9,5c0,2,0.7,3.7,1.9,5
		c1.2,1.3,3.6,1.9,4.2,2c1.4,0.3,1.9,0.6,2.3,0.8c0.2,0.3,0.4,0.8,0.4,1.3C53.5,49.2,53.2,49.9,52.9,50.2z"/>
	<path d="M36.8,36.7c-1.4,0-2.5,1.1-2.5,2.5s1.1,2.5,2.5,2.5s2.5-1.1,2.5-2.5S38.2,36.7,36.8,36.7z"/>
	<path d="M47.7,27.3c0-3.3-2.7-6.1-6.1-6.1s-6.1,2.7-6.1,6.1c0,3.3,2.7,6.1,6.1,6.1S47.7,30.7,47.7,27.3z M41.6,28.9
		c-0.9,0-1.6-0.7-1.6-1.6s0.7-1.6,1.6-1.6s1.6,0.7,1.6,1.6S42.5,28.9,41.6,28.9z"/>
	<path d="M37.3,16.7c0-4-3.3-7.3-7.3-7.3s-7.3,3.3-7.3,7.3s3.3,7.3,7.3,7.3S37.3,20.8,37.3,16.7z M30,19.6c-1.6,0-2.8-1.3-2.8-2.8
		c0-1.6,1.3-2.8,2.8-2.8s2.8,1.3,2.8,2.8C32.8,18.3,31.6,19.6,30,19.6z"/>
</g>
</svg>
