<?xml version="1.0" encoding="utf-8"?>
<!-- Generator: Adobe Illustrator 25.2.1, SVG Export Plug-In . SVG Version: 6.00 Build 0)  -->
<svg version="1.1" id="lni_lni-slice" xmlns="http://www.w3.org/2000/svg" xmlns:xlink="http://www.w3.org/1999/xlink" x="0px"
	 y="0px" viewBox="0 0 64 64" style="enable-background:new 0 0 64 64;" xml:space="preserve">
<path d="M61.3,51.9l-12-12l0,0L18.6,9.3C17.1,7.8,15.1,7,13,7c-2.1,0-4.1,0.8-5.6,2.3l-3.3,3.3C1,15.7,1,20.8,4.1,23.9l30.7,30.7
	c0.4,0.4,1,0.7,1.6,0.7s1.2-0.2,1.6-0.7l1.5-1.5l3.5,3.3c0.4,0.4,1,0.6,1.5,0.6h14.8c1.3,0,2.4-0.8,2.8-2
	C62.5,53.9,62.1,52.7,61.3,51.9z M7.3,15.8l3.3-3.3c0.6-0.6,1.5-1,2.4-1c0.9,0,1.8,0.4,2.4,1l2.3,2.3L9.5,23l-2.3-2.3
	C5.9,19.4,5.9,17.2,7.3,15.8z M12.7,26.2l2.5-2.5l7,7c0.4,0.4,1,0.7,1.6,0.7c0.6,0,1.2-0.2,1.6-0.7c0.9-0.9,0.9-2.3,0-3.2l-7-7
	l2.5-2.5l23.7,23.7l-8.2,8.2L12.7,26.2z M45.4,52.5l-2.7-2.6l5.1-5.1l7.7,7.7H45.4z"/>
</svg>
