<?xml version="1.0" encoding="utf-8"?>
<!-- Generator: Adobe Illustrator 25.2.1, SVG Export Plug-In . SVG Version: 6.00 Build 0)  -->
<svg version="1.1" id="lni_lni-ux" xmlns="http://www.w3.org/2000/svg" xmlns:xlink="http://www.w3.org/1999/xlink" x="0px" y="0px"
	 viewBox="0 0 64 64" style="enable-background:new 0 0 64 64;" xml:space="preserve">
<path d="M48.1,38.5c1.9,0,3.5-1.6,3.5-3.5v-7.4c0-1.9-1.6-3.5-3.5-3.5h-7.4c-1.9,0-3.5,1.6-3.5,3.5v1.4H26.8v-1.4
	c0-1.9-1.6-3.5-3.5-3.5h-1.4v-7.9h1.4c1.9,0,3.5-1.6,3.5-3.5V5.3c0-1.9-1.6-3.5-3.5-3.5h-7.4c-1.9,0-3.5,1.6-3.5,3.5v7.4
	c0,1.9,1.6,3.5,3.5,3.5h1.4v7.9h-1.4c-1.9,0-3.5,1.6-3.5,3.5V35c0,1.9,1.6,3.5,3.5,3.5h7.4c1.9,0,3.5-1.6,3.5-3.5v-1.4h10.4V35
	c0,1.9,1.6,3.5,3.5,3.5h1.4v9.3h-1.4c-1.9,0-3.5,1.6-3.5,3.5v7.4c0,1.9,1.6,3.5,3.5,3.5h7.4c1.9,0,3.5-1.6,3.5-3.5v-7.4
	c0-1.9-1.6-3.5-3.5-3.5h-1.4v-9.3H48.1z M16.9,6.2h5.4v5.4h-5.4V6.2z M22.3,34h-5.4v-5.4h2.7c0,0,0,0,0,0s0,0,0,0h2.7V34z
	 M47.1,57.8h-5.4v-5.4h5.4V57.8z M41.7,28.6h5.4V34h-5.4V28.6z"/>
</svg>
