<?xml version="1.0" encoding="utf-8"?>
<!-- Generator: Adobe Illustrator 25.2.1, SVG Export Plug-In . SVG Version: 6.00 Build 0)  -->
<svg version="1.1" id="lni_lni-vector" xmlns="http://www.w3.org/2000/svg" xmlns:xlink="http://www.w3.org/1999/xlink" x="0px"
	 y="0px" viewBox="0 0 64 64" style="enable-background:new 0 0 64 64;" xml:space="preserve">
<path d="M55.3,29.2c3.8,0,6.9-3.1,6.9-6.9s-3.1-6.9-6.9-6.9c-3.1,0-5.8,2.1-6.6,4.9H38.6c-0.9-2.8-3.5-4.9-6.6-4.9
	c-3.1,0-5.8,2.1-6.6,4.9H15.3c-0.9-2.8-3.5-4.9-6.6-4.9c-3.8,0-6.9,3.1-6.9,6.9s3.1,6.9,6.9,6.9c2.9,0,5.4-1.8,6.4-4.4h3.6
	c-3.5,3-6.1,7.1-7,11.7h-1.3c-2,0-3.6,1.6-3.6,3.6V45c0,2,1.6,3.6,3.6,3.6h7.5c2,0,3.6-1.6,3.6-3.6v-4.9c0-2-1.6-3.6-3.6-3.6h-1.5
	c1.2-4.9,4.8-9,9.6-10.9c1.2,2.1,3.4,3.6,6,3.6c2.5,0,4.7-1.4,5.9-3.4c4.6,1.9,7.9,5.9,9.1,10.7h-1c-2,0-3.6,1.6-3.6,3.6V45
	c0,2,1.6,3.6,3.6,3.6h7.5c2,0,3.6-1.6,3.6-3.6v-4.9c0-2-1.6-3.6-3.6-3.6h-1.9c-0.9-4.6-3.4-8.8-6.9-11.7h4.2
	C49.9,27.4,52.4,29.2,55.3,29.2z M55.3,19.9c1.3,0,2.4,1.1,2.4,2.4s-1.1,2.4-2.4,2.4c-1.3,0-2.4-1.1-2.4-2.4S54,19.9,55.3,19.9z
	 M8.7,24.7c-1.3,0-2.4-1.1-2.4-2.4s1.1-2.4,2.4-2.4s2.4,1.1,2.4,2.4S10,24.7,8.7,24.7z M17,44.1h-5.7V41H17V44.1z M52.7,44.1H47V41
	h5.7V44.1z M32,24.7c-1.3,0-2.4-1.1-2.4-2.4s1.1-2.4,2.4-2.4c1.3,0,2.4,1.1,2.4,2.4S33.3,24.7,32,24.7z"/>
</svg>
