<?xml version="1.0" encoding="utf-8"?>
<!-- Generator: Adobe Illustrator 22.0.0, SVG Export Plug-In . SVG Version: 6.00 Build 0)  -->
<svg version="1.1" id="lni_lni-anchor" xmlns="http://www.w3.org/2000/svg" xmlns:xlink="http://www.w3.org/1999/xlink" x="0px"
	 y="0px" viewBox="0 0 64 64" style="enable-background:new 0 0 64 64;" xml:space="preserve">
<path d="M54,46.9l-5.1-5.4c-0.8-0.9-2.2-1-3.1-0.1l-5.4,4.8c-0.9,0.8-1,2.3-0.2,3.2c0.8,0.9,2.2,1,3.2,0.2l1.2-1.1
	c-1.2,4.7-5.3,8.4-10.5,9.2l0-31.5h5.5c1.2,0,2.3-1,2.3-2.3s-1-2.3-2.3-2.3h-5.5l0-3.6c3.5-1,6-4.2,6-7.9c0-4.5-3.7-8.2-8.2-8.2
	s-8.2,3.7-8.2,8.2c0,3.8,2.5,6.9,6,7.9l0,3.6h-5.5c-1.2,0-2.3,1-2.3,2.3s1,2.3,2.3,2.3h5.5l0,31.5c-5.2-0.8-9.4-4.6-10.5-9.3
	l1.5,1.3c0.9,0.8,2.4,0.7,3.2-0.2c0.8-0.9,0.7-2.4-0.2-3.2l-5.5-4.9c-0.9-0.8-2.3-0.7-3.1,0.2L10,46.8c-0.8,0.9-0.8,2.3,0.1,3.2
	c0.4,0.4,1,0.6,1.5,0.6c0.6,0,1.2-0.2,1.7-0.7l1.3-1.4c1.4,7.8,8.6,13.8,17.3,13.8h0c0,0,0,0,0,0c8.7,0,16-6,17.3-13.9l1.5,1.6
	c0.4,0.5,1,0.7,1.6,0.7c0.5,0,1.1-0.2,1.5-0.6C54.8,49.2,54.9,47.8,54,46.9z M28.2,10c0-2.1,1.7-3.7,3.7-3.7s3.7,1.7,3.7,3.7
	s-1.7,3.7-3.7,3.7S28.2,12,28.2,10z"/>
</svg>
