<?xml version="1.0" encoding="utf-8"?>
<!-- Generator: Adobe Illustrator 22.0.0, SVG Export Plug-In . SVG Version: 6.00 Build 0)  -->
<svg version="1.1" id="lni_lni-bi-cycle" xmlns="http://www.w3.org/2000/svg" xmlns:xlink="http://www.w3.org/1999/xlink" x="0px"
	 y="0px" viewBox="0 0 64 64" style="enable-background:new 0 0 64 64;" xml:space="preserve">
<g>
	<path d="M13,36.1c-6.2,0-11.2,5-11.2,11.2s5,11.2,11.2,11.2s11.2-5,11.2-11.2S19.2,36.1,13,36.1z M13,54.1c-3.7,0-6.7-3-6.7-6.7
		s3-6.7,6.7-6.7s6.7,3,6.7,6.7S16.7,54.1,13,54.1z"/>
	<path d="M51.1,36.2c-6.2,0-11.2,5-11.2,11.2s5,11.2,11.2,11.2s11.2-5,11.2-11.2S57.2,36.2,51.1,36.2z M51.1,54
		c-3.7,0-6.7-3-6.7-6.7s3-6.7,6.7-6.7s6.7,3,6.7,6.7S54.8,54,51.1,54z"/>
	<path d="M46.2,30.5c0.8,1,2.2,1.1,3.2,0.4c1-0.8,1.1-2.2,0.4-3.2l-8.5-10.8l-0.2-0.2c-1-1-2.4-1.2-3.6-0.6l-11.6,6.8
		c-0.8,0.5-1.4,1.3-1.5,2.2c-0.1,0.9,0.2,1.7,0.8,2.4l3.8,4.4c0.5,0.6,0.8,1.4,0.8,2.3v6.7c0,1.2,1,2.3,2.3,2.3c1.2,0,2.3-1,2.3-2.3
		v-6.7c0-1.9-0.7-3.8-1.9-5.2l-2.7-3.1l8.8-5.2L46.2,30.5z"/>
	<path d="M48.6,17.7c3.4,0,6.1-2.7,6.1-6.1S52,5.4,48.6,5.4c-3.4,0-6.1,2.7-6.1,6.1S45.2,17.7,48.6,17.7z M48.6,9.9
		c0.9,0,1.6,0.7,1.6,1.6s-0.7,1.6-1.6,1.6S47,12.5,47,11.6S47.7,9.9,48.6,9.9z"/>
</g>
</svg>
