<?xml version="1.0" encoding="utf-8"?>
<!-- Generator: Adobe Illustrator 22.0.0, SVG Export Plug-In . SVG Version: 6.00 Build 0)  -->
<svg version="1.1" id="lni_lni-bridge" xmlns="http://www.w3.org/2000/svg" xmlns:xlink="http://www.w3.org/1999/xlink" x="0px"
	 y="0px" viewBox="0 0 64 64" style="enable-background:new 0 0 64 64;" xml:space="preserve">
<path d="M61,29.1h-6.7c-3-9.2-11.8-15.9-22.3-15.9S12.7,19.9,9.7,29.1H3c-1.2,0-2.3,1-2.3,2.3c0,1.2,1,2.3,2.3,2.3h5.7v13
	c0,1.2,1,2.3,2.3,2.3s2.3-1,2.3-2.3V35.9h0c0-0.8,0.1-1.5,0.2-2.3h37.3c0.1,0.8,0.2,1.5,0.2,2.3h0v10.7c0,1.2,1,2.3,2.3,2.3
	s2.3-1,2.3-2.3v-13H61c1.2,0,2.3-1,2.3-2.3C63.3,30.1,62.2,29.1,61,29.1z M29.8,29.1h-6v-9.5c1.9-0.9,3.9-1.5,6-1.7V29.1z
	 M34.3,17.9c2.1,0.2,4.2,0.9,6,1.7v9.5h-6V17.9z M19.2,22.6v6.5h-4.7C15.6,26.6,17.2,24.4,19.2,22.6z M44.8,29.1v-6.5
	c2,1.8,3.6,4,4.7,6.5H44.8z"/>
</svg>
