<?xml version="1.0" encoding="utf-8"?>
<!-- Generator: Adobe Illustrator 22.0.0, SVG Export Plug-In . SVG Version: 6.00 Build 0)  -->
<svg version="1.1" id="lni_lni-bubble" xmlns="http://www.w3.org/2000/svg" xmlns:xlink="http://www.w3.org/1999/xlink" x="0px"
	 y="0px" viewBox="0 0 64 64" style="enable-background:new 0 0 64 64;" xml:space="preserve">
<g>
	<g>
		<g>
			<path d="M5.9,56.1c-0.6,0-1.2-0.1-1.8-0.4c-1.5-0.7-2.4-2.1-2.4-3.8V14.2c0-3.4,2.8-6.3,6.3-6.3h48c3.4,0,6.3,2.8,6.3,6.3v27.6
				c0,3.4-2.8,6.3-6.3,6.3H17.1l-8.5,7C7.8,55.7,6.9,56.1,5.9,56.1z M8,12.4c-1,0-1.8,0.8-1.8,1.8v37l8.6-7.1
				c0.4-0.3,0.9-0.5,1.4-0.5H56c1,0,1.8-0.8,1.8-1.8V14.2c0-1-0.8-1.8-1.8-1.8H8z"/>
		</g>
	</g>
</g>
</svg>
