<?xml version="1.0" encoding="utf-8"?>
<!-- Generator: Adobe Illustrator 22.0.0, SVG Export Plug-In . SVG Version: 6.00 Build 0)  -->
<svg version="1.1" id="lni_lni-bullhorn" xmlns="http://www.w3.org/2000/svg" xmlns:xlink="http://www.w3.org/1999/xlink" x="0px"
	 y="0px" viewBox="0 0 64 64" style="enable-background:new 0 0 64 64;" xml:space="preserve">
<path d="M55.9,1.8h-8.1c-3.2,0-5.9,2.4-6.2,5.5L17.2,9.7H8.1c-3.4,0-6.2,2.7-6.2,6v16.5c0,2.3,1.4,4.4,3.4,5.4l3.5,19.3
	c0.7,3.1,3.6,5.4,6.9,5.4c2.2,0,4.3-1,5.7-2.7c1.2-1.5,1.7-3.4,1.3-5.2l-2.7-15.6L41.5,43c0.2,3.3,2.9,5.9,6.2,5.9h8.1
	c3.4,0,6.3-2.8,6.3-6.3V8C62.1,4.6,59.3,1.8,55.9,1.8z M19.6,14l21.9-2.2v26.6l-21.9-4.3V14z M6.4,15.7c0-0.7,0.7-1.5,1.7-1.5h7
	v19.5h-7c-0.9,0-1.7-0.7-1.7-1.5V15.7z M17.9,56.8c-0.5,0.6-1.3,1-2.2,1c-1.2,0-2.3-0.8-2.5-1.7L10,38.2h5.3l2.9,17l0,0.1
	C18.4,56,18.1,56.5,17.9,56.8z M57.6,42.6c0,1-0.8,1.8-1.8,1.8h-8.1c-1,0-1.8-0.8-1.8-1.8V8c0-1,0.8-1.8,1.8-1.8h8.1
	c1,0,1.8,0.8,1.8,1.8V42.6z"/>
</svg>
