<?xml version="1.0" encoding="utf-8"?>
<!-- Generator: Adobe Illustrator 22.0.0, SVG Export Plug-In . SVG Version: 6.00 Build 0)  -->
<svg version="1.1" id="lni_lni-car-alt" xmlns="http://www.w3.org/2000/svg" xmlns:xlink="http://www.w3.org/1999/xlink" x="0px"
	 y="0px" viewBox="0 0 64 64" style="enable-background:new 0 0 64 64;" xml:space="preserve">
<g>
	<path d="M15.2,38.4h6.4c1.2,0,2.3-1,2.3-2.3s-1-2.3-2.3-2.3h-6.4c-1.2,0-2.3,1-2.3,2.3S13.9,38.4,15.2,38.4z"/>
	<path d="M41.6,38.4h6.4c1.2,0,2.3-1,2.3-2.3s-1-2.3-2.3-2.3h-6.4c-1.2,0-2.3,1-2.3,2.3S40.3,38.4,41.6,38.4z"/>
	<path d="M60,21.4h-2.9l-4.7-12c-0.7-1.8-2.5-3.1-4.5-3.1H15.7c-2,0-3.7,1.2-4.5,3l-4.7,12H4c-1.2,0-2.3,1-2.3,2.3s1,2.3,2.3,2.3
		h0.8c0,0,0,0.1,0,0.1c0,0.1,0,0.1,0,0.2v16.3c0,2.6,2,4.8,4.5,5.2v3.9c0,3.4,2.8,6.3,6.3,6.3h2c3.4,0,6.3-2.8,6.3-6.3v-3.8h15.5
		v3.8c0,3.4,2.8,6.3,6.3,6.3h2c3.4,0,6.3-2.8,6.3-6.3v-3.8c2.8-0.1,5-2.4,5-5.2V26.1c0-0.1,0-0.2,0-0.3H60c1.2,0,2.3-1,2.3-2.3
		S61.2,21.4,60,21.4z M15.4,11c0-0.1,0.1-0.2,0.3-0.2h32.2c0.1,0,0.2,0.1,0.3,0.1c0,0,0,0.1,0,0.1l5.1,12.8H10.3L15.4,11z
		 M19.3,51.4c0,1-0.8,1.8-1.8,1.8h-2c-1,0-1.8-0.8-1.8-1.8v-3.8h5.5V51.4z M49.4,51.4c0,1-0.8,1.8-1.8,1.8h-2c-1,0-1.8-0.8-1.8-1.8
		v-3.8h5.5V51.4z M54.4,42.4c0,0.4-0.3,0.8-0.8,0.8H10c-0.4,0-0.8-0.3-0.8-0.8V28.4h45.1V42.4z"/>
</g>
</svg>
