<?xml version="1.0" encoding="utf-8"?>
<!-- Generator: Adobe Illustrator 22.0.0, SVG Export Plug-In . SVG Version: 6.00 Build 0)  -->
<svg version="1.1" id="lni_lni-car" xmlns="http://www.w3.org/2000/svg" xmlns:xlink="http://www.w3.org/1999/xlink" x="0px"
	 y="0px" viewBox="0 0 64 64" style="enable-background:new 0 0 64 64;" xml:space="preserve">
<g>
	<path d="M17.4,30.1c-3.9,0-7.1,3.1-7.1,7c0,3.9,3.2,7,7.1,7s7.1-3.1,7.1-7C24.5,33.2,21.3,30.1,17.4,30.1z M17.4,39.6
		c-1.4,0-2.6-1.1-2.6-2.5c0-1.4,1.2-2.5,2.6-2.5s2.6,1.1,2.6,2.5C20,38.4,18.9,39.6,17.4,39.6z"/>
	<path d="M46.6,29.9c-3.9,0-7.1,3.2-7.1,7.1s3.2,7.1,7.1,7.1s7.1-3.2,7.1-7.1S50.5,29.9,46.6,29.9z M46.6,39.5
		c-1.4,0-2.6-1.1-2.6-2.6s1.2-2.6,2.6-2.6s2.6,1.1,2.6,2.6S48,39.5,46.6,39.5z"/>
	<path d="M34.4,34.7h-4.8c-1.2,0-2.3,1-2.3,2.3s1,2.3,2.3,2.3h4.8c1.2,0,2.3-1,2.3-2.3S35.6,34.7,34.4,34.7z"/>
	<path d="M57.8,23.3l-0.9-9.9c-0.5-5.6-5.6-10-11.6-10H18.7c-6,0-11.1,4.4-11.6,9.9l-0.9,9.9c-2.6,0.8-4.4,3.2-4.4,6v15.5
		C1.8,48.2,4.6,51,8,51h0.2v3.3c0,3.4,2.8,6.3,6.3,6.3H16c3.4,0,6.3-2.8,6.3-6.3V51h19.4v3.3c0,3.4,2.8,6.3,6.3,6.3h1.6
		c3.4,0,6.3-2.8,6.3-6.3V51H56c3.4,0,6.3-2.8,6.3-6.3V29.2C62.3,26.4,60.4,24.1,57.8,23.3z M11.6,13.8c0.3-3.3,3.4-5.8,7.1-5.8h26.7
		c3.7,0,6.9,2.6,7.1,5.8l0.8,9.2H10.7L11.6,13.8z M17.8,54.3c0,1-0.8,1.8-1.8,1.8h-1.6c-1,0-1.8-0.8-1.8-1.8V51h5.1V54.3z
		 M51.3,54.3c0,1-0.8,1.8-1.8,1.8H48c-1,0-1.8-0.8-1.8-1.8V51h5.1V54.3z M57.8,44.8c0,1-0.8,1.8-1.8,1.8H8.2H8c-1,0-1.8-0.8-1.8-1.8
		V29.2c0-1,0.8-1.8,1.8-1.8h48c1,0,1.8,0.8,1.8,1.8V44.8z"/>
</g>
</svg>
