<?xml version="1.0" encoding="utf-8"?>
<!-- Generator: Adobe Illustrator 22.0.0, SVG Export Plug-In . SVG Version: 6.00 Build 0)  -->
<svg version="1.1" id="lni_lni-caravan" xmlns="http://www.w3.org/2000/svg" xmlns:xlink="http://www.w3.org/1999/xlink" x="0px"
	 y="0px" viewBox="0 0 64 64" style="enable-background:new 0 0 64 64;" xml:space="preserve">
<g>
	<path d="M18.3,19.6h-5.6c-1.8,0-3.3,1.5-3.3,3.3v5.6c0,1.8,1.5,3.3,3.3,3.3h5.6c1.8,0,3.3-1.5,3.3-3.3v-5.6
		C21.5,21,20.1,19.6,18.3,19.6z M17,27.2h-3.1v-3.1H17V27.2z"/>
	<path d="M60,39.9h-5.4V26.8c0-0.5-0.1-1-0.4-1.5l-7.1-11.4c-0.8-1.2-2.1-2-3.6-2H7.9c-3.4,0-6.1,2.7-6.1,6.1v20.3
		c0,3,2.2,5.5,5.1,6c0,0.1,0,0.3,0,0.4c0,4,3.3,7.3,7.3,7.3s7.3-3.3,7.3-7.3c0-0.1,0-0.2,0-0.3l38.5,0c1.2,0,2.3-1,2.3-2.3
		S61.2,39.9,60,39.9z M14.2,47.6c-1.6,0-2.8-1.3-2.8-2.8c0-1.6,1.3-2.8,2.8-2.8c1.6,0,2.8,1.3,2.8,2.8C17,46.3,15.7,47.6,14.2,47.6z
		 M14.2,37.4c-2.2,0-4.2,1-5.5,2.6H7.9c-0.9,0-1.6-0.7-1.6-1.6V18c0-0.9,0.7-1.6,1.6-1.6h35.5l6.7,10.9v12.6h-8.2V25.4
		c0-1.8-1.5-3.3-3.3-3.3H33c-1.8,0-3.3,1.5-3.3,3.3v14.6h-10C18.4,38.4,16.4,37.4,14.2,37.4z M34.3,39.9V26.6h3.1v13.3H34.3z"/>
</g>
</svg>
