<?xml version="1.0" encoding="utf-8"?>
<!-- Generator: Adobe Illustrator 22.0.0, SVG Export Plug-In . SVG Version: 6.00 Build 0)  -->
<svg version="1.1" id="lni_lni-comments-reply" xmlns="http://www.w3.org/2000/svg" xmlns:xlink="http://www.w3.org/1999/xlink"
	 x="0px" y="0px" viewBox="0 0 64 64" style="enable-background:new 0 0 64 64;" xml:space="preserve">
<g>
	<path d="M56,7.8H8c-3.4,0-6.2,2.8-6.2,6.2v37.7c0,1.6,0.9,3.1,2.4,3.8c0.6,0.3,1.2,0.4,1.8,0.4c1,0,1.9-0.3,2.7-1l8.5-7h5.1
		c1.2,0,2.3-1,2.3-2.3s-1-2.3-2.3-2.3h-5.9c-0.5,0-1,0.2-1.4,0.5l-8.6,7.1V14C6.3,13,7,12.3,8,12.3H56c0.9,0,1.7,0.8,1.7,1.7v31.7
		c0,1.2,1,2.3,2.3,2.3s2.3-1,2.3-2.3V14C62.3,10.6,59.5,7.8,56,7.8z"/>
	<path d="M53,43.6c-2.3-2.3-5.3-3.9-8.7-4.6v-2.2c0-1.3-0.7-2.5-1.9-3c-1.2-0.6-2.5-0.4-3.6,0.4l-10.1,8.1c-0.8,0.6-1.3,1.6-1.3,2.6
		c0,1,0.5,2,1.3,2.6l10.1,8.1c0.6,0.5,1.4,0.7,2.1,0.7c0.5,0,1-0.1,1.5-0.3c1.2-0.6,1.9-1.7,1.9-3v-1.2c2.1,0.5,4.5,1.6,7.1,3.2
		c1.1,0.7,2.4,0.7,3.5,0c1.1-0.6,1.7-1.8,1.7-3.1c0-0.8-0.1-1.4-0.2-1.8C55.8,47.4,54.9,45.5,53,43.6z M43.9,47
		c-1-0.2-2,0.1-2.8,0.8c-0.8,0.7-1.2,1.6-1.2,2.7v0.1l-7.1-5.7l7.1-5.7v0.7c0,1.7,1.2,3.1,2.9,3.4c2.8,0.5,5.2,1.7,7.1,3.5
		c1,1,1.5,1.8,1.9,3C49.4,48.6,46.7,47.5,43.9,47z"/>
	<path d="M9.6,24.9c0,3.4,2.7,6.1,6.1,6.1s6.1-2.7,6.1-6.1s-2.7-6.1-6.1-6.1S9.6,21.5,9.6,24.9z M17.4,24.9c0,0.9-0.7,1.6-1.6,1.6
		c-0.9,0-1.6-0.7-1.6-1.6c0-0.9,0.7-1.6,1.6-1.6C16.7,23.2,17.4,24,17.4,24.9z"/>
	<path d="M32,31c3.4,0,6.1-2.7,6.1-6.1s-2.7-6.1-6.1-6.1s-6.1,2.7-6.1,6.1S28.6,31,32,31z M32,23.2c0.9,0,1.6,0.7,1.6,1.6
		c0,0.9-0.7,1.6-1.6,1.6c-0.9,0-1.6-0.7-1.6-1.6C30.4,24,31.1,23.2,32,23.2z"/>
	<path d="M48.2,31c3.4,0,6.1-2.7,6.1-6.1s-2.7-6.1-6.1-6.1s-6.1,2.7-6.1,6.1S44.9,31,48.2,31z M48.2,23.2c0.9,0,1.6,0.7,1.6,1.6
		c0,0.9-0.7,1.6-1.6,1.6s-1.6-0.7-1.6-1.6C46.6,24,47.3,23.2,48.2,23.2z"/>
</g>
</svg>
