<?xml version="1.0" encoding="utf-8"?>
<!-- Generator: Adobe Illustrator 22.0.0, SVG Export Plug-In . SVG Version: 6.00 Build 0)  -->
<svg version="1.1" id="lni_lni-comments-alt" xmlns="http://www.w3.org/2000/svg" xmlns:xlink="http://www.w3.org/1999/xlink"
	 x="0px" y="0px" viewBox="0 0 64 64" style="enable-background:new 0 0 64 64;" xml:space="preserve">
<g>
	<path d="M44.4,19.5H18.6c-1.2,0-2.3,1-2.3,2.3s1,2.3,2.3,2.3h25.9c1.2,0,2.3-1,2.3-2.3S45.7,19.5,44.4,19.5z"/>
	<path d="M39.2,31.7H18.6c-1.2,0-2.3,1-2.3,2.3s1,2.3,2.3,2.3h20.6c1.2,0,2.3-1,2.3-2.3S40.4,31.7,39.2,31.7z"/>
	<path d="M56,7.9H8c-3.4,0-6.3,2.8-6.3,6.3v37.7c0,1.6,0.9,3.1,2.4,3.8c0.6,0.3,1.2,0.4,1.8,0.4c1,0,1.9-0.3,2.7-1l8.5-7H56
		c3.4,0,6.3-2.8,6.3-6.3V14.2C62.3,10.7,59.4,7.9,56,7.9z M57.8,41.8c0,1-0.8,1.8-1.8,1.8H16.3c-0.5,0-1,0.2-1.4,0.5l-8.6,7.1v-37
		c0-1,0.8-1.8,1.8-1.8h48c1,0,1.8,0.8,1.8,1.8V41.8z"/>
</g>
</svg>
