<?xml version="1.0" encoding="utf-8"?>
<!-- Generator: Adobe Illustrator 22.0.0, SVG Export Plug-In . SVG Version: 6.00 Build 0)  -->
<svg version="1.1" id="lni_lni-inbox" xmlns="http://www.w3.org/2000/svg" xmlns:xlink="http://www.w3.org/1999/xlink" x="0px"
	 y="0px" viewBox="0 0 64 64" style="enable-background:new 0 0 64 64;" xml:space="preserve">
<g>
	<path d="M60,26.3c-1.2,0-2.3,1-2.3,2.3v18.8c0,3.9-2.9,7-6.5,7H12.8c-3.7,0-6.5-3.1-6.5-7V28.5c0-1.2-1-2.3-2.3-2.3s-2.3,1-2.3,2.3
		v18.8c0,6.3,4.9,11.5,11,11.5h38.5c6.1,0,11-5.1,11-11.5V28.5C62.3,27.3,61.2,26.3,60,26.3z"/>
	<path d="M30.4,41.2c0.4,0.4,1,0.7,1.6,0.7c0.6,0,1.1-0.2,1.6-0.7l12.2-12.1c0.9-0.9,0.9-2.3,0-3.2c-0.9-0.9-2.3-0.9-3.2,0l-8.3,8.2
		V7.5c0-1.2-1-2.3-2.3-2.3c-1.2,0-2.3,1-2.3,2.3v26.8l-8.3-8.3c-0.9-0.9-2.3-0.9-3.2,0c-0.9,0.9-0.9,2.3,0,3.2L30.4,41.2z"/>
</g>
</svg>
