<?xml version="1.0" encoding="utf-8"?>
<!-- Generator: Adobe Illustrator 25.2.1, SVG Export Plug-In . SVG Version: 6.00 Build 0)  -->
<svg version="1.1" id="lni_lni-phone-set" xmlns="http://www.w3.org/2000/svg" xmlns:xlink="http://www.w3.org/1999/xlink" x="0px"
	 y="0px" viewBox="0 0 64 64" style="enable-background:new 0 0 64 64;" xml:space="preserve">
<g>
	<path d="M60.2,55.2l-1.8-18.1c-0.3-3.3-3.1-5.8-6.4-5.8H12c-3.3,0-6,2.5-6.4,5.8L3.8,55.2c-0.2,1.8,0.4,3.6,1.6,4.9
		c1.2,1.3,2.9,2.1,4.7,2.1h43.6c1.8,0,3.5-0.8,4.7-2.1C59.8,58.8,60.3,57,60.2,55.2z M55.2,57.1c-0.4,0.4-0.9,0.6-1.4,0.6H10.2
		c-0.5,0-1-0.2-1.4-0.6c-0.4-0.4-0.5-0.9-0.5-1.5l1.8-18.1c0.1-1,0.9-1.7,1.9-1.7h40c1,0,1.8,0.7,1.9,1.7l1.8,18.1
		C55.7,56.2,55.6,56.7,55.2,57.1z"/>
	<path d="M32,39.3c-4.1,0-7.5,3.4-7.5,7.5c0,4.2,3.4,7.5,7.5,7.5c4.2,0,7.5-3.4,7.5-7.5C39.5,42.7,36.2,39.3,32,39.3z M32,49.8
		c-1.7,0-3-1.4-3-3c0-1.7,1.4-3,3-3c1.7,0,3,1.4,3,3C35,48.5,33.7,49.8,32,49.8z"/>
	<path d="M6.1,20.6c0.2,4.4,4,6.7,6.6,6.7c0,0,0,0,0,0l7,0c0,0,0.1,0,0.1,0c3.2-0.2,6.4-2.3,6.4-6.7l0-1.9c3.4,0,9.9,0,13.2,0l0,1.9
		c0,4.4,3.2,6.5,6.4,6.7c0,0,7.1,0,7.1,0c0,0,0,0,0,0c2.7,0,6.4-2.3,6.6-6.7c0-0.3,0-3.9,0-4.1c0-0.1,0-0.2,0-0.3
		c-0.3-2.9-1.3-5.3-3.1-7.2c0,0-0.1-0.1-0.1-0.1c-2.6-2.4-5.6-3.7-7.9-4.5c-6.8-2.6-15.3-2.6-15.7-2.6c0,0,0,0,0,0
		c-6,0.1-9.8,0.6-15.6,2.6c-2.4,0.9-5.4,2.2-8,4.5c0,0-0.1,0.1-0.1,0.1c-1.8,1.9-2.8,4.3-3.1,7.2c0,0.1,0,0.2,0,0.3
		C6,16.7,6.1,20.2,6.1,20.6z M12.3,12.2c2-1.8,4.4-2.8,6.4-3.6c5.2-1.9,8.5-2.2,14.1-2.4c0.5,0,8.1,0.1,14.1,2.4
		c2.1,0.8,4.5,1.8,6.4,3.6c1,1.1,1.6,2.6,1.8,4.3c0,0.3,0,3.6,0,3.9c-0.1,2.1-2.1,2.4-2.1,2.4l-6.9,0c-1-0.1-2.1-0.5-2.1-2.2l0-4.1
		c0-1-0.6-1.9-1.6-2.1C41.7,14,24,14,23.3,14.3c-0.9,0.3-1.6,1.2-1.6,2.1l0,4.2c0,1.7-1.1,2.1-2.1,2.2l-6.9,0c0,0-2-0.3-2.1-2.3
		c0-0.3,0-1.4,0-2.4c0-0.7,0-1.2,0-1.5C10.7,14.7,11.3,13.3,12.3,12.2z"/>
</g>
</svg>
