<?xml version="1.0" encoding="utf-8"?>
<!-- Generator: Adobe Illustrator 25.2.1, SVG Export Plug-In . SVG Version: 6.00 Build 0)  -->
<svg version="1.1" id="lni_lni-phone" xmlns="http://www.w3.org/2000/svg" xmlns:xlink="http://www.w3.org/1999/xlink" x="0px"
	 y="0px" viewBox="0 0 64 64" style="enable-background:new 0 0 64 64;" xml:space="preserve">
<g>
	<path d="M37,62.3c-0.9,0-1.8-0.4-2.4-1L29.4,56c-1.1-1.1-1.3-2.9-0.5-4.2l4-6.4l-6.8-6.7L14.4,53c-0.6,0.8-1.5,1.2-2.5,1.3
		c-1,0.1-1.9-0.3-2.6-1l-6.5-6.5c-1.2-1.2-1.3-3-0.4-4.3L13.3,26L9,21.8c-3.5-3.5-3.4-9.2,0.1-12.7c1.7-1.7,3.9-2.6,6.3-2.7
		c2.5,0,4.7,0.9,6.4,2.6l4.2,4.3L42.3,2.3c1.4-0.9,3.2-0.7,4.3,0.4l6.5,6.5c0.7,0.7,1,1.6,1,2.6c0,1-0.5,1.9-1.3,2.5L38.6,26.1
		l6.7,6.8l6.5-4.1c1.4-0.9,3.1-0.7,4.3,0.5l5.2,5.2c0.8,0.8,1.1,1.8,1,2.9c-0.2,1.1-0.8,2-1.8,2.6l-13.1,7.3l-7.3,13.1
		c-0.5,1-1.5,1.6-2.6,1.8C37.4,62.2,37.2,62.3,37,62.3z M33.2,53.4l3.6,3.7l7.2-13l13-7.2l-3.6-3.7l-6.5,4.1
		c-1.4,0.9-3.2,0.7-4.3-0.5l-8.1-8.3c-0.7-0.7-1-1.6-1-2.6c0.1-1,0.5-1.9,1.3-2.5l14.3-11.7l-5-5.1L27.8,17.5
		c-1.4,0.9-3.2,0.7-4.4-0.4l-4.8-4.9c-0.8-0.8-1.9-1.2-3.1-1.2c-1.2,0-2.4,0.5-3.2,1.4c-1.8,1.8-1.8,4.6-0.1,6.3l4.9,4.8
		c1.2,1.2,1.3,3,0.4,4.4l0,0L6.6,44.2l5,5.1l11.7-14.3c0.6-0.8,1.5-1.2,2.5-1.3c1,0,1.9,0.3,2.6,1l8.2,8.1c1.1,1.1,1.3,2.9,0.5,4.3
		L33.2,53.4z M13.7,25.3C13.7,25.3,13.7,25.3,13.7,25.3L13.7,25.3L13.7,25.3z"/>
</g>
</svg>
