<?xml version="1.0" encoding="utf-8"?>
<!-- Generator: Adobe Illustrator 25.2.1, SVG Export Plug-In . SVG Version: 6.00 Build 0)  -->
<svg version="1.1" id="lni_lni-popup" xmlns="http://www.w3.org/2000/svg" xmlns:xlink="http://www.w3.org/1999/xlink" x="0px"
	 y="0px" viewBox="0 0 64 64" style="enable-background:new 0 0 64 64;" xml:space="preserve">
<g>
	<path d="M56,5H8c-3.4,0-6.2,2.8-6.2,6.2v32.8c0,3.4,2.8,6.2,6.2,6.2h14.6l6.9,8.4C30.1,59.6,31,60,32,60s1.9-0.4,2.5-1.2l6.9-8.4
		H56c3.4,0,6.2-2.8,6.2-6.2V11.3C62.2,7.8,59.4,5,56,5z M57.8,44.1c0,1-0.8,1.8-1.8,1.8H41.3c-1.1,0-2.2,0.4-3,1.2
		c-0.1,0.1-0.1,0.1-0.2,0.2L32,54.8l-6.1-7.5c-0.1-0.1-0.1-0.1-0.2-0.2c-0.8-0.8-1.8-1.2-3-1.2H8c-1,0-1.8-0.8-1.8-1.8V11.3
		c0-1,0.8-1.8,1.8-1.8h48c1,0,1.8,0.8,1.8,1.8V44.1z"/>
	<path d="M17.2,19.7h27.5c1.2,0,2.2-1,2.2-2.2s-1-2.2-2.2-2.2H17.2c-1.2,0-2.2,1-2.2,2.2S16,19.7,17.2,19.7z"/>
	<path d="M17.2,30h19.9c1.2,0,2.2-1,2.2-2.2s-1-2.2-2.2-2.2H17.2c-1.2,0-2.2,1-2.2,2.2S16,30,17.2,30z"/>
	<path d="M47.3,35.7H17.2c-1.2,0-2.2,1-2.2,2.2s1,2.2,2.2,2.2h30.1c1.2,0,2.2-1,2.2-2.2S48.5,35.7,47.3,35.7z"/>
</g>
</svg>
