<?xml version="1.0" encoding="utf-8"?>
<!-- Generator: Adobe Illustrator 25.2.1, SVG Export Plug-In . SVG Version: 6.00 Build 0)  -->
<svg version="1.1" id="lni_lni-reply" xmlns="http://www.w3.org/2000/svg" xmlns:xlink="http://www.w3.org/1999/xlink" x="0px"
	 y="0px" viewBox="0 0 64 64" style="enable-background:new 0 0 64 64;" xml:space="preserve">
<g>
	<path d="M30.3,56.9c-0.8,0-1.6-0.3-2.3-0.8L4.1,36.9c-1.5-1.2-2.4-3-2.4-4.9c0-1.9,0.9-3.7,2.4-4.9L28,7.9c1.1-0.9,2.6-1,3.8-0.4
		c1.3,0.6,2,1.9,2,3.3V21c8.1,1.3,15.5,4.9,21.1,10.4c3.9,4,5.8,7.7,6.9,13.3c0.2,1.2,0.4,3.4,0.4,6.3c0,1.3-0.7,2.6-1.9,3.2
		c-1.2,0.6-2.6,0.6-3.7-0.1c-8.4-5.4-16.2-8.7-22.8-9.7v9c0,1.4-0.8,2.6-2,3.3C31.3,56.8,30.8,56.9,30.3,56.9z M29.4,12.6l-22.4,18
		C6.3,31,6.2,31.7,6.2,32s0.1,0.9,0.7,1.4l22.4,18v-9.6c0-0.6,0.3-1.2,0.7-1.6c0.5-0.4,1.1-0.7,1.7-0.6c9.3,0.6,19,5.4,26,9.8
		c-0.1-2.3-0.2-3.4-0.3-3.8c-0.9-4.7-2.4-7.6-5.7-11c-5.3-5.2-12.5-8.6-20.4-9.4c-1.1-0.1-2-1.1-2-2.2V12.6z"/>
</g>
</svg>
