<?xml version="1.0" encoding="utf-8"?>
<!-- Generator: Adobe Illustrator 25.2.1, SVG Export Plug-In . SVG Version: 6.00 Build 0)  -->
<svg version="1.1" id="lni_lni-road" xmlns="http://www.w3.org/2000/svg" xmlns:xlink="http://www.w3.org/1999/xlink" x="0px"
	 y="0px" viewBox="0 0 64 64" style="enable-background:new 0 0 64 64;" xml:space="preserve">
<g>
	<path d="M63.1,53.6L52.1,8.7C51.7,7.2,50.2,6,48.6,6H15.4c-1.6,0-3.1,1.1-3.5,2.7L0.9,53.6c-0.3,1.1,0,2.2,0.6,3
		C2.2,57.5,3.2,58,4.3,58h55.4c1.1,0,2.1-0.5,2.8-1.4S63.4,54.6,63.1,53.6z M32,46.8c-1.2,0-2.2,1-2.2,2.2v4.4H13.7l10.1-42.9h6
		c0,0,0,0.1,0,0.1v4.9c0,1.2,1,2.2,2.2,2.2c1.2,0,2.2-1,2.2-2.2v-4.9c0,0,0-0.1,0-0.1h6l10.1,42.9H34.2v-4.4
		C34.2,47.8,33.2,46.8,32,46.8z M16.1,10.5h3L9,53.5H5.5L16.1,10.5z M55,53.5L44.9,10.5h3l10.6,42.9H55z"/>
	<path d="M32,30.6c1.2,0,2.2-1,2.2-2.2v-4.9c0-1.2-1-2.2-2.2-2.2c-1.2,0-2.2,1-2.2,2.2v4.9C29.8,29.6,30.8,30.6,32,30.6z"/>
	<path d="M34.2,36.3c0-1.2-1-2.2-2.2-2.2c-1.2,0-2.2,1-2.2,2.2v4.9c0,1.2,1,2.2,2.2,2.2c1.2,0,2.2-1,2.2-2.2V36.3z"/>
</g>
</svg>
