<?xml version="1.0" encoding="utf-8"?>
<!-- Generator: Adobe Illustrator 25.2.1, SVG Export Plug-In . SVG Version: 6.00 Build 0)  -->
<svg version="1.1" id="lni_lni-ship" xmlns="http://www.w3.org/2000/svg" xmlns:xlink="http://www.w3.org/1999/xlink" x="0px"
	 y="0px" viewBox="0 0 64 64" style="enable-background:new 0 0 64 64;" xml:space="preserve">
<g>
	<path d="M11.9,42.7v4.5c0,1.2,1,2.2,2.2,2.2s2.2-1,2.2-2.2v-4.8c0-0.2,0-0.4-0.1-0.5l-4.1-16.6c-0.1-0.5,0-0.9,0.2-1.3
		c0.2-0.4,0.6-0.7,1.1-0.8L32,19.1l18.4,4.1c0.5,0.1,0.9,0.4,1.1,0.8c0.2,0.4,0.3,0.9,0.2,1.3l-4.1,16.6c0,0.2-0.1,0.4-0.1,0.5v4.8
		c0,1.2,1,2.2,2.2,2.2s2.2-1,2.2-2.2v-4.5l4-16.3c0.4-1.6,0.1-3.3-0.8-4.8s-2.3-2.4-3.9-2.8l-1.9-0.4V9.1c0-4-3.3-7.3-7.3-7.3H21.8
		c-4,0-7.3,3.3-7.3,7.3v9.3l-1.9,0.4c-1.7,0.4-3.1,1.4-3.9,2.8c-0.9,1.4-1.2,3.1-0.8,4.8L11.9,42.7z M19,9.1c0-1.6,1.3-2.8,2.8-2.8
		h20.4c1.6,0,2.8,1.3,2.8,2.8v8.3l-12.5-2.8c-0.3-0.1-0.7-0.1-1,0L19,17.4V9.1z"/>
	<path d="M56.2,52.7c-3.1,0-4.7,2-5.8,3.4c-1,1.3-1.4,1.7-2.3,1.7s-1.3-0.4-2.3-1.7c-1.1-1.4-2.7-3.4-5.8-3.4c-3.1,0-4.7,2-5.8,3.4
		c-1,1.3-1.4,1.7-2.3,1.7s-1.3-0.4-2.3-1.7c-1.1-1.4-2.7-3.4-5.8-3.4s-4.7,2-5.8,3.4c-1,1.3-1.4,1.7-2.3,1.7c-0.8,0-1.3-0.4-2.3-1.7
		c-1.1-1.4-2.7-3.4-5.8-3.4c-1.2,0-2.2,1-2.2,2.2s1,2.2,2.2,2.2c0.8,0,1.3,0.4,2.3,1.7c1.1,1.4,2.7,3.4,5.8,3.4c3.1,0,4.7-2,5.8-3.4
		c1-1.3,1.4-1.7,2.3-1.7c0.9,0,1.3,0.4,2.3,1.7c1.1,1.4,2.7,3.4,5.8,3.4c3.1,0,4.7-2,5.8-3.4c1-1.3,1.4-1.7,2.3-1.7
		c0.9,0,1.3,0.4,2.3,1.7c1.1,1.4,2.7,3.4,5.8,3.4s4.7-2,5.8-3.4c1-1.3,1.4-1.7,2.3-1.7c1.2,0,2.2-1,2.2-2.2S57.4,52.7,56.2,52.7z"/>
</g>
</svg>
