<?xml version="1.0" encoding="utf-8"?>
<!-- Generator: Adobe Illustrator 25.2.1, SVG Export Plug-In . SVG Version: 6.00 Build 0)  -->
<svg version="1.1" id="lni_lni-taxi" xmlns="http://www.w3.org/2000/svg" xmlns:xlink="http://www.w3.org/1999/xlink" x="0px"
	 y="0px" viewBox="0 0 64 64" style="enable-background:new 0 0 64 64;" xml:space="preserve">
<g>
	<path d="M15.6,41.2h6.1c1.2,0,2.2-1,2.2-2.2s-1-2.2-2.2-2.2h-6.1c-1.2,0-2.2,1-2.2,2.2S14.4,41.2,15.6,41.2z"/>
	<path d="M41.1,41.2h6.1c1.2,0,2.2-1,2.2-2.2s-1-2.2-2.2-2.2h-6.1c-1.2,0-2.2,1-2.2,2.2S39.9,41.2,41.1,41.2z"/>
	<path d="M60,24.6h-3.9l-4.5-11.5c-0.6-1.8-2.4-3-4.4-3h-5.1l-0.7-2.3c-0.7-2.1-2.6-3.6-4.8-3.6h-9.2c-2.2,0-4.2,1.4-4.8,3.6
		l-0.7,2.3h-5.7c-1.9,0-3.6,1.2-4.4,3L7.2,24.6H4c-1.2,0-2.2,1-2.2,2.2s1,2.2,2.2,2.2h1.5c0,0.1,0,0.1,0,0.2v15.6
		c0,2.6,1.9,4.7,4.3,5.2v3.5c0,3.4,2.8,6.2,6.2,6.2h1.7c3.4,0,6.2-2.8,6.2-6.2v-3.4h14.8v3.4c0,3.4,2.8,6.2,6.2,6.2h1.7
		c3.4,0,6.2-2.8,6.2-6.2v-3.5c2.7-0.2,4.8-2.5,4.8-5.2V29.2c0-0.1,0-0.1,0-0.2H60c1.2,0,2.2-1,2.2-2.2S61.2,24.6,60,24.6z M26.9,9.1
		c0.1-0.2,0.3-0.4,0.5-0.4h9.2c0.2,0,0.5,0.2,0.5,0.4l0.3,1H26.6L26.9,9.1z M15.9,14.7c0,0,0.1-0.2,0.2-0.2h31.1
		c0.1,0,0.2,0.1,0.2,0c0,0,0,0.1,0,0.1L52.3,27H11.1L15.9,14.7z M19.5,53.5c0,1-0.8,1.8-1.8,1.8h-1.7c-1,0-1.8-0.8-1.8-1.8v-3.4h5.2
		V53.5z M48.5,53.5c0,1-0.8,1.8-1.8,1.8h-1.7c-1,0-1.8-0.8-1.8-1.8v-3.4h5.2V53.5z M53.4,44.9c0,0.4-0.3,0.8-0.8,0.8h-1.8h-9.7H21.8
		h-9.7h-1.3c-0.4,0-0.8-0.3-0.8-0.8V31.5h43.4V44.9z"/>
</g>
</svg>
