<?xml version="1.0" encoding="utf-8"?>
<!-- Generator: Adobe Illustrator 25.2.1, SVG Export Plug-In . SVG Version: 6.00 Build 0)  -->
<svg version="1.1" id="lni_lni-train-alt" xmlns="http://www.w3.org/2000/svg" xmlns:xlink="http://www.w3.org/1999/xlink" x="0px"
	 y="0px" viewBox="0 0 64 64" style="enable-background:new 0 0 64 64;" xml:space="preserve">
<g>
	<path d="M54,17.6c-0.8-6.8-6.6-11.9-13.5-11.9h-0.7V5c0-1.8-1.5-3.2-3.2-3.2h-9.2c-1.8,0-3.2,1.5-3.2,3.2v0.7h-0.8
		c-6.9,0-12.6,5.1-13.4,11.9c-0.1,0.5-0.1,1.1-0.1,1.6v27.1c0,3.4,2.7,6.1,6.1,6.1h0.9l-4.2,6.4c-0.7,1-0.4,2.4,0.6,3.1
		c0.4,0.3,0.8,0.4,1.2,0.4c0.7,0,1.4-0.4,1.9-1l5.8-8.9h19.7l5.6,8.8c0.4,0.7,1.2,1,1.9,1c0.4,0,0.8-0.1,1.2-0.3
		c1.1-0.7,1.4-2.1,0.7-3.1l-4-6.4H48c3.4,0,6.1-2.7,6.1-6.1V19.1C54.1,18.6,54.1,18.1,54,17.6z M29.8,20.1V28H14.4v-7.9H29.8z
		 M34.2,20.1h15.4V28H34.2V20.1z M28.7,6.2h6.7v3.3h-6.7V6.2z M23.4,10.2h0.8v0.7c0,1.8,1.5,3.2,3.2,3.2h9.2c1.8,0,3.2-1.5,3.2-3.2
		v-0.7h0.7c3.7,0,7,2.2,8.3,5.4H15.1C16.5,12.4,19.7,10.2,23.4,10.2z M48,47.9H16c-0.9,0-1.6-0.7-1.6-1.6V32.5h35.2v13.8
		C49.6,47.2,48.9,47.9,48,47.9z"/>
	<path d="M26.5,37.4h-5.4c-1.2,0-2.2,1-2.2,2.2s1,2.2,2.2,2.2h5.4c1.2,0,2.2-1,2.2-2.2S27.8,37.4,26.5,37.4z"/>
	<path d="M43.3,37.4h-5.4c-1.2,0-2.2,1-2.2,2.2s1,2.2,2.2,2.2h5.4c1.2,0,2.2-1,2.2-2.2S44.6,37.4,43.3,37.4z"/>
</g>
</svg>
