<?xml version="1.0" encoding="utf-8"?>
<!-- Generator: Adobe Illustrator 22.0.0, SVG Export Plug-In . SVG Version: 6.00 Build 0)  -->
<svg version="1.1" id="lni_lni-cloudy-sun" xmlns="http://www.w3.org/2000/svg" xmlns:xlink="http://www.w3.org/1999/xlink" x="0px"
	 y="0px" viewBox="0 0 64 64" style="enable-background:new 0 0 64 64;" xml:space="preserve">
<g>
	<path d="M39.4,13.6c1.2,0,2.3-1,2.3-2.3V7.3c0-1.2-1-2.3-2.3-2.3s-2.3,1-2.3,2.3v4.1C37.1,12.6,38.2,13.6,39.4,13.6z"/>
	<path d="M55.3,11.8c-0.9-0.9-2.3-0.9-3.2,0l-2.6,2.6c-0.9,0.9-0.9,2.3,0,3.2c0.4,0.4,1,0.7,1.6,0.7c0.6,0,1.1-0.2,1.6-0.6l2.6-2.6
		C56.2,14.1,56.2,12.7,55.3,11.8z"/>
	<path d="M60,26.7h-4.1c-1.2,0-2.3,1-2.3,2.3s1,2.3,2.3,2.3H60c1.2,0,2.3-1,2.3-2.3S61.2,26.7,60,26.7z"/>
	<path d="M25.3,17.9c0.4,0.4,1,0.6,1.6,0.6c0.6,0,1.2-0.2,1.6-0.7c0.9-0.9,0.9-2.3,0-3.2l-2.9-2.9c-0.9-0.9-2.3-0.9-3.2,0
		c-0.9,0.9-0.9,2.3,0,3.2L25.3,17.9z"/>
	<path d="M49.4,28.2c0-6.1-5-11.1-11.1-11.1c-4.8,0-9,3.2-10.5,7.6c-0.7-0.1-1.4-0.2-2.1-0.2c-7.4,0-13.5,5.4-14.2,12.4
		C6,37.8,1.8,42.4,1.8,47.9c0,6.1,5.1,11,11.4,11.1c0,0,0,0,0,0h21.5c8.2,0,14.9-6.4,14.9-14.2c0-3.2-1.2-6.3-3.3-8.9
		C48.2,33.8,49.4,31.1,49.4,28.2z M38.3,21.7c3.6,0,6.6,2.9,6.6,6.6c0,1.8-0.7,3.4-1.9,4.6c-1.6-1-3.5-1.7-5.4-2.1
		c-1.4-2-3.3-3.6-5.4-4.7C33,23.5,35.5,21.7,38.3,21.7z M34.7,54.4H13.3c-3.9,0-7-2.9-7-6.6s3.1-6.6,7-6.6h0.4c1.2,0,2.3-1,2.3-2.3
		v-0.8c0-5.1,4.4-9.2,9.8-9.2c1.2,0,2.2,0.2,3.2,0.5c2.3,0.7,4.2,2.3,5.4,4.4c0.4,0.6,1,1,1.7,1.1c2.5,0.3,4.8,1.4,6.4,3.1
		c1.8,1.9,2.7,4.1,2.7,6.6C45.1,50.1,40.4,54.4,34.7,54.4z"/>
</g>
</svg>
