<?xml version="1.0" encoding="utf-8"?>
<!-- Generator: Adobe Illustrator 22.0.0, SVG Export Plug-In . SVG Version: 6.00 Build 0)  -->
<svg version="1.1" id="lni_lni-cloud" xmlns="http://www.w3.org/2000/svg" xmlns:xlink="http://www.w3.org/1999/xlink" x="0px"
	 y="0px" viewBox="0 0 64 64" style="enable-background:new 0 0 64 64;" xml:space="preserve">
<g>
	<path d="M43.7,54.1H15.9c0,0,0,0,0,0c-7.8,0-14.1-6.3-14.1-14c0-7.1,5.5-13,12.5-13.9C14.8,17.1,22.6,9.9,32,9.9
		c2.1,0,4.1,0.3,5.8,1c3.7,1.3,6.9,3.8,9.1,7.2c4,0.7,7.7,2.6,10.3,5.5c3.2,3.4,4.9,7.8,4.9,12.4C62.3,46,53.9,54.1,43.7,54.1z
		 M16,49.6h27.7c7.8,0,14.1-6.1,14.1-13.7c0-3.4-1.3-6.7-3.7-9.3c-2.2-2.4-5.4-3.9-8.7-4.3c-0.7-0.1-1.4-0.5-1.7-1.1
		c-1.6-2.9-4.2-5.1-7.3-6.1c-1.3-0.5-2.7-0.7-4.3-0.7c-7.3,0-13.3,5.8-13.3,13v1c0,1.2-1,2.3-2.3,2.3H16c-5.5,0-9.7,4.2-9.7,9.5
		S10.5,49.6,16,49.6z"/>
</g>
</svg>
