<?xml version="1.0" encoding="utf-8"?>
<!-- Generator: Adobe Illustrator 22.0.0, SVG Export Plug-In . SVG Version: 6.00 Build 0)  -->
<svg version="1.1" id="lni_lni-night" xmlns="http://www.w3.org/2000/svg" xmlns:xlink="http://www.w3.org/1999/xlink" x="0px"
	 y="0px" viewBox="0 0 64 64" style="enable-background:new 0 0 64 64;" xml:space="preserve">
<path d="M35.5,4c-1.7-0.5-3.4-0.9-5.2-1.2c-1.3-0.2-2.7,0.5-3.2,1.7c-0.6,1.2-0.3,2.7,0.7,3.5c7.1,6.6,9.7,16.3,6.8,25.4
	c-3.2,10.1-12.6,17.2-23.5,17.5c-1.4,0-2.5,0.9-2.9,2.2c-0.4,1.3,0.2,2.7,1.3,3.4c2.5,1.5,5,2.7,7.5,3.5c2.9,0.9,5.9,1.3,8.9,1.3
	c5.1,0,10.1-1.3,14.6-3.8c7.1-3.9,12.1-10.2,14.3-17.8C59.1,24.7,50.6,9,35.5,4z M50.5,38.4c-1.8,6.5-6.2,11.8-12.1,15.1
	c-6.2,3.4-13.3,4.1-20,2.1c-0.7-0.2-1.5-0.5-2.2-0.8c10.6-2.1,19.4-9.7,22.7-20.1c2.9-9.2,1.1-18.9-4.8-26.5c0,0,0,0,0,0
	C46.9,12.5,54.1,25.8,50.5,38.4z"/>
</svg>
