<?xml version="1.0" encoding="utf-8"?>
<!-- Generator: Adobe Illustrator 22.0.0, SVG Export Plug-In . SVG Version: 6.00 Build 0)  -->
<svg version="1.1" id="lni_lni-rain" xmlns="http://www.w3.org/2000/svg" xmlns:xlink="http://www.w3.org/1999/xlink" x="0px"
	 y="0px" viewBox="0 0 64 64" style="enable-background:new 0 0 64 64;" xml:space="preserve">
<g>
	<path d="M57.3,18.6c-2.7-2.9-6.4-4.9-10.3-5.6c-2.2-3.5-5.4-6.1-9.1-7.4c-1.7-0.7-3.7-1-5.8-1c-9.5,0-17.2,7.4-17.8,16.7
		c-7,0.9-12.5,6.8-12.5,14.1c0,5.1,2.6,9.7,7,12.3C9.1,47.9,9.5,48,9.9,48c0.8,0,1.5-0.4,1.9-1.1c0.6-1.1,0.3-2.5-0.8-3.1
		c-3-1.7-4.8-4.9-4.8-8.4c0-5.4,4.3-9.7,9.7-9.7h0.5c1.2,0,2.3-1,2.3-2.3v-1c0-7.3,6-13.3,13.3-13.3c1.6,0,3,0.2,4.3,0.7
		c3.1,1.1,5.7,3.3,7.3,6.3c0.4,0.7,1,1.1,1.7,1.2c3.3,0.3,6.4,1.9,8.7,4.3c2.4,2.6,3.8,6,3.8,9.5c0,4.9-2.5,9.3-6.6,11.9
		c-1.1,0.7-1.4,2-0.7,3.1c0.7,1.1,2,1.4,3.1,0.7c5.5-3.4,8.7-9.3,8.7-15.7C62.3,26.5,60.5,22,57.3,18.6z"/>
	<path d="M22,40.2c-1.2,0-2.3,1-2.3,2.3v14.7c0,1.2,1,2.3,2.3,2.3s2.3-1,2.3-2.3V42.5C24.2,41.2,23.2,40.2,22,40.2z"/>
	<path d="M32,35.3c-1.2,0-2.3,1-2.3,2.3v14.7c0,1.2,1,2.3,2.3,2.3c1.2,0,2.3-1,2.3-2.3V37.6C34.3,36.3,33.2,35.3,32,35.3z"/>
	<path d="M42,40.2c-1.2,0-2.3,1-2.3,2.3v14.7c0,1.2,1,2.3,2.3,2.3s2.3-1,2.3-2.3V42.5C44.3,41.2,43.3,40.2,42,40.2z"/>
</g>
</svg>
