<?xml version="1.0" encoding="utf-8"?>
<!-- Generator: Adobe Illustrator 22.0.0, SVG Export Plug-In . SVG Version: 6.00 Build 0)  -->
<svg version="1.1" id="lni_lni-sun" xmlns="http://www.w3.org/2000/svg" xmlns:xlink="http://www.w3.org/1999/xlink" x="0px"
	 y="0px" viewBox="0 0 64 64" style="enable-background:new 0 0 64 64;" xml:space="preserve">
<g>
	<path d="M32,18.4c-7.5,0-13.6,6.1-13.6,13.6c0,7.5,6.1,13.6,13.6,13.6c7.5,0,13.6-6.1,13.6-13.6C45.6,24.5,39.5,18.4,32,18.4z
		 M32,41.1c-5,0-9.1-4.1-9.1-9.1c0-5,4.1-9.1,9.1-9.1c5,0,9.1,4.1,9.1,9.1C41.1,37,37,41.1,32,41.1z"/>
	<path d="M32,11.3c1.2,0,2.3-1,2.3-2.3V4c0-1.2-1-2.3-2.3-2.3c-1.2,0-2.3,1-2.3,2.3v5.1C29.8,10.3,30.8,11.3,32,11.3z"/>
	<path d="M32,52.7c-1.2,0-2.3,1-2.3,2.3V60c0,1.2,1,2.3,2.3,2.3c1.2,0,2.3-1,2.3-2.3v-5.1C34.3,53.7,33.2,52.7,32,52.7z"/>
	<path d="M48.3,18c0.6,0,1.2-0.2,1.6-0.7l3.2-3.2c0.9-0.9,0.9-2.3,0-3.2c-0.9-0.9-2.3-0.9-3.2,0l-3.2,3.2c-0.9,0.9-0.9,2.3,0,3.2
		C47.1,17.8,47.7,18,48.3,18z"/>
	<path d="M14.2,46.7L11,49.8c-0.9,0.9-0.9,2.3,0,3.2c0.4,0.4,1,0.7,1.6,0.7s1.2-0.2,1.6-0.7l3.2-3.2c0.9-0.9,0.9-2.3,0-3.2
		C16.5,45.8,15,45.8,14.2,46.7z"/>
	<path d="M60,29.8h-5.1c-1.2,0-2.3,1-2.3,2.3c0,1.2,1,2.3,2.3,2.3H60c1.2,0,2.3-1,2.3-2.3C62.3,30.8,61.2,29.8,60,29.8z"/>
	<path d="M11.3,32c0-1.2-1-2.3-2.3-2.3H4c-1.2,0-2.3,1-2.3,2.3c0,1.2,1,2.3,2.3,2.3h5.1C10.3,34.3,11.3,33.2,11.3,32z"/>
	<path d="M49.8,46.7c-0.9-0.9-2.3-0.9-3.2,0c-0.9,0.9-0.9,2.3,0,3.2l3.2,3.2c0.4,0.4,1,0.7,1.6,0.7s1.2-0.2,1.6-0.7
		c0.9-0.9,0.9-2.3,0-3.2L49.8,46.7z"/>
	<path d="M14.2,11c-0.9-0.9-2.3-0.9-3.2,0c-0.9,0.9-0.9,2.3,0,3.2l3.2,3.2c0.4,0.4,1,0.7,1.6,0.7c0.6,0,1.2-0.2,1.6-0.7
		c0.9-0.9,0.9-2.3,0-3.2L14.2,11z"/>
</g>
</svg>
