<?xml version="1.0" encoding="utf-8"?>
<!-- Generator: Adobe Illustrator 22.0.0, SVG Export Plug-In . SVG Version: 6.00 Build 0)  -->
<svg version="1.1" id="lni_lni-thunder-alt" xmlns="http://www.w3.org/2000/svg" xmlns:xlink="http://www.w3.org/1999/xlink"
	 x="0px" y="0px" viewBox="0 0 64 64" style="enable-background:new 0 0 64 64;" xml:space="preserve">
<g>
	<path d="M57.3,23.5c-2.7-2.9-6.4-4.9-10.3-5.6c-2.2-3.5-5.4-6.1-9.1-7.4c-1.7-0.7-3.7-1-5.8-1c-9.5,0-17.2,7.4-17.8,16.7
		c-7,0.9-12.5,6.9-12.5,14.1c0,7.9,6.2,14.2,14.2,14.2h27.8c10.2,0,18.6-8.3,18.6-18.5C62.3,31.4,60.5,26.9,57.3,23.5z M43.7,50
		H15.9c-5.4,0-9.7-4.3-9.7-9.7c0-5.4,4.3-9.7,9.7-9.7h0.5c1.2,0,2.3-1,2.3-2.3v-1C18.7,20,24.7,14,32,14c1.6,0,3,0.2,4.3,0.7
		c3.1,1.1,5.7,3.3,7.3,6.3c0.4,0.7,1,1.1,1.7,1.2c3.3,0.3,6.4,1.9,8.7,4.3c2.4,2.6,3.8,6,3.8,9.5C57.8,43.8,51.4,50,43.7,50z"/>
	<path d="M36.7,31.4h-3.9l4.8-6.2c0.8-1,0.6-2.4-0.4-3.2c-1-0.8-2.4-0.6-3.2,0.4l-7.2,9.3c-0.6,0.8-0.7,1.8-0.3,2.7
		c0.4,0.9,1.3,1.4,2.3,1.4h3.7l-5.1,6.1c-0.8,1-0.7,2.4,0.3,3.2c0.4,0.4,0.9,0.5,1.4,0.5c0.6,0,1.3-0.3,1.7-0.8l7.8-9.3
		c0.6-0.8,0.8-1.8,0.4-2.8C38.6,32,37.7,31.4,36.7,31.4z"/>
</g>
</svg>
