<?xml version="1.0" encoding="utf-8"?>
<!-- Generator: Adobe Illustrator 22.0.0, SVG Export Plug-In . SVG Version: 6.00 Build 0)  -->
<svg version="1.1" id="lni_lni-thunder" xmlns="http://www.w3.org/2000/svg" xmlns:xlink="http://www.w3.org/1999/xlink" x="0px"
	 y="0px" viewBox="0 0 64 64" style="enable-background:new 0 0 64 64;" xml:space="preserve">
<g>
	<path d="M57.3,19.6c-2.7-2.9-6.4-4.9-10.3-5.6c-2.2-3.5-5.4-6.1-9.1-7.4c-1.7-0.7-3.7-1-5.8-1c-9.5,0-17.2,7.4-17.8,16.7
		c-7,0.9-12.5,6.8-12.5,14.1c0,7.9,6.2,14.2,14.2,14.2c0,0,0,0,0,0c1.2,0,2.2-1,2.3-2.2c0-1.2-1-2.3-2.2-2.3c-5.4,0-9.7-4.3-9.7-9.7
		c0-5.4,4.3-9.7,9.7-9.7h0.5c1.2,0,2.3-1,2.3-2.3v-1c0-7.3,6-13.3,13.3-13.3c1.6,0,3,0.2,4.3,0.7c3.1,1.1,5.7,3.3,7.3,6.3
		c0.4,0.7,1,1.1,1.7,1.2c3.3,0.3,6.4,1.9,8.7,4.3c2.4,2.6,3.8,6,3.8,9.5c0,5.8-3.7,11.1-9.2,13.1c-1.2,0.4-1.8,1.7-1.3,2.9
		c0.4,1.2,1.7,1.8,2.9,1.3c7.3-2.6,12.1-9.6,12.1-17.3C62.3,27.6,60.5,23.1,57.3,19.6z"/>
	<path d="M48.9,32.3c-0.6-1.3-1.8-2-3.2-2h-3.2l0.4-0.7c0.8-1.5,0.8-3.4-0.1-4.9c-0.9-1.5-2.5-2.4-4.2-2.4h-7.7
		c-1.9,0-3.7,1.1-4.5,2.9l-5.6,12.5c-0.5,1.1-0.4,2.4,0.3,3.4s1.8,1.6,3,1.6h4.5l-3.3,11c-0.5,1.7,0.2,3.4,1.8,4.2
		c0.5,0.3,1.1,0.4,1.7,0.4c1,0,2.1-0.5,2.8-1.3l17-20.9C49.3,35,49.5,33.6,48.9,32.3z M30.9,50.5l2.8-9.4c0.2-0.7,0.1-1.4-0.3-2
		c-0.4-0.6-1.1-0.9-1.8-0.9h-6.1l5-11.2c0.1-0.2,0.2-0.2,0.4-0.2h7.7c0.2,0,0.3,0.1,0.4,0.2s0.1,0.3,0,0.4l-2.2,4
		c-0.4,0.7-0.4,1.5,0,2.2c0.4,0.7,1.1,1.1,1.9,1.1h5L30.9,50.5z"/>
</g>
</svg>
