<?xml version="1.0" encoding="utf-8"?>
<!-- Generator: Adobe Illustrator 22.0.0, SVG Export Plug-In . SVG Version: 6.00 Build 0)  -->
<svg version="1.1" id="lni_lni-friendly" xmlns="http://www.w3.org/2000/svg" xmlns:xlink="http://www.w3.org/1999/xlink" x="0px"
	 y="0px" viewBox="0 0 64 64" style="enable-background:new 0 0 64 64;" xml:space="preserve">
<g>
	<path d="M32,0.8C14.8,0.8,0.8,14.8,0.8,32s14,31.3,31.3,31.3s31.3-14,31.3-31.3S49.2,0.8,32,0.8z M32,58.8
		c-14.8,0-26.8-12-26.8-26.8S17.3,5.3,32,5.3s26.8,12,26.8,26.8S46.8,58.8,32,58.8z"/>
	<circle cx="20" cy="22.8" r="4"/>
	<circle cx="44" cy="22.8" r="4"/>
	<path d="M48.2,31.8c-1.2,0-2.3,1-2.3,2.3C46,41.2,40.2,47,33.1,47c-1.2,0-2.3,1-2.3,2.3s1,2.3,2.3,2.3c9.6,0,17.4-7.8,17.4-17.4
		C50.5,32.9,49.5,31.8,48.2,31.8z"/>
</g>
</svg>
