<?xml version="1.0" encoding="utf-8"?>
<!-- Generator: Adobe Illustrator 22.0.0, SVG Export Plug-In . SVG Version: 6.00 Build 0)  -->
<svg version="1.1" id="lni_lni-happy" xmlns="http://www.w3.org/2000/svg" xmlns:xlink="http://www.w3.org/1999/xlink" x="0px"
	 y="0px" viewBox="0 0 64 64" style="enable-background:new 0 0 64 64;" xml:space="preserve">
<g>
	<path d="M46.3,35.3H17.7c-0.7,0-1.4,0.3-1.8,0.9c-0.4,0.6-0.6,1.3-0.4,2c2.1,7.4,8.9,12.6,16.5,12.6c7.8,0,14.4-5,16.5-12.6
		c0.2-0.7,0.1-1.4-0.4-2C47.7,35.6,47,35.3,46.3,35.3z M32,46.2c-4.6,0-8.7-2.5-11-6.4H43C40.8,43.7,36.7,46.2,32,46.2z"/>
	<path d="M32,0.8C14.8,0.8,0.8,14.8,0.8,32s14,31.3,31.3,31.3s31.3-14,31.3-31.3S49.2,0.8,32,0.8z M32,58.8
		c-14.8,0-26.8-12-26.8-26.8S17.3,5.3,32,5.3s26.8,12,26.8,26.8S46.8,58.8,32,58.8z"/>
	<circle cx="20" cy="22.8" r="4"/>
	<circle cx="44" cy="22.8" r="4"/>
</g>
</svg>
