<?xml version="1.0" encoding="utf-8"?>
<!-- Generator: Adobe Illustrator 22.0.0, SVG Export Plug-In . SVG Version: 6.00 Build 0)  -->
<svg version="1.1" id="lni_lni-sad" xmlns="http://www.w3.org/2000/svg" xmlns:xlink="http://www.w3.org/1999/xlink" x="0px"
	 y="0px" viewBox="0 0 64 64" style="enable-background:new 0 0 64 64;" xml:space="preserve">
<g>
	<path d="M32,0.8C14.8,0.8,0.8,14.8,0.8,32s14,31.3,31.3,31.3s31.3-14,31.3-31.3S49.2,0.8,32,0.8z M32,58.8
		c-14.8,0-26.8-12-26.8-26.8S17.3,5.3,32,5.3s26.8,12,26.8,26.8S46.8,58.8,32,58.8z"/>
	<circle cx="20" cy="22.8" r="4"/>
	<circle cx="44" cy="22.8" r="4"/>
	<path d="M32,40c-5.5,0-10.7,2-14.7,5.8c-0.9,0.8-1,2.3-0.1,3.2c0.8,0.9,2.3,1,3.2,0.1c3.2-2.9,7.3-4.6,11.6-4.6
		c4.3,0,8.5,1.6,11.6,4.6c0.4,0.4,1,0.6,1.5,0.6c0.6,0,1.2-0.2,1.6-0.7c0.8-0.9,0.8-2.3-0.1-3.2C42.7,42.1,37.5,40,32,40z"/>
</g>
</svg>
