<?xml version="1.0" encoding="utf-8"?>
<!-- Generator: Adobe Illustrator 22.0.0, SVG Export Plug-In . SVG Version: 6.00 Build 0)  -->
<svg version="1.1" id="lni_lni-speechless" xmlns="http://www.w3.org/2000/svg" xmlns:xlink="http://www.w3.org/1999/xlink" x="0px"
	 y="0px" viewBox="0 0 64 64" style="enable-background:new 0 0 64 64;" xml:space="preserve">
<g>
	<circle cx="20" cy="22.7" r="4"/>
	<circle cx="44" cy="22.7" r="4"/>
	<path d="M32,0.8C14.8,0.8,0.8,14.8,0.8,32s14,31.3,31.3,31.3s31.3-14,31.3-31.3S49.2,0.8,32,0.8z M32,58.8
		c-14.8,0-26.8-12-26.8-26.8S17.3,5.3,32,5.3s26.8,12,26.8,26.8S46.8,58.8,32,58.8z"/>
	<path d="M43.7,43H20.3c-1.2,0-2.3,1-2.3,2.3s1,2.3,2.3,2.3h23.3c1.2,0,2.3-1,2.3-2.3S44.9,43,43.7,43z"/>
</g>
</svg>
