<?xml version="1.0" encoding="utf-8"?>
<!-- Generator: Adobe Illustrator 22.0.0, SVG Export Plug-In . SVG Version: 6.00 Build 0)  -->
<svg version="1.1" id="lni_lni-ballon" xmlns="http://www.w3.org/2000/svg" xmlns:xlink="http://www.w3.org/1999/xlink" x="0px"
	 y="0px" viewBox="0 0 64 64" style="enable-background:new 0 0 64 64;" xml:space="preserve">
<path d="M41.2,1.3c-4.8,0-9.1,2.9-11.6,7.6c-1.8-0.9-3.7-1.4-5.8-1.4C15.6,7.4,9,15.3,9,25c0,8.7,5.4,18.3,12.9,19.7
	c-0.4,1.1-0.7,2.2-0.9,2.8c-0.7,2.4-0.1,4.7,0.5,6.8c0.6,2.3,1,3.7,0.2,5c-0.7,1-0.4,2.4,0.6,3.1c0.4,0.3,0.8,0.4,1.2,0.4
	c0.7,0,1.4-0.4,1.9-1c2-3,1.1-6.1,0.4-8.6c-0.4-1.6-0.9-3.1-0.5-4.3c0.2-0.8,1-3,1.4-4.3c4.1-1.2,7.5-5,9.5-9.5
	c0.6,0.3,1.1,0.6,1.7,0.8c0,0.1-0.1,0.2-0.1,0.3c-0.5,1.4-1.1,3-1.3,3.8c-0.7,2.4-0.1,4.7,0.5,6.8c0.6,2.3,1,3.7,0.2,5
	c-0.7,1-0.4,2.4,0.6,3.1c0.4,0.3,0.8,0.4,1.2,0.4c0.7,0,1.4-0.4,1.9-1c2-3,1.1-6.1,0.4-8.6c-0.4-1.6-0.9-3.1-0.5-4.3
	c0.2-0.6,0.8-2.3,1.2-3.5c0.2-0.5,0.4-1,0.5-1.4c0.5-0.1,0.9-0.2,1.4-0.3c6.8-2.1,11-11.1,11-18.3C55,8.6,48.8,1.3,41.2,1.3z
	 M23.8,40.4c-5.2,0-10.2-7.6-10.2-15.4c0-7.2,4.6-13,10.2-13S34,17.8,34,25C34,32.7,28.9,40.4,23.8,40.4z M42.7,31.6
	c-1,0.3-2,0.3-2.9,0c-0.6-0.2-1.3-0.5-1.9-1c0.5-1.8,0.7-3.7,0.7-5.6c0-5.4-2.1-10.2-5.3-13.4c1.7-3.6,4.7-5.8,8-5.8
	c5.1,0,9.3,5.3,9.3,11.8C50.5,23.7,46.8,30.3,42.7,31.6z"/>
</svg>
