<?xml version="1.0" encoding="utf-8"?>
<!-- Generator: Adobe Illustrator 22.0.0, SVG Export Plug-In . SVG Version: 6.00 Build 0)  -->
<svg version="1.1" id="lni_lni-cake" xmlns="http://www.w3.org/2000/svg" xmlns:xlink="http://www.w3.org/1999/xlink" x="0px"
	 y="0px" viewBox="0 0 64 64" style="enable-background:new 0 0 64 64;" xml:space="preserve">
<path d="M58.1,29.7h-1V11.4c0-4-3.3-7.3-7.3-7.3H14.1c-4,0-7.3,3.3-7.3,7.3v18.3h-1c-2.3,0-4.1,1.8-4.1,4.1v18.7
	c0,4,3.3,7.3,7.3,7.3L55,59.8h0c0,0,0,0,0,0c1.9,0,3.8-0.8,5.1-2.1c1.4-1.4,2.1-3.2,2.1-5.2V33.8C62.3,31.6,60.4,29.7,58.1,29.7z
	 M11.3,20.3c0.8,0.3,1.5,0.7,2.3,1.2c1.5,1,3.4,2.1,6.9,2.1c3.5,0,5.4-1.2,6.9-2.1c1.3-0.8,2.3-1.5,4.5-1.5c2.2,0,3.2,0.6,4.5,1.5
	c1.5,1,3.4,2.1,6.9,2.1c3.5,0,5.4-1.2,6.9-2.1c0.8-0.5,1.4-0.9,2.3-1.2v9.5H11.3V20.3z M14.1,8.7h35.8c1.5,0,2.8,1.2,2.8,2.8v4.2
	c-2.1,0.4-3.5,1.2-4.7,2c-1.3,0.8-2.3,1.5-4.5,1.5c-2.2,0-3.2-0.6-4.5-1.5c-1.5-1-3.4-2.1-6.9-2.1c-3.5,0-5.4,1.2-6.9,2.1
	c-1.3,0.8-2.3,1.5-4.5,1.5c-2.2,0-3.2-0.6-4.5-1.5c-1.2-0.7-2.5-1.6-4.7-2v-4.2C11.3,9.9,12.6,8.7,14.1,8.7z M6.8,34.2h50.3h0.6v5.9
	c-2.7,0.4-4.4,1.4-5.9,2.4c-1.6,1-3,1.8-5.8,1.8c-2.9,0-4.2-0.8-5.8-1.8c-1.9-1.2-4-2.5-8.2-2.5s-6.3,1.3-8.2,2.5
	c-1.6,1-3,1.8-5.8,1.8s-4.2-0.8-5.8-1.8c-1.5-1-3.2-2-5.9-2.4v-5.9H6.8z M56.9,54.5c-0.5,0.5-1.2,0.8-2,0.8c0,0,0,0,0,0L9,55.3
	c-1.5,0-2.8-1.3-2.8-2.8v-7.8c1.4,0.3,2.4,0.9,3.6,1.6c1.9,1.2,4,2.5,8.2,2.5s6.3-1.3,8.2-2.5c1.6-1,3-1.8,5.8-1.8
	c2.9,0,4.2,0.8,5.8,1.8c1.9,1.2,4,2.5,8.2,2.5c4.1,0,6.3-1.3,8.2-2.5c1.1-0.7,2.1-1.3,3.6-1.6v7.8C57.8,53.3,57.5,54,56.9,54.5z"/>
</svg>
