<?xml version="1.0" encoding="utf-8"?>
<!-- Generator: Adobe Illustrator 22.0.0, SVG Export Plug-In . SVG Version: 6.00 Build 0)  -->
<svg version="1.1" id="lni_lni-candy" xmlns="http://www.w3.org/2000/svg" xmlns:xlink="http://www.w3.org/1999/xlink" x="0px"
	 y="0px" viewBox="0 0 64 64" style="enable-background:new 0 0 64 64;" xml:space="preserve">
<path d="M59.8,7L57,4.1c-1.7-1.7-4.1-2.6-6.6-2.3c-2.4,0.3-4.6,1.6-6,3.7l-3.3,5.1c-6.3-1.9-13.4-0.3-18.4,4.6l-7.7,7.6
	c-3.5,3.5-5.4,8.1-5.4,13c0,1.9,0.3,3.7,0.8,5.4l-5,3.2c-2.1,1.3-3.5,3.5-3.7,6c-0.3,2.5,0.6,4.9,2.3,6.6l2.9,2.9
	c1.5,1.5,3.6,2.4,5.7,2.4c0.3,0,0.6,0,0.8,0c2.4-0.3,4.6-1.6,5.9-3.6l3.4-5.1c1.7,0.5,3.5,0.8,5.2,0.8c4.7,0,9.5-1.8,13.1-5.4
	l2.8-2.8c0,0,0,0,0,0c0,0,0,0,0,0l4.8-4.7c3.5-3.5,5.4-8.1,5.4-13c0-1.9-0.3-3.7-0.8-5.5l4.9-3.1c2.1-1.3,3.5-3.5,3.8-6
	S61.6,8.7,59.8,7z M15.8,56.1c-0.6,0.9-1.6,1.5-2.7,1.6c-1.1,0.1-2.2-0.3-2.9-1l-2.9-2.9c-0.8-0.8-1.2-1.9-1-3
	C6.4,49.7,7,48.8,8,48.2l4.4-2.8c0.8,1.2,1.7,2.4,2.7,3.5c1.1,1.1,2.4,2,3.7,2.8L15.8,56.1z M18.3,45.6c-2.6-2.6-4.1-6.1-4.1-9.8
	c0-3.7,1.5-7.2,4.1-9.8l1.5-1.5c1.2,0.7,2.3,1,3.2,1.1c1.1,0.2,1.7,0.3,2.7,1.3c0.9,0.9,1.1,1.6,1.3,2.7c0.3,1.3,0.6,3.1,2.5,5
	c1.9,1.9,3.7,2.3,5,2.5c1.1,0.2,1.7,0.3,2.7,1.3c0.9,0.9,1.1,1.6,1.3,2.7c0.2,0.9,0.4,2,1.1,3.2l-1.5,1.4
	C32.6,51.1,23.8,51.1,18.3,45.6z M45.7,38L43,40.8c0-0.2-0.1-0.4-0.1-0.6c-0.3-1.3-0.6-3.1-2.5-5c-1.9-1.9-3.7-2.3-5-2.5
	c-1.1-0.2-1.7-0.3-2.7-1.3c-0.9-0.9-1.1-1.6-1.3-2.7c-0.3-1.3-0.6-3.1-2.5-5c-1.9-1.9-3.7-2.3-5-2.5c-0.2,0-0.4-0.1-0.6-0.1l2.8-2.7
	c2.7-2.7,6.3-4.1,9.9-4.1c3.6,0,7.2,1.4,9.9,4.1c2.6,2.6,4.1,6.1,4.1,9.8S48.4,35.4,45.7,38z M57.7,13.1c-0.1,1.1-0.7,2.1-1.7,2.7
	l-4.4,2.8c-0.8-1.2-1.6-2.4-2.7-3.4c-1.1-1.1-2.3-2-3.6-2.8l2.9-4.5c0.6-0.9,1.6-1.5,2.7-1.6c1.1-0.1,2.2,0.3,2.9,1l2.9,2.9
	C57.4,10.9,57.8,12,57.7,13.1z"/>
</svg>
