<?xml version="1.0" encoding="utf-8"?>
<!-- Generator: Adobe Illustrator 22.0.0, SVG Export Plug-In . SVG Version: 6.00 Build 0)  -->
<svg version="1.1" id="lni_lni-fireworks" xmlns="http://www.w3.org/2000/svg" xmlns:xlink="http://www.w3.org/1999/xlink" x="0px"
	 y="0px" viewBox="0 0 64 64" style="enable-background:new 0 0 64 64;" xml:space="preserve">
<g>
	<path d="M47.8,36.2c0-1.7-0.6-3.2-1.8-4.4L23,8.9l1-1c1-1,1.3-2.6,0.8-3.9c-0.6-1.3-1.9-2.2-3.3-2.2H5.3c-2,0-3.6,1.6-3.6,3.6v16.1
		c0,1.5,0.9,2.7,2.2,3.3C4.4,24.9,4.9,25,5.3,25c0.9,0,1.8-0.4,2.5-1l1-1l23,23c1.2,1.2,2.8,1.8,4.3,1.8c1.6,0,3.1-0.6,4.3-1.8
		l5.4-5.4C47.1,39.4,47.8,37.9,47.8,36.2z M33.1,25.4l-4.7,10.9l-6-6l4.6-11L33.1,25.4z M6.2,6.3h13l-13,13V6.3z M19.8,12l3.8,3.8
		l-4.6,11l-7-7L19.8,12z M42.8,37.4l-5.4,5.4c-0.6,0.6-1.7,0.6-2.3,0l-3.2-3.2l4.7-10.9l6.2,6.2c0.3,0.3,0.5,0.8,0.5,1.2
		C43.3,36.7,43.1,37.1,42.8,37.4z"/>
	<path d="M45.2,52.9c-0.9-0.9-2.3-0.9-3.2,0c-0.9,0.9-0.9,2.3,0,3.2l5.5,5.5c0.4,0.4,1,0.7,1.6,0.7s1.2-0.2,1.6-0.7
		c0.9-0.9,0.9-2.3,0-3.2L45.2,52.9z"/>
	<path d="M50.6,47.5c-0.9-0.9-2.3-0.9-3.2,0c-0.9,0.9-0.9,2.3,0,3.2l9.1,9.1c0.4,0.4,1,0.7,1.6,0.7s1.2-0.2,1.6-0.7
		c0.9-0.9,0.9-2.3,0-3.2L50.6,47.5z"/>
	<path d="M61.6,47.5L56.1,42c-0.9-0.9-2.3-0.9-3.2,0c-0.9,0.9-0.9,2.3,0,3.2l5.5,5.5c0.4,0.4,1,0.7,1.6,0.7s1.2-0.2,1.6-0.7
		C62.5,49.8,62.5,48.3,61.6,47.5z"/>
</g>
</svg>
