<?xml version="1.0" encoding="utf-8"?>
<!-- Generator: Adobe Illustrator 22.0.0, SVG Export Plug-In . SVG Version: 6.00 Build 0)  -->
<svg version="1.1" id="lni_lni-flags" xmlns="http://www.w3.org/2000/svg" xmlns:xlink="http://www.w3.org/1999/xlink" x="0px"
	 y="0px" viewBox="0 0 64 64" style="enable-background:new 0 0 64 64;" xml:space="preserve">
<path d="M63.2,23.7c-0.3-1.2-1.6-1.9-2.8-1.6c-5.9,1.7-16.7,2.7-28,2.7c-11.9,0-22.9-1.1-28.7-2.9c-1.2-0.4-2.4,0.3-2.8,1.5
	c-0.3,0.9,0,1.9,0.8,2.4l4.7,12.7c0.4,1,1.3,1.8,2.4,1.9c0.1,0,0.3,0,0.4,0c0.9,0,1.8-0.4,2.4-1.2l7.6-10.4c1.4,0.1,2.9,0.2,4.4,0.3
	l6,11.5c0.5,1,1.5,1.6,2.6,1.6c0,0,0,0,0,0c1.1,0,2.1-0.6,2.6-1.6l6.2-11.5c1.5-0.1,3-0.1,4.4-0.3l7.5,10.4c0.6,0.8,1.4,1.2,2.4,1.2
	c0.1,0,0.3,0,0.4,0c1.1-0.2,2-0.9,2.3-1.9l4.6-12.4C63,25.6,63.4,24.6,63.2,23.7z M9.5,34.2L7,27.3c2,0.4,4.3,0.7,6.8,1L9.5,34.2z
	 M32,35.9l-3.5-6.6c1.3,0,2.6,0,3.9,0c1.1,0,2.1,0,3.1,0L32,35.9z M54.5,34.2l-4.2-5.8c2.4-0.3,4.7-0.6,6.7-1L54.5,34.2z"/>
</svg>
