<?xml version="1.0" encoding="utf-8"?>
<!-- Generator: Adobe Illustrator 22.0.0, SVG Export Plug-In . SVG Version: 6.00 Build 0)  -->
<svg version="1.1" id="lni_lni-spray" xmlns="http://www.w3.org/2000/svg" xmlns:xlink="http://www.w3.org/1999/xlink" x="0px"
	 y="0px" viewBox="0 0 64 64" style="enable-background:new 0 0 64 64;" xml:space="preserve">
<g>
	<path d="M22.8,21.4h-0.4V19h0.7c1.2,0,2.3-1,2.3-2.3s-1-2.3-2.3-2.3h-6c-1.2,0-2.3,1-2.3,2.3s1,2.3,2.3,2.3h0.7v2.4h-0.4
		c-7,0-12.7,5.7-12.7,12.7v24.3c0,2.1,1.7,3.8,3.8,3.8h23.1c2.1,0,3.8-1.7,3.8-3.8V34.2C35.5,27.1,29.8,21.4,22.8,21.4z M17.5,25.9
		h5.3c4.5,0,8.1,3.6,8.2,8H9.3C9.3,29.5,13,25.9,17.5,25.9z M9.2,57.8V38.5H31v19.3H9.2z"/>
	<path d="M48.8,19c-1.2,0-2.3,1-2.3,2.3v0.2c0,1.2,1,2.3,2.3,2.3s2.3-1,2.3-2.3v-0.2C51,20,50,19,48.8,19z"/>
	<path d="M48.8,8.6c-1.2,0-2.3,1-2.3,2.3V11c0,1.2,1,2.3,2.3,2.3s2.3-1,2.3-2.3v-0.2C51,9.6,50,8.6,48.8,8.6z"/>
	<path d="M57,25.5c-1.2,0-2.3,1-2.3,2.3v0.2c0,1.2,1,2.3,2.3,2.3s2.3-1,2.3-2.3v-0.2C59.3,26.5,58.2,25.5,57,25.5z"/>
	<path d="M40,13.8c-1.2,0-2.3,1-2.3,2.3v0.2c0,1.2,1,2.3,2.3,2.3s2.3-1,2.3-2.3V16C42.3,14.8,41.3,13.8,40,13.8z"/>
	<path d="M57,13.8c-1.2,0-2.3,1-2.3,2.3v0.2c0,1.2,1,2.3,2.3,2.3s2.3-1,2.3-2.3V16C59.3,14.8,58.2,13.8,57,13.8z"/>
	<path d="M57,1.8c-1.2,0-2.3,1-2.3,2.3v0.2c0,1.2,1,2.3,2.3,2.3s2.3-1,2.3-2.3V4C59.3,2.8,58.2,1.8,57,1.8z"/>
</g>
</svg>
