<svg width="24" height="24" viewBox="0 0 24 24" fill="none" xmlns="http://www.w3.org/2000/svg">
<path d="M12.0016 2.00098C12.4158 2.00098 12.7516 2.33676 12.7516 2.75098V3.53801C16.5416 3.9143 19.5016 7.11197 19.5016 11.001V14.115L20.1938 15.9609C20.7454 17.4319 19.6581 19.001 18.0871 19.001H15.0628C15.0287 20.6631 13.6701 21.9995 11.9998 21.9995C10.3295 21.9995 8.97089 20.6631 8.93682 19.001H5.9161C4.34514 19.001 3.25776 17.4319 3.80936 15.9609L4.5016 14.115V11.001C4.5016 7.11197 7.46161 3.9143 11.2516 3.53801V2.75098C11.2516 2.33676 11.5874 2.00098 12.0016 2.00098ZM10.4375 19.001C10.471 19.8339 11.1573 20.4995 11.9998 20.4995C12.8423 20.4995 13.5286 19.8339 13.5622 19.001H10.4375ZM6.0016 11.001V14.1168C6.0016 14.2955 5.96946 14.4727 5.90673 14.64L5.21385 16.4876C5.02998 16.9779 5.39244 17.501 5.9161 17.501H18.0871C18.6108 17.501 18.9732 16.9779 18.7893 16.4876L18.0965 14.64C18.0337 14.4727 18.0016 14.2955 18.0016 14.1168V11.001C18.0016 7.68727 15.3153 5.00098 12.0016 5.00098C8.68789 5.00098 6.0016 7.68727 6.0016 11.001Z" fill="#323544"/>
</svg>
