<svg width="25" height="24" viewBox="0 0 25 24" fill="none" xmlns="http://www.w3.org/2000/svg">
<path d="M12.0231 8.55941C11.6089 8.55941 11.2731 8.8952 11.2731 9.30941V11.9999H8.58266C8.16845 11.9999 7.83266 12.3357 7.83266 12.7499C7.83266 13.1641 8.16845 13.4999 8.58266 13.4999H11.2731V16.1909C11.2731 16.6051 11.6089 16.9409 12.0231 16.9409C12.4373 16.9409 12.7731 16.6051 12.7731 16.1909V13.4999H15.4641C15.8783 13.4999 16.2141 13.1641 16.2141 12.7499C16.2141 12.3357 15.8783 11.9999 15.4641 11.9999H12.7731V9.30941C12.7731 8.8952 12.4373 8.55941 12.0231 8.55941Z" fill="#323544"/>
<path d="M7.77344 5.25C7.77344 4.00736 8.7808 3 10.0234 3H14.0234C15.2661 3 16.2734 4.00736 16.2734 5.25V6H19.2736C20.5163 6 21.5236 7.00736 21.5236 8.25V17.25C21.5236 18.4926 20.5163 19.5 19.2736 19.5H4.77344C3.5308 19.5 2.52344 18.4926 2.52344 17.25V8.25C2.52344 7.00736 3.5308 6 4.77344 6H7.77344V5.25ZM14.7734 5.25C14.7734 4.83579 14.4377 4.5 14.0234 4.5H10.0234C9.60922 4.5 9.27344 4.83579 9.27344 5.25V6H14.7734V5.25ZM4.77344 7.5C4.35922 7.5 4.02344 7.83579 4.02344 8.25V17.25C4.02344 17.6642 4.35922 18 4.77344 18H19.2736C19.6879 18 20.0236 17.6642 20.0236 17.25V8.25C20.0236 7.83579 19.6879 7.5 19.2736 7.5H4.77344Z" fill="#323544"/>
</svg>
