<svg width="25" height="24" viewBox="0 0 25 24" fill="none" xmlns="http://www.w3.org/2000/svg">
<path d="M14.1085 9.28033C14.4013 8.98744 14.4013 8.51256 14.1085 8.21967C13.8156 7.92678 13.3407 7.92678 13.0478 8.21967L9.79779 11.4697C9.5049 11.7626 9.5049 12.2374 9.79779 12.5303L13.0478 15.7803C13.3407 16.0732 13.8156 16.0732 14.1085 15.7803C14.4013 15.4874 14.4013 15.0126 14.1085 14.7197L11.3888 12L14.1085 9.28033Z" fill="#323544"/>
<path fill-rule="evenodd" clip-rule="evenodd" d="M12.3281 2C6.80528 2 2.32812 6.47715 2.32812 12C2.32812 17.5228 6.80528 22 12.3281 22C17.851 22 22.3281 17.5228 22.3281 12C22.3281 6.47715 17.851 2 12.3281 2ZM3.82812 12C3.82812 7.30558 7.6337 3.5 12.3281 3.5C17.0225 3.5 20.8281 7.30558 20.8281 12C20.8281 16.6944 17.0225 20.5 12.3281 20.5C7.6337 20.5 3.82812 16.6944 3.82812 12Z" fill="#323544"/>
</svg>
