<svg width="25" height="24" viewBox="0 0 25 24" fill="none" xmlns="http://www.w3.org/2000/svg">
<path d="M10.5478 14.7197C10.2549 15.0126 10.2549 15.4874 10.5478 15.7803C10.8407 16.0732 11.3156 16.0732 11.6085 15.7803L14.8585 12.5303C15.1513 12.2374 15.1513 11.7626 14.8585 11.4697L11.6085 8.21967C11.3156 7.92678 10.8407 7.92678 10.5478 8.21967C10.2549 8.51256 10.2549 8.98744 10.5478 9.28033L13.2675 12L10.5478 14.7197Z" fill="#323544"/>
<path fill-rule="evenodd" clip-rule="evenodd" d="M12.3281 2C6.80528 2 2.32812 6.47715 2.32812 12C2.32812 17.5228 6.80528 22 12.3281 22C17.851 22 22.3281 17.5228 22.3281 12C22.3281 6.47715 17.851 2 12.3281 2ZM3.82812 12C3.82812 7.30558 7.6337 3.5 12.3281 3.5C17.0225 3.5 20.8281 7.30558 20.8281 12C20.8281 16.6944 17.0225 20.5 12.3281 20.5C7.6337 20.5 3.82812 16.6944 3.82812 12Z" fill="#323544"/>
</svg>
