<svg width="24" height="24" viewBox="0 0 24 24" fill="none" xmlns="http://www.w3.org/2000/svg">
<path fill-rule="evenodd" clip-rule="evenodd" d="M5.83231 9.40918H4.61294C3.22582 9.40918 2.07419 10.4124 2.00323 11.877C2 11.9253 2 11.9737 2 12.0221C2 12.0673 2 12.1092 2.00323 12.1544C2.07419 13.506 3.22582 14.5964 4.61294 14.5899H5.83231C7.24846 14.5964 8.54203 13.435 8.54203 12.0221C8.54203 10.4769 7.24846 9.40918 5.83231 9.40918ZM4.61939 14.3673C3.3097 14.3673 2.24839 13.306 2.24839 11.9963C2.24839 10.6866 3.3097 9.62209 4.61939 9.62209C5.92909 9.62209 6.99039 10.6834 6.99039 11.9963C6.99039 13.3092 5.92909 14.3673 4.61939 14.3673Z" fill="#323544"/>
<path d="M13.339 11.3702C13.3326 11.396 13.3326 11.4347 13.339 11.5283C13.3552 11.7863 13.5229 11.9992 13.739 11.9992C13.8907 11.9992 14.0068 11.9186 14.1068 11.8154L14.1455 11.8541C14.0197 12.0218 13.8649 12.1605 13.6423 12.1605C13.21 12.1605 13.1229 11.7412 13.1229 11.567C13.1229 11.0315 13.4842 10.8734 13.6745 10.8734C13.8939 10.8734 14.1326 11.0121 14.1358 11.3025C14.1358 11.3186 14.1358 11.3347 14.1358 11.3509L14.11 11.367H13.3455L13.339 11.3702ZM13.8229 11.2831C13.8907 11.2831 13.9003 11.2476 13.9003 11.2154C13.9003 11.0767 13.8165 10.9638 13.6616 10.9638C13.4971 10.9638 13.381 11.0863 13.3487 11.2831H13.8229Z" fill="#323544"/>
<path d="M14.2683 12.0514C14.3457 12.0514 14.3974 12.0514 14.3974 11.9611V11.1966C14.3974 11.1127 14.2974 11.0966 14.2554 11.074V11.032C14.4554 10.9482 14.5652 10.8772 14.5877 10.8772C14.6039 10.8772 14.6103 10.8869 14.6103 10.9127V11.1578H14.6168C14.6845 11.0514 14.8006 10.8772 14.9651 10.8772C15.0328 10.8772 15.1199 10.9224 15.1199 11.0224C15.1199 11.0966 15.0684 11.1611 14.991 11.1611C14.9071 11.1611 14.9071 11.0966 14.8103 11.0966C14.7651 11.0966 14.6103 11.1579 14.6103 11.3224V11.9611C14.6103 12.0514 14.6652 12.0514 14.7426 12.0514H14.8942V12.1224C14.7458 12.1224 14.6297 12.1159 14.5135 12.1159C14.3974 12.1159 14.2877 12.1159 14.1877 12.1224V12.0514H14.2683Z" fill="#323544"/>
<path d="M15.2416 11.745C15.2771 11.9256 15.3868 12.0772 15.5836 12.0772C15.7448 12.0772 15.8029 11.9804 15.8029 11.8837C15.8029 11.5611 15.2094 11.6643 15.2094 11.2256C15.2094 11.074 15.3319 10.8772 15.6319 10.8772C15.719 10.8772 15.8352 10.903 15.9416 10.9578L15.961 11.2353H15.8997C15.8739 11.0643 15.7771 10.9643 15.6029 10.9643C15.4932 10.9643 15.39 11.0256 15.39 11.1449C15.39 11.4643 16.0223 11.3643 16.0223 11.7933C16.0223 11.974 15.8771 12.1643 15.5545 12.1643C15.4448 12.1643 15.319 12.1256 15.2223 12.0708L15.1932 11.7579L15.2416 11.745Z" fill="#323544"/>
<path d="M18.5842 12.0514H18.6358C18.7132 12.0514 18.7681 12.0514 18.7681 11.9611V10.445C18.7681 10.2675 18.7261 10.2611 18.6229 10.2321V10.1869C18.7326 10.1514 18.8455 10.103 18.9035 10.0708C18.9326 10.0546 18.9552 10.0417 18.9648 10.0417C18.981 10.0417 18.9874 10.0579 18.9874 10.0804V11.9611C18.9874 12.0514 19.0487 12.0514 19.1229 12.0514H19.1681V12.1224C19.0745 12.1224 18.981 12.116 18.881 12.116C18.781 12.116 18.6842 12.116 18.5842 12.1224V12.0514Z" fill="#323544"/>
<path d="M20.3328 11.9735C20.3328 12.0219 20.3618 12.0251 20.4102 12.0251C20.4425 12.0251 20.4844 12.0251 20.5199 12.0251V12.0832C20.4038 12.0928 20.178 12.1509 20.1264 12.167L20.1135 12.1573V11.938C19.9489 12.0703 19.8231 12.167 19.6296 12.167C19.4812 12.167 19.3296 12.0703 19.3296 11.8444V11.1477C19.3296 11.0767 19.3199 11.0089 19.1651 10.996V10.9444C19.2618 10.9444 19.4812 10.9251 19.5167 10.9251C19.5457 10.9251 19.5457 10.9444 19.5457 11.0025V11.7057C19.5457 11.7864 19.5457 12.0219 19.7812 12.0219C19.8747 12.0219 19.9973 11.9509 20.1102 11.8573V11.1251C20.1102 11.0702 19.978 11.0412 19.8812 11.0122V10.9638C20.1264 10.9477 20.278 10.9251 20.307 10.9251C20.3296 10.9251 20.3296 10.9444 20.3296 10.9735V11.9799L20.3328 11.9735Z" fill="#323544"/>
<path d="M20.8747 11.074C20.9843 10.9805 21.1295 10.8772 21.2811 10.8772C21.5973 10.8772 21.7876 11.1514 21.7876 11.4482C21.7876 11.8063 21.5263 12.1611 21.136 12.1611C20.936 12.1611 20.8295 12.0966 20.7585 12.0643L20.6779 12.1256L20.6198 12.0966C20.6424 11.9353 20.6585 11.7772 20.6585 11.6127V10.445C20.6585 10.2675 20.6166 10.2611 20.5134 10.2321V10.1869C20.623 10.1514 20.736 10.103 20.794 10.0708C20.823 10.0546 20.8456 10.0417 20.8553 10.0417C20.8714 10.0417 20.8779 10.0579 20.8779 10.0804V11.074H20.8747ZM20.8747 11.816C20.8747 11.9192 20.9714 12.0934 21.1553 12.0934C21.4456 12.0934 21.5682 11.8063 21.5682 11.5643C21.5682 11.2708 21.3456 11.0256 21.1327 11.0256C21.0327 11.0256 20.9489 11.0901 20.8747 11.1547V11.816Z" fill="#323544"/>
<path d="M17.055 12.6705V12.677C17.0485 12.7189 17.0421 12.7576 17.0356 12.7964C17.0324 12.8383 17.0324 12.877 17.0324 12.9189L16.9808 12.9383V12.9318C16.9775 12.8738 16.9711 12.7931 16.8775 12.7931H16.6388V13.577C16.6421 13.6899 16.6872 13.6964 16.755 13.6996H16.7904V13.7544H16.784C16.7259 13.7544 16.6227 13.7512 16.542 13.7512C16.455 13.7512 16.3517 13.7544 16.2937 13.7544H16.2872V13.6996H16.3195C16.4033 13.6964 16.4356 13.6964 16.4356 13.5802V12.7931H16.2001C16.0904 12.7964 16.0937 12.8157 16.0678 12.9254L16.0098 12.9286V12.9222C16.0162 12.8802 16.0259 12.8383 16.0291 12.7964C16.0356 12.7544 16.0388 12.7125 16.0388 12.6705V12.6641H16.084V12.6705C16.0969 12.706 16.1227 12.706 16.1614 12.706H16.1679L16.9356 12.7093C16.9743 12.706 17.0066 12.706 17.0066 12.6673V12.6609H17.0163L17.0582 12.6673L17.055 12.6705Z" fill="#323544"/>
<path d="M18.1448 12.6898C17.8319 12.6898 17.5899 12.9318 17.5899 13.2415C17.5899 13.5511 17.8351 13.7802 18.1512 13.7802C18.4674 13.7802 18.719 13.5511 18.719 13.206C18.719 12.8866 18.4641 12.6898 18.1448 12.6898ZM18.1674 13.7028C17.9319 13.7028 17.8125 13.4544 17.8125 13.1898C17.8125 12.9931 17.8867 12.7673 18.1416 12.7673C18.3964 12.7673 18.4996 13.0253 18.4996 13.2382C18.4964 13.4544 18.448 13.7028 18.1674 13.7028Z" fill="#323544"/>
<path d="M21.8452 12.6773C21.9355 12.6773 22 12.745 22 12.8353C22 12.9256 21.9323 12.9902 21.8452 12.9902C21.7581 12.9902 21.6903 12.9224 21.6903 12.8353C21.6903 12.7482 21.7581 12.6773 21.8452 12.6773ZM21.8452 12.9611C21.9161 12.9611 21.9677 12.9031 21.9677 12.8353C21.9677 12.7676 21.9161 12.7063 21.8452 12.7063C21.7742 12.7063 21.7226 12.7676 21.7226 12.8353C21.7226 12.9031 21.7774 12.9611 21.8452 12.9611ZM21.7677 12.916V12.9095C21.7871 12.9095 21.7903 12.9095 21.7903 12.8966V12.7805C21.7903 12.7644 21.7903 12.7579 21.7677 12.7579V12.7515H21.8484C21.8774 12.7515 21.9 12.7644 21.9 12.7934C21.9 12.816 21.8839 12.8353 21.8645 12.8418L21.8903 12.8773C21.9032 12.8934 21.9161 12.9095 21.9258 12.9127V12.9192H21.8968C21.8968 12.9192 21.871 12.8869 21.8419 12.8482H21.8258V12.8998C21.8258 12.8998 21.829 12.9095 21.8484 12.9127V12.9192H21.7742L21.7677 12.916ZM21.8194 12.8321H21.8387C21.8581 12.8321 21.8677 12.816 21.8677 12.7934C21.8677 12.7708 21.8516 12.7611 21.8387 12.7611H21.8226V12.8353L21.8194 12.8321Z" fill="#323544"/>
<path d="M13.1323 12.0514V12.1224C13.0355 12.1224 12.9387 12.1192 12.8419 12.1192C12.7452 12.1192 12.6452 12.1192 12.5484 12.1224V12.0514H12.5968C12.6742 12.0514 12.729 12.0514 12.729 11.9611V11.2579C12.729 11.0998 12.6323 11.0256 12.4774 11.0256C12.3903 11.0256 12.2516 11.0966 12.1613 11.1546V11.9611C12.1613 12.0514 12.2193 12.0514 12.2968 12.0514H12.3452V12.1224C12.2516 12.1224 12.1548 12.1192 12.058 12.1192C11.9613 12.1192 11.8613 12.1192 11.7645 12.1224V12.0514H11.8129C11.8871 12.0514 11.9419 12.0514 11.9419 11.9611V11.2417C11.9419 11.1385 11.9129 11.1127 11.7839 11.0611V11.0095C11.9032 10.9708 12.0129 10.9353 12.1451 10.8772C12.1516 10.8772 12.1613 10.8837 12.1613 10.9062V11.0837C12.3161 10.9708 12.4484 10.8772 12.6323 10.8772C12.8645 10.8772 12.9452 11.0482 12.9452 11.2579V11.9611C12.9452 12.0514 13.0065 12.0514 13.0806 12.0514H13.1323Z" fill="#323544"/>
<path d="M9.91563 10.2219C9.7124 10.2219 9.55756 10.2252 9.44143 10.2252C9.33498 10.2252 9.22852 10.2252 9.12207 10.2219V10.2929C9.24465 10.2929 9.37046 10.2768 9.37046 10.5219V11.8445C9.36401 12.0316 9.28336 12.0349 9.12207 12.051V12.122C9.24465 12.122 9.36401 12.1187 9.48659 12.1187C9.61563 12.1187 9.74143 12.122 9.88015 12.122C10.8479 12.122 11.006 11.4445 11.006 11.1736C11.006 10.6929 10.6189 10.2219 9.91563 10.2219ZM9.92208 12.0349C9.78982 12.0349 9.63821 12.0123 9.63821 11.8026V10.3187C9.68982 10.3155 9.73821 10.309 9.85111 10.309C10.3769 10.309 10.706 10.6768 10.706 11.1865C10.706 11.5929 10.5124 12.0349 9.92208 12.0349Z" fill="#323544"/>
<path d="M11.6359 12.0514H11.6843V12.1224C11.5908 12.1224 11.494 12.1192 11.3972 12.1192C11.3004 12.1192 11.2004 12.1224 11.1004 12.1224V12.0514H11.152C11.2295 12.0514 11.2843 12.0514 11.2843 11.9643V11.2256C11.2843 11.103 11.2424 11.0869 11.1424 11.032V10.9901C11.2682 10.9514 11.423 10.8998 11.4327 10.8933C11.452 10.8804 11.4682 10.8772 11.4811 10.8772C11.4972 10.8772 11.5004 10.8933 11.5004 10.9159V11.9643C11.5004 12.0514 11.5617 12.0514 11.6359 12.0514Z" fill="#323544"/>
<path d="M11.2579 10.3221C11.2579 10.2543 11.3225 10.1898 11.3902 10.1898C11.4579 10.1898 11.5257 10.2479 11.5257 10.3221C11.5257 10.3963 11.4644 10.4576 11.3902 10.4576C11.316 10.4576 11.2579 10.393 11.2579 10.3221Z" fill="#323544"/>
<path d="M13.339 11.3702C13.3326 11.396 13.3326 11.4347 13.339 11.5283C13.3552 11.7863 13.5229 11.9992 13.739 11.9992C13.8907 11.9992 14.0068 11.9186 14.1068 11.8154L14.1455 11.8541C14.0197 12.0218 13.8649 12.1605 13.6423 12.1605C13.21 12.1605 13.1229 11.7412 13.1229 11.567C13.1229 11.0315 13.4842 10.8734 13.6745 10.8734C13.8939 10.8734 14.1326 11.0121 14.1358 11.3025C14.1358 11.3186 14.1358 11.3347 14.1358 11.3509L14.11 11.367H13.3455L13.339 11.3702ZM13.8229 11.2831C13.8907 11.2831 13.9003 11.2476 13.9003 11.2154C13.9003 11.0767 13.8165 10.9638 13.6616 10.9638C13.4971 10.9638 13.381 11.0863 13.3487 11.2831H13.8229Z" fill="#323544"/>
<path d="M14.2683 12.0514C14.3457 12.0514 14.3974 12.0514 14.3974 11.9611V11.1966C14.3974 11.1127 14.2974 11.0966 14.2554 11.074V11.032C14.4554 10.9482 14.5652 10.8772 14.5877 10.8772C14.6039 10.8772 14.6103 10.8869 14.6103 10.9127V11.1578H14.6168C14.6845 11.0514 14.8006 10.8772 14.9651 10.8772C15.0328 10.8772 15.1199 10.9224 15.1199 11.0224C15.1199 11.0966 15.0684 11.1611 14.991 11.1611C14.9071 11.1611 14.9071 11.0966 14.8103 11.0966C14.7651 11.0966 14.6103 11.1579 14.6103 11.3224V11.9611C14.6103 12.0514 14.6652 12.0514 14.7426 12.0514H14.8942V12.1224C14.7458 12.1224 14.6297 12.1159 14.5135 12.1159C14.3974 12.1159 14.2877 12.1159 14.1877 12.1224V12.0514H14.2683Z" fill="#323544"/>
<path d="M15.2416 11.745C15.2771 11.9256 15.3868 12.0772 15.5836 12.0772C15.7448 12.0772 15.8029 11.9804 15.8029 11.8837C15.8029 11.5611 15.2094 11.6643 15.2094 11.2256C15.2094 11.074 15.3319 10.8772 15.6319 10.8772C15.719 10.8772 15.8352 10.903 15.9416 10.9578L15.961 11.2353H15.8997C15.8739 11.0643 15.7771 10.9643 15.6029 10.9643C15.4932 10.9643 15.39 11.0256 15.39 11.1449C15.39 11.4643 16.0223 11.3643 16.0223 11.7933C16.0223 11.974 15.8771 12.1643 15.5545 12.1643C15.4448 12.1643 15.319 12.1256 15.2223 12.0708L15.1932 11.7579L15.2416 11.745Z" fill="#323544"/>
<path d="M18.4874 11.6223L18.4261 12.0191C18.31 12.0901 18.0036 12.1643 17.8229 12.1643C17.1842 12.1643 16.781 11.7513 16.781 11.1384C16.781 10.5804 17.281 10.1804 17.8165 10.1804C18.0358 10.1804 18.2487 10.2513 18.4584 10.3255L18.4842 10.7126H18.4165C18.3649 10.3965 18.139 10.2675 17.8326 10.2675C17.5261 10.2675 17.0648 10.4771 17.0648 11.132C17.0648 11.6804 17.4584 12.0772 17.8777 12.0772C18.1487 12.0772 18.3713 11.8901 18.4261 11.6062L18.4874 11.6223Z" fill="#323544"/>
<path d="M18.5842 12.0514H18.6358C18.7132 12.0514 18.7681 12.0514 18.7681 11.9611V10.445C18.7681 10.2675 18.7261 10.2611 18.6229 10.2321V10.1869C18.7326 10.1514 18.8455 10.103 18.9035 10.0708C18.9326 10.0546 18.9552 10.0417 18.9648 10.0417C18.981 10.0417 18.9874 10.0579 18.9874 10.0804V11.9611C18.9874 12.0514 19.0487 12.0514 19.1229 12.0514H19.1681V12.1224C19.0745 12.1224 18.981 12.116 18.881 12.116C18.781 12.116 18.6842 12.116 18.5842 12.1224V12.0514Z" fill="#323544"/>
<path d="M20.3328 11.9735C20.3328 12.0219 20.3618 12.0251 20.4102 12.0251C20.4425 12.0251 20.4844 12.0251 20.5199 12.0251V12.0832C20.4038 12.0928 20.178 12.1509 20.1264 12.167L20.1135 12.1573V11.938C19.9489 12.0703 19.8231 12.167 19.6296 12.167C19.4812 12.167 19.3296 12.0703 19.3296 11.8444V11.1477C19.3296 11.0767 19.3199 11.0089 19.1651 10.996V10.9444C19.2618 10.9444 19.4812 10.9251 19.5167 10.9251C19.5457 10.9251 19.5457 10.9444 19.5457 11.0025V11.7057C19.5457 11.7864 19.5457 12.0219 19.7812 12.0219C19.8747 12.0219 19.9973 11.9509 20.1102 11.8573V11.1251C20.1102 11.0702 19.978 11.0412 19.8812 11.0122V10.9638C20.1264 10.9477 20.278 10.9251 20.307 10.9251C20.3296 10.9251 20.3296 10.9444 20.3296 10.9735V11.9799L20.3328 11.9735Z" fill="#323544"/>
<path d="M20.8747 11.074C20.9843 10.9805 21.1295 10.8772 21.2811 10.8772C21.5973 10.8772 21.7876 11.1514 21.7876 11.4482C21.7876 11.8063 21.5263 12.1611 21.136 12.1611C20.936 12.1611 20.8295 12.0966 20.7585 12.0643L20.6779 12.1256L20.6198 12.0966C20.6424 11.9353 20.6585 11.7772 20.6585 11.6127V10.445C20.6585 10.2675 20.6166 10.2611 20.5134 10.2321V10.1869C20.623 10.1514 20.736 10.103 20.794 10.0708C20.823 10.0546 20.8456 10.0417 20.8553 10.0417C20.8714 10.0417 20.8779 10.0579 20.8779 10.0804V11.074H20.8747ZM20.8747 11.816C20.8747 11.9192 20.9714 12.0934 21.1553 12.0934C21.4456 12.0934 21.5682 11.8063 21.5682 11.5643C21.5682 11.2708 21.3456 11.0256 21.1327 11.0256C21.0327 11.0256 20.9489 11.0901 20.8747 11.1547V11.816Z" fill="#323544"/>
<path d="M11.8579 12.6641L11.8999 12.6705V12.677C11.8934 12.7189 11.887 12.7576 11.8838 12.7964C11.8805 12.8383 11.8805 12.877 11.8805 12.9189H11.8773L11.8225 12.9383V12.9318C11.8192 12.8738 11.8128 12.7931 11.7192 12.7931H11.4838V13.577C11.4838 13.6899 11.5289 13.6964 11.5999 13.6996H11.6321V13.7544H11.6289C11.5676 13.7544 11.4644 13.7512 11.387 13.7512C11.2967 13.7512 11.1934 13.7544 11.1354 13.7544H11.1289V13.6996H11.1644C11.245 13.6964 11.2773 13.6964 11.2805 13.5802V12.7931H11.0418C10.9321 12.7964 10.9354 12.8157 10.9128 12.9254H10.9095L10.8547 12.9286V12.9222C10.8612 12.8802 10.8676 12.8383 10.8708 12.7964C10.8773 12.7544 10.8805 12.7125 10.8805 12.6705V12.6641H10.9289V12.6705C10.9386 12.706 10.9676 12.706 11.0031 12.706H11.7773C11.8192 12.706 11.8483 12.706 11.8515 12.6673V12.6609H11.8579V12.6641Z" fill="#323544"/>
<path d="M9.57134 12.7125H9.57779V12.7674H9.54876C9.5165 12.7706 9.48424 12.7706 9.46488 12.7899C9.45198 12.8028 9.44553 12.819 9.44553 12.848V13.6222C9.44553 13.6964 9.49714 13.6996 9.54876 13.7029H9.57779V13.7577H9.57134C9.50037 13.7577 9.41004 13.7545 9.33585 13.7545C9.26165 13.7545 9.17778 13.7577 9.11972 13.7577H9.11326V13.7029H9.13907C9.19391 13.6996 9.2423 13.6964 9.2423 13.6222V12.848C9.2423 12.819 9.23585 12.8028 9.22294 12.7899C9.20359 12.7706 9.17456 12.7706 9.13907 12.7674H9.11326V12.7125H9.11972C9.17778 12.7125 9.26488 12.7157 9.33907 12.7157C9.41327 12.7157 9.50037 12.7125 9.57134 12.7125Z" fill="#323544"/>
<path d="M12.7933 13.5125V13.519C12.7707 13.5964 12.7545 13.6738 12.7416 13.7545H12.7384V13.7577C12.6416 13.7577 12.4707 13.7512 12.3384 13.7512C12.2061 13.7512 12.0287 13.7577 11.9449 13.7577H11.9384V13.7029H11.9642C12.019 13.6996 12.0674 13.6964 12.0674 13.6222V12.848C12.0674 12.819 12.061 12.8028 12.0481 12.7899C12.0287 12.7706 11.9997 12.7706 11.9642 12.7674H11.9384V12.7125H11.9449C12.0352 12.7125 12.19 12.7157 12.3126 12.7157C12.4352 12.7157 12.59 12.7125 12.6933 12.7125H12.6997V12.719C12.6997 12.7383 12.6997 12.7674 12.6997 12.7932C12.6997 12.8448 12.6997 12.9028 12.7062 12.9448L12.6997 12.9512L12.6481 12.9641V12.9577C12.6384 12.8609 12.6255 12.7899 12.4739 12.7899H12.2739V13.1641H12.4449C12.5287 13.1641 12.5449 13.119 12.5545 13.0416V13.0351H12.6126V13.0416C12.6094 13.0996 12.6062 13.1577 12.6062 13.2158C12.6062 13.2706 12.6094 13.3254 12.6126 13.3835V13.3899H12.6062L12.5545 13.3996V13.3932C12.5449 13.3028 12.5449 13.2512 12.4449 13.2512H12.2739V13.59C12.2739 13.6803 12.3513 13.6803 12.4481 13.6803C12.6255 13.6803 12.6997 13.6706 12.7416 13.5061V13.4996H12.7513L12.7997 13.5125H12.7933Z" fill="#323544"/>
<path d="M10.8231 12.7125H10.8295V12.7674H10.8005C10.7392 12.7706 10.6747 12.7738 10.6747 12.9512V13.6254C10.6747 13.677 10.6747 13.7287 10.6811 13.7738V13.7803H10.6166L9.86176 12.9416V13.5351C9.86499 13.6641 9.88434 13.6996 9.99724 13.7029H10.0263V13.7577H10.0198C9.95531 13.7577 9.89402 13.7545 9.8295 13.7545C9.76176 13.7545 9.69402 13.7577 9.6295 13.7577H9.61982V13.7029H9.64885C9.74563 13.6996 9.77466 13.6383 9.77466 13.519V12.8964C9.77466 12.8157 9.71014 12.7674 9.64885 12.7674H9.61982V12.7125H9.6295C9.68434 12.7125 9.7424 12.7157 9.79724 12.7157C9.8424 12.7157 9.88434 12.7125 9.93595 12.7125L10.5876 13.448V12.9028C10.5876 12.7835 10.5069 12.7706 10.465 12.7674H10.4263V12.7125H10.4327C10.5005 12.7125 10.5714 12.7157 10.6392 12.7157C10.7005 12.7157 10.7618 12.7125 10.8231 12.7125Z" fill="#323544"/>
<path d="M13.865 13.7029C13.7941 13.6932 13.7683 13.677 13.7263 13.6158L13.4779 13.2416C13.5908 13.1964 13.6812 13.1125 13.6812 12.977C13.6812 12.8416 13.6134 12.7738 13.5167 12.7416H13.5134C13.4554 12.719 13.3876 12.7125 13.3199 12.7125C13.2425 12.7125 13.1715 12.7157 13.0812 12.7157C12.9908 12.7157 12.9005 12.7125 12.8521 12.7125H12.8457V12.7674H12.8779C12.9263 12.7706 12.9779 12.7706 12.9779 12.8738V13.6287C12.9779 13.677 12.9328 13.7029 12.8779 13.7029H12.8457V13.7577H12.8521C12.9263 13.7577 12.9973 13.7545 13.0683 13.7545C13.1521 13.7545 13.236 13.7577 13.3231 13.7577H13.3296V13.7029H13.2973C13.2263 13.6996 13.1812 13.6996 13.1812 13.59V13.2803H13.2683C13.365 13.448 13.4618 13.6061 13.5747 13.7577C13.6263 13.7577 13.6747 13.7545 13.7199 13.7545C13.7683 13.7545 13.8167 13.7577 13.865 13.7577H13.8715V13.7029H13.865ZM13.2457 13.2125H13.1812V12.7835C13.2005 12.7835 13.2199 12.777 13.2586 12.777C13.3876 12.777 13.4683 12.8577 13.4683 12.9867C13.4683 13.1609 13.3941 13.2125 13.2457 13.2125Z" fill="#323544"/>
<path d="M15.1094 12.7125V12.7674H15.0803C15.019 12.7706 14.9577 12.777 14.9545 12.9512V13.6254C14.9545 13.677 14.9577 13.7287 14.9642 13.7738V13.7803H14.8964L14.1448 12.9416V13.5351C14.1448 13.6641 14.1642 13.6996 14.2771 13.7029H14.3093V13.7577H14.3029C14.2384 13.7577 14.1739 13.7545 14.1093 13.7545C14.0448 13.7545 13.9771 13.7577 13.9093 13.7577H13.9029V13.7029H13.9287C14.0287 13.7029 14.0545 13.6383 14.0577 13.519V12.8964C14.0577 12.8157 13.9932 12.7674 13.9287 12.7674H13.9029V12.7125H13.9093C13.9642 12.7125 14.0222 12.7157 14.0803 12.7157C14.1222 12.7157 14.1674 12.7125 14.2158 12.7125L14.8674 13.448V12.9028C14.8674 12.7835 14.7868 12.7706 14.7448 12.7674H14.7061V12.7125H14.7126C14.7835 12.7125 14.8513 12.7157 14.919 12.7157C14.9803 12.7157 15.0416 12.7125 15.1029 12.7125H15.1094Z" fill="#323544"/>
<path d="M16.1222 13.7025C16.0738 13.7025 16.048 13.6864 16.0286 13.6444C16.0093 13.6025 15.9931 13.5477 15.977 13.496L15.7028 12.7186C15.7028 12.7186 15.6931 12.6928 15.6899 12.6831C15.6835 12.6735 15.677 12.6735 15.6738 12.6735C15.6673 12.6735 15.6609 12.6767 15.6576 12.6767C15.6286 12.696 15.5706 12.7251 15.5222 12.7412C15.5125 12.7993 15.4835 12.8735 15.4641 12.9283L15.2286 13.609C15.206 13.6702 15.1609 13.7025 15.106 13.7025H15.0899V13.7606H15.0964C15.148 13.7573 15.2028 13.7541 15.2544 13.7541C15.3157 13.7541 15.377 13.7573 15.4351 13.7573H15.4415V13.7025H15.4189C15.3705 13.7025 15.3157 13.6928 15.3125 13.6573C15.3125 13.6315 15.3318 13.5928 15.348 13.5412L15.3931 13.3928H15.7189L15.777 13.5606C15.7931 13.6057 15.806 13.6477 15.806 13.6638C15.806 13.6928 15.7544 13.7025 15.7189 13.7025H15.6964V13.7606H15.7028C15.7802 13.7573 15.8544 13.7541 15.9254 13.7541C15.9964 13.7541 16.0641 13.7573 16.1319 13.7573H16.1383V13.7025H16.1222ZM15.4254 13.296L15.5544 12.8993L15.6835 13.296H15.4254Z" fill="#323544"/>
<path d="M17.429 12.848V13.6222C17.429 13.6964 17.4774 13.6996 17.5322 13.7029H17.558V13.7577H17.5548C17.4806 13.7577 17.3935 13.7512 17.3193 13.7512C17.2451 13.7512 17.158 13.7577 17.0999 13.7577H17.0935V13.7029H17.1225C17.1741 13.6996 17.2257 13.6964 17.2257 13.6222V12.848C17.2257 12.819 17.2193 12.8028 17.2064 12.7899C17.187 12.7706 17.1548 12.7706 17.1225 12.7674H17.0935V12.7125H17.0999C17.158 12.7125 17.2483 12.7157 17.3193 12.7157C17.3903 12.7157 17.4838 12.7125 17.5548 12.7125H17.558V12.7674H17.5322C17.4967 12.7706 17.4677 12.7706 17.4483 12.7899C17.4354 12.8028 17.429 12.819 17.429 12.848Z" fill="#323544"/>
<path d="M19.9519 12.7125V12.7674H19.9229C19.8616 12.7706 19.7971 12.777 19.7971 12.9512V13.6254C19.7971 13.677 19.7971 13.7287 19.8035 13.7738V13.7803H19.739L18.9842 12.9416V13.5351C18.9842 13.6641 19.0068 13.6996 19.1197 13.7029H19.1487V13.7577H19.1423C19.081 13.7577 19.0164 13.7545 18.9519 13.7545C18.8874 13.7545 18.8164 13.7577 18.7519 13.7577H18.7455V13.7029H18.7713C18.8681 13.6996 18.8971 13.6383 18.8971 13.519V12.8964C18.8971 12.8157 18.8326 12.7674 18.7713 12.7674H18.7455V12.7125H18.7519C18.8068 12.7125 18.8648 12.7157 18.9197 12.7157C18.9648 12.7157 19.0068 12.7125 19.0584 12.7125L19.71 13.448V12.9028C19.71 12.7835 19.6294 12.7706 19.5874 12.7674H19.5487V12.7125H19.5552C19.6229 12.7125 19.6939 12.7157 19.7616 12.7157C19.8229 12.7157 19.8842 12.7125 19.9455 12.7125H19.9519Z" fill="#323544"/>
<path d="M20.9647 13.7025C20.9163 13.6993 20.8905 13.6864 20.8712 13.6444C20.8518 13.6025 20.8357 13.5477 20.8163 13.496L20.5454 12.7186C20.5454 12.7186 20.5357 12.6928 20.5292 12.6831C20.526 12.6735 20.5196 12.6735 20.5131 12.6735C20.5067 12.6735 20.5034 12.6767 20.5002 12.6767C20.4712 12.696 20.4131 12.7251 20.3647 12.7412C20.3518 12.7993 20.326 12.8735 20.3067 12.9283L20.0679 13.609C20.0486 13.6702 20.0002 13.7025 19.9454 13.7025H19.9325V13.7573H19.9389C19.9905 13.7573 20.0454 13.7541 20.097 13.7541C20.155 13.7541 20.2163 13.7573 20.2776 13.7573H20.2841V13.7025H20.2615C20.2099 13.7025 20.155 13.6928 20.155 13.6541C20.155 13.6315 20.1744 13.5928 20.1873 13.5412L20.2325 13.3928H20.5615L20.6163 13.5606C20.6357 13.6057 20.6486 13.6477 20.6486 13.6638C20.6486 13.6928 20.597 13.7025 20.5615 13.7025H20.5389V13.7573H20.5454C20.6228 13.7573 20.697 13.7541 20.768 13.7541C20.8389 13.7541 20.9067 13.7573 20.9712 13.7573H20.9776V13.7025H20.9647ZM20.2679 13.296L20.397 12.8993L20.526 13.296H20.2679Z" fill="#323544"/>
<path d="M21.8678 13.4932V13.5029C21.8516 13.5867 21.8323 13.6706 21.8129 13.7545L21.8065 13.7577C21.6742 13.7577 21.5452 13.7545 21.4162 13.7545C21.2871 13.7545 21.1549 13.7577 21.0226 13.7577H21.0161V13.7029H21.0452C21.0968 13.6996 21.1484 13.6964 21.1484 13.6093V12.8448C21.1484 12.7738 21.0968 12.7706 21.0452 12.7674H21.0161V12.7125H21.0226C21.1032 12.7125 21.1807 12.7157 21.2581 12.7157C21.3355 12.7157 21.4065 12.7125 21.4839 12.7125H21.4903V12.7674H21.4452C21.3871 12.7706 21.3516 12.7674 21.3516 12.8416V13.6061C21.3516 13.6609 21.3871 13.677 21.4355 13.6835C21.4613 13.6867 21.4871 13.6867 21.5162 13.6867C21.5516 13.6867 21.5904 13.6835 21.6291 13.6803C21.6904 13.6738 21.742 13.6383 21.7678 13.6029C21.7904 13.5706 21.8033 13.5319 21.8129 13.4996V13.4932H21.8678Z" fill="#323544"/>
<path d="M21.8452 12.6773C21.9355 12.6773 22 12.745 22 12.8353C22 12.9256 21.9323 12.9902 21.8452 12.9902C21.7581 12.9902 21.6903 12.9224 21.6903 12.8353C21.6903 12.7482 21.7581 12.6773 21.8452 12.6773ZM21.8452 12.9611C21.9161 12.9611 21.9677 12.9031 21.9677 12.8353C21.9677 12.7676 21.9161 12.7063 21.8452 12.7063C21.7742 12.7063 21.7226 12.7676 21.7226 12.8353C21.7226 12.9031 21.7774 12.9611 21.8452 12.9611ZM21.7677 12.916V12.9095C21.7871 12.9095 21.7903 12.9095 21.7903 12.8966V12.7805C21.7903 12.7644 21.7903 12.7579 21.7677 12.7579V12.7515H21.8484C21.8774 12.7515 21.9 12.7644 21.9 12.7934C21.9 12.816 21.8839 12.8353 21.8645 12.8418L21.8903 12.8773C21.9032 12.8934 21.9161 12.9095 21.9258 12.9127V12.9192H21.8968C21.8968 12.9192 21.871 12.8869 21.8419 12.8482H21.8258V12.8998C21.8258 12.8998 21.829 12.9095 21.8484 12.9127V12.9192H21.7742L21.7677 12.916ZM21.8194 12.8321H21.8387C21.8581 12.8321 21.8677 12.816 21.8677 12.7934C21.8677 12.7708 21.8516 12.7611 21.8387 12.7611H21.8226V12.8353L21.8194 12.8321Z" fill="#323544"/>
<path fill-rule="evenodd" clip-rule="evenodd" d="M6.12235 11.9963C6.12235 12.635 5.72234 13.1802 5.15782 13.3995V10.593C5.72234 10.8092 6.12235 11.3543 6.12235 11.9963Z" fill="#323544"/>
<path fill-rule="evenodd" clip-rule="evenodd" d="M5.83286 9.40918H4.6135C3.22638 9.40918 2.07475 10.4124 2.00378 11.877V12.1544C2.07475 13.506 3.22638 14.5964 4.6135 14.5899H5.83286C7.24901 14.5964 8.54258 13.435 8.54258 12.0221C8.54258 10.4769 7.24901 9.40918 5.83286 9.40918ZM4.61995 14.3673C3.31025 14.3673 2.24895 13.306 2.24895 11.9963C2.24895 10.6866 3.31025 9.62209 4.61995 9.62209C5.92964 9.62209 6.99094 10.6834 6.99094 11.9963C6.99094 13.3092 5.92964 14.3673 4.61995 14.3673Z" fill="#323544"/>
<path fill-rule="evenodd" clip-rule="evenodd" d="M4.08098 10.593V13.3963C3.51645 13.1802 3.11645 12.635 3.11645 11.9963C3.11645 11.3576 3.51645 10.8092 4.08098 10.593Z" fill="#323544"/>
</svg>
