<svg width="24" height="24" viewBox="0 0 24 24" fill="none" xmlns="http://www.w3.org/2000/svg">
<path d="M22 6.25649V17.25C22 18.4926 20.9926 19.5 19.75 19.5H4.25C3.00736 19.5 2 18.4926 2 17.25V6.23398C2 6.22372 2.00021 6.2135 2.00061 6.20334C2.01781 5.25972 2.78812 4.5 3.73592 4.5H20.2644C21.2229 4.5 22 5.27697 22.0001 6.23549C22.0001 6.24249 22.0001 6.24949 22 6.25649ZM3.5 8.187V17.25C3.5 17.6642 3.83579 18 4.25 18H19.75C20.1642 18 20.5 17.6642 20.5 17.25V8.18747L13.2873 13.2171C12.5141 13.7563 11.4866 13.7563 10.7134 13.2171L3.5 8.187ZM20.5 6.2286C20.4963 6.10171 20.3922 6 20.2644 6H3.73592C3.60577 6 3.50028 6.10553 3.50032 6.23568C3.50035 6.31268 3.538 6.38481 3.60116 6.42885L11.5713 11.9867C11.8291 12.1664 12.1716 12.1664 12.4293 11.9867L20.3992 6.42905C20.4604 6.38643 20.4976 6.31753 20.5 6.24336V6.23398L20.5 6.2286Z" fill="#323544"/>
</svg>
