<svg width="25" height="24" viewBox="0 0 25 24" fill="none" xmlns="http://www.w3.org/2000/svg">
<path fill-rule="evenodd" clip-rule="evenodd" d="M12.0234 7.625C9.60719 7.625 7.64844 9.58375 7.64844 12C7.64844 14.4162 9.60719 16.375 12.0234 16.375C14.4397 16.375 16.3984 14.4162 16.3984 12C16.3984 9.58375 14.4397 7.625 12.0234 7.625ZM9.14844 12C9.14844 10.4122 10.4356 9.125 12.0234 9.125C13.6113 9.125 14.8984 10.4122 14.8984 12C14.8984 13.5878 13.6113 14.875 12.0234 14.875C10.4356 14.875 9.14844 13.5878 9.14844 12Z" fill="#323544"/>
<path fill-rule="evenodd" clip-rule="evenodd" d="M12.0234 4.5C7.71145 4.5 3.99772 7.05632 2.30101 10.7351C1.93091 11.5375 1.93091 12.4627 2.30101 13.2652C3.99772 16.9439 7.71145 19.5002 12.0234 19.5002C16.3353 19.5002 20.049 16.9439 21.7458 13.2652C22.1159 12.4627 22.1159 11.5375 21.7458 10.7351C20.049 7.05633 16.3353 4.5 12.0234 4.5ZM3.66311 11.3633C5.12472 8.19429 8.32017 6 12.0234 6C15.7266 6 18.922 8.19429 20.3836 11.3633C20.5699 11.7671 20.5699 12.2331 20.3836 12.6369C18.922 15.8059 15.7266 18.0002 12.0234 18.0002C8.32017 18.0002 5.12472 15.8059 3.66311 12.6369C3.47688 12.2331 3.47688 11.7671 3.66311 11.3633Z" fill="#323544"/>
</svg>
