<svg width="24" height="24" viewBox="0 0 24 24" fill="none" xmlns="http://www.w3.org/2000/svg">
<path d="M19.7065 3H4.34844C3.62264 3 3.04199 3.58065 3.04199 4.30645V19.6935C3.04199 20.3903 3.62264 21 4.34844 21H19.6485C20.3743 21 20.9549 20.4194 20.9549 19.6935V4.27742C21.013 3.58065 20.4323 3 19.7065 3ZM8.35491 18.3H5.71297V9.73548H8.35491V18.3ZM7.01942 8.54516C6.14846 8.54516 5.4807 7.84839 5.4807 7.00645C5.4807 6.16452 6.17749 5.46774 7.01942 5.46774C7.86136 5.46774 8.55813 6.16452 8.55813 7.00645C8.55813 7.84839 7.91942 8.54516 7.01942 8.54516ZM18.371 18.3H15.7291V14.1484C15.7291 13.1613 15.7001 11.8548 14.3356 11.8548C12.942 11.8548 12.7388 12.9581 12.7388 14.0613V18.3H10.0968V9.73548H12.6807V10.9258H12.7097C13.0872 10.229 13.9291 9.53226 15.2356 9.53226C17.9356 9.53226 18.4291 11.2742 18.4291 13.6548V18.3H18.371Z" fill="#323544"/>
</svg>
