<svg width="24" height="24" viewBox="0 0 24 24" fill="none" xmlns="http://www.w3.org/2000/svg">
<path d="M16.7456 11.4379C16.8747 11.4056 17.0038 11.4056 17.1652 11.4379C17.1974 11.3088 17.262 10.986 17.1974 10.6633C17.1006 10.2114 16.9715 9.88868 16.7133 9.92096C16.4551 9.95323 16.4551 10.276 16.5197 10.7924C16.5197 11.0506 16.6488 11.3088 16.7456 11.4379ZM14.3895 11.8252C14.5832 11.922 14.7123 11.9543 14.7446 11.922C14.8414 11.8252 14.6155 11.5024 14.1959 11.3411C13.744 11.1474 13.2276 11.212 12.8403 11.4702C12.7112 11.567 12.5821 11.6961 12.5821 11.7929C12.6144 11.922 13.034 11.6638 13.5827 11.6638C13.9377 11.6315 14.1636 11.7606 14.3895 11.8252ZM13.97 12.0511C13.5504 12.0834 13.3245 12.3093 13.389 12.503C13.4213 12.503 13.4213 12.5352 13.6149 12.4707C13.8731 12.3739 14.1636 12.3416 14.4864 12.3739C14.6155 12.3739 14.68 12.4061 14.7123 12.3416C14.7446 12.277 14.4218 11.9866 13.97 12.0511ZM16.3906 12.8257C16.5197 12.503 15.9065 12.1802 15.7451 12.503C15.616 12.8257 16.2615 13.1162 16.3906 12.8257ZM17.0683 11.8897C16.7133 11.8897 16.7133 12.6321 17.0683 12.6321C17.4234 12.6321 17.4234 11.8897 17.0683 11.8897ZM7.35358 15.4077C7.32131 15.4077 7.09538 15.44 6.99856 15.3109C6.77263 14.9559 7.48268 14.4072 7.12766 13.7294C6.70808 12.9548 5.86893 13.1485 5.57846 13.4712C5.22343 13.9231 5.22343 14.504 5.35253 14.504C5.54618 14.5363 5.54618 14.2458 5.70756 13.9553C5.83666 13.6971 6.25623 13.6003 6.48216 13.8262C7.03083 14.1813 6.51443 14.6008 6.57898 15.085C6.61126 15.8596 7.38586 15.8273 7.54723 15.5045C7.57951 15.4723 7.54723 15.4723 7.54723 15.4077C7.48268 15.44 7.51496 15.3432 7.35358 15.4077ZM20.7154 14.6654C20.5863 14.1167 20.5863 14.2458 20.3927 13.7617C20.4895 13.6326 21.0704 12.7289 20.2636 11.7929C19.8117 11.3088 18.7789 11.0183 18.3916 10.986C18.3593 10.5019 18.6175 8.33948 17.4234 7.30668C18.3916 6.33843 18.908 5.27336 18.908 4.33739C18.908 2.56227 16.7779 2.07815 14.1313 3.14322L13.6149 3.4337C13.6149 3.4337 12.6144 2.43317 12.5821 2.43317C9.58055 -0.245652 0.156257 10.276 3.15783 12.7612L3.8356 13.3421C3.64195 13.794 3.5774 14.3426 3.64195 14.8268C3.77105 16.3114 5.22343 17.5056 6.64353 17.5056C9.19325 23.4764 18.5853 23.4764 21.0059 17.6347C21.0382 17.441 21.4255 16.5373 21.4255 15.7627C21.3932 14.9881 20.9736 14.6654 20.7154 14.6654ZM6.61126 16.8278C5.57846 16.7955 4.4811 15.8596 4.38428 14.7945C4.12608 12.0511 7.70861 11.4379 8.16046 14.2458C8.32183 15.5368 7.93453 16.8601 6.61126 16.8278ZM5.80438 11.7284C5.12661 11.8575 4.54565 12.2125 4.15835 12.7612C3.93243 12.5675 3.51285 12.2125 3.48058 12.1157C2.89963 11.0183 4.12608 8.85588 4.93296 7.66171C7.03083 4.66014 10.2906 2.4009 11.8398 2.82047C12.098 2.85275 12.9372 3.821 12.9372 3.821C12.9372 3.821 11.388 4.69242 9.96785 5.85431C8.06363 7.27441 6.61126 9.40456 5.80438 11.7284ZM16.4228 16.2146C16.4228 16.2146 14.8414 16.4728 13.3245 15.8918C13.5827 14.9881 14.5186 16.15 17.5847 15.2463C18.2625 15.0527 19.1339 14.6654 19.844 14.1167C19.9731 14.4717 20.1022 14.859 20.1667 15.2141C20.2958 15.1818 20.8122 15.1818 20.6509 16.0209C20.5218 16.8924 20.1022 17.6024 19.5212 18.2802C19.1017 18.732 18.6498 19.0548 18.1657 19.313C17.9075 19.4421 17.5847 19.5712 17.262 19.668C14.9059 20.4426 12.453 19.6357 11.6139 17.7638C11.5816 17.6347 11.4848 17.5056 11.4848 17.3119C11.1298 16.0855 11.4525 14.6654 12.3562 13.7294C12.3885 13.6971 12.4853 13.6003 12.4853 13.5035C12.4853 13.4712 12.453 13.3744 12.3885 13.3098C12.0657 12.858 11.0329 12.0834 11.1943 10.5665C11.3234 9.53366 12.2917 8.75906 13.1631 8.79133H13.389C13.744 8.82361 14.1313 8.82361 14.4218 8.88816C14.9705 8.92043 15.4223 8.85588 15.971 8.40403C16.1646 8.27493 16.326 8.14583 16.552 8.04901C16.7779 8.01673 17.0038 8.04901 17.1329 8.14583C17.5847 8.40403 17.617 9.14636 17.6816 9.69503C17.6816 10.0178 17.7138 10.7278 17.7138 10.9215C17.7461 11.3733 17.8429 11.4702 18.1334 11.567C18.2625 11.5993 18.3916 11.6638 18.5853 11.6961C19.1662 11.8252 19.5535 12.0511 19.7149 12.2448C19.844 12.3739 19.9085 12.503 19.9408 12.6643C19.9731 13.1485 19.5212 13.794 18.2948 14.3426C16.1969 15.3109 14.0991 14.9881 13.8409 14.9881C12.9372 14.859 12.4208 16.0209 12.9694 16.8601C13.97 18.3447 18.4239 17.7638 19.7472 15.8918C19.7794 15.8596 19.7472 15.8596 19.7149 15.8596C17.8429 17.1183 15.3901 17.5379 14.0022 16.9892C13.7763 16.8924 13.3567 16.731 13.2599 16.2146C15.2287 16.7955 16.3906 16.2469 16.3906 16.2469C16.3906 16.2469 16.5197 16.2146 16.4228 16.2146ZM9.6451 7.62943C10.4197 6.75801 11.2911 5.98341 12.1303 5.59611H12.1626V5.62838C12.1303 5.75748 11.9689 5.98341 11.9366 6.17706C11.9366 6.20933 11.9366 6.20933 11.9689 6.20933C12.453 5.85431 13.389 5.46701 14.1636 5.43473C14.1959 5.43473 14.1959 5.43473 14.1959 5.46701V5.49928C14.0668 5.59611 13.9377 5.72521 13.8409 5.85431V5.88658C13.8409 5.88658 13.8409 5.88658 13.8731 5.88658C14.4218 5.88658 15.1964 6.08023 15.6805 6.33843C15.7128 6.37071 15.6805 6.43526 15.6482 6.37071C12.5499 5.62838 10.1938 7.17758 9.6451 7.56488C9.70965 7.59716 9.70965 7.59716 9.6451 7.62943Z" fill="#323544"/>
</svg>
