<svg width="24" height="24" viewBox="0 0 24 24" fill="none" xmlns="http://www.w3.org/2000/svg">
<path d="M10.7451 20.7395C10.6918 20.7395 10.5065 20.7179 10.3343 20.7012C8.71209 20.5429 7.14574 19.9135 5.84055 18.8967L5.65122 18.7483L5.74122 18.6433C5.81955 18.5517 5.83455 18.5417 5.86622 18.5633C5.88622 18.58 5.98789 18.655 6.09322 18.7368C8.11325 20.2982 10.835 20.8497 13.329 20.2032C14.4312 19.9175 15.4737 19.412 16.3517 18.7375C17.2582 18.0413 18.0416 17.1426 18.5986 16.1598C19.1666 15.1574 19.5379 13.9684 19.6484 12.7987C19.6867 12.3944 19.6867 11.6147 19.6484 11.2104C19.5751 10.4277 19.3641 9.5507 19.0881 8.87486L19.0131 8.68952L19.1147 8.58619C19.1714 8.52952 19.2231 8.48952 19.2297 8.49785C19.2564 8.52619 19.4597 9.06436 19.5479 9.33937C20.1013 11.0657 20.0978 12.9703 19.5312 14.6989C18.8112 16.9225 17.2132 18.7805 15.1217 19.8258C14.1748 20.2992 13.2002 20.5825 12.1056 20.7027C11.8466 20.731 10.9445 20.7544 10.7391 20.7377L10.7451 20.7395ZM4.54454 19.809C4.54454 19.7923 4.52787 19.7273 4.52454 19.659L4.50787 19.5357L4.61787 19.3907C5.30838 18.4735 6.47723 17.3601 7.72675 16.4296C8.49559 15.8571 10.6133 14.3986 11.4218 13.8849C11.5485 13.8049 11.6518 13.7316 11.6518 13.7233C11.6518 13.7233 11.2448 13.7066 10.7473 13.7066H9.84294L10.1496 13.3966L9.98294 12.9618H8.90276L8.8711 13.1769L8.83776 13.3921L8.88276 13.4604C8.90776 13.4988 8.9561 13.5654 8.9911 13.6121L9.05276 13.6954H8.06192L8.18859 13.5804C8.25859 13.5171 8.33859 13.4454 8.36676 13.4188C8.40842 13.3804 8.44509 13.2804 8.55993 12.8914L8.70159 12.4112L8.52176 12.0892C7.53141 10.3179 7.0424 8.67569 7.19924 7.64884C7.29591 7.01333 7.57958 6.68666 8.16842 6.53049C8.38826 6.47216 8.81826 6.46716 9.06843 6.51383C10.1759 6.74883 11.4525 7.69351 12.8282 9.29653C12.9398 9.42653 13.1245 9.63737 13.2395 9.76604C14.6363 11.3284 15.6834 13.4141 15.9202 15.1063C15.9569 15.37 15.9519 15.9288 15.9035 16.1408C15.8035 16.6505 15.5714 16.9978 15.2169 17.1713C14.9922 17.2813 14.8645 17.3096 14.5898 17.3113C14.221 17.3113 13.8713 17.2313 13.4257 17.0391C13.208 16.9458 12.8583 16.7611 12.8583 16.7405C12.8583 16.7405 12.875 16.7121 12.8833 16.6938C12.9067 16.6621 12.92 16.6655 13.0712 16.7505C13.4447 16.9571 13.8925 17.124 14.232 17.1831C14.4465 17.2198 14.8303 17.2115 14.9745 17.1648C15.1635 17.1031 15.2945 17.0248 15.4332 16.8868C16.1154 16.2093 15.9524 14.5576 15.012 12.6227C14.484 11.5361 13.8313 10.5752 13.0048 9.66837C12.8582 9.5067 12.6348 9.26053 12.5095 9.12053C11.3745 7.85401 10.3216 7.043 9.41477 6.737C9.08793 6.62699 8.93276 6.60033 8.61259 6.60033C8.36059 6.60049 8.30942 6.60033 8.15359 6.65366C7.78825 6.76366 7.57391 6.92466 7.44841 7.182C7.32007 7.44634 7.27141 7.74501 7.28841 8.18168C7.32174 9.05786 7.66591 10.1599 8.29609 11.4099C8.53692 11.8877 8.71943 12.2136 8.74143 12.2047C8.75809 12.2047 8.84976 11.8976 8.95843 11.5311L9.15727 10.8647L8.78976 10.4707H9.52677C9.93211 10.4707 10.2704 10.4724 10.2786 10.4874C10.2786 10.4874 10.5325 11.1362 10.8243 11.9109L11.3548 13.3196L11.7181 13.6854L12.2051 13.3681C12.7693 13.0006 13.4823 12.5212 14.0455 12.1311C14.2627 11.9811 14.4475 11.8572 14.4565 11.8567C14.4732 11.8557 14.5698 12.0167 14.5582 12.0264C14.5582 12.0264 13.9613 12.4356 13.2403 12.9288C9.83228 15.2599 7.87308 16.6126 7.55624 16.853C6.5729 17.599 5.51722 18.625 4.72287 19.6063C4.62287 19.7313 4.53987 19.8167 4.53537 19.802L4.54454 19.809ZM9.83211 12.4982C9.68044 12.1189 9.39327 11.4384 9.3846 11.4384C9.3846 11.4384 9.32794 11.5867 9.27127 11.7662C9.2146 11.9464 9.1396 12.1886 9.10327 12.3042L9.0366 12.5146H9.43744C9.65811 12.5146 9.83578 12.5149 9.83211 12.4982ZM9.2391 12.2554C9.31744 11.9906 9.3941 11.7724 9.40644 11.7849C9.4231 11.8032 9.58111 12.1787 9.58111 12.2014C9.58111 12.2181 9.28027 12.2997 9.2381 12.2997C9.2381 12.2997 9.2381 12.2787 9.2391 12.2554ZM8.30926 19.1162C8.30926 19.0595 8.22425 18.6252 8.20925 18.607C8.19259 18.5903 8.06925 18.5653 7.91758 18.5403C7.76591 18.5153 7.64608 18.4937 7.64958 18.4903C7.64958 18.4903 7.77458 18.4653 7.91892 18.4437C8.06392 18.4203 8.19209 18.392 8.20392 18.3787C8.22059 18.362 8.24559 18.2403 8.26892 18.101C8.30726 17.8802 8.32892 17.7862 8.32892 17.848C8.32892 17.9263 8.41392 18.3602 8.43226 18.379C8.44892 18.3957 8.57893 18.4207 8.72876 18.4423C8.87876 18.464 9.00426 18.4857 9.0081 18.489C9.0081 18.489 8.8881 18.5157 8.73093 18.539C8.57093 18.564 8.43776 18.594 8.42576 18.609C8.40909 18.6257 8.38742 18.7423 8.36576 18.8747C8.33242 19.0802 8.30926 19.182 8.30926 19.1162ZM5.01171 18.1587C4.07503 17.2105 3.37335 16.0798 2.94968 14.8353C2.89468 14.6753 2.84968 14.5366 2.84968 14.5274C2.84968 14.5108 3.08418 14.3841 3.09318 14.3958C3.09318 14.3958 3.14652 14.5474 3.20652 14.7248C3.58486 15.8496 4.20603 16.8908 5.02154 17.7671C5.13154 17.8855 5.28021 18.0363 5.35155 18.1022L5.48155 18.2222L5.39321 18.3205C5.34488 18.3738 5.29821 18.4205 5.28821 18.4205C5.27155 18.4215 5.15621 18.3047 5.01171 18.1587ZM13.8397 18.3712C13.8163 18.3478 13.823 18.2712 13.8563 18.2462C13.8797 18.2278 13.898 18.2262 13.9347 18.2462C13.983 18.2678 13.993 18.2978 13.9713 18.3562C13.9547 18.3878 13.8647 18.3995 13.8397 18.3745V18.3712ZM15.2625 18.168C15.1875 18.1397 15.1925 17.9955 15.2625 17.9905C15.3592 17.9905 15.3892 18.0105 15.3809 18.0988C15.3809 18.1622 15.3209 18.1922 15.2559 18.1688L15.2625 18.168ZM8.85793 17.6123C8.82293 17.5706 8.85793 17.504 8.9046 17.504C8.9696 17.504 9.00293 17.549 8.9746 17.6006C8.9496 17.6473 8.89126 17.654 8.85793 17.6173V17.6123ZM7.90958 17.4923C7.85292 17.4356 7.88625 17.3673 7.96958 17.3673C8.03292 17.3673 8.06125 17.4273 8.02292 17.4823C7.98792 17.5323 7.95125 17.5356 7.90958 17.499V17.4923ZM10.7901 17.464C10.7418 17.424 10.7518 17.3806 10.8201 17.3373C10.8701 17.3056 10.9435 17.384 10.9151 17.439C10.8835 17.4973 10.8401 17.5056 10.7901 17.464ZM16.7489 16.8716C16.7139 16.7733 16.7072 16.7683 16.5955 16.7283L16.4789 16.6866L16.5805 16.6533C16.6889 16.6183 16.7205 16.5816 16.7592 16.4613C16.7875 16.3713 16.8059 16.3796 16.8375 16.4946C16.8659 16.5963 16.8775 16.6096 16.9842 16.643C17.0275 16.6596 17.0692 16.673 17.0759 16.6796C17.0759 16.6796 17.0392 16.713 16.9759 16.7363C16.8692 16.778 16.8592 16.7863 16.8375 16.868C16.8209 16.9163 16.8059 16.9596 16.7975 16.9646C16.7975 16.9646 16.7659 16.928 16.7459 16.8713L16.7489 16.8716ZM12.3731 16.8883C12.3481 16.8633 12.3565 16.7883 12.3898 16.7766C12.4415 16.7566 12.4798 16.7933 12.4748 16.84C12.4748 16.89 12.4048 16.92 12.3731 16.8883ZM8.75193 16.8316C8.68359 16.7633 8.75059 16.6495 8.84693 16.6733C8.9036 16.69 8.9336 16.77 8.9036 16.82C8.87693 16.8633 8.79193 16.87 8.75359 16.8366L8.75193 16.8316ZM17.3899 16.6983C17.3732 16.6783 17.3732 16.6666 17.3899 16.6483C17.4099 16.6316 17.4215 16.6316 17.4399 16.6483C17.4565 16.6683 17.4565 16.68 17.4399 16.6983C17.4199 16.715 17.4082 16.715 17.3899 16.6983ZM6.09006 16.5366C6.03172 16.4783 6.07339 16.3716 6.15506 16.3716C6.19673 16.3716 6.25506 16.4316 6.25506 16.4733C6.25506 16.5116 6.19339 16.5683 6.15172 16.5683C6.13506 16.5683 6.10672 16.55 6.09006 16.5366ZM14.8147 16.3716C14.7963 16.3416 14.8147 16.3133 14.8647 16.3133C14.8897 16.3133 14.903 16.33 14.903 16.3516C14.903 16.3933 14.838 16.4083 14.8147 16.3716ZM16.5267 16.3166C16.455 16.2916 16.4484 16.2033 16.51 16.1716C16.5467 16.155 16.565 16.155 16.5884 16.1716C16.655 16.2266 16.605 16.3406 16.52 16.3133L16.5267 16.3166ZM7.26024 16.2833C7.24357 16.245 7.26024 16.2133 7.31024 16.2133C7.34858 16.2133 7.37024 16.2466 7.35524 16.2866C7.33857 16.32 7.27357 16.3166 7.26024 16.2866V16.2833ZM5.77705 16.1633C5.74039 16.1266 5.73705 16.055 5.77705 16.0216C5.82872 15.97 5.94922 16.0216 5.94922 16.0883C5.94922 16.125 5.87922 16.195 5.84255 16.195C5.82589 16.195 5.80089 16.1783 5.78422 16.165L5.77705 16.1633ZM11.2441 15.7661C11.1958 15.7478 11.1158 15.7061 11.068 15.6761C10.953 15.6028 10.7508 15.4006 10.7065 15.3138C10.6881 15.2754 10.6248 15.1871 10.5681 15.1153L10.4631 14.9853L10.6731 14.8419L10.7731 14.9219C10.8281 14.9653 10.9381 15.0353 11.0148 15.0753C11.2685 15.2086 11.5368 15.521 11.5368 15.6836C11.5368 15.8003 11.4151 15.8353 11.2435 15.7686L11.2441 15.7661ZM5.97522 15.7311C5.97522 15.7311 5.95856 15.7011 5.95856 15.6811C5.95856 15.6561 5.97522 15.6445 6.00856 15.6445C6.04856 15.6445 6.05856 15.6445 6.05189 15.6878C6.05189 15.7311 5.99856 15.7561 5.97189 15.7295L5.97522 15.7311ZM5.06071 15.6345C5.03904 15.6095 5.04071 15.5978 5.06071 15.5711C5.09071 15.5411 5.09571 15.5411 5.12571 15.5711C5.15238 15.5978 5.15404 15.6095 5.12571 15.6345C5.10904 15.6511 5.09404 15.6645 5.08571 15.6645C5.08571 15.6645 5.05904 15.6478 5.04571 15.6345H5.06071ZM8.24442 15.5995C8.22775 15.5628 8.27942 15.5211 8.31942 15.5361C8.33609 15.5361 8.34776 15.5628 8.34442 15.5828C8.34442 15.6261 8.25942 15.6395 8.24442 15.5995ZM15.381 15.5995C15.381 15.5828 15.3812 15.5645 15.3977 15.5478C15.4327 15.5128 15.471 15.5295 15.471 15.5828C15.471 15.6245 15.4044 15.6361 15.3827 15.5995H15.381ZM17.2982 15.5995C17.2599 15.5711 17.2715 15.5161 17.3199 15.4961C17.3599 15.4795 17.4115 15.5328 17.3965 15.5728C17.3799 15.6178 17.3382 15.6278 17.2982 15.5995ZM17.5637 15.4811C17.5637 15.4045 17.4771 14.9856 17.4571 14.9654C17.4404 14.9488 17.3087 14.9188 17.1597 14.8954C16.8592 14.8471 16.8604 14.8438 17.2114 14.7954C17.3347 14.7788 17.4465 14.7538 17.4589 14.7404C17.4756 14.7238 17.5006 14.6038 17.5239 14.4638C17.5606 14.2433 17.5822 14.1488 17.5839 14.2104C17.5852 14.2988 17.6656 14.7201 17.6856 14.7391C17.7022 14.7558 17.8172 14.7774 17.9456 14.7958C18.2856 14.8424 18.2926 14.8524 18.0122 14.8924C17.8789 14.9108 17.7456 14.9358 17.7166 14.9474C17.6582 14.9691 17.6582 14.9691 17.6116 15.2768C17.5849 15.4523 17.5649 15.5405 17.5649 15.4828L17.5637 15.4811ZM14.7525 15.4195C14.7358 15.3761 14.7875 15.3478 14.8225 15.3811C14.8392 15.3978 14.8442 15.4178 14.8392 15.4295C14.8192 15.4611 14.7692 15.4545 14.7558 15.4128L14.7525 15.4195ZM17.7016 15.3828C17.6849 15.3661 17.6816 15.3344 17.6849 15.3094C17.6849 15.2728 17.7032 15.2645 17.7599 15.2645C17.8216 15.2645 17.8299 15.2644 17.8349 15.3211C17.8516 15.4045 17.7549 15.4461 17.7016 15.3828ZM15.321 15.0091C15.2944 14.9691 15.2927 14.9491 15.3044 14.9108C15.346 14.8208 15.5032 14.8558 15.5032 14.9541C15.5032 14.9924 15.4299 15.0574 15.3865 15.0574C15.3649 15.0574 15.3332 15.0341 15.3149 15.0074L15.321 15.0091ZM16.5205 15.0091C16.4789 14.9858 16.4772 14.9074 16.5205 14.8741C16.5605 14.8408 16.6472 14.8741 16.6472 14.9274C16.6467 14.9974 16.5822 15.0408 16.5239 15.0074L16.5205 15.0091ZM2.05817 14.6686C2.3025 14.4668 2.94085 14.0663 3.47419 13.7803C3.85553 13.5758 4.3822 13.3239 4.36403 13.3548C4.36403 13.3714 4.29737 13.4431 4.2307 13.5229C4.1457 13.6279 4.11236 13.6829 4.11236 13.7251C4.11236 13.7818 4.0957 13.7884 3.75036 13.9439C3.30468 14.1428 2.84318 14.3759 2.50984 14.5709C2.26367 14.7143 2.254 14.7193 2.12834 14.7176L2 14.7169L2.05817 14.6686ZM10.0644 14.4496C9.94778 14.2963 9.51061 13.6726 9.29077 13.3441L9.11077 13.0751H9.1841C9.24077 13.0751 9.2641 13.0918 9.2841 13.1184C9.33744 13.2051 9.71244 13.7271 9.99444 14.1048L10.2818 14.4894L10.2368 14.5261C10.2118 14.5461 10.1818 14.5628 10.1701 14.5628C10.1534 14.5628 10.1128 14.5129 10.0644 14.4496ZM16.3505 14.4846C16.3505 14.4313 16.3872 14.4146 16.4239 14.4496C16.4589 14.4846 16.4422 14.5229 16.3889 14.5229C16.3639 14.5229 16.3505 14.5063 16.3505 14.4846ZM2.72584 14.0568C2.69251 14.0001 2.57251 13.3194 2.52467 12.9084C2.47634 12.4972 2.47634 11.5014 2.52434 11.0889C2.68934 9.66537 3.14335 8.37902 3.88086 7.24717C5.73855 4.39646 9.02027 2.88661 12.3876 3.33328C14.4573 3.60795 16.388 4.63947 17.7672 6.20732C18.0714 6.55316 18.5419 7.177 18.5419 7.2345C18.5419 7.25617 18.3602 7.38117 18.3302 7.38117C18.3302 7.38117 18.2769 7.32284 18.2286 7.2495C17.4416 6.08449 16.3332 5.10497 15.0688 4.45663C12.9142 3.35212 10.3678 3.23178 8.09409 4.12679C7.76808 4.25513 7.16741 4.5538 6.8559 4.74264C5.11104 5.79948 3.80086 7.44567 3.17118 9.37253C2.73518 10.7069 2.64118 12.1762 2.90335 13.5634C2.93001 13.7084 2.95668 13.8503 2.96168 13.8781C2.96168 13.9231 2.96168 13.9364 2.85168 13.9998C2.78668 14.0381 2.73084 14.0651 2.72584 14.0568ZM12.187 13.9051V13.7884L12.793 13.3718L13.0675 13.3884C13.2885 13.3884 13.364 13.3884 13.4542 13.3668C13.6365 13.3134 13.762 13.1746 13.762 13.0253C13.762 12.9836 13.7403 12.9486 13.6837 12.8986L13.6053 12.8286L13.6687 12.7819C13.797 12.6869 14.547 12.1791 14.5728 12.1692C14.5895 12.1692 14.6195 12.1892 14.6512 12.2359C14.7912 12.4471 14.83 12.7121 14.7612 12.9831C14.7162 13.1619 14.6662 13.2514 14.526 13.4006C14.1978 13.7518 13.695 13.9223 13.1538 13.8656C12.9702 13.8456 12.6476 13.7789 12.5466 13.7373C12.5266 13.7206 12.4733 13.7623 12.39 13.8373C12.32 13.8989 12.2433 13.9673 12.2188 13.9889L12.1738 14.0273V13.9106L12.187 13.9051ZM4.2397 13.7053C4.2397 13.7053 4.30137 13.6153 4.37637 13.5243L4.51304 13.3576L4.51387 10.8717L4.3972 10.6902C4.3322 10.5902 4.28053 10.5047 4.28053 10.5C4.28053 10.5 4.58337 10.4834 4.95337 10.4834H5.62622L6.77507 12.4184V10.7142L6.57506 10.4842H6.98774C7.21491 10.4842 7.40058 10.4842 7.40058 10.5009C7.40058 10.5009 7.35724 10.5759 7.30224 10.6559L7.20391 10.8009V13.3693L7.49724 13.6893H6.82807C6.46006 13.6893 6.15289 13.6878 6.14539 13.6726C6.14539 13.6726 5.88322 13.2263 5.57938 12.6991C5.27555 12.1717 5.01921 11.7319 5.00971 11.7217C4.99304 11.7051 4.99304 12.0549 4.99304 12.5397V13.3763L5.10971 13.5313C5.17471 13.6163 5.22638 13.6896 5.22638 13.6963C5.22638 13.6963 5.00188 13.7129 4.72737 13.7129C4.45303 13.7129 4.22853 13.7129 4.22853 13.6963L4.2397 13.7053ZM15.157 13.5936C15.2154 13.5353 15.2687 13.4919 15.2754 13.5003C15.2754 13.5003 15.297 13.5419 15.3087 13.5736C15.3254 13.6053 15.3354 13.6469 15.342 13.6669C15.3587 13.6986 15.3409 13.7019 15.2037 13.7019H15.0503L15.157 13.5953V13.5936ZM15.5827 13.3988C15.521 13.2321 15.4694 13.0881 15.4694 13.0776C15.4694 13.0609 15.6227 12.5677 15.8119 11.9679C16.1422 10.9154 16.153 10.8757 16.1204 10.8364C16.102 10.8131 16.0204 10.7247 15.9392 10.6391L15.7925 10.4824H16.5152C16.9127 10.4824 17.2435 10.484 17.2505 10.499C17.2505 10.499 17.525 11.1479 17.8449 11.9227L18.4266 13.3314L18.8251 13.7129H16.8304L16.982 13.5613C17.0654 13.4779 17.1337 13.3996 17.1337 13.3891C17.1337 13.3724 17.0987 13.2808 17.0587 13.1743L16.982 12.9798H15.8949L15.8399 13.1753C15.8099 13.2836 15.7849 13.3851 15.7849 13.4023C15.7849 13.4189 15.8282 13.4923 15.8832 13.5623C15.9365 13.6339 15.9815 13.6956 15.9815 13.7023C15.9815 13.7023 15.9182 13.7189 15.8399 13.7189H15.6982L15.5865 13.4168L15.5827 13.3988ZM16.8202 12.4929C16.8202 12.4462 16.3792 11.4162 16.368 11.4364C16.348 11.4714 16.0375 12.4597 16.0375 12.4857C16.0375 12.5024 16.1542 12.5074 16.4289 12.5074C16.644 12.5074 16.8202 12.5074 16.8202 12.4907V12.4929ZM12.1831 12.9744L12.2731 13.0394C12.3231 13.0744 12.3665 13.1094 12.3715 13.1178C12.3715 13.1178 12.3348 13.1578 12.2815 13.1911L12.1831 13.2511V12.9744ZM7.33107 12.4691V12.2349L7.50224 12.1832C7.59724 12.1549 7.81325 12.0882 7.98408 12.0349C8.15492 11.9816 8.30175 11.9449 8.31026 11.9532C8.34526 11.9899 8.58626 12.4326 8.57626 12.4426C8.55626 12.4626 7.43091 12.7031 7.35941 12.7031C7.33607 12.7031 7.33107 12.6599 7.33107 12.4691ZM12.9267 12.5191C12.4731 12.3557 12.2175 12.1329 12.1216 11.8169C12.04 11.5481 12.105 11.1479 12.2683 10.9289C12.4233 10.7206 12.6101 10.5724 12.81 10.5007C12.92 10.4607 13.1945 10.4024 13.3473 10.3857L13.464 10.369L13.5823 10.5207C13.714 10.6911 13.8465 10.8732 13.8463 10.8829C13.8463 10.8829 13.7347 10.8829 13.597 10.8829C13.3015 10.8829 13.2383 10.9079 13.1665 11.0496C13.1198 11.1429 13.1065 11.3162 13.1432 11.3832C13.1798 11.4532 13.3283 11.5166 13.6123 11.5866C13.9008 11.6566 14.2842 11.8162 14.2465 11.8499C14.2298 11.8666 13.9578 12.0527 13.4132 12.4257C13.2765 12.5191 13.1622 12.5946 13.1588 12.5932C13.1588 12.5932 13.0505 12.5549 12.9275 12.5099L12.9267 12.5191ZM8.67209 11.8826C8.64376 11.8259 8.64376 11.8259 8.70376 11.8042C8.73709 11.7876 8.76709 11.7826 8.77043 11.7826C8.77043 11.7826 8.77043 11.8176 8.75376 11.8609C8.73043 11.9542 8.71209 11.9592 8.67209 11.8826ZM10.9101 11.7876C10.8935 11.7576 10.8635 11.6626 10.8301 11.5772C10.7968 11.4906 10.7451 11.3536 10.7151 11.2714L10.6601 11.1214L11.1138 10.9499C11.593 10.7686 12.676 10.3392 13.0293 10.1904L13.2393 10.102L13.396 10.2854L13.2213 10.302C12.8677 10.3304 12.5985 10.437 12.3853 10.6364C12.1636 10.8431 12.058 11.0429 11.9911 11.3824L11.9561 11.5561L11.8695 11.5827C11.5575 11.6777 10.9795 11.8436 10.957 11.8436C10.9403 11.8436 10.9203 11.8186 10.9103 11.7902L10.9101 11.7876ZM14.7947 11.7426C14.768 11.6992 14.7497 11.6559 14.7563 11.6459C14.7563 11.6292 14.8713 11.5542 14.9967 11.4627C15.1234 11.3727 15.3785 11.1826 15.5652 11.0416C15.7519 10.8999 15.9109 10.7852 15.9185 10.7852C15.9185 10.7852 15.9535 10.8136 15.9785 10.8469C16.0219 10.9052 16.0235 10.9136 15.9969 10.9886C15.9719 11.0619 15.9269 11.0969 15.4214 11.4441C15.1202 11.6511 14.867 11.8211 14.8592 11.8216C14.8592 11.8216 14.823 11.7859 14.7947 11.7426ZM14.4467 11.1711C14.3983 11.0927 14.2648 10.8981 14.1507 10.7379C14.0373 10.5779 13.9462 10.4435 13.9497 10.4399C13.9497 10.4399 14.023 10.4565 14.1063 10.4749L14.2563 10.5149L14.5497 10.3515V10.8314C14.5497 11.0954 14.5497 11.3112 14.5497 11.3112C14.5497 11.3112 14.5013 11.2479 14.453 11.1696L14.4467 11.1711ZM13.2397 11.1194C13.2397 11.0861 13.3313 11.0211 13.4063 11.0011C13.4813 10.9811 13.6467 10.9711 13.6293 10.9844C13.6093 11.0044 13.24 11.1294 13.24 11.1161L13.2397 11.1194ZM14.668 10.4544C14.668 10.331 14.668 10.2944 14.6313 10.2687C14.578 10.2204 14.5413 10.2287 14.3648 10.3237L14.2032 10.412L13.8552 10.332L13.7118 10.155C13.6335 10.0584 13.5752 9.97104 13.5852 9.96254C13.6018 9.94587 13.7907 9.86421 14.022 9.7617C15.702 9.02103 17.1992 8.23868 18.4437 7.45134C18.7814 7.23767 19.1176 6.97233 19.8818 6.31616C20.8974 5.44398 21.5778 4.75364 21.9014 4.26696C21.9514 4.19363 21.9931 4.13196 21.9981 4.13196C22.0231 4.13196 21.7946 4.65513 21.6134 5.01181C20.7346 6.7415 19.1281 8.61652 17.199 10.1642L16.9612 10.3549H16.4517L16.6404 10.1982C16.8485 10.0255 17.4485 9.4387 17.4814 9.37587C17.4981 9.34753 17.353 9.41087 16.9705 9.60137C16.3207 9.92587 15.4664 10.305 14.771 10.5781L14.6677 10.6181V10.4647L14.668 10.4544ZM9.13543 8.88269C9.1521 8.84603 9.19043 8.84103 9.19043 8.88269C9.19043 8.89936 9.17377 8.91436 9.15877 8.91436C9.1421 8.91436 9.13043 8.89769 9.13543 8.89103V8.88269ZM9.20377 8.41669C9.20377 8.40002 9.1771 8.29502 9.16043 8.18202C9.1421 8.06868 9.1171 7.95851 9.1021 7.93651C9.0821 7.90318 9.03377 7.88985 8.84476 7.85985C8.49059 7.80484 8.48992 7.80318 8.7981 7.75651C8.95143 7.73318 9.08527 7.70651 9.0951 7.69651C9.11177 7.67984 9.13177 7.56984 9.15343 7.43584C9.1751 7.3025 9.2001 7.186 9.20843 7.17767C9.20843 7.17767 9.23843 7.27267 9.25843 7.40784C9.27844 7.54284 9.30344 7.66684 9.31677 7.68368C9.33344 7.70534 9.4251 7.72701 9.63077 7.75534C9.95411 7.80034 9.95311 7.80368 9.58744 7.85701C9.4291 7.88035 9.3386 7.90368 9.32027 7.92368C9.3036 7.94035 9.27527 8.06535 9.2536 8.19935C9.23193 8.33435 9.21027 8.43069 9.2036 8.41452L9.20377 8.41669ZM8.48492 8.05418C8.44992 8.01085 8.48376 7.95751 8.54659 7.95751C8.58493 7.95751 8.59326 7.97418 8.59326 8.01585C8.59326 8.06085 8.57659 8.07585 8.55326 8.08085C8.53159 8.08085 8.49826 8.06418 8.48492 8.05418ZM8.25675 7.68034C8.24009 7.63868 8.27509 7.58534 8.31842 7.58534C8.33842 7.58534 8.36176 7.60201 8.37342 7.61701C8.40342 7.66368 8.37342 7.71201 8.31842 7.71201C8.29009 7.71201 8.26342 7.69534 8.25675 7.68034ZM12.9497 7.42134C12.933 7.40467 12.9263 7.38301 12.9297 7.35801C12.9463 7.293 13.0347 7.27967 13.053 7.33967C13.0747 7.40967 13.0113 7.45967 12.9497 7.42134ZM11.78 6.52966C11.7633 6.49133 11.78 6.45966 11.83 6.45966C11.8683 6.45966 11.8983 6.50966 11.8783 6.53966C11.8616 6.56799 11.7916 6.55966 11.78 6.52299V6.52966ZM9.82244 6.50799C9.82244 6.49133 9.82244 6.46299 9.84244 6.44466C9.87078 6.41633 9.87744 6.41633 9.90411 6.44466C9.92078 6.46133 9.92911 6.48966 9.92078 6.50799C9.90411 6.54966 9.83744 6.55133 9.82244 6.50799ZM13.1042 5.92598C13.0792 5.77932 13.0492 5.65148 13.0375 5.64215C13.0208 5.62548 12.8975 5.60548 12.7523 5.58215C12.5136 5.54381 12.424 5.52215 12.4986 5.52048C12.597 5.51981 13.0155 5.44048 13.0357 5.41881C13.0523 5.40214 13.079 5.27881 13.1023 5.13897C13.1257 4.99897 13.1473 4.8823 13.1507 4.87864C13.1507 4.87864 13.169 4.9353 13.2207 5.25964C13.2373 5.33631 13.2557 5.40964 13.269 5.42298C13.2907 5.44131 13.6938 5.51131 13.8262 5.52131C13.8828 5.52131 13.7528 5.55465 13.5217 5.58798C13.3933 5.60631 13.277 5.63298 13.2635 5.64465C13.2468 5.66131 13.2218 5.77798 13.2002 5.91132C13.1785 6.04465 13.1585 6.16299 13.1552 6.17282C13.1552 6.18949 13.1285 6.07115 13.1035 5.92365L13.1042 5.92598ZM9.94644 6.11499C9.92311 6.09165 9.92978 6.06999 9.96311 6.06999C9.97978 6.06999 9.99311 6.08665 9.99311 6.09999C9.99311 6.12999 9.96978 6.13832 9.94811 6.11665L9.94644 6.11499ZM11.0355 6.09665C11.0355 6.07999 11.0355 6.05165 11.0555 6.03332C11.0838 6.00499 11.0905 6.00499 11.1171 6.03332C11.1338 6.04999 11.1421 6.07832 11.1355 6.09665C11.1188 6.13832 11.0505 6.13999 11.0355 6.09665ZM9.74244 6.04665C9.68077 5.98499 9.75911 5.88832 9.82578 5.93999C9.87078 5.97332 9.85911 6.05832 9.80744 6.06665C9.78578 6.06665 9.75744 6.06665 9.74411 6.04832L9.74244 6.04665ZM11.3723 5.89498C11.3556 5.87165 11.394 5.84832 11.4206 5.86498C11.4423 5.88165 11.4206 5.91332 11.4006 5.91332C11.384 5.91332 11.379 5.91332 11.3723 5.89498ZM9.62027 5.86498C9.62027 5.84832 9.63694 5.83498 9.65027 5.83498C9.66694 5.83498 9.68027 5.85165 9.68027 5.86498C9.68027 5.88165 9.66361 5.89498 9.65027 5.89498C9.63361 5.89498 9.62027 5.87832 9.62027 5.86498ZM11.8423 5.62881C11.8056 5.59215 11.8023 5.52048 11.8423 5.48715C11.8723 5.45715 11.9606 5.45715 11.9906 5.48715C12.0456 5.54215 11.9906 5.65931 11.9156 5.65931C11.8956 5.65931 11.8656 5.64265 11.849 5.62765L11.8423 5.62881ZM10.8773 5.40214C10.8123 5.33714 10.894 5.21398 10.979 5.23714C11.0356 5.25381 11.0656 5.33381 11.0356 5.38381C11.0106 5.42381 10.909 5.43548 10.8773 5.40214ZM11.4593 4.55397C11.4376 4.5273 11.4376 4.5173 11.4593 4.4923C11.501 4.45063 11.556 4.47396 11.5493 4.53063C11.5493 4.58397 11.4893 4.5973 11.4543 4.55563L11.4593 4.55397Z" fill="#323544"/>
</svg>
