<svg width="24" height="24" viewBox="0 0 24 24" fill="none" xmlns="http://www.w3.org/2000/svg">
<path d="M19.3028 3.7801C18.4241 2.90142 16.9995 2.90142 16.1208 3.7801L14.3498 5.5511C14.3442 5.55633 14.3387 5.56166 14.3333 5.5671C14.3279 5.57253 14.3225 5.57803 14.3173 5.58359L5.83373 14.0672C5.57259 14.3283 5.37974 14.6497 5.27221 15.003L4.05205 19.0121C3.9714 19.2771 4.04336 19.565 4.23922 19.7608C4.43508 19.9567 4.72294 20.0287 4.98792 19.948L8.99703 18.7279C9.35035 18.6203 9.67176 18.4275 9.93291 18.1663L20.22 7.87928C21.0986 7.0006 21.0986 5.57598 20.22 4.6973L19.3028 3.7801ZM14.8639 7.15833L16.8417 9.13619L8.87225 17.1057C8.7852 17.1927 8.67806 17.257 8.56029 17.2928L5.8965 18.1036L6.70722 15.4398C6.74306 15.322 6.80735 15.2149 6.89439 15.1278L14.8639 7.15833ZM17.9024 8.07553L15.9245 6.09767L17.1814 4.84076C17.4743 4.54787 17.9492 4.54787 18.2421 4.84076L19.1593 5.75796C19.4522 6.05085 19.4522 6.52572 19.1593 6.81862L17.9024 8.07553Z" fill="#323544"/>
</svg>
