<svg width="24" height="25" viewBox="0 0 24 25" fill="none" xmlns="http://www.w3.org/2000/svg">
<path d="M6.62185 10.7504C6.20764 10.7504 5.87185 11.0862 5.87185 11.5004C5.87185 11.9146 6.20764 12.2504 6.62185 12.2504H15.8718C16.2861 12.2504 16.6218 11.9146 16.6218 11.5004C16.6218 11.0862 16.2861 10.7504 15.8718 10.7504H6.62185Z" fill="#323544"/>
<path fill-rule="evenodd" clip-rule="evenodd" d="M2 11.4989C2 6.39126 6.14154 2.25098 11.25 2.25098C16.3585 2.25098 20.5 6.39126 20.5 11.4989C20.5 13.7836 19.6714 15.8747 18.2983 17.4883L21.7791 20.9695C22.072 21.2624 22.072 21.7372 21.7791 22.0301C21.4862 22.323 21.0113 22.323 20.7184 22.0301L17.2372 18.5486C15.6237 19.9197 13.5334 20.7469 11.25 20.7469C6.14154 20.7469 2 16.6066 2 11.4989ZM11.25 3.75098C6.96962 3.75098 3.5 7.22003 3.5 11.4989C3.5 15.7779 6.96962 19.2469 11.25 19.2469C15.5304 19.2469 19 15.7779 19 11.4989C19 7.22003 15.5304 3.75098 11.25 3.75098Z" fill="#323544"/>
</svg>
