<svg width="24" height="24" viewBox="0 0 24 24" fill="none" xmlns="http://www.w3.org/2000/svg">
<path d="M2.68152 12.0801C2.71375 11.629 2.71375 11.21 2.81043 10.8233C2.84265 10.63 2.81043 10.5011 2.71375 10.3077C1.97257 9.05093 1.84367 7.66525 2.16592 6.27956C2.5204 4.7005 3.42271 3.47594 4.90507 2.73476C6.70967 1.768 8.54651 1.768 10.3511 2.76699C10.48 2.79921 10.6089 2.86366 10.8023 2.79921C13.1225 2.54141 15.2494 2.99256 17.2151 4.3138C19.2453 5.66728 20.5343 7.56857 21.0822 9.98547C21.34 11.0167 21.34 12.1123 21.2111 13.1758C21.1788 13.3047 21.1788 13.4336 21.2433 13.5947C21.9845 14.8515 22.21 16.2372 21.7911 17.6873C21.3722 19.2664 20.4699 20.4909 19.0197 21.2643C17.2151 22.2311 15.3461 22.2311 13.5737 21.2321C13.4448 21.1999 13.3159 21.1354 13.1547 21.1999C11.7046 21.3932 10.2867 21.2321 8.90099 20.7487C7.09637 20.1687 5.58178 19.0085 4.45392 17.494C3.58383 16.2372 2.97155 14.9482 2.81043 13.498C2.71375 12.9824 2.71375 12.5313 2.68152 12.0801ZM12.0268 18.0096C12.5747 17.9773 13.0581 17.8807 13.6059 17.8162C14.3793 17.6873 15.056 17.3651 15.6361 16.9461C16.6351 16.1405 17.054 15.0771 16.8929 13.8203C16.7962 12.9502 16.4095 12.2735 15.6683 11.7901C15.3139 11.5323 14.8627 11.3389 14.4437 11.21C13.477 10.8878 12.478 10.6622 11.479 10.4044C10.9956 10.3077 10.5123 10.1466 10.0611 9.85657C9.5455 9.53431 9.41659 8.98648 9.70662 8.53533C9.89997 8.21308 10.2222 8.01973 10.5123 7.89082C11.0601 7.66525 11.6079 7.66525 12.1557 7.69747C12.8325 7.7297 13.3803 8.05195 13.7026 8.66423C13.8315 8.92203 13.9604 9.17984 14.1537 9.40541C14.2826 9.59876 14.4115 9.75989 14.6371 9.85657C15.2171 10.1144 15.9906 9.82434 16.1839 9.21206C16.3773 8.72868 16.2161 8.2453 15.9583 7.8586C15.5072 7.11742 14.8627 6.66626 14.0893 6.40846C13.3481 6.15066 12.6391 6.05398 11.8335 6.05398C10.8023 6.05398 9.8033 6.18288 8.80431 6.60181C7.7731 7.11742 7.1286 7.8586 6.9997 9.05094C6.90302 10.1466 7.35418 11.0167 8.22426 11.5967C8.77209 12.0157 9.41659 12.2412 10.0933 12.4024C10.7701 12.5957 11.4468 12.7568 12.188 12.8857C12.6391 13.0146 13.1547 13.1435 13.5414 13.3691C14.3471 13.8525 14.4115 14.9159 13.6703 15.496C13.3159 15.8182 12.8647 15.9794 12.3491 16.0438C11.8013 16.1405 11.2212 16.1405 10.6089 16.0116C9.96442 15.8182 9.57772 15.3671 9.25547 14.8193C9.12657 14.4648 8.93322 14.1748 8.70764 13.8525C8.44984 13.4336 8.03091 13.3691 7.57975 13.4336C7.1286 13.5302 6.80635 13.7881 6.70967 14.2392C6.67744 14.5937 6.70967 14.9804 6.83857 15.2704C7.19305 16.2372 7.86978 16.8495 8.73986 17.3006C9.9322 17.9451 10.9634 18.0096 12.0268 18.0096Z" fill="#323544"/>
</svg>
