<svg width="24" height="24" viewBox="0 0 24 24" fill="none" xmlns="http://www.w3.org/2000/svg">
<path d="M15.6642 11.8025C15.6283 11.8433 15.5918 11.8845 15.5769 11.9425C15.6033 11.9525 15.6297 11.962 15.6561 11.9714C15.7142 11.9923 15.7718 12.013 15.8275 12.0381C16.1649 12.1903 16.364 12.4527 16.3881 12.8207C16.4193 13.2961 16.4213 13.7741 16.3894 14.2492C16.3523 14.7981 15.8456 15.2186 15.2771 15.2023C14.7258 15.1865 14.2503 14.7373 14.2295 14.1968C14.2211 13.9789 14.2227 13.7607 14.2242 13.5426C14.225 13.4292 14.2258 13.3158 14.2252 13.2024C14.2243 13.023 14.2226 13.0206 14.0412 13.0205C13.7047 13.0202 13.3681 13.0208 13.0316 13.0213C12.346 13.0225 11.6604 13.0236 10.9749 13.0179C10.3086 13.0124 9.9091 13.3791 9.87184 14.1127C9.85747 14.3979 9.7967 14.6578 9.60408 14.8765C9.30603 15.2148 8.93089 15.3273 8.50022 15.2256C8.08468 15.1275 7.84991 14.8342 7.72398 14.4398C7.63622 14.1649 7.68191 13.8871 7.7327 13.6194C7.98903 12.2664 8.7631 11.3586 10.0906 10.949C10.3749 10.8613 10.671 10.8287 10.9696 10.829C11.6534 10.8297 12.3371 10.8299 13.0208 10.8284C13.1023 10.8282 13.1838 10.822 13.2653 10.8158C13.2801 10.8147 13.295 10.8136 13.3098 10.8125C13.8367 10.774 14.1843 10.4288 14.225 9.79877C14.2269 9.76873 14.2264 9.73853 14.226 9.70829C14.2257 9.69013 14.2254 9.67195 14.2257 9.65379C14.2341 9.06258 14.6792 8.60693 15.2701 8.58481C15.8605 8.5627 16.3483 8.98046 16.3899 9.57349C16.4469 10.3861 16.1912 11.1077 15.7051 11.7537C15.6924 11.7706 15.6784 11.7865 15.6642 11.8025Z" fill="#323544"/>
<path d="M9.35923 10.827C9.29911 10.8272 9.23642 10.8273 9.17005 10.8273C9.11321 10.8257 9.0528 10.8261 8.98992 10.8266C8.83882 10.8278 8.67341 10.829 8.50866 10.8013C8.10694 10.7334 7.85159 10.5091 7.74345 10.114C7.62575 9.68428 7.67061 9.29156 8.00696 8.97042C8.34184 8.65081 8.73784 8.55412 9.17054 8.72358C9.59257 8.88886 9.83361 9.21656 9.86264 9.66984C9.87708 9.89573 9.87434 10.1227 9.8716 10.3496C9.87018 10.4679 9.86875 10.5861 9.86975 10.7043C9.87045 10.7914 9.83752 10.8297 9.74863 10.8283C9.62347 10.8262 9.49823 10.8266 9.35923 10.827Z" fill="#323544"/>
<path d="M18.9492 3L11.9946 3.00014C11.5324 3.00014 11.0701 3.00011 10.6079 3.00009C8.75889 2.99999 6.90983 2.99989 5.06099 3.0014C4.89536 3.00153 4.7291 3.01291 4.56424 3.03049C3.85499 3.10598 3.37652 3.47763 3.15787 4.15835C3.07575 4.41384 3.07303 4.68537 3.07282 4.9523C3.07075 8.97844 3.07017 13.0046 3.06959 17.0307C3.06951 17.6059 3.06942 18.1811 3.06934 18.7562C3.06934 18.9634 3.0768 19.1693 3.10017 19.3764C3.1652 19.9506 3.46841 20.375 3.91492 20.7153C3.96592 20.7541 4.02319 20.778 4.08111 20.8022C4.09291 20.8071 4.10474 20.8121 4.11655 20.8171C4.46727 20.9674 4.84248 20.9942 5.21169 20.9949C8.69001 21.0004 12.1683 21.0001 15.6466 20.9999C16.7078 20.9998 17.7691 20.9997 18.8303 20.9998C18.9306 20.9998 19.0297 20.9873 19.1288 20.9748C19.2279 20.9624 19.327 20.9499 19.4275 20.9498C19.5081 20.9498 19.59 20.9243 19.6691 20.8997C19.6757 20.8977 19.6822 20.8956 19.6888 20.8936C20.1599 20.7481 20.4702 20.4171 20.6969 19.9989C20.9013 19.6218 20.9233 19.2034 20.9242 18.7894C20.93 15.9261 20.9299 13.0627 20.9297 10.1992L20.9297 9.91842C20.9296 8.29479 20.9269 6.67116 20.9232 5.04768C20.9227 4.80593 20.9085 4.56419 20.8586 4.32698C20.7331 3.72886 20.4126 3.29484 19.8074 3.11037C19.5282 3.02526 19.2401 3 18.9492 3ZM12.0374 14.5558C11.9945 14.8249 11.9553 15.0713 11.8565 15.3004C11.3339 16.5133 10.4432 17.2523 9.10803 17.3994C7.52982 17.5733 6.0721 16.5992 5.63382 15.0864C5.47496 14.5381 5.49087 13.9792 5.54849 13.4212C5.60996 12.825 5.78563 12.2596 6.05989 11.7262C6.09917 11.6499 6.0984 11.5923 6.04928 11.5185C5.62817 10.8851 5.46477 10.1854 5.52408 9.43019C5.55582 9.02651 5.65384 8.64042 5.83684 8.27874C6.37328 7.21932 7.55103 6.32023 9.1284 6.46953C10.5154 6.6007 11.8 7.79714 12.0005 9.14267C12.0072 9.18711 12.0177 9.23099 12.0304 9.28419C12.037 9.31185 12.0442 9.34203 12.0518 9.37612C12.0628 9.31633 12.0728 9.26001 12.0824 9.20606C12.1017 9.09718 12.1193 8.99794 12.1401 8.89932C12.3984 7.67693 13.595 6.39781 15.291 6.38198C17.0101 6.36607 18.2832 7.71432 18.5234 8.96651C18.6249 9.4957 18.6072 10.0244 18.5235 10.5529C18.4406 11.0787 18.2839 11.5901 18.058 12.0721C18.0081 12.1787 18.0132 12.2556 18.0772 12.3546C18.4475 12.9284 18.6108 13.5583 18.5899 14.2423C18.5461 15.6695 17.5366 16.9494 16.1479 17.2841C14.2091 17.7514 12.7228 16.5918 12.2227 15.1889C12.1467 14.9765 12.108 14.7553 12.0643 14.5063C12.0611 14.4877 12.0578 14.4689 12.0545 14.45C12.0486 14.4856 12.043 14.5209 12.0374 14.5558Z" fill="#323544"/>
</svg>
