<svg width="24" height="24" viewBox="0 0 24 24" fill="none" xmlns="http://www.w3.org/2000/svg">
<path d="M5.73882 10.594H4.55985L3.86892 12.2396L3.17799 10.594H1.99902C2.42729 11.614 2.85539 12.6341 3.28383 13.654L2.80924 14.7843H3.9882C4.57777 13.3801 5.15305 11.9891 5.73879 10.594L5.73882 10.594ZM20.7302 9.22411H21.999L20.8517 11.9965H19.5829L20.7302 9.22411ZM19.8948 12.2638C20.2898 12.2638 20.6101 12.5841 20.6101 12.9792C20.6101 13.3743 20.2898 13.6945 19.8948 13.6945C19.4997 13.6945 19.1794 13.3743 19.1794 12.9792C19.1794 12.5841 19.4997 12.2638 19.8948 12.2638ZM17.4 10.5108C18.2885 10.5108 19.0086 11.231 19.0086 12.1194C19.0086 13.0078 18.2884 13.728 17.4 13.728C16.5116 13.728 15.7914 13.0078 15.7914 12.1194C15.7914 11.231 16.5116 10.5108 17.4 10.5108ZM17.4 11.4913C17.0531 11.4913 16.7719 11.7725 16.7719 12.1194C16.7719 12.4663 17.0531 12.7476 17.4 12.7476C17.7469 12.7476 18.0281 12.4663 18.0281 12.1194C18.0281 11.7725 17.7469 11.4913 17.4 11.4913ZM13.9466 10.5108C14.835 10.5108 15.5552 11.231 15.5552 12.1194C15.5552 13.0078 14.835 13.728 13.9466 13.728C13.0581 13.728 12.338 13.0078 12.338 12.1194C12.338 11.231 13.0582 10.5108 13.9466 10.5108ZM13.9466 11.4913C13.5997 11.4913 13.3184 11.7725 13.3184 12.1194C13.3184 12.4663 13.5997 12.7476 13.9466 12.7476C14.2935 12.7476 14.5747 12.4663 14.5747 12.1194C14.5747 11.7725 14.2935 11.4913 13.9466 11.4913ZM9.19747 9.21536H10.2612V10.8691C10.2612 10.8691 10.4473 10.5108 11.0621 10.5108C11.6768 10.5108 12.0711 10.7813 12.079 11.8888V13.6945H11.0153V11.8888C11.0153 11.6806 10.8465 11.5118 10.6382 11.5118C10.4252 11.5118 10.256 11.6869 10.2613 11.8995L10.2612 13.6945H9.19744V9.21533L9.19747 9.21536ZM7.74903 10.594H8.81277V13.6945H7.74903V13.4023C7.51081 13.6067 7.21394 13.7281 6.89202 13.7281C6.10754 13.7281 5.4716 13.0079 5.4716 12.1195C5.4716 11.231 6.10754 10.5108 6.89202 10.5108C7.21394 10.5108 7.51084 10.6322 7.74903 10.8367V10.5941V10.594ZM7.14987 11.4913C6.80297 11.4913 6.52175 11.7725 6.52175 12.1194C6.52175 12.4663 6.80297 12.7476 7.14987 12.7476C7.49677 12.7476 7.778 12.4663 7.778 12.1194C7.778 11.7725 7.49677 11.4913 7.14987 11.4913Z" fill="#323544"/>
</svg>
