<svg width="24" height="24" viewBox="0 0 24 24" fill="none" xmlns="http://www.w3.org/2000/svg">
<path fill-rule="evenodd" clip-rule="evenodd" d="M8.22929 2.57514C8.13262 2.17237 7.72775 1.92422 7.32497 2.02088C6.92219 2.11755 6.67404 2.52243 6.77071 2.9252L7.08601 4.23894C7.31796 5.20543 7.15673 6.22448 6.63775 7.07216L6.03377 8.05866C4.54263 10.4942 4.29586 13.4929 5.36877 16.1394L7.55495 21.5319C7.71057 21.9158 8.14791 22.1008 8.53178 21.9452C8.91565 21.7896 9.10068 21.3523 8.94505 20.9684L6.75888 15.5758C6.51975 14.986 6.35929 14.3751 6.27629 13.7579C7.84454 13.8977 9.10401 14.3628 9.99624 14.8143C10.4979 15.0682 10.8816 15.3168 11.1361 15.4986C11.1776 15.5282 11.2155 15.556 11.25 15.5818V21.2502C11.25 21.6644 11.5858 22.0002 12 22.0002C12.4142 22.0002 12.75 21.6644 12.75 21.2502V15.5811C12.7842 15.5555 12.8218 15.528 12.8629 15.4986C13.1174 15.3168 13.5011 15.0682 14.0028 14.8143C14.8952 14.3627 16.155 13.8975 17.7237 13.7578C17.6407 14.3751 17.4803 14.986 17.2411 15.5758L15.0549 20.9684C14.8993 21.3523 15.0844 21.7896 15.4682 21.9452C15.8521 22.1008 16.2894 21.9158 16.4451 21.5319L18.6312 16.1394C19.7041 13.4929 19.4574 10.4942 17.9662 8.05866L17.3623 7.07216C16.8433 6.22448 16.682 5.20543 16.914 4.23894L17.2293 2.9252C17.326 2.52243 17.0778 2.11755 16.675 2.02088C16.2723 1.92422 15.8674 2.17237 15.7707 2.57514L15.4554 3.88888C15.1307 5.24197 15.3564 6.66864 16.083 7.85539L16.1122 7.90317C15.8963 8.01556 15.6215 8.14764 15.2991 8.27999C14.4419 8.63183 13.2767 8.9738 12 8.9738C10.7233 8.9738 9.55806 8.63183 8.70094 8.27999C8.37854 8.14764 8.10374 8.01556 7.88777 7.90317L7.91702 7.85539C8.64361 6.66864 8.86933 5.24197 8.54459 3.88888L8.22929 2.57514ZM10.6735 13.4759C9.61047 12.938 8.10322 12.3875 6.22673 12.2489C6.29888 11.1887 6.59613 10.1446 7.11242 9.19017C7.37569 9.33016 7.72067 9.49905 8.13132 9.66762C9.10127 10.0658 10.4659 10.4738 12 10.4738C13.5341 10.4738 14.8987 10.0658 15.8687 9.66762C16.2793 9.49905 16.6243 9.33016 16.8876 9.19017C17.4039 10.1446 17.7011 11.1887 17.7733 12.2488C15.8963 12.3873 14.3887 12.9379 13.3255 13.4759C12.7527 13.7658 12.3071 14.0528 11.9995 14.272C11.6919 14.0528 11.2463 13.7658 10.6735 13.4759Z" fill="#323544"/>
<path d="M3.28033 3.19347C2.98744 2.90058 2.51256 2.90058 2.21967 3.19347C1.92678 3.48637 1.92678 3.96124 2.21967 4.25413L3.18934 5.2238L2.21967 6.19347C1.92678 6.48637 1.92678 6.96124 2.21967 7.25413C2.51256 7.54703 2.98744 7.54703 3.28033 7.25413L4.78033 5.75413C5.07322 5.46124 5.07322 4.98637 4.78033 4.69347L3.28033 3.19347Z" fill="#323544"/>
<path d="M21.7803 4.25413C22.0732 3.96124 22.0732 3.48637 21.7803 3.19347C21.4874 2.90058 21.0126 2.90058 20.7197 3.19347L19.2197 4.69347C18.9268 4.98637 18.9268 5.46124 19.2197 5.75413L20.7197 7.25413C21.0126 7.54703 21.4874 7.54703 21.7803 7.25413C22.0732 6.96124 22.0732 6.48637 21.7803 6.19347L20.8107 5.2238L21.7803 4.25413Z" fill="#323544"/>
<path d="M12.75 6.72266C12.75 6.30844 12.4142 5.97266 12 5.97266C11.5858 5.97266 11.25 6.30844 11.25 6.72266C11.25 7.13687 11.5858 7.47276 12 7.47276C12.4142 7.47276 12.75 7.13687 12.75 6.72266Z" fill="#323544"/>
</svg>
