<svg width="64" height="64" viewBox="0 0 64 64" fill="none" xmlns="http://www.w3.org/2000/svg">
<path fill-rule="evenodd" clip-rule="evenodd" d="M13.1 6.25C12.1426 6.25 11.35 7.04264 11.35 8V56C11.35 56.9574 12.1426 57.75 13.1 57.75H50.9C51.8573 57.75 52.65 56.9574 52.65 56V8C52.65 7.04264 51.8573 6.25 50.9 6.25H13.1ZM6.84998 8C6.84998 4.55736 9.65733 1.75 13.1 1.75H50.9C54.3426 1.75 57.15 4.55736 57.15 8V56C57.15 59.4426 54.3426 62.25 50.9 62.25H13.1C9.65733 62.25 6.84998 59.4426 6.84998 56V8ZM20.25 14.15V21.15H43.75V14.15H20.25ZM15.75 13.9C15.75 11.5574 17.6574 9.65002 20 9.65002H44C46.3426 9.65002 48.25 11.5574 48.25 13.9V21.4C48.25 22.5113 47.8697 23.6123 47.041 24.441C46.2122 25.2698 45.1113 25.65 44 25.65H20C17.6574 25.65 15.75 23.7427 15.75 21.4V13.9ZM20 29.75C18.7574 29.75 17.75 30.7574 17.75 32C17.75 33.2426 18.7574 34.25 20 34.25H21C22.2426 34.25 23.25 33.2426 23.25 32C23.25 30.7574 22.2426 29.75 21 29.75H20ZM28.75 32C28.75 30.7574 29.7574 29.75 31 29.75H32C33.2426 29.75 34.25 30.7574 34.25 32C34.25 33.2426 33.2426 34.25 32 34.25H31C29.7574 34.25 28.75 33.2426 28.75 32ZM42 29.75C40.7574 29.75 39.75 30.7574 39.75 32C39.75 33.2426 40.7574 34.25 42 34.25H43C44.2426 34.25 45.25 33.2426 45.25 32C45.25 30.7574 44.2426 29.75 43 29.75H42ZM17.75 42C17.75 40.7574 18.7574 39.75 20 39.75H21C22.2426 39.75 23.25 40.7574 23.25 42C23.25 43.2426 22.2426 44.25 21 44.25H20C18.7574 44.25 17.75 43.2426 17.75 42ZM31 39.75C29.7574 39.75 28.75 40.7574 28.75 42C28.75 43.2426 29.7574 44.25 31 44.25H32C33.2426 44.25 34.25 43.2426 34.25 42C34.25 40.7574 33.2426 39.75 32 39.75H31ZM39.75 42C39.75 40.7574 40.7574 39.75 42 39.75H43C44.2426 39.75 45.25 40.7574 45.25 42C45.25 43.2426 44.2426 44.25 43 44.25H42C40.7574 44.25 39.75 43.2426 39.75 42ZM20 49.75C18.7574 49.75 17.75 50.7574 17.75 52C17.75 53.2426 18.7574 54.25 20 54.25H21C22.2426 54.25 23.25 53.2426 23.25 52C23.25 50.7574 22.2426 49.75 21 49.75H20ZM28.75 52C28.75 50.7574 29.7574 49.75 31 49.75H32C33.2426 49.75 34.25 50.7574 34.25 52C34.25 53.2426 33.2426 54.25 32 54.25H31C29.7574 54.25 28.75 53.2426 28.75 52ZM42 49.75C40.7574 49.75 39.75 50.7574 39.75 52C39.75 53.2426 40.7574 54.25 42 54.25H43C44.2426 54.25 45.25 53.2426 45.25 52C45.25 50.7574 44.2426 49.75 43 49.75H42Z" fill="black"/>
</svg>
