<?xml version="1.0" encoding="utf-8"?>
<!-- Generator: Adobe Illustrator 22.0.0, SVG Export Plug-In . SVG Version: 6.00 Build 0)  -->
<svg version="1.1" id="lni_lni-calculator" xmlns="http://www.w3.org/2000/svg" xmlns:xlink="http://www.w3.org/1999/xlink" x="0px"
	 y="0px" viewBox="0 0 64 64" style="enable-background:new 0 0 64 64;" xml:space="preserve">
<g>
	<path d="M25.3,31.3h-1v-1c0-1.2-1-2.3-2.3-2.3s-2.3,1-2.3,2.3v1h-1c-1.2,0-2.3,1-2.3,2.3s1,2.3,2.3,2.3h1v1c0,1.2,1,2.3,2.3,2.3
		s2.3-1,2.3-2.3v-1h1c1.2,0,2.3-1,2.3-2.3S26.6,31.3,25.3,31.3z"/>
	<path d="M45,33.6l0.9-0.9c0.9-0.9,0.9-2.3,0-3.2c-0.9-0.9-2.3-0.9-3.2,0l-0.9,0.9L41,29.5c-0.9-0.9-2.3-0.9-3.2,0
		c-0.9,0.9-0.9,2.3,0,3.2l0.9,0.9l-0.9,0.9c-0.9,0.9-0.9,2.3,0,3.2c0.4,0.4,1,0.7,1.6,0.7c0.6,0,1.1-0.2,1.6-0.7l0.9-0.9l0.9,0.9
		c0.4,0.4,1,0.7,1.6,0.7c0.6,0,1.2-0.2,1.6-0.7c0.9-0.9,0.9-2.3,0-3.2L45,33.6z"/>
	<path d="M24.5,48.8h-4.9c-1.2,0-2.3,1-2.3,2.3s1,2.3,2.3,2.3h4.9c1.2,0,2.3-1,2.3-2.3S25.7,48.8,24.5,48.8z"/>
	<path d="M42.7,47l-4.9,4.9c-0.9,0.9-0.9,2.3,0,3.2c0.4,0.4,1,0.7,1.6,0.7c0.6,0,1.1-0.2,1.6-0.7l4.9-4.9c0.9-0.9,0.9-2.3,0-3.2
		C45,46.2,43.6,46.2,42.7,47z"/>
	<path d="M48.1,1.8H15.9c-3.4,0-6.1,2.7-6.1,6.1v48.3c0,3.4,2.7,6.1,6.1,6.1h32.1c3.4,0,6.1-2.7,6.1-6.1V7.9
		C54.2,4.5,51.4,1.8,48.1,1.8z M15.9,6.3h32.1c0.9,0,1.6,0.7,1.6,1.6v13.9H14.3V7.9C14.3,7,15,6.3,15.9,6.3z M14.3,26.3h15.4v14.2
		H14.3V26.3z M34.3,26.3h15.4v14.2H34.3V26.3z M14.3,56.1V45h15.4v12.8H15.9C15,57.8,14.3,57,14.3,56.1z M48.1,57.8H34.3V45h15.4
		v11.1C49.7,57,49,57.8,48.1,57.8z"/>
	<path d="M18.8,20.3h26.4c1.2,0,2.3-1,2.3-2.3v-6.8c0-1.2-1-2.3-2.3-2.3H18.8c-1.2,0-2.3,1-2.3,2.3V18
		C16.5,19.2,17.5,20.3,18.8,20.3z M21,13.4H43v2.3H21V13.4z"/>
</g>
</svg>
