<?xml version="1.0" encoding="utf-8"?>
<!-- Generator: Adobe Illustrator 25.2.1, SVG Export Plug-In . SVG Version: 6.00 Build 0)  -->
<svg version="1.1" id="lni_lni-coin" xmlns="http://www.w3.org/2000/svg" xmlns:xlink="http://www.w3.org/1999/xlink" x="0px"
	 y="0px" viewBox="0 0 64 64" style="enable-background:new 0 0 64 64;" xml:space="preserve">
<g>
	<path d="M35.8,29.8h-7.1c-2.1,0-3.8-1.6-3.8-3.6c0-2,1.7-3.6,3.8-3.6H39c1.2,0,2.2-1,2.2-2.2s-1-2.2-2.2-2.2h-4.8v-2.4
		c0-1.2-1-2.2-2.2-2.2c-1.2,0-2.2,1-2.2,2.2v2.4h-1.1c-4.6,0-8.3,3.6-8.3,8.1s3.7,8.1,8.3,8.1h7.1c2.1,0,3.8,1.6,3.8,3.6
		c0,2-1.7,3.6-3.8,3.6H25c-1.2,0-2.2,1-2.2,2.2s1,2.2,2.2,2.2h4.8v2.4c0,1.2,1,2.2,2.2,2.2c1.2,0,2.2-1,2.2-2.2v-2.4h1.6
		c4.6,0,8.3-3.6,8.3-8.1C44.2,33.4,40.4,29.8,35.8,29.8z"/>
	<path d="M32,1.8C15.3,1.8,1.8,15.3,1.8,32S15.3,62.2,32,62.2S62.2,48.7,62.2,32S48.7,1.8,32,1.8z M32,57.8
		C17.8,57.8,6.2,46.2,6.2,32C6.2,17.8,17.8,6.2,32,6.2c14.2,0,25.8,11.6,25.8,25.8C57.8,46.2,46.2,57.8,32,57.8z"/>
</g>
</svg>
