<?xml version="1.0" encoding="utf-8"?>
<!-- Generator: Adobe Illustrator 25.2.1, SVG Export Plug-In . SVG Version: 6.00 Build 0)  -->
<svg version="1.1" id="lni_lni-credit-cards" xmlns="http://www.w3.org/2000/svg" xmlns:xlink="http://www.w3.org/1999/xlink"
	 x="0px" y="0px" viewBox="0 0 64 64" style="enable-background:new 0 0 64 64;" xml:space="preserve">
<path d="M59.2,18.1v-5.7c0-1.8-0.8-3.4-2.2-4.5c-1.4-1.1-3.2-1.5-4.9-1.1L8.6,17.2H8c-3.4,0-6.2,2.8-6.2,6.2v27.6
	c0,3.4,2.8,6.2,6.2,6.2h48c3.4,0,6.2-2.8,6.2-6.2V23.5C62.2,21.2,61,19.2,59.2,18.1z M53.1,11.2c0.5-0.1,0.9,0.1,1.1,0.3
	s0.5,0.5,0.5,1v4.8H27.9L53.1,11.2z M8,21.7h48c1,0,1.8,0.8,1.8,1.8v3.9H6.2v-3.9C6.2,22.5,7,21.7,8,21.7z M57.8,31.9v4.5H6.2v-4.5
	H57.8z M56,52.9H8c-1,0-1.8-0.8-1.8-1.8V40.9h51.5v10.2C57.8,52.1,57,52.9,56,52.9z"/>
</svg>
