<?xml version="1.0" encoding="utf-8"?>
<!-- Generator: Adobe Illustrator 25.2.1, SVG Export Plug-In . SVG Version: 6.00 Build 0)  -->
<svg version="1.1" id="lni_lni-diamond" xmlns="http://www.w3.org/2000/svg" xmlns:xlink="http://www.w3.org/1999/xlink" x="0px"
	 y="0px" viewBox="0 0 64 64" style="enable-background:new 0 0 64 64;" xml:space="preserve">
<g>
	<path d="M32,62.2L32,62.2c-1.3,0-2.5-0.6-3.3-1.7L5.1,28.4c-0.9-1.2-1.1-2.8-0.5-4.2l8.7-19.9c0.7-1.5,2.2-2.5,3.8-2.5h29.6
		c1.6,0,3.1,1,3.8,2.5l8.7,19.9c0.6,1.4,0.4,3-0.5,4.2L35.3,60.5C34.5,61.6,33.3,62.2,32,62.2z M8.8,25.9L32,57.5l23.2-31.6
		L46.6,6.2H17.4L8.8,25.9z"/>
</g>
</svg>
