<?xml version="1.0" encoding="utf-8"?>
<!-- Generator: Adobe Illustrator 25.2.1, SVG Export Plug-In . SVG Version: 6.00 Build 0)  -->
<svg version="1.1" id="lni_lni-diamond-alt" xmlns="http://www.w3.org/2000/svg" xmlns:xlink="http://www.w3.org/1999/xlink"
	 x="0px" y="0px" viewBox="0 0 64 64" style="enable-background:new 0 0 64 64;" xml:space="preserve">
<path d="M61.9,24.2L53.2,4.3c-0.4-1-1.2-1.7-2.1-2.1c-0.2-0.1-0.3-0.2-0.5-0.3c-0.3-0.1-0.6-0.1-1-0.1c-0.1,0-0.2,0-0.2,0H14.7
	c-1.6,0-3.1,1-3.8,2.5L2.1,24.2c-0.6,1.4-0.4,3,0.5,4.2l26.1,32.2c0.7,0.9,1.7,1.5,2.8,1.6c0.2,0,0.3,0.1,0.5,0.1c0,0,0,0,0,0
	c1.3,0,2.5-0.6,3.3-1.6l26.1-32.1l0.1-0.1C62.3,27.2,62.5,25.6,61.9,24.2z M57.2,24.7H45.3l5.1-15.4L57.2,24.7z M41.8,20.9L35,6.2
	h11.7L41.8,20.9z M32,10.5l6.6,14.2H25.4L32,10.5z M22,21.2L16.4,6.2H29L22,21.2z M39.2,29.2L32,52.4l-7.1-23.2H39.2z M27,51.4
	L9,29.2h11.2L27,51.4z M43.9,29.2H55L37,51.3L43.9,29.2z M13.1,10.3l5.5,14.3H6.8L13.1,10.3z"/>
</svg>
