<?xml version="1.0" encoding="utf-8"?>
<!-- Generator: Adobe Illustrator 25.2.1, SVG Export Plug-In . SVG Version: 6.00 Build 0)  -->
<svg version="1.1" id="lni_lni-dollar" xmlns="http://www.w3.org/2000/svg" xmlns:xlink="http://www.w3.org/1999/xlink" x="0px"
	 y="0px" viewBox="0 0 64 64" style="enable-background:new 0 0 64 64;" xml:space="preserve">
<path d="M39.5,29.8h-15c-4.9,0-9-3.8-9-8.5s4-8.5,9-8.5h22.1c1.2,0,2.2-1,2.2-2.2s-1-2.2-2.2-2.2H36.2V4c0-1.2-1-2.2-2.2-2.2
	c-1.2,0-2.2,1-2.2,2.2v4.2h-7.2c-7.4,0-13.5,5.8-13.5,13s6,13,13.5,13h15c4.9,0,9,3.8,9,8.5s-4,8.5-9,8.5H14.2c-1.2,0-2.2,1-2.2,2.2
	s1,2.2,2.2,2.2h17.5V60c0,1.2,1,2.2,2.2,2.2c1.2,0,2.2-1,2.2-2.2v-4.2h3.2c7.4,0,13.5-5.8,13.5-13S46.9,29.8,39.5,29.8z"/>
</svg>
