<?xml version="1.0" encoding="utf-8"?>
<!-- Generator: Adobe Illustrator 25.2.1, SVG Export Plug-In . SVG Version: 6.00 Build 0)  -->
<svg version="1.1" id="lni_lni-euro" xmlns="http://www.w3.org/2000/svg" xmlns:xlink="http://www.w3.org/1999/xlink" x="0px"
	 y="0px" viewBox="0 0 64 64" style="enable-background:new 0 0 64 64;" xml:space="preserve">
<path d="M49.2,57.8c-10.5,0-19.7-6.6-23.7-15.9h14.8c1.2,0,2.2-1,2.2-2.2s-1-2.2-2.2-2.2H24c-0.4-1.7-0.6-3.5-0.6-5.4
	c0-1,0.1-1.9,0.2-2.8h16.7c1.2,0,2.2-1,2.2-2.2s-1-2.2-2.2-2.2H24.5C27.8,14.1,37.8,6.2,49.2,6.2c1.2,0,2.2-1,2.2-2.2
	s-1-2.2-2.2-2.2c-13.9,0-25.9,9.9-29.3,22.9h-5.1c-1.2,0-2.2,1-2.2,2.2s1,2.2,2.2,2.2h4.3C19,30.1,18.9,31,18.9,32
	c0,1.8,0.2,3.6,0.5,5.4h-4.6c-1.2,0-2.2,1-2.2,2.2s1,2.2,2.2,2.2h5.8c4.2,11.7,15.6,20.4,28.5,20.4c1.2,0,2.2-1,2.2-2.2
	S50.4,57.8,49.2,57.8z"/>
</svg>
