<?xml version="1.0" encoding="utf-8"?>
<!-- Generator: Adobe Illustrator 25.2.1, SVG Export Plug-In . SVG Version: 6.00 Build 0)  -->
<svg version="1.1" id="lni_lni-money-protection" xmlns="http://www.w3.org/2000/svg" xmlns:xlink="http://www.w3.org/1999/xlink"
	 x="0px" y="0px" viewBox="0 0 64 64" style="enable-background:new 0 0 64 64;" xml:space="preserve">
<g>
	<path d="M53.6,7.5L33.3,1.9c-0.8-0.2-1.7-0.2-2.5,0L10.4,7.5C8.3,8.1,6.8,10,6.8,12.2V27c0,15.5,9.2,29.2,23.4,34.9
		c0.6,0.2,1.2,0.4,1.8,0.4c0.6,0,1.2-0.1,1.8-0.4c14.2-5.7,23.4-19.5,23.4-35V12.2C57.2,10,55.7,8.1,53.6,7.5z M52.7,26.9
		c0,13.4-8.3,25.8-20.5,30.8c-0.1,0-0.2,0-0.3,0C19.4,52.7,11.3,40.6,11.3,27V12.2c0-0.1,0.1-0.3,0.2-0.3l20.4-5.6c0,0,0.1,0,0.1,0
		c0,0,0,0,0.1,0l20.4,5.6c0.1,0,0.2,0.2,0.2,0.3V26.9z"/>
	<path d="M35.5,27.2h-7c-1.6,0-2.8-1.3-2.8-2.9s1.3-2.9,2.8-2.9h11.2c1.2,0,2.2-1,2.2-2.2s-1-2.2-2.2-2.2h-5.4v-1.5
		c0-1.2-1-2.2-2.3-2.2s-2.2,1-2.2,2.2v1.5h-1.3c-4,0-7.3,3.3-7.3,7.4s3.3,7.4,7.3,7.4h7c1.6,0,2.8,1.3,2.8,2.9
		c0,1.6-1.3,2.9-2.8,2.9H24.4c-1.2,0-2.2,1-2.2,2.2s1,2.2,2.2,2.2h5.4v1.5c0,1.2,1,2.2,2.2,2.2s2.3-1,2.3-2.2V42h1.3
		c4,0,7.3-3.3,7.3-7.4C42.9,30.5,39.6,27.2,35.5,27.2z"/>
</g>
</svg>
