<?xml version="1.0" encoding="utf-8"?>
<!-- Generator: Adobe Illustrator 25.2.1, SVG Export Plug-In . SVG Version: 6.00 Build 0)  -->
<svg version="1.1" id="lni_lni-money-location" xmlns="http://www.w3.org/2000/svg" xmlns:xlink="http://www.w3.org/1999/xlink"
	 x="0px" y="0px" viewBox="0 0 64 64" style="enable-background:new 0 0 64 64;" xml:space="preserve">
<g>
	<path d="M32,1.4C17.9,1.4,6.5,12.3,6.5,25.6c0,10.1,13.6,26,21.7,34.6c1,1.1,2.4,1.7,3.8,1.7c0,0,0,0,0,0c1.5,0,2.8-0.6,3.8-1.7
		c8.1-8.6,21.7-24.5,21.7-34.6C57.5,12.3,46.1,1.4,32,1.4z M32.5,57.1c-0.2,0.2-0.4,0.3-0.5,0.3c0,0,0,0,0,0c-0.1,0-0.4,0-0.5-0.3
		C21.6,46.6,11,32.8,11,25.6c0-10.8,9.4-19.6,21-19.6s21,8.8,21,19.6C53,32.8,42.4,46.6,32.5,57.1z"/>
	<path d="M34.6,25h-5.1c-0.8,0-1.5-0.7-1.5-1.5c0-0.8,0.7-1.5,1.5-1.5h8.2c1.2,0,2.2-1,2.2-2.2s-1-2.2-2.2-2.2h-3.3V17
		c0-1.2-1-2.2-2.2-2.2c-1.2,0-2.2,1-2.2,2.2v0.5h-0.3c-3.3,0-6,2.7-6,6s2.7,6,6,6h5.1c0.8,0,1.5,0.7,1.5,1.5c0,0.8-0.7,1.5-1.5,1.5
		h-8.2c-1.2,0-2.2,1-2.2,2.2s1,2.2,2.2,2.2h3.3v0.5c0,1.2,1,2.2,2.2,2.2c1.2,0,2.2-1,2.2-2.2v-0.5h0.3c3.3,0,6-2.7,6-6
		S37.9,25,34.6,25z"/>
</g>
</svg>
