<?xml version="1.0" encoding="utf-8"?>
<!-- Generator: Adobe Illustrator 25.2.1, SVG Export Plug-In . SVG Version: 6.00 Build 0)  -->
<svg version="1.1" id="lni_lni-pound" xmlns="http://www.w3.org/2000/svg" xmlns:xlink="http://www.w3.org/1999/xlink" x="0px"
	 y="0px" viewBox="0 0 64 64" style="enable-background:new 0 0 64 64;" xml:space="preserve">
<path d="M58.7,57.8H22.5c3.3-3.1,5.4-7.5,5.4-12.4v-8.8h25.8c1.2,0,2.2-1,2.2-2.2s-1-2.2-2.2-2.2H27.9V20.9
	c0-8.1,6.5-14.6,14.5-14.6c3.7,0,7.3,1.4,10,4c0.9,0.9,2.3,0.8,3.2-0.1c0.9-0.9,0.8-2.3-0.1-3.2C52,3.6,47.3,1.8,42.4,1.8
	c-10.5,0-19,8.6-19,19.1v11.2H7.8c-1.2,0-2.2,1-2.2,2.2s1,2.2,2.2,2.2h15.6v8.8c0,6.8-5.5,12.4-12.3,12.4H5.3C4,57.8,3,58.8,3,60
	s1,2.2,2.2,2.2h53.5c1.2,0,2.2-1,2.2-2.2S60,57.8,58.7,57.8z"/>
</svg>
