<?xml version="1.0" encoding="utf-8"?>
<!-- Generator: Adobe Illustrator 25.2.1, SVG Export Plug-In . SVG Version: 6.00 Build 0)  -->
<svg version="1.1" id="lni_lni-rupee" xmlns="http://www.w3.org/2000/svg" xmlns:xlink="http://www.w3.org/1999/xlink" x="0px"
	 y="0px" viewBox="0 0 64 64" style="enable-background:new 0 0 64 64;" xml:space="preserve">
<path d="M52.4,17H39.2c-0.4-4-1.9-7.9-4.5-10.8h17.7c1.2,0,2.2-1,2.2-2.2s-1-2.2-2.2-2.2H11.6c-1.2,0-2.2,1-2.2,2.2s1,2.2,2.2,2.2
	h12.7c6.1,0,9.6,5.1,10.3,10.8H11.6c-1.2,0-2.2,1-2.2,2.2s1,2.2,2.2,2.2h22.8c-2,5.5-10.9,9.7-17,9.7c-0.9,0-1.7,0.5-2,1.3
	c-0.4,0.8-0.2,1.7,0.3,2.4l22.2,26.5c0.4,0.5,1.1,0.8,1.7,0.8c0.5,0,1-0.2,1.4-0.5c1-0.8,1.1-2.2,0.3-3.2L21.9,35.2
	c7.4-1.5,15.7-6.6,17.2-13.7h13.3c1.2,0,2.2-1,2.2-2.2S53.6,17,52.4,17z"/>
</svg>
