<?xml version="1.0" encoding="utf-8"?>
<!-- Generator: Adobe Illustrator 25.2.1, SVG Export Plug-In . SVG Version: 6.00 Build 0)  -->
<svg version="1.1" id="lni_lni-wallet" xmlns="http://www.w3.org/2000/svg" xmlns:xlink="http://www.w3.org/1999/xlink" x="0px"
	 y="0px" viewBox="0 0 64 64" style="enable-background:new 0 0 64 64;" xml:space="preserve">
<path d="M55.8,21.3h-2.2v-7.4c0-1.9-0.9-3.8-2.5-4.9c-1.6-1.1-3.6-1.4-5.4-0.8l-37.6,13H7c-3.3,0-6,2.7-6,6v22.3c0,3.3,2.7,6,6,6
	h48.8c3.3,0,6-2.7,6-6V27.3C61.8,24,59.1,21.3,55.8,21.3z M47,12c0.6-0.2,1.3-0.1,1.8,0.3c0.5,0.4,0.8,1,0.8,1.6v7.4H20.3L47,12z
	 M55.8,51.5H7c-1.1,0-2-0.9-2-2V27.3c0-1.1,0.9-2,2-2h48.8c1.1,0,2,0.9,2,2v3.9H46.4c-4.1,0-7.4,3.3-7.4,7.4s3.3,7.4,7.4,7.4h11.4
	v3.6C57.8,50.6,56.9,51.5,55.8,51.5z M57.8,35.2v6.8H46.4c-1.9,0-3.4-1.5-3.4-3.4c0-1.9,1.5-3.4,3.4-3.4H57.8z"/>
</svg>
