<?xml version="1.0" encoding="utf-8"?>
<!-- Generator: Adobe Illustrator 25.2.1, SVG Export Plug-In . SVG Version: 6.00 Build 0)  -->
<svg version="1.1" id="lni_lni-bold" xmlns="http://www.w3.org/2000/svg" xmlns:xlink="http://www.w3.org/1999/xlink" x="0px"
	 y="0px" viewBox="0 0 64 64" style="enable-background:new 0 0 64 64;" xml:space="preserve">
<path d="M42.8,29.3c4.9-1.8,7.8-6.3,7.8-12.3c0-4.6-1.4-8.6-4.9-11.3C42.6,2.4,38.3,1,33.2,1H11.4C9.9,1,8.8,2.1,8.8,3.6v56.7
	c0,1.5,1.1,2.6,2.6,2.6h25c5.4,0,10-1.8,13.5-5.4c3.5-3.5,5.4-7.8,5.4-13.2C55.2,36.8,50.6,30.8,42.8,29.3z M22.3,12.9h8.8
	c4,0,6.8,2.8,6.8,6.3s-2.9,6.5-6.8,6.5h-8.8V12.9z M33.9,50.9H22.3V36.4h11.7c4.6,0,8.1,2.8,8.1,7.1S38.6,50.9,33.9,50.9z"/>
</svg>
