<?xml version="1.0" encoding="utf-8"?>
<!-- Generator: Adobe Illustrator 22.0.0, SVG Export Plug-In . SVG Version: 6.00 Build 0)  -->
<svg version="1.1" id="lni_lni-indent-increase" xmlns="http://www.w3.org/2000/svg" xmlns:xlink="http://www.w3.org/1999/xlink"
	 x="0px" y="0px" viewBox="0 0 64 64" style="enable-background:new 0 0 64 64;" xml:space="preserve">
<g>
	<path d="M8.5,6.3h45.8c1.2,0,2.3-1,2.3-2.3s-1-2.3-2.3-2.3H8.5c-1.2,0-2.3,1-2.3,2.3S7.3,6.3,8.5,6.3z"/>
	<path d="M54.3,57.8H8.5c-1.2,0-2.3,1-2.3,2.3s1,2.3,2.3,2.3h45.8c1.2,0,2.3-1,2.3-2.3S55.6,57.8,54.3,57.8z"/>
	<path d="M56.6,29.5l-10.1-8.6c-0.9-0.8-2.1-0.9-3.1-0.4c-1.1,0.5-1.8,1.6-1.8,2.9v17.3l0,0.2c0.1,1.1,0.8,2.1,1.9,2.5
		c0.4,0.2,0.8,0.2,1.2,0.2c0.7,0,1.3-0.2,1.9-0.7l10-8.6c0.7-0.6,1.1-1.4,1.1-2.4C57.7,30.9,57.3,30,56.6,29.5z M46.1,37.4V26.5
		l6.4,5.4L46.1,37.4z"/>
	<path d="M8.5,20.2h21.8c1.2,0,2.3-1,2.3-2.3s-1-2.3-2.3-2.3H8.5c-1.2,0-2.3,1-2.3,2.3S7.3,20.2,8.5,20.2z"/>
	<path d="M8.5,34.3h21.8c1.2,0,2.3-1,2.3-2.3c0-1.2-1-2.3-2.3-2.3H8.5c-1.2,0-2.3,1-2.3,2.3C6.3,33.3,7.3,34.3,8.5,34.3z"/>
	<path d="M8.5,48.3h21.8c1.2,0,2.3-1,2.3-2.3s-1-2.3-2.3-2.3H8.5c-1.2,0-2.3,1-2.3,2.3S7.3,48.3,8.5,48.3z"/>
</g>
</svg>
