<?xml version="1.0" encoding="utf-8"?>
<!-- Generator: Adobe Illustrator 22.0.0, SVG Export Plug-In . SVG Version: 6.00 Build 0)  -->
<svg version="1.1" id="lni_lni-indent-decrease" xmlns="http://www.w3.org/2000/svg" xmlns:xlink="http://www.w3.org/1999/xlink"
	 x="0px" y="0px" viewBox="0 0 64 64" style="enable-background:new 0 0 64 64;" xml:space="preserve">
<g>
	<path d="M9.7,6.3h45.8c1.2,0,2.3-1,2.3-2.3s-1-2.3-2.3-2.3H9.7c-1.2,0-2.3,1-2.3,2.3S8.4,6.3,9.7,6.3z"/>
	<path d="M55.5,57.8H9.7c-1.2,0-2.3,1-2.3,2.3s1,2.3,2.3,2.3h45.8c1.2,0,2.3-1,2.3-2.3S56.7,57.8,55.5,57.8z"/>
	<path d="M17.4,42.9c0.5,0.4,1.2,0.7,1.9,0.7c0.4,0,0.8-0.1,1.2-0.2c1.1-0.4,1.8-1.4,1.9-2.5l0-17.5c0-1.2-0.7-2.4-1.8-2.9
		c-1-0.5-2.2-0.3-3.1,0.4l-10,8.5c-0.7,0.6-1.2,1.5-1.2,2.4c0,0.9,0.4,1.8,1.1,2.4L17.4,42.9L17.4,42.9z M17.9,26.5v10.9l-6.4-5.5
		L17.9,26.5z"/>
	<path d="M55.5,15.7H33.6c-1.2,0-2.3,1-2.3,2.3s1,2.3,2.3,2.3h21.8c1.2,0,2.3-1,2.3-2.3S56.7,15.7,55.5,15.7z"/>
	<path d="M55.5,29.8H33.6c-1.2,0-2.3,1-2.3,2.3s1,2.2,2.3,2.2h21.8c1.2,0,2.3-1,2.3-2.2S56.7,29.8,55.5,29.8z"/>
	<path d="M55.5,43.8H33.6c-1.2,0-2.3,1-2.3,2.3s1,2.3,2.3,2.3h21.8c1.2,0,2.3-1,2.3-2.3S56.7,43.8,55.5,43.8z"/>
</g>
</svg>
