<?xml version="1.0" encoding="utf-8"?>
<!-- Generator: Adobe Illustrator 22.0.0, SVG Export Plug-In . SVG Version: 6.00 Build 0)  -->
<svg version="1.1" id="lni_lni-line-spacing" xmlns="http://www.w3.org/2000/svg" xmlns:xlink="http://www.w3.org/1999/xlink"
	 x="0px" y="0px" viewBox="0 0 64 64" style="enable-background:new 0 0 64 64;" xml:space="preserve">
<g>
	<path d="M37.2,7.6h22.7c1.2,0,2.3-1,2.3-2.3s-1-2.3-2.3-2.3H37.2c-1.2,0-2.3,1-2.3,2.3S36,7.6,37.2,7.6z"/>
	<path d="M59.9,20.8H37.2c-1.2,0-2.3,1-2.3,2.3s1,2.3,2.3,2.3h22.7c1.2,0,2.3-1,2.3-2.3S61.2,20.8,59.9,20.8z"/>
	<path d="M59.9,38.6H37.2c-1.2,0-2.3,1-2.3,2.3s1,2.3,2.3,2.3h22.7c1.2,0,2.3-1,2.3-2.3S61.2,38.6,59.9,38.6z"/>
	<path d="M59.9,56.4H37.2c-1.2,0-2.3,1-2.3,2.3s1,2.3,2.3,2.3h22.7c1.2,0,2.3-1,2.3-2.3S61.2,56.4,59.9,56.4z"/>
	<path d="M22.8,15.3c0.4,0.4,1,0.7,1.6,0.7c0.6,0,1.2-0.2,1.6-0.7c0.9-0.9,0.9-2.3,0-3.2l-9.4-9.4c-1.3-1.3-3.3-1.3-4.6,0l-9.5,9.4
		c-0.9,0.9-0.9,2.3,0,3.2c0.9,0.9,2.3,0.9,3.2,0L12,9V55l-6.3-6.4c-0.9-0.9-2.3-0.9-3.2,0c-0.9,0.9-0.9,2.3,0,3.2l9.4,9.5
		c0.6,0.6,1.4,1,2.3,1c0,0,0,0,0,0c0.9,0,1.7-0.3,2.3-0.9l9.5-9.5c0.9-0.9,0.9-2.3,0-3.2c-0.9-0.9-2.3-0.9-3.2,0l-6.3,6.3V9
		L22.8,15.3z"/>
</g>
</svg>
