<?xml version="1.0" encoding="utf-8"?>
<!-- Generator: Adobe Illustrator 22.0.0, SVG Export Plug-In . SVG Version: 6.00 Build 0)  -->
<svg version="1.1" id="lni_lni-line-dotted" xmlns="http://www.w3.org/2000/svg" xmlns:xlink="http://www.w3.org/1999/xlink"
	 x="0px" y="0px" viewBox="0 0 64 64" style="enable-background:new 0 0 64 64;" xml:space="preserve">
<g>
	<path d="M8.7,29.8H4c-1.2,0-2.3,1-2.3,2.3c0,1.2,1,2.3,2.3,2.3h4.7c1.2,0,2.3-1,2.3-2.3C10.9,30.8,9.9,29.8,8.7,29.8z"/>
	<path d="M34.3,29.8h-4.7c-1.2,0-2.3,1-2.3,2.3c0,1.2,1,2.3,2.3,2.3h4.7c1.2,0,2.3-1,2.3-2.3C36.6,30.8,35.6,29.8,34.3,29.8z"/>
	<path d="M60,29.8h-4.7c-1.2,0-2.3,1-2.3,2.3c0,1.2,1,2.3,2.3,2.3H60c1.2,0,2.3-1,2.3-2.3C62.3,30.8,61.2,29.8,60,29.8z"/>
</g>
</svg>
