<?xml version="1.0" encoding="utf-8"?>
<!-- Generator: Adobe Illustrator 22.0.0, SVG Export Plug-In . SVG Version: 6.00 Build 0)  -->
<svg version="1.1" id="lni_lni-page-break" xmlns="http://www.w3.org/2000/svg" xmlns:xlink="http://www.w3.org/1999/xlink" x="0px"
	 y="0px" viewBox="0 0 64 64" style="enable-background:new 0 0 64 64;" xml:space="preserve">
<g>
	<path d="M46.8,1.8H17.2c-2.9,0-5.3,2.4-5.3,5.3v14.4c0,2.9,2.4,5.3,5.3,5.3h29.7c2.9,0,5.3-2.4,5.3-5.3V7
		C52.1,4.1,49.7,1.8,46.8,1.8z M47.6,21.4c0,0.4-0.3,0.8-0.8,0.8H17.2c-0.4,0-0.8-0.3-0.8-0.8V7c0-0.4,0.3-0.8,0.8-0.8h29.7
		c0.4,0,0.8,0.3,0.8,0.8V21.4z"/>
	<path d="M46.8,37.4H17.2c-2.9,0-5.3,2.4-5.3,5.3V57c0,2.9,2.4,5.3,5.3,5.3h29.7c2.9,0,5.3-2.4,5.3-5.3V42.6
		C52.1,39.7,49.7,37.4,46.8,37.4z M47.6,57c0,0.4-0.3,0.8-0.8,0.8H17.2c-0.4,0-0.8-0.3-0.8-0.8V42.6c0-0.4,0.3-0.8,0.8-0.8h29.7
		c0.4,0,0.8,0.3,0.8,0.8V57z"/>
	<path d="M21.8,34.3c1.2,0,2.3-1,2.3-2.3c0-1.2-1-2.3-2.3-2.3h-5.1c-1.2,0-2.3,1-2.3,2.3c0,1.2,1,2.3,2.3,2.3H21.8z"/>
	<path d="M34.5,34.3c1.2,0,2.3-1,2.3-2.3c0-1.2-1-2.3-2.3-2.3h-5.1c-1.2,0-2.3,1-2.3,2.3c0,1.2,1,2.3,2.3,2.3H34.5z"/>
	<path d="M47.3,34.3c1.2,0,2.3-1,2.3-2.3c0-1.2-1-2.3-2.3-2.3h-5.1c-1.2,0-2.3,1-2.3,2.3c0,1.2,1,2.3,2.3,2.3H47.3z"/>
</g>
</svg>
