<?xml version="1.0" encoding="utf-8"?>
<!-- Generator: Adobe Illustrator 22.0.0, SVG Export Plug-In . SVG Version: 6.00 Build 0)  -->
<svg version="1.1" id="lni_lni-pagination" xmlns="http://www.w3.org/2000/svg" xmlns:xlink="http://www.w3.org/1999/xlink" x="0px"
	 y="0px" viewBox="0 0 64 64" style="enable-background:new 0 0 64 64;" xml:space="preserve">
<g>
	<path d="M61.4,30L51,19.5c-0.9-0.9-2.3-0.9-3.2,0c-0.9,0.9-0.9,2.3,0,3.2l9.3,9.3l-9.3,9.3c-0.9,0.9-0.9,2.3,0,3.2
		c0.4,0.4,1,0.7,1.6,0.7c0.6,0,1.2-0.2,1.6-0.7L61.4,34C62.5,32.9,62.5,31.1,61.4,30z"/>
	<path d="M16.2,19.5c-0.9-0.9-2.3-0.9-3.2,0L2.6,30c-1.1,1.1-1.1,2.9,0,4.1L13,44.5c0.4,0.4,1,0.7,1.6,0.7c0.6,0,1.1-0.2,1.6-0.7
		c0.9-0.9,0.9-2.3,0-3.2L6.9,32l9.3-9.3C17.1,21.8,17.1,20.3,16.2,19.5z"/>
	<path d="M21.9,29.3c-1.5,0-2.7,1.2-2.7,2.7s1.2,2.7,2.7,2.7s2.7-1.2,2.7-2.7S23.4,29.3,21.9,29.3z"/>
	<circle cx="32.3" cy="32" r="2.7"/>
	<path d="M42.9,29.3c-1.5,0-2.7,1.2-2.7,2.7s1.2,2.7,2.7,2.7c1.5,0,2.7-1.2,2.7-2.7S44.4,29.3,42.9,29.3z"/>
</g>
</svg>
