<?xml version="1.0" encoding="utf-8"?>
<!-- Generator: Adobe Illustrator 22.0.0, SVG Export Plug-In . SVG Version: 6.00 Build 0)  -->
<svg version="1.1" id="lni_lni-pilcrow" xmlns="http://www.w3.org/2000/svg" xmlns:xlink="http://www.w3.org/1999/xlink" x="0px"
	 y="0px" viewBox="0 0 64 64" style="enable-background:new 0 0 64 64;" xml:space="preserve">
<path d="M49.8,1.8H28.3C19.3,1.8,12,9.1,12,18c0,8.6,6.6,15.6,15,16.2V60c0,1.2,1,2.3,2.3,2.3s2.3-1,2.3-2.3V6.3H40V60
	c0,1.2,1,2.3,2.3,2.3s2.3-1,2.3-2.3V6.3h5.3C51,6.3,52,5.2,52,4S51,1.8,49.8,1.8z M16.5,18C16.5,12,21.1,6.9,27,6.3v23.4
	C21.1,29.1,16.5,24.1,16.5,18z"/>
</svg>
