<?xml version="1.0" encoding="utf-8"?>
<!-- Generator: Adobe Illustrator 22.0.0, SVG Export Plug-In . SVG Version: 6.00 Build 0)  -->
<svg version="1.1" id="lni_lni-sort-amount-dsc" xmlns="http://www.w3.org/2000/svg" xmlns:xlink="http://www.w3.org/1999/xlink"
	 x="0px" y="0px" viewBox="0 0 64 64" style="enable-background:new 0 0 64 64;" xml:space="preserve">
<g>
	<path d="M22.7,43.2l-6.3,6.3V9.1c0-1.2-1-2.3-2.3-2.3s-2.3,1-2.3,2.3v40.4l-6.3-6.3c-0.9-0.9-2.3-0.9-3.2,0c-0.9,0.9-0.9,2.3,0,3.2
		l9.5,9.5c0.6,0.6,1.4,0.9,2.3,0.9c0.8,0,1.6-0.3,2.3-0.9l9.5-9.5c0.9-0.9,0.9-2.3,0-3.2C25,42.4,23.6,42.4,22.7,43.2z"/>
	<path d="M39.7,52.7l-4.9,0c0,0,0,0,0,0c-1.2,0-2.2,1-2.3,2.2c0,1.2,1,2.3,2.2,2.3l4.9,0c0,0,0,0,0,0c1.2,0,2.2-1,2.3-2.2
		C41.9,53.7,40.9,52.7,39.7,52.7z"/>
	<path d="M47.3,37.4l-12.5,0c0,0,0,0,0,0c-1.2,0-2.2,1-2.3,2.2c0,1.2,1,2.3,2.2,2.3l12.5,0c0,0,0,0,0,0c1.2,0,2.2-1,2.3-2.2
		C49.5,38.4,48.5,37.4,47.3,37.4z"/>
	<path d="M52.4,22.1l-17.6,0c-1.2,0-2.3,1-2.3,2.2c0,1.2,1,2.3,2.2,2.3l17.6,0c0,0,0,0,0,0c1.2,0,2.2-1,2.3-2.2
		C54.6,23.1,53.6,22.1,52.4,22.1z"/>
	<path d="M60,6.9l-25.2,0c0,0,0,0,0,0c-1.2,0-2.2,1-2.3,2.2c0,1.2,1,2.3,2.2,2.3l25.2,0c0,0,0,0,0,0c1.2,0,2.2-1,2.3-2.2
		C62.3,7.9,61.2,6.9,60,6.9z"/>
</g>
</svg>
