<?xml version="1.0" encoding="utf-8"?>
<!-- Generator: Adobe Illustrator 22.0.0, SVG Export Plug-In . SVG Version: 6.00 Build 0)  -->
<svg version="1.1" id="lni_lni-sort-amount-asc" xmlns="http://www.w3.org/2000/svg" xmlns:xlink="http://www.w3.org/1999/xlink"
	 x="0px" y="0px" viewBox="0 0 64 64" style="enable-background:new 0 0 64 64;" xml:space="preserve">
<g>
	<path d="M22.7,43.2l-6.3,6.3V9.1c0-1.2-1-2.3-2.3-2.3s-2.3,1-2.3,2.3v40.4l-6.3-6.3c-0.9-0.9-2.3-0.9-3.2,0c-0.9,0.9-0.9,2.3,0,3.2
		l9.5,9.5c0.6,0.6,1.4,0.9,2.3,0.9c0.8,0,1.6-0.3,2.3-0.9l9.5-9.5c0.9-0.9,0.9-2.3,0-3.2C25,42.3,23.6,42.3,22.7,43.2z"/>
	<path d="M34.8,11.3C34.8,11.3,34.8,11.3,34.8,11.3l4.9,0c1.2,0,2.2-1,2.2-2.3c0-1.2-1-2.2-2.3-2.2c0,0,0,0,0,0l-4.9,0
		c-1.2,0-2.2,1-2.2,2.3C32.5,10.3,33.5,11.3,34.8,11.3z"/>
	<path d="M34.8,26.6C34.8,26.6,34.8,26.6,34.8,26.6l12.5,0c1.2,0,2.2-1,2.2-2.3s-1-2.3-2.3-2.2l-12.5,0c-1.2,0-2.2,1-2.2,2.3
		C32.5,25.6,33.5,26.6,34.8,26.6z"/>
	<path d="M34.8,41.9C34.8,41.9,34.8,41.9,34.8,41.9l17.6,0c1.2,0,2.2-1,2.2-2.3c0-1.2-1-2.2-2.3-2.2c0,0,0,0,0,0l-17.6,0
		c-1.2,0-2.2,1-2.2,2.3C32.5,40.9,33.5,41.9,34.8,41.9z"/>
	<path d="M60,52.6C60,52.6,60,52.6,60,52.6l-25.2,0c-1.2,0-2.2,1-2.2,2.3c0,1.2,1,2.2,2.3,2.2c0,0,0,0,0,0l25.2,0
		c1.2,0,2.2-1,2.2-2.3C62.2,53.6,61.2,52.6,60,52.6z"/>
</g>
</svg>
