<?xml version="1.0" encoding="utf-8"?>
<!-- Generator: Adobe Illustrator 22.0.0, SVG Export Plug-In . SVG Version: 6.00 Build 0)  -->
<svg version="1.1" id="lni_lni-sort-alpha-asc" xmlns="http://www.w3.org/2000/svg" xmlns:xlink="http://www.w3.org/1999/xlink"
	 x="0px" y="0px" viewBox="0 0 64 64" style="enable-background:new 0 0 64 64;" xml:space="preserve">
<g>
	<path d="M28.7,48.2l-6.4,6.3V4c0-1.2-1-2.3-2.3-2.3s-2.3,1-2.3,2.3v50.6l-6.4-6.3c-0.9-0.9-2.3-0.9-3.2,0c-0.9,0.9-0.9,2.3,0,3.2
		l9.5,9.5c0.6,0.6,1.4,0.9,2.3,0.9s1.6-0.3,2.3-0.9l9.5-9.5c0.9-0.9,0.9-2.3,0-3.2C31,47.4,29.5,47.4,28.7,48.2z"/>
	<path d="M52.2,57.8h-4l4.7-6.5c0.5-0.7,0.6-1.6,0.2-2.3c-0.4-0.8-1.2-1.2-2-1.2h-7.8c-1.2,0-2.3,1-2.3,2.3s1,2.3,2.3,2.3h3.4
		L42,58.7c-0.5,0.7-0.6,1.6-0.2,2.3c0.4,0.8,1.2,1.2,2,1.2h8.4c1.2,0,2.3-1,2.3-2.3S53.4,57.8,52.2,57.8z"/>
	<path d="M56.1,15.7L49.8,3c-0.4-0.8-1.2-1.2-2-1.2s-1.6,0.5-2,1.2l-6.4,12.7c-0.6,1.1-0.1,2.5,1,3c1.1,0.6,2.5,0.1,3-1l0.6-1.3h7.4
		l0.6,1.3c0.4,0.8,1.2,1.2,2,1.2c0.3,0,0.7-0.1,1-0.2C56.3,18.2,56.7,16.8,56.1,15.7z M46.3,11.9L47.8,9l1.5,2.9H46.3z"/>
</g>
</svg>
