<?xml version="1.0" encoding="utf-8"?>
<!-- Generator: Adobe Illustrator 22.0.0, SVG Export Plug-In . SVG Version: 6.00 Build 0)  -->
<svg version="1.1" id="lni_lni-spellcheck" xmlns="http://www.w3.org/2000/svg" xmlns:xlink="http://www.w3.org/1999/xlink" x="0px"
	 y="0px" viewBox="0 0 64 64" style="enable-background:new 0 0 64 64;" xml:space="preserve">
<g>
	<path d="M24.3,29.3c-0.3-0.6-0.8-0.9-1.4-0.9h-6c-0.7,0-1.2,0.3-1.4,0.9L4.1,55.4c-0.5,1.1,0.3,2.1,1.4,2.1h4.9
		c0.6,0,1.2-0.4,1.3-0.9l1.6-4h12.4l1.5,4c0.1,0.6,0.8,0.9,1.3,0.9h5.2c1.3-0.1,2.1-1.2,1.6-2.1L24.3,29.3z M15.7,45.4l4.1-10.5
		l4.1,10.5H15.7z"/>
	<path d="M61.6,4.8c-0.9-0.9-2.3-0.9-3.2,0L37.5,25.5l-5.2-5.1c-0.9-0.9-2.3-0.9-3.2,0c-0.9,0.9-0.9,2.3,0,3.2l6.3,6.2
		c0.6,0.6,1.3,0.9,2.1,0.9c0.8,0,1.5-0.3,2.1-0.9L61.6,8C62.5,7.1,62.5,5.7,61.6,4.8z"/>
</g>
</svg>
