<?xml version="1.0" encoding="utf-8"?>
<!-- Generator: Adobe Illustrator 22.0.0, SVG Export Plug-In . SVG Version: 6.00 Build 0)  -->
<svg version="1.1" id="lni_lni-strikethrough" xmlns="http://www.w3.org/2000/svg" xmlns:xlink="http://www.w3.org/1999/xlink"
	 x="0px" y="0px" viewBox="0 0 64 64" style="enable-background:new 0 0 64 64;" xml:space="preserve">
<path d="M60,19.6H34.3V6.3h14.5C50,6.3,51,5.2,51,4s-1-2.3-2.3-2.3H15.2C14,1.8,13,2.8,13,4s1,2.3,2.3,2.3h14.5v13.3H4
	c-1.2,0-2.3,1-2.3,2.3s1,2.3,2.3,2.3h25.8V60c0,1.2,1,2.3,2.3,2.3c1.2,0,2.3-1,2.3-2.3V24.1H60c1.2,0,2.3-1,2.3-2.3
	S61.2,19.6,60,19.6z"/>
</svg>
