<?xml version="1.0" encoding="utf-8"?>
<!-- Generator: Adobe Illustrator 22.0.0, SVG Export Plug-In . SVG Version: 6.00 Build 0)  -->
<svg version="1.1" id="lni_lni-text-align-left" xmlns="http://www.w3.org/2000/svg" xmlns:xlink="http://www.w3.org/1999/xlink"
	 x="0px" y="0px" viewBox="0 0 64 64" style="enable-background:new 0 0 64 64;" xml:space="preserve">
<g>
	<path d="M4,8.9h40.7c1.2,0,2.3-1,2.3-2.3s-1-2.3-2.3-2.3H4c-1.2,0-2.3,1-2.3,2.3S2.8,8.9,4,8.9z"/>
	<path d="M4,25.8h48.4c1.2,0,2.3-1,2.3-2.3s-1-2.3-2.3-2.3H4c-1.2,0-2.3,1-2.3,2.3S2.8,25.8,4,25.8z"/>
	<path d="M4,42.7h33.1c1.2,0,2.3-1,2.3-2.3s-1-2.3-2.3-2.3H4c-1.2,0-2.3,1-2.3,2.3S2.8,42.7,4,42.7z"/>
	<path d="M60,55.1H4c-1.2,0-2.3,1-2.3,2.3s1,2.3,2.3,2.3h56c1.2,0,2.3-1,2.3-2.3S61.2,55.1,60,55.1z"/>
</g>
</svg>
