<?xml version="1.0" encoding="utf-8"?>
<!-- Generator: Adobe Illustrator 22.0.0, SVG Export Plug-In . SVG Version: 6.00 Build 0)  -->
<svg version="1.1" id="lni_lni-text-align-right" xmlns="http://www.w3.org/2000/svg" xmlns:xlink="http://www.w3.org/1999/xlink"
	 x="0px" y="0px" viewBox="0 0 64 64" style="enable-background:new 0 0 64 64;" xml:space="preserve">
<g>
	<path d="M19.3,8.9H60c1.2,0,2.3-1,2.3-2.3s-1-2.3-2.3-2.3H19.3c-1.2,0-2.3,1-2.3,2.3S18,8.9,19.3,8.9z"/>
	<path d="M60,21.3H11.6c-1.2,0-2.3,1-2.3,2.3s1,2.3,2.3,2.3H60c1.2,0,2.3-1,2.3-2.3S61.2,21.3,60,21.3z"/>
	<path d="M60,38.2H26.9c-1.2,0-2.3,1-2.3,2.3s1,2.3,2.3,2.3H60c1.2,0,2.3-1,2.3-2.3S61.2,38.2,60,38.2z"/>
	<path d="M60,55.1H4c-1.2,0-2.3,1-2.3,2.3s1,2.3,2.3,2.3h56c1.2,0,2.3-1,2.3-2.3S61.2,55.1,60,55.1z"/>
</g>
</svg>
