<?xml version="1.0" encoding="utf-8"?>
<!-- Generator: Adobe Illustrator 22.0.0, SVG Export Plug-In . SVG Version: 6.00 Build 0)  -->
<svg version="1.1" id="lni_lni-text-format" xmlns="http://www.w3.org/2000/svg" xmlns:xlink="http://www.w3.org/1999/xlink"
	 x="0px" y="0px" viewBox="0 0 64 64" style="enable-background:new 0 0 64 64;" xml:space="preserve">
<g>
	<path d="M6.1,46h5.3c0.9,0,1.9-0.7,2.1-1.4l2.5-6.3h18.8l2.3,6.3c0.2,0.9,1.2,1.4,2.1,1.4h5.7c1.8-0.2,2.8-1.8,2.1-3.1L31.7,6.5
		c-0.4-0.9-1.1-1.3-2-1.3h-8c-0.8,0-1.8,0.4-2,1.3L4.2,43.1C3.6,44.5,4.5,46,6.1,46z M25.5,16.4l5.4,14.3H20L25.5,16.4z"/>
	<path d="M47.3,56.5H4c-1.2,0-2.3,1-2.3,2.3S2.8,61,4,61h43.3c1.2,0,2.3-1,2.3-2.3S48.5,56.5,47.3,56.5z"/>
	<path d="M60,3c-1.2,0-2.3,1-2.3,2.3V46c0,1.2,1,2.3,2.3,2.3s2.3-1,2.3-2.3V5.3C62.3,4,61.2,3,60,3z"/>
</g>
</svg>
