<?xml version="1.0" encoding="utf-8"?>
<!-- Generator: Adobe Illustrator 22.0.0, SVG Export Plug-In . SVG Version: 6.00 Build 0)  -->
<svg version="1.1" id="lni_lni-text-format-remove" xmlns="http://www.w3.org/2000/svg" xmlns:xlink="http://www.w3.org/1999/xlink"
	 x="0px" y="0px" viewBox="0 0 64 64" style="enable-background:new 0 0 64 64;" xml:space="preserve">
<g>
	<path d="M43,52.9H6.4c-1.2,0-2.3,1-2.3,2.3s1,2.3,2.3,2.3H43c1.2,0,2.3-1,2.3-2.3S44.2,52.9,43,52.9z"/>
	<path d="M59.3,41l2.3-2.3c0.9-0.9,0.9-2.3,0-3.2c-0.9-0.9-2.3-0.9-3.2,0l-2.3,2.3l-2.3-2.3c-0.9-0.9-2.3-0.9-3.2,0
		c-0.9,0.9-0.9,2.3,0,3.2l2.3,2.3l-2.3,2.3c-0.9,0.9-0.9,2.3,0,3.2c0.4,0.4,1,0.7,1.6,0.7c0.6,0,1.2-0.2,1.6-0.7l2.3-2.3l2.3,2.3
		c0.4,0.4,1,0.7,1.6,0.7c0.6,0,1.2-0.2,1.6-0.7c0.9-0.9,0.9-2.3,0-3.2L59.3,41z"/>
	<path d="M30.5,10.1c-0.3-0.9-1-1.2-1.9-1.2h-7.7c-0.8,0-1.7,0.3-1.9,1.2L4.2,45c-0.6,1.4,0.3,2.8,1.8,2.8h5.1c0.9,0,1.8-0.7,2-1.3
		l2.4-6h18l2.2,6c0.2,0.9,1.2,1.3,2,1.3h5.4c1.7-0.2,2.7-1.7,2-2.9L30.5,10.1z M19.3,33.2l5.2-13.7l5.2,13.7H19.3z"/>
</g>
</svg>
