<?xml version="1.0" encoding="utf-8"?>
<!-- Generator: Adobe Illustrator 22.0.0, SVG Export Plug-In . SVG Version: 6.00 Build 0)  -->
<svg version="1.1" id="lni_lni-underline" xmlns="http://www.w3.org/2000/svg" xmlns:xlink="http://www.w3.org/1999/xlink" x="0px"
	 y="0px" viewBox="0 0 64 64" style="enable-background:new 0 0 64 64;" xml:space="preserve">
<g>
	<path d="M32,49.5c11.8,0,21.4-9.4,21.4-20.9V4c0-1.2-1-2.3-2.3-2.3s-2.3,1-2.3,2.3v24.6c0,9-7.6,16.4-16.9,16.4
		c-9.3,0-16.9-7.3-16.9-16.4V4c0-1.2-1-2.3-2.3-2.3s-2.3,1-2.3,2.3v24.6C10.6,40.2,20.2,49.5,32,49.5z"/>
	<path d="M56.2,57.8H7.8c-1.2,0-2.3,1-2.3,2.3s1,2.3,2.3,2.3h48.4c1.2,0,2.3-1,2.3-2.3S57.4,57.8,56.2,57.8z"/>
</g>
</svg>
