<?xml version="1.0" encoding="utf-8"?>
<!-- Generator: Adobe Illustrator 22.0.0, SVG Export Plug-In . SVG Version: 6.00 Build 0)  -->
<svg version="1.1" id="lni_lni-angle-double-right" xmlns="http://www.w3.org/2000/svg" xmlns:xlink="http://www.w3.org/1999/xlink"
	 x="0px" y="0px" viewBox="0 0 64 64" style="enable-background:new 0 0 64 64;" xml:space="preserve">
<g>
	<path d="M38.4,30.4l-22.6-23c-0.9-0.9-2.3-0.9-3.2,0c-0.9,0.9-0.9,2.3,0,3.2L33.6,32L12.6,53.4c-0.9,0.9-0.9,2.3,0,3.2
		c0.4,0.4,1,0.6,1.6,0.6c0.6,0,1.2-0.2,1.6-0.7l22.6-23C39.3,32.7,39.3,31.3,38.4,30.4z"/>
	<path d="M51.4,30.4l-22.6-23c-0.9-0.9-2.3-0.9-3.2,0c-0.9,0.9-0.9,2.3,0,3.2L46.6,32L25.6,53.4c-0.9,0.9-0.9,2.3,0,3.2
		c0.4,0.4,1,0.6,1.6,0.6c0.6,0,1.2-0.2,1.6-0.7l22.6-23C52.3,32.7,52.3,31.3,51.4,30.4z"/>
</g>
</svg>
