<?xml version="1.0" encoding="utf-8"?>
<!-- Generator: Adobe Illustrator 25.2.1, SVG Export Plug-In . SVG Version: 6.00 Build 0)  -->
<svg version="1.1" id="lni_lni-arrow-right" xmlns="http://www.w3.org/2000/svg" xmlns:xlink="http://www.w3.org/1999/xlink"
	 x="0px" y="0px" viewBox="0 0 64 64" style="enable-background:new 0 0 64 64;" xml:space="preserve">
<path d="M57.6,30.4l-20.7-21c-0.9-0.9-2.3-0.9-3.2,0c-0.9,0.9-0.9,2.3,0,3.2l16.8,17.1H8c-1.2,0-2.2,1-2.2,2.2s1,2.3,2.2,2.3h42.7
	l-17,17.3c-0.9,0.9-0.9,2.3,0,3.2c0.4,0.4,1,0.6,1.6,0.6c0.6,0,1.2-0.2,1.6-0.7l20.7-21C58.5,32.7,58.5,31.3,57.6,30.4z"/>
</svg>
