<?xml version="1.0" encoding="utf-8"?>
<!-- Generator: Adobe Illustrator 25.2.1, SVG Export Plug-In . SVG Version: 6.00 Build 0)  -->
<svg version="1.1" id="lni_lni-arrows-horizontal" xmlns="http://www.w3.org/2000/svg" xmlns:xlink="http://www.w3.org/1999/xlink"
	 x="0px" y="0px" viewBox="0 0 64 64" style="enable-background:new 0 0 64 64;" xml:space="preserve">
<path d="M61.6,30.4L51.4,20.1c-0.9-0.9-2.3-0.9-3.2,0c-0.9,0.9-0.9,2.3,0,3.2l6.4,6.5H9.3l6.4-6.5c0.9-0.9,0.9-2.3,0-3.2
	c-0.9-0.9-2.3-0.9-3.2,0L2.4,30.4c-0.9,0.9-0.9,2.3,0,3.2l10.2,10.3c0.4,0.4,1,0.7,1.6,0.7c0.6,0,1.1-0.2,1.6-0.6
	c0.9-0.9,0.9-2.3,0-3.2l-6.4-6.5h45.2l-6.4,6.5c-0.9,0.9-0.9,2.3,0,3.2c0.4,0.4,1,0.6,1.6,0.6c0.6,0,1.2-0.2,1.6-0.7l10.2-10.3
	C62.5,32.7,62.5,31.3,61.6,30.4z"/>
</svg>
