<?xml version="1.0" encoding="utf-8"?>
<!-- Generator: Adobe Illustrator 25.2.1, SVG Export Plug-In . SVG Version: 6.00 Build 0)  -->
<svg version="1.1" id="lni_lni-arrow-up" xmlns="http://www.w3.org/2000/svg" xmlns:xlink="http://www.w3.org/1999/xlink" x="0px"
	 y="0px" viewBox="0 0 64 64" style="enable-background:new 0 0 64 64;" xml:space="preserve">
<path d="M54.6,27.1l-21-20.7c-0.9-0.9-2.3-0.9-3.2,0l-21,20.7c-0.9,0.9-0.9,2.3,0,3.2c0.9,0.9,2.3,0.9,3.2,0l17.1-16.8V56
	c0,1.2,1,2.2,2.2,2.2s2.3-1,2.3-2.2V13.3l17.3,17c0.4,0.4,1,0.6,1.6,0.6c0.6,0,1.2-0.2,1.6-0.7C55.5,29.4,55.5,27.9,54.6,27.1z"/>
</svg>
