<?xml version="1.0" encoding="utf-8"?>
<!-- Generator: Adobe Illustrator 25.2.1, SVG Export Plug-In . SVG Version: 6.00 Build 0)  -->
<svg version="1.1" id="lni_lni-arrow-left" xmlns="http://www.w3.org/2000/svg" xmlns:xlink="http://www.w3.org/1999/xlink" x="0px"
	 y="0px" viewBox="0 0 64 64" style="enable-background:new 0 0 64 64;" xml:space="preserve">
<path d="M56,29.8H13.3l17-17.3c0.9-0.9,0.9-2.3,0-3.2c-0.9-0.9-2.3-0.9-3.2,0l-20.7,21c-0.9,0.9-0.9,2.3,0,3.2l20.7,21
	c0.4,0.4,1,0.7,1.6,0.7c0.6,0,1.1-0.2,1.6-0.6c0.9-0.9,0.9-2.3,0-3.2L13.4,34.3H56c1.2,0,2.2-1,2.2-2.2C58.2,30.8,57.2,29.8,56,29.8
	z"/>
</svg>
