<?xml version="1.0" encoding="utf-8"?>
<!-- Generator: Adobe Illustrator 25.2.1, SVG Export Plug-In . SVG Version: 6.00 Build 0)  -->
<svg version="1.1" id="lni_lni-arrows-vertical" xmlns="http://www.w3.org/2000/svg" xmlns:xlink="http://www.w3.org/1999/xlink"
	 x="0px" y="0px" viewBox="0 0 64 64" style="enable-background:new 0 0 64 64;" xml:space="preserve">
<path d="M40.8,48.2l-6.5,6.4V9.3l6.5,6.4c0.4,0.4,1,0.6,1.6,0.6c0.6,0,1.2-0.2,1.6-0.7c0.9-0.9,0.9-2.3,0-3.2L33.6,2.4
	c-0.9-0.9-2.3-0.9-3.2,0L20.1,12.6c-0.9,0.9-0.9,2.3,0,3.2s2.3,0.9,3.2,0l6.5-6.4v45.2l-6.5-6.4c-0.9-0.9-2.3-0.9-3.2,0
	c-0.9,0.9-0.9,2.3,0,3.2l10.3,10.2c0.4,0.4,1,0.6,1.6,0.6c0.6,0,1.1-0.2,1.6-0.6l10.3-10.2c0.9-0.9,0.9-2.3,0-3.2
	C43.1,47.4,41.6,47.4,40.8,48.2z"/>
</svg>
