<?xml version="1.0" encoding="utf-8"?>
<!-- Generator: Adobe Illustrator 25.2.1, SVG Export Plug-In . SVG Version: 6.00 Build 0)  -->
<svg version="1.1" id="lni_lni-arrow-top-left" xmlns="http://www.w3.org/2000/svg" xmlns:xlink="http://www.w3.org/1999/xlink"
	 x="0px" y="0px" viewBox="0 0 64 64" style="enable-background:new 0 0 64 64;" xml:space="preserve">
<g>
	<path d="M48.9,51.3c-0.6,0-1.2-0.2-1.6-0.7L17.2,20.5l-0.2,24c0,1.2-1,2.3-2.3,2.2c-1.2,0-2.2-1-2.2-2.3L12.8,15
		c0-1.2,1-2.2,2.2-2.2l29.5-0.3c0,0,0,0,0,0c1.2,0,2.2,1,2.2,2.2c0,1.2-1,2.3-2.2,2.3l-24.2,0.2l30.2,30.2c0.9,0.9,0.9,2.3,0,3.2
		C50.1,51,49.5,51.3,48.9,51.3z"/>
</g>
</svg>
