<?xml version="1.0" encoding="utf-8"?>
<!-- Generator: Adobe Illustrator 25.2.1, SVG Export Plug-In . SVG Version: 6.00 Build 0)  -->
<svg version="1.1" id="lni_lni-arrow-up-circle" xmlns="http://www.w3.org/2000/svg" xmlns:xlink="http://www.w3.org/1999/xlink"
	 x="0px" y="0px" viewBox="0 0 64 64" style="enable-background:new 0 0 64 64;" xml:space="preserve">
<g>
	<path d="M33.6,19.1c-0.9-0.9-2.3-0.9-3.2,0l-9.9,9.7c-0.9,0.9-0.9,2.3,0,3.2c0.4,0.4,1,0.7,1.6,0.7c0.6,0,1.1-0.2,1.6-0.6l6.1-6
		v17.3c0,1.2,1,2.2,2.2,2.2c1.2,0,2.2-1,2.2-2.2V26l6.1,6c0.9,0.9,2.3,0.9,3.2,0c0.9-0.9,0.9-2.3,0-3.2L33.6,19.1z"/>
	<path d="M32,1.7C15.3,1.7,1.8,15.3,1.8,32S15.3,62.3,32,62.3S62.2,48.7,62.2,32S48.7,1.7,32,1.7z M32,57.8
		C17.8,57.8,6.2,46.2,6.2,32S17.8,6.2,32,6.2c14.2,0,25.8,11.6,25.8,25.8S46.2,57.8,32,57.8z"/>
</g>
</svg>
