<?xml version="1.0" encoding="utf-8"?>
<!-- Generator: Adobe Illustrator 25.2.1, SVG Export Plug-In . SVG Version: 6.00 Build 0)  -->
<svg version="1.1" id="lni_lni-arrow-down" xmlns="http://www.w3.org/2000/svg" xmlns:xlink="http://www.w3.org/1999/xlink" x="0px"
	 y="0px" viewBox="0 0 64 64" style="enable-background:new 0 0 64 64;" xml:space="preserve">
<path d="M54.6,33.8c-0.9-0.9-2.3-0.9-3.2,0L34.3,50.6V8c0-1.2-1-2.2-2.2-2.2c-1.2,0-2.2,1-2.2,2.2v42.7l-17.3-17
	c-0.9-0.9-2.3-0.9-3.2,0c-0.9,0.9-0.9,2.3,0,3.2l21,20.7c0.4,0.4,1,0.6,1.6,0.6c0.6,0,1.1-0.2,1.6-0.6l21-20.7
	C55.5,36.1,55.5,34.6,54.6,33.8z"/>
</svg>
