<?xml version="1.0" encoding="utf-8"?>
<!-- Generator: Adobe Illustrator 25.2.1, SVG Export Plug-In . SVG Version: 6.00 Build 0)  -->
<svg version="1.1" id="lni_lni-arrow-right-circle" xmlns="http://www.w3.org/2000/svg" xmlns:xlink="http://www.w3.org/1999/xlink"
	 x="0px" y="0px" viewBox="0 0 64 64" style="enable-background:new 0 0 64 64;" xml:space="preserve">
<g>
	<path d="M35.2,20.5c-0.9-0.9-2.3-0.9-3.2,0c-0.9,0.9-0.9,2.3,0,3.2l6,6.1H20.7c-1.2,0-2.2,1-2.2,2.2c0,1.2,1,2.2,2.2,2.2H38l-6,6.1
		c-0.9,0.9-0.9,2.3,0,3.2c0.4,0.4,1,0.6,1.6,0.6c0.6,0,1.2-0.2,1.6-0.7l9.8-9.9c0.9-0.9,0.9-2.3,0-3.2L35.2,20.5z"/>
	<path d="M32,1.8C15.3,1.8,1.7,15.3,1.7,32S15.3,62.2,32,62.2S62.3,48.7,62.3,32S48.7,1.8,32,1.8z M32,57.8
		C17.8,57.8,6.2,46.2,6.2,32C6.2,17.8,17.8,6.2,32,6.2S57.8,17.8,57.8,32C57.8,46.2,46.2,57.8,32,57.8z"/>
</g>
</svg>
