<?xml version="1.0" encoding="utf-8"?>
<!-- Generator: Adobe Illustrator 22.0.0, SVG Export Plug-In . SVG Version: 6.00 Build 0)  -->
<svg version="1.1" id="lni_lni-chevron-right-circle"
	 xmlns="http://www.w3.org/2000/svg" xmlns:xlink="http://www.w3.org/1999/xlink" x="0px" y="0px" viewBox="0 0 64 64"
	 style="enable-background:new 0 0 64 64;" xml:space="preserve">
<g>
	<path d="M32,1.8C15.3,1.8,1.8,15.3,1.8,32S15.3,62.3,32,62.3S62.3,48.7,62.3,32S48.7,1.8,32,1.8z M32,57.8
		C17.8,57.8,6.3,46.2,6.3,32C6.3,17.8,17.8,6.3,32,6.3c14.2,0,25.8,11.6,25.8,25.8C57.8,46.2,46.2,57.8,32,57.8z"/>
	<path d="M27,16.9c-0.9-0.9-2.3-0.9-3.2,0c-0.9,0.9-0.9,2.3,0,3.2L35.5,32L23.8,43.9c-0.9,0.9-0.9,2.3,0,3.2c0.4,0.4,1,0.6,1.6,0.6
		c0.6,0,1.2-0.2,1.6-0.7l13.3-13.5c0.9-0.9,0.9-2.3,0-3.2L27,16.9z"/>
</g>
</svg>
