<?xml version="1.0" encoding="utf-8"?>
<!-- Generator: Adobe Illustrator 25.2.1, SVG Export Plug-In . SVG Version: 6.00 Build 0)  -->
<svg version="1.1" id="lni_lni-dirction-alt" xmlns="http://www.w3.org/2000/svg" xmlns:xlink="http://www.w3.org/1999/xlink"
	 x="0px" y="0px" viewBox="0 0 64 64" style="enable-background:new 0 0 64 64;" xml:space="preserve">
<path d="M45.8,29.9h-9.1v-5.8h4.3c1,0,2-0.4,2.7-1.2l3.4-3.7c1.2-1.4,1.2-3.5,0-4.8l-3.4-3.7c-0.7-0.8-1.7-1.2-2.7-1.2h-4.3V4
	c0-1.2-1-2.2-2.2-2.2s-2.2,1-2.2,2.2v5.4H18.2c-2,0-3.6,1.6-3.6,3.6v7.5c0,2,1.6,3.6,3.6,3.6h14.1v5.8h-9.3c-1,0-2,0.4-2.7,1.2
	l-3.4,3.7c-1.2,1.4-1.2,3.5,0,4.8l3.4,3.7c0.7,0.8,1.7,1.2,2.7,1.2h9.3V60c0,1.2,1,2.2,2.2,2.2s2.2-1,2.2-2.2V44.6h9.1
	c2,0,3.6-1.6,3.6-3.6v-7.5C49.4,31.5,47.8,29.9,45.8,29.9z M19.1,13.9h21.6l2.6,2.8l-2.6,2.8H19.1V13.9z M44.9,40.1H23.3l-2.6-2.8
	l2.6-2.8h21.6V40.1z"/>
</svg>
