<?xml version="1.0" encoding="utf-8"?>
<!-- Generator: Adobe Illustrator 25.2.1, SVG Export Plug-In . SVG Version: 6.00 Build 0)  -->
<svg version="1.1" id="lni_lni-direction-rtl" xmlns="http://www.w3.org/2000/svg" xmlns:xlink="http://www.w3.org/1999/xlink"
	 x="0px" y="0px" viewBox="0 0 64 64" style="enable-background:new 0 0 64 64;" xml:space="preserve">
<g>
	<path d="M21.7,25.9c0.4,0,0.8,0,1.1,0v13.8c0,1.2,1,2.2,2.2,2.2s2.2-1,2.2-2.2V6.2h7.5v33.5c0,1.2,1,2.2,2.2,2.2s2.2-1,2.2-2.2V6.2
		h13c1.2,0,2.2-1,2.2-2.2s-1-2.2-2.2-2.2H21.7c0,0,0,0,0,0c0,0,0,0-0.1,0C14.9,1.8,9.5,7,9.5,13.8C9.5,20.5,15,25.9,21.7,25.9z
		 M21.7,6.2c0.2,0,0.6,0,1.1,0v15.2c-0.3,0-0.7,0-1.1,0c-4.3,0-7.6-3.4-7.6-7.6C14,9.6,17.4,6.2,21.7,6.2z"/>
	<path d="M51.7,51H19.1l2.9-2.9c0.9-0.9,0.9-2.3,0-3.2c-0.9-0.9-2.3-0.9-3.2,0l-6.6,6.7c-0.9,0.9-0.9,2.3,0,3.2l6.6,6.7
		c0.4,0.4,1,0.7,1.6,0.7c0.6,0,1.1-0.2,1.6-0.6c0.9-0.9,0.9-2.3,0-3.2l-2.9-2.9h32.6c1.2,0,2.2-1,2.2-2.2S52.9,51,51.7,51z"/>
</g>
</svg>
