<?xml version="1.0" encoding="utf-8"?>
<!-- Generator: Adobe Illustrator 25.2.1, SVG Export Plug-In . SVG Version: 6.00 Build 0)  -->
<svg version="1.1" id="lni_lni-direction" xmlns="http://www.w3.org/2000/svg" xmlns:xlink="http://www.w3.org/1999/xlink" x="0px"
	 y="0px" viewBox="0 0 64 64" style="enable-background:new 0 0 64 64;" xml:space="preserve">
<path d="M58.4,17.5l-4.8-6.2c-0.9-1.2-2.4-1.9-3.9-1.9H26.9V4c0-1.2-1-2.2-2.2-2.2s-2.2,1-2.2,2.2v5.4H9.5c-2.7,0-4.9,2.2-4.9,4.9
	v12.4c0,2.7,2.2,4.9,4.9,4.9h12.9V60c0,1.2,1,2.2,2.2,2.2s2.2-1,2.2-2.2V31.7h22.7c1.5,0,3-0.7,3.9-1.9l4.8-6.2
	C59.8,21.8,59.8,19.3,58.4,17.5z M54.8,20.8L50,27c-0.1,0.1-0.2,0.2-0.4,0.2H9.5c-0.2,0-0.4-0.2-0.4-0.4V14.3c0-0.2,0.2-0.4,0.4-0.4
	h40.1c0.1,0,0.3,0.1,0.4,0.2l4.8,6.2C54.9,20.4,54.9,20.7,54.8,20.8z"/>
</svg>
