<?xml version="1.0" encoding="utf-8"?>
<!-- Generator: Adobe Illustrator 25.2.1, SVG Export Plug-In . SVG Version: 6.00 Build 0)  -->
<svg version="1.1" id="lni_lni-exit-down" xmlns="http://www.w3.org/2000/svg" xmlns:xlink="http://www.w3.org/1999/xlink" x="0px"
	 y="0px" viewBox="0 0 64 64" style="enable-background:new 0 0 64 64;" xml:space="preserve">
<g>
	<path d="M57.5,29.1h-6.9c-1.2,0-2.2,1-2.2,2.2s1,2.3,2.2,2.3h6.9c0.2,0,0.3,0.1,0.3,0.3v11.3c0,2.4-1.9,4.3-4.3,4.3H10.6
		c-2.4,0-4.3-1.9-4.3-4.3V33.9c0-0.2,0.1-0.3,0.3-0.3h6.9c1.2,0,2.2-1,2.2-2.3s-1-2.2-2.2-2.2H6.5c-2.6,0-4.8,2.2-4.8,4.8v11.3
		c0,4.9,4,8.8,8.8,8.8h42.9c4.9,0,8.8-4,8.8-8.8V33.9C62.2,31.3,60.1,29.1,57.5,29.1z"/>
	<path d="M30.4,37.1c0.4,0.4,1,0.6,1.6,0.6c0.6,0,1.1-0.2,1.6-0.6l10.2-10c0.9-0.9,0.9-2.3,0-3.2s-2.3-0.9-3.2,0l-6.3,6.2V12.3
		c0-1.2-1-2.2-2.2-2.2c-1.2,0-2.2,1-2.2,2.2v17.9l-6.4-6.3c-0.9-0.9-2.3-0.9-3.2,0s-0.9,2.3,0,3.2L30.4,37.1z"/>
</g>
</svg>
