<?xml version="1.0" encoding="utf-8"?>
<!-- Generator: Adobe Illustrator 25.2.1, SVG Export Plug-In . SVG Version: 6.00 Build 0)  -->
<svg version="1.1" id="lni_lni-pointer-right" xmlns="http://www.w3.org/2000/svg" xmlns:xlink="http://www.w3.org/1999/xlink"
	 x="0px" y="0px" viewBox="0 0 64 64" style="enable-background:new 0 0 64 64;" xml:space="preserve">
<path d="M61.9,24.9c-0.7-2.4-2.3-4.3-4.5-5.2c-1.9-0.8-3.8-1-5.8-1c-3.7-0.1-7.5-0.1-11.2-0.1c0.3-0.5,0.7-1,0.9-1.6
	c1.4-2.6,1.7-5.3,0.9-7.7c-1-3-3.8-5.1-6.8-5.1c0,0-0.1,0-0.1,0c-2.7,0-4.8,1.7-6.5,3c-3.2,2.5-7,5.1-11.8,8
	c-0.1,0.1-0.6,0.3-1.1,0.5c-3,1.4-9.1,4.4-11.6,9.1c-2.6,4.9-3.2,12.1-2.6,17c0.6,5.8,2.8,10.3,6.3,13.2c4.3,3.6,10.4,4.3,15.1,4.5
	c1.8,0.1,3.6,0.1,5.4,0.1c1.6,0,3.2,0,4.8,0c1.6,0,3.3,0,5.1-0.7c2.1-0.8,3.8-2.5,4.6-4.8c0.5-1.5,0.6-3,0.3-4.4
	c2.1-2,3.1-5.2,2.4-8c1.5-1.7,2.2-4,2.1-6.2c1.6,0.1,3.2,0.2,4.9,0c2.8-0.3,5.3-1.3,7-2.8c0.5-0.5,0.9-1,1.3-1.5
	C62.2,29.5,62.6,27.2,61.9,24.9z M57.3,28.8c-0.2,0.2-0.4,0.5-0.6,0.7c0,0,0,0,0,0c-1,0.9-2.6,1.5-4.4,1.7c-1.5,0.1-3,0-4.6-0.1
	c-1-0.1-2-0.1-3-0.1c0,0,0,0,0,0c-0.8,0-1.6,0.4-2,1.2c-0.4,0.7-0.4,1.6,0.1,2.3c1,1.5,0.5,3.8-1,4.9c-0.9,0.7-1.2,1.9-0.7,2.9
	c0.9,1.6,0.1,3.9-1.5,4.9c-0.5,0.3-0.9,0.8-1.1,1.4c-0.2,0.6-0.1,1.2,0.2,1.7c0.4,0.7,0.5,1.6,0.1,2.5c-0.3,1-1.1,1.7-1.9,2.1
	c-1,0.4-2.3,0.4-3.5,0.4c-3.3,0-6.6,0.1-9.9-0.1c-4-0.2-9.1-0.7-12.4-3.4c-3.2-2.7-4.3-7-4.7-10.2C6,37.3,6.4,31,8.5,27
	c1.8-3.3,7.2-6,9.5-7.1c0.7-0.3,1.1-0.5,1.4-0.7c5-3,8.8-5.7,12.2-8.3c1.3-1,2.6-2,3.8-2c0,0,0,0,0,0c1.2,0,2.2,1,2.5,2
	c0.4,1.2,0.2,2.7-0.6,4.2c-0.8,1.6-2.2,3-3.5,4.4c-0.6,0.7-0.8,1.6-0.4,2.4s1.2,1.4,2.1,1.3c5.2-0.1,10.6-0.1,15.9,0
	c1.6,0,3,0.1,4.1,0.6c0.9,0.4,1.7,1.3,2,2.4C57.9,27.1,57.8,28.1,57.3,28.8z"/>
</svg>
