<?xml version="1.0" encoding="utf-8"?>
<!-- Generator: Adobe Illustrator 25.2.1, SVG Export Plug-In . SVG Version: 6.00 Build 0)  -->
<svg version="1.1" id="lni_lni-pointer-left" xmlns="http://www.w3.org/2000/svg" xmlns:xlink="http://www.w3.org/1999/xlink"
	 x="0px" y="0px" viewBox="0 0 64 64" style="enable-background:new 0 0 64 64;" xml:space="preserve">
<g>
	<path d="M35.3,59.7c-1.6,0-3.2,0-4.8,0c-1.6,0-3.3,0-5.1-0.7c-2.1-0.8-3.8-2.5-4.6-4.8c-0.5-1.5-0.6-3-0.3-4.4
		c-2.1-2.1-3.1-5.2-2.4-8c-1.5-1.7-2.2-4-2.1-6.2c-1.6,0.1-3.2,0.2-4.9,0c-2.8-0.3-5.3-1.3-7-2.8c-0.5-0.5-0.9-1-1.3-1.5
		c-1.2-1.8-1.5-4.1-0.9-6.4c0.7-2.4,2.3-4.3,4.5-5.2c1.9-0.8,3.8-1,5.8-1c3.7-0.1,7.5-0.1,11.2-0.1c-0.3-0.5-0.7-1-0.9-1.6
		c-1.4-2.6-1.7-5.3-0.9-7.7c1-3,3.9-5.1,6.9-5.1c2.7,0,4.8,1.7,6.5,3c3.3,2.5,7,5.1,11.8,8c0.1,0.1,0.6,0.3,1.1,0.5
		c3,1.4,9.1,4.4,11.6,9.1c2.6,4.9,3.2,12.1,2.6,17c-0.6,5.8-2.8,10.3-6.3,13.2c-4.3,3.6-10.4,4.3-15.1,4.5
		C38.9,59.7,37.1,59.7,35.3,59.7z M19.2,31c0.8,0,1.6,0.4,2,1.2c0.4,0.7,0.4,1.6-0.1,2.3c-1,1.5-0.5,3.8,1,4.9
		c0.9,0.7,1.2,1.9,0.7,2.9c-0.9,1.6-0.1,3.9,1.5,4.9c0.5,0.3,0.9,0.8,1.1,1.4s0.1,1.2-0.2,1.7c-0.4,0.7-0.5,1.6-0.1,2.5
		c0.3,1,1.1,1.7,1.9,2.1c1,0.4,2.3,0.4,3.5,0.4c3.3,0,6.6,0.1,9.9-0.1c4-0.2,9.1-0.7,12.4-3.4c3.2-2.7,4.3-7,4.7-10.2
		c0.5-4.2,0-10.5-2.1-14.4c-1.8-3.3-7.2-6-9.5-7.1c-0.7-0.3-1.1-0.5-1.4-0.7c-5-3-8.8-5.7-12.2-8.3c-1.3-1-2.6-2-3.8-2
		c-1.2,0-2.2,1-2.5,2c-0.4,1.2-0.2,2.7,0.6,4.2c0.8,1.6,2.2,3,3.5,4.4c0.6,0.7,0.8,1.6,0.4,2.4c-0.4,0.8-1.2,1.3-2.1,1.3
		c0,0,0,0,0,0c-5.2-0.1-10.6-0.1-15.9,0c-1.6,0-3,0.1-4.1,0.6c-0.9,0.4-1.7,1.3-2,2.4c-0.3,1-0.2,1.9,0.3,2.6
		c0.2,0.2,0.4,0.5,0.6,0.7l0,0c1,0.9,2.6,1.5,4.4,1.7c1.5,0.1,3,0,4.6-0.1C17.2,31,18.2,31,19.2,31C19.2,31,19.2,31,19.2,31z"/>
</g>
</svg>
