<?xml version="1.0" encoding="utf-8"?>
<!-- Generator: Adobe Illustrator 25.2.1, SVG Export Plug-In . SVG Version: 6.00 Build 0)  -->
<svg version="1.1" id="lni_lni-pointer-top" xmlns="http://www.w3.org/2000/svg" xmlns:xlink="http://www.w3.org/1999/xlink"
	 x="0px" y="0px" viewBox="0 0 64 64" style="enable-background:new 0 0 64 64;" xml:space="preserve">
<g>
	<path d="M38.4,62.2c-4.5,0-9.7-0.8-13.5-2.8c-4.6-2.4-7.6-8.6-9.1-11.6c-0.2-0.4-0.4-0.9-0.5-1.1c-2.9-4.8-5.5-8.6-8-11.8
		c-1.3-1.7-2.9-3.8-3-6.5c0-3,2.1-5.9,5.1-6.9c2.4-0.8,5.1-0.5,7.7,0.9c0.5,0.3,1.1,0.6,1.6,0.9c0-3.7,0-7.5,0.1-11.2
		c0.1-2,0.2-4,1-5.8c1-2.2,2.9-3.8,5.2-4.5c2.2-0.6,4.5-0.3,6.4,0.9c0.6,0.4,1.1,0.8,1.5,1.3l0,0c1.6,1.7,2.5,4.2,2.8,7
		c0.2,1.7,0.1,3.3,0,4.9c2.2-0.2,4.5,0.6,6.2,2.1c2.8-0.7,6,0.2,8,2.4c1.4-0.3,2.9-0.2,4.4,0.3c2.2,0.8,4,2.5,4.8,4.6
		c0.7,1.7,0.7,3.5,0.7,5.1c0,3.3,0.1,6.7-0.1,10.2c-0.2,4.7-0.9,10.8-4.5,15.1c-2.9,3.5-7.4,5.6-13.2,6.3
		C40.8,62.2,39.6,62.2,38.4,62.2z M12,25.8c-0.4,0-0.8,0.1-1.2,0.2c-1,0.3-2,1.4-2,2.5c0,1.2,1,2.5,2,3.8c2.7,3.4,5.3,7.3,8.3,12.2
		c0.2,0.3,0.4,0.8,0.7,1.4c1.1,2.3,3.8,7.8,7.1,9.5c4,2.1,10.3,2.6,14.5,2.1c3.2-0.4,7.6-1.4,10.2-4.7c2.7-3.3,3.3-8.4,3.4-12.4
		c0.1-3.3,0.1-6.7,0.1-9.9c0-1.2,0-2.5-0.4-3.5c-0.3-0.9-1.1-1.6-2.1-1.9c-0.9-0.3-1.8-0.3-2.5,0.1c-0.5,0.3-1.1,0.4-1.7,0.2
		c-0.6-0.2-1.1-0.5-1.4-1.1c-0.9-1.7-3.3-2.4-4.9-1.5c-1,0.5-2.2,0.2-2.9-0.7c-1.1-1.5-3.4-2-4.9-1c-0.7,0.4-1.6,0.5-2.3,0.1
		c-0.7-0.4-1.2-1.2-1.2-2c0-1,0.1-2,0.1-3c0.1-1.6,0.2-3.1,0.1-4.6c-0.2-1.8-0.8-3.4-1.7-4.4l0,0c-0.2-0.2-0.4-0.4-0.7-0.6
		c-0.7-0.5-1.7-0.6-2.6-0.3c-1.1,0.3-2,1.1-2.4,2c-0.5,1.1-0.6,2.5-0.6,4.1c-0.2,5.3-0.1,10.6,0,15.9c0,0.9-0.5,1.7-1.3,2.1
		C21,30.8,20,30.7,19.4,30c-1.4-1.3-2.9-2.6-4.4-3.5C13.9,26,12.9,25.8,12,25.8z"/>
</g>
</svg>
