<?xml version="1.0" encoding="utf-8"?>
<!-- Generator: Adobe Illustrator 25.2.1, SVG Export Plug-In . SVG Version: 6.00 Build 0)  -->
<svg version="1.1" id="lni_lni-shift-left" xmlns="http://www.w3.org/2000/svg" xmlns:xlink="http://www.w3.org/1999/xlink" x="0px"
	 y="0px" viewBox="0 0 64 64" style="enable-background:new 0 0 64 64;" xml:space="preserve">
<g>
	<path d="M7.1,1.8c-1.2,0-2.2,1-2.2,2.2v56c0,1.2,1,2.2,2.2,2.2s2.2-1,2.2-2.2V4C9.3,2.8,8.3,1.8,7.1,1.8z"/>
	<path d="M56.9,32.2H27l6.9-7c0.9-0.9,0.9-2.3,0-3.2c-0.9-0.9-2.3-0.9-3.2,0L20,32.8c-0.9,0.9-0.9,2.3,0,3.2l10.6,10.8
		c0.4,0.4,1,0.7,1.6,0.7c0.6,0,1.1-0.2,1.6-0.6c0.9-0.9,0.9-2.3,0-3.2l-6.8-7h29.9c1.2,0,2.2-1,2.2-2.2S58.2,32.2,56.9,32.2z"/>
</g>
</svg>
