<?xml version="1.0" encoding="utf-8"?>
<!-- Generator: Adobe Illustrator 22.0.0, SVG Export Plug-In . SVG Version: 6.00 Build 0)  -->
<svg version="1.1" id="lni_lni-bug" xmlns="http://www.w3.org/2000/svg" xmlns:xlink="http://www.w3.org/1999/xlink" x="0px"
	 y="0px" viewBox="0 0 64 64" style="enable-background:new 0 0 64 64;" xml:space="preserve">
<path d="M57.7,38.5h-9c-0.1-2.4-0.5-4.7-1.1-6.9l7.2-6.3c0.9-0.8,1-2.2,0.2-3.2c-0.8-0.9-2.2-1-3.2-0.2l-6,5.3
	c-1.4-2.7-3.2-4.9-5.3-6.6c0.9-0.4,1.7-0.9,2.4-1.7c1.3-1.4,1.9-3.3,1.7-5.2C44,6.9,38.6,1.8,31.9,1.8c-6.6,0-12.2,5.1-12.9,11.9
	c-0.2,1.9,0.4,3.8,1.7,5.2c0.7,0.8,1.5,1.3,2.4,1.7c-2.1,1.6-3.8,3.8-5.2,6.4l-5.8-5.1c-0.9-0.8-2.4-0.7-3.2,0.2
	c-0.8,0.9-0.7,2.4,0.2,3.2l7,6.1c-0.7,2.2-1.1,4.6-1.2,7.1H6.3c-1.2,0-2.3,1-2.3,2.3S5,43,6.3,43h8.9c0.2,2.1,0.7,4,1.3,5.9
	l-7.2,6.4c-0.9,0.8-1,2.2-0.2,3.2c0.4,0.5,1.1,0.8,1.7,0.8c0.5,0,1.1-0.2,1.5-0.6l6.1-5.4c3.1,5.5,8,9,13.6,9
	c5.6,0,10.6-3.6,13.6-9.2l6.3,5.6c0.4,0.4,1,0.6,1.5,0.6c0.6,0,1.2-0.3,1.7-0.8c0.8-0.9,0.7-2.4-0.2-3.2l-7.4-6.5
	c0.6-1.8,1-3.7,1.2-5.7h9.1c1.2,0,2.3-1,2.3-2.3S59,38.5,57.7,38.5z M23.5,14.1c0.5-4.5,4.1-7.9,8.4-7.9c4.3,0,7.8,3.4,8.3,7.9
	c0.1,0.7-0.1,1.3-0.5,1.7c-0.5,0.5-1.1,0.8-1.6,0.8H25.7c-0.6,0-1.2-0.3-1.6-0.7C23.7,15.4,23.5,14.8,23.5,14.1z M31.9,57.8
	c-6.8,0-12.4-8-12.4-17.9c0-9.9,5.6-17.9,12.4-17.9s12.4,8,12.4,17.9C44.3,49.7,38.7,57.8,31.9,57.8z"/>
</svg>
