<?xml version="1.0" encoding="utf-8"?>
<!-- Generator: Adobe Illustrator 22.0.0, SVG Export Plug-In . SVG Version: 6.00 Build 0)  -->
<svg version="1.1" id="lni_lni-flower" xmlns="http://www.w3.org/2000/svg" xmlns:xlink="http://www.w3.org/1999/xlink" x="0px"
	 y="0px" viewBox="0 0 64 64" style="enable-background:new 0 0 64 64;" xml:space="preserve">
<path d="M49.6,20.8c-1.9,0-4.6,0.7-8.5,2.1c1.4-3.8,2.1-6.6,2.1-8.5c0-7-5-12.7-11.2-12.7c-6.2,0-11.2,5.7-11.2,12.7
	c0,1.9,0.7,4.6,2.1,8.5c-3.8-1.4-6.6-2.1-8.5-2.1c-7,0-12.7,5-12.7,11.2c0,6.2,5.7,11.2,12.7,11.2c1.9,0,4.6-0.7,8.5-2.1
	c-1.4,3.8-2.1,6.6-2.1,8.5c0,7,5,12.7,11.2,12.7c6.2,0,11.2-5.7,11.2-12.7c0-1.9-0.7-4.6-2.1-8.5c3.8,1.4,6.6,2.1,8.5,2.1
	c7,0,12.7-5,12.7-11.2C62.3,25.8,56.6,20.8,49.6,20.8z M26.7,32c0-2.9,2.4-5.3,5.3-5.3c2.9,0,5.3,2.4,5.3,5.3c0,2.9-2.4,5.3-5.3,5.3
	C29.1,37.3,26.7,34.9,26.7,32z M32,6.3c3.7,0,6.7,3.7,6.7,8.2c0,1.1-0.5,3.5-2.5,8.8c-1.3-0.6-2.7-0.9-4.2-0.9c-1.5,0-2.9,0.3-4.2,1
	c-2.1-5.2-2.5-7.6-2.5-8.8C25.3,9.9,28.3,6.3,32,6.3z M6.3,32c0-3.7,3.7-6.7,8.2-6.7c1.1,0,3.5,0.5,8.8,2.5c-0.6,1.3-1,2.7-1,4.2
	c0,1.5,0.3,2.9,1,4.2c-5.2,2.1-7.6,2.5-8.8,2.5C9.9,38.7,6.3,35.7,6.3,32z M32,57.8c-3.7,0-6.7-3.7-6.7-8.2c0-1.1,0.5-3.5,2.5-8.8
	c1.3,0.6,2.7,1,4.2,1c1.5,0,2.9-0.3,4.2-1c2.1,5.2,2.5,7.6,2.5,8.8C38.7,54.1,35.7,57.8,32,57.8z M49.6,38.7c-1.1,0-3.5-0.5-8.8-2.5
	c0.6-1.3,1-2.7,1-4.2c0-1.5-0.3-2.9-1-4.2c5.2-2.1,7.6-2.5,8.8-2.5c4.5,0,8.2,3,8.2,6.7C57.8,35.7,54.1,38.7,49.6,38.7z"/>
</svg>
