<?xml version="1.0" encoding="utf-8"?>
<!-- Generator: Adobe Illustrator 22.0.0, SVG Export Plug-In . SVG Version: 6.00 Build 0)  -->
<svg version="1.1" id="lni_lni-island" xmlns="http://www.w3.org/2000/svg" xmlns:xlink="http://www.w3.org/1999/xlink" x="0px"
	 y="0px" viewBox="0 0 64 64" style="enable-background:new 0 0 64 64;" xml:space="preserve">
<g>
	<path d="M52.4,22.8c5.5,0,9.9-4.4,9.9-9.9S57.8,3,52.4,3s-9.9,4.4-9.9,9.9S46.9,22.8,52.4,22.8z M52.4,7.5c3,0,5.4,2.4,5.4,5.4
		s-2.4,5.4-5.4,5.4c-3,0-5.4-2.4-5.4-5.4S49.4,7.5,52.4,7.5z"/>
	<path d="M60,56.5c-0.7,0-1-0.2-1.8-1.2c-1-1.1-2.4-2.7-5.2-2.7c-2.7,0-4.2,1.6-5.2,2.7c-0.9,1-1.1,1.2-1.8,1.2
		c-0.7,0-1-0.2-1.8-1.2c-1-1.1-2.4-2.7-5.2-2.7c-2.7,0-4.2,1.6-5.2,2.7c-0.9,1-1.1,1.2-1.8,1.2c-0.7,0-1-0.2-1.8-1.2
		c-1-1.1-2.4-2.7-5.2-2.7s-4.2,1.6-5.2,2.7c-0.4,0.5-0.7,0.8-1,1c-0.9-2.1-3.6-9.2-2.5-14.8c0.2-1.3,0.8-2.8,1.4-4.4
		c0.6-1.7,1.3-3.5,1.7-5.4c0-0.1,0.1-0.2,0.1-0.4c1.8,1,4.2,3.3,5,6c0.3,1,1.2,1.7,2.2,1.7c0.2,0,0.4,0,0.6-0.1
		c1.2-0.3,1.9-1.6,1.6-2.8c-1-3.6-4-7.1-7.2-8.8c2.7-2.8,7.5-4.2,12.3-3.3c1.2,0.2,2.4-0.6,2.6-1.8c0.2-1.2-0.6-2.4-1.8-2.6
		c-6.1-1.1-12,0.6-15.8,4c-0.6-2.4-1.7-4.5-2.8-6.2c-1.2-1.7-3-3.8-5.5-4.2c-1.2-0.2-2.4,0.6-2.6,1.8c-0.2,1.2,0.6,2.4,1.8,2.6
		c0.5,0.1,1.5,0.9,2.5,2.3c0.8,1.2,1.6,2.9,2.1,4.6c-3.7-1.7-8.2-1.7-11.8,0.6c-1.1,0.7-1.4,2.1-0.7,3.1s2.1,1.4,3.1,0.7
		c3-1.9,7.3-1.3,9.8,1.3c0,0,0,0.1,0,0.1c-0.3,1.6-0.9,3.3-1.6,5c-0.6,1.7-1.3,3.5-1.6,5.2c-0.8,4.2,0.1,8.7,1.1,12.3
		c-0.6-0.2-1.2-0.3-1.9-0.3c-2.7,0-4.2,1.6-5.2,2.7c-0.9,1-1.2,1.2-1.8,1.2c-1.2,0-2.3,1-2.3,2.3S2.8,61,4,61c2.7,0,4.2-1.6,5.2-2.7
		c0.9-1,1.2-1.2,1.8-1.2c0.7,0,1,0.2,1.8,1.2c0.8,0.9,2,2.2,4,2.5c0.2,0.1,0.5,0.1,0.7,0.1c0.1,0,0.1,0,0.2,0c0.1,0,0.2,0,0.3,0
		c2.7,0,4.2-1.6,5.2-2.7c0.9-1,1.2-1.2,1.8-1.2s1,0.2,1.8,1.2c1,1.1,2.4,2.7,5.2,2.7c2.7,0,4.2-1.6,5.2-2.7c0.9-1,1.2-1.2,1.8-1.2
		c0.7,0,1,0.2,1.8,1.2c1,1.1,2.4,2.7,5.2,2.7c2.7,0,4.2-1.6,5.2-2.7c0.9-1,1.2-1.2,1.8-1.2s1,0.2,1.8,1.2c1,1.1,2.4,2.7,5.2,2.7
		c1.2,0,2.3-1,2.3-2.3S61.2,56.5,60,56.5z"/>
</g>
</svg>
