<?xml version="1.0" encoding="utf-8"?>
<!-- Generator: Adobe Illustrator 22.0.0, SVG Export Plug-In . SVG Version: 6.00 Build 0)  -->
<svg version="1.1" id="lni_lni-leaf" xmlns="http://www.w3.org/2000/svg" xmlns:xlink="http://www.w3.org/1999/xlink" x="0px"
	 y="0px" viewBox="0 0 64 64" style="enable-background:new 0 0 64 64;" xml:space="preserve">
<path d="M61.6,58.2l-13-12.9c3-3.7,4.5-8.1,4.5-12.9c0-7.1-3.5-14.5-9.9-20.8C26.6-5,6,4.9,5.8,5L5.2,5.3L4.8,6
	c-0.1,0.2-10,20.7,6.7,37.2c6.5,6.5,14.1,9.8,21,9.8c4.7,0,9.1-1.5,12.9-4.6l13,12.9c0.4,0.4,1,0.7,1.6,0.7c0.6,0,1.2-0.2,1.6-0.7
	C62.5,60.5,62.5,59.1,61.6,58.2z M14.6,40C1.8,27.2,7.1,12.1,8.5,8.7C12,7.2,27.2,2,40.1,14.8c5.5,5.5,8.5,11.7,8.5,17.7
	c0,3.6-1.1,6.9-3.3,9.7l-7.3-7.3V22.2c0-1.2-1-2.3-2.3-2.3s-2.3,1-2.3,2.3v8.2l-8.2-8.2c-0.9-0.9-2.3-0.9-3.2,0
	c-0.9,0.9-0.9,2.3,0,3.2l5.8,5.8h-8.2c-1.2,0-2.3,1-2.3,2.3c0,1.2,1,2.3,2.3,2.3h12.7l9.7,9.6C34.7,51,23.7,49,14.6,40z"/>
</svg>
