<?xml version="1.0" encoding="utf-8"?>
<!-- Generator: Adobe Illustrator 25.2.1, SVG Export Plug-In . SVG Version: 6.00 Build 0)  -->
<svg version="1.1" id="lni_lni-mashroom" xmlns="http://www.w3.org/2000/svg" xmlns:xlink="http://www.w3.org/1999/xlink" x="0px"
	 y="0px" viewBox="0 0 64 64" style="enable-background:new 0 0 64 64;" xml:space="preserve">
<g>
	<path d="M54.8,14.7C50.3,6.2,41.6,1,32,1S13.7,6.2,9.2,14.7c-1.9,3.5-2.8,7.1-2.9,10.9c0,0,0,0,0,0.1v0.2c0,0.3,0.1,0.6,0.2,0.8
		c2.3,5,8.5,8.8,16.5,10.5l-1.7,16c-0.3,2.5,0.5,5,2.2,6.9c1.7,1.9,4.1,2.9,6.6,2.9H34c2.5,0,5-1.1,6.6-3c1.7-1.9,2.5-4.4,2.2-6.9
		l-1.7-15.9c7.9-1.7,14.1-5.5,16.4-10.5c0.1-0.3,0.2-0.6,0.2-0.9C57.6,21.9,56.6,18.1,54.8,14.7z M38.9,53.5
		c0.2,1.4-0.3,2.8-1.2,3.8C36.7,58.4,35.4,59,34,59h-3.9c-1.4,0-2.7-0.6-3.6-1.6c-0.9-1-1.4-2.4-1.2-3.8l1.7-15.8
		c1.6,0.2,3.3,0.3,5.1,0.3c1.8,0,3.5-0.1,5.2-0.3L38.9,53.5z M32,34.1c-10,0-19-3.6-21.7-8.7c0.1-3.1,0.9-6,2.5-8.9
		C16.5,9.4,23.9,5,32,5c8.1,0,15.5,4.4,19.2,11.6c1.5,2.8,2.3,5.8,2.4,8.9C51,30.5,42,34.1,32,34.1z"/>
	<path d="M31.6,8.9c-0.1,0-0.2,0.1-0.4,0.1c-0.1,0-0.2,0.1-0.4,0.2c-0.1,0.1-0.2,0.1-0.3,0.2c-0.4,0.4-0.6,0.9-0.6,1.4
		c0,0.5,0.2,1,0.6,1.4c0.4,0.4,0.9,0.6,1.4,0.6c0.5,0,1-0.2,1.4-0.6c0.4-0.4,0.6-0.9,0.6-1.4c0-0.5-0.2-1-0.6-1.4
		C32.9,8.9,32.3,8.7,31.6,8.9z"/>
	<path d="M20.6,21.7c-0.4,0.4-0.6,0.9-0.6,1.4c0,0.5,0.2,1.1,0.6,1.4c0.4,0.4,0.9,0.6,1.4,0.6c0.5,0,1-0.2,1.4-0.6
		c0.4-0.4,0.6-0.9,0.6-1.4c0-0.5-0.2-1-0.6-1.4C22.7,20.9,21.4,20.9,20.6,21.7z"/>
	<path d="M44.2,22.3c0-0.1-0.1-0.2-0.2-0.3c-0.1-0.1-0.1-0.2-0.2-0.3c-0.5-0.5-1.1-0.7-1.8-0.5c-0.1,0-0.2,0.1-0.4,0.1
		c-0.1,0.1-0.2,0.1-0.3,0.2c-0.1,0.1-0.2,0.2-0.3,0.2c-0.1,0.1-0.2,0.2-0.2,0.3c-0.1,0.1-0.1,0.2-0.2,0.3s-0.1,0.2-0.1,0.4
		c0,0.1,0,0.3,0,0.4s0,0.3,0,0.4c0,0.1,0.1,0.2,0.1,0.4c0,0.1,0.1,0.2,0.2,0.4c0.1,0.1,0.1,0.2,0.2,0.3c0.4,0.4,0.9,0.6,1.4,0.6
		c0.5,0,1-0.2,1.4-0.6c0.1-0.1,0.2-0.2,0.2-0.3c0.1-0.1,0.1-0.2,0.2-0.4c0-0.1,0.1-0.2,0.1-0.4c0-0.1,0-0.3,0-0.4s0-0.3,0-0.4
		C44.3,22.6,44.3,22.4,44.2,22.3z"/>
</g>
</svg>
