<?xml version="1.0" encoding="utf-8"?>
<!-- Generator: Adobe Illustrator 22.0.0, SVG Export Plug-In . SVG Version: 6.00 Build 0)  -->
<svg version="1.1" id="lni_lni-mashroom" xmlns="http://www.w3.org/2000/svg" xmlns:xlink="http://www.w3.org/1999/xlink" x="0px"
	 y="0px" viewBox="0 0 64 64" style="enable-background:new 0 0 64 64;" xml:space="preserve">
<g>
	<path d="M54.3,15.1C49.9,6.9,41.4,1.8,32,1.8c-9.4,0-17.9,5.1-22.3,13.4C7.9,18.6,7,22.1,6.9,25.8c0,0,0,0,0,0.1v0.2
		c0,0.3,0.1,0.6,0.2,0.9c2.2,4.9,8.2,8.6,15.8,10.2l-1.6,15.1c-0.3,2.5,0.5,5,2.2,6.9s4.1,3,6.6,3h3.7c2.5,0,5-1.1,6.6-3
		c1.7-1.9,2.5-4.4,2.2-6.9l-1.6-15.1c7.6-1.7,13.5-5.4,15.7-10.2c0.1-0.3,0.2-0.7,0.2-1C57,22.2,56,18.5,54.3,15.1z M38.3,52.8
		c0.1,1.3-0.3,2.5-1.1,3.4s-2,1.5-3.3,1.5h-3.7c-1.3,0-2.4-0.5-3.3-1.5s-1.2-2.2-1.1-3.4L27.4,38c1.5,0.2,3,0.2,4.6,0.2
		c1.6,0,3.2-0.1,4.7-0.3L38.3,52.8z M32,33.7c-10.7,0-18.4-4-20.6-8.1c0.1-2.9,0.9-5.6,2.3-8.3c3.6-6.8,10.6-11,18.3-11
		c7.7,0,14.7,4.2,18.3,11c1.4,2.6,2.2,5.4,2.3,8.4C50.3,29.7,42.7,33.7,32,33.7z"/>
	<circle cx="21.9" cy="24.4" r="2.3"/>
	<circle cx="42.2" cy="24.4" r="2.3"/>
	<circle cx="32" cy="14.2" r="2.3"/>
</g>
</svg>
