<?xml version="1.0" encoding="utf-8"?>
<!-- Generator: Adobe Illustrator 22.0.0, SVG Export Plug-In . SVG Version: 6.00 Build 0)  -->
<svg version="1.1" id="lni_lni-sprout" xmlns="http://www.w3.org/2000/svg" xmlns:xlink="http://www.w3.org/1999/xlink" x="0px"
	 y="0px" viewBox="0 0 64 64" style="enable-background:new 0 0 64 64;" xml:space="preserve">
<path d="M62,12.8c0.1-0.7-0.2-1.4-0.6-1.8c-0.5-0.5-1.2-0.7-1.8-0.6c-0.6,0.1-14.4,1.7-21.1,8.4C36.2,21,34.5,24,33.3,27
	c-1-4.8-3.2-12.4-7.7-16.9C18.9,3.5,5.1,1.8,4.5,1.8C3.8,1.7,3.2,1.9,2.7,2.4C2.2,2.9,2,3.6,2,4.3c0.1,0.6,1.7,14.4,8.4,21.1
	c5.3,5.3,14.9,7.4,19.1,8.1V60c0,1.2,1,2.3,2.3,2.3s2.3-1,2.3-2.3V42.1c3.9-0.6,14.1-2.7,19.6-8.2C60.3,27.2,61.9,13.4,62,12.8z
	 M13.6,22.1C9.7,18.2,7.8,10.8,7,6.7c4.1,0.8,11.5,2.7,15.4,6.6c3.9,3.9,5.8,11.3,6.6,15.4C24.9,28,17.5,26.1,13.6,22.1z M35,37.4
	c0.8-4.1,2.7-11.5,6.6-15.4s11.3-5.8,15.4-6.6c-0.8,4.1-2.7,11.5-6.6,15.4S39.1,36.6,35,37.4z"/>
</svg>
