<?xml version="1.0" encoding="utf-8"?>
<!-- Generator: Adobe Illustrator 22.0.0, SVG Export Plug-In . SVG Version: 6.00 Build 0)  -->
<svg version="1.1" id="lni_lni-tree" xmlns="http://www.w3.org/2000/svg" xmlns:xlink="http://www.w3.org/1999/xlink" x="0px"
	 y="0px" viewBox="0 0 64 64" style="enable-background:new 0 0 64 64;" xml:space="preserve">
<path d="M46.9,25.8c0-11.6-6-24-14.9-24c-8.9,0-14.9,12.4-14.9,24c0,11.3,5.4,20.3,12.7,21.9V60c0,1.2,1,2.3,2.3,2.3
	c1.2,0,2.3-1,2.3-2.3V47.7C41.5,46.1,46.9,37.1,46.9,25.8z M34.2,43v-5.9c0-1.2-1-2.3-2.3-2.3c-1.2,0-2.3,1-2.3,2.3V43
	c-4.6-1.8-8.2-8.9-8.2-17.2c0-10,5.1-19.5,10.4-19.5s10.4,9.5,10.4,19.5C42.4,34,38.8,41.2,34.2,43z"/>
</svg>
