<?xml version="1.0" encoding="utf-8"?>
<!-- Generator: Adobe Illustrator 25.2.1, SVG Export Plug-In . SVG Version: 6.00 Build 0)  -->
<svg version="1.1" id="lni_lni-ambulance" xmlns="http://www.w3.org/2000/svg" xmlns:xlink="http://www.w3.org/1999/xlink" x="0px"
	 y="0px" viewBox="0 0 64 64" style="enable-background:new 0 0 64 64;" xml:space="preserve">
<g>
	<path d="M57.1,9.8H25.9c-2.8,0-5.1,2.4-5.1,5.3v2.6h-3.4v-2c0-1.2-1-2.2-2.2-2.2s-2.2,1-2.2,2.2v2H9.6c-1.4,0-2.7,0.9-3.2,2.3
		L1.9,32.3l-0.4,1.1l0.8,1.1V45c0,2,1.6,3.6,3.6,3.6h0.5c1,3.3,4,5.7,7.6,5.7c3.6,0,6.6-2.4,7.6-5.7h20.9c1,3.3,4,5.7,7.6,5.7
		c3.6,0,6.6-2.4,7.6-5.7l1.7,0c1.6,0,3-1.4,3-3V15.1C62.2,12.2,60,9.8,57.1,9.8z M10.4,22.2h10.4v8.7H7.2L10.4,22.2z M14,49.7
		c-1.9,0-3.4-1.6-3.4-3.5s1.5-3.5,3.4-3.5c1.9,0,3.4,1.6,3.4,3.5S15.9,49.7,14,49.7z M14,38.3c-3.2,0-6,2-7.2,4.8v-7.6h14v6.8
		C19.4,39.8,16.9,38.3,14,38.3z M50.1,49.7c-1.9,0-3.4-1.6-3.4-3.5s1.5-3.5,3.4-3.5s3.4,1.6,3.4,3.5S51.9,49.7,50.1,49.7z
		 M50.1,38.3c-3.6,0-6.7,2.5-7.6,5.8H25.3v-29c0-0.5,0.3-0.8,0.6-0.8h31.3c0.3,0,0.6,0.4,0.6,0.9v28.9l-0.1,0
		C56.7,40.7,53.7,38.3,50.1,38.3z"/>
	<path d="M46.8,25.6h-3v-3c0-1.2-1-2.2-2.2-2.2s-2.2,1-2.2,2.2v3h-3c-1.2,0-2.2,1-2.2,2.2s1,2.2,2.2,2.2h3v3c0,1.2,1,2.2,2.2,2.2
		s2.2-1,2.2-2.2v-3h3c1.2,0,2.2-1,2.2-2.2S48,25.6,46.8,25.6z"/>
</g>
</svg>
