<?xml version="1.0" encoding="utf-8"?>
<!-- Generator: Adobe Illustrator 25.2.1, SVG Export Plug-In . SVG Version: 6.00 Build 0)  -->
<svg version="1.1" id="lni_lni-basketball" xmlns="http://www.w3.org/2000/svg" xmlns:xlink="http://www.w3.org/1999/xlink" x="0px"
	 y="0px" viewBox="0 0 64 64" style="enable-background:new 0 0 64 64;" xml:space="preserve">
<path d="M56.6,14.5c-3.8-5.3-9.3-9.3-15.5-11.3c-4.1-1.3-8.4-1.7-12.9-1.2c-5.2,0.7-9.9,2.5-13.9,5.4c-4.2,3-7.4,6.8-9.6,11.4
	c-1.9,4.1-3,8.4-3,12.5c-0.1,6.6,1.8,13,5.6,18.3c3.9,5.4,9.2,9.3,15.5,11.3c3,0.9,6,1.4,9.1,1.4c1.2,0,2.5-0.1,3.7-0.2
	c5.2-0.7,9.9-2.5,13.9-5.4c4.2-3,7.4-6.8,9.6-11.4c1.9-4.1,3-8.4,3-12.5C62.4,26.2,60.4,19.9,56.6,14.5z M57.7,32.7
	c0,1.3-0.2,2.6-0.4,3.9C51.8,37.2,46.6,39,41.9,42l-6.7-9.4l19-13.6C56.6,23.2,57.8,27.8,57.7,32.7z M51.6,15.4l-19,13.6l-6.6-9.3
	c4.3-3.5,7.8-8,10.2-13c1.2,0.2,2.4,0.5,3.6,0.8C44.4,8.9,48.5,11.7,51.6,15.4z M28.8,6.4c0.8-0.1,1.7-0.1,2.5-0.1
	c-2,3.7-4.7,7-8,9.7l-4.4-6.2C21.9,8,25.2,6.9,28.8,6.4z M15.3,12.4l4.4,6.2C16.1,20.8,12,22.3,7.9,23c0.3-0.8,0.6-1.6,1-2.3
	C10.4,17.5,12.6,14.7,15.3,12.4z M6.3,31.3c0-1.2,0.1-2.4,0.4-3.6c5.6-0.6,10.9-2.5,15.7-5.5l6.6,9.3l-19,13.6
	C7.4,41,6.2,36.2,6.3,31.3z M12.5,48.8l19-13.6l6.7,9.4c-4.3,3.5-7.8,7.9-10.2,12.9c-1.3-0.2-2.6-0.5-3.8-0.9
	C19.6,55.1,15.6,52.5,12.5,48.8z M35.2,57.6c-0.7,0.1-1.5,0.1-2.2,0.2c2-3.6,4.7-6.8,7.9-9.5l4.2,6C42.1,55.9,38.8,57.1,35.2,57.6z
	 M48.7,51.6l-4.2-5.9C48,43.5,51.9,42,56,41.3c-0.3,0.7-0.5,1.3-0.8,2C53.6,46.5,51.4,49.3,48.7,51.6z"/>
</svg>
