<?xml version="1.0" encoding="utf-8"?>
<!-- Generator: Adobe Illustrator 25.2.1, SVG Export Plug-In . SVG Version: 6.00 Build 0)  -->
<svg version="1.1" id="lni_lni-capsule" xmlns="http://www.w3.org/2000/svg" xmlns:xlink="http://www.w3.org/1999/xlink" x="0px"
	 y="0px" viewBox="0 0 64 64" style="enable-background:new 0 0 64 64;" xml:space="preserve">
<g>
	<g>
		<path d="M20.9,62.2c-4.9,0-9.8-1.9-13.5-5.6l0,0l0,0C3.7,53,1.8,48.2,1.8,43.1c0-5.1,2-9.9,5.6-13.5L29.6,7.4
			c3.6-3.6,8.4-5.6,13.5-5.6c5.1,0,9.9,2,13.5,5.6c7.5,7.5,7.5,19.6,0,27.1L34.4,56.6C30.7,60.4,25.8,62.2,20.9,62.2z M20,23.2
			l-9.5,9.5c-2.8,2.8-4.3,6.4-4.3,10.4c0,3.9,1.5,7.6,4.3,10.4l0,0c2.8,2.8,6.4,4.3,10.4,4.3c3.9,0,7.6-1.5,10.4-4.3l9.5-9.5
			L20,23.2z M23.2,20L44,40.8l9.5-9.5c2.8-2.8,4.3-6.4,4.3-10.4c0-3.9-1.5-7.6-4.3-10.4S47,6.2,43.1,6.2c-3.9,0-7.6,1.5-10.4,4.3
			L23.2,20z"/>
	</g>
</g>
</svg>
