<?xml version="1.0" encoding="utf-8"?>
<!-- Generator: Adobe Illustrator 25.2.1, SVG Export Plug-In . SVG Version: 6.00 Build 0)  -->
<svg version="1.1" id="lni_lni-dumbbell" xmlns="http://www.w3.org/2000/svg" xmlns:xlink="http://www.w3.org/1999/xlink" x="0px"
	 y="0px" viewBox="0 0 64 64" style="enable-background:new 0 0 64 64;" xml:space="preserve">
<path d="M61,29.8h-2.2v-0.2c0-3.9-3.2-7.2-7.2-7.2s-7.2,3.2-7.2,7.2v0.2H19.6v-0.2c0-3.9-3.2-7.2-7.2-7.2s-7.2,3.2-7.2,7.2v0.2H3
	c-1.2,0-2.2,1-2.2,2.2c0,1.2,1,2.2,2.2,2.2h2.3v0.2c0,3.9,3.2,7.2,7.2,7.2s7.2-3.2,7.2-7.2v-0.2h24.9v0.2c0,3.9,3.2,7.2,7.2,7.2
	s7.2-3.2,7.2-7.2v-0.2H61c1.2,0,2.2-1,2.2-2.2C63.2,30.8,62.2,29.8,61,29.8z M15.1,34.5c0,1.5-1.2,2.7-2.7,2.7s-2.7-1.2-2.7-2.7
	v-4.9c0-1.5,1.2-2.7,2.7-2.7s2.7,1.2,2.7,2.7V34.5z M54.3,34.5c0,1.5-1.2,2.7-2.7,2.7S49,35.9,49,34.5v-4.9c0-1.5,1.2-2.7,2.7-2.7
	s2.7,1.2,2.7,2.7V34.5z"/>
</svg>
