<?xml version="1.0" encoding="utf-8"?>
<!-- Generator: Adobe Illustrator 25.2.1, SVG Export Plug-In . SVG Version: 6.00 Build 0)  -->
<svg version="1.1" id="lni_lni-first-aid" xmlns="http://www.w3.org/2000/svg" xmlns:xlink="http://www.w3.org/1999/xlink" x="0px"
	 y="0px" viewBox="0 0 64 64" style="enable-background:new 0 0 64 64;" xml:space="preserve">
<g>
	<path d="M26.9,31.7h2.8v2.8c0,1.2,1,2.2,2.2,2.2c1.2,0,2.2-1,2.2-2.2v-2.8h2.8c1.2,0,2.2-1,2.2-2.2s-1-2.2-2.2-2.2h-2.8v-2.8
		c0-1.2-1-2.2-2.2-2.2c-1.2,0-2.2,1-2.2,2.2v2.8h-2.8c-1.2,0-2.2,1-2.2,2.2S25.7,31.7,26.9,31.7z"/>
	<path d="M56.1,14.5H41.9v-2.8c0-4-3.3-7.3-7.3-7.3h-5.1c-4,0-7.3,3.3-7.3,7.3v2.8H7.9c-3.4,0-6.1,2.7-6.1,6.1v12.1
		c0,2,1,3.8,2.5,4.8V54c0,3.1,2.5,5.7,5.6,5.7h44.3c3.1,0,5.6-2.6,5.6-5.7V37.5c1.5-1.1,2.5-2.9,2.5-4.9V20.6
		C62.2,17.2,59.5,14.5,56.1,14.5z M26.6,11.6c0-1.6,1.3-2.8,2.8-2.8h5.1c1.6,0,2.8,1.3,2.8,2.8v2.8H26.6V11.6z M6.2,20.6
		C6.2,19.7,7,19,7.9,19h14.3h19.8h14.3c0.9,0,1.6,0.7,1.6,1.6v12.1c0,0.7-0.5,1.3-1,1.4c-1,0.1-1.8,0.3-2.5,0.5l-14.8,4.1
		c-4.9,1.4-10.1,1.4-15,0L9.7,34.5c-0.7-0.2-1.4-0.3-2-0.4l-0.2,0c-0.7-0.2-1.2-0.7-1.2-1.4V20.6z M54.1,55.2H9.9
		c-0.6,0-1.1-0.5-1.1-1.2V39l14.4,4c2.9,0.8,5.8,1.2,8.7,1.2s5.9-0.4,8.7-1.2l14.5-4.1V54C55.2,54.7,54.7,55.2,54.1,55.2z"/>
</g>
</svg>
