<?xml version="1.0" encoding="utf-8"?>
<!-- Generator: Adobe Illustrator 25.2.1, SVG Export Plug-In . SVG Version: 6.00 Build 0)  -->
<svg version="1.1" id="lni_lni-heart-monitor" xmlns="http://www.w3.org/2000/svg" xmlns:xlink="http://www.w3.org/1999/xlink"
	 x="0px" y="0px" viewBox="0 0 64 64" style="enable-background:new 0 0 64 64;" xml:space="preserve">
<path d="M42.3,17L39.8,5.6c-0.5-2.3-2.5-3.8-4.8-3.8h-6c-2.3,0-4.3,1.6-4.8,3.8L21.6,17c-3.3,0.2-5.9,2.9-5.9,6.2v17.5
	c0,3.3,2.6,6,5.9,6.2l2.6,11.5c0.5,2.3,2.5,3.8,4.8,3.8h6c2.3,0,4.3-1.6,4.8-3.8L42.3,47c3.3-0.2,5.9-2.9,5.9-6.2V23.3
	C48.2,19.9,45.6,17.2,42.3,17z M28.6,6.6c0-0.2,0.2-0.3,0.4-0.3h6c0.2,0,0.4,0.1,0.4,0.3L37.7,17H26.2L28.6,6.6z M22,21.5h20
	c1,0,1.8,0.8,1.8,1.8v8.3l-7-4c-0.7-0.4-1.5-0.4-2.2,0l-7.6,4.3l-6.7-3.8v-4.8C20.2,22.3,21,21.5,22,21.5z M35.4,57.4
	c0,0.2-0.2,0.3-0.4,0.3h-6c-0.2,0-0.4-0.1-0.4-0.3L26.2,47h11.5L35.4,57.4z M42,42.5H22c-1,0-1.8-0.8-1.8-1.8v-7.4l5.5,3.2
	c0.7,0.4,1.5,0.4,2.2,0l7.6-4.3l8.2,4.7v3.9C43.8,41.7,43,42.5,42,42.5z"/>
</svg>
