<?xml version="1.0" encoding="utf-8"?>
<!-- Generator: Adobe Illustrator 25.2.1, SVG Export Plug-In . SVG Version: 6.00 Build 0)  -->
<svg version="1.1" id="lni_lni-hospital" xmlns="http://www.w3.org/2000/svg" xmlns:xlink="http://www.w3.org/1999/xlink" x="0px"
	 y="0px" viewBox="0 0 64 64" style="enable-background:new 0 0 64 64;" xml:space="preserve">
<g>
	<path d="M55.3,20.3L35.7,3.1c-2.1-1.8-5.3-1.8-7.4,0L8.7,20.3c-1.2,1.1-1.9,2.6-1.9,4.2v32.2c0,3.1,2.5,5.6,5.6,5.6H21
		c3.1,0,5.6-2.5,5.6-5.6V45.5c0-0.6,0.5-1.1,1.1-1.1h8.6c0.6,0,1.1,0.5,1.1,1.1v11.1c0,3.1,2.5,5.6,5.6,5.6h8.6
		c3.1,0,5.6-2.5,5.6-5.6V24.5C57.2,22.9,56.5,21.3,55.3,20.3z M52.7,56.7c0,0.6-0.5,1.1-1.1,1.1H43c-0.6,0-1.1-0.5-1.1-1.1V45.5
		c0-3.1-2.5-5.6-5.6-5.6h-8.6c-3.1,0-5.6,2.5-5.6,5.6v11.1c0,0.6-0.5,1.1-1.1,1.1h-8.6c-0.6,0-1.1-0.5-1.1-1.1V24.5
		c0-0.3,0.1-0.6,0.4-0.8L31.3,6.5c0.4-0.4,1-0.4,1.4,0l19.6,17.1c0.2,0.2,0.4,0.5,0.4,0.8V56.7z"/>
	<path d="M37.1,19.5c-1.2,0-2.2,1-2.2,2.2v2.8h-5.7v-2.8c0-1.2-1-2.2-2.2-2.2s-2.2,1-2.2,2.2V32c0,1.2,1,2.2,2.2,2.2s2.2-1,2.2-2.2
		v-2.8h5.7V32c0,1.2,1,2.2,2.2,2.2s2.2-1,2.2-2.2V21.8C39.3,20.5,38.3,19.5,37.1,19.5z"/>
</g>
</svg>
