<?xml version="1.0" encoding="utf-8"?>
<!-- Generator: Adobe Illustrator 25.2.1, SVG Export Plug-In . SVG Version: 6.00 Build 0)  -->
<svg version="1.1" id="lni_lni-microscope" xmlns="http://www.w3.org/2000/svg" xmlns:xlink="http://www.w3.org/1999/xlink" x="0px"
	 y="0px" viewBox="0 0 64 64" style="enable-background:new 0 0 64 64;" xml:space="preserve">
<path d="M47.5,57.7H36.9v-5.7c0.3,0,0.5,0,0.8-0.1c9.8-1.2,17.2-10.1,17.2-20.6c0-6-2.3-11.4-6.4-15.3c-0.4-0.4-0.8-0.7-1.2-1.1
	l1.6-2.5c0.9-1.4,1.2-3.1,0.9-4.7c-0.3-1.6-1.3-3-2.7-3.9l-1.6-1.1c-1.4-0.9-3.1-1.2-4.7-0.9c-1.6,0.3-3,1.3-3.9,2.7L25.7,21.5
	c-1.9,2.9-1.1,6.8,1.8,8.6l1.6,1.1h0c1.1,0.7,2.2,1,3.4,1c2,0,4-1,5.2-2.8l7-10.7c0.2,0.2,0.4,0.3,0.6,0.5c3.3,3.1,5,7.4,5,12.1
	c0,8.3-5.7,15.2-13.2,16.1c-0.6,0.1-1.2,0.1-1.8,0.1c-0.8,0-1.5,0-2.2-0.2c-3.8-0.6-7.2-2.7-9.5-5.9h7c1.2,0,2.2-1,2.2-2.2
	s-1-2.2-2.2-2.2H11.4c-1.2,0-2.2,1-2.2,2.2s1,2.2,2.2,2.2h6.9c2.9,5.5,8.1,9.4,14,10.3v5.8H21.7c-1.2,0-2.2,1-2.2,2.2s1,2.2,2.2,2.2
	h25.8c1.2,0,2.2-1,2.2-2.2S48.8,57.7,47.5,57.7z M34,27c-0.5,0.8-1.6,1-2.4,0.5L30,26.4c-0.8-0.5-1-1.6-0.5-2.4L40.5,7.1
	c0.3-0.4,0.6-0.7,1.1-0.8c0.1,0,0.2,0,0.4,0c0.3,0,0.7,0.1,1,0.3l1.6,1.1c0.4,0.3,0.7,0.6,0.8,1.1c0.1,0.5,0,0.9-0.2,1.3L34,27z"/>
</svg>
