<?xml version="1.0" encoding="utf-8"?>
<!-- Generator: Adobe Illustrator 25.2.1, SVG Export Plug-In . SVG Version: 6.00 Build 0)  -->
<svg version="1.1" id="lni_lni-pulse" xmlns="http://www.w3.org/2000/svg" xmlns:xlink="http://www.w3.org/1999/xlink" x="0px"
	 y="0px" viewBox="0 0 64 64" style="enable-background:new 0 0 64 64;" xml:space="preserve">
<g>
	<path d="M35.6,49.5C35.6,49.5,35.6,49.5,35.6,49.5c-2.2,0-3.9-1.3-4.6-3.3l-8.8-27.3l0,0l-9.9,22.7c-0.8,1.7-2.5,2.9-4.4,2.9H4
		c-1.2,0-2.2-1-2.2-2.2S2.8,40,4,40h3.9c0.1,0,0.2-0.1,0.3-0.2l9.9-22.6c0.6-1.7,2.4-2.8,4.3-2.7c1.9,0,3.6,1.2,4.2,3l8.8,27.3
		c0,0.1,0.1,0.2,0.3,0.2c0,0,0,0,0,0c0.2,0,0.3-0.1,0.3-0.2l3.6-9.8c0.7-1.5,2.1-2.6,3.8-2.8l0.2,0c1.6-0.1,3.2,0.7,4.2,2.2l0.1,0.2
		l4.1,7.8c0,0.1,0.2,0.2,0.3,0.2h8c1.2,0,2.2,1,2.2,2.2S61.2,47,60,47h-8c-1.8,0-3.4-1-4.3-2.6l-4-7.7c0,0,0,0,0,0
		c0,0-0.1,0-0.1,0.1l-3.5,9.6C39.4,48.3,37.7,49.5,35.6,49.5z M22.2,18.9L22.2,18.9C22.2,19,22.2,19,22.2,18.9L22.2,18.9z"/>
</g>
</svg>
