<?xml version="1.0" encoding="utf-8"?>
<!-- Generator: Adobe Illustrator 25.2.1, SVG Export Plug-In . SVG Version: 6.00 Build 0)  -->
<svg version="1.1" id="lni_lni-skipping-rope" xmlns="http://www.w3.org/2000/svg" xmlns:xlink="http://www.w3.org/1999/xlink"
	 x="0px" y="0px" viewBox="0 0 64 64" style="enable-background:new 0 0 64 64;" xml:space="preserve">
<path d="M54.6,42.5h-7c-3.3,0-6.2,2.1-7.2,5.1h-21c-3.7,0-6.7-3-6.7-6.7s3-6.7,6.7-6.7h25.3c6.2,0,11.2-5,11.2-11.2
	s-5-11.2-11.2-11.2H24.1c0-4.2-3.5-7.6-7.7-7.6h-7c-4.2,0-7.7,3.4-7.7,7.7v1.9c0,4.2,3.4,7.7,7.7,7.7h7c3.3,0,6.2-2.1,7.2-5.1h21
	c3.7,0,6.7,3,6.7,6.7s-3,6.7-6.7,6.7H19.3c-6.2,0-11.2,5-11.2,11.2s5,11.2,11.2,11.2h20.6c0,4.2,3.5,7.6,7.7,7.6h7
	c4.2,0,7.7-3.4,7.7-7.7v-1.9C62.2,45.9,58.8,42.5,54.6,42.5z M19.6,13.8c0,1.8-1.4,3.2-3.2,3.2h-7c-1.8,0-3.2-1.4-3.2-3.2V12
	c0-1.8,1.4-3.2,3.2-3.2h7c1.8,0,3.2,1.4,3.2,3.2V13.8z M57.8,52c0,1.8-1.4,3.2-3.2,3.2h-7c-1.8,0-3.2-1.4-3.2-3.2v-1.9
	c0-1.8,1.4-3.2,3.2-3.2h7c1.8,0,3.2,1.4,3.2,3.2V52z"/>
</svg>
