<?xml version="1.0" encoding="utf-8"?>
<!-- Generator: Adobe Illustrator 25.2.1, SVG Export Plug-In . SVG Version: 6.00 Build 0)  -->
<svg version="1.1" id="lni_lni-slim" xmlns="http://www.w3.org/2000/svg" xmlns:xlink="http://www.w3.org/1999/xlink" x="0px"
	 y="0px" viewBox="0 0 64 64" style="enable-background:new 0 0 64 64;" xml:space="preserve">
<g>
	<path d="M9.9,26.6c-0.9-0.9-2.3-0.9-3.2,0c-0.9,0.9-0.9,2.3,0,3.2l1.4,1.4H3c-1.2,0-2.2,1-2.2,2.2c0,1.2,1,2.2,2.2,2.2h5.1
		l-1.4,1.4c-0.9,0.9-0.9,2.3,0,3.2c0.4,0.4,1,0.7,1.6,0.7c0.6,0,1.2-0.2,1.6-0.7l5.2-5.2c0.9-0.9,0.9-2.3,0-3.2L9.9,26.6z"/>
	<path d="M61,31.2h-5.1l1.4-1.4c0.9-0.9,0.9-2.3,0-3.2c-0.9-0.9-2.3-0.9-3.2,0l-5.2,5.2c-0.9,0.9-0.9,2.3,0,3.2l5.2,5.2
		c0.4,0.4,1,0.7,1.6,0.7c0.6,0,1.2-0.2,1.6-0.7c0.9-0.9,0.9-2.3,0-3.2l-1.4-1.4H61c1.2,0,2.2-1,2.2-2.2C63.2,32.2,62.2,31.2,61,31.2
		z"/>
	<path d="M44.7,26.2c-1.2-5.4,1.8-14.2,1.8-14.3c0.4-1.2-0.2-2.5-1.4-2.9c-1.2-0.4-2.5,0.2-2.9,1.4c-0.1,0.4-3.4,10.1-2,16.7
		c0.2,0.8,0.4,1.6,0.6,2.3c-0.8,0.1-1.6,0.2-2.5,0.3c-2.1,0.3-4.2,0.6-6.3,0.6c-2.2,0-4.4-0.3-6.5-0.6c-0.9-0.1-1.8-0.3-2.7-0.4
		c0.2-0.7,0.4-1.5,0.5-2.3c1.5-6.6-1.8-16.3-2-16.7C21,9.2,19.8,8.6,18.6,9c-1.2,0.4-1.8,1.7-1.4,2.9c0,0.1,3,8.9,1.8,14.3
		c-0.6,2.6-1.2,4.7-1.8,6.6c-0.8,2.5-1.4,4.6-1.4,6.5c0,3,2.7,12.4,3.3,14.3c0.3,1,1.2,1.6,2.2,1.6c0.2,0,0.4,0,0.6-0.1
		c1.2-0.4,1.9-1.6,1.5-2.8c-0.7-2.5-1.8-6.2-2.4-9.1c0.6-0.2,1.9-0.5,4.2-0.5c2.1,0,4.1,1.1,4.6,1.7v7c0,1.2,1,2.2,2.2,2.2
		c1.2,0,2.2-1,2.2-2.2v-7.1c0,0,0,0,0,0c0.1-0.4,1.4-1.5,3.4-1.5c2.5,0,4.2,0.3,5,0.5c-0.7,2.9-1.7,6.6-2.4,9.1
		c-0.3,1.2,0.3,2.4,1.5,2.8c0.2,0.1,0.4,0.1,0.6,0.1c1,0,1.9-0.6,2.2-1.6c0.5-1.9,3.3-11.3,3.3-14.3c0-1.9-0.6-4-1.4-6.5
		C45.9,30.9,45.2,28.7,44.7,26.2z M31.8,40.2c-1.8-1.2-4.3-2-6.6-2c-1.9,0-3.5,0.2-4.8,0.5c0.1-1.2,0.6-2.7,1.2-4.6
		c0-0.1,0.1-0.2,0.1-0.3c1,0.1,2.1,0.3,3.3,0.4c2.2,0.3,4.6,0.7,7.1,0.7c2.5,0,4.9-0.4,7-0.7c1.1-0.2,2.1-0.3,3-0.4
		c0,0.1,0.1,0.2,0.1,0.2c0.6,1.9,1,3.4,1.2,4.6c-2.1-0.5-4.5-0.5-5.7-0.5C35.4,38.2,33.2,39,31.8,40.2z"/>
	<path d="M32,27.4c2.6,0.1,3-4,0.4-4.5C29.3,22.3,28.8,27.4,32,27.4z"/>
</g>
</svg>
