<?xml version="1.0" encoding="utf-8"?>
<!-- Generator: Adobe Illustrator 25.2.1, SVG Export Plug-In . SVG Version: 6.00 Build 0)  -->
<svg version="1.1" id="lni_lni-sthethoscope" xmlns="http://www.w3.org/2000/svg" xmlns:xlink="http://www.w3.org/1999/xlink"
	 x="0px" y="0px" viewBox="0 0 64 64" style="enable-background:new 0 0 64 64;" xml:space="preserve">
<path d="M55.4,1.8H49c-1.2,0-2.2,1-2.2,2.2v2.5c0,1.2,1,2.2,2.2,2.2s2.2-1,2.2-2.2V6.2h3.1v17.4c0,6.2-5,11.2-11.2,11.2h-1.1
	c-6.2,0-11.2-5-11.2-11.2V6.2h3.1v0.3c0,1.2,1,2.2,2.2,2.2s2.2-1,2.2-2.2V4c0-1.2-1-2.2-2.2-2.2h-6.4c-1.9,0-3.5,1.6-3.5,3.5v18.4
	c0,8.5,6.8,15.4,15.3,15.7V52c0,3.2-2.4,5.8-5.4,5.8H21.4c-3.2,0-5.8-2.6-5.8-5.8v-8.2c3.6-1,6.3-4.2,6.3-8.1c0-4.6-3.8-8.4-8.4-8.4
	c-4.6,0-8.4,3.8-8.4,8.4c0,3.8,2.6,7.1,6.1,8.1V52c0,5.7,4.6,10.3,10.3,10.3h14.8c5.5,0,9.9-4.6,9.9-10.3V39
	c7.2-1.4,12.7-7.8,12.7-15.4V5.3C58.9,3.3,57.3,1.8,55.4,1.8z M9.6,35.6c0-2.2,1.8-3.9,3.9-3.9s3.9,1.8,3.9,3.9
	c0,2.2-1.8,3.9-3.9,3.9S9.6,37.8,9.6,35.6z"/>
</svg>
