<?xml version="1.0" encoding="utf-8"?>
<!-- Generator: Adobe Illustrator 25.2.1, SVG Export Plug-In . SVG Version: 6.00 Build 0)  -->
<svg version="1.1" id="lni_lni-syringe" xmlns="http://www.w3.org/2000/svg" xmlns:xlink="http://www.w3.org/1999/xlink" x="0px"
	 y="0px" viewBox="0 0 64 64" style="enable-background:new 0 0 64 64;" xml:space="preserve">
<path d="M61.6,15.3L48.7,2.4c-0.9-0.9-2.3-0.9-3.2,0s-0.9,2.3,0,3.2l4.8,4.8l-4.9,4.9l-1-1c-3-3-7.9-3-10.9,0L15.6,32.4
	c-1.8,1.8-2.5,4.3-2.1,6.7L11,41.5C9.6,43,8.8,44.9,8.8,47c0,1.4,0.4,2.8,1.1,4l-7.5,7.5c-0.9,0.9-0.9,2.3,0,3.2
	c0.4,0.4,1,0.7,1.6,0.7c0.6,0,1.2-0.2,1.6-0.7l7.5-7.5c1.2,0.7,2.5,1.1,4,1.1c2.1,0,4-0.8,5.5-2.3l2.4-2.4c0.4,0.1,0.8,0.1,1.3,0.1
	c2,0,3.9-0.8,5.5-2.3l18.1-18.1c3-3,3-7.9,0-10.9l-1-1l4.9-4.9l4.8,4.8c0.4,0.4,1,0.7,1.6,0.7s1.2-0.2,1.6-0.7
	C62.5,17.6,62.5,16.1,61.6,15.3z M14.8,49.8l-0.5-0.5c-0.6-0.6-0.9-1.4-0.9-2.3s0.3-1.7,0.9-2.3l1.4-1.4l5.1,5.1l-1.4,1.4
	C18.1,51,16,51,14.8,49.8z M46.5,27.2L28.4,45.2c-1.3,1.2-3.3,1.3-4.5,0l-5.1-5.1c-1.3-1.3-1.3-3.3,0-4.5l18.1-18.1
	c1.3-1.3,3.3-1.3,4.5,0l5.1,5.1C47.8,23.9,47.8,25.9,46.5,27.2z"/>
</svg>
