<?xml version="1.0" encoding="utf-8"?>
<!-- Generator: Adobe Illustrator 25.2.1, SVG Export Plug-In . SVG Version: 6.00 Build 0)  -->
<svg version="1.1" id="lni_lni-weight" xmlns="http://www.w3.org/2000/svg" xmlns:xlink="http://www.w3.org/1999/xlink" x="0px"
	 y="0px" viewBox="0 0 64 64" style="enable-background:new 0 0 64 64;" xml:space="preserve">
<g>
	<path d="M53.5,1.8H10.5C7.1,1.8,4.3,4.6,4.3,8v48c0,3.4,2.8,6.2,6.2,6.2h42.9c3.4,0,6.2-2.8,6.2-6.2V8C59.7,4.6,56.9,1.8,53.5,1.8z
		 M55.2,56c0,1-0.8,1.8-1.8,1.8H10.5c-1,0-1.8-0.8-1.8-1.8V8c0-1,0.8-1.8,1.8-1.8h42.9c1,0,1.8,0.8,1.8,1.8V56z"/>
	<path d="M45.8,14c-9.2-1.7-18.5-1.7-27.6,0c-0.9,0.2-1.8,0.7-2.3,1.5c-0.5,0.7-0.6,1.6-0.5,2.4l1.9,9.3c0.3,1.5,1.7,2.6,3.2,2.6
		c0.2,0,0.4,0,0.6-0.1c7.2-1.4,14.5-1.4,21.7,0c0,0,0,0,0,0c1.7,0.3,3.5-0.8,3.8-2.5l1.9-9.3c0.2-0.8,0-1.7-0.5-2.4
		C47.6,14.8,46.8,14.2,45.8,14z M42.5,25.1c-2.9-0.5-5.9-0.8-8.8-0.9l-1.2-3.6c-0.4-1.2-1.7-1.8-2.9-1.4c-1.2,0.4-1.8,1.7-1.4,2.9
		l0.7,2.1c-2.5,0.1-5,0.4-7.5,0.8l-1.4-6.9c7.9-1.4,15.9-1.4,23.8,0L42.5,25.1z"/>
</g>
</svg>
