<?xml version="1.0" encoding="utf-8"?>
<!-- Generator: Adobe Illustrator 25.2.1, SVG Export Plug-In . SVG Version: 6.00 Build 0)  -->
<svg version="1.1" id="lni_lni-wheelchair" xmlns="http://www.w3.org/2000/svg" xmlns:xlink="http://www.w3.org/1999/xlink" x="0px"
	 y="0px" viewBox="0 0 64 64" style="enable-background:new 0 0 64 64;" xml:space="preserve">
<g>
	<path d="M40.2,52.3c-3.1,3.5-7.6,5.4-12.3,5.4c-9.2,0-16.7-7.5-16.7-16.7c0-5.4,2.5-10.3,6.8-13.4c1-0.7,1.2-2.1,0.5-3.1
		c-0.7-1-2.1-1.2-3.1-0.5c-5.4,3.9-8.6,10.3-8.6,17c0,11.7,9.5,21.2,21.2,21.2c6,0,11.7-2.5,15.7-6.9c0.8-0.9,0.8-2.3-0.2-3.2
		C42.5,51.3,41,51.4,40.2,52.3z"/>
	<path d="M54.9,48.9l-4,0.3L49.6,35c-0.1-1.5-1.3-2.7-2.9-2.7H26.8l-0.5-8.2h13.3c1.2,0,2.2-1,2.2-2.2s-1-2.2-2.2-2.2H26.1l-0.2-2.9
		c3.6-0.6,6.4-3.7,6.4-7.4c0-4.1-3.4-7.5-7.5-7.5c-4.1,0-7.5,3.4-7.5,7.5c0,2.9,1.7,5.5,4.1,6.7l1.1,18.1c0,1.5,1.3,2.7,2.9,2.7h20
		l1.2,14.4l0,0.3c0.3,1.4,1.5,2.4,2.9,2.4h0.1l5.7-0.5c1.2-0.1,2.2-1.2,2.1-2.4C57.2,49.7,56.1,48.8,54.9,48.9z M24.7,6.2
		c1.7,0,3,1.4,3,3s-1.4,3-3,3s-3-1.4-3-3S23.1,6.2,24.7,6.2z"/>
</g>
</svg>
