<?xml version="1.0" encoding="utf-8"?>
<!-- Generator: Adobe Illustrator 25.2.1, SVG Export Plug-In . SVG Version: 6.00 Build 0)  -->
<svg version="1.1" id="lni_lni-bricks" xmlns="http://www.w3.org/2000/svg" xmlns:xlink="http://www.w3.org/1999/xlink" x="0px"
	 y="0px" viewBox="0 0 64 64" style="enable-background:new 0 0 64 64;" xml:space="preserve">
<path d="M57,29.8h-3v-6.1c0-3.4-2.8-6.2-6.2-6.2H16.3c-3.4,0-6.2,2.8-6.2,6.2v6.1H7c-2.9,0-5.2,2.4-5.2,5.2v6.3
	c0,2.9,2.4,5.2,5.2,5.2h50c2.9,0,5.2-2.4,5.2-5.2V35C62.2,32.1,59.9,29.8,57,29.8z M49.5,23.7v6.1H34.2v-7.8h13.5
	C48.7,21.9,49.5,22.7,49.5,23.7z M39.9,34.2v7.8H24.1v-7.8H39.9z M14.5,23.7c0-1,0.8-1.8,1.8-1.8h13.5v7.8H14.5V23.7z M6.2,41.3V35
	c0-0.4,0.3-0.8,0.8-0.8h12.6v7.8H7C6.6,42.1,6.2,41.7,6.2,41.3z M57.8,41.3c0,0.4-0.3,0.8-0.8,0.8H44.4v-7.8H57
	c0.4,0,0.8,0.3,0.8,0.8V41.3z"/>
</svg>
