<?xml version="1.0" encoding="utf-8"?>
<!-- Generator: Adobe Illustrator 25.2.1, SVG Export Plug-In . SVG Version: 6.00 Build 0)  -->
<svg version="1.1" id="lni_lni-construction" xmlns="http://www.w3.org/2000/svg" xmlns:xlink="http://www.w3.org/1999/xlink"
	 x="0px" y="0px" viewBox="0 0 64 64" style="enable-background:new 0 0 64 64;" xml:space="preserve">
<path d="M57.5,24.1c2.6,0,4.8-2.2,4.8-4.8v-3.2c0-2.1-1.4-4-3.4-4.6L27.9,2c-0.5-0.1-0.9-0.2-1.4-0.2H14.2c-2.6,0-4.8,2.2-4.8,4.8
	v12.7c0,2.6,2.2,4.8,4.8,4.8H17v18.4H8c-3.4,0-6.2,2.8-6.2,6.2V56c0,3.4,2.8,6.2,6.2,6.2h22.5c3.4,0,6.3-2.8,6.3-6.2v-7.3
	c0-3.4-2.8-6.2-6.3-6.2h-9V24.1h28.6V35c0,2.1,1.5,4,3.6,4.5c2.7,0.7,4.4,3.4,3.9,6.2c-0.4,2.1-2.2,3.9-4.3,4.3
	c-1.6,0.3-3.2-0.1-4.5-1.2c-1.2-1-1.9-2.5-1.9-4.1c0-0.6,0.1-1.2,0.3-1.8c0.4-1.2-0.2-2.5-1.4-2.9c-1.2-0.4-2.5,0.2-2.9,1.4
	c-0.4,1.1-0.6,2.2-0.6,3.3c0,2.9,1.3,5.7,3.5,7.6c1.8,1.5,4,2.3,6.4,2.3c0.6,0,1.2-0.1,1.8-0.2c4-0.7,7.3-4,8-8
	c0.9-5.2-2.2-10-7.2-11.3c-0.2,0-0.2-0.1-0.2-0.2V24.1H57.5z M32.3,48.7V56c0,1-0.8,1.8-1.8,1.8H8c-1,0-1.8-0.8-1.8-1.8v-7.3
	C6.2,47.8,7,47,8,47h22.5C31.5,47,32.3,47.8,32.3,48.7z M57.8,16.1v3.2c0,0.2-0.1,0.3-0.3,0.3H29.2V7l28.4,8.7
	C57.7,15.8,57.8,15.9,57.8,16.1z M13.9,19.3V6.5c0-0.2,0.1-0.3,0.3-0.3l10.5,0v13.3H14.2C14,19.6,13.9,19.4,13.9,19.3z"/>
</svg>
