<?xml version="1.0" encoding="utf-8"?>
<!-- Generator: Adobe Illustrator 25.2.1, SVG Export Plug-In . SVG Version: 6.00 Build 0)  -->
<svg version="1.1" id="lni_lni-construction-hammer"
	 xmlns="http://www.w3.org/2000/svg" xmlns:xlink="http://www.w3.org/1999/xlink" x="0px" y="0px" viewBox="0 0 64 64"
	 style="enable-background:new 0 0 64 64;" xml:space="preserve">
<path d="M53.9,1.8H16.6c-2.9,0-5.5,1.6-6.8,4.2L3.1,19.5c-0.8,1.5-0.7,3.3,0.2,4.8c0.9,1.5,2.5,2.3,4.2,2.3h15.6V56
	c0,3.4,2.8,6.2,6.2,6.2h5.3c3.4,0,6.2-2.8,6.2-6.2V26.6h13c4.2,0,7.6-3.4,7.6-7.6V9.3C61.4,5.1,58,1.8,53.9,1.8z M36.4,56
	c0,1-0.8,1.8-1.8,1.8h-5.3c-1,0-1.8-0.8-1.8-1.8V26.6h8.8V56z M56.9,19.1c0,1.7-1.4,3.1-3.1,3.1H7.5c-0.1,0-0.3-0.1-0.3-0.2
	c-0.1-0.1-0.1-0.3,0-0.4l6.8-13.6c0.5-1,1.6-1.7,2.7-1.7h37.2c1.7,0,3.1,1.4,3.1,3.1V19.1z"/>
</svg>
