<?xml version="1.0" encoding="utf-8"?>
<!-- Generator: Adobe Illustrator 25.2.1, SVG Export Plug-In . SVG Version: 6.00 Build 0)  -->
<svg version="1.1" id="lni_lni-hammer" xmlns="http://www.w3.org/2000/svg" xmlns:xlink="http://www.w3.org/1999/xlink" x="0px"
	 y="0px" viewBox="0 0 64 64" style="enable-background:new 0 0 64 64;" xml:space="preserve">
<g>
	<path d="M10.8,28.2c0.1,0,0.1,0,0.2,0l22-0.7c0.2,0.6,0.8,1.1,1.4,1.3l2.7,0.8c0.1,3.3,2.9,6,6.2,6h4.9c3.4,0,6.2-2.8,6.2-6.2
		c0-4.9-0.1-12.6-0.1-12.6c0-0.4-0.1-10.9-11.1-14.9c-0.7-0.2-1.5-0.2-2.1,0.3c-0.6,0.4-1,1.1-1,1.8v8.3l-0.7,0.8h-4.6
		c-1.2,0-2.2,1-2.2,2.2v0.8l-21.8-0.8c-1.7-0.1-3.3,0.6-4.6,1.7c-1.2,1.2-1.9,2.8-1.9,4.5v0.4c0,1.7,0.7,3.3,1.9,4.5
		C7.7,27.5,9.2,28.2,10.8,28.2z M37.4,17.6h3.4c0.7,0,1.3-0.3,1.7-0.8l1.9-2.2c0.4-0.4,0.6-0.9,0.6-1.5V7.6c5,3.4,5.1,8.8,5.1,9.1
		c0,0,0.1,7.6,0.1,12.6c0,1-0.8,1.7-1.7,1.7h-4.9c-1,0-1.7-0.8-1.7-1.7v-1.4c0-1-0.7-1.9-1.6-2.2l-2.7-0.8V17.6z M9.1,21.5
		c0-0.5,0.2-0.9,0.5-1.3c0.3-0.3,0.8-0.5,1.3-0.5l21.9,0.8v2.4l-22,0.7c-0.5,0-0.9-0.2-1.3-0.5c-0.3-0.3-0.5-0.8-0.5-1.3V21.5z"/>
	<path d="M57,47.3h-8.7v-2.8h3.3c1.2,0,2.2-1,2.2-2.2s-1-2.2-2.2-2.2H41.4c-1.2,0-2.2,1-2.2,2.2s1,2.2,2.2,2.2h2.3v2.8H20.1v-5.5H23
		c1.2,0,2.2-1,2.2-2.2s-1-2.2-2.2-2.2H12.9c-1.2,0-2.2,1-2.2,2.2s1,2.2,2.2,2.2h2.7v5.5H7c-2.9,0-5.2,2.4-5.2,5.2V57
		c0,2.9,2.4,5.2,5.2,5.2H57c2.9,0,5.2-2.4,5.2-5.2v-4.4C62.2,49.7,59.9,47.3,57,47.3z M57.7,57c0,0.4-0.3,0.8-0.8,0.8H7
		c-0.4,0-0.8-0.3-0.8-0.8v-4.4c0-0.4,0.3-0.8,0.8-0.8H57c0.4,0,0.8,0.3,0.8,0.8V57z"/>
</g>
</svg>
