<?xml version="1.0" encoding="utf-8"?>
<!-- Generator: Adobe Illustrator 25.2.1, SVG Export Plug-In . SVG Version: 6.00 Build 0)  -->
<svg version="1.1" id="lni_lni-helmet" xmlns="http://www.w3.org/2000/svg" xmlns:xlink="http://www.w3.org/1999/xlink" x="0px"
	 y="0px" viewBox="0 0 64 64" style="enable-background:new 0 0 64 64;" xml:space="preserve">
<path d="M57.4,38.1C57.4,38.1,57.4,38.1,57.4,38.1C57.4,23.6,46,11.9,32,11.9C18,11.9,6.6,23.6,6.6,38c0,0,0,0.1,0,0.1
	c-2.7,0.2-4.9,2.4-4.9,5.2v3.5c0,2.9,2.4,5.2,5.2,5.2h50c2.9,0,5.2-2.4,5.2-5.2v-3.5C62.2,40.6,60.1,38.3,57.4,38.1z M20.5,19.9v3.8
	c0,1.2,1,2.2,2.2,2.2s2.2-1,2.2-2.2v-6.1c1.5-0.6,3.1-0.9,4.7-1.1v9.6c0,1.2,1,2.2,2.2,2.2c1.2,0,2.2-1,2.2-2.2v-9.6
	c1.6,0.2,3.2,0.6,4.7,1.1v6.1c0,1.2,1,2.2,2.2,2.2s2.2-1,2.2-2.2v-3.8c5.7,3.9,9.4,10.5,9.4,18.1c0,0,0,0,0,0.1H11.1c0,0,0,0,0-0.1
	C11.1,30.5,14.9,23.8,20.5,19.9z M57.8,46.9c0,0.4-0.3,0.8-0.8,0.8H7c-0.4,0-0.8-0.3-0.8-0.8v-3.5c0-0.4,0.3-0.8,0.8-0.8h50
	c0.4,0,0.8,0.3,0.8,0.8V46.9z"/>
</svg>
