<?xml version="1.0" encoding="utf-8"?>
<!-- Generator: Adobe Illustrator 25.2.1, SVG Export Plug-In . SVG Version: 6.00 Build 0)  -->
<svg version="1.1" id="lni_lni-paint-bucket-alt" xmlns="http://www.w3.org/2000/svg" xmlns:xlink="http://www.w3.org/1999/xlink"
	 x="0px" y="0px" viewBox="0 0 64 64" style="enable-background:new 0 0 64 64;" xml:space="preserve">
<path d="M52.4,22.2c0-11.3-9.2-20.4-20.4-20.4c-11.3,0-20.4,9.2-20.4,20.4v2.1c0,0.1,0,0.1,0,0.2c0,0.1,0,0.2,0,0.3l1.6,31.5
	c0.2,3.3,2.9,5.9,6.2,5.9h25.2c3.3,0,6.1-2.6,6.2-5.9l1.6-31.5c0-0.1,0-0.2,0-0.3c0-0.1,0-0.1,0-0.2V22.2z M16.2,27h2.9v3.4
	c0,2.7,2.2,4.9,4.9,4.9h1.7v4.2c0,3.5,2.8,6.3,6.3,6.3c2.8,0,5.1-1.9,5.9-4.4H40c2.7,0,4.9-2.2,4.9-4.9V27h2.9l-1.1,21.9H17.3
	L16.2,27z M35.8,32.3c-1.2,0-2.2,1-2.2,2.2v5.2c0,0.9-0.7,1.6-1.6,1.6c-1,0-1.8-0.8-1.8-1.8v-4.7c0-2.2-1.8-4-4-4H24
	c-0.2,0-0.4-0.2-0.4-0.4V27h16.8v9.5c0,0.2-0.2,0.4-0.4,0.4h-1.9v-2.4C38.1,33.3,37.1,32.3,35.8,32.3z M32,6.2
	c8.8,0,15.9,7.1,15.9,15.9v0.3H16.1v-0.3C16.1,13.4,23.2,6.2,32,6.2z M44.6,57.8H19.4c-0.9,0-1.7-0.7-1.7-1.7l-0.1-2.7h29l-0.1,2.7
	C46.3,57,45.6,57.8,44.6,57.8z"/>
</svg>
