<?xml version="1.0" encoding="utf-8"?>
<!-- Generator: Adobe Illustrator 25.2.1, SVG Export Plug-In . SVG Version: 6.00 Build 0)  -->
<svg version="1.1" id="lni_lni-paint-roller" xmlns="http://www.w3.org/2000/svg" xmlns:xlink="http://www.w3.org/1999/xlink"
	 x="0px" y="0px" viewBox="0 0 64 64" style="enable-background:new 0 0 64 64;" xml:space="preserve">
<path d="M54.9,9.4h-0.3V8c0-3.4-2.8-6.2-6.2-6.2H20.7c-3.4,0-6.2,2.8-6.2,6.2v1.4H11c-2.3,0-4.2,1.9-4.2,4.2v14
	c0,2.3,1.9,4.2,4.2,4.2h26.4V35c-2.9,0.5-5.1,3.1-5.1,6.1V56c0,3.4,2.8,6.2,6.2,6.2h2.2c3.4,0,6.2-2.8,6.2-6.2V41.1
	c0-3-2.2-5.6-5.1-6.1v-3.6c0-2.3-1.9-4.2-4.2-4.2H11.3V13.9h3.1v1.4c0,3.4,2.8,6.2,6.2,6.2h27.6c3.4,0,6.2-2.8,6.2-6.2v-1.4h0.3
	c1.2,0,2.2-1,2.2-2.2S56.2,9.4,54.9,9.4z M42.5,41.1V56c0,1-0.8,1.8-1.8,1.8h-2.2c-1,0-1.8-0.8-1.8-1.8V41.1c0-1,0.8-1.8,1.8-1.8
	h2.2C41.7,39.3,42.5,40.1,42.5,41.1z M50.1,15.3c0,1-0.8,1.8-1.8,1.8H20.7c-1,0-1.8-0.8-1.8-1.8V8c0-1,0.8-1.8,1.8-1.8h27.6
	c1,0,1.8,0.8,1.8,1.8V15.3z"/>
</svg>
