<?xml version="1.0" encoding="utf-8"?>
<!-- Generator: Adobe Illustrator 25.2.1, SVG Export Plug-In . SVG Version: 6.00 Build 0)  -->
<svg version="1.1" id="lni_lni-ruler-alt" xmlns="http://www.w3.org/2000/svg" xmlns:xlink="http://www.w3.org/1999/xlink" x="0px"
	 y="0px" viewBox="0 0 64 64" style="enable-background:new 0 0 64 64;" xml:space="preserve">
<path d="M60.4,16.8L47.2,3.6c-1.2-1.2-2.7-1.8-4.4-1.8s-3.2,0.6-4.4,1.8L3.6,38.3c-1.2,1.2-1.8,2.7-1.8,4.4s0.6,3.2,1.8,4.4
	l13.2,13.2c0,0,0,0,0,0c1.2,1.2,2.7,1.8,4.4,1.8c1.7,0,3.2-0.7,4.4-1.8l34.7-34.7c1.2-1.2,1.8-2.8,1.8-4.4
	C62.2,19.6,61.6,18,60.4,16.8z M57.2,22.5L22.5,57.2c-0.7,0.7-1.8,0.7-2.5,0L6.8,44c-0.3-0.3-0.5-0.8-0.5-1.2s0.2-0.9,0.5-1.2
	l2.6-2.6l9,9c0.4,0.4,1,0.7,1.6,0.7s1.2-0.2,1.6-0.7c0.9-0.9,0.9-2.3,0-3.2l-9-9l3.6-3.6l5.4,5.4c0.4,0.4,1,0.7,1.6,0.7
	s1.2-0.2,1.6-0.7c0.9-0.9,0.9-2.3,0-3.2l-5.4-5.4l3.6-3.6l9,9c0.4,0.4,1,0.7,1.6,0.7s1.2-0.2,1.6-0.7c0.9-0.9,0.9-2.3,0-3.2l-9-9
	l3.6-3.6l5.4,5.4c0.4,0.4,1,0.7,1.6,0.7s1.2-0.2,1.6-0.7c0.9-0.9,0.9-2.3,0-3.2L33,15.3l3.6-3.6l9,9c0.4,0.4,1,0.7,1.6,0.7
	s1.2-0.2,1.6-0.7c0.9-0.9,0.9-2.3,0-3.2l-9-9l1.7-1.7c0.3-0.3,0.8-0.5,1.2-0.5s0.9,0.2,1.2,0.5L57.2,20c0.3,0.3,0.5,0.8,0.5,1.2
	C57.7,21.7,57.5,22.2,57.2,22.5z"/>
</svg>
