<?xml version="1.0" encoding="utf-8"?>
<!-- Generator: Adobe Illustrator 25.2.1, SVG Export Plug-In . SVG Version: 6.00 Build 0)  -->
<svg version="1.1" id="lni_lni-ruler-pencil" xmlns="http://www.w3.org/2000/svg" xmlns:xlink="http://www.w3.org/1999/xlink"
	 x="0px" y="0px" viewBox="0 0 64 64" style="enable-background:new 0 0 64 64;" xml:space="preserve">
<g>
	<path d="M51.7,1.8h-4.9c-4.2,0-7.6,3.4-7.6,7.6V48c0,0.4,0.1,0.8,0.3,1.2l7,11.6c0.6,1,1.6,1.6,2.8,1.6s2.2-0.6,2.8-1.6l7-11.6
		c0.2-0.4,0.3-0.8,0.3-1.2V9.4C59.3,5.2,55.9,1.8,51.7,1.8z M46.8,6.2h4.9c1.7,0,3.1,1.4,3.1,3.1v2.7H43.7V9.4
		C43.7,7.7,45.1,6.2,46.8,6.2z M49.3,56.5l-5.6-9.2V16.6h11.1v30.7L49.3,56.5z"/>
	<path d="M23.6,1.9H10.9c-3.4,0-6.2,2.8-6.2,6.2v47.7c0,3.4,2.8,6.2,6.2,6.2h12.7c3.4,0,6.2-2.8,6.2-6.2V8.1
		C29.9,4.7,27.1,1.9,23.6,1.9z M25.4,55.9c0,1-0.8,1.8-1.8,1.8H10.9c-1,0-1.8-0.8-1.8-1.8v-3.5h7c1.2,0,2.2-1,2.2-2.2
		s-1-2.2-2.2-2.2h-7V43h2c1.2,0,2.2-1,2.2-2.2s-1-2.2-2.2-2.2h-2v-4.9h7c1.2,0,2.2-1,2.2-2.2s-1-2.2-2.2-2.2h-7v-4.9h2
		c1.2,0,2.2-1,2.2-2.2s-1-2.2-2.2-2.2h-2v-4.9h7c1.2,0,2.2-1,2.2-2.2s-1-2.2-2.2-2.2h-7V8.1c0-1,0.8-1.8,1.8-1.8h12.7
		c1,0,1.8,0.8,1.8,1.8V55.9z"/>
</g>
</svg>
