<?xml version="1.0" encoding="utf-8"?>
<!-- Generator: Adobe Illustrator 25.2.1, SVG Export Plug-In . SVG Version: 6.00 Build 0)  -->
<svg version="1.1" id="lni_lni-shovel" xmlns="http://www.w3.org/2000/svg" xmlns:xlink="http://www.w3.org/1999/xlink" x="0px"
	 y="0px" viewBox="0 0 64 64" style="enable-background:new 0 0 64 64;" xml:space="preserve">
<path d="M61.6,15.1l-6.4-6.4c0,0,0,0,0,0c0,0,0,0,0,0l-6.4-6.4c-0.9-0.9-2.3-0.9-3.2,0c-0.9,0.9-0.9,2.3,0,3.2l4.8,4.9L47.6,13
	l-0.6-0.6c-0.9-0.9-2.3-0.9-3.2,0c-0.9,0.9-0.9,2.3,0,3.2l0.6,0.6L28,32.8l-4.6-4.6c-1-1-2.6-1-3.6,0L5.1,43.1
	c-4.4,4.4-4.4,11.7,0,16.1l0,0c2.1,2.2,5,3.3,8,3.3c3,0,5.9-1.2,8-3.3l14.7-14.9c1-1,1-2.6,0-3.6L31.2,36l16.5-16.6l0.5,0.5
	c0.9,0.9,2.3,0.9,3.2,0c0.9-0.9,0.9-2.3,0-3.2l-0.5-0.6l2.8-2.8l4.8,4.8c0.9,0.9,2.3,0.9,3.2,0C62.5,17.4,62.5,16,61.6,15.1z
	 M31.2,42.5L17.9,56c-1.3,1.3-3,2-4.8,2c-1.8,0-3.5-0.7-4.8-2c-2.7-2.7-2.7-7.1,0-9.8l13.3-13.5l3.2,3.3l-0.6,0.6
	c-0.9,0.9-0.9,2.3,0,3.2c0.4,0.4,1,0.7,1.6,0.7c0.6,0,1.2-0.2,1.6-0.7l0.5-0.5L31.2,42.5z"/>
</svg>
