<?xml version="1.0" encoding="utf-8"?>
<!-- Generator: Adobe Illustrator 25.2.1, SVG Export Plug-In . SVG Version: 6.00 Build 0)  -->
<svg version="1.1" id="lni_lni-trowel" xmlns="http://www.w3.org/2000/svg" xmlns:xlink="http://www.w3.org/1999/xlink" x="0px"
	 y="0px" viewBox="0 0 64 64" style="enable-background:new 0 0 64 64;" xml:space="preserve">
<path d="M60.3,48.7L48.4,36.9c-1.2-1.2-2.9-1.9-4.6-1.9c-1.6,0-3,0.6-4.2,1.6l-7.4-7.4l7.7-7.6c0.9-0.9,1.2-2.1,1-3.3
	c-0.2-1.2-1-2.2-2.2-2.7L6.9,2C5.5,1.5,4,1.8,2.9,2.8c-1.1,1.1-1.4,2.6-0.8,4l13.5,31.6c0.5,1.1,1.5,1.9,2.7,2.1
	c0.2,0,0.5,0.1,0.7,0.1c1,0,1.9-0.4,2.6-1.1l7.4-7.3l7.4,7.4c-2.1,2.5-2,6.4,0.4,8.8l11.9,11.9c1.2,1.2,2.9,1.9,4.6,1.9h0
	c1.7,0,3.4-0.7,4.6-1.9l2.4-2.4c0,0,0,0,0,0C62.8,55.4,62.8,51.3,60.3,48.7z M19.3,35.5L7.1,7l28.6,12.2L19.3,35.5z M57.1,54.8
	l-2.4,2.4c-0.8,0.8-2.1,0.8-2.8,0L40,45.3c-0.8-0.8-0.8-2,0-2.8l2.4-2.4c0.4-0.4,0.9-0.6,1.4-0.6c0.5,0,1,0.2,1.4,0.6l11.9,11.9
	C57.9,52.7,57.9,54,57.1,54.8z"/>
</svg>
