<?xml version="1.0" encoding="utf-8"?>
<!-- Generator: Adobe Illustrator 25.2.1, SVG Export Plug-In . SVG Version: 6.00 Build 0)  -->
<svg version="1.1" id="lni_lni-wheelbarrow" xmlns="http://www.w3.org/2000/svg" xmlns:xlink="http://www.w3.org/1999/xlink"
	 x="0px" y="0px" viewBox="0 0 64 64" style="enable-background:new 0 0 64 64;" xml:space="preserve">
<path d="M55,42.8c-1,0-1.9,0.2-2.8,0.5l-1.8-2.1c3.7-2.2,6.6-5.7,8-10l1.8-5.5c0.3-0.9,1-3-0.2-4.8c-0.9-1.2-2.3-1.8-4.4-1.8H18.2
	L15.2,10c-0.6-2-2.4-3.3-4.5-3.3H4c-1.2,0-2.2,1-2.2,2.2s1,2.2,2.2,2.2h6.7c0.1,0,0.2,0.1,0.2,0.2l3.3,10.4v31.5
	c0,1.2,0.7,2.3,1.9,2.7c0.3,0.1,0.7,0.2,1,0.2c0.7,0,1.4-0.3,2-0.8l15.6-11.7h6.7c1.6,0,3.2-0.2,4.7-0.6l2.7,3.2
	c-0.7,1.1-1.1,2.4-1.1,3.8c0,4,3.3,7.3,7.3,7.3c4,0,7.3-3.3,7.3-7.3C62.2,46,59,42.8,55,42.8z M18.8,50.1v-6.4h8.5L18.8,50.1z
	 M18.8,39.2V23.7h37c0.2,0,0.4,0,0.5,0c0,0.1-0.1,0.3-0.2,0.6l-1.8,5.5c-1.9,5.6-7,9.4-12.8,9.4H18.8z M55,52.8
	c-1.5,0-2.8-1.2-2.8-2.8s1.2-2.8,2.8-2.8s2.8,1.2,2.8,2.8S56.5,52.8,55,52.8z"/>
</svg>
