<?xml version="1.0" encoding="utf-8"?>
<!-- Generator: Adobe Illustrator 22.0.0, SVG Export Plug-In . SVG Version: 6.00 Build 0)  -->
<svg version="1.1" id="lni_lni-pyramids" xmlns="http://www.w3.org/2000/svg" xmlns:xlink="http://www.w3.org/1999/xlink" x="0px"
	 y="0px" viewBox="0 0 64 64" style="enable-background:new 0 0 64 64;" xml:space="preserve">
<g>
	<path d="M56.8,52.7H7.2c-1.9,0-3.6-1-4.6-2.6c-0.9-1.7-0.9-3.6,0-5.3L16,22.1c0.7-1.1,1.8-1.8,3.2-1.8c0,0,0,0,0,0
		c1.3,0,2.5,0.7,3.2,1.8l4.2,7l9.4-16c0.7-1.1,1.8-1.8,3.2-1.8c1.3,0,2.5,0.7,3.2,1.8l19,31.7c1,1.6,1,3.6,0.1,5.3
		C60.4,51.7,58.7,52.7,56.8,52.7z M19.2,25.6L6.5,47.1c-0.2,0.3-0.1,0.6,0,0.8c0.1,0.1,0.3,0.4,0.7,0.4h49.6c0.4,0,0.6-0.2,0.7-0.4
		c0.1-0.1,0.2-0.4,0-0.8L39.1,16.6l-9.4,16c-0.7,1.1-1.8,1.8-3.2,1.8c0,0,0,0,0,0c-1.3,0-2.5-0.7-3.1-1.8L19.2,25.6z"/>
</g>
</svg>
