<?xml version="1.0" encoding="utf-8"?>
<!-- Generator: Adobe Illustrator 22.0.0, SVG Export Plug-In . SVG Version: 6.00 Build 0)  -->
<svg version="1.1" id="lni_lni-surf-board" xmlns="http://www.w3.org/2000/svg" xmlns:xlink="http://www.w3.org/1999/xlink" x="0px"
	 y="0px" viewBox="0 0 64 64" style="enable-background:new 0 0 64 64;" xml:space="preserve">
<path d="M43.2,2c-0.7-0.4-1.6-0.4-2.3,0c-3.3,1.7-6.4,4.4-8.9,7.9c-2.5-3.5-5.6-6.2-8.9-7.9c-0.7-0.4-1.6-0.4-2.3,0
	C10.9,6.9,4.3,20.5,4.3,35.8c0,9.6,2.5,18.6,7.1,25.3c0.5,0.7,1.3,1.1,2.1,1.1h36.9c0.9,0,1.7-0.4,2.1-1.1
	c4.6-6.7,7.1-15.7,7.1-25.3C59.7,20.5,53.1,6.9,43.2,2z M8.8,35.8c0-0.9,0-1.9,0.1-2.8l24.8-8.8c0.6,2.3,1,4.7,1.2,7.2L9,40.7
	C8.9,39.1,8.8,37.5,8.8,35.8z M21.9,6.5c3.1,1.8,5.9,4.8,8.1,8.7c0.8,1.5,1.6,3.1,2.2,4.7L9.4,28.1C11,18.3,15.6,10.1,21.9,6.5z
	 M29.3,57.8H14.6c-2.3-3.6-3.9-7.9-4.9-12.6l25.4-9.1c0,7.5-1.8,14.7-5,20.3C29.8,56.9,29.5,57.3,29.3,57.8z M49.4,57.8H34.5
	c3.3-6.2,5.1-14,5.1-21.9c0-7.9-1.8-15.5-5-21.7c2.1-3.4,4.7-6,7.5-7.6C50,11,55.2,22.7,55.2,35.8C55.2,44.1,53.2,51.9,49.4,57.8z"
	/>
</svg>
