<?xml version="1.0" encoding="utf-8"?>
<!-- Generator: Adobe Illustrator 22.0.0, SVG Export Plug-In . SVG Version: 6.00 Build 0)  -->
<svg version="1.1" id="lni_lni-travel" xmlns="http://www.w3.org/2000/svg" xmlns:xlink="http://www.w3.org/1999/xlink" x="0px"
	 y="0px" viewBox="0 0 64 64" style="enable-background:new 0 0 64 64;" xml:space="preserve">
<g>
	<path d="M62.3,43.9c0-5.5-4.3-9.8-9.8-9.8c-5.5,0-9.9,4.4-9.9,9.8c0,3.2,3.2,8.8,5.6,12.6H18.6c-1.4,0-2.8-0.6-3.8-1.6
		c-1.3-1.3-1.8-3.1-1.4-5c0.5-2.4,2.8-4.2,5.5-4.2h9.9c2.6,0,5.1-1,7-2.9c2.7-2.7,3.6-6.6,2.3-10.3c-1.3-3.9-5.1-6.6-9.5-6.6H15.8
		c2.4-3.9,5.7-9.8,5.7-13.1c0-5.5-4.3-9.8-9.8-9.8c-5.5,0-9.9,4.4-9.9,9.8c0,4.6,6.7,14.6,8,16.6c0,0,0,0,0,0c0,0,0,0,0,0
		c0,0,0,0,0,0c0.1,0.1,0.2,0.2,0.3,0.3c0,0,0.1,0.1,0.1,0.1c0.1,0.1,0.2,0.1,0.3,0.2c0,0,0.1,0.1,0.1,0.1c0.1,0.1,0.2,0.1,0.3,0.1
		c0,0,0.1,0,0.1,0c0.2,0,0.3,0.1,0.5,0.1c0,0,0,0,0,0h17c2.4,0,4.5,1.4,5.2,3.5c0.7,2.1,0.2,4.2-1.3,5.7c-1,1-2.3,1.6-3.8,1.6h-9.9
		c-4.9,0-9,3.3-9.9,7.8c-0.7,3.3,0.3,6.7,2.7,9c1.9,1.9,4.3,2.9,7,2.9h33.8c0.2,0,0.3,0,0.5-0.1c0,0,0.1,0,0.1,0
		c0.1,0,0.2-0.1,0.3-0.1c0.1,0,0.1-0.1,0.2-0.1c0.1-0.1,0.2-0.1,0.3-0.2c0,0,0.1-0.1,0.1-0.1c0.1-0.1,0.2-0.2,0.2-0.3
		c0,0,0.1,0,0.1-0.1C55.6,58.2,62.3,48.6,62.3,43.9z M11.7,7.5c3,0,5.3,2.3,5.3,5.3c0,1.9-2.7,7-5.3,11.2C9,19.8,6.3,14.8,6.3,12.8
		C6.3,9.9,8.7,7.5,11.7,7.5z M52.4,38.6c3,0,5.3,2.3,5.3,5.3c0,1.9-2.7,6.8-5.4,10.8c-2.6-4-5.4-8.9-5.4-10.8
		C47,41,49.4,38.6,52.4,38.6z"/>
	<path d="M13.9,12.7c0-0.6-0.2-1.2-0.6-1.6c-0.8-0.8-2.4-0.8-3.2,0c-0.1,0.1-0.2,0.2-0.3,0.3c-0.1,0.1-0.1,0.3-0.2,0.4
		c-0.1,0.1-0.1,0.3-0.1,0.4c0,0.1,0,0.3,0,0.4s0,0.3,0,0.4c0,0.1,0.1,0.3,0.1,0.4c0,0.1,0.1,0.3,0.2,0.4c0.1,0.1,0.2,0.2,0.3,0.3
		c0.4,0.4,1,0.7,1.6,0.7c0.6,0,1.2-0.2,1.6-0.7C13.6,13.9,13.9,13.3,13.9,12.7z"/>
	<path d="M54,45.9c0.4-0.4,0.7-1,0.7-1.6c0-0.6-0.2-1.2-0.7-1.6c-0.1-0.1-0.2-0.2-0.3-0.3s-0.3-0.1-0.4-0.2c-0.1,0-0.3-0.1-0.4-0.1
		c-0.3,0-0.6,0-0.9,0c-0.1,0-0.3,0.1-0.4,0.1c-0.1,0.1-0.3,0.1-0.4,0.2s-0.2,0.2-0.3,0.3c-0.4,0.4-0.7,1-0.7,1.6
		c0,0.6,0.2,1.2,0.7,1.6c0.1,0.1,0.2,0.2,0.3,0.3s0.3,0.1,0.4,0.2c0.1,0,0.3,0.1,0.4,0.1c0.1,0,0.3,0,0.4,0
		C53,46.5,53.6,46.3,54,45.9z"/>
</g>
</svg>
