<?xml version="1.0" encoding="utf-8"?>
<!-- Generator: Adobe Illustrator 22.0.0, SVG Export Plug-In . SVG Version: 6.00 Build 0)  -->
<svg version="1.1" id="lni_lni-add-files" xmlns="http://www.w3.org/2000/svg" xmlns:xlink="http://www.w3.org/1999/xlink" x="0px"
	 y="0px" viewBox="0 0 64 64" style="enable-background:new 0 0 64 64;" xml:space="preserve">
<g>
	<path d="M38.6,22.1h-4.3v-4.3c0-1.2-1-2.3-2.3-2.3c-1.2,0-2.3,1-2.3,2.3v4.3h-4.3c-1.2,0-2.3,1-2.3,2.3s1,2.3,2.3,2.3h4.3v4.3
		c0,1.2,1,2.3,2.3,2.3c1.2,0,2.3-1,2.3-2.3v-4.3h4.3c1.2,0,2.3-1,2.3-2.3S39.8,22.1,38.6,22.1z"/>
	<path d="M50,1.8H14c-3.4,0-6.1,2.7-6.1,6.1v32.1c0,1.5,0.6,2.9,1.7,3.9l18,17c1,1,2.3,1.5,3.7,1.5H50c3.4,0,6.1-2.7,6.1-6.1V7.9
		C56.1,4.5,53.4,1.8,50,1.8z M15.7,43.4h11.7c0.5,0,0.9,0.4,0.9,0.8v11L15.7,43.4z M51.6,56.1c0,0.9-0.7,1.6-1.6,1.6H32.8V44.2
		c0-2.9-2.4-5.3-5.4-5.3h-15v-31c0-0.9,0.7-1.6,1.6-1.6h36c0.9,0,1.6,0.7,1.6,1.6V56.1z"/>
</g>
</svg>
