<?xml version="1.0" encoding="utf-8"?>
<!-- Generator: Adobe Illustrator 22.0.0, SVG Export Plug-In . SVG Version: 6.00 Build 0)  -->
<svg version="1.1" id="lni_lni-alarm" xmlns="http://www.w3.org/2000/svg" xmlns:xlink="http://www.w3.org/1999/xlink" x="0px"
	 y="0px" viewBox="0 0 64 64" style="enable-background:new 0 0 64 64;" xml:space="preserve">
<path d="M57.6,53.1l-2-3.1c-0.4-0.6-0.6-1.2-0.6-1.9V27.3c0-5.9-2.5-11.4-7.1-15.5C44.2,8.5,39.4,6.4,34.3,6V4c0-1.2-1-2.3-2.3-2.3
	c-1.2,0-2.3,1-2.3,2.3v1.9c-0.2,0-0.4,0-0.6,0.1C17.5,7.3,8.8,16.6,8.8,27.7v20.4c-0.1,1-0.3,1.5-0.5,1.8l-1.9,3.2
	c-0.6,1-0.6,2.2,0,3.2c0.6,0.9,1.6,1.5,2.7,1.5h20.7V60c0,1.2,1,2.3,2.3,2.3c1.2,0,2.3-1,2.3-2.3v-2.2H55c1.1,0,2.1-0.6,2.7-1.5
	C58.3,55.3,58.3,54.1,57.6,53.1z M11.5,53.3l0.7-1.2c0.6-1,0.9-2.2,1.1-3.6l0-20.8c0-8.8,7-16.2,16.3-17.2
	c5.7-0.6,11.3,1.1,15.4,4.7c3.6,3.2,5.6,7.5,5.6,12.1v20.8c0,1.5,0.4,2.9,1.3,4.3l0.6,0.9H11.5z"/>
</svg>
