<?xml version="1.0" encoding="utf-8"?>
<!-- Generator: Adobe Illustrator 22.0.0, SVG Export Plug-In . SVG Version: 6.00 Build 0)  -->
<svg version="1.1" id="lni_lni-alarmclock" xmlns="http://www.w3.org/2000/svg" xmlns:xlink="http://www.w3.org/1999/xlink" x="0px"
	 y="0px" viewBox="0 0 64 64" style="enable-background:new 0 0 64 64;" xml:space="preserve">
<g>
	<path d="M43.4,34.8h-9.1v-9.3c0-1.2-1-2.3-2.3-2.3c-1.2,0-2.3,1-2.3,2.3v9.3h-0.3c-1.2,0-2.3,1-2.3,2.3s1,2.3,2.3,2.3h0.3v0.3
		c0,1.2,1,2.3,2.3,2.3c1.2,0,2.3-1,2.3-2.3v-0.3h9.1c1.2,0,2.3-1,2.3-2.3S44.6,34.8,43.4,34.8z"/>
	<path d="M59.5,19.1c0-5.5-4.4-9.9-9.9-9.9c-2.6,0-5,1-6.8,2.7c-2.7-1.2-5.5-2-8.6-2.2V6.3h2.8c1.2,0,2.3-1,2.3-2.3s-1-2.3-2.3-2.3
		H26.9c-1.2,0-2.3,1-2.3,2.3s1,2.3,2.3,2.3h2.8v3.5c-3,0.3-5.9,1-8.6,2.2c-1.8-1.7-4.2-2.7-6.8-2.7c-5.5,0-9.9,4.4-9.9,9.9
		c0,2.7,1.1,5.3,3.1,7.1c-1.2,3-1.9,6.3-1.9,9.7c0,14.5,11.8,26.3,26.3,26.3s26.3-11.8,26.3-26.3c0-3.4-0.7-6.7-1.9-9.7
		C58.4,24.4,59.5,21.8,59.5,19.1z M49.6,13.7c3,0,5.4,2.4,5.4,5.4c0,1-0.3,2-0.8,2.8c-1.9-3-4.3-5.5-7.2-7.5
		C47.8,13.9,48.7,13.7,49.6,13.7z M9,19.1c0-3,2.4-5.4,5.4-5.4c0.9,0,1.8,0.2,2.6,0.7c-2.9,2-5.3,4.6-7.2,7.5C9.3,21,9,20.1,9,19.1z
		 M32,57.8c-12,0-21.8-9.8-21.8-21.8c0-12,9.8-21.8,21.8-21.8s21.8,9.8,21.8,21.8C53.8,48,44,57.8,32,57.8z"/>
</g>
</svg>
