<?xml version="1.0" encoding="utf-8"?>
<!-- Generator: Adobe Illustrator 22.0.0, SVG Export Plug-In . SVG Version: 6.00 Build 0)  -->
<svg version="1.1" id="lni_lni-archive" xmlns="http://www.w3.org/2000/svg" xmlns:xlink="http://www.w3.org/1999/xlink" x="0px"
	 y="0px" viewBox="0 0 64 64" style="enable-background:new 0 0 64 64;" xml:space="preserve">
<g>
	<path d="M56.7,4.3H7.3c-3.1,0-5.6,2.5-5.6,5.6V16c0,2.9,2.2,5.3,5.1,5.5v32.1c0,3.4,2.7,6.1,6.1,6.1H51c3.4,0,6.1-2.7,6.1-6.1V21.5
		c2.8-0.2,5.1-2.6,5.1-5.5V9.9C62.3,6.8,59.8,4.3,56.7,4.3z M51,55.2H13c-0.9,0-1.6-0.7-1.6-1.6V21.5h41.3v32.1
		C52.7,54.5,51.9,55.2,51,55.2z M57.8,16c0,0.6-0.5,1.1-1.1,1.1H7.3c-0.6,0-1.1-0.5-1.1-1.1V9.9c0-0.6,0.5-1.1,1.1-1.1h49.4
		c0.6,0,1.1,0.5,1.1,1.1V16z"/>
	<path d="M40.2,29.8H23.8c-2.3,0-4.3,1.9-4.3,4.3v6.2c0,2.3,1.9,4.3,4.3,4.3h16.4c2.3,0,4.3-1.9,4.3-4.3V34
		C44.4,31.7,42.5,29.8,40.2,29.8z M39.9,39.9H24.1v-5.7h15.9V39.9z"/>
</g>
</svg>
