<?xml version="1.0" encoding="utf-8"?>
<!-- Generator: Adobe Illustrator 22.0.0, SVG Export Plug-In . SVG Version: 6.00 Build 0)  -->
<svg version="1.1" id="lni_lni-ban" xmlns="http://www.w3.org/2000/svg" xmlns:xlink="http://www.w3.org/1999/xlink" x="0px"
	 y="0px" viewBox="0 0 64 64" style="enable-background:new 0 0 64 64;" xml:space="preserve">
<path d="M32,1.8C15.3,1.8,1.8,15.3,1.8,32S15.3,62.3,32,62.3S62.3,48.7,62.3,32S48.7,1.8,32,1.8z M6.3,32C6.3,17.8,17.8,6.3,32,6.3
	c5.3,0,10.1,1.6,14.2,4.3l-32,40C9.3,45.9,6.3,39.3,6.3,32z M32,57.8c-5.3,0-10.2-1.6-14.3-4.4l32-40c4.9,4.7,8,11.3,8,18.6
	C57.8,46.2,46.2,57.8,32,57.8z"/>
</svg>
