<?xml version="1.0" encoding="utf-8"?>
<!-- Generator: Adobe Illustrator 22.0.0, SVG Export Plug-In . SVG Version: 6.00 Build 0)  -->
<svg version="1.1" id="lni_lni-bluetooth" xmlns="http://www.w3.org/2000/svg" xmlns:xlink="http://www.w3.org/1999/xlink" x="0px"
	 y="0px" viewBox="0 0 64 64" style="enable-background:new 0 0 64 64;" xml:space="preserve">
<path d="M48.8,42l-15-10l15-10c1.6-1.1,2.6-2.9,2.6-4.8c0-1.9-1-3.7-2.6-4.8L34,2.4c-1.2-0.8-2.7-0.9-4-0.2c-1.3,0.7-2.1,2-2.1,3.5
	v22.2l-11.9-8c-1-0.7-2.4-0.4-3.1,0.6c-0.7,1-0.4,2.4,0.6,3.1L25.9,32l-12.2,8.2c-1,0.7-1.3,2.1-0.6,3.1c0.4,0.6,1.1,1,1.9,1
	c0.4,0,0.9-0.1,1.2-0.4L27.9,36v22.3c0,1.5,0.8,2.8,2.1,3.5c0.6,0.3,1.2,0.5,1.8,0.5c0.7,0,1.5-0.2,2.1-0.7l14.9-9.9
	c1.6-1.1,2.6-2.9,2.6-4.8C51.4,44.9,50.5,43.1,48.8,42z M32.4,6.8l13.9,9.3c0.5,0.3,0.6,0.9,0.6,1.1c0,0.2-0.1,0.7-0.6,1.1
	l-13.9,9.3V6.8z M46.3,47.9l-13.9,9.3V36.5l13.9,9.3c0.5,0.3,0.6,0.9,0.6,1.1C46.9,47.1,46.9,47.6,46.3,47.9z"/>
</svg>
