<?xml version="1.0" encoding="utf-8"?>
<!-- Generator: Adobe Illustrator 22.0.0, SVG Export Plug-In . SVG Version: 6.00 Build 0)  -->
<svg version="1.1" id="lni_lni-bookmark-alt" xmlns="http://www.w3.org/2000/svg" xmlns:xlink="http://www.w3.org/1999/xlink"
	 x="0px" y="0px" viewBox="0 0 64 64" style="enable-background:new 0 0 64 64;" xml:space="preserve">
<path d="M56.5,22.1H29.2v-7c0-3.2-2.6-5.8-5.8-5.8h-8.2c-3.2,0-5.8,2.6-5.8,5.8v7H7.5c-3.2,0-5.8,2.6-5.8,5.8v21
	c0,3.2,2.6,5.8,5.8,5.8h48.9c3.2,0,5.8-2.6,5.8-5.8v-21C62.3,24.7,59.7,22.1,56.5,22.1z M13.9,15.2c0-0.7,0.6-1.3,1.3-1.3h8.2
	c0.7,0,1.3,0.6,1.3,1.3v14.7l-2.8-2.2l-0.2-0.1c-1.4-1-3.3-1-4.7,0l-3,2.4V15.2z M57.8,48.8c0,0.7-0.6,1.3-1.3,1.3H7.5
	c-0.7,0-1.3-0.6-1.3-1.3v-21c0-0.7,0.6-1.3,1.3-1.3h1.9v5.3c0,1.4,0.8,2.6,2,3.2c0.5,0.2,1,0.4,1.5,0.4c0.8,0,1.5-0.3,2.2-0.8
	l4.2-3.3l4.1,3.3c1.1,0.8,2.5,1,3.7,0.4s2-1.8,2-3.2v-5.2h27.3c0.7,0,1.3,0.6,1.3,1.3V48.8z"/>
</svg>
