<?xml version="1.0" encoding="utf-8"?>
<!-- Generator: Adobe Illustrator 22.0.0, SVG Export Plug-In . SVG Version: 6.00 Build 0)  -->
<svg version="1.1" id="lni_lni-bulb" xmlns="http://www.w3.org/2000/svg" xmlns:xlink="http://www.w3.org/1999/xlink" x="0px"
	 y="0px" viewBox="0 0 64 64" style="enable-background:new 0 0 64 64;" xml:space="preserve">
<path d="M55.2,24.9C55.2,12.1,44.8,1.8,32,1.8C19.2,1.8,8.8,12.1,8.8,24.9c0,8.6,4.8,16.5,12.3,20.5v10.7c0,3.4,2.7,6.1,6.1,6.1h9.5
	c3.4,0,6.1-2.7,6.1-6.1V45.4C50.4,41.4,55.2,33.5,55.2,24.9z M38.4,56.1c0,0.9-0.7,1.6-1.6,1.6h-9.5c-0.9,0-1.6-0.7-1.6-1.6v-9.9
	h12.7V56.1z M40.1,41.8h-5.5v-7.3l5.7-4.4c1-0.8,1.2-2.2,0.4-3.2c-0.8-1-2.2-1.2-3.2-0.4l-3,2.3V24c0-1.2-1-2.3-2.3-2.3
	c-1.2,0-2.3,1-2.3,2.3v5.1l-3.8-2.7c-1-0.7-2.4-0.5-3.1,0.5c-0.7,1-0.5,2.4,0.5,3.1l6.4,4.5v7.2h-6.2c-6.4-3.1-10.6-9.7-10.6-16.8
	c0-10.3,8.4-18.7,18.7-18.7s18.7,8.4,18.7,18.7C50.7,32.1,46.5,38.7,40.1,41.8z"/>
</svg>
