<?xml version="1.0" encoding="utf-8"?>
<!-- Generator: Adobe Illustrator 22.0.0, SVG Export Plug-In . SVG Version: 6.00 Build 0)  -->
<svg version="1.1" id="lni_lni-camera" xmlns="http://www.w3.org/2000/svg" xmlns:xlink="http://www.w3.org/1999/xlink" x="0px"
	 y="0px" viewBox="0 0 64 64" style="enable-background:new 0 0 64 64;" xml:space="preserve">
<g>
	<path d="M60.4,19.7c-1.2-1.2-2.8-1.9-4.5-1.9h-7.3v-3.9c0-1.1-0.4-3.7-4.2-3.7H19.4c-3.6,0-4,2.6-4,3.7v3.9H8.1
		c-3.5,0-6.4,2.9-6.4,6.4v23.2c0,3.5,2.9,6.4,6.4,6.4h47.7c3.5,0,6.4-2.9,6.4-6.4l0-23.2C62.3,22.5,61.6,20.9,60.4,19.7z M57.7,47.4
		c0,1-0.8,1.9-1.9,1.9H8.1c-1,0-1.9-0.8-1.9-1.9V24.2c0-1,0.8-1.9,1.9-1.9h8.5c1.8,0,3.3-1.5,3.3-3.3l0-4.3H44v4.3
		c0,1.8,1.5,3.3,3.3,3.3h8.6c0.5,0,1,0.2,1.3,0.6c0.4,0.4,0.5,0.8,0.5,1.3L57.7,47.4z"/>
	<path d="M31.6,23.5c-5.2,0-9.4,4.2-9.4,9.5c0,5.2,4.1,9.3,9.4,9.3c5.2,0,9.4-4.2,9.4-9.3C41,27.9,36.7,23.5,31.6,23.5z M31.6,37.8
		c-2.8,0-4.9-2.1-4.9-4.8c0-2.7,2.2-5,4.9-5c2.7,0,4.9,2.3,4.9,5C36.5,35.7,34.3,37.8,31.6,37.8z"/>
	<path d="M13.8,25.3h-2.3c-1.2,0-2.3,1-2.3,2.3s1,2.3,2.3,2.3h2.3c1.2,0,2.3-1,2.3-2.3S15.1,25.3,13.8,25.3z"/>
</g>
</svg>
