<?xml version="1.0" encoding="utf-8"?>
<!-- Generator: Adobe Illustrator 22.0.0, SVG Export Plug-In . SVG Version: 6.00 Build 0)  -->
<svg version="1.1" id="lni_lni-cloud-network" xmlns="http://www.w3.org/2000/svg" xmlns:xlink="http://www.w3.org/1999/xlink"
	 x="0px" y="0px" viewBox="0 0 64 64" style="enable-background:new 0 0 64 64;" xml:space="preserve">
<path d="M54.9,41.6c-3.2,0-6,2.1-6.9,5h-1v-6.4c5.4-2,9.2-7.2,9.2-13.2c0-3.5-1.3-7-3.8-9.6c-2-2.2-4.8-3.7-7.7-4.3
	c-1.7-2.5-4.1-4.4-6.9-5.4c-1.3-0.5-2.9-0.8-4.5-0.8c-7.1,0-13,5.4-13.7,12.3c-5.2,0.9-9.3,5.4-9.3,10.9c0,4.5,2.7,8.4,6.7,10.1v6.4
	h-1c-1-2.9-3.7-5-6.9-5c-4,0-7.3,3.2-7.3,7.2c0,4,3.3,7.2,7.3,7.2c3.2,0,6-2.1,6.9-5h2.7c1.6,0,2.8-1.3,2.8-2.8V41h8.2v2.1
	c-2.9,0.9-5.1,3.7-5.1,6.9c0,4,3.3,7.2,7.3,7.2c4,0,7.3-3.2,7.3-7.2c0-3.2-2.1-5.9-5.1-6.9V41h7.7c0.2,0,0.4,0,0.6,0v7.2
	c0,1.6,1.3,2.8,2.9,2.8H48c1,2.9,3.7,5,6.9,5c4,0,7.3-3.2,7.3-7.2C62.3,44.8,59,41.6,54.9,41.6z M9.1,51.5c-1.5,0-2.8-1.2-2.8-2.7
	c0-1.5,1.3-2.7,2.8-2.7s2.8,1.2,2.8,2.7C11.9,50.2,10.6,51.5,9.1,51.5z M32,52.6c-1.5,0-2.8-1.2-2.8-2.7c0-1.5,1.3-2.7,2.8-2.7
	c1.5,0,2.8,1.2,2.8,2.7C34.8,51.4,33.5,52.6,32,52.6z M21.4,36.5c-3.7,0-6.6-2.9-6.6-6.5c0-3.6,2.9-6.5,6.6-6.5h0.4
	c1.2,0,2.3-1,2.3-2.3v-0.8c0-5,4.1-9.1,9.2-9.1c1.1,0,2.1,0.2,3,0.5c2.1,0.7,3.9,2.3,5.1,4.3c0.4,0.6,1,1.1,1.7,1.2
	c2.3,0.2,4.5,1.3,6,3c1.7,1.8,2.6,4.1,2.6,6.6c0,5.3-4.4,9.6-9.8,9.6H21.4z M54.9,51.5c-1.5,0-2.8-1.2-2.8-2.7
	c0-1.5,1.3-2.7,2.8-2.7s2.8,1.2,2.8,2.7C57.8,50.2,56.5,51.5,54.9,51.5z"/>
</svg>
