<?xml version="1.0" encoding="utf-8"?>
<!-- Generator: Adobe Illustrator 22.0.0, SVG Export Plug-In . SVG Version: 6.00 Build 0)  -->
<svg version="1.1" id="lni_lni-cloud-download" xmlns="http://www.w3.org/2000/svg" xmlns:xlink="http://www.w3.org/1999/xlink"
	 x="0px" y="0px" viewBox="0 0 64 64" style="enable-background:new 0 0 64 64;" xml:space="preserve">
<g>
	<path d="M35.7,34.7l-1.5,1.5v-6.8c0-1.2-1-2.3-2.3-2.3c-1.2,0-2.3,1-2.3,2.3v6.8l-1.4-1.5c-0.9-0.9-2.3-0.9-3.2-0.1
		c-0.9,0.9-0.9,2.3-0.1,3.2l4.8,4.9c0.6,0.6,1.4,0.9,2.2,0.9c0.8,0,1.6-0.3,2.2-0.9l4.8-4.9c0.9-0.9,0.8-2.3-0.1-3.2
		C38,33.8,36.6,33.8,35.7,34.7z"/>
	<path d="M57.3,23.6c-2.7-2.9-6.4-4.8-10.3-5.5c-2.2-3.4-5.4-5.9-9.1-7.2c-1.7-0.7-3.7-1-5.8-1c-9.4,0-17.2,7.2-17.8,16.3
		C7.2,27.1,1.8,33,1.8,40.1c0,7.7,6.3,13.9,14.1,14c0,0,0,0,0,0h27.8c10.2,0,18.6-8.1,18.6-18.1C62.3,31.4,60.5,27,57.3,23.6z
		 M43.7,49.6H16c-5.5,0-9.7-4.2-9.7-9.5s4.3-9.5,9.7-9.5h0.5c1.2,0,2.3-1,2.3-2.3v-1c0-7.2,6-13,13.3-13c1.6,0,3,0.2,4.3,0.7
		c3.1,1,5.7,3.2,7.3,6.1c0.4,0.6,1,1.1,1.7,1.1c3.3,0.3,6.5,1.9,8.7,4.3c2.4,2.6,3.7,5.9,3.7,9.3C57.8,43.5,51.4,49.6,43.7,49.6z"/>
</g>
</svg>
