<?xml version="1.0" encoding="utf-8"?>
<!-- Generator: Adobe Illustrator 25.2.1, SVG Export Plug-In . SVG Version: 6.00 Build 0)  -->
<svg version="1.1" id="lni_lni-cloud-sync" xmlns="http://www.w3.org/2000/svg" xmlns:xlink="http://www.w3.org/1999/xlink" x="0px"
	 y="0px" viewBox="0 0 64 64" style="enable-background:new 0 0 64 64;" xml:space="preserve">
<g>
	<path d="M39.7,46c-0.9-0.6-2.2-0.4-2.8,0.6c-1.1,1.7-3,2.7-5.1,2.7c-1,0-2-0.3-2.9-0.7h1.9c1.1,0,2-0.9,2-2s-0.9-2-2-2h-6.3
		c-1.3,0-2.5,1.1-2.5,2.5V52c0,1.1,0.9,2,2,2s2-0.9,2-2v-0.6c1.7,1.1,3.6,1.8,5.7,1.8c3.4,0,6.5-1.7,8.4-4.5
		C40.9,47.9,40.6,46.6,39.7,46z"/>
	<path d="M42.7,31.5c0-1.1-0.9-2-2-2s-2,0.9-2,2v1c-2-1.5-4.4-2.7-6.6-2.7c-3.8,0-7.2,2.1-9,5.5c-0.5,1-0.1,2.2,0.8,2.7
		c1,0.5,2.2,0.1,2.7-0.8c1.1-2.1,3.2-3.4,5.5-3.4c1.4,0,3.5,1.2,4.9,2.5h-1.8c-1.1,0-2,0.9-2,2s0.9,2,2,2h5c1.3,0,2.5-1.1,2.5-2.5
		V31.5z"/>
	<path d="M58,23.4c-2.7-3-6.6-5.1-10.7-5.8c-2.2-3.6-5.5-6.3-9.4-7.6c-1.8-0.7-3.7-1-5.9-1c-9.7,0-17.7,7.7-18.1,17.3
		C6.7,27,1,33.2,1,40.6C1,48.5,7.5,55,15.4,55c0,0,0,0,0,0c1.1,0,2-0.9,2-2c0-1.1-0.9-2-2-2C9.6,51,5,46.4,5,40.6
		s4.6-10.4,10.4-10.4h0.5c1.1,0,2-0.9,2-2v-1.1C17.9,19.3,24.2,13,32,13c1.7,0,3.2,0.3,4.5,0.8c3.3,1.1,6,3.5,7.8,6.7
		c0.3,0.6,0.9,1,1.5,1c3.5,0.4,6.8,2.1,9.2,4.6c2.6,2.8,4,6.4,4,10.1C59,44.4,52.3,51,44.1,51c-1.1,0-2,0.9-2,2s0.9,2,2,2
		C54.5,55,63,46.6,63,36.2C63,31.4,61.2,26.9,58,23.4z"/>
</g>
</svg>
