<?xml version="1.0" encoding="utf-8"?>
<!-- Generator: Adobe Illustrator 22.0.0, SVG Export Plug-In . SVG Version: 6.00 Build 0)  -->
<svg version="1.1" id="lni_lni-code-alt" xmlns="http://www.w3.org/2000/svg" xmlns:xlink="http://www.w3.org/1999/xlink" x="0px"
	 y="0px" viewBox="0 0 64 64" style="enable-background:new 0 0 64 64;" xml:space="preserve">
<g>
	<path d="M56,7.4H8c-3.4,0-6.3,2.8-6.3,6.3v22.6c0,3.4,2.8,6.3,6.3,6.3h21.8v9.5h-6.6c-1.2,0-2.3,1-2.3,2.3s1,2.3,2.3,2.3h17.8
		c1.2,0,2.3-1,2.3-2.3s-1-2.3-2.3-2.3h-6.6v-9.5H56c3.4,0,6.3-2.8,6.3-6.3V13.7C62.3,10.2,59.4,7.4,56,7.4z M57.8,36.3
		c0,1-0.8,1.8-1.8,1.8H8c-1,0-1.8-0.8-1.8-1.8V13.7c0-1,0.8-1.8,1.8-1.8h48c1,0,1.8,0.8,1.8,1.8V36.3z"/>
	<path d="M45.1,17.6c-0.9-0.9-2.3-0.9-3.2,0c-0.9,0.9-0.9,2.3,0,3.2l3.7,3.7L42,28.2c-0.9,0.9-0.9,2.3,0,3.2c0.4,0.4,1,0.7,1.6,0.7
		c0.6,0,1.2-0.2,1.6-0.7l5-5c1-1,1-2.6,0-3.6L45.1,17.6z"/>
	<path d="M18.3,24.9l3.6-3.6c0.9-0.9,0.9-2.3,0-3.2c-0.9-0.9-2.3-0.9-3.2,0l-5,5c-1,1-1,2.6,0,3.6l5.1,5.1c0.4,0.4,1,0.7,1.6,0.7
		c0.6,0,1.2-0.2,1.6-0.7c0.9-0.9,0.9-2.3,0-3.2L18.3,24.9z"/>
	<path d="M35.1,17.1c-1.2-0.5-2.5,0.1-2.9,1.3L27.6,30c-0.5,1.2,0.1,2.5,1.3,2.9c0.3,0.1,0.5,0.2,0.8,0.2c0.9,0,1.7-0.5,2.1-1.4
		L36.4,20C36.8,18.9,36.3,17.5,35.1,17.1z"/>
</g>
</svg>
