<?xml version="1.0" encoding="utf-8"?>
<!-- Generator: Adobe Illustrator 22.0.0, SVG Export Plug-In . SVG Version: 6.00 Build 0)  -->
<svg version="1.1" id="lni_lni-code" xmlns="http://www.w3.org/2000/svg" xmlns:xlink="http://www.w3.org/1999/xlink" x="0px"
	 y="0px" viewBox="0 0 64 64" style="enable-background:new 0 0 64 64;" xml:space="preserve">
<g>
	<path d="M19.6,14.1c-0.9-0.8-2.4-0.7-3.2,0.2L2.6,29.9c-1.1,1.2-1.1,3.1,0,4.3l13.9,15.6c0.4,0.5,1.1,0.8,1.7,0.8
		c0.5,0,1.1-0.2,1.5-0.6c0.9-0.8,1-2.3,0.2-3.2L6.7,32l13.1-14.7C20.7,16.3,20.6,14.9,19.6,14.1z"/>
	<path d="M61.4,29.9L47.5,14.3c-0.8-0.9-2.2-1-3.2-0.2s-1,2.2-0.2,3.2L57.3,32L44.2,46.7c-0.8,0.9-0.7,2.3,0.2,3.2
		c0.4,0.4,1,0.6,1.5,0.6c0.6,0,1.2-0.3,1.7-0.8l13.9-15.6C62.5,32.9,62.5,31.1,61.4,29.9z"/>
	<path d="M37.9,14.4c-1.2-0.4-2.5,0.2-2.8,1.4L24.7,46.7c-0.4,1.2,0.2,2.5,1.4,2.8c0.2,0.1,0.5,0.1,0.7,0.1c0.9,0,1.8-0.6,2.1-1.5
		l10.3-30.9C39.7,16.1,39.1,14.8,37.9,14.4z"/>
</g>
</svg>
