<?xml version="1.0" encoding="utf-8"?>
<!-- Generator: Adobe Illustrator 22.0.0, SVG Export Plug-In . SVG Version: 6.00 Build 0)  -->
<svg version="1.1" id="lni_lni-cogs" xmlns="http://www.w3.org/2000/svg" xmlns:xlink="http://www.w3.org/1999/xlink" x="0px"
	 y="0px" viewBox="0 0 64 64" style="enable-background:new 0 0 64 64;" xml:space="preserve">
<g>
	<path d="M43,34.1c-4.8,0-8.8,4-8.8,8.8s3.9,8.8,8.8,8.8s8.8-4,8.8-8.8S47.8,34.1,43,34.1z M43,47.3c-2.4,0-4.3-1.9-4.3-4.3
		c0-2.4,1.9-4.3,4.3-4.3s4.3,1.9,4.3,4.3C47.3,45.3,45.4,47.3,43,47.3z"/>
	<path d="M61.8,46.2l-3.1-1.7c0.1-0.6,0.1-1.2,0.1-1.7c0-0.6,0-1.2-0.1-1.7l3.2-1.8c1.2-0.7,1.6-2.1,1.1-3.4l-3.8-6.5
		c-0.7-1.1-2.1-1.6-3.3-1.1l-3.5,1.9c0,0-0.1-0.1-0.1-0.1c-0.6-0.5-1.3-1.1-2.2-1.6v-2.1c0-2.1-1.7-3.9-3.9-3.9h-6.5
		c-2.1,0-3.9,1.7-3.9,3.9v2.1c-0.9,0.5-1.6,1.1-2.3,1.6c0,0,0,0,0,0l-2.9-1.6c-1.8-1-3.3-0.3-3.9,0.8l-3.6,6.1
		c-0.4,0.6-0.5,1.4-0.3,2.1c0.2,0.7,0.7,1.3,1.3,1.6l3.2,1.7c-0.1,0.5-0.1,1.1-0.1,1.7c0,0.6,0,1.1,0.1,1.7L24,46.3
		c-1.2,0.7-1.6,2.1-1.1,3.4l3.8,6.5c0.7,1.1,2.1,1.6,3.3,1.1l3.5-1.9c0,0,0.1,0,0.1,0.1c0.7,0.6,1.3,1.1,2.3,1.6v2.4
		c0,2.1,1.7,3.9,3.9,3.9h6.5c2.1,0,3.9-1.7,3.9-3.9v-2.5c0.9-0.5,1.5-1,2.2-1.6c0,0,0.1,0,0.1-0.1l2.9,1.6c1.8,1,3.3,0.3,3.9-0.8
		l3.6-6.1c0.4-0.6,0.5-1.4,0.3-2.1C62.9,47.1,62.5,46.5,61.8,46.2z M54.2,41c0.1,0.5,0.1,1.1,0.1,1.8c0,0.6,0,1.2-0.2,1.8
		c-0.2,1.4,0.4,2.8,1.7,3.5l2.2,1.2l-1.8,3l-2.4-1.4c-1.2-0.7-2.6-0.5-3.6,0.3c-0.3,0.2-0.6,0.5-0.8,0.7c-0.6,0.5-1,0.9-1.6,1.1
		c-1.3,0.6-2.2,2-2.2,3.5v2.3h-5.3v-2.2c0-1.5-0.9-2.9-2.2-3.5c-0.6-0.3-1-0.6-1.6-1.2c-0.3-0.2-0.5-0.4-0.8-0.7
		c-1-0.8-2.5-0.9-3.6-0.3l-2.4,1.4l-1.8-3l2.3-1.3c1.2-0.7,1.9-2,1.7-3.4c-0.1-0.6-0.1-1.2-0.1-1.8c0-0.7,0-1.2,0.1-1.8
		c0.2-1.4-0.4-2.8-1.7-3.5l-2.2-1.2l1.7-3l2.4,1.3c1.2,0.7,2.6,0.5,3.6-0.3c0.3-0.2,0.5-0.4,0.8-0.7c0.6-0.6,1.1-0.9,1.6-1.2
		c1.3-0.6,2.2-2,2.2-3.5v-1.9h5.3v1.8c0,1.5,0.9,2.9,2.2,3.5c0.5,0.3,0.9,0.6,1.6,1.1c0.3,0.2,0.6,0.5,0.9,0.7
		c1,0.8,2.4,0.9,3.6,0.3l2.4-1.4l1.8,3l-2.3,1.3C54.6,38.2,53.9,39.6,54.2,41z"/>
	<path d="M15.3,11.6c-2,0-3.7,1.7-3.7,3.7s1.7,3.7,3.7,3.7s3.7-1.7,3.7-3.7S17.4,11.6,15.3,11.6z"/>
	<path d="M27,24.6l2.5-4.2c0.3-0.6,0.4-1.3,0.3-2s-0.6-1.2-1.2-1.5L26.8,16c0-0.3,0-0.5,0-0.8c0-0.3,0-0.5,0-0.8l1.8-1
		c1.1-0.6,1.6-2,1.1-3.2L27,5.7c-0.6-1-2-1.5-3.1-1l-2,1.1c-0.3-0.2-0.6-0.5-0.9-0.7l0-1c0-1.9-1.5-3.4-3.4-3.4h-4.5
		c-1.9,0-3.4,1.5-3.4,3.4v1C9.4,5.4,9.1,5.6,8.8,5.9L7.2,5c-1.6-0.9-3-0.2-3.6,0.8L1.1,10c-0.3,0.6-0.4,1.3-0.3,2
		c0.2,0.7,0.6,1.2,1.2,1.5l1.7,1c0,0.2,0,0.5,0,0.8c0,0.2,0,0.5,0,0.7L2,17c-1.1,0.6-1.6,2-1.1,3.2l2.6,4.5c0.6,1.1,2,1.5,3.1,1
		l2-1.1c0.3,0.2,0.6,0.5,1,0.7l0,1.2c0,1.9,1.5,3.4,3.4,3.4h4.5c1.9,0,3.4-1.5,3.4-3.4v-1.3c0.3-0.2,0.6-0.5,0.9-0.7l1.6,0.9
		C24.9,26.3,26.4,25.7,27,24.6z M19.8,20.4c-0.2,0.2-0.4,0.3-0.6,0.5c-0.4,0.4-0.6,0.5-0.9,0.7c-1.2,0.6-1.9,1.7-1.9,3v0.8h-2.2
		v-0.8c0-1.3-0.8-2.5-1.9-3c-0.3-0.1-0.5-0.3-1-0.7c-0.2-0.2-0.4-0.3-0.6-0.5c-0.9-0.8-2.2-0.9-3.3-0.3l-1,0.6L6,19.9l0.9-0.5
		c1.1-0.6,1.7-1.8,1.5-3c0-0.4-0.1-0.8-0.1-1.2c0-0.4,0-0.8,0.1-1.1C8.6,12.9,8,11.6,6.9,11L6,10.5l0.5-0.8l1,0.6
		c1.1,0.6,2.3,0.5,3.3-0.3c0.2-0.2,0.4-0.3,0.5-0.5c0.4-0.4,0.7-0.6,1-0.7c1.2-0.6,1.9-1.7,1.9-3V5.3h2.2v0.5c0,1.3,0.7,2.5,1.9,3
		c0.3,0.1,0.5,0.3,0.9,0.7c0.2,0.2,0.4,0.3,0.6,0.5c0.9,0.8,2.2,0.9,3.3,0.3l1-0.6l0.5,0.8L23.7,11c-1.1,0.6-1.7,1.9-1.5,3.1
		c0.1,0.3,0.1,0.7,0.1,1.1c0,0.4,0,0.7-0.1,1.1c-0.2,1.3,0.4,2.5,1.5,3.1l0.8,0.5l-0.5,0.8l-1-0.6C22,19.5,20.7,19.6,19.8,20.4z"/>
</g>
</svg>
