<?xml version="1.0" encoding="utf-8"?>
<!-- Generator: Adobe Illustrator 22.0.0, SVG Export Plug-In . SVG Version: 6.00 Build 0)  -->
<svg version="1.1" id="lni_lni-cut" xmlns="http://www.w3.org/2000/svg" xmlns:xlink="http://www.w3.org/1999/xlink" x="0px"
	 y="0px" viewBox="0 0 64 64" style="enable-background:new 0 0 64 64;" xml:space="preserve">
<path d="M46.6,42.1c-1.3,0-2.5,0.3-3.7,0.7l-8.1-11.9L52.2,5.3c0.7-1,0.4-2.4-0.6-3.1c-1-0.7-2.4-0.4-3.1,0.6L32,26.9L15.5,2.7
	c-0.7-1-2.1-1.3-3.1-0.6c-1,0.7-1.3,2.1-0.6,3.1l17.5,25.6l-8.1,11.9c-1.1-0.5-2.4-0.7-3.7-0.7c-5.6,0-10.1,4.5-10.1,10.1
	s4.5,10.1,10.1,10.1s10.1-4.5,10.1-10.1c0-2.6-1-5-2.7-6.8L32,34.9l7.2,10.5c-1.7,1.8-2.7,4.2-2.7,6.8c0,5.6,4.5,10.1,10.1,10.1
	c5.6,0,10.1-4.5,10.1-10.1S52.1,42.1,46.6,42.1z M17.4,57.8c-3.1,0-5.6-2.5-5.6-5.6s2.5-5.6,5.6-5.6s5.6,2.5,5.6,5.6
	S20.5,57.8,17.4,57.8z M46.6,57.8c-3.1,0-5.6-2.5-5.6-5.6s2.5-5.6,5.6-5.6c3.1,0,5.6,2.5,5.6,5.6S49.6,57.8,46.6,57.8z"/>
</svg>
