<?xml version="1.0" encoding="utf-8"?>
<!-- Generator: Adobe Illustrator 22.0.0, SVG Export Plug-In . SVG Version: 6.00 Build 0)  -->
<svg version="1.1" id="lni_lni-dashboard" xmlns="http://www.w3.org/2000/svg" xmlns:xlink="http://www.w3.org/1999/xlink" x="0px"
	 y="0px" viewBox="0 0 64 64" style="enable-background:new 0 0 64 64;" xml:space="preserve">
<g>
	<path d="M32,14.5c-16.7,0-30.3,14.7-30.3,32.8c0,1.2,1,2.3,2.3,2.3h56c1.2,0,2.3-1,2.3-2.3C62.3,29.2,48.7,14.5,32,14.5z M31,45
		l1-3.1l1,3.1H31z M37.7,45L35,36.6c-0.4-1.3-1.6-2.2-3-2.2s-2.6,0.9-3,2.2L26.3,45h-20C7.4,30.5,18.5,19,32,19S56.6,30.5,57.7,45
		H37.7z"/>
	<path d="M32,24.9c-1.2,0-2.3,1-2.3,2.3v2.5c0,1.2,1,2.3,2.3,2.3c1.2,0,2.3-1,2.3-2.3v-2.5C34.3,25.9,33.2,24.9,32,24.9z"/>
	<path d="M46.4,32.3l-1.6,1.6c-0.9,0.9-0.9,2.3,0,3.2c0.4,0.4,1,0.6,1.6,0.6c0.6,0,1.2-0.2,1.6-0.7l1.6-1.6c0.9-0.9,0.9-2.3,0-3.2
		C48.7,31.3,47.3,31.4,46.4,32.3z"/>
	<path d="M17.7,32.3c-0.8-0.9-2.3-1-3.2-0.2c-0.9,0.8-1,2.3-0.2,3.2l1.5,1.6c0.4,0.5,1.1,0.7,1.7,0.7c0.5,0,1.1-0.2,1.5-0.6
		c0.9-0.8,1-2.3,0.2-3.2L17.7,32.3z"/>
</g>
</svg>
