<?xml version="1.0" encoding="utf-8"?>
<!-- Generator: Adobe Illustrator 22.0.0, SVG Export Plug-In . SVG Version: 6.00 Build 0)  -->
<svg version="1.1" id="lni_lni-database" xmlns="http://www.w3.org/2000/svg" xmlns:xlink="http://www.w3.org/1999/xlink" x="0px"
	 y="0px" viewBox="0 0 64 64" style="enable-background:new 0 0 64 64;" xml:space="preserve">
<path d="M32,1.8c-11.7,0-20.9,5.5-20.9,12.4v35.6c0,6.9,9.4,12.4,20.8,12.4c11.5,0,20.9-5.6,20.9-12.4V14.2
	C52.9,7.2,43.7,1.8,32,1.8z M32,6.3c9.6,0,16.4,4.2,16.4,7.9c0,3.8-6.7,7.9-16.4,7.9s-16.4-4.2-16.4-7.9C15.6,10.4,22.4,6.3,32,6.3z
	 M32,57.8c-9.4,0-16.3-4.2-16.3-7.9V46c3.8,2.8,9.6,4.5,16.3,4.5c6.7,0,12.6-1.8,16.4-4.5v3.9C48.4,53.6,41.4,57.8,32,57.8z M32,46
	c-9.6,0-16.3-4-16.3-7.6v-4.6c3.9,2.8,10,4.5,16.3,4.5c6.6,0,12.5-1.7,16.4-4.5v4.6C48.4,42,41.6,46,32,46z M45.8,30.1
	c-3.1,2.3-8.2,3.7-13.8,3.7c-5.5,0-10.7-1.4-13.8-3.7c-1.2-0.8-2.5-2.2-2.5-3.9V22c3.8,2.8,9.7,4.6,16.4,4.6
	c6.7,0,12.6-1.8,16.4-4.6v4.2C48.4,27.8,47,29.2,45.8,30.1z"/>
</svg>
