<?xml version="1.0" encoding="utf-8"?>
<!-- Generator: Adobe Illustrator 22.0.0, SVG Export Plug-In . SVG Version: 6.00 Build 0)  -->
<svg version="1.1" id="lni_lni-display-alt" xmlns="http://www.w3.org/2000/svg" xmlns:xlink="http://www.w3.org/1999/xlink"
	 x="0px" y="0px" viewBox="0 0 64 64" style="enable-background:new 0 0 64 64;" xml:space="preserve">
<path d="M56,3.8H8c-3.4,0-6.3,2.8-6.3,6.3v30.2c0,3.4,2.8,6.3,6.3,6.3h15.7l-2.5,9.2h-4.5c-1.2,0-2.3,1-2.3,2.3s1,2.3,2.3,2.3h30.5
	c1.2,0,2.3-1,2.3-2.3s-1-2.3-2.3-2.3h-4.5l-2.5-9.2H56c3.4,0,6.3-2.8,6.3-6.3V10.1C62.3,6.6,59.4,3.8,56,3.8z M38.2,55.7H25.8
	l2.5-9.2h7.3L38.2,55.7z M57.8,40.2c0,1-0.8,1.8-1.8,1.8H8c-1,0-1.8-0.8-1.8-1.8V10.1c0-1,0.8-1.8,1.8-1.8h48c1,0,1.8,0.8,1.8,1.8
	V40.2z"/>
</svg>
