<?xml version="1.0" encoding="utf-8"?>
<!-- Generator: Adobe Illustrator 22.0.0, SVG Export Plug-In . SVG Version: 6.00 Build 0)  -->
<svg version="1.1" id="lni_lni-display" xmlns="http://www.w3.org/2000/svg" xmlns:xlink="http://www.w3.org/1999/xlink" x="0px"
	 y="0px" viewBox="0 0 64 64" style="enable-background:new 0 0 64 64;" xml:space="preserve">
<path d="M56.1,9.4H7.9c-3.4,0-6.1,2.7-6.1,6.1v22.8c0,3.4,2.7,6.1,6.1,6.1h21.9v5.7h-7.9c-1.2,0-2.3,1-2.3,2.3s1,2.3,2.3,2.3h20.4
	c1.2,0,2.3-1,2.3-2.3s-1-2.3-2.3-2.3h-7.9v-5.7h21.9c3.4,0,6.1-2.7,6.1-6.1V15.5C62.3,12.1,59.5,9.4,56.1,9.4z M57.8,38.3
	c0,0.9-0.7,1.6-1.6,1.6H7.9c-0.9,0-1.6-0.7-1.6-1.6V15.5c0-0.9,0.7-1.6,1.6-1.6h48.3c0.9,0,1.6,0.7,1.6,1.6V38.3z"/>
</svg>
