<?xml version="1.0" encoding="utf-8"?>
<!-- Generator: Adobe Illustrator 22.0.0, SVG Export Plug-In . SVG Version: 6.00 Build 0)  -->
<svg version="1.1" id="lni_lni-domain" xmlns="http://www.w3.org/2000/svg" xmlns:xlink="http://www.w3.org/1999/xlink" x="0px"
	 y="0px" viewBox="0 0 64 64" style="enable-background:new 0 0 64 64;" xml:space="preserve">
<g>
	<g>
		<path d="M7.7,36.8c-0.9,0-1.7-0.4-2.2-1.1l-3.4-4.9c-0.7-1-0.4-2.4,0.6-3.1c1-0.7,2.4-0.4,3.1,0.6l1.8,2.7l1.5-2.2
			c0.5-0.7,1.3-1.1,2.2-1.1c0.9,0,1.7,0.4,2.2,1.1l1.5,2.2l1.8-2.7c0.7-1,2.1-1.3,3.1-0.6c1,0.7,1.3,2.1,0.6,3.1l-3.4,4.9
			c-0.5,0.7-1.3,1.1-2.2,1.1c-0.9,0-1.7-0.4-2.2-1.1l-1.5-2.2l-1.5,2.2C9.4,36.4,8.6,36.8,7.7,36.8C7.7,36.8,7.7,36.8,7.7,36.8z"/>
	</g>
	<g>
		<path d="M28.3,36.8C28.3,36.8,28.3,36.8,28.3,36.8c-0.9,0-1.7-0.4-2.2-1.1l-3.4-4.9c-0.7-1-0.4-2.4,0.6-3.1c1-0.7,2.4-0.4,3.1,0.6
			l1.8,2.7l1.5-2.2c0.5-0.7,1.3-1.1,2.2-1.1c0,0,0,0,0,0c0.9,0,1.7,0.4,2.2,1.1l1.5,2.2l1.8-2.7c0.7-1,2.1-1.3,3.1-0.6
			c1,0.7,1.3,2.1,0.6,3.1l-3.4,4.9c-0.5,0.7-1.3,1.1-2.2,1.1c-0.9,0-1.7-0.4-2.2-1.1L32,33.4l-1.5,2.2C30,36.4,29.2,36.8,28.3,36.8z
			 M33.5,31.2L33.5,31.2C33.5,31.2,33.5,31.2,33.5,31.2z"/>
	</g>
	<g>
		<path d="M56.3,36.8c-0.9,0-1.7-0.4-2.2-1.1l-1.5-2.2l-1.5,2.2c-0.5,0.7-1.3,1.1-2.2,1.1c-0.9,0-1.7-0.4-2.2-1.1l-3.4-4.9
			c-0.7-1-0.4-2.4,0.6-3.1c1-0.7,2.4-0.4,3.1,0.6l1.8,2.7l1.5-2.2c0.5-0.7,1.3-1.1,2.2-1.1c0,0,0,0,0,0c0.9,0,1.7,0.4,2.2,1.1
			l1.5,2.2l1.8-2.7c0.7-1,2.1-1.3,3.1-0.6c1,0.7,1.3,2.1,0.6,3.1l-3.4,4.9C58,36.4,57.2,36.8,56.3,36.8z M51.1,31.2
			C51.1,31.2,51.1,31.2,51.1,31.2L51.1,31.2z"/>
	</g>
</g>
</svg>
