<?xml version="1.0" encoding="utf-8"?>
<!-- Generator: Adobe Illustrator 22.0.0, SVG Export Plug-In . SVG Version: 6.00 Build 0)  -->
<svg version="1.1" id="lni_lni-download" xmlns="http://www.w3.org/2000/svg" xmlns:xlink="http://www.w3.org/1999/xlink" x="0px"
	 y="0px" viewBox="0 0 64 64" style="enable-background:new 0 0 64 64;" xml:space="preserve">
<g>
	<path d="M60,44c-1.2,0-2.3,1-2.3,2.3v8.9c0,0.9-0.7,1.6-1.6,1.6H7.9c-0.9,0-1.6-0.7-1.6-1.6v-8.9C6.3,45,5.2,44,4,44
		s-2.3,1-2.3,2.3v8.9c0,3.4,2.7,6.1,6.1,6.1h48.3c3.4,0,6.1-2.7,6.1-6.1v-8.9C62.3,45,61.2,44,60,44z"/>
	<path d="M30.4,46.5c0.4,0.4,1,0.6,1.6,0.6s1.1-0.2,1.6-0.6l14.5-14.1c0.9-0.9,0.9-2.3,0-3.2c-0.9-0.9-2.3-0.9-3.2,0L34.3,39.6V5
		c0-1.2-1-2.3-2.3-2.3c-1.2,0-2.3,1-2.3,2.3v34.6L19.1,29.2c-0.9-0.9-2.3-0.8-3.2,0c-0.9,0.9-0.8,2.3,0,3.2L30.4,46.5z"/>
</g>
</svg>
