<?xml version="1.0" encoding="utf-8"?>
<!-- Generator: Adobe Illustrator 22.0.0, SVG Export Plug-In . SVG Version: 6.00 Build 0)  -->
<svg version="1.1" id="lni_lni-empty-file" xmlns="http://www.w3.org/2000/svg" xmlns:xlink="http://www.w3.org/1999/xlink" x="0px"
	 y="0px" viewBox="0 0 64 64" style="enable-background:new 0 0 64 64;" xml:space="preserve">
<path d="M49.5,1.8H14.5c-3.4,0-6.1,2.7-6.1,6.1v32.1c0,1.5,0.6,2.9,1.7,3.9l18,17c1,1,2.3,1.5,3.7,1.5h17.6c3.4,0,6.1-2.7,6.1-6.1
	V7.9C55.6,4.5,52.8,1.8,49.5,1.8z M16.2,43.4h11.7c0.5,0,0.9,0.4,0.9,0.8v11L16.2,43.4z M51.1,56.1c0,0.9-0.7,1.6-1.6,1.6H33.3V44.2
	c0-2.9-2.4-5.3-5.4-5.3h-15v-31c0-0.9,0.7-1.6,1.6-1.6h34.9c0.9,0,1.6,0.7,1.6,1.6V56.1z"/>
</svg>
