<?xml version="1.0" encoding="utf-8"?>
<!-- Generator: Adobe Illustrator 22.0.0, SVG Export Plug-In . SVG Version: 6.00 Build 0)  -->
<svg version="1.1" id="lni_lni-files" xmlns="http://www.w3.org/2000/svg" xmlns:xlink="http://www.w3.org/1999/xlink" x="0px"
	 y="0px" viewBox="0 0 64 64" style="enable-background:new 0 0 64 64;" xml:space="preserve">
<path d="M56,4.4H34.2c-3.4,0-6.3,2.8-6.3,6.3v7.1H8c-3.4,0-6.3,2.8-6.3,6.3v19.2c0,1.2,0.5,2.4,1.4,3.3L15,58.3
	c0.9,0.9,2.1,1.4,3.3,1.4h11.5c3.4,0,6.2-2.8,6.2-6.3V39.9l5.1,5.1c0.9,0.9,2.1,1.4,3.3,1.4H56c3.4,0,6.3-2.8,6.3-6.3V10.6
	C62.3,7.2,59.4,4.4,56,4.4z M9.4,46.3h5.5c0.1,0,0.2,0.1,0.2,0.2V52L9.4,46.3z M31.6,53.4c0,1-0.8,1.8-1.7,1.8H19.6v-8.6
	c0-2.6-2.1-4.7-4.7-4.7H6.3V23.9c0-1,0.8-1.8,1.8-1.8h23.4c0.1,0,0.2,0.1,0.2,0.2V53.4z M36.1,33.5V33h5c0.1,0,0.2,0.1,0.2,0.2v5.5
	L36.1,33.5z M57.8,40.1c0,1-0.8,1.8-1.8,1.8H45.7v-8.6c0-2.6-2.1-4.7-4.7-4.7h-5v-6.2c0-2.2-1.6-4.1-3.6-4.5v-7.2
	c0-1,0.8-1.8,1.8-1.8H56c1,0,1.8,0.8,1.8,1.8V40.1z"/>
</svg>
