<?xml version="1.0" encoding="utf-8"?>
<!-- Generator: Adobe Illustrator 22.0.0, SVG Export Plug-In . SVG Version: 6.00 Build 0)  -->
<svg version="1.1" id="lni_lni-game" xmlns="http://www.w3.org/2000/svg" xmlns:xlink="http://www.w3.org/1999/xlink" x="0px"
	 y="0px" viewBox="0 0 64 64" style="enable-background:new 0 0 64 64;" xml:space="preserve">
<g>
	<path d="M59.4,25.1c-1.9-1.9-4.6-3.1-7.3-3.1H34.2V6.6c0-1.2-1-2.3-2.3-2.3s-2.3,1-2.3,2.3v15.5H12c-5.6,0-10.2,4.5-10.2,10.1v17.4
		c0,5.6,4.6,10.1,10.2,10.1c5.1,0,9.3-3.7,10.1-8.4h20c0.8,4.8,5,8.5,10.1,8.5c5.6,0,10.2-4.5,10.2-10.1V32.2
		C62.3,29.6,61.3,27.1,59.4,25.1z M57.7,49.6c0,3.1-2.5,5.6-5.7,5.6c-3.2,0-5.7-2.5-5.7-5.6c0-1.6-1.3-2.9-2.9-2.9H20.6
		c-1.6,0-2.9,1.3-2.9,2.9c0,3-2.6,5.5-5.7,5.5c-3.2,0-5.7-2.5-5.7-5.6V32.2c0-3.1,2.6-5.6,5.7-5.6h40.1c1.5,0,3,0.6,4.1,1.7
		c1,1,1.6,2.4,1.6,3.9V49.6z"/>
	<path d="M21.1,34.8h-2.2v-2.1c0-1.2-1-2.3-2.3-2.3s-2.3,1-2.3,2.3v2.1h-2.2c-1.2,0-2.3,1-2.3,2.3s1,2.3,2.3,2.3h2.2v2.1
		c0,1.2,1,2.3,2.3,2.3s2.3-1,2.3-2.3v-2.1h2.2c1.2,0,2.3-1,2.3-2.3S22.3,34.8,21.1,34.8z"/>
	<path d="M49,35c0.2,0,0.3,0,0.4,0c0.1,0,0.3-0.1,0.4-0.1c0.1-0.1,0.3-0.1,0.4-0.2s0.2-0.2,0.3-0.3c0.4-0.4,0.7-1,0.7-1.6
		c0-0.6-0.2-1.2-0.7-1.6c-0.1-0.1-0.2-0.2-0.3-0.3s-0.3-0.1-0.4-0.2c-0.1-0.1-0.3-0.1-0.4-0.1c-0.7-0.1-1.5,0.1-2,0.6
		c-0.4,0.4-0.7,1-0.7,1.6c0,0.6,0.2,1.2,0.7,1.6C47.8,34.7,48.4,35,49,35z"/>
	<path d="M46.2,35.5c-0.1-0.1-0.2-0.2-0.3-0.3s-0.3-0.1-0.4-0.2c-0.1-0.1-0.3-0.1-0.4-0.1c-0.7-0.1-1.5,0.1-2,0.6
		c-0.4,0.4-0.7,1-0.7,1.6c0,0.6,0.2,1.2,0.7,1.6c0.2,0.2,0.5,0.4,0.7,0.5c0.3,0.1,0.6,0.2,0.9,0.2c0.2,0,0.3,0,0.4,0
		c0.2,0,0.3-0.1,0.4-0.1c0.1,0,0.3-0.1,0.4-0.2c0.1-0.1,0.2-0.2,0.3-0.3c0.4-0.4,0.7-1,0.7-1.6C46.9,36.5,46.6,35.9,46.2,35.5z"/>
	<path d="M47.4,40.3c-0.4,0.4-0.7,1-0.7,1.6c0,0.6,0.2,1.2,0.7,1.6c0.1,0.1,0.2,0.2,0.3,0.3c0.1,0.1,0.3,0.2,0.4,0.2
		c0.1,0.1,0.3,0.1,0.4,0.1c0.1,0,0.3,0,0.4,0c0.2,0,0.3,0,0.4,0c0.1,0,0.3-0.1,0.4-0.1c0.1-0.1,0.3-0.1,0.4-0.2
		c0.1-0.1,0.2-0.2,0.3-0.3c0.4-0.4,0.7-1,0.7-1.6c0-0.6-0.2-1.2-0.7-1.6C49.8,39.4,48.3,39.4,47.4,40.3z"/>
	<path d="M55.4,36.2c-0.1-0.1-0.1-0.3-0.2-0.4c-0.1-0.1-0.2-0.2-0.3-0.3c-0.5-0.5-1.3-0.8-2-0.6c-0.1,0-0.3,0.1-0.4,0.1
		c-0.1,0-0.3,0.1-0.4,0.2s-0.2,0.2-0.3,0.3c-0.1,0.1-0.2,0.2-0.3,0.3c-0.1,0.1-0.2,0.3-0.2,0.4c-0.1,0.1-0.1,0.3-0.1,0.4
		c0,0.1,0,0.3,0,0.4c0,0.6,0.2,1.2,0.7,1.6c0.4,0.4,1,0.7,1.6,0.7c0.6,0,1.2-0.2,1.6-0.7c0.4-0.4,0.7-1,0.7-1.6c0-0.1,0-0.3,0-0.4
		C55.5,36.5,55.5,36.4,55.4,36.2z"/>
</g>
</svg>
