<?xml version="1.0" encoding="utf-8"?>
<!-- Generator: Adobe Illustrator 22.0.0, SVG Export Plug-In . SVG Version: 6.00 Build 0)  -->
<svg version="1.1" id="lni_lni-harddrive" xmlns="http://www.w3.org/2000/svg" xmlns:xlink="http://www.w3.org/1999/xlink" x="0px"
	 y="0px" viewBox="0 0 64 64" style="enable-background:new 0 0 64 64;" xml:space="preserve">
<g>
	<path d="M48.2,2.3H15.8c-3.3,0-6,2.7-6,6v47.4c0,3.3,2.7,6,6,6h32.5c3.3,0,6-2.7,6-6V8.3C54.3,5,51.6,2.3,48.2,2.3z M49.8,55.7
		c0,0.9-0.7,1.5-1.5,1.5H15.8c-0.9,0-1.5-0.7-1.5-1.5V8.3c0-0.9,0.7-1.5,1.5-1.5h32.5c0.9,0,1.5,0.7,1.5,1.5V55.7z"/>
	<path d="M43.6,32c0-6.3-5.2-11.5-11.5-11.5c-6.3,0-11.5,5.2-11.5,11.5c0,2.3,0.7,4.5,1.9,6.3c-1.9,1.3-3.7,2.7-4.4,4c0,0,0,0,0,0
		c-2.1,3.6-0.9,8.2,2.7,10.3c1.2,0.7,2.5,1,3.8,1c0.6,0,1.3-0.1,1.9-0.3c1.9-0.5,3.6-1.8,4.6-3.5c0.8-1.3,1.1-3.8,1.3-6.4
		C38.6,43.3,43.6,38.2,43.6,32z M27.2,47.6c-0.4,0.7-1.1,1.2-1.8,1.4c-0.8,0.2-1.6,0.1-2.3-0.3c-0.7-0.4-1.2-1.1-1.4-1.8
		s-0.1-1.6,0.3-2.3c0.5-0.9,3.1-2.7,6.1-4.4C28,43.6,27.7,46.8,27.2,47.6z M32.5,39c0-1.1,0-2.1-0.1-2.7c0-0.8-0.5-1.5-1.1-1.9
		c-0.7-0.4-1.5-0.4-2.2-0.1c-0.6,0.3-1.7,0.9-2.9,1.6c-0.8-1.2-1.2-2.5-1.2-4c0-3.9,3.1-7,7-7c3.9,0,7,3.1,7,7
		C39.1,35.7,36.2,38.7,32.5,39z"/>
	<path d="M42.8,50.3c-0.4,0.4-0.7,1-0.7,1.6c0,0.6,0.2,1.2,0.7,1.6c0.4,0.4,1,0.7,1.6,0.7c0.1,0,0.3,0,0.4,0c0.1,0,0.3-0.1,0.4-0.1
		c0.1-0.1,0.3-0.1,0.4-0.2c0.1-0.1,0.2-0.2,0.3-0.3c0.4-0.4,0.7-1,0.7-1.6c0-0.6-0.2-1.2-0.7-1.6C45.1,49.5,43.6,49.5,42.8,50.3z"/>
</g>
</svg>
