<?xml version="1.0" encoding="utf-8"?>
<!-- Generator: Adobe Illustrator 22.0.0, SVG Export Plug-In . SVG Version: 6.00 Build 0)  -->
<svg version="1.1" id="lni_lni-headphone" xmlns="http://www.w3.org/2000/svg" xmlns:xlink="http://www.w3.org/1999/xlink" x="0px"
	 y="0px" viewBox="0 0 64 64" style="enable-background:new 0 0 64 64;" xml:space="preserve">
<path d="M53.6,18c-5.9-5.8-13.7-8.9-22.1-8.7C15.1,9.5,1.8,22.8,1.8,38.9v11.5c0,2.3,1.9,4.3,4.3,4.3h6.2c2.3,0,4.3-1.9,4.3-4.3
	v-8.8c0-2.3-1.9-4.3-4.3-4.3H6.3c0.8-13,11.8-23.5,25.2-23.7c7.1-0.2,13.9,2.5,18.9,7.4c4.5,4.4,7.1,10.1,7.3,16.2h-5.9
	c-2.3,0-4.3,1.9-4.3,4.3v8.8c0,2.3,1.9,4.3,4.3,4.3H58c2.3,0,4.3-1.9,4.3-4.3v-12C62.3,30.8,59.2,23.5,53.6,18z M11.9,50.2H6.3v-8.3
	h5.7V50.2z M57.8,50.2h-5.7v-8.3h5.7V50.2z"/>
</svg>
