<?xml version="1.0" encoding="utf-8"?>
<!-- Generator: Adobe Illustrator 22.0.0, SVG Export Plug-In . SVG Version: 6.00 Build 0)  -->
<svg version="1.1" id="lni_lni-keyboard" xmlns="http://www.w3.org/2000/svg" xmlns:xlink="http://www.w3.org/1999/xlink" x="0px"
	 y="0px" viewBox="0 0 64 64" style="enable-background:new 0 0 64 64;" xml:space="preserve">
<g>
	<path d="M56,11.9H8c-3.4,0-6.3,2.8-6.3,6.3v27.6c0,3.4,2.8,6.3,6.3,6.3h48c3.4,0,6.3-2.8,6.3-6.3V18.2C62.3,14.7,59.4,11.9,56,11.9
		z M57.8,45.8c0,1-0.8,1.8-1.8,1.8H8c-1,0-1.8-0.8-1.8-1.8V18.2c0-1,0.8-1.8,1.8-1.8h48c1,0,1.8,0.8,1.8,1.8V45.8z"/>
	<path d="M42.2,38.9H21.8c-1.2,0-2.3,1-2.3,2.3s1,2.3,2.3,2.3h20.4c1.2,0,2.3-1,2.3-2.3S43.4,38.9,42.2,38.9z"/>
	<path d="M23.5,24c0-1.2-1-2.3-2.3-2.3h-1.7c-1.2,0-2.3,1-2.3,2.3s1,2.3,2.3,2.3h1.7C22.5,26.3,23.5,25.3,23.5,24z"/>
	<path d="M31.1,26.3h1.7c1.2,0,2.3-1,2.3-2.3s-1-2.3-2.3-2.3h-1.7c-1.2,0-2.3,1-2.3,2.3S29.9,26.3,31.1,26.3z"/>
	<path d="M44.5,21.8h-1.7c-1.2,0-2.3,1-2.3,2.3s1,2.3,2.3,2.3h1.7c1.2,0,2.3-1,2.3-2.3S45.7,21.8,44.5,21.8z"/>
	<path d="M25.3,34h1.7c1.2,0,2.3-1,2.3-2.2s-1-2.3-2.3-2.3h-1.7c-1.2,0-2.3,1-2.3,2.3S24.1,34,25.3,34z"/>
	<path d="M36.9,34h1.7c1.2,0,2.3-1,2.3-2.2s-1-2.3-2.3-2.3h-1.7c-1.2,0-2.3,1-2.3,2.3S35.7,34,36.9,34z"/>
</g>
</svg>
