<?xml version="1.0" encoding="utf-8"?>
<!-- Generator: Adobe Illustrator 22.0.0, SVG Export Plug-In . SVG Version: 6.00 Build 0)  -->
<svg version="1.1" id="lni_lni-laptop" xmlns="http://www.w3.org/2000/svg" xmlns:xlink="http://www.w3.org/1999/xlink" x="0px"
	 y="0px" viewBox="0 0 64 64" style="enable-background:new 0 0 64 64;" xml:space="preserve">
<path d="M62.2,53.7l-4-17.3c0.2-0.3,0.3-0.7,0.3-1v-23c0-3.4-2.8-6.3-6.3-6.3H11.8c-3.4,0-6.3,2.8-6.3,6.3v23c0,0.3,0.1,0.7,0.2,0.9
	l-4,17.5c-0.2,1,0.1,2,0.8,2.8c0.7,0.8,1.7,1.3,2.8,1.3h53.4c1.1,0,2.2-0.5,2.8-1.4C62.2,55.7,62.4,54.6,62.2,53.7z M10.1,12.4
	c0-1,0.8-1.8,1.8-1.8h40.3c1,0,1.8,0.8,1.8,1.8v20.8H10.1V12.4z M6.5,53.4l3.6-15.7h43.7l3.6,15.7H6.5z"/>
</svg>
