<?xml version="1.0" encoding="utf-8"?>
<!-- Generator: Adobe Illustrator 22.0.0, SVG Export Plug-In . SVG Version: 6.00 Build 0)  -->
<svg version="1.1" id="lni_lni-laptop-phone" xmlns="http://www.w3.org/2000/svg" xmlns:xlink="http://www.w3.org/1999/xlink"
	 x="0px" y="0px" viewBox="0 0 64 64" style="enable-background:new 0 0 64 64;" xml:space="preserve">
<g>
	<path d="M58.1,22.1h-6V10.4c0-3.4-2.7-6.1-6.1-6.1H13c-3.4,0-6.1,2.7-6.1,6.1v17.5c-0.6,0.5-1.1,1.2-1.4,2.1L1.8,48
		c-0.2,1,0.1,2.1,0.8,2.9c0.6,0.8,1.6,1.2,2.6,1.2h32.2v3.5c0,2.3,1.9,4.2,4.2,4.2h16.5c2.3,0,4.2-1.9,4.2-4.2V26.3
		C62.3,24,60.4,22.1,58.1,22.1z M6.5,47.6l3.3-15.9h0.5h27.2v15.9H6.5z M37.4,26.3v0.9h-26V10.4c0-0.9,0.7-1.6,1.6-1.6h33
		c0.9,0,1.6,0.7,1.6,1.6v11.7h-6C39.3,22.1,37.4,24,37.4,26.3z M57.8,55.2H41.9V26.6h15.9V55.2z"/>
	<path d="M47.6,34.3h5c1.2,0,2.3-1,2.3-2.3c0-1.2-1-2.3-2.3-2.3h-5c-1.2,0-2.3,1-2.3,2.3C45.3,33.2,46.3,34.3,47.6,34.3z"/>
	<path d="M49.9,49.8c-0.1,0-0.3,0.1-0.4,0.1c-0.1,0.1-0.3,0.1-0.4,0.2c-0.1,0.1-0.2,0.2-0.3,0.3c-0.4,0.4-0.7,1-0.7,1.6
		c0,0.6,0.2,1.2,0.7,1.6c0.1,0.1,0.2,0.2,0.3,0.3c0.1,0.1,0.3,0.2,0.4,0.2c0.1,0.1,0.3,0.1,0.4,0.1c0.1,0,0.3,0,0.4,0
		c0.6,0,1.2-0.2,1.6-0.7c0.4-0.4,0.7-1,0.7-1.6c0-0.6-0.2-1.2-0.7-1.6C51.4,49.9,50.6,49.7,49.9,49.8z"/>
</g>
</svg>
