<?xml version="1.0" encoding="utf-8"?>
<!-- Generator: Adobe Illustrator 22.0.0, SVG Export Plug-In . SVG Version: 6.00 Build 0)  -->
<svg version="1.1" id="lni_lni-link" xmlns="http://www.w3.org/2000/svg" xmlns:xlink="http://www.w3.org/1999/xlink" x="0px"
	 y="0px" viewBox="0 0 64 64" style="enable-background:new 0 0 64 64;" xml:space="preserve">
<path d="M58.9,42.3l-8.1-8.1c-4.1-4.1-10.5-4.5-15.1-1.2l-4.8-4.8c1.4-1.9,2.2-4.2,2.2-6.7c0-3.1-1.2-6.1-3.4-8.3l-8.1-8.1
	c-4.5-4.5-11.9-4.5-16.5,0C3,7.4,1.8,10.3,1.8,13.4c0,3.1,1.2,6,3.4,8.2l8,8.1c2.3,2.3,5.3,3.4,8.2,3.4c2.2,0,4.3-0.6,6.2-1.8l5,5
	c-1.2,1.8-1.8,4-1.8,6.2c0,3.1,1.2,6,3.4,8.2l8,8.1c2.3,2.3,5.3,3.4,8.2,3.4c3,0,6-1.1,8.2-3.4c2.2-2.2,3.4-5.1,3.4-8.2
	C62.3,47.5,61.1,44.6,58.9,42.3z M16.4,26.5l-8-8.1c-1.4-1.4-2.1-3.2-2.1-5.1c0-1.9,0.7-3.7,2.1-5.1c1.4-1.4,3.2-2.1,5.1-2.1
	c1.8,0,3.7,0.7,5.1,2.1l8.1,8c1.3,1.4,2.1,3.2,2.1,5.1c0,1.3-0.3,2.4-0.9,3.5l-2.5-2.5c-0.9-0.9-2.3-0.9-3.2,0
	c-0.9,0.9-0.9,2.3,0,3.2l2.3,2.3C21.7,29.2,18.5,28.7,16.4,26.5z M55.6,55.6L55.6,55.6c-2.8,2.8-7.4,2.8-10.1,0l-8-8.1
	c-1.4-1.4-2.1-3.2-2.1-5.1c0-1,0.2-2,0.6-2.9l2.3,2.2c0.4,0.4,1,0.7,1.6,0.7c0.6,0,1.2-0.2,1.6-0.7c0.9-0.9,0.9-2.3,0-3.2L39,36.3
	c1.1-0.6,2.3-0.9,3.5-0.9c1.8,0,3.7,0.7,5.1,2.1l8.1,8c1.3,1.4,2.1,3.2,2.1,5.1C57.7,52.5,57,54.3,55.6,55.6z"/>
</svg>
