<?xml version="1.0" encoding="utf-8"?>
<!-- Generator: Adobe Illustrator 22.0.0, SVG Export Plug-In . SVG Version: 6.00 Build 0)  -->
<svg version="1.1" id="lni_lni-magnifier" xmlns="http://www.w3.org/2000/svg" xmlns:xlink="http://www.w3.org/1999/xlink" x="0px"
	 y="0px" viewBox="0 0 64 64" style="enable-background:new 0 0 64 64;" xml:space="preserve">
<g>
	<path d="M60.4,50.3L48.7,38.7c-1.2-1.2-2.8-1.9-4.5-1.9c-1.2,0-2.3,0.3-3.3,0.9l-5.2-5.2c2.6-3.3,4.1-7.4,4.1-11.8
		c0-5.1-2-9.9-5.6-13.5c-3.6-3.6-8.4-5.6-13.5-5.6s-9.9,2-13.5,5.6c-3.6,3.6-5.6,8.4-5.6,13.5s2,9.9,5.6,13.5
		c3.6,3.6,8.4,5.6,13.5,5.6c4.3,0,8.4-1.4,11.8-4.1l5.2,5.2c-0.6,1-0.9,2.1-0.9,3.3c0,1.7,0.7,3.3,1.9,4.5l11.6,11.6
		c1.2,1.2,2.8,1.9,4.5,1.9c1.7,0,3.3-0.7,4.5-1.9l1.1-1.1c1.2-1.2,1.9-2.8,1.9-4.5C62.3,53.1,61.6,51.5,60.4,50.3z M10.5,31.1
		c-2.7-2.7-4.3-6.4-4.3-10.3s1.5-7.5,4.3-10.3s6.4-4.3,10.3-4.3s7.5,1.5,10.3,4.3s4.3,6.4,4.3,10.3s-1.5,7.5-4.3,10.3
		s-6.4,4.3-10.3,4.3S13.3,33.8,10.5,31.1z M57.2,56.1l-1.1,1.1c-0.7,0.7-1.9,0.7-2.7,0L41.8,45.6c-0.7-0.7-0.7-1.9,0-2.7l1.1-1.1
		c0.4-0.4,0.8-0.5,1.3-0.5c0.5,0,1,0.2,1.3,0.5l11.6,11.6c0.4,0.4,0.5,0.8,0.5,1.3C57.8,55.3,57.6,55.8,57.2,56.1z"/>
	<path d="M24.7,12.7c-0.9,0.9-0.9,2.3,0,3.2c2.4,2.4,2.4,6.4,0,8.8c-0.9,0.9-0.9,2.3,0,3.2c0.4,0.4,1,0.7,1.6,0.7s1.2-0.2,1.6-0.7
		c2-2,3.1-4.7,3.1-7.6s-1.1-5.5-3.1-7.6C27,11.8,25.5,11.8,24.7,12.7z"/>
</g>
</svg>
