<?xml version="1.0" encoding="utf-8"?>
<!-- Generator: Adobe Illustrator 22.0.0, SVG Export Plug-In . SVG Version: 6.00 Build 0)  -->
<svg version="1.1" id="lni_lni-map-marker" xmlns="http://www.w3.org/2000/svg" xmlns:xlink="http://www.w3.org/1999/xlink" x="0px"
	 y="0px" viewBox="0 0 64 64" style="enable-background:new 0 0 64 64;" xml:space="preserve">
<g>
	<path d="M32,1.8C18.2,1.8,7,12.6,7,25.9C7,36,20.4,52,28.3,60.6c1,1.1,2.3,1.6,3.7,1.6c1.4,0,2.7-0.6,3.7-1.6
		C43.6,52,57,36,57,25.9C57,12.6,45.8,1.8,32,1.8z M32.4,57.6c-0.2,0.2-0.5,0.2-0.8,0C21.9,47,11.5,33.2,11.5,25.9
		c0-10.8,9.2-19.6,20.5-19.6s20.5,8.8,20.5,19.6C52.5,33.2,42.1,47,32.4,57.6z"/>
	<path d="M32,15.7c-6,0-10.9,4.9-10.9,10.9S26,37.6,32,37.6s10.9-4.9,10.9-10.9S38,15.7,32,15.7z M32,33.1c-3.6,0-6.4-2.9-6.4-6.4
		s2.9-6.4,6.4-6.4s6.4,2.9,6.4,6.4S35.6,33.1,32,33.1z"/>
</g>
</svg>
