<?xml version="1.0" encoding="utf-8"?>
<!-- Generator: Adobe Illustrator 22.0.0, SVG Export Plug-In . SVG Version: 6.00 Build 0)  -->
<svg version="1.1" id="lni_lni-map" xmlns="http://www.w3.org/2000/svg" xmlns:xlink="http://www.w3.org/1999/xlink" x="0px"
	 y="0px" viewBox="0 0 64 64" style="enable-background:new 0 0 64 64;" xml:space="preserve">
<g>
	<path d="M57.4,17.8l-14.8-3.4c0-0.3,0.1-0.5,0.1-0.8c0-5-4-9-8.9-9c-5,0-9,4-9,9c0,1,0.3,2.3,0.9,3.8L22.8,18L9.7,14.3
		c-1.9-0.5-3.9-0.2-5.5,1c-1.6,1.2-2.5,3-2.5,5v28.6c0,2.8,1.9,5.3,4.6,6l15.8,4.5c0,0,0,0,0.1,0c0.2,0,0.4,0.1,0.6,0.1
		c0.2,0,0.3,0,0.5,0c0,0,0,0,0,0l18.2-3.8l13.2,3.1c0.5,0.1,0.9,0.2,1.4,0.2c1.4,0,2.8-0.5,3.9-1.4c1.5-1.2,2.4-3,2.4-4.9V23.9
		C62.3,21,60.3,18.5,57.4,17.8z M33.7,9.1c2.5,0,4.4,2,4.4,4.5c0,1.1-1.4,4.4-4.5,9.2c-3.1-4.8-4.5-8-4.5-9.2
		C29.2,11.1,31.2,9.1,33.7,9.1z M27.6,21.5c1.1,2,2.4,4,3.6,5.7c0.5,0.8,1.5,1.3,2.4,1.3c0,0,0,0,0,0c1,0,1.9-0.5,2.4-1.3
		c1-1.5,2.1-3.1,3.1-4.8v29L25,54.4V22.1L27.6,21.5z M6.3,48.8V20.3c0-0.6,0.3-1.1,0.7-1.4s1-0.4,1.5-0.3l12,3.4v32.2L7.5,50.5
		C6.8,50.3,6.3,49.6,6.3,48.8z M57.8,52.5c0,0.7-0.4,1.2-0.7,1.4c-0.2,0.2-0.8,0.5-1.5,0.3l-12-2.8V19.2l12.8,3
		c0.8,0.2,1.4,0.9,1.4,1.7V52.5z"/>
	<path d="M34.1,15.5c0.1,0,0.3-0.1,0.4-0.1c0.1,0,0.3-0.1,0.4-0.2c0.1-0.1,0.2-0.2,0.3-0.3c0.4-0.4,0.7-1,0.7-1.6
		c0-0.6-0.2-1.2-0.7-1.6c-0.1-0.1-0.2-0.2-0.3-0.3c-0.1-0.1-0.3-0.2-0.4-0.2c-0.1-0.1-0.3-0.1-0.4-0.1c-0.7-0.1-1.5,0.1-2,0.6
		c-0.4,0.4-0.7,1-0.7,1.6c0,0.6,0.2,1.2,0.7,1.6c0.4,0.4,1,0.7,1.6,0.7C33.8,15.5,34,15.5,34.1,15.5z"/>
</g>
</svg>
