<?xml version="1.0" encoding="utf-8"?>
<!-- Generator: Adobe Illustrator 22.0.0, SVG Export Plug-In . SVG Version: 6.00 Build 0)  -->
<svg version="1.1" id="lni_lni-mic" xmlns="http://www.w3.org/2000/svg" xmlns:xlink="http://www.w3.org/1999/xlink" x="0px"
	 y="0px" viewBox="0 0 64 64" style="enable-background:new 0 0 64 64;" xml:space="preserve">
<g>
	<path d="M32,43.9c3.2,0,6.2-1.3,8.5-3.5c2.2-2.2,3.4-5.2,3.4-8.3V13.6c0-6.6-5.3-11.9-11.9-11.9c-6.6,0-11.9,5.3-11.9,11.9V32
		C20.1,38.6,25.4,43.9,32,43.9z M24.6,13.6c0-4.1,3.3-7.4,7.4-7.4c4.1,0,7.4,3.3,7.4,7.4v18.4c0,1.9-0.7,3.8-2.1,5.2
		c-1.4,1.4-3.3,2.2-5.3,2.2c-4.1,0-7.4-3.3-7.4-7.4V13.6z"/>
	<path d="M52.6,31.5c0-1.2-1-2.3-2.3-2.3s-2.3,1-2.3,2.3c0,8.9-7.2,16.1-16.1,16.1c-8.8,0-16-7.2-16-16c0-1.2-1-2.3-2.3-2.3
		s-2.3,1-2.3,2.3c0,10.6,8,19.3,18.3,20.4v5.7h-6.2c-1.2,0-2.3,1-2.3,2.3s1,2.3,2.3,2.3h16.9c1.2,0,2.3-1,2.3-2.3s-1-2.3-2.3-2.3
		h-6.2V52C44.5,50.9,52.6,42.1,52.6,31.5z"/>
</g>
</svg>
