<?xml version="1.0" encoding="utf-8"?>
<!-- Generator: Adobe Illustrator 22.0.0, SVG Export Plug-In . SVG Version: 6.00 Build 0)  -->
<svg version="1.1" id="lni_lni-microphone" xmlns="http://www.w3.org/2000/svg" xmlns:xlink="http://www.w3.org/1999/xlink" x="0px"
	 y="0px" viewBox="0 0 64 64" style="enable-background:new 0 0 64 64;" xml:space="preserve">
<path d="M44.2,1.8c-10,0-18.1,8.1-18.1,18.1c0,1.7,0.3,3.4,0.7,5L4.3,47.3c-3.4,3.4-3.4,9,0,12.4c1.7,1.7,3.9,2.5,6.2,2.5
	c2.3,0,4.5-0.8,6.2-2.5l22.5-22.5c1.6,0.5,3.2,0.7,5,0.7c10,0,18.1-8.1,18.1-18.1S54.1,1.8,44.2,1.8z M7.5,56.5
	c-1.6-1.6-1.6-4.4,0-6l0.3-0.3l6,6l-0.2,0.2C11.9,58.2,9.1,58.2,7.5,56.5z M16.9,53.1l-6-6l17.9-17.8c1.5,2.5,3.6,4.5,6,6L16.9,53.1
	z M30.6,19.8c0-1.2,0.2-2.3,0.4-3.4L47.5,33c-1.1,0.3-2.2,0.4-3.3,0.4C36.7,33.4,30.6,27.3,30.6,19.8z M51.9,31L33,12.1
	c2.5-3.5,6.5-5.8,11.1-5.8c7.5,0,13.6,6.1,13.6,13.6C57.8,24.5,55.4,28.6,51.9,31z"/>
</svg>
