<?xml version="1.0" encoding="utf-8"?>
<!-- Generator: Adobe Illustrator 22.0.0, SVG Export Plug-In . SVG Version: 6.00 Build 0)  -->
<svg version="1.1" id="lni_lni-mouse" xmlns="http://www.w3.org/2000/svg" xmlns:xlink="http://www.w3.org/1999/xlink" x="0px"
	 y="0px" viewBox="0 0 64 64" style="enable-background:new 0 0 64 64;" xml:space="preserve">
<path d="M32,1.8c-11.2,0-20.2,9.9-20.2,22.1v16.2c0,12.2,9.1,22.1,20.2,22.1c5.2,0,10.1-2.1,13.8-5.9c4.2-4.2,6.5-10.2,6.4-16.3
	V23.9C52.2,11.7,43.1,1.8,32,1.8z M47.7,23.9V25H34.4V6.5C42,7.8,47.7,15.1,47.7,23.9z M29.9,6.4V25H16.2v-1.1
	C16.2,14.9,22.2,7.5,29.9,6.4z M42.6,53.2c-2.9,2.9-6.7,4.5-10.6,4.5c-8.7,0-15.7-7.9-15.7-17.6V29.5h31.5v10.6
	C47.8,45.1,45.9,49.9,42.6,53.2z"/>
</svg>
