<?xml version="1.0" encoding="utf-8"?>
<!-- Generator: Adobe Illustrator 22.0.0, SVG Export Plug-In . SVG Version: 6.00 Build 0)  -->
<svg version="1.1" id="lni_lni-package" xmlns="http://www.w3.org/2000/svg" xmlns:xlink="http://www.w3.org/1999/xlink" x="0px"
	 y="0px" viewBox="0 0 64 64" style="enable-background:new 0 0 64 64;" xml:space="preserve">
<path d="M62,21.3l-4.5-14c-0.8-2.6-3.3-4.4-6-4.4H13.1c-2.7,0-5.1,1.7-6,4.2l-5,14.1c-0.2,0.6-0.3,1.2-0.3,1.9v30.3
	c0,4.3,3.5,7.7,7.7,7.7h45.1c4.3,0,7.7-3.5,7.7-7.7V23C62.3,22.5,62.2,21.9,62,21.3z M53.2,8.7l3.7,11.6H34.3V7.4h17.2
	C52.2,7.4,53,7.9,53.2,8.7z M11.3,8.6c0.3-0.7,1-1.2,1.7-1.2h16.7v12.9H7.2L11.3,8.6z M54.5,56.6H9.5c-1.8,0-3.2-1.4-3.2-3.2V24.8
	h51.5v28.6C57.8,55.2,56.3,56.6,54.5,56.6z"/>
</svg>
