<?xml version="1.0" encoding="utf-8"?>
<!-- Generator: Adobe Illustrator 22.0.0, SVG Export Plug-In . SVG Version: 6.00 Build 0)  -->
<svg version="1.1" id="lni_lni-plug" xmlns="http://www.w3.org/2000/svg" xmlns:xlink="http://www.w3.org/1999/xlink" x="0px"
	 y="0px" viewBox="0 0 64 64" style="enable-background:new 0 0 64 64;" xml:space="preserve">
<path d="M45.3,11.9h-3.4V4c0-1.2-1-2.3-2.3-2.3s-2.3,1-2.3,2.3v7.9H26.6V4c0-1.2-1-2.3-2.3-2.3s-2.3,1-2.3,2.3v7.9h-3.4
	c-2.3,0-4.3,1.9-4.3,4.3v12.4c0,7.3,6,13.3,13.3,13.3h2V60c0,1.2,1,2.3,2.3,2.3c1.2,0,2.3-1,2.3-2.3V41.9h2c7.3,0,13.3-6,13.3-13.3
	V16.2C49.5,13.8,47.6,11.9,45.3,11.9z M45,28.6c0,4.9-4,8.8-8.8,8.8h-8.4c-4.9,0-8.8-4-8.8-8.8V16.4H45V28.6z"/>
</svg>
