<?xml version="1.0" encoding="utf-8"?>
<!-- Generator: Adobe Illustrator 22.0.0, SVG Export Plug-In . SVG Version: 6.00 Build 0)  -->
<svg version="1.1" id="lni_lni-reload" xmlns="http://www.w3.org/2000/svg" xmlns:xlink="http://www.w3.org/1999/xlink" x="0px"
	 y="0px" viewBox="0 0 64 64" style="enable-background:new 0 0 64 64;" xml:space="preserve">
<g>
	<path d="M8.4,29c0.3,0,0.7-0.1,1-0.2l11.1-3.9c1.2-0.4,1.8-1.7,1.4-2.9c-0.4-1.2-1.7-1.8-2.9-1.4l-6.9,2.4
		c3.3-8.6,11.7-14.4,21.3-14.4c10.5,0,19.6,7,22.2,17c0.3,1.2,1.5,1.9,2.7,1.6c1.2-0.3,1.9-1.5,1.6-2.7c-3.1-12-14-20.4-26.6-20.4
		c-11.2,0-21.1,6.6-25.2,16.5l-2.1-6c-0.4-1.2-1.7-1.8-2.9-1.4c-1.2,0.4-1.8,1.7-1.4,2.9l3.8,10.9C6.1,28.3,7.2,29,8.4,29z"/>
	<path d="M62.1,49.7L58,39c-0.3-0.7-0.8-1.3-1.5-1.6c-0.7-0.3-1.5-0.3-2.2,0l-11,4.2c-1.2,0.4-1.7,1.7-1.3,2.9
		c0.4,1.2,1.7,1.7,2.9,1.3l6.9-2.6C47.8,50.5,40,55.3,31.3,55.3c-9.9,0-18.6-6.2-21.7-15.4c-0.4-1.2-1.7-1.8-2.8-1.4
		c-1.2,0.4-1.8,1.7-1.4,2.8c3.7,11,14.1,18.4,25.9,18.4c10.3,0,19.6-5.7,24.3-14.5l2.3,6.1c0.3,0.9,1.2,1.4,2.1,1.4
		c0.3,0,0.5,0,0.8-0.2C62,52.2,62.5,50.9,62.1,49.7z"/>
</g>
</svg>
