<?xml version="1.0" encoding="utf-8"?>
<!-- Generator: Adobe Illustrator 22.0.0, SVG Export Plug-In . SVG Version: 6.00 Build 0)  -->
<svg version="1.1" id="lni_lni-rocket" xmlns="http://www.w3.org/2000/svg" xmlns:xlink="http://www.w3.org/1999/xlink" x="0px"
	 y="0px" viewBox="0 0 64 64" style="enable-background:new 0 0 64 64;" xml:space="preserve">
<g>
	<path d="M61.4,19.5l-8.2-8.2l-0.3-0.3c-0.6-0.4-1.2-0.6-1.8-0.6l-12.9,1.1C28.5,3.4,16.3-0.1,6,2.7C4.4,3.1,3.1,4.4,2.7,6
		c-2.8,10.2,0.7,22.5,8.9,32.1l-1.1,12.7l0,0.2c0,0.6,0.2,1.3,0.6,1.8l8.5,8.6c0.6,0.6,1.3,0.9,2.1,0.9c0.3,0,0.6,0,0.8-0.1
		c1-0.3,1.8-1.2,2.1-2.2l1.2-10.7c1.4,0.7,2.8,1.3,4.2,1.8c0.5,0.2,1,0.3,1.5,0.3c1.3,0,2.5-0.5,3.4-1.4l14.9-14.9
		c1.3-1.3,1.8-3.3,1.2-5c-0.5-1.4-1.1-2.8-1.8-4.2l10.5-1.2l0.2,0c1.1-0.2,1.9-1,2.2-2.1C62.4,21.4,62.2,20.3,61.4,19.5z M20.4,56
		L15,50.5l0.7-8.1c1.8,1.6,3.7,3.1,5.7,4.4L20.4,56z M46.6,31.8L31.8,46.6c-0.1,0.1-0.2,0.1-0.3,0.1c-5.2-1.8-10.2-5-14.3-9.1
		C8.4,28.7,4.4,16.8,7,7.2C7.1,7.1,7.1,7,7.2,7h0c2-0.5,4-0.8,6.1-0.8c8.3,0,17.3,3.9,24.2,10.9c4.1,4.1,7.3,9.1,9.1,14.3
		C46.7,31.6,46.7,31.7,46.6,31.8z M46.8,21.5c-1.3-2-2.8-4-4.4-5.8l8.1-0.7l5.4,5.4L46.8,21.5z"/>
	<path d="M55.3,40.2c-0.3-0.2-1.4-0.7-2.6,0.3c-1,0.8-5.7,5.5-6.6,6.4c-6.4,6.4-6.4,6.4-6,7.8c0.1,0.4,0.3,0.8,0.6,1
		c3.2,3.2,8.1,3.9,11.8,3.9c2.8,0,4.9-0.4,5.1-0.5c0.9-0.2,1.6-0.9,1.8-1.8c0.1-0.5,2.2-11.2-3.5-16.9
		C55.6,40.4,55.4,40.3,55.3,40.2z M55.1,55.1c-2.6,0.3-6.6,0.3-9.6-1.2c2.2-2.2,6.1-6.2,8.3-8.3C55.3,48.4,55.3,52.5,55.1,55.1z"/>
	<path d="M26.1,17.8c-4.6,0-8.3,3.7-8.3,8.3s3.7,8.3,8.3,8.3s8.3-3.7,8.3-8.3S30.7,17.8,26.1,17.8z M26.1,30c-2.1,0-3.8-1.7-3.8-3.8
		s1.7-3.8,3.8-3.8S30,24,30,26.1S28.2,30,26.1,30z"/>
</g>
</svg>
