<?xml version="1.0" encoding="utf-8"?>
<!-- Generator: Adobe Illustrator 22.0.0, SVG Export Plug-In . SVG Version: 6.00 Build 0)  -->
<svg version="1.1" id="lni_lni-rss-feed" xmlns="http://www.w3.org/2000/svg" xmlns:xlink="http://www.w3.org/1999/xlink" x="0px"
	 y="0px" viewBox="0 0 64 64" style="enable-background:new 0 0 64 64;" xml:space="preserve">
<g>
	<path d="M5.9,1.8c-1.2,0-2.3,1-2.3,2.3s1,2.3,2.3,2.3c28.6,0,51.8,23,51.8,51.2c0,1.2,1,2.3,2.3,2.3s2.3-1,2.3-2.3
		C62.3,26.7,37,1.8,5.9,1.8z"/>
	<path d="M5.9,15.2c-1.2,0-2.3,1-2.3,2.3s1,2.3,2.3,2.3c21.4,0,38.7,17,38.7,37.8c0,1.2,1,2.3,2.3,2.3s2.3-1,2.3-2.3
		C49.2,34.1,29.8,15.2,5.9,15.2z"/>
	<path d="M5.9,27c-1.2,0-2.3,1-2.3,2.3s1,2.3,2.3,2.3c14.6,0,26.5,11.7,26.5,26c0,1.2,1,2.3,2.3,2.3s2.3-1,2.3-2.3
		C36.9,40.6,23,27,5.9,27z"/>
	<path d="M5.9,39.1c-1.2,0-2.3,1-2.3,2.3s1,2.3,2.3,2.3c7.7,0,13.9,6.2,13.9,13.8c0,1.2,1,2.3,2.3,2.3s2.3-1,2.3-2.3
		C24.4,47.4,16.1,39.1,5.9,39.1z"/>
	<path d="M8.3,49.1c-3.6,0-6.6,3-6.6,6.6s2.9,6.6,6.6,6.6s6.6-3,6.6-6.6S11.9,49.1,8.3,49.1z M8.3,57.8c-1.1,0-2.1-0.9-2.1-2.1
		c0-1.2,0.9-2.1,2.1-2.1c1.1,0,2.1,0.9,2.1,2.1C10.4,56.8,9.5,57.8,8.3,57.8z"/>
</g>
</svg>
