<?xml version="1.0" encoding="utf-8"?>
<!-- Generator: Adobe Illustrator 22.0.0, SVG Export Plug-In . SVG Version: 6.00 Build 0)  -->
<svg version="1.1" id="lni_lni-save" xmlns="http://www.w3.org/2000/svg" xmlns:xlink="http://www.w3.org/1999/xlink" x="0px"
	 y="0px" viewBox="0 0 64 64" style="enable-background:new 0 0 64 64;" xml:space="preserve">
<g>
	<path d="M58.6,11.5l-9.7-8.9l-0.2-0.1c-0.7-0.5-1.5-0.8-2.2-0.8H11.9c-4.2,0-7.6,3.4-7.6,7.6v45.2c0,4.2,3.4,7.6,7.6,7.6h40.2
		c4.2,0,7.6-3.4,7.6-7.6V14.1C59.7,13.2,59.4,12.3,58.6,11.5z M39.9,6.3v5.7H19V6.3H39.9z M21.5,57.8V39.3h21v18.4H21.5z M55.2,54.6
		c0,1.7-1.4,3.1-3.1,3.1H47V38.4c0-1.9-1.6-3.5-3.5-3.5H20.5c-1.9,0-3.5,1.6-3.5,3.5v19.4h-5.1c-1.7,0-3.1-1.4-3.1-3.1V9.4
		c0-1.7,1.4-3.1,3.1-3.1h2.6v6.7c0,1.9,1.6,3.5,3.5,3.5h22.9c1.9,0,3.5-1.6,3.5-3.5V6.3h1.8l9,8.3V54.6z"/>
	<path d="M36.1,42.5h-8.2c-1.2,0-2.3,1-2.3,2.3s1,2.3,2.3,2.3h8.2c1.2,0,2.3-1,2.3-2.3S37.3,42.5,36.1,42.5z"/>
	<path d="M36.1,50.1h-8.2c-1.2,0-2.3,1-2.3,2.3s1,2.3,2.3,2.3h8.2c1.2,0,2.3-1,2.3-2.3S37.3,50.1,36.1,50.1z"/>
</g>
</svg>
