<?xml version="1.0" encoding="utf-8"?>
<!-- Generator: Adobe Illustrator 22.0.0, SVG Export Plug-In . SVG Version: 6.00 Build 0)  -->
<svg version="1.1" id="lni_lni-scroll-down" xmlns="http://www.w3.org/2000/svg" xmlns:xlink="http://www.w3.org/1999/xlink"
	 x="0px" y="0px" viewBox="0 0 64 64" style="enable-background:new 0 0 64 64;" xml:space="preserve">
<g>
	<path d="M38,40.6l-6,6l-6-6c-0.9-0.9-2.3-0.9-3.2,0s-0.9,2.3,0,3.2l7.6,7.6c0.4,0.4,1,0.7,1.6,0.7s1.1-0.2,1.6-0.7l7.6-7.6
		c0.9-0.9,0.9-2.3,0-3.2S38.9,39.7,38,40.6z"/>
	<path d="M41.8,1.8H22.2c-5.7,0-10.3,4.6-10.3,10.3v40c0,5.7,4.6,10.3,10.3,10.3h19.6c5.7,0,10.3-4.6,10.3-10.3V12
		C52.1,6.3,47.5,1.8,41.8,1.8z M47.6,52c0,3.2-2.6,5.8-5.8,5.8H22.2c-3.2,0-5.8-2.6-5.8-5.8V12c0-3.2,2.6-5.8,5.8-5.8h19.6
		c3.2,0,5.8,2.6,5.8,5.8V52z"/>
	<path d="M32,26.2c0.1,0,0.3,0,0.4,0c0.1,0,0.3-0.1,0.4-0.1c0.1-0.1,0.3-0.1,0.4-0.2s0.2-0.2,0.3-0.3c0.4-0.4,0.7-1,0.7-1.6
		c0-0.6-0.2-1.2-0.7-1.6c-0.1-0.1-0.2-0.2-0.3-0.3c-0.1-0.1-0.3-0.2-0.4-0.2c-0.1,0-0.3-0.1-0.4-0.1c-0.7-0.1-1.5,0.1-2,0.6
		c-0.4,0.4-0.7,1-0.7,1.6c0,0.6,0.2,1.2,0.7,1.6C30.8,25.9,31.4,26.2,32,26.2z"/>
	<path d="M29.9,34.4c0.1,0.1,0.1,0.3,0.2,0.4c0.1,0.1,0.2,0.2,0.3,0.4c0.1,0.1,0.2,0.2,0.3,0.3c0.1,0.1,0.3,0.2,0.4,0.2
		c0.1,0.1,0.3,0.1,0.4,0.1c0.1,0,0.3,0,0.4,0c0.6,0,1.2-0.2,1.6-0.6c0.1-0.1,0.2-0.2,0.3-0.4c0.1-0.1,0.1-0.3,0.2-0.4
		c0.1-0.1,0.1-0.3,0.1-0.4c0-0.2,0-0.3,0-0.4c0-0.6-0.2-1.2-0.7-1.6c-0.8-0.8-2.3-0.8-3.2,0c-0.4,0.4-0.7,1-0.7,1.6
		c0,0.2,0,0.3,0,0.4C29.8,34.1,29.9,34.3,29.9,34.4z"/>
</g>
</svg>
