<?xml version="1.0" encoding="utf-8"?>
<!-- Generator: Adobe Illustrator 22.0.0, SVG Export Plug-In . SVG Version: 6.00 Build 0)  -->
<svg version="1.1" id="lni_lni-share-alt" xmlns="http://www.w3.org/2000/svg" xmlns:xlink="http://www.w3.org/1999/xlink" x="0px"
	 y="0px" viewBox="0 0 64 64" style="enable-background:new 0 0 64 64;" xml:space="preserve">
<g>
	<path d="M13.2,24.2c0.4,0.4,1,0.6,1.5,0.6c0.6,0,1.2-0.2,1.6-0.7c0.9-0.9,0.8-2.3-0.1-3.2l-5.7-5.4h11.9c5.4,0,9.8,4.4,9.8,9.8v15
		c0,1.2,1,2.3,2.3,2.3s2.3-1,2.3-2.3v-15c0-7.9-6.4-14.3-14.3-14.3h-12l5.8-5.4c0.9-0.8,1-2.3,0.1-3.2c-0.8-0.9-2.3-1-3.2-0.1
		l-9.2,8.5c-0.7,0.6-1,1.5-1,2.3c0,0.9,0.4,1.7,1,2.4L13.2,24.2z"/>
	<path d="M59,38.1c-1.2,0-2.3,1-2.3,2.3v14.5c0,1.6-1.3,2.9-2.9,2.9H10.2c-1.6,0-2.9-1.3-2.9-2.9V40.3c0-1.2-1-2.3-2.3-2.3
		s-2.3,1-2.3,2.3v14.5c0,4.1,3.3,7.4,7.4,7.4h43.7c4.1,0,7.4-3.3,7.4-7.4V40.3C61.3,39.1,60.3,38.1,59,38.1z"/>
</g>
</svg>
