<?xml version="1.0" encoding="utf-8"?>
<!-- Generator: Adobe Illustrator 22.0.0, SVG Export Plug-In . SVG Version: 6.00 Build 0)  -->
<svg version="1.1" id="lni_lni-shopping-basket" xmlns="http://www.w3.org/2000/svg" xmlns:xlink="http://www.w3.org/1999/xlink"
	 x="0px" y="0px" viewBox="0 0 64 64" style="enable-background:new 0 0 64 64;" xml:space="preserve">
<g>
	<path d="M56.4,19.6H54L47.5,3.2C47,2,45.7,1.5,44.6,1.9c-1.2,0.5-1.7,1.8-1.3,2.9l5.8,14.8H14.9l5.8-14.7c0.5-1.2-0.1-2.5-1.3-2.9
		C18.3,1.5,17,2,16.5,3.2L10,19.6H7.6c-1.8,0-3.3,1.5-3.3,3.3V31c0,1.7,1.2,3,2.9,3.2L9.7,56c0.4,3.6,3.4,6.3,7,6.3h30.6
		c3.6,0,6.6-2.7,7-6.3l2.5-21.8c1.6-0.2,2.9-1.6,2.9-3.2v-8.2C59.7,21,58.2,19.6,56.4,19.6z M8.8,24.1h46.4v5.7H8.8V24.1z
		 M47.3,57.8H16.7c-1.3,0-2.4-1-2.6-2.3l-2.4-21.2h40.6l-2.4,21.2C49.7,56.8,48.6,57.8,47.3,57.8z"/>
	<path d="M21.8,38.8c-1.2,0-2.3,1-2.3,2.3v7.5c0,1.2,1,2.3,2.3,2.3s2.3-1,2.3-2.3V41C24.1,39.8,23.1,38.8,21.8,38.8z"/>
	<path d="M42.2,38.8c-1.2,0-2.3,1-2.3,2.3v7.5c0,1.2,1,2.3,2.3,2.3s2.3-1,2.3-2.3V41C44.4,39.8,43.4,38.8,42.2,38.8z"/>
</g>
</svg>
