<?xml version="1.0" encoding="utf-8"?>
<!-- Generator: Adobe Illustrator 22.0.0, SVG Export Plug-In . SVG Version: 6.00 Build 0)  -->
<svg version="1.1" id="lni_lni-shortcode" xmlns="http://www.w3.org/2000/svg" xmlns:xlink="http://www.w3.org/1999/xlink" x="0px"
	 y="0px" viewBox="0 0 64 64" style="enable-background:new 0 0 64 64;" xml:space="preserve">
<g>
	<path d="M30.8,24.6h7.6c1.2,0,2.3-1,2.3-2.3s-1-2.3-2.3-2.3h-7.6c-3.5,0-6.4,2.9-6.4,6.4v1.6c0,3.5,2.9,6.4,6.4,6.4h3.5
		c1,0,1.9,0.8,1.9,1.9V38c0,1-0.8,1.9-1.9,1.9h-7.1c-1.2,0-2.3,1-2.3,2.3s1,2.3,2.3,2.3h7.1c3.5,0,6.4-2.9,6.4-6.4v-1.6
		c0-3.5-2.8-6.4-6.4-6.4h-3.5c-1,0-1.9-0.8-1.9-1.9v-1.6C29,25.5,29.8,24.6,30.8,24.6z"/>
	<path d="M17.4,20.5c-0.8-1-2.2-1.1-3.2-0.3L2.9,29.4c-0.7,0.6-1.2,1.5-1.2,2.5c0,1,0.4,1.8,1.2,2.4l11.4,9.2
		c0.4,0.3,0.9,0.5,1.4,0.5c0.7,0,1.3-0.3,1.7-0.8c0.8-1,0.6-2.4-0.3-3.2L7,31.8l10.1-8.2C18.1,22.9,18.2,21.4,17.4,20.5z"/>
	<path d="M61.1,29.4l-11.4-9.2c-1-0.8-2.4-0.6-3.2,0.3c-0.8,1-0.6,2.4,0.3,3.2l10.1,8.1L46.8,40c-1,0.8-1.1,2.2-0.3,3.2
		c0.4,0.6,1.1,0.8,1.8,0.8c0.5,0,1-0.2,1.4-0.5l11.4-9.2c0.8-0.6,1.2-1.5,1.2-2.5S61.8,30,61.1,29.4z"/>
</g>
</svg>
