<?xml version="1.0" encoding="utf-8"?>
<!-- Generator: Adobe Illustrator 22.0.0, SVG Export Plug-In . SVG Version: 6.00 Build 0)  -->
<svg version="1.1" id="lni_lni-signal" xmlns="http://www.w3.org/2000/svg" xmlns:xlink="http://www.w3.org/1999/xlink" x="0px"
	 y="0px" viewBox="0 0 64 64" style="enable-background:new 0 0 64 64;" xml:space="preserve">
<g>
	<path d="M32,22.4c-3.2,0-5.8,2.6-5.8,5.8c0,2.4,1.5,4.5,3.6,5.4v19.6c0,1.2,1,2.3,2.3,2.3c1.2,0,2.3-1,2.3-2.3V33.5
		c2.1-0.9,3.6-2.9,3.6-5.4C37.8,25,35.2,22.4,32,22.4z M32,26.9c0.7,0,1.3,0.6,1.3,1.3c0,0.7-0.6,1.3-1.3,1.3s-1.3-0.6-1.3-1.3
		C30.7,27.5,31.3,26.9,32,26.9z"/>
	<path d="M22.1,27.5c0-1.9,0.8-3.7,2.1-5c0.9-0.9,0.9-2.3,0-3.2c-0.9-0.9-2.3-0.9-3.2,0c-2.2,2.2-3.4,5.1-3.4,8.2
		c0,3.1,1.2,6.1,3.4,8.3c0.4,0.4,1,0.7,1.6,0.7c0.6,0,1.1-0.2,1.6-0.7c0.9-0.9,0.9-2.3,0-3.2C22.9,31.2,22.1,29.4,22.1,27.5z"/>
	<path d="M42.9,19.3c-0.9-0.9-2.3-0.9-3.2,0c-0.9,0.9-0.9,2.3,0,3.2c1.4,1.3,2.1,3.1,2.1,5c0,1.9-0.7,3.7-2.1,5.1
		c-0.9,0.9-0.9,2.3,0,3.2c0.4,0.4,1,0.7,1.6,0.7c0.6,0,1.2-0.2,1.6-0.7c2.2-2.2,3.4-5.2,3.4-8.3C46.3,24.4,45.1,21.5,42.9,19.3z"/>
	<path d="M13.7,27.5c0-3.8,1.5-7.3,4.2-10c0.9-0.9,0.9-2.3,0-3.2c-0.9-0.9-2.3-0.9-3.2,0c-3.6,3.5-5.5,8.2-5.5,13.2s2,9.7,5.5,13.2
		c0.4,0.4,1,0.7,1.6,0.7c0.6,0,1.2-0.2,1.6-0.7c0.9-0.9,0.9-2.3,0-3.2C15.2,34.8,13.7,31.3,13.7,27.5z"/>
	<path d="M49.3,14.3c-0.9-0.9-2.3-0.9-3.2,0c-0.9,0.9-0.9,2.3,0,3.2c2.7,2.7,4.2,6.2,4.2,10s-1.5,7.3-4.2,10c-0.9,0.9-0.9,2.3,0,3.2
		c0.4,0.4,1,0.7,1.6,0.7c0.6,0,1.1-0.2,1.6-0.7c3.6-3.5,5.5-8.2,5.5-13.2S52.8,17.8,49.3,14.3z"/>
	<path d="M5.3,27.5c0-5.7,2.2-11,6.3-15c0.9-0.9,0.9-2.3,0-3.2c-0.9-0.9-2.3-0.9-3.2,0c-4.9,4.9-7.6,11.3-7.6,18.2
		c0,6.9,2.7,13.3,7.6,18.2c0.4,0.4,1,0.7,1.6,0.7c0.6,0,1.2-0.2,1.6-0.7c0.9-0.9,0.9-2.3,0-3.2C7.5,38.5,5.3,33.2,5.3,27.5z"/>
	<path d="M55.6,9.3c-0.9-0.9-2.3-0.9-3.2,0c-0.9,0.9-0.9,2.3,0,3.2c4.1,4,6.3,9.3,6.3,15c0,5.7-2.2,11-6.3,15
		c-0.9,0.9-0.9,2.3,0,3.2c0.4,0.4,1,0.7,1.6,0.7c0.6,0,1.1-0.2,1.6-0.7c4.9-4.9,7.6-11.3,7.6-18.2C63.3,20.6,60.5,14.2,55.6,9.3z"/>
</g>
</svg>
