<svg width="64" height="64" viewBox="0 0 64 64" fill="none" xmlns="http://www.w3.org/2000/svg">
<path d="M32 8.5L35.4016 6.9L34.0016 4.3C33.6016 3.5 32.8016 3 32.0016 3C31.2016 3 30.4016 3.5 30.0016 4.2L28.6016 6.8L32 8.5Z" fill="black"/>
<path d="M37.5374 11.0378L33.5117 13.0488L36.5953 19.2216L40.621 17.2105L37.5374 11.0378Z" fill="black"/>
<path d="M38.9992 23.8992C39.2992 24.5992 39.9992 24.9992 40.6992 25.0992L43.6992 25.4992L44.2992 20.9992L42.4992 20.7992L41.6992 19.1992L37.6992 21.2992L38.9992 23.8992Z" fill="black"/>
<path d="M48.9802 21.7218L48.3516 26.1777L55.382 27.1696L56.0106 22.7137L48.9802 21.7218Z" fill="black"/>
<path d="M63.1008 25.1C62.8008 24.3 62.1008 23.7 61.3008 23.5L58.3008 23L58 27L60.4008 29.4L62.6008 27.4C63.2008 26.8 63.4008 25.9 63.1008 25.1Z" fill="black"/>
<path d="M53.9345 29.335L48.9141 34.0684L52.0011 37.3426L57.0215 32.6092L53.9345 29.335Z" fill="black"/>
<path d="M48.9004 40.1992L50.2004 38.8992L47.1004 35.6992L45.0004 37.7992C44.5004 38.2992 44.2004 39.0992 44.3004 39.7992L44.8004 42.6992L49.2004 41.9992L48.9004 40.1992Z" fill="black"/>
<path d="M50.056 46.448L45.6289 47.2539L46.8647 54.0421L51.2918 53.2362L50.056 46.448Z" fill="black"/>
<path d="M51.6016 55.4004L47 56L46.1016 59.3004L48.8016 60.7004C49.1016 60.9004 49.5016 60.9004 49.8016 60.9004C50.3016 60.9004 50.8016 60.7004 51.1016 60.5004C51.8016 60.0004 52.1016 59.1004 52.0016 58.3004L51.6016 55.4004Z" fill="black"/>
<path d="M37.8405 50.0103L35.793 54.0176L42.0265 57.2026L44.074 53.1953L37.8405 50.0103Z" fill="black"/>
<path d="M31.0008 47.6L28.3008 49L30.4008 53L32.0008 52.1L33.7008 53L35.7008 49L33.0008 47.6C32.4008 47.3 31.6008 47.3 31.0008 47.6Z" fill="black"/>
<path d="M24.0984 51.0818L17.8516 54.2402L19.882 58.256L26.1288 55.0976L24.0984 51.0818Z" fill="black"/>
<path d="M16 56L12.3 55.5L11.8 58.4C11.7 59.2 12 60.1 12.7 60.6C13.1 60.9 13.6 61 14 61C14.4 61 14.7 60.9 15 60.7L17.7 59.3L16 56Z" fill="black"/>
<path d="M14.3739 44.2022L13.2227 50.9043L17.6579 51.6661L18.8091 44.9641L14.3739 44.2022Z" fill="black"/>
<path d="M19.7008 39.7992C19.8008 39.0992 19.6008 38.2992 19.1008 37.7992L16.9008 35.6992L13.8008 38.8992L15.1008 40.1992L14.8008 41.8992L19.2008 42.6992L19.7008 39.7992Z" fill="black"/>
<path d="M8.48153 27.716L5.39453 30.9902L10.415 35.7236L13.502 32.4494L8.48153 27.716Z" fill="black"/>
<path d="M6.30156 26.7L5.70156 23L2.60156 23.5C1.70156 23.6 1.00156 24.2 0.801563 25.1C0.601563 26 0.801562 26.8 1.40156 27.4L3.70156 29.4L6.30156 26.7Z" fill="black"/>
<path d="M17.3402 21.3268L10.4102 22.3145L11.0451 26.7695L17.9751 25.7818L17.3402 21.3268Z" fill="black"/>
<path d="M21.5992 20.7992L19.6992 20.9992L20.2992 25.4992L23.3992 25.0992C24.0992 24.9992 24.7992 24.5992 25.0992 23.8992L26.4992 21.2992L22.4992 19.1992L21.5992 20.7992Z" fill="black"/>
<path d="M27.6062 8.95183L24.4688 15.0977L28.4769 17.1438L31.6143 10.998L27.6062 8.95183Z" fill="black"/>
</svg>
