<?xml version="1.0" encoding="utf-8"?>
<!-- Generator: Adobe Illustrator 22.0.0, SVG Export Plug-In . SVG Version: 6.00 Build 0)  -->
<svg version="1.1" id="lni_lni-star-half" xmlns="http://www.w3.org/2000/svg" xmlns:xlink="http://www.w3.org/1999/xlink" x="0px"
	 y="0px" viewBox="0 0 64 64" style="enable-background:new 0 0 64 64;" xml:space="preserve">
<g>
	<path d="M45.2,27.4c1.2,0,2.2-1,2.2-2.2c0-1.2-0.9-2.3-2.2-2.3l-4.3-0.2l-1.5-3.8c-0.4-1.2-1.7-1.7-2.9-1.3
		c-1.2,0.4-1.7,1.8-1.3,2.9l2,5.2c0.3,0.8,1.1,1.4,2,1.4L45.2,27.4C45.1,27.4,45.2,27.4,45.2,27.4z"/>
	<path d="M62.1,25.3c-0.3-1.1-1.3-1.8-2.4-1.8l-5.9-0.2c-1.2-0.1-2.3,0.9-2.3,2.2c0,1.2,0.9,2.3,2.2,2.3l0.7,0l-3,2.3
		c-1,0.7-1.2,2.2-0.4,3.2c0.4,0.6,1.1,0.9,1.8,0.9c0.5,0,0.9-0.1,1.4-0.5l7.2-5.4C62.1,27.5,62.5,26.3,62.1,25.3z"/>
	<path d="M46.1,33.9l-3.5,2.6c-0.7,0.6-1.1,1.5-0.8,2.4l1.2,4.2c0.3,1,1.2,1.6,2.2,1.6c0.2,0,0.4,0,0.6-0.1c1.2-0.4,1.9-1.6,1.5-2.8
		l-0.8-2.7l2.3-1.7c1-0.7,1.2-2.2,0.4-3.2C48.5,33.4,47.1,33.2,46.1,33.9z"/>
	<path d="M50,50.9c-0.3-1.2-1.6-1.9-2.8-1.5c-1.2,0.4-1.9,1.6-1.5,2.8l0.2,0.7L43.1,51c-1-0.7-2.4-0.4-3.1,0.7
		c-0.7,1-0.4,2.4,0.7,3.1l7,4.5c0.4,0.3,0.9,0.4,1.4,0.4c0.6,0,1.1-0.2,1.6-0.5c0.9-0.7,1.3-1.8,0.9-2.8L50,50.9z"/>
	<path d="M38,47.8l-4.8-3.1c0,0,0,0-0.1,0c-0.1-0.1-0.3-0.2-0.5-0.2c0,0-0.1,0-0.1,0c-0.2,0-0.4-0.1-0.6-0.1c0,0-0.1,0-0.1,0
		c-0.2,0-0.3,0-0.5,0.1c0,0-0.1,0-0.1,0c-0.2,0.1-0.4,0.1-0.5,0.2l-12.7,8.1L22.2,39c0.3-0.9-0.1-1.9-0.8-2.4L9.7,27.8l15-0.6
		c0.9,0,1.7-0.6,2-1.4L32,12.1l0.5,1.4c0.3,0.9,1.2,1.4,2.1,1.4c0.3,0,0.5,0,0.8-0.2c1.2-0.4,1.7-1.8,1.3-2.9L34.5,6
		c-0.4-1-1.4-1.7-2.5-1.7c-1.1,0-2.1,0.7-2.5,1.7l-6.5,16.8L4.3,23.5c-1.1,0-2.1,0.8-2.4,1.8c-0.3,1,0,2.2,0.9,2.9l14.7,11.1
		l-5,17.1c-0.3,1.1,0.1,2.2,0.9,2.8c0.5,0.4,1,0.5,1.6,0.5c0.5,0,1-0.1,1.4-0.4l15.6-10l3.6,2.3c0.4,0.2,0.8,0.4,1.2,0.4
		c0.7,0,1.5-0.4,1.9-1C39.4,49.9,39.1,48.5,38,47.8z"/>
</g>
</svg>
