<?xml version="1.0" encoding="utf-8"?>
<!-- Generator: Adobe Illustrator 22.0.0, SVG Export Plug-In . SVG Version: 6.00 Build 0)  -->
<svg version="1.1" id="lni_lni-tab" xmlns="http://www.w3.org/2000/svg" xmlns:xlink="http://www.w3.org/1999/xlink" x="0px"
	 y="0px" viewBox="0 0 64 64" style="enable-background:new 0 0 64 64;" xml:space="preserve">
<g>
	<path d="M48.6,1.8H15.4c-3.4,0-6.1,2.7-6.1,6.1v48.3c0,3.4,2.7,6.1,6.1,6.1h33.1c3.4,0,6.1-2.7,6.1-6.1V7.9
		C54.7,4.5,51.9,1.8,48.6,1.8z M50.2,56.1c0,0.9-0.7,1.6-1.6,1.6H15.4c-0.9,0-1.6-0.7-1.6-1.6V7.9c0-0.9,0.7-1.6,1.6-1.6h33.1
		c0.9,0,1.6,0.7,1.6,1.6V56.1z"/>
	<path d="M33,10.1h-7.7c-1.2,0-2.3,1-2.3,2.3s1,2.3,2.3,2.3H33c1.2,0,2.3-1,2.3-2.3S34.2,10.1,33,10.1z"/>
	<path d="M39.4,10.1h-1.3c-1.2,0-2.3,1-2.3,2.3s1,2.3,2.3,2.3h1.3c1.2,0,2.3-1,2.3-2.3S40.7,10.1,39.4,10.1z"/>
	<path d="M32,48.8c-1.2,0-2.3,1-2.3,2.3c0,1.2,1,2.3,2.3,2.3s2.3-1,2.3-2.3C34.3,49.8,33.2,48.8,32,48.8z"/>
</g>
</svg>
