<?xml version="1.0" encoding="utf-8"?>
<!-- Generator: Adobe Illustrator 22.0.0, SVG Export Plug-In . SVG Version: 6.00 Build 0)  -->
<svg version="1.1" id="lni_lni-timer" xmlns="http://www.w3.org/2000/svg" xmlns:xlink="http://www.w3.org/1999/xlink" x="0px"
	 y="0px" viewBox="0 0 64 64" style="enable-background:new 0 0 64 64;" xml:space="preserve">
<g>
	<path d="M34.3,12V6.3h5.4c1.2,0,2.3-1,2.3-2.3s-1-2.3-2.3-2.3H24.4c-1.2,0-2.3,1-2.3,2.3s1,2.3,2.3,2.3h5.4V12
		C16.9,13.2,6.8,24,6.8,37.1C6.8,51,18.1,62.3,32,62.3S57.2,51,57.2,37.1C57.2,24,47.1,13.2,34.3,12z M32,57.8
		c-11.4,0-20.7-9.3-20.7-20.7S20.6,16.4,32,16.4s20.7,9.3,20.7,20.7S43.4,57.8,32,57.8z"/>
	<path d="M44.7,34.8H34.3V24.4c0-1.2-1-2.3-2.3-2.3c-1.2,0-2.3,1-2.3,2.3v10.5h-2.8c-1.2,0-2.3,1-2.3,2.3s1,2.3,2.3,2.3h2.8v2.8
		c0,1.2,1,2.3,2.3,2.3c1.2,0,2.3-1,2.3-2.3v-2.8h10.5c1.2,0,2.3-1,2.3-2.3S46,34.8,44.7,34.8z"/>
</g>
</svg>
