<?xml version="1.0" encoding="utf-8"?>
<!-- Generator: Adobe Illustrator 22.0.0, SVG Export Plug-In . SVG Version: 6.00 Build 0)  -->
<svg version="1.1" id="lni_lni-users" xmlns="http://www.w3.org/2000/svg" xmlns:xlink="http://www.w3.org/1999/xlink" x="0px"
	 y="0px" viewBox="0 0 64 64" style="enable-background:new 0 0 64 64;" xml:space="preserve">
<g>
	<path d="M21.8,36.8c6.9,0,12.4-5.6,12.4-12.4s-5.6-12.4-12.4-12.4S9.4,17.5,9.4,24.4S15,36.8,21.8,36.8z M21.8,16.4
		c4.4,0,7.9,3.6,7.9,7.9s-3.6,7.9-7.9,7.9c-4.4,0-7.9-3.6-7.9-7.9S17.4,16.4,21.8,16.4z"/>
	<path d="M21.8,39.9c-7.2,0-14.1,2.9-19.4,8.3c-0.9,0.9-0.9,2.3,0,3.2c0.4,0.4,1,0.7,1.6,0.7c0.6,0,1.2-0.2,1.6-0.7
		c4.4-4.5,10.2-7,16.2-7c5.9,0,11.7,2.5,16.2,7c0.9,0.9,2.3,0.9,3.2,0c0.9-0.9,0.9-2.3,0-3.2C35.9,42.9,29,39.9,21.8,39.9z"/>
	<path d="M47.3,36.8c4,0,7.3-3.3,7.3-7.3c0-4-3.3-7.3-7.3-7.3s-7.3,3.3-7.3,7.3C39.9,33.5,43.2,36.8,47.3,36.8z M47.3,26.6
		c1.6,0,2.8,1.3,2.8,2.8c0,1.6-1.3,2.8-2.8,2.8s-2.8-1.3-2.8-2.8C44.4,27.9,45.7,26.6,47.3,26.6z"/>
	<path d="M61.5,45.6c-5.3-4.9-12.6-6.9-19.9-5c-1.2,0.3-1.9,1.5-1.6,2.7c0.3,1.2,1.6,1.9,2.7,1.6c5.8-1.5,11.6,0,15.7,3.9
		c0.4,0.4,1,0.6,1.5,0.6c0.6,0,1.2-0.2,1.6-0.7C62.5,47.9,62.4,46.5,61.5,45.6z"/>
</g>
</svg>
