<?xml version="1.0" encoding="utf-8"?>
<!-- Generator: Adobe Illustrator 22.0.0, SVG Export Plug-In . SVG Version: 6.00 Build 0)  -->
<svg version="1.1" id="lni_lni-website" xmlns="http://www.w3.org/2000/svg" xmlns:xlink="http://www.w3.org/1999/xlink" x="0px"
	 y="0px" viewBox="0 0 64 64" style="enable-background:new 0 0 64 64;" xml:space="preserve">
<g>
	<path d="M47,26.3l0.5-1.1l0.5,1.1c0.4,0.9,1.3,1.4,2.3,1.4s1.8-0.5,2.3-1.4l2.5-5.1c0.6-1.1,0.1-2.5-1-3s-2.5-0.1-3,1l-0.8,1.5
		l-0.5-1.1c-0.4-0.9-1.3-1.4-2.3-1.4c-1,0-1.8,0.5-2.3,1.4l-0.5,1.1L44,19.1c-0.6-1.1-1.9-1.6-3-1c-0.6,0.3-1,0.9-1.2,1.5
		c-0.1-0.6-0.6-1.2-1.2-1.5c-1.1-0.6-2.5-0.1-3,1l-0.8,1.5l-0.5-1.1c-0.4-0.9-1.3-1.4-2.3-1.4c-1,0-1.8,0.5-2.3,1.4l-0.5,1.1
		l-0.8-1.5c-0.6-1.1-1.9-1.6-3-1c-0.6,0.3-1,0.9-1.2,1.5c-0.1-0.6-0.6-1.2-1.2-1.5c-1.1-0.6-2.5-0.1-3,1l-0.8,1.5l-0.5-1.1
		c-0.4-0.9-1.3-1.4-2.3-1.4s-1.8,0.5-2.3,1.4l-0.5,1.1l-0.8-1.5c-0.6-1.1-1.9-1.6-3-1c-1.1,0.6-1.6,1.9-1,3l2.5,5.1
		c0.4,0.9,1.3,1.4,2.3,1.4c1,0,1.8-0.5,2.3-1.4l0.5-1.1l0.5,1.1c0.4,0.9,1.3,1.4,2.3,1.4c1,0,1.8-0.5,2.3-1.4l2.5-5.1
		c0.1-0.2,0.1-0.3,0.2-0.5c0,0.2,0.1,0.3,0.2,0.5l2.5,5.1c0.4,0.9,1.3,1.4,2.3,1.4c1,0,1.8-0.5,2.3-1.4l0.5-1.1l0.5,1.1
		c0.4,0.9,1.3,1.4,2.3,1.4c0,0,0,0,0,0c1,0,1.8-0.5,2.3-1.4l2.5-5.1c0.1-0.2,0.1-0.3,0.2-0.5c0,0.2,0.1,0.3,0.2,0.5l2.5,5.1
		c0.4,0.9,1.3,1.4,2.3,1.4C45.7,27.7,46.6,27.1,47,26.3z"/>
	<path d="M58.4,7.3H5.6c-2.7,0-4.8,2.2-4.8,4.9v21.2c0,2.7,2.2,4.9,4.8,4.9h31.7c1.2,0,2.3-1,2.3-2.3s-1-2.3-2.3-2.3H5.6
		c-0.2,0-0.3-0.2-0.3-0.4V12.2c0-0.2,0.1-0.4,0.3-0.4h52.9c0.2,0,0.3,0.2,0.3,0.4v21.2c0,0.2-0.2,0.4-0.4,0.4c-1.2,0-2.3,1-2.3,2.3
		s1,2.3,2.3,2.3c2.7,0,4.9-2.2,4.9-4.9V12.2C63.3,9.5,61.1,7.3,58.4,7.3z"/>
	<path d="M61.3,43.9l-14.1-7.1c-1.2-0.6-2.6-0.4-3.4,0.5c-0.9,0.9-1.1,2.3-0.5,3.5l7.1,14.1c0.6,1.1,1.7,1.9,3,1.9c0,0,0.1,0,0.1,0
		c1.1,0,2.1-0.7,2.5-1.7l1.7-3.9l3.9-1.7c1-0.4,1.6-1.4,1.7-2.5C63.2,45.6,62.5,44.4,61.3,43.9z M54.2,47.7l-1.1,2.5l-3.7-7.3
		l7.3,3.7L54.2,47.7z"/>
</g>
</svg>
