<?xml version="1.0" encoding="utf-8"?>
<!-- Generator: Adobe Illustrator 22.0.0, SVG Export Plug-In . SVG Version: 6.00 Build 0)  -->
<svg version="1.1" id="lni_lni-website-alt" xmlns="http://www.w3.org/2000/svg" xmlns:xlink="http://www.w3.org/1999/xlink"
	 x="0px" y="0px" viewBox="0 0 64 64" style="enable-background:new 0 0 64 64;" xml:space="preserve">
<g>
	<path d="M19.6,27.5c-1-0.7-2.4-0.4-3.1,0.6l-2,2.9l-1.6-2.4c-0.5-0.7-1.3-1.1-2.2-1.1c0,0,0,0,0,0c-0.9,0-1.7,0.4-2.2,1.1L6.8,31
		l-2-2.9c-0.7-1-2.1-1.3-3.1-0.6c-1,0.7-1.3,2.1-0.6,3.1l3.5,5.2c0.5,0.7,1.3,1.1,2.2,1.1c0.9,0,1.7-0.4,2.2-1.1l1.6-2.4l1.6,2.4
		c0.5,0.7,1.3,1.1,2.2,1.1s1.7-0.4,2.2-1.1l3.5-5.2C20.9,29.6,20.6,28.2,19.6,27.5z"/>
	<path d="M40.9,27.5c-1-0.7-2.4-0.4-3.1,0.6l-2,2.9l-1.6-2.4c-0.5-0.7-1.3-1.1-2.2-1.1c-0.9,0-1.7,0.4-2.2,1.1L28.2,31l-2-2.9
		c-0.7-1-2.1-1.3-3.1-0.6c-1,0.7-1.3,2.1-0.6,3.1l3.5,5.2c0.5,0.7,1.3,1.1,2.2,1.1c0.9,0,1.7-0.4,2.2-1.1l1.6-2.4l1.6,2.4
		c0.5,0.7,1.3,1.1,2.2,1.1c0.9,0,1.7-0.4,2.2-1.1l3.5-5.2C42.2,29.6,42,28.2,40.9,27.5z"/>
	<path d="M62.3,27.5c-1-0.7-2.4-0.4-3.1,0.6l-2,2.9l-1.6-2.4c-0.5-0.7-1.3-1.1-2.2-1.1c-0.9,0-1.7,0.4-2.2,1.1L49.5,31l-2-2.9
		c-0.7-1-2.1-1.3-3.1-0.6c-1,0.7-1.3,2.1-0.6,3.1l3.5,5.2c0.5,0.7,1.3,1.1,2.2,1.1c0.9,0,1.7-0.4,2.2-1.1l1.6-2.4l1.6,2.4
		c0.5,0.7,1.3,1.1,2.2,1.1c0.9,0,1.7-0.4,2.2-1.1l3.5-5.2C63.6,29.6,63.3,28.2,62.3,27.5z"/>
</g>
</svg>
