<?xml version="1.0" encoding="utf-8"?>
<!-- Generator: Adobe Illustrator 22.0.0, SVG Export Plug-In . SVG Version: 6.00 Build 0)  -->
<svg version="1.1" id="lni_lni-zoom-in" xmlns="http://www.w3.org/2000/svg" xmlns:xlink="http://www.w3.org/1999/xlink" x="0px"
	 y="0px" viewBox="0 0 64 64" style="enable-background:new 0 0 64 64;" xml:space="preserve">
<g>
	<path d="M61,51.1L46.7,36.7c-0.8-0.8-1.8-1.2-3-1.2c-1.1,0-2.2,0.4-3,1.2l-0.4,0.4l-2.8-2.8c6.3-7.9,5.8-19.5-1.5-26.8
		c-3.8-3.8-8.8-5.9-14.2-5.9c0,0,0,0,0,0c-5.4,0-10.4,2.1-14.2,5.9c-7.8,7.8-7.8,20.6,0,28.4c3.8,3.8,8.8,5.9,14.2,5.9
		c4.6,0,9-1.6,12.5-4.4l2.8,2.8l-0.4,0.4c-1.6,1.6-1.6,4.3,0,5.9l14.4,14.4c0.8,0.8,1.8,1.2,3,1.2c1.1,0,2.2-0.4,3-1.2l4-4
		C62.7,55.4,62.7,52.7,61,51.1z M21.8,37.4c-4.2,0-8.1-1.6-11-4.6c-6.1-6.1-6.1-16,0-22.1c2.9-2.9,6.9-4.6,11-4.6
		c4.2,0,8.1,1.6,11,4.6c6.1,6.1,6.1,16,0,22.1C29.9,35.8,26,37.4,21.8,37.4z M54,57.7L40.1,43.7l3.6-3.6l13.9,13.9L54,57.7z"/>
	<path d="M26.9,19.6h-2.8v-2.8c0-1.2-1-2.3-2.3-2.3s-2.3,1-2.3,2.3v2.8h-2.8c-1.2,0-2.3,1-2.3,2.3s1,2.3,2.3,2.3h2.8v2.8
		c0,1.2,1,2.3,2.3,2.3s2.3-1,2.3-2.3v-2.8h2.8c1.2,0,2.3-1,2.3-2.3S28.2,19.6,26.9,19.6z"/>
</g>
</svg>
