<?xml version="1.0" encoding="utf-8"?>
<!-- Generator: Adobe Illustrator 22.0.0, SVG Export Plug-In . SVG Version: 6.00 Build 0)  -->
<svg version="1.1" id="lni_lni-zoom-out" xmlns="http://www.w3.org/2000/svg" xmlns:xlink="http://www.w3.org/1999/xlink" x="0px"
	 y="0px" viewBox="0 0 64 64" style="enable-background:new 0 0 64 64;" xml:space="preserve">
<g>
	<path d="M61,51L46.7,36.7c-1.6-1.6-4.3-1.6-5.9,0l-0.4,0.4l-2.8-2.8c2.8-3.5,4.4-7.9,4.4-12.5c0-5.4-2.1-10.4-5.9-14.2
		c-7.8-7.8-20.6-7.8-28.4,0c-3.8,3.8-5.9,8.8-5.9,14.2c0,5.4,2.1,10.4,5.9,14.2c3.9,3.9,9.1,5.9,14.2,5.9c4.4,0,8.9-1.5,12.5-4.4
		l2.8,2.8l-0.4,0.4c-0.8,0.8-1.2,1.8-1.2,3c0,1.1,0.4,2.2,1.2,3L51.1,61c0.8,0.8,1.9,1.2,3,1.2s2.1-0.4,3-1.2l4-4v0
		c0.8-0.8,1.2-1.8,1.2-3C62.3,52.9,61.8,51.8,61,51z M10.8,32.9c-2.9-2.9-4.6-6.8-4.6-11c0-4.2,1.6-8.1,4.6-11c3-3,7-4.6,11-4.6
		c4,0,8,1.5,11,4.6c2.9,2.9,4.6,6.8,4.6,11c0,4.2-1.6,8.1-4.6,11C26.8,38.9,16.9,38.9,10.8,32.9z M54,57.6L40.1,43.7l3.6-3.6
		L57.6,54L54,57.6z"/>
	<path d="M26.9,19.6H16.7c-1.2,0-2.3,1-2.3,2.3s1,2.3,2.3,2.3h10.2c1.2,0,2.3-1,2.3-2.3S28.2,19.6,26.9,19.6z"/>
</g>
</svg>
