<?xml version="1.0" encoding="utf-8"?>
<!-- Generator: Adobe Illustrator 22.0.0, SVG Export Plug-In . SVG Version: 6.00 Build 0)  -->
<svg version="1.1" id="lni_lni-agenda" xmlns="http://www.w3.org/2000/svg" xmlns:xlink="http://www.w3.org/1999/xlink" x="0px"
	 y="0px" viewBox="0 0 64 64" style="enable-background:new 0 0 64 64;" xml:space="preserve">
<path d="M46,1.8H18c-3.4,0-6.3,2.8-6.3,6.3v43.5c0,2.7,1.8,5,4.2,5.9V60c0,1.2,1,2.3,2.3,2.3s2.3-1,2.3-2.3v-2.3H46
	c3.4,0,6.3-2.8,6.3-6.3V8C52.3,4.6,49.5,1.8,46,1.8z M18,53.2c-1,0-1.8-0.8-1.8-1.8V39.7h20.2v13.5H18z M16.2,35.2V21.7h20.2v13.5
	H16.2z M40.9,21.7h6.9v13.5h-6.9V21.7z M47.8,8v9.2h-6.9V6.3H46C47,6.3,47.8,7,47.8,8z M18,6.3h18.4v10.9H16.2V8
	C16.2,7,17,6.3,18,6.3z M46,53.2h-5.1V39.7h6.9v11.8C47.8,52.5,47,53.2,46,53.2z"/>
</svg>
