<?xml version="1.0" encoding="utf-8"?>
<!-- Generator: Adobe Illustrator 22.0.0, SVG Export Plug-In . SVG Version: 6.00 Build 0)  -->
<svg version="1.1" id="lni_lni-apartment" xmlns="http://www.w3.org/2000/svg" xmlns:xlink="http://www.w3.org/1999/xlink" x="0px"
	 y="0px" viewBox="0 0 64 64" style="enable-background:new 0 0 64 64;" xml:space="preserve">
<g>
	<path d="M56,1.8H33.5c-3.4,0-6.2,2.8-6.2,6.3v3.9H8c-3.4,0-6.3,2.8-6.3,6.3V56c0,3.4,2.8,6.3,6.3,6.3h48c3.4,0,6.3-2.8,6.3-6.3V8
		C62.3,4.6,59.4,1.8,56,1.8z M27.2,57.8H8c-1,0-1.8-0.8-1.8-1.8V18.2c0-1,0.8-1.8,1.8-1.8h19.2V57.8z M57.8,56c0,1-0.8,1.8-1.8,1.8
		H31.7V8c0-1,0.8-1.8,1.7-1.8H56c1,0,1.8,0.8,1.8,1.8V56z"/>
	<path d="M14,28.1h5.6c1.2,0,2.3-1,2.3-2.3s-1-2.3-2.3-2.3H14c-1.2,0-2.3,1-2.3,2.3S12.8,28.1,14,28.1z"/>
	<path d="M14,39.3h5.6c1.2,0,2.3-1,2.3-2.3s-1-2.3-2.3-2.3H14c-1.2,0-2.3,1-2.3,2.3S12.8,39.3,14,39.3z"/>
	<path d="M13.9,50.6h5.6c1.2,0,2.3-1,2.3-2.3s-1-2.3-2.3-2.3h-5.6c-1.2,0-2.3,1-2.3,2.3S12.7,50.6,13.9,50.6z"/>
	<path d="M47.6,14.7H42c-1.2,0-2.3,1-2.3,2.3s1,2.3,2.3,2.3h5.6c1.2,0,2.3-1,2.3-2.3S48.8,14.7,47.6,14.7z"/>
	<path d="M47.6,29.1H42c-1.2,0-2.3,1-2.3,2.3c0,1.2,1,2.3,2.3,2.3h5.6c1.2,0,2.3-1,2.3-2.3C49.8,30.1,48.8,29.1,47.6,29.1z"/>
	<path d="M47.5,43.5h-5.6c-1.2,0-2.3,1-2.3,2.3s1,2.3,2.3,2.3h5.6c1.2,0,2.3-1,2.3-2.3S48.7,43.5,47.5,43.5z"/>
</g>
</svg>
