<?xml version="1.0" encoding="utf-8"?>
<!-- Generator: Adobe Illustrator 22.0.0, SVG Export Plug-In . SVG Version: 6.00 Build 0)  -->
<svg version="1.1" id="lni_lni-briefcase-alt" xmlns="http://www.w3.org/2000/svg" xmlns:xlink="http://www.w3.org/1999/xlink"
	 x="0px" y="0px" viewBox="0 0 64 64" style="enable-background:new 0 0 64 64;" xml:space="preserve">
<path d="M56,20H43.7v-1.8c0-5.7-4.6-10.3-10.3-10.3h-2.9c-5.7,0-10.3,4.6-10.3,10.3V20H8c-3.4,0-6.3,2.8-6.3,6.3v23.6
	c0,3.4,2.8,6.3,6.3,6.3h48c3.4,0,6.3-2.8,6.3-6.3V26.2C62.3,22.8,59.4,20,56,20z M24.8,18.2c0-3.2,2.6-5.8,5.8-5.8h2.9
	c3.2,0,5.8,2.6,5.8,5.8V20H24.8V18.2z M8,24.5h48c1,0,1.8,0.8,1.8,1.8v5.6h-5.9v-1.9c0-1.2-1-2.3-2.3-2.3s-2.3,1-2.3,2.3v1.9H16.7
	v-1.9c0-1.2-1-2.3-2.3-2.3s-2.3,1-2.3,2.3v1.9H6.3v-5.6C6.3,25.3,7,24.5,8,24.5z M56,51.6H8c-1,0-1.8-0.8-1.8-1.8V36.3h5.9v1.9
	c0,1.2,1,2.3,2.3,2.3s2.3-1,2.3-2.3v-1.9h30.6v1.9c0,1.2,1,2.3,2.3,2.3s2.3-1,2.3-2.3v-1.9h5.9v13.5C57.8,50.8,57,51.6,56,51.6z"/>
</svg>
