<?xml version="1.0" encoding="utf-8"?>
<!-- Generator: Adobe Illustrator 22.0.0, SVG Export Plug-In . SVG Version: 6.00 Build 0)  -->
<svg version="1.1" id="lni_lni-cart-full" xmlns="http://www.w3.org/2000/svg" xmlns:xlink="http://www.w3.org/1999/xlink" x="0px"
	 y="0px" viewBox="0 0 64 64" style="enable-background:new 0 0 64 64;" xml:space="preserve">
<g>
	<path d="M37.1,47.8c-4,0-7.2,3.2-7.2,7.2c0,4,3.2,7.2,7.2,7.2c4,0,7.2-3.2,7.2-7.2C44.3,51.1,41,47.8,37.1,47.8z M37.1,57.8
		c-1.5,0-2.7-1.2-2.7-2.7c0-1.5,1.2-2.7,2.7-2.7c1.5,0,2.7,1.2,2.7,2.7C39.8,56.5,38.5,57.8,37.1,57.8z"/>
	<path d="M18.1,47.8c-4,0-7.2,3.2-7.2,7.2c0,4,3.2,7.2,7.2,7.2s7.2-3.2,7.2-7.2C25.3,51.1,22,47.8,18.1,47.8z M18.1,57.8
		c-1.5,0-2.7-1.2-2.7-2.7c0-1.5,1.2-2.7,2.7-2.7c1.5,0,2.7,1.2,2.7,2.7C20.8,56.5,19.6,57.8,18.1,57.8z"/>
	<path d="M58.2,1.8h-5.4c-2.4,0-4.5,1.8-4.8,4.2l-1.6,11.5h-4.2v-7.3C42.1,8.4,40.7,7,39,7h-7.4c-0.3-1.5-1.6-2.6-3.1-2.6h-8.7
		c-1.7,0-3.2,1.5-3.2,3.4v1.9H9.3c-1.7,0-3.2,1.4-3.2,3v4.9c-0.8,0.2-1.4,0.6-1.9,1.2c-0.6,0.8-0.9,1.9-0.6,2.9c0,0.1,0,0.1,0,0.2
		l6.2,18.7c0.4,1.4,1.7,2.4,3.2,2.4h27.6c3.7,0,6.9-2.8,7.4-6.5l4.2-29.9c0-0.2,0.2-0.3,0.4-0.3h5.4c1.2,0,2.3-1,2.3-2.3
		S59.4,1.8,58.2,1.8z M37.6,17.5h-6v-6h6V17.5z M21.2,8.9h6v1.3v7.3h-6v-4.7V8.9z M10.7,14.1h6v3.4h-6V14.1z M43.7,35.8
		c-0.2,1.5-1.5,2.6-3,2.6H13.9L8.5,22h37.2L43.7,35.8z"/>
</g>
</svg>
