<?xml version="1.0" encoding="utf-8"?>
<!-- Generator: Adobe Illustrator 22.0.0, SVG Export Plug-In . SVG Version: 6.00 Build 0)  -->
<svg version="1.1" id="lni_lni-seo-consulting" xmlns="http://www.w3.org/2000/svg" xmlns:xlink="http://www.w3.org/1999/xlink"
	 x="0px" y="0px" viewBox="0 0 64 64" style="enable-background:new 0 0 64 64;" xml:space="preserve">
<g>
	<path d="M25.1,23.6c0,4,3.2,7.2,7.2,7.2c4,0,7.2-3.2,7.2-7.2s-3.2-7.2-7.2-7.2C28.4,16.3,25.1,19.6,25.1,23.6z M35.6,23.6
		c0,1.8-1.5,3.2-3.2,3.2s-3.2-1.5-3.2-3.2s1.5-3.2,3.2-3.2S35.6,21.8,35.6,23.6z"/>
	<path d="M8.1,31.7c0.5,0,0.9-0.2,1.2-0.4l7.1-5.6c0.9-0.7,1-1.9,0.3-2.8c-0.7-0.9-1.9-1-2.8-0.3l-3.6,2.9
		C12.9,15.3,21.9,8.2,32.4,8.2c10.5,0,19.6,7.1,22.2,17.3c0.3,1.1,1.4,1.7,2.4,1.4c1.1-0.3,1.7-1.4,1.4-2.4
		c-3-12-13.8-20.4-26.1-20.4c-12.2,0-22.8,8.2-25.9,20L4.1,21c-0.7-0.9-1.9-1.1-2.8-0.4c-0.9,0.7-1.1,1.9-0.4,2.8l5.6,7.5
		c0.3,0.4,0.8,0.7,1.3,0.8C7.9,31.7,8,31.7,8.1,31.7z"/>
	<path d="M62.8,44.8l-3.9-8.5c-0.2-0.5-0.6-0.9-1.2-1.1c-0.5-0.2-1.1-0.1-1.6,0.1l-8.1,4c-1,0.5-1.4,1.7-0.9,2.7
		c0.5,1,1.7,1.4,2.7,0.9l3.9-1.9c-1.8,4.8-5.1,8.7-9.2,11.3v-9.4c0-5.1-3.8-9.3-8.5-9.3h-7.7c-4.7,0-8.5,4.2-8.5,9.4v9
		c-4.2-2.8-7.4-6.9-9-11.9c-0.3-1-1.5-1.6-2.5-1.3c-1,0.3-1.6,1.5-1.3,2.5c3.6,11,13.8,18.4,25.4,18.4c11.1,0,21-6.8,25-17.1
		l1.7,3.8c0.3,0.7,1.1,1.2,1.8,1.2c0.3,0,0.6-0.1,0.8-0.2C62.8,47,63.2,45.8,62.8,44.8z M23.8,54.1V42.9c0-3,2-5.4,4.5-5.4h1.8v6.9
		c0,1.1,0.9,2,2,2c1.1,0,2-0.9,2-2v-6.9H36c2.5,0,4.5,2.4,4.5,5.3v11.4c-2.6,1-5.3,1.5-8.2,1.5C29.3,55.8,26.4,55.2,23.8,54.1z"/>
</g>
</svg>
