<svg id="Layer_1" data-name="Layer 1" xmlns="http://www.w3.org/2000/svg" viewBox="0 0 64 64"><title>Artboard 16</title><path d="M60.21,47l0-.06A7.49,7.49,0,0,0,51,41.7c-3.41,1-8.09,2.4-11.62,3.42A4.68,4.68,0,0,0,39.29,42c-.9-2.25-3.41-3.26-5.51-3.26H24a3.94,3.94,0,0,1-2.58-1.2,5.65,5.65,0,0,0-3.84-1.5H9.67a6.34,6.34,0,0,0-6.21,6.46V55.09a6.46,6.46,0,0,0,6.32,6.58h9.51a6.13,6.13,0,0,0,3.42-1.06l.1,0A18.75,18.75,0,0,0,31.87,63a18.47,18.47,0,0,0,5.56-.84l17.66-5.39.13,0A7.74,7.74,0,0,0,60.21,47ZM9.78,57.67a2.46,2.46,0,0,1-2.32-2.58V42.54a2.34,2.34,0,0,1,2.21-2.46h7.9a1.63,1.63,0,0,1,1.14.45,10.64,10.64,0,0,0,.94.75V57.63a2.2,2.2,0,0,1-.36,0ZM53.86,53,36.24,58.34a14.27,14.27,0,0,1-4.37.66,14.8,14.8,0,0,1-7.16-1.85l-1.06-.57V42.76l.34,0h9.79a2.08,2.08,0,0,1,1.8.75c.14.36-.12,1.55-2.15,3.48L32.28,48.1l.79,1.37c.81,1.4,1.6,1.17,4.94.22,1.58-.45,3.69-1.06,5.79-1.68,4.18-1.22,8.36-2.47,8.36-2.47a3.53,3.53,0,0,1,4.21,2.53A3.76,3.76,0,0,1,53.86,53Z"/><path d="M50.55,15.61a7.31,7.31,0,1,0-7.31-7.3A7.32,7.32,0,0,0,50.55,15.61ZM50.55,5a3.31,3.31,0,1,1-3.31,3.31A3.31,3.31,0,0,1,50.55,5Z"/><path d="M48.18,37.38h3.3a7.26,7.26,0,0,0,7.25-7.25V24.44a7.26,7.26,0,0,0-7.25-7.25h-3a7.26,7.26,0,0,0-7.25,7.25V30.1A7.22,7.22,0,0,0,48.18,37.38ZM45.24,24.44a3.25,3.25,0,0,1,3.25-3.25h3a3.26,3.26,0,0,1,3.25,3.25v5.69a3.26,3.26,0,0,1-3.25,3.25h-3.3a3.2,3.2,0,0,1-2.94-3.32Z"/></svg>