<?xml version="1.0" encoding="utf-8"?>
<!-- Generator: Adobe Illustrator 22.0.0, SVG Export Plug-In . SVG Version: 6.00 Build 0)  -->
<svg version="1.1" id="lni_lni-invest-monitor" xmlns="http://www.w3.org/2000/svg" xmlns:xlink="http://www.w3.org/1999/xlink"
	 x="0px" y="0px" viewBox="0 0 64 64" style="enable-background:new 0 0 64 64;" xml:space="preserve">
<g>
	<path d="M35.1,11.9h-5.4c-1,0-1.8-0.7-1.8-1.6s0.8-1.6,1.8-1.6h8c1.2,0,2.3-1,2.3-2.3s-1-2.3-2.3-2.3h-2.3V4c0-1.2-1-2.3-2.3-2.3
		c-1.2,0-2.3,1-2.3,2.3v0.1h-1.2c-3.5,0-6.3,2.8-6.3,6.1s2.8,6.1,6.3,6.1h5.4c1,0,1.8,0.7,1.8,1.6s-0.8,1.6-1.8,1.6H26
		c-1.2,0-2.3,1-2.3,2.3s1,2.3,2.3,2.3h4.9v0.1c0,1.2,1,2.3,2.3,2.3c1.2,0,2.3-1,2.3-2.3v-0.1c3.3-0.1,6-2.8,6-6.1
		C41.4,14.6,38.6,11.9,35.1,11.9z"/>
	<path d="M13.8,35.3H9.7c-2.3,0-4.3,1.9-4.3,4.3V58c0,2.3,1.9,4.3,4.3,4.3h4.1c2.3,0,4.3-1.9,4.3-4.3V39.6
		C18,37.2,16.1,35.3,13.8,35.3z M13.5,57.8H9.9V39.8h3.6V57.8z"/>
	<path d="M34.1,29.6h-4.1c-2.3,0-4.3,1.9-4.3,4.2V58c0,2.3,1.9,4.3,4.3,4.3h4.1c2.3,0,4.3-1.9,4.3-4.3V33.9
		C38.3,31.5,36.4,29.6,34.1,29.6z M33.8,57.8h-3.6V34.1h3.6V57.8z"/>
	<path d="M54.3,35.3h-4.1c-2.3,0-4.3,1.9-4.3,4.3V58c0,2.3,1.9,4.3,4.3,4.3h4.1c2.3,0,4.3-1.9,4.3-4.3V39.6
		C58.6,37.2,56.7,35.3,54.3,35.3z M54.1,57.8h-3.6V39.8h3.6V57.8z"/>
</g>
</svg>
