<?xml version="1.0" encoding="utf-8"?>
<!-- Generator: Adobe Illustrator 22.0.0, SVG Export Plug-In . SVG Version: 6.00 Build 0)  -->
<svg version="1.1" id="lni_lni-investment" xmlns="http://www.w3.org/2000/svg" xmlns:xlink="http://www.w3.org/1999/xlink" x="0px"
	 y="0px" viewBox="0 0 64 64" style="enable-background:new 0 0 64 64;" xml:space="preserve">
<g>
	<path d="M32.2,45.1c1.1,0,2-0.9,2-2v-1h0.7c3.3,0,6.1-2.7,6.1-6c0-3.3-2.7-6-6.1-6h-5.2c-1.1,0-2.1-0.9-2.1-2s0.9-2,2.1-2H38
		c1.1,0,2-0.9,2-2s-0.9-2-2-2h-3.8v-1c0-1.1-0.9-2-2-2c-1.1,0-2,0.9-2,2v1h-0.5c-3.3,0-6.1,2.7-6.1,6s2.7,6,6.1,6h5.2
		c1.1,0,2.1,0.9,2.1,2c0,1.1-0.9,2-2.1,2h-8.6c-1.1,0-2,0.9-2,2s0.9,2,2,2h3.8v1C30.2,44.2,31.1,45.1,32.2,45.1z"/>
	<path d="M8.4,31.7c0.5,0,0.9-0.2,1.2-0.4l7.1-5.6c0.9-0.7,1-1.9,0.3-2.8c-0.7-0.9-1.9-1-2.8-0.3l-3.6,2.9
		C13.1,15.3,22.2,8.2,32.6,8.2c10.5,0,19.6,7.1,22.2,17.3c0.3,1.1,1.4,1.7,2.4,1.4c1.1-0.3,1.7-1.4,1.4-2.4
		c-3-12-13.8-20.4-26.1-20.4c-12.2,0-22.8,8.2-25.9,20L4.4,21c-0.7-0.9-1.9-1.1-2.8-0.4c-0.9,0.7-1.1,1.9-0.4,2.8l5.6,7.5
		c0.3,0.4,0.8,0.7,1.3,0.8C8.2,31.7,8.3,31.7,8.4,31.7z"/>
	<path d="M63,44.8l-3.9-8.5c-0.2-0.5-0.6-0.9-1.2-1.1c-0.5-0.2-1.1-0.1-1.6,0.1l-8.1,4c-1,0.5-1.4,1.7-0.9,2.7
		c0.5,1,1.7,1.4,2.7,0.9L54,41c-3.4,8.9-11.8,14.8-21.4,14.8c-9.9,0-18.5-6.3-21.6-15.7c-0.3-1-1.5-1.6-2.5-1.3
		c-1,0.3-1.6,1.5-1.3,2.5c3.6,11,13.8,18.4,25.4,18.4c11.1,0,21-6.8,25-17.1l1.7,3.8c0.3,0.7,1.1,1.2,1.8,1.2c0.3,0,0.6-0.1,0.8-0.2
		C63.1,47,63.5,45.8,63,44.8z"/>
</g>
</svg>
