<?xml version="1.0" encoding="utf-8"?>
<!-- Generator: Adobe Illustrator 22.0.0, SVG Export Plug-In . SVG Version: 6.00 Build 0)  -->
<svg version="1.1" id="lni_lni-license" xmlns="http://www.w3.org/2000/svg" xmlns:xlink="http://www.w3.org/1999/xlink" x="0px"
	 y="0px" viewBox="0 0 64 64" style="enable-background:new 0 0 64 64;" xml:space="preserve">
<g>
	<path d="M48.4,40.6H14.3c-1.2,0-2.3,1-2.3,2.3s1,2.3,2.3,2.3h34.2c1.2,0,2.3-1,2.3-2.3S49.7,40.6,48.4,40.6z"/>
	<path d="M48.4,21.8H39c-1.2,0-2.3,1-2.3,2.3s1,2.3,2.3,2.3h9.4c1.2,0,2.3-1,2.3-2.3S49.7,21.8,48.4,21.8z"/>
	<path d="M48.4,31.2H39c-1.2,0-2.3,1-2.3,2.3c0,1.2,1,2.3,2.3,2.3h9.4c1.2,0,2.3-1,2.3-2.3C50.7,32.2,49.7,31.2,48.4,31.2z"/>
	<path d="M56,11H8c-3.4,0-6.3,2.8-6.3,6.3v29.5C1.8,50.2,4.6,53,8,53h48c3.4,0,6.3-2.8,6.3-6.3V17.3C62.3,13.8,59.4,11,56,11z
		 M57.8,46.7c0,1-0.8,1.8-1.8,1.8H8c-1,0-1.8-0.8-1.8-1.8V17.3c0-1,0.8-1.8,1.8-1.8h48c1,0,1.8,0.8,1.8,1.8V46.7z"/>
	<path d="M18.3,35.7c3.9,0,7.1-3.2,7.1-7.1c0-3.9-3.2-7.1-7.1-7.1s-7.1,3.2-7.1,7.1C11.3,32.6,14.4,35.7,18.3,35.7z M18.3,26.1
		c1.4,0,2.6,1.2,2.6,2.6c0,1.4-1.2,2.6-2.6,2.6s-2.6-1.2-2.6-2.6C15.8,27.2,16.9,26.1,18.3,26.1z"/>
</g>
</svg>
