<?xml version="1.0" encoding="utf-8"?>
<!-- Generator: Adobe Illustrator 22.0.0, SVG Export Plug-In . SVG Version: 6.00 Build 0)  -->
<svg version="1.1" id="lni_lni-notepad" xmlns="http://www.w3.org/2000/svg" xmlns:xlink="http://www.w3.org/1999/xlink" x="0px"
	 y="0px" viewBox="0 0 64 64" style="enable-background:new 0 0 64 64;" xml:space="preserve">
<path d="M51.4,4.2c-1.6-1.6-3.6-2.4-5.8-2.4h-24c-3.4,0-6.3,2.8-6.3,6.3v3.9h-2.8c-1.2,0-2.3,1-2.3,2.3s1,2.3,2.3,2.3h2.8v13.3h-2.8
	c-1.2,0-2.3,1-2.3,2.3c0,1.2,1,2.3,2.3,2.3h2.8v13.3h-2.8c-1.2,0-2.3,1-2.3,2.3s1,2.3,2.3,2.3h2.8V56c0,3.4,2.8,6.3,6.3,6.3h24
	c4.5,0,8.2-3.7,8.3-8.2l0-44C53.8,7.8,53,5.7,51.4,4.2z M49.3,54c0,2.1-1.7,3.7-3.8,3.7h-24c-1,0-1.8-0.8-1.8-1.8v-3.9h5.4
	c1.2,0,2.3-1,2.3-2.3s-1-2.3-2.3-2.3h-5.4V34.3h5.4c1.2,0,2.3-1,2.3-2.3c0-1.2-1-2.3-2.3-2.3h-5.4V16.4h5.4c1.2,0,2.3-1,2.3-2.3
	s-1-2.3-2.3-2.3h-5.4V8c0-1,0.8-1.8,1.8-1.8h24c1,0,1.9,0.4,2.7,1.1c0.7,0.7,1.1,1.7,1.1,2.7L49.3,54z"/>
</svg>
