<?xml version="1.0" encoding="utf-8"?>
<!-- Generator: Adobe Illustrator 22.0.0, SVG Export Plug-In . SVG Version: 6.00 Build 0)  -->
<svg version="1.1" id="lni_lni-offer" xmlns="http://www.w3.org/2000/svg" xmlns:xlink="http://www.w3.org/1999/xlink" x="0px"
	 y="0px" viewBox="0 0 64 64" style="enable-background:new 0 0 64 64;" xml:space="preserve">
<g>
	<path d="M59.8,27l-2.4-1.9c-0.6-0.5-0.8-1.2-0.7-1.9l0.8-2.9c0.5-1.8,0.1-3.7-1-5.3c-1.2-1.6-3-2.6-5-2.7l-3.1-0.2
		c-0.8,0-1.6-0.5-1.8-1.2l-1.1-2.7c-0.7-1.7-2.2-3.1-4-3.7c-1.9-0.6-3.9-0.4-5.6,0.6l-2.6,1.6c-0.7,0.4-1.6,0.4-2.4,0l-2.6-1.6
		c-1.7-1-3.7-1.3-5.6-0.6c-1.8,0.6-3.3,1.9-4,3.7L17.4,11c-0.3,0.7-1,1.2-1.8,1.2l-3.1,0.2c-2,0.1-3.9,1.1-5,2.7
		c-1.1,1.5-1.5,3.5-1,5.3l0.8,2.9c0.2,0.7-0.1,1.4-0.7,1.9L4.2,27c-1.6,1.2-2.4,3-2.4,5c0,1.9,0.9,3.7,2.4,5l2.4,1.9
		c0.6,0.5,0.9,1.2,0.7,1.9l-0.8,2.9c-0.5,1.8-0.1,3.7,1,5.3c1.2,1.6,3,2.6,5,2.7l3.1,0.2c0.8,0,1.6,0.5,1.8,1.2l1.1,2.7
		c0.7,1.7,2.2,3.1,4,3.7c1.9,0.6,3.9,0.4,5.6-0.6l2.6-1.6c0.7-0.4,1.6-0.4,2.4,0l2.6,1.6c1.1,0.6,2.3,1,3.5,1c0.7,0,1.4-0.1,2.1-0.3
		c1.8-0.6,3.3-1.9,4-3.7l1.1-2.7c0.3-0.7,1-1.2,1.8-1.2l3.1-0.2c2-0.1,3.9-1.1,5-2.7c1.1-1.5,1.5-3.5,1-5.3l-0.8-2.9
		c-0.2-0.7,0.1-1.4,0.7-1.9l2.4-1.9c1.6-1.2,2.4-3,2.4-5C62.3,30.1,61.4,28.3,59.8,27z M57,33.4l-2.4,1.9c-2,1.6-2.9,4.2-2.2,6.6
		l0.8,2.9c0.2,0.7-0.1,1.2-0.3,1.5c-0.4,0.5-1,0.8-1.6,0.9l-3.1,0.2c-2.5,0.1-4.8,1.7-5.7,4L41.3,54c-0.3,0.7-0.9,1-1.3,1.1
		c-0.6,0.2-1.3,0.1-1.9-0.2l-2.6-1.6c-1.1-0.6-2.3-1-3.5-1s-2.4,0.3-3.5,1l-2.6,1.6c-0.6,0.3-1.3,0.4-1.9,0.2
		c-0.3-0.1-1-0.4-1.3-1.1l-1.1-2.7c-0.9-2.3-3.2-3.9-5.7-4l-3.1-0.2c-0.7,0-1.3-0.4-1.6-0.9c-0.2-0.3-0.5-0.8-0.3-1.5l0.8-2.9
		c0.7-2.4-0.2-5-2.2-6.6L7,33.4c-0.5-0.4-0.7-0.9-0.7-1.4c0-0.6,0.3-1.1,0.7-1.4l2.4-1.9c2-1.6,2.9-4.2,2.2-6.6l-0.8-2.9
		c-0.2-0.7,0.1-1.2,0.3-1.5c0.4-0.5,1-0.8,1.6-0.9l3.1-0.2c2.5-0.1,4.8-1.7,5.7-4l1.1-2.7C23,9.3,23.6,9,24,8.9
		c0.6-0.2,1.3-0.1,1.9,0.2l2.6,1.6c2.1,1.3,4.9,1.3,7,0l2.6-1.6c0.6-0.3,1.3-0.4,1.9-0.2c0.3,0.1,1,0.4,1.3,1.1l1.1,2.7
		c0.9,2.3,3.2,3.9,5.7,4l3.1,0.2c0.7,0,1.3,0.4,1.6,0.9c0.2,0.3,0.5,0.8,0.3,1.5l-0.8,2.9c-0.7,2.4,0.2,5,2.2,6.6l2.4,1.9
		c0.5,0.4,0.7,0.9,0.7,1.4C57.8,32.6,57.5,33.1,57,33.4z"/>
	<path d="M41.2,22.8c-0.9-0.9-2.3-0.9-3.2,0L22.8,38c-0.9,0.9-0.9,2.3,0,3.2c0.4,0.4,1,0.7,1.6,0.7s1.2-0.2,1.6-0.7l15.2-15.2
		C42.1,25.1,42.1,23.6,41.2,22.8z"/>
	<path d="M29.2,29.1c2.4-2.4,2.4-6.2,0-8.6c-1.1-1.1-2.7-1.8-4.3-1.8s-3.1,0.6-4.3,1.8c-2.4,2.4-2.4,6.2,0,8.6
		c1.1,1.1,2.7,1.8,4.3,1.8S28,30.3,29.2,29.1z M23.8,23.8c0.3-0.3,0.7-0.5,1.1-0.5s0.8,0.2,1.1,0.5c0.6,0.6,0.6,1.6,0,2.2
		c-0.6,0.6-1.6,0.6-2.2,0C23.2,25.4,23.2,24.4,23.8,23.8z"/>
	<path d="M34.5,34.5c-1.1,1.1-1.8,2.7-1.8,4.3c0,1.6,0.6,3.1,1.8,4.3c1.2,1.2,2.7,1.8,4.3,1.8c1.6,0,3.1-0.6,4.3-1.8
		c1.1-1.1,1.8-2.7,1.8-4.3c0-1.6-0.6-3.1-1.8-4.3C40.7,32.1,36.9,32.1,34.5,34.5z M39.9,39.9L39.9,39.9c-0.6,0.6-1.6,0.6-2.2,0
		c-0.3-0.3-0.5-0.7-0.5-1.1s0.2-0.8,0.5-1.1c0.3-0.3,0.7-0.5,1.1-0.5c0.4,0,0.8,0.2,1.1,0.5c0.3,0.3,0.5,0.7,0.5,1.1
		S40.2,39.6,39.9,39.9z"/>
</g>
</svg>
