<?xml version="1.0" encoding="utf-8"?>
<!-- Generator: Adobe Illustrator 22.0.0, SVG Export Plug-In . SVG Version: 6.00 Build 0)  -->
<svg version="1.1" id="lni_lni-paperclip" xmlns="http://www.w3.org/2000/svg" xmlns:xlink="http://www.w3.org/1999/xlink" x="0px"
	 y="0px" viewBox="0 0 64 64" style="enable-background:new 0 0 64 64;" xml:space="preserve">
<g>
	<path d="M32.8,62.3c-0.2,0-0.3,0-0.5,0c0,0,0,0,0,0c-4.6,0-9.6-1.9-12.7-4.8c-3.3-3.1-5.1-7.3-5.1-11.6v-31c0-4.3,2.1-8.2,5.8-10.7
		c3.6-2.5,8.1-3.1,12.3-1.6l0.2,0.1c0.5,0.2,1.1,0.3,1.7,0.7c4.6,2.4,7.4,6.7,7.4,11.6v26.5c0,2.7-0.9,5.2-2.6,7.2
		c-0.3,0.4-0.5,0.6-0.7,0.7C36.7,51.1,34.5,52,32,52c-2.8,0-5.5-1.3-7.3-3.4c-1.7-2-2.7-4.6-2.7-7.3V19.2c0-1.2,1-2.3,2.3-2.3
		s2.3,1,2.3,2.3v22.2c0,1.6,0.6,3.2,1.6,4.4c0.9,1.1,2.4,1.8,3.8,1.8c1.3,0,2.4-0.5,3.4-1.4c0.1-0.1,0.2-0.2,0.4-0.4
		c1-1.2,1.6-2.7,1.6-4.3V14.9c0-3.2-1.8-6-5-7.6l-0.1-0.1c-0.2-0.1-0.4-0.2-0.8-0.3l-0.3-0.1c-2.9-1-5.9-0.6-8.4,1.1
		C20.3,9.5,19,12,19,14.8v31c0,3,1.4,6.1,3.7,8.3c2.3,2.1,6.2,3.6,9.7,3.6c3.4,0.1,6.6-1.2,9.1-3.5c2.4-2.3,3.7-5.3,3.6-8.4V21.7
		c0-1.2,1-2.3,2.3-2.3s2.3,1,2.3,2.3v24.1c0.1,4.3-1.7,8.5-5,11.7C41.4,60.5,37.1,62.3,32.8,62.3z"/>
</g>
</svg>
