<?xml version="1.0" encoding="utf-8"?>
<!-- Generator: Adobe Illustrator 22.0.0, SVG Export Plug-In . SVG Version: 6.00 Build 0)  -->
<svg version="1.1" id="lni_lni-pie-chart" xmlns="http://www.w3.org/2000/svg" xmlns:xlink="http://www.w3.org/1999/xlink" x="0px"
	 y="0px" viewBox="0 0 64 64" style="enable-background:new 0 0 64 64;" xml:space="preserve">
<path d="M37.4,2.2C21-0.7,5.2,10.2,2.3,26.6c-1.5,7.9,0.3,16,4.9,22.6c4.6,6.7,11.5,11.1,19.4,12.6c1.8,0.3,3.6,0.5,5.4,0.5
	c14.3,0,27.1-10.3,29.8-24.9l0,0C64.7,21,53.8,5.2,37.4,2.2z M57.3,36.6c-0.1,0.8-0.3,1.6-0.5,2.3l-22.6-8.5V6.4
	c0.8,0.1,1.6,0.2,2.3,0.3C50.5,9.2,59.8,22.6,57.3,36.6z M29.7,6.4v23.4H6.4c0.1-0.8,0.2-1.6,0.3-2.4C8.8,15.7,18.5,7.3,29.7,6.4z
	 M27.4,57.3c-6.8-1.2-12.6-5-16.5-10.7c-2.6-3.7-4.1-8-4.5-12.4h25.2l23.6,8.9C50.3,53.3,39,59.5,27.4,57.3z"/>
</svg>
