<?xml version="1.0" encoding="utf-8"?>
<!-- Generator: Adobe Illustrator 22.0.0, SVG Export Plug-In . SVG Version: 6.00 Build 0)  -->
<svg version="1.1" id="lni_lni-pin" xmlns="http://www.w3.org/2000/svg" xmlns:xlink="http://www.w3.org/1999/xlink" x="0px"
	 y="0px" viewBox="0 0 64 64" style="enable-background:new 0 0 64 64;" xml:space="preserve">
<g>
	<path d="M47,16.7c0-8.3-6.7-15-15-15s-15,6.7-15,15c0,7.5,5.5,13.7,12.7,14.8V60c0,1.2,1,2.3,2.3,2.3c1.2,0,2.3-1,2.3-2.3V31.5
		C41.4,30.4,47,24.2,47,16.7z M32,27.2C32,27.2,32,27.2,32,27.2C32,27.2,32,27.2,32,27.2c-5.8,0-10.5-4.7-10.5-10.5
		c0-5.8,4.7-10.5,10.5-10.5s10.5,4.7,10.5,10.5C42.5,22.5,37.8,27.2,32,27.2z"/>
	<path d="M34.6,8.5c-3.1,0-5.7,2.5-5.7,5.7s2.5,5.7,5.7,5.7s5.7-2.5,5.7-5.7S37.7,8.5,34.6,8.5z M34.6,15.3c-0.6,0-1.2-0.5-1.2-1.2
		s0.5-1.2,1.2-1.2s1.2,0.5,1.2,1.2S35.2,15.3,34.6,15.3z"/>
</g>
</svg>
