<?xml version="1.0" encoding="utf-8"?>
<!-- Generator: Adobe Illustrator 22.0.0, SVG Export Plug-In . SVG Version: 6.00 Build 0)  -->
<svg version="1.1" id="lni_lni-quotation" xmlns="http://www.w3.org/2000/svg" xmlns:xlink="http://www.w3.org/1999/xlink" x="0px"
	 y="0px" viewBox="0 0 64 64" style="enable-background:new 0 0 64 64;" xml:space="preserve">
<g>
	<g>
		<path d="M19.2,49.5C19.2,49.5,19.2,49.5,19.2,49.5c-1.2,0-2.3-0.7-2.7-1.8l-3.3-8c-3.7-0.6-7-2.5-9.1-5.4c-2.2-2.9-2.9-6.5-2-10
			c1.4-5.7,7.3-10,13.8-9.9c4.6,0.1,8.4,2,10.9,5.4c2.4,3.4,3,8,1.6,12.2c-1.3,3.8-3,7.6-4.6,11.3c-0.6,1.5-1.3,3-1.9,4.4
			C21.5,48.8,20.4,49.5,19.2,49.5z M20.7,46L20.7,46L20.7,46z M15.7,18.9c-4.4,0-8.4,2.8-9.3,6.5c-0.5,2.2-0.1,4.4,1.3,6.2
			c1.6,2.2,4.3,3.6,7.2,3.8l1.4,0.1l2.9,7c0.1-0.3,0.3-0.7,0.4-1c1.6-3.6,3.2-7.3,4.4-11c1-2.8,0.6-5.9-1-8.1
			c-1.6-2.2-4.1-3.4-7.2-3.5C15.8,18.9,15.8,18.9,15.7,18.9z"/>
	</g>
	<g>
		<path d="M52.3,49.6C52.3,49.6,52.3,49.6,52.3,49.6c-1.2,0-2.3-0.7-2.7-1.8l-3.3-8c-3.7-0.6-7-2.5-9.1-5.4c-2.2-2.9-2.9-6.5-2-10
			c1.4-5.7,7.3-10,13.8-9.9c4.6,0.1,8.4,2,10.8,5.4c2.4,3.4,3,8,1.6,12.2c-1.3,3.8-3,7.6-4.6,11.3c-0.6,1.5-1.3,3-1.9,4.4
			C54.6,48.9,53.5,49.6,52.3,49.6z M53.8,46.1L53.8,46.1L53.8,46.1z M48.8,18.9c-4.4,0-8.4,2.8-9.3,6.5c-0.5,2.2-0.1,4.4,1.3,6.3
			c1.6,2.2,4.3,3.6,7.2,3.8l1.4,0.1l2.9,7c0.1-0.3,0.3-0.7,0.4-1c1.6-3.6,3.2-7.3,4.4-11c1-2.8,0.6-5.9-1-8.2
			c-1.6-2.2-4.1-3.4-7.2-3.5C48.9,18.9,48.9,18.9,48.8,18.9z"/>
	</g>
</g>
</svg>
