<?xml version="1.0" encoding="utf-8"?>
<!-- Generator: Adobe Illustrator 22.0.0, SVG Export Plug-In . SVG Version: 6.00 Build 0)  -->
<svg version="1.1" id="lni_lni-stamp" xmlns="http://www.w3.org/2000/svg" xmlns:xlink="http://www.w3.org/1999/xlink" x="0px"
	 y="0px" viewBox="0 0 64 64" style="enable-background:new 0 0 64 64;" xml:space="preserve">
<path d="M46,35h-7.3l1.2-24.4c0.1-2.4-0.7-4.7-2.3-6.4C36,2.6,34.1,1.8,32,1.8c-2.1,0-4.1,0.9-5.6,2.4c-1.6,1.7-2.5,4-2.4,6.4
	L25.3,35H18c-6.2,0-11.2,5.4-11.2,12.1v4.7c0,1.5,1.1,2.7,2.5,2.8V56c0,3.4,2.8,6.3,6.3,6.3h32.7c3.4,0,6.3-2.8,6.3-6.3v-1.4
	c1.4-0.1,2.5-1.3,2.5-2.8v-4.7C57.1,40.4,52.1,35,46,35z M28.6,10.4c-0.1-1.2,0.4-2.3,1.1-3.1c1.3-1.3,3.3-1.3,4.6,0
	c0.8,0.8,1.2,1.9,1.1,3L34.2,35h-4.4L28.6,10.4z M11.4,47.1c0-4.2,3-7.6,6.7-7.6h7.5h12.9H46c3.7,0,6.7,3.4,6.7,7.6v3.1H11.4V47.1z
	 M48.4,57.8H15.6c-1,0-1.8-0.8-1.8-1.8v-1.3h36.2V56C50.1,57,49.3,57.8,48.4,57.8z"/>
</svg>
