<?xml version="1.0" encoding="utf-8"?>
<!-- Generator: Adobe Illustrator 22.0.0, SVG Export Plug-In . SVG Version: 6.00 Build 0)  -->
<svg version="1.1" id="lni_lni-stats-up" xmlns="http://www.w3.org/2000/svg" xmlns:xlink="http://www.w3.org/1999/xlink" x="0px"
	 y="0px" viewBox="0 0 64 64" style="enable-background:new 0 0 64 64;" xml:space="preserve">
<g>
	<path d="M60,57.8H6.3V4c0-1.2-1-2.3-2.3-2.3S1.8,2.8,1.8,4v54.1c0,2.3,1.9,4.2,4.2,4.2H60c1.2,0,2.3-1,2.3-2.3S61.2,57.8,60,57.8z"
		/>
	<path d="M59,22.1H47.3c-1.2,0-2.3,1-2.3,2.3s1,2.3,2.3,2.3h6.8l-5.3,4.6H35.7c-0.7,0-1.4,0.3-1.8,0.9l-7.1,9.3H16.3
		c-1.2,0-2.3,1-2.3,2.3s1,2.3,2.3,2.3h11.6c0.7,0,1.4-0.3,1.8-0.9l7.1-9.3h12.9c0.5,0,1.1-0.2,1.5-0.6l6.6-5.8v7.7
		c0,1.2,1,2.3,2.3,2.3s2.3-1,2.3-2.3V25.3C62.3,23.6,60.8,22.1,59,22.1z"/>
</g>
</svg>
