<?xml version="1.0" encoding="utf-8"?>
<!-- Generator: Adobe Illustrator 22.0.0, SVG Export Plug-In . SVG Version: 6.00 Build 0)  -->
<svg version="1.1" id="lni_lni-stats-down" xmlns="http://www.w3.org/2000/svg" xmlns:xlink="http://www.w3.org/1999/xlink" x="0px"
	 y="0px" viewBox="0 0 64 64" style="enable-background:new 0 0 64 64;" xml:space="preserve">
<g>
	<path d="M60,57.8H6.3V4c0-1.2-1-2.3-2.3-2.3S1.8,2.8,1.8,4v56c0,1.2,1,2.3,2.3,2.3h56c1.2,0,2.3-1,2.3-2.3S61.2,57.8,60,57.8z"/>
	<path d="M60,28.6c-1.2,0-2.3,1-2.3,2.3v7.5l-6.7-5.6c-0.4-0.3-0.9-0.5-1.4-0.5H36.8L29.7,23c-0.4-0.6-1.1-0.9-1.8-0.9H15.3
		c-1.2,0-2.3,1-2.3,2.3s1,2.3,2.3,2.3h11.5l7.1,9.3c0.4,0.6,1.1,0.9,1.8,0.9h13.2l5.5,4.6h-7c-1.2,0-2.3,1-2.3,2.3s1,2.3,2.3,2.3H60
		c1.2,0,2.3-1,2.3-2.3V30.9C62.3,29.6,61.2,28.6,60,28.6z"/>
</g>
</svg>
