<?xml version="1.0" encoding="utf-8"?>
<!-- Generator: Adobe Illustrator 22.0.0, SVG Export Plug-In . SVG Version: 6.00 Build 0)  -->
<svg version="1.1" id="lni_lni-target-revenue" xmlns="http://www.w3.org/2000/svg" xmlns:xlink="http://www.w3.org/1999/xlink"
	 x="0px" y="0px" viewBox="0 0 64 64" style="enable-background:new 0 0 64 64;" xml:space="preserve">
<g>
	<path d="M61,29.8h-5.2C54.7,18.4,45.6,9.3,34.3,8.2V3c0-1.2-1-2.3-2.3-2.3c-1.2,0-2.3,1-2.3,2.3v5.2C18.4,9.3,9.3,18.4,8.2,29.8H3
		c-1.2,0-2.3,1-2.3,2.3c0,1.2,1,2.3,2.3,2.3h5.2c1.1,11.4,10.2,20.5,21.6,21.6V61c0,1.2,1,2.3,2.3,2.3c1.2,0,2.3-1,2.3-2.3v-5.2
		c11.4-1.1,20.5-10.2,21.6-21.6H61c1.2,0,2.3-1,2.3-2.3C63.3,30.8,62.2,29.8,61,29.8z M34.3,51.3v-0.8c0-1.2-1-2.3-2.3-2.3
		c-1.2,0-2.3,1-2.3,2.3v0.8c-8.9-1-16-8.1-17-17h0.8c1.2,0,2.3-1,2.3-2.3c0-1.2-1-2.3-2.3-2.3h-0.8c1-8.9,8.1-16,17-17v0.8
		c0,1.2,1,2.3,2.3,2.3c1.2,0,2.3-1,2.3-2.3v-0.8c8.9,1,16,8.1,17,17h-0.8c-1.2,0-2.3,1-2.3,2.3c0,1.2,1,2.3,2.3,2.3h0.8
		C50.2,43.2,43.2,50.2,34.3,51.3z"/>
	<path d="M34.5,29.8h-5c-0.8,0-1.5-0.6-1.5-1.3s0.7-1.3,1.5-1.3h7.4c1.2,0,2.3-1,2.3-2.3s-1-2.3-2.3-2.3h-2c0-1.2-1-2.2-2.2-2.2
		c-1.2,0-2.2,1-2.2,2.2h-0.9c-3.3,0-6,2.6-6,5.8c0,3.2,2.7,5.8,6,5.8h5c0.8,0,1.5,0.6,1.5,1.3s-0.7,1.3-1.5,1.3h-8.4
		c-1.2,0-2.3,1-2.3,2.3s1,2.3,2.3,2.3h4.4c0,1.2,1,2.2,2.2,2.2c1.2,0,2.2-1,2.2-2.2c3.1-0.2,5.6-2.7,5.6-5.8
		C40.5,32.4,37.8,29.8,34.5,29.8z"/>
</g>
</svg>
