<?xml version="1.0" encoding="utf-8"?>
<!-- Generator: Adobe Illustrator 22.0.0, SVG Export Plug-In . SVG Version: 6.00 Build 0)  -->
<svg version="1.1" id="lni_lni-buger" xmlns="http://www.w3.org/2000/svg" xmlns:xlink="http://www.w3.org/1999/xlink" x="0px"
	 y="0px" viewBox="0 0 64 64" style="enable-background:new 0 0 64 64;" xml:space="preserve">
<path d="M56.8,23.1c-1-9.1-8.7-16.2-18-16.2H25.2c-4.9,0-9.4,1.9-12.8,5.3c-3,3-4.8,6.8-5.2,11c-3.2,1.6-5.4,4.8-5.4,8.5v0.8
	c0,3.7,2.2,6.9,5.4,8.5c0.9,9.1,8.7,16.3,18,16.3h13.6c4.9,0,9.4-1.9,12.8-5.3c3-2.9,4.8-6.8,5.2-11c3.2-1.6,5.4-4.8,5.4-8.5v-0.7
	C62.3,27.9,60,24.6,56.8,23.1z M15.6,15.3c2.6-2.6,6-4,9.6-4h13.6c6.5,0,12,4.6,13.3,10.8H11.9C12.4,19.6,13.7,17.2,15.6,15.3z
	 M48.4,48.7c-2.6,2.6-6,4-9.7,4H25.2c-6.5,0-12-4.6-13.3-10.8h40.2C51.6,44.5,50.3,46.8,48.4,48.7z M57.8,32.4c0,2.8-2.4,5-5.3,5
	H11.5c-2.9,0-5.3-2.2-5.3-5v-0.8c0-2.8,2.4-5,5.3-5h41.1c2.8,0,5.1,2.3,5.1,5.1V32.4z"/>
</svg>
