<?xml version="1.0" encoding="utf-8"?>
<!-- Generator: Adobe Illustrator 22.0.0, SVG Export Plug-In . SVG Version: 6.00 Build 0)  -->
<svg version="1.1" id="lni_lni-chef-hat" xmlns="http://www.w3.org/2000/svg" xmlns:xlink="http://www.w3.org/1999/xlink" x="0px"
	 y="0px" viewBox="0 0 64 64" style="enable-background:new 0 0 64 64;" xml:space="preserve">
<path d="M47.3,12.7C45.1,6.1,39,1.8,32,1.8c-7,0-13.1,4.4-15.3,10.9C8.9,14.4,3.4,21.3,3.4,29.2v0.1c0,6.1,4.6,11.2,10.5,12.2
	c0,3.4,0.1,10.2,0.2,14.5c0,3.4,2.8,6.2,6.2,6.2h23.3c3.4,0,6.2-2.7,6.2-6.1l0.3-14.6c5.9-1,10.4-6.2,10.4-12.4
	C60.6,21.3,55.1,14.4,47.3,12.7z M43.7,57.8H20.4c-0.9,0-1.7-0.8-1.7-1.7c0-1.2,0-2.7-0.1-4.1h26.9L45.4,56
	C45.4,57,44.6,57.8,43.7,57.8z M48.5,37.2c-1.5,0.1-2.7,1.3-2.7,2.8l-0.2,7.4H18.5c0-3.2-0.1-6.2-0.1-7.4c0-1.5-1.2-2.7-2.7-2.8
	c-4.3-0.2-7.8-3.7-7.8-7.9v-0.1c0-5.9,4.2-11.1,10.1-12.2c1.3-0.3,2.4-1.2,2.8-2.5c1.5-4.9,6-8.2,11.2-8.2c5.2,0,9.7,3.3,11.2,8.2
	c0.4,1.3,1.5,2.3,2.8,2.5c5.8,1.1,10.1,6.3,10.1,12.2C56.1,33.5,52.8,37,48.5,37.2z"/>
</svg>
