<?xml version="1.0" encoding="utf-8"?>
<!-- Generator: Adobe Illustrator 22.0.0, SVG Export Plug-In . SVG Version: 6.00 Build 0)  -->
<svg version="1.1" id="lni_lni-coffee-cup" xmlns="http://www.w3.org/2000/svg" xmlns:xlink="http://www.w3.org/1999/xlink" x="0px"
	 y="0px" viewBox="0 0 64 64" style="enable-background:new 0 0 64 64;" xml:space="preserve">
<g>
	<path d="M54.2,25.7c-1.3,0-2.6,0.3-3.7,0.9c-0.2-3.2-2.9-5.7-6.1-5.7H9.3c-3.4,0-6.1,2.7-6.1,6.1v9.5c0,9.2,5.9,17,14.1,19.9H4
		c-1.2,0-2.3,1-2.3,2.3s1,2.3,2.3,2.3h45.8c1.2,0,2.3-1,2.3-2.3s-1-2.3-2.3-2.3H36.4c5.9-2.1,10.5-6.7,12.7-12.4
		c1.4,1.1,3.2,1.8,5.1,1.8c2.2,0,4.4-0.9,5.9-2.5c1.5-1.5,2.2-3.5,2.1-5.5v-4.1C62.2,29.3,58.7,25.7,54.2,25.7z M46,36.5
		c0,9.2-7.5,16.7-16.7,16.7h-4.9c-9.2,0-16.7-7.5-16.7-16.7V27c0-0.9,0.7-1.6,1.6-1.6h35.1c0.9,0,1.6,0.7,1.6,1.6V36.5z M56.9,40.3
		c-0.7,0.7-1.6,1.1-2.6,1.1c-1.9,0-3.5-1.6-3.5-3.5v-4.1c0-1.9,1.6-3.5,3.5-3.5c1.9,0,3.5,1.6,3.5,3.5l0,4.2
		C57.8,38.8,57.5,39.6,56.9,40.3z"/>
	<path d="M13.8,16.5c1.2,0,2.3-1,2.3-2.3V5.3c0-1.2-1-2.3-2.3-2.3s-2.3,1-2.3,2.3v8.9C11.5,15.5,12.6,16.5,13.8,16.5z"/>
	<path d="M26.9,16.5c1.2,0,2.3-1,2.3-2.3V5.3c0-1.2-1-2.3-2.3-2.3s-2.3,1-2.3,2.3v8.9C24.6,15.5,25.6,16.5,26.9,16.5z"/>
	<path d="M40,16.5c1.2,0,2.3-1,2.3-2.3V5.3c0-1.2-1-2.3-2.3-2.3s-2.3,1-2.3,2.3v8.9C37.7,15.5,38.7,16.5,40,16.5z"/>
</g>
</svg>
