<?xml version="1.0" encoding="utf-8"?>
<!-- Generator: Adobe Illustrator 22.0.0, SVG Export Plug-In . SVG Version: 6.00 Build 0)  -->
<svg version="1.1" id="lni_lni-fresh-juice" xmlns="http://www.w3.org/2000/svg" xmlns:xlink="http://www.w3.org/1999/xlink"
	 x="0px" y="0px" viewBox="0 0 64 64" style="enable-background:new 0 0 64 64;" xml:space="preserve">
<g>
	<path d="M55.9,32.4c-2-0.4-4,0.1-5.7,1.4c0,0,0,0,0,0c0.9-1.8,2.5-4,3.8-5.4c0.8-0.9,0.8-2.3-0.1-3.2c-0.9-0.8-2.3-0.8-3.2,0.1
		c-0.9,0.9-4.5,5.1-5.5,8.9c-0.3-0.2-0.7-0.3-1-0.6c-1.7-1.2-3.7-1.6-5.5-1.3c-4.1,0.7-6.9,4.5-6.3,8.7c1.4,9.7,4.3,13.5,6.5,14.9
		c1.1,0.8,2.3,1.2,3.6,1.2c0.4,0,0.7,0,1.1-0.1l0.2,0c1.1-0.2,1.8-0.6,2.5-1.3c0.6-0.6,1.5-0.6,2.1,0c0.3,0.3,1.2,1.1,2.6,1.3
		c1.8,0.3,3.3-0.1,4.8-1.1c2.1-1.5,4.9-5.4,6.4-14.9l0,0C62.8,37,60,33.1,55.9,32.4z M57.7,40.4c-1.4,9-3.9,11.4-4.6,11.9
		c-0.4,0.3-0.7,0.4-1.5,0.3l-0.1,0c0,0,0,0,0,0c-1.1-1.1-2.7-1.7-4.2-1.7c-1.5,0-3,0.6-4.2,1.7c0,0-0.1,0-0.2,0.1
		c-0.7,0.1-1,0-1.4-0.3c-0.7-0.5-3.2-2.9-4.6-11.9c-0.3-1.8,0.8-3.3,2.6-3.6c0.9-0.2,1.8,0.3,2.2,0.5c1.7,1.2,3.6,1.9,5.6,1.9l0.5,0
		c2-0.1,3.7-0.8,5.2-1.9c0.6-0.5,1.4-0.7,2.2-0.5C56.8,37.1,58,38.8,57.7,40.4z"/>
	<path d="M29.5,6.8H21c-2.6,0-4.9,1.8-5.5,4.4L14.3,17H7c-1.5,0-2.9,0.6-3.9,1.7c-1,1.1-1.5,2.5-1.4,4l2.5,29.7
		c0.2,2.7,2.5,4.8,5.2,4.8h13.7c2.7,0,5-2.1,5.2-4.8l2.5-29.7c0.1-1.5-0.4-2.9-1.4-4c-1-1.1-2.4-1.7-3.9-1.7h-6.8l1.1-4.8
		c0.1-0.5,0.6-0.9,1.1-0.9h8.4c1.2,0,2.3-1,2.3-2.3S30.7,6.8,29.5,6.8z M23.2,52.7H9.5c-0.4,0-0.7-0.3-0.7-0.7L6.9,30.4h18.8
		L23.9,52C23.9,52.4,23.6,52.7,23.2,52.7z M26.2,21.7c0.1,0.1,0.2,0.3,0.2,0.5l-0.3,3.6H6.6l-0.3-3.6c0-0.3,0.1-0.5,0.2-0.5
		c0.1-0.1,0.3-0.2,0.5-0.2h18.7C26,21.5,26.2,21.6,26.2,21.7z"/>
</g>
</svg>
