<?xml version="1.0" encoding="utf-8"?>
<!-- Generator: Adobe Illustrator 22.0.0, SVG Export Plug-In . SVG Version: 6.00 Build 0)  -->
<svg version="1.1" id="lni_lni-juice" xmlns="http://www.w3.org/2000/svg" xmlns:xlink="http://www.w3.org/1999/xlink" x="0px"
	 y="0px" viewBox="0 0 64 64" style="enable-background:new 0 0 64 64;" xml:space="preserve">
<path d="M50.9,16.1c-0.9-1.1-2.3-1.7-3.7-1.7h-12l3.3-8.2l8.7,0c0,0,0,0,0,0c1.2,0,2.2-1,2.3-2.2c0-1.2-1-2.3-2.2-2.3l-9.2,0
	c0,0,0,0,0,0c-1.6,0-3,1-3.5,2.4l-4.2,10.3H16.8c-1.4,0-2.8,0.6-3.7,1.7c-0.9,1.1-1.4,2.5-1.2,3.9l4,35.4c0.4,3.9,3.7,6.8,7.6,6.8
	h17.1c3.9,0,7.2-2.9,7.6-6.8l4-35.4C52.3,18.6,51.9,17.2,50.9,16.1z M16.4,19.1c0.1-0.1,0.2-0.2,0.3-0.2h30.4c0.2,0,0.3,0.1,0.3,0.2
	s0.1,0.2,0.1,0.4l-1.3,11.2l-1-0.5c-3-1.5-6.4-1.6-9.4-0.3l-1.2,0.5c-1.7,0.8-3.6,0.7-5.3-0.1L29,30.1c-3.1-1.5-6.8-1.4-9.7,0.2
	l-1.6,0.8l-1.3-11.6C16.3,19.3,16.4,19.2,16.4,19.1z M40.5,57.8H23.5c-1.6,0-3-1.2-3.2-2.8l-2.1-19l3.2-1.6c1.8-0.9,3.9-1,5.7-0.1
	l0.5,0.3c2.9,1.4,6.2,1.4,9.1,0.1l1.2-0.5c1.8-0.8,3.8-0.7,5.5,0.2l2.5,1.3l-2.2,19.5C43.5,56.5,42.2,57.8,40.5,57.8z"/>
</svg>
