<?xml version="1.0" encoding="utf-8"?>
<!-- Generator: Adobe Illustrator 22.0.0, SVG Export Plug-In . SVG Version: 6.00 Build 0)  -->
<svg version="1.1" id="lni_lni-pizza" xmlns="http://www.w3.org/2000/svg" xmlns:xlink="http://www.w3.org/1999/xlink" x="0px"
	 y="0px" viewBox="0 0 64 64" style="enable-background:new 0 0 64 64;" xml:space="preserve">
<path d="M62,36.3c-2.2-6.9-7-14.2-13.5-20.8C41.9,9,34.6,4.2,27.7,2C25,1.1,22.1,2.5,21,5.2L2.1,55c-0.8,2-0.3,4.2,1.2,5.7
	c1,1,2.4,1.6,3.8,1.6c0.6,0,1.3-0.1,1.9-0.4l32.9-12.5c0,0,0.1,0,0.1,0L58.8,43C61.5,41.9,62.9,39,62,36.3z M7.4,57.7
	c-0.5,0.2-0.8,0-0.9-0.2c-0.1-0.1-0.4-0.5-0.2-0.9L9.9,47c1.2,1.7,3.2,2.8,5.4,2.8c3.6,0,6.6-2.9,6.6-6.6c0-3.6-2.9-6.6-6.6-6.6
	c-0.5,0-1,0.1-1.5,0.2l6.9-18.1c0.8,0.5,1.7,1.1,2.6,1.7c-1.3,1.2-2.1,2.9-2.1,4.8c0,3.6,2.9,6.6,6.6,6.6c2.4,0,4.5-1.3,5.7-3.3
	c4.2,4,8.4,8.8,12,14.6l-1,0.4c-0.4-3.3-3.2-5.8-6.5-5.8c-3.6,0-6.6,2.9-6.6,6.6c0,1.4,0.4,2.7,1.2,3.8L7.4,57.7z M13.2,43.3
	c0-1.1,0.9-2.1,2.1-2.1c1.1,0,2.1,0.9,2.1,2.1c0,1.1-0.9,2.1-2.1,2.1C14.2,45.4,13.2,44.4,13.2,43.3z M27.2,23.4
	c0.8,0.7,1.7,1.3,2.6,2.1c0,1.1-0.9,2-2.1,2c-1.1,0-2.1-0.9-2.1-2.1C25.6,24.4,26.3,23.6,27.2,23.4z M37.2,46.4
	c-0.8-0.3-1.4-1-1.4-2c0-1.1,0.9-2.1,2.1-2.1c1.1,0,2.1,0.9,2.1,2.1c0,0.4-0.1,0.7-0.3,1L37.2,46.4z M57.2,38.7l-7.6,2.9
	c-4.8-7.9-10.5-14.2-16.2-19c-0.1,0-0.1-0.1-0.2-0.1c-1.4-1.2-2.8-2.3-4.1-3.3c0,0,0,0,0,0c-2.4-1.8-4.6-3.3-6.8-4.6l2.9-7.7
	c0.1-0.3,0.5-0.6,0.8-0.6c0.1,0,0.2,0,0.3,0c6.1,1.9,13,6.4,18.9,12.4c5.9,5.9,10.5,12.9,12.4,18.9C57.9,38.1,57.6,38.6,57.2,38.7z"
	/>
</svg>
