<?xml version="1.0" encoding="utf-8"?>
<!-- Generator: Adobe Illustrator 22.0.0, SVG Export Plug-In . SVG Version: 6.00 Build 0)  -->
<svg version="1.1" id="lni_lni-restaurant" xmlns="http://www.w3.org/2000/svg" xmlns:xlink="http://www.w3.org/1999/xlink" x="0px"
	 y="0px" viewBox="0 0 64 64" style="enable-background:new 0 0 64 64;" xml:space="preserve">
<g>
	<path d="M45.9,37.4h-5c-2,0-3.6,1.6-3.6,3.6v5c0,2,1.6,3.6,3.6,3.6h5c2,0,3.6-1.6,3.6-3.6v-5C49.5,39,47.9,37.4,45.9,37.4z M45,45
		h-3.1v-3.1H45V45z"/>
	<path d="M59.7,20.6C59.7,20.6,59.7,20.6,59.7,20.6l0-1.2c0-0.4-0.1-0.8-0.3-1.1L51.8,4.9c-1.1-1.9-3.1-3.1-5.3-3.1h-29
		c-2.2,0-4.2,1.2-5.3,3.1L4.6,18.3c0,0,0,0,0,0.1c0,0.1-0.1,0.2-0.1,0.3c-0.1,0.2-0.2,0.5-0.2,0.8v36.8c0,3.4,2.7,6.1,6.1,6.1h43.1
		c3.4,0,6.1-2.7,6.1-6.1L59.7,20.6C59.7,20.6,59.7,20.6,59.7,20.6z M29.6,21.6c-0.4,1.8-2.1,3.1-4,3.1s-3.5-1.3-4-3.1H29.6z
		 M16.1,7.1c0.3-0.5,0.8-0.8,1.4-0.8h29c0.6,0,1.1,0.3,1.4,0.8l5.6,10H10.5L16.1,7.1z M55,21.6c-0.4,1.8-2,3.1-4,3.1
		c-1.9,0-3.5-1.3-4-3.1H55z M42.3,21.6c-0.4,1.8-2,3.1-4,3.1s-3.5-1.3-4-3.1H42.3z M16.9,21.6c-0.4,1.8-2,3.1-4,3.1
		c-1.9,0-3.5-1.3-4-3.1H16.9z M19,57.8V42.3c0-0.2,0.2-0.4,0.4-0.4h4.8c0.2,0,0.4,0.2,0.4,0.4v15.4H19z M53.6,57.8H29.2V42.3
		c0-2.7-2.2-4.9-4.9-4.9h-4.8c-2.7,0-4.9,2.2-4.9,4.9v15.4h-4.1c-0.9,0-1.6-0.7-1.6-1.6v-28c1.2,0.7,2.6,1,4.1,1
		c2.5,0,4.8-1.1,6.4-2.8c1.6,1.7,3.8,2.8,6.4,2.8c2.5,0,4.8-1.1,6.4-2.8c1.6,1.7,3.8,2.8,6.4,2.8c2.5,0,4.8-1.1,6.4-2.8
		c1.6,1.7,3.8,2.8,6.4,2.8c1.5,0,2.9-0.4,4.1-1v28C55.2,57,54.4,57.8,53.6,57.8z"/>
</g>
</svg>
