<?xml version="1.0" encoding="utf-8"?>
<!-- Generator: Adobe Illustrator 22.0.0, SVG Export Plug-In . SVG Version: 6.00 Build 0)  -->
<svg version="1.1" id="lni_lni-service" xmlns="http://www.w3.org/2000/svg" xmlns:xlink="http://www.w3.org/1999/xlink" x="0px"
	 y="0px" viewBox="0 0 64 64" style="enable-background:new 0 0 64 64;" xml:space="preserve">
<path d="M58.7,39.7h-1.5c-1.5-12.5-11.1-22.2-22.9-23.3v-2.5h1.1c1.2,0,2.3-1,2.3-2.3s-1-2.3-2.3-2.3h-6.7c-1.2,0-2.3,1-2.3,2.3
	s1,2.3,2.3,2.3h1.1v2.5C17.9,17.5,8.4,27.2,6.8,39.7H5.3c-2,0-3.6,1.6-3.6,3.6v5.2c0,3.4,2.7,6.1,6.1,6.1h48.3
	c3.4,0,6.1-2.7,6.1-6.1v-5.2C62.3,41.3,60.6,39.7,58.7,39.7z M32,20.7c10.4,0,19.1,8.1,20.7,18.9H11.3C12.9,28.9,21.6,20.7,32,20.7z
	 M57.8,48.5c0,0.9-0.7,1.6-1.6,1.6H7.9c-0.9,0-1.6-0.7-1.6-1.6v-4.3h51.5V48.5z"/>
</svg>
