<?xml version="1.0" encoding="utf-8"?>
<!-- Generator: Adobe Illustrator 22.0.0, SVG Export Plug-In . SVG Version: 6.00 Build 0)  -->
<svg version="1.1" id="lni_lni-briefcase" xmlns="http://www.w3.org/2000/svg" xmlns:xlink="http://www.w3.org/1999/xlink" x="0px"
	 y="0px" viewBox="0 0 64 64" style="enable-background:new 0 0 64 64;" xml:space="preserve">
<path d="M56,13.2H44.8V7.7c0-2.9-2.4-5.3-5.3-5.3H24.4c-2.9,0-5.3,2.4-5.3,5.3v5.5H8c-3.4,0-6.3,2.8-6.3,6.3v35.8
	c0,3.4,2.8,6.3,6.3,6.3h48c3.4,0,6.3-2.8,6.3-6.3V19.5C62.2,16,59.4,13.2,56,13.2z M23.7,7.7C23.7,7.3,24,7,24.4,7h15.1
	c0.4,0,0.8,0.3,0.8,0.8v5.5H23.7V7.7z M57.7,55.3c0,1-0.8,1.8-1.8,1.8H8c-1,0-1.8-0.8-1.8-1.8V19.5c0-1,0.8-1.8,1.8-1.8h48
	c1,0,1.8,0.8,1.8,1.8V55.3z"/>
</svg>
