<?xml version="1.0" encoding="utf-8"?>
<!-- Generator: Adobe Illustrator 22.0.0, SVG Export Plug-In . SVG Version: 6.00 Build 0)  -->
<svg version="1.1" id="lni_lni-crown" xmlns="http://www.w3.org/2000/svg" xmlns:xlink="http://www.w3.org/1999/xlink" x="0px"
	 y="0px" viewBox="0 0 64 64" style="enable-background:new 0 0 64 64;" xml:space="preserve">
<g>
	<path d="M59.4,9.1c-2-1.2-4.4-1.2-6.4,0l-6.8,4.1c-0.6,0.4-1.3,0.3-1.9-0.1l-8.4-6.7c-2.2-1.8-5.5-1.8-7.7,0l-8.5,6.9
		c-0.5,0.4-1.3,0.5-1.9,0.1l-6.8-4C9,8.3,6.6,8.3,4.6,9.6c-2,1.2-3.1,3.4-2.9,5.7l3.2,36.6c0.4,4,3.7,7.1,7.7,7.1h38.6
		c4,0,7.4-3,7.7-7.1l3.3-37C62.4,12.6,61.3,10.4,59.4,9.1z M51.2,54.5H12.7c-1.7,0-3.1-1.3-3.2-3L8.5,41.3h46.8l-0.9,10.2
		C54.3,53.2,52.9,54.5,51.2,54.5z M57.7,14.5l-2,22.3H8.2L6.3,14.9C6.2,14,6.8,13.5,7,13.4c0.2-0.1,0.5-0.3,0.9-0.3
		c0.3,0,0.5,0.1,0.8,0.2l6.8,4c2.2,1.3,5,1.1,7-0.5L31,9.9c0.6-0.5,1.5-0.5,2.1,0l8.4,6.7c2,1.6,4.8,1.8,7,0.5l6.8-4.1
		c0.8-0.5,1.5-0.1,1.7,0C57.2,13.1,57.8,13.6,57.7,14.5z"/>
	<path d="M23.9,47.1c0-0.1-0.1-0.3-0.2-0.4c-0.1-0.1-0.2-0.2-0.3-0.3c-0.8-0.8-2.4-0.8-3.2,0c-0.1,0.1-0.2,0.2-0.3,0.3
		c-0.1,0.1-0.2,0.3-0.2,0.4c-0.1,0.1-0.1,0.3-0.1,0.4c0,0.1,0,0.3,0,0.4c0,0.1,0,0.3,0,0.4c0,0.1,0.1,0.3,0.1,0.4
		c0,0.1,0.1,0.3,0.2,0.4c0.1,0.1,0.2,0.2,0.3,0.3c0.4,0.4,1,0.7,1.6,0.7s1.2-0.2,1.6-0.7c0.1-0.1,0.2-0.2,0.3-0.3
		c0.1-0.1,0.1-0.3,0.2-0.4c0-0.1,0.1-0.3,0.1-0.4c0-0.2,0-0.3,0-0.4c0-0.1,0-0.3,0-0.4C24,47.3,24,47.2,23.9,47.1z"/>
	<path d="M33.3,46.1c-0.1-0.1-0.3-0.2-0.4-0.2c-0.1-0.1-0.3-0.1-0.4-0.1c-0.7-0.2-1.5,0.1-2,0.6c-0.4,0.4-0.7,1-0.7,1.6
		c0,0.6,0.2,1.2,0.7,1.6c0.4,0.4,1,0.7,1.6,0.7c0.6,0,1.2-0.2,1.6-0.7c0.4-0.4,0.7-1,0.7-1.6c0-0.6-0.2-1.2-0.7-1.6
		C33.5,46.2,33.4,46.1,33.3,46.1z"/>
	<path d="M41.7,45.7c-0.1,0-0.3,0.1-0.4,0.1c-0.1,0-0.3,0.1-0.4,0.2c-0.1,0.1-0.2,0.2-0.3,0.3c-0.4,0.4-0.7,1-0.7,1.6
		c0,0.6,0.2,1.2,0.7,1.6c0.4,0.4,1,0.7,1.6,0.7c0.6,0,1.2-0.2,1.6-0.7c0.4-0.4,0.7-1,0.7-1.6c0-0.6-0.3-1.2-0.7-1.6
		C43.2,45.8,42.4,45.6,41.7,45.7z"/>
</g>
</svg>
