<?xml version="1.0" encoding="utf-8"?>
<!-- Generator: Adobe Illustrator 22.0.0, SVG Export Plug-In . SVG Version: 6.00 Build 0)  -->
<svg version="1.1" id="lni_lni-CUP" xmlns="http://www.w3.org/2000/svg" xmlns:xlink="http://www.w3.org/1999/xlink" x="0px"
	 y="0px" viewBox="0 0 64 64" style="enable-background:new 0 0 64 64;" xml:space="preserve">
<path d="M56.6,9.4H47V4.8c0-1.7-1.4-3.1-3.1-3.1H20.1c-1.7,0-3.1,1.4-3.1,3.1v4.6H7.4c-1.8,0-3.1,1.3-3.1,3.1v0.8
	c0,7.4,5.5,13.5,12.7,14.6v0.3c0,7.4,5.5,13.6,12.7,14.7v14.9h-7.9c-1.2,0-2.3,1-2.3,2.3s1,2.3,2.3,2.3h20.4c1.2,0,2.3-1,2.3-2.3
	s-1-2.3-2.3-2.3h-7.9V42.8c3.2-0.5,6.2-1.9,8.5-4.3c2.8-2.8,4.3-6.5,4.2-10.4v-0.3c7.2-1.1,12.7-7.2,12.7-14.6v-0.8
	C59.7,10.7,58.4,9.4,56.6,9.4z M8.8,13.9H17v9.4C12.5,22.4,9.1,18.5,8.8,13.9z M42.5,28.2c0,2.7-1,5.3-2.9,7.2c-2,2-4.7,3.1-7.6,3.1
	c-5.8,0-10.5-4.6-10.5-10.3v-0.1V6.3h21v21.8V28.2z M47,23.3v-9.4h8.2C54.9,18.5,51.5,22.4,47,23.3z"/>
</svg>
