<?xml version="1.0" encoding="utf-8"?>
<!-- Generator: Adobe Illustrator 22.0.0, SVG Export Plug-In . SVG Version: 6.00 Build 0)  -->
<svg version="1.1" id="lni_lni-gift" xmlns="http://www.w3.org/2000/svg" xmlns:xlink="http://www.w3.org/1999/xlink" x="0px"
	 y="0px" viewBox="0 0 64 64" style="enable-background:new 0 0 64 64;" xml:space="preserve">
<path d="M54.1,14.5h-4.6c1.1-0.8,2-1.7,2.4-2.8c0.6-1.5,0.6-4-2.5-6.9c-3.3-3.2-6.3-3.2-8.2-2.7c-4.3,1.1-7.2,6.1-8.8,9.7
	c-1.6-3.6-4.5-8.5-8.8-9.7c-1.9-0.5-4.9-0.4-8.2,2.7c-3.1,3-3,5.4-2.5,6.9c0.4,1.1,1.3,2,2.4,2.8H9.9c-2.9,0-5.3,2.4-5.3,5.3v6.6
	c0,2.8,2.3,5.1,5.1,5.2V56c0,3.4,2.8,6.3,6.3,6.3h32.7c3.4,0,6.3-2.8,6.3-6.3V31.5c2.5-0.4,4.4-2.6,4.4-5.2v-6.6
	C59.4,16.8,57,14.5,54.1,14.5z M42.3,6.3c0.1,0,0.4-0.1,0.7-0.1c0.7,0,1.8,0.3,3.3,1.7c1.2,1.1,1.5,1.9,1.4,2.1
	c-0.5,1.4-5.5,2.9-11.2,3.5C37.9,10.4,40,6.9,42.3,6.3z M18.4,8c1.5-1.4,2.6-1.7,3.3-1.7c0.3,0,0.5,0.1,0.7,0.1
	c2.3,0.6,4.5,4,5.9,7.2c-5.7-0.6-10.7-2.1-11.2-3.5C17,9.8,17.3,9.1,18.4,8z M9.1,26.3v-6.6c0-0.4,0.3-0.8,0.8-0.8h44.2
	c0.4,0,0.8,0.3,0.8,0.8v6.6c0,0.4-0.3,0.8-0.8,0.8H9.9C9.5,27.1,9.1,26.8,9.1,26.3z M48.7,57.8H16c-1,0-1.8-0.8-1.8-1.8V31.6h36.2
	V56C50.5,57,49.7,57.8,48.7,57.8z"/>
</svg>
