<?xml version="1.0" encoding="utf-8"?>
<!-- Generator: Adobe Illustrator 22.0.0, SVG Export Plug-In . SVG Version: 6.00 Build 0)  -->
<svg version="1.1" id="lni_lni-home" xmlns="http://www.w3.org/2000/svg" xmlns:xlink="http://www.w3.org/1999/xlink" x="0px"
	 y="0px" viewBox="0 0 64 64" style="enable-background:new 0 0 64 64;" xml:space="preserve">
<g>
	<path d="M56.4,62.3H43.3c-3.2,0-5.9-2.6-5.9-5.9V45.8c0-0.8-0.6-1.4-1.4-1.4h-8c-0.8,0-1.4,0.6-1.4,1.4v10.6c0,3.3-2.6,5.9-5.9,5.9
		H7.6c-3.2,0-5.9-2.6-5.9-5.9V22.7c0-1.7,0.8-3.2,2.2-4.1L29.4,2.5c1.6-1,3.6-1,5.1,0L60,18.7c1.4,0.9,2.2,2.4,2.2,4.1v33.6
		C62.3,59.6,59.6,62.3,56.4,62.3z M28,39.9h8c3.3,0,5.9,2.6,5.9,5.9v10.6c0,0.8,0.6,1.4,1.4,1.4h13.1c0.8,0,1.4-0.6,1.4-1.4V22.7
		c0-0.1-0.1-0.2-0.1-0.3L32.1,6.3c-0.1-0.1-0.2-0.1-0.3,0L6.4,22.4c-0.1,0.1-0.2,0.2-0.2,0.3v33.7c0,0.8,0.6,1.4,1.4,1.4h13.1
		c0.8,0,1.4-0.6,1.4-1.4V45.8C22.1,42.6,24.7,39.9,28,39.9z"/>
</g>
</svg>
