<?xml version="1.0" encoding="utf-8"?>
<!-- Generator: Adobe Illustrator 22.0.0, SVG Export Plug-In . SVG Version: 6.00 Build 0)  -->
<svg version="1.1" id="lni_lni-t-shirt" xmlns="http://www.w3.org/2000/svg" xmlns:xlink="http://www.w3.org/1999/xlink" x="0px"
	 y="0px" viewBox="0 0 64 64" style="enable-background:new 0 0 64 64;" xml:space="preserve">
<g>
	<g>
		<path d="M45.1,58.6H18.7c-4,0-7.3-3.1-7.6-7.2L9.6,23.3H5.7c-1.7,0-3.1-1.3-3.2-2.9L1.8,8.6c0-1.8,1.4-3.1,3.2-3.1h18.4
			c1.4,0,2.6,0.9,3.1,2.3l0.1,0.4c0.3,2.4,2.7,4.4,5.5,4.4c2.8,0,5.2-1.9,5.5-4.3c0.1-1.5,1.5-2.8,3.2-2.8h18.4
			c1.8,0,3.2,1.4,3.2,3.1l0,0.2l-0.8,11.7c-0.1,1.6-1.5,2.9-3.2,2.9h-4.1l-1.5,28.1C52.5,55.4,49.2,58.6,45.1,58.6z M14.1,21.7
			l1.6,29.4c0.1,1.6,1.4,2.9,3.1,2.9h26.5c1.6,0,3-1.3,3.1-2.9l1.6-29.4c0-1.8,1.7-2.9,3.2-2.9h4.1l0.6-8.9H41.8
			C40.7,14,36.7,17,32,17c-4.7,0-8.7-3-9.8-7.1H6.3l0.6,8.9h4C12.6,18.8,14,20.1,14.1,21.7z"/>
	</g>
</g>
</svg>
