<?xml version="1.0" encoding="utf-8"?>
<!-- Generator: Adobe Illustrator 22.0.0, SVG Export Plug-In . SVG Version: 6.00 Build 0)  -->
<svg version="1.1" id="lni_lni-thought" xmlns="http://www.w3.org/2000/svg" xmlns:xlink="http://www.w3.org/1999/xlink" x="0px"
	 y="0px" viewBox="0 0 64 64" style="enable-background:new 0 0 64 64;" xml:space="preserve">
<g>
	<g>
		<path d="M25.5,44.2c-4.9,0-9.6-2.5-12.4-6.6C8,35,4.8,29.8,4.8,24.2c0-8.3,6.8-15.1,15.1-15.2C20.6,9,21.3,9,22,9.1
			c2.5-5.1,7.7-8.4,13.5-8.4c6.7,0,12.6,4.5,14.4,10.9c5.6,2.3,9.3,7.7,9.3,13.9c0,8.3-6.7,15-15,15c-2.5,0-4.9-0.6-7.1-1.8
			C34.2,42.1,30,44.1,25.5,44.2z M19.9,13.5c-5.8,0.1-10.6,4.8-10.6,10.7c0,4.1,2.5,7.9,6.2,9.6c0.4,0.2,0.7,0.5,1,0.9
			c1.9,3.1,5.3,5,8.9,5c3.7-0.1,7.1-2,9.1-5.1c0.3-0.5,0.9-0.9,1.5-1c0.6-0.1,1.3,0,1.8,0.4c1.9,1.4,4.1,2.2,6.4,2.2
			c5.8,0,10.5-4.7,10.5-10.5c0-4.7-3-8.7-7.4-10.1c-0.8-0.2-1.4-0.9-1.5-1.7c-1-4.9-5.3-8.5-10.3-8.5c-4.5,0-8.5,2.9-10,7.2
			c-0.4,1.1-1.6,1.8-2.7,1.5C21.8,13.6,20.8,13.5,19.9,13.5z"/>
	</g>
	<g>
		<path d="M40.7,56c-3.6,0-6.6-3-6.6-6.6s3-6.6,6.6-6.6s6.6,3,6.6,6.6S44.4,56,40.7,56z M40.7,47.3c-1.2,0-2.1,0.9-2.1,2.1
			c0,1.2,0.9,2.1,2.1,2.1s2.1-0.9,2.1-2.1C42.9,48.2,41.9,47.3,40.7,47.3z"/>
	</g>
	<g>
		<path d="M52.6,63.3c-3,0-5.4-2.4-5.4-5.4s2.4-5.4,5.4-5.4c1.5,0,2.9,0.6,3.9,1.6c1,1,1.5,2.4,1.5,3.9c0,0.1,0,0.1,0,0.2
			C57.8,61,55.5,63.3,52.6,63.3z M52.6,57c-0.5,0-0.9,0.4-0.9,0.9c0,0.5,0.4,0.9,0.9,0.9c0.5,0,0.8-0.4,0.9-0.9c0,0,0,0,0,0
			c0-0.3-0.1-0.4-0.2-0.5C53.2,57.2,52.9,57,52.6,57z"/>
	</g>
</g>
</svg>
