<?xml version="1.0" encoding="utf-8"?>
<!-- Generator: Adobe Illustrator 22.0.0, SVG Export Plug-In . SVG Version: 6.00 Build 0)  -->
<svg version="1.1" id="Layer_1" xmlns="http://www.w3.org/2000/svg" xmlns:xlink="http://www.w3.org/1999/xlink" x="0px" y="0px"
	 viewBox="0 0 64 64" style="enable-background:new 0 0 64 64;" xml:space="preserve">
<path d="M57,56.7h-3.2c0.1-0.8,0.1-1.5,0.1-2.3c0-7.1-6.2-14.9-11.7-21.8c-0.1-0.2-0.3-0.4-0.4-0.6c0.1-0.2,0.3-0.4,0.4-0.6
	c5.5-6.9,11.7-14.7,11.7-21.8c0-0.8,0-1.6-0.1-2.3H57c1.2,0,2.3-1,2.3-2.3s-1-2.3-2.3-2.3H7c-1.2,0-2.3,1-2.3,2.3s1,2.3,2.3,2.3h3.2
	c-0.1,0.8-0.1,1.6-0.1,2.3c0,7.1,6.2,14.9,11.7,21.8c0.1,0.2,0.3,0.4,0.4,0.6c-0.1,0.2-0.3,0.4-0.4,0.6
	c-5.5,6.9-11.7,14.7-11.7,21.8c0,0.8,0,1.6,0.1,2.3H7c-1.2,0-2.3,1-2.3,2.3s1,2.3,2.3,2.3h50c1.2,0,2.3-1,2.3-2.3S58.2,56.7,57,56.7
	z M14.6,54.4c0-5.5,6-13,10.8-19c0.5-0.7,1.1-1.3,1.6-2c0.6-0.8,0.6-2,0-2.8c-0.5-0.6-1-1.3-1.6-2c-4.8-6-10.8-13.5-10.8-19
	c0-0.8,0-1.6,0.1-2.3h34.6c0.1,0.8,0.1,1.6,0.1,2.3c0,5.5-6,13-10.8,19c-0.5,0.7-1.1,1.3-1.6,2c-0.6,0.8-0.6,2,0,2.8
	c0.5,0.6,1,1.3,1.6,2c4.8,6,10.8,13.5,10.8,19c0,0.8,0,1.6-0.1,2.3H14.7C14.6,55.9,14.6,55.2,14.6,54.4z"/>
</svg>
