<?xml version="1.0" encoding="utf-8"?>
<!-- Generator: Adobe Illustrator 22.0.0, SVG Export Plug-In . SVG Version: 6.00 Build 0)  -->
<svg version="1.1" id="Layer_1" xmlns="http://www.w3.org/2000/svg" xmlns:xlink="http://www.w3.org/1999/xlink" x="0px" y="0px"
	 viewBox="0 0 64 64" style="enable-background:new 0 0 64 64;" xml:space="preserve">
<path d="M58.2,26.8c-0.4-1.2-1.6-1.8-2.8-1.5c-1.2,0.4-1.8,1.6-1.5,2.8c0.7,2.2,1.1,4.5,1.1,6.8c0,3.5-0.8,6.8-2.3,9.9
	C48.8,52.8,40.9,57.8,32,57.8C19.3,57.8,9,47.5,9,35s10.3-22.8,23-22.8c2.3,0,4.6,0.3,6.7,1l-3.4,1.6c-1.1,0.5-1.6,1.9-1.1,3
	c0.4,0.8,1.2,1.3,2,1.3c0.3,0,0.6-0.1,0.9-0.2l8.8-4.1c0.5-0.3,1-0.7,1.2-1.3s0.2-1.2-0.1-1.7L43,3c-0.5-1.1-1.9-1.6-3-1.1
	c-1.1,0.5-1.6,1.9-1.1,3l1.9,4.2c-2.8-1-5.8-1.5-8.9-1.5C16.9,7.7,4.5,19.9,4.5,35S16.9,62.3,32,62.3c10.6,0,20.1-5.9,24.7-15.4
	c1.8-3.7,2.8-7.7,2.8-11.9C59.5,32.2,59,29.4,58.2,26.8z"/>
</svg>
