<?xml version="1.0" encoding="utf-8"?>
<!-- Generator: Adobe Illustrator 25.2.1, SVG Export Plug-In . SVG Version: 6.00 Build 0)  -->
<svg version="1.1" id="lni_lni-spinner" xmlns="http://www.w3.org/2000/svg" xmlns:xlink="http://www.w3.org/1999/xlink" x="0px"
	 y="0px" viewBox="0 0 64 64" style="enable-background:new 0 0 64 64;" xml:space="preserve">
<g>
	<path d="M33.3,2c-4.3,0-7.8,3.5-7.8,7.8c0,4.3,3.5,7.8,7.8,7.8c4.3,0,7.8-3.5,7.8-7.8C41.1,5.5,37.6,2,33.3,2z"/>
	<path d="M33.3,52.5c-2.6,0-4.8,2.1-4.8,4.8s2.1,4.8,4.8,4.8c2.6,0,4.8-2.1,4.8-4.8S35.9,52.5,33.3,52.5z"/>
	<path d="M57,30c-1.9,0-3.5,1.6-3.5,3.5c0,1.9,1.6,3.5,3.5,3.5s3.5-1.6,3.5-3.5C60.4,31.6,58.9,30,57,30z"/>
	<path d="M15.4,33.5c0-3.3-2.7-5.9-5.9-5.9c-3.3,0-5.9,2.7-5.9,5.9c0,3.3,2.7,5.9,5.9,5.9C12.8,39.4,15.4,36.8,15.4,33.5z"/>
	<circle cx="50.1" cy="50.2" r="4.1"/>
	<path d="M16.5,10.1c-1.7,0-3.4,0.7-4.6,1.9c-2.5,2.5-2.5,6.7,0,9.2c1.3,1.3,2.9,1.9,4.6,1.9c1.7,0,3.3-0.6,4.6-1.9
		c1.2-1.2,1.9-2.9,1.9-4.6c0-1.7-0.7-3.4-1.9-4.6C19.9,10.8,18.2,10.1,16.5,10.1z"/>
	<path d="M50,19.6C50,19.6,50,19.6,50,19.6c0.8,0,1.5-0.3,2.1-0.8v0c0.6-0.6,0.9-1.3,0.8-2.1c0-0.8-0.3-1.4-0.8-1.9
		c-0.6-0.6-1.3-0.9-2.1-0.8c-0.8,0-1.4,0.3-1.9,0.8c-0.6,0.6-0.9,1.3-0.8,2.1c0,0.8,0.3,1.4,0.8,1.9C48.5,19.3,49.2,19.6,50,19.6z"
		/>
	<path d="M16.5,45c-2.9,0-5.3,2.4-5.3,5.3s2.4,5.3,5.3,5.3c2.9,0,5.3-2.4,5.3-5.3S19.4,45,16.5,45z"/>
</g>
</svg>
